<?xml version="1.0" encoding="utf-8"?>
<!-- Generator: Adobe Illustrator 26.3.1, SVG Export Plug-In . SVG Version: 6.00 Build 0)  -->
<svg version="1.1" id="Layer_1" xmlns="http://www.w3.org/2000/svg" xmlns:xlink="http://www.w3.org/1999/xlink" x="0px" y="0px"
	 viewBox="0 0 163.6787109 30.2851562" style="enable-background:new 0 0 163.6787109 30.2851562;" xml:space="preserve">
<style type="text/css">
	.st0{fill:#FFFFFF;}
</style>
<g>
	<path class="st0" d="M0.3149414,0.2382812h3.5439453v0.5039062H0.8681641v1.6738281h2.675293v0.5048828h-2.675293v1.7158203
		H3.894043V5.140625H0.3149414V0.2382812z"/>
	<path class="st0" d="M5.0048828,0.2382812h1.8349609c1.1064453,0,1.8349609,0.5878906,1.8349609,1.5546875v0.0136719
		c0,1.0576172-0.8823242,1.6044922-1.9257812,1.6044922h-1.190918V5.140625H5.0048828V0.2382812z M6.7700195,2.90625
		c0.8125,0,1.3447266-0.4335938,1.3447266-1.078125V1.8134766c0-0.7001953-0.5253906-1.0644531-1.3168945-1.0644531H5.5581055
		V2.90625H6.7700195z"/>
	<path class="st0" d="M9.4638672,2.703125V2.6894531c0-1.3867188,1.0366211-2.5351562,2.4794922-2.5351562
		c0.8896484,0,1.421875,0.3144531,1.9121094,0.7773438l-0.378418,0.40625
		c-0.4130859-0.3925781-0.8754883-0.6728516-1.5405273-0.6728516c-1.0859375,0-1.8979492,0.8828125-1.8979492,2.0107422v0.0136719
		c0,1.1347656,0.8193359,2.0244141,1.8979492,2.0244141c0.6723633,0,1.1132812-0.2597656,1.5825195-0.7080078l0.3642578,0.3574219
		c-0.5112305,0.5185547-1.0712891,0.8613281-1.9609375,0.8613281C10.5078125,5.2246094,9.4638672,4.1113281,9.4638672,2.703125z"/>
	<path class="st0" d="M14.875,0.2382812h0.5532227v4.390625h2.7597656V5.140625H14.875V0.2382812z"/>
	<path class="st0" d="M18.9975586,3.0888672V0.2382812h0.5532227v2.8154297c0,1.0576172,0.5605469,1.6523438,1.4990234,1.6523438
		c0.9033203,0,1.4780273-0.5458984,1.4780273-1.6171875V0.2382812h0.5532227V3.046875
		c0,1.4287109-0.8198242,2.1708984-2.0454102,2.1708984C19.8242188,5.2177734,18.9975586,4.4755859,18.9975586,3.0888672z"/>
	<path class="st0" d="M24.0654297,4.4257812l0.3432617-0.40625c0.5112305,0.4628906,1.0014648,0.6943359,1.6811523,0.6943359
		c0.6582031,0,1.0922852-0.3505859,1.0922852-0.8339844V3.8662109c0-0.4550781-0.2451172-0.7148438-1.2744141-0.9316406
		c-1.1279297-0.2451172-1.6459961-0.609375-1.6459961-1.4150391V1.5058594c0-0.7705078,0.6791992-1.3378906,1.6108398-1.3378906
		c0.7143555,0,1.2255859,0.203125,1.7226562,0.6025391l-0.3217773,0.4267578
		c-0.4555664-0.3710938-0.9106445-0.5322266-1.4150391-0.5322266c-0.637207,0-1.043457,0.3505859-1.043457,0.7919922v0.0136719
		c0,0.4619141,0.2519531,0.7216797,1.3305664,0.9521484c1.0927734,0.2382812,1.597168,0.6376953,1.597168,1.3867188v0.0146484
		c0,0.8398438-0.7006836,1.3867188-1.6738281,1.3867188C25.2910156,5.2109375,24.6538086,4.9511719,24.0654297,4.4257812z"/>
	<path class="st0" d="M30.5766602,0.203125h0.5185547l2.2338867,4.9375h-0.5952148L32.159668,3.8447266h-2.668457
		L28.909668,5.140625h-0.5673828L30.5766602,0.203125z M31.9423828,3.3476562l-1.1137695-2.5l-1.1206055,2.5H31.9423828z"/>
	<path class="st0" d="M36.3154297,0.1328125h0.6166992v0.5957031h-0.6166992V0.1328125z M36.3505859,1.5195312h0.5390625V5.140625
		h-0.5390625V1.5195312z"/>
	<path class="st0" d="M37.8413086,4.6787109l0.2729492-0.3857422c0.3920898,0.2939453,0.8266602,0.4628906,1.2539062,0.4628906
		c0.434082,0,0.7495117-0.2246094,0.7495117-0.5751953V4.1669922c0-0.3642578-0.4272461-0.5039062-0.9038086-0.6376953
		c-0.5673828-0.1601562-1.1977539-0.3564453-1.1977539-1.0224609V2.4931641c0-0.6230469,0.5185547-1.0361328,1.2329102-1.0361328
		c0.4414062,0,0.9316406,0.1533203,1.3027344,0.3984375l-0.2451172,0.40625
		c-0.3364258-0.2167969-0.7216797-0.3496094-1.0717773-0.3496094c-0.4272461,0-0.7001953,0.2236328-0.7001953,0.5253906v0.0136719
		c0,0.3427734,0.4482422,0.4765625,0.9316406,0.6230469c0.5600586,0.1679688,1.1625977,0.3857422,1.1625977,1.0371094V4.125
		c0,0.6865234-0.5673828,1.0859375-1.2890625,1.0859375C38.8217773,5.2109375,38.2475586,5.0078125,37.8413086,4.6787109z"/>
	<path class="st0" d="M43.7421875,0.1328125h0.6166992v0.5957031h-0.6166992V0.1328125z M43.7773438,1.5195312h0.5390625V5.140625
		h-0.5390625V1.5195312z"/>
	<path class="st0" d="M45.5693359,1.5195312h0.5390625v0.6308594c0.2382812-0.3925781,0.6162109-0.7080078,1.2397461-0.7080078
		c0.8754883,0,1.387207,0.5888672,1.387207,1.4501953V5.140625h-0.5400391V3.0253906
		c0-0.671875-0.3637695-1.0927734-1.0014648-1.0927734c-0.6230469,0-1.0854492,0.4550781-1.0854492,1.1347656V5.140625h-0.5390625
		V1.5195312z"/>
	<path class="st0" d="M49.6708984,3.3408203V3.3261719c0-1.1835938,0.8623047-1.8837891,1.7304688-1.8837891
		c0.671875,0,1.1064453,0.3642578,1.3867188,0.7705078V0.0283203h0.5390625V5.140625h-0.5390625V4.4121094
		c-0.2939453,0.4345703-0.7216797,0.8056641-1.3867188,0.8056641C50.5332031,5.2177734,49.6708984,4.53125,49.6708984,3.3408203z
		 M52.8085938,3.3339844V3.3193359c0-0.8330078-0.6367188-1.3935547-1.3095703-1.3935547
		c-0.7001953,0-1.2744141,0.5185547-1.2744141,1.3935547v0.0146484c0,0.8544922,0.5878906,1.4003906,1.2744141,1.4003906
		C52.171875,4.734375,52.8085938,4.1669922,52.8085938,3.3339844z"/>
	<path class="st0" d="M54.5429688,0.1328125h0.6171875v0.5957031h-0.6171875V0.1328125z M54.578125,1.5195312h0.5390625V5.140625
		H54.578125V1.5195312z"/>
	<path class="st0" d="M56.1464844,3.3476562V3.3339844c0-1.0224609,0.7978516-1.8916016,1.8554688-1.8916016
		c0.6865234,0,1.1132812,0.2871094,1.4501953,0.6445312l-0.3574219,0.3779297
		c-0.2871094-0.3007812-0.609375-0.5458984-1.0996094-0.5458984c-0.7353516,0-1.2958984,0.6230469-1.2958984,1.4003906v0.0146484
		c0,0.7841797,0.5742188,1.4072266,1.3310547,1.4072266c0.4619141,0,0.8193359-0.2304688,1.1064453-0.5390625l0.3427734,0.3222656
		c-0.3642578,0.40625-0.7978516,0.7001953-1.4775391,0.7001953C56.9443359,5.2246094,56.1464844,4.3632812,56.1464844,3.3476562z"/>
	<path class="st0" d="M60.09375,4.0898438V4.0761719c0-0.7636719,0.6308594-1.1699219,1.5478516-1.1699219
		c0.4628906,0,0.7919922,0.0634766,1.1142578,0.1542969V2.9345703c0-0.6513672-0.3994141-0.9873047-1.0791016-0.9873047
		c-0.4267578,0-0.7636719,0.1113281-1.0996094,0.265625l-0.1611328-0.4414062
		c0.3994141-0.1816406,0.7919922-0.3007812,1.3173828-0.3007812c0.5107422,0,0.9033203,0.1328125,1.1689453,0.3994141
		c0.2451172,0.2451172,0.3710938,0.5947266,0.3710938,1.0576172V5.140625h-0.5175781V4.5947266
		c-0.2529297,0.3291016-0.6728516,0.6230469-1.3095703,0.6230469C60.7734375,5.2177734,60.09375,4.8320312,60.09375,4.0898438z
		 M62.7626953,3.8095703V3.4599609c-0.2666016-0.0771484-0.6230469-0.1542969-1.0644531-0.1542969
		c-0.6796875,0-1.0576172,0.2939453-1.0576172,0.7490234v0.0146484c0,0.4550781,0.4199219,0.7207031,0.9101562,0.7207031
		C62.2158203,4.7900391,62.7626953,4.3837891,62.7626953,3.8095703z"/>
	<path class="st0" d="M64.5742188,4.1806641V1.9960938h-0.5039062V1.5195312h0.5039062V0.4267578h0.5390625v1.0927734h1.1494141
		v0.4765625h-1.1494141v2.1152344c0,0.4414062,0.2451172,0.6025391,0.609375,0.6025391
		c0.1826172,0,0.3369141-0.0351562,0.5253906-0.1269531v0.4628906c-0.1884766,0.0976562-0.3916016,0.1542969-0.6513672,0.1542969
		C65.015625,5.2041016,64.5742188,4.9160156,64.5742188,4.1806641z"/>
	<path class="st0" d="M66.8916016,3.3408203V3.3261719c0-1.0429688,0.7353516-1.8837891,1.7363281-1.8837891
		c1.0712891,0,1.6884766,0.8544922,1.6884766,1.9121094c0,0.0703125,0,0.1123047-0.0078125,0.1748047H67.4375
		c0.0771484,0.7851562,0.6298828,1.2265625,1.2744141,1.2265625c0.4970703,0,0.8476562-0.203125,1.1416016-0.5117188
		l0.3359375,0.3007812c-0.3632812,0.40625-0.8046875,0.6796875-1.4912109,0.6796875
		C67.703125,5.2246094,66.8916016,4.4609375,66.8916016,3.3408203z M69.7695312,3.1308594
		c-0.0556641-0.6582031-0.4335938-1.2333984-1.1552734-1.2333984c-0.6308594,0-1.1064453,0.5253906-1.1767578,1.2333984H69.7695312z
		"/>
	<path class="st0" d="M71.0488281,3.3408203V3.3261719c0-1.1835938,0.8613281-1.8837891,1.7294922-1.8837891
		c0.6728516,0,1.1064453,0.3642578,1.3867188,0.7705078V0.0283203h0.5400391V5.140625h-0.5400391V4.4121094
		c-0.2939453,0.4345703-0.7207031,0.8056641-1.3867188,0.8056641C71.9101562,5.2177734,71.0488281,4.53125,71.0488281,3.3408203z
		 M74.1865234,3.3339844V3.3193359c0-0.8330078-0.6376953-1.3935547-1.3095703-1.3935547
		c-0.7001953,0-1.2753906,0.5185547-1.2753906,1.3935547v0.0146484c0,0.8544922,0.5888672,1.4003906,1.2753906,1.4003906
		C73.5488281,4.734375,74.1865234,4.1669922,74.1865234,3.3339844z"/>
	<path class="st0" d="M78.2099609,1.9960938h-0.4970703V1.5263672h0.4970703V1.2119141
		c0-0.4140625,0.1123047-0.7285156,0.3154297-0.9316406C78.7070312,0.0976562,78.9736328,0,79.3027344,0
		c0.2519531,0,0.4199219,0.0283203,0.5947266,0.0908203v0.4697266C79.7021484,0.5039062,79.5546875,0.46875,79.3730469,0.46875
		c-0.4208984,0-0.6308594,0.2529297-0.6308594,0.7705078v0.2939453h1.1484375v0.4628906h-1.1416016V5.140625h-0.5390625V1.9960938z"
		/>
	<path class="st0" d="M80.2822266,3.3476562V3.3339844c0-1.0224609,0.7978516-1.8916016,1.890625-1.8916016
		c1.0859375,0,1.8837891,0.8544922,1.8837891,1.8769531v0.0146484c0,1.0224609-0.8056641,1.890625-1.8974609,1.890625
		C81.0732422,5.2246094,80.2822266,4.3701172,80.2822266,3.3476562z M83.5039062,3.3476562V3.3339844
		c0-0.7773438-0.5820312-1.4150391-1.3447266-1.4150391c-0.7851562,0-1.3242188,0.6376953-1.3242188,1.4003906v0.0146484
		c0,0.7773438,0.5742188,1.4072266,1.3378906,1.4072266C82.9570312,4.7412109,83.5039062,4.1113281,83.5039062,3.3476562z"/>
	<path class="st0" d="M85.0283203,1.5195312h0.5390625v0.9453125c0.265625-0.6015625,0.7910156-1.0361328,1.4775391-1.0078125
		v0.5810547h-0.0419922c-0.7910156,0-1.4355469,0.5673828-1.4355469,1.6601562V5.140625h-0.5390625V1.5195312z"/>
	<path class="st0" d="M90.1513672,4.1806641V1.9960938h-0.5039062V1.5195312h0.5039062V0.4267578h0.5390625v1.0927734h1.1494141
		v0.4765625h-1.1494141v2.1152344c0,0.4414062,0.2451172,0.6025391,0.609375,0.6025391
		c0.1826172,0,0.3369141-0.0351562,0.5253906-0.1269531v0.4628906c-0.1884766,0.0976562-0.3916016,0.1542969-0.6513672,0.1542969
		C90.5927734,5.2041016,90.1513672,4.9160156,90.1513672,4.1806641z"/>
	<path class="st0" d="M92.7910156,0.0283203h0.5390625v2.1220703c0.2382812-0.3925781,0.6162109-0.7080078,1.2392578-0.7080078
		c0.8759766,0,1.3867188,0.5888672,1.3867188,1.4501953V5.140625h-0.5390625V3.0253906
		c0-0.671875-0.3642578-1.0927734-1.0019531-1.0927734c-0.6230469,0-1.0849609,0.4550781-1.0849609,1.1347656V5.140625h-0.5390625
		V0.0283203z"/>
	<path class="st0" d="M96.8789062,3.3408203V3.3261719c0-1.0429688,0.7353516-1.8837891,1.7363281-1.8837891
		c1.0712891,0,1.6884766,0.8544922,1.6884766,1.9121094c0,0.0703125,0,0.1123047-0.0078125,0.1748047h-2.8710938
		c0.0771484,0.7851562,0.6298828,1.2265625,1.2744141,1.2265625c0.4970703,0,0.8476562-0.203125,1.1416016-0.5117188
		l0.3359375,0.3007812c-0.3632812,0.40625-0.8046875,0.6796875-1.4912109,0.6796875
		C97.6904297,5.2246094,96.8789062,4.4609375,96.8789062,3.3408203z M99.7568359,3.1308594
		c-0.0556641-0.6582031-0.4335938-1.2333984-1.1552734-1.2333984c-0.6308594,0-1.1064453,0.5253906-1.1767578,1.2333984H99.7568359z
		"/>
	<path class="st0" d="M103.5351562,4.1806641V1.9960938H103.03125V1.5195312h0.5039062V0.4267578h0.5390625v1.0927734h1.1494141
		v0.4765625h-1.1494141v2.1152344c0,0.4414062,0.2451172,0.6025391,0.609375,0.6025391
		c0.1826172,0,0.3369141-0.0351562,0.5253906-0.1269531v0.4628906c-0.1884766,0.0976562-0.3916016,0.1542969-0.6513672,0.1542969
		C103.9765625,5.2041016,103.5351562,4.9160156,103.5351562,4.1806641z"/>
	<path class="st0" d="M106.1748047,1.5195312h0.5390625v0.9453125c0.265625-0.6015625,0.7910156-1.0361328,1.4775391-1.0078125
		v0.5810547h-0.0419922c-0.7910156,0-1.4355469,0.5673828-1.4355469,1.6601562V5.140625h-0.5390625V1.5195312z"/>
	<path class="st0" d="M108.6318359,3.3408203V3.3261719c0-1.0429688,0.7353516-1.8837891,1.7363281-1.8837891
		c1.0712891,0,1.6884766,0.8544922,1.6884766,1.9121094c0,0.0703125,0,0.1123047-0.0078125,0.1748047h-2.8710938
		c0.0771484,0.7851562,0.6298828,1.2265625,1.2744141,1.2265625c0.4970703,0,0.8476562-0.203125,1.1416016-0.5117188
		l0.3359375,0.3007812c-0.3632812,0.40625-0.8046875,0.6796875-1.4912109,0.6796875
		C109.4433594,5.2246094,108.6318359,4.4609375,108.6318359,3.3408203z M111.5097656,3.1308594
		c-0.0556641-0.6582031-0.4335938-1.2333984-1.1552734-1.2333984c-0.6308594,0-1.1064453,0.5253906-1.1767578,1.2333984H111.5097656
		z"/>
	<path class="st0" d="M112.7265625,4.0898438V4.0761719c0-0.7636719,0.6298828-1.1699219,1.5478516-1.1699219
		c0.4619141,0,0.7910156,0.0634766,1.1132812,0.1542969V2.9345703c0-0.6513672-0.3994141-0.9873047-1.078125-0.9873047
		c-0.4277344,0-0.7636719,0.1113281-1.0996094,0.265625l-0.1611328-0.4414062
		c0.3994141-0.1816406,0.7910156-0.3007812,1.3164062-0.3007812c0.5117188,0,0.9033203,0.1328125,1.1699219,0.3994141
		c0.2451172,0.2451172,0.3710938,0.5947266,0.3710938,1.0576172V5.140625h-0.5185547V4.5947266
		c-0.2519531,0.3291016-0.671875,0.6230469-1.3095703,0.6230469C113.40625,5.2177734,112.7265625,4.8320312,112.7265625,4.0898438z
		 M115.3945312,3.8095703V3.4599609c-0.265625-0.0771484-0.6230469-0.1542969-1.0644531-0.1542969
		c-0.6787109,0-1.0576172,0.2939453-1.0576172,0.7490234v0.0146484c0,0.4550781,0.4208984,0.7207031,0.9111328,0.7207031
		C114.8486328,4.7900391,115.3945312,4.3837891,115.3945312,3.8095703z"/>
	<path class="st0" d="M117.2060547,4.1806641V1.9960938h-0.5039062V1.5195312h0.5039062V0.4267578h0.5390625v1.0927734h1.1494141
		v0.4765625h-1.1494141v2.1152344c0,0.4414062,0.2451172,0.6025391,0.609375,0.6025391
		c0.1826172,0,0.3369141-0.0351562,0.5253906-0.1269531v0.4628906c-0.1884766,0.0976562-0.3916016,0.1542969-0.6513672,0.1542969
		C117.6474609,5.2041016,117.2060547,4.9160156,117.2060547,4.1806641z"/>
	<path class="st0" d="M119.8457031,1.5195312h0.5390625v0.609375c0.2382812-0.3574219,0.5605469-0.6865234,1.1689453-0.6865234
		c0.5888672,0,0.9667969,0.3154297,1.1630859,0.7216797c0.2587891-0.3994141,0.6445312-0.7216797,1.2744141-0.7216797
		c0.8339844,0,1.3447266,0.5605469,1.3447266,1.4570312V5.140625h-0.5390625V3.0253906
		c0-0.7001953-0.3505859-1.0927734-0.9384766-1.0927734c-0.5458984,0-1.0019531,0.40625-1.0019531,1.1210938V5.140625h-0.5322266
		V3.0117188c0-0.6796875-0.3564453-1.0791016-0.9306641-1.0791016c-0.5751953,0-1.0087891,0.4765625-1.0087891,1.1416016V5.140625
		h-0.5390625V1.5195312z"/>
	<path class="st0" d="M126.2578125,3.3408203V3.3261719c0-1.0429688,0.7353516-1.8837891,1.7363281-1.8837891
		c1.0712891,0,1.6884766,0.8544922,1.6884766,1.9121094c0,0.0703125,0,0.1123047-0.0078125,0.1748047h-2.8710938
		c0.0771484,0.7851562,0.6298828,1.2265625,1.2744141,1.2265625c0.4970703,0,0.8476562-0.203125,1.1416016-0.5117188
		l0.3359375,0.3007812c-0.3632812,0.40625-0.8046875,0.6796875-1.4912109,0.6796875
		C127.0693359,5.2246094,126.2578125,4.4609375,126.2578125,3.3408203z M129.1357422,3.1308594
		c-0.0556641-0.6582031-0.4335938-1.2333984-1.1552734-1.2333984c-0.6308594,0-1.1064453,0.5253906-1.1767578,1.2333984H129.1357422
		z"/>
	<path class="st0" d="M130.625,1.5195312h0.5390625v0.6308594c0.2382812-0.3925781,0.6162109-0.7080078,1.2402344-0.7080078
		c0.875,0,1.3867188,0.5888672,1.3867188,1.4501953V5.140625h-0.5400391V3.0253906
		c0-0.671875-0.3632812-1.0927734-1.0009766-1.0927734c-0.6230469,0-1.0859375,0.4550781-1.0859375,1.1347656V5.140625H130.625
		V1.5195312z"/>
	<path class="st0" d="M135.1259766,4.1806641V1.9960938h-0.5039062V1.5195312h0.5039062V0.4267578h0.5390625v1.0927734h1.1494141
		v0.4765625h-1.1494141v2.1152344c0,0.4414062,0.2451172,0.6025391,0.609375,0.6025391
		c0.1826172,0,0.3369141-0.0351562,0.5253906-0.1269531v0.4628906c-0.1884766,0.0976562-0.3916016,0.1542969-0.6513672,0.1542969
		C135.5673828,5.2041016,135.1259766,4.9160156,135.1259766,4.1806641z"/>
	<path class="st0" d="M139.6416016,3.3476562V3.3339844c0-1.0224609,0.7978516-1.8916016,1.890625-1.8916016
		c1.0859375,0,1.8837891,0.8544922,1.8837891,1.8769531v0.0146484c0,1.0224609-0.8056641,1.890625-1.8974609,1.890625
		C140.4326172,5.2246094,139.6416016,4.3701172,139.6416016,3.3476562z M142.8632812,3.3476562V3.3339844
		c0-0.7773438-0.5820312-1.4150391-1.3447266-1.4150391c-0.7851562,0-1.3242188,0.6376953-1.3242188,1.4003906v0.0146484
		c0,0.7773438,0.5742188,1.4072266,1.3378906,1.4072266C142.3164062,4.7412109,142.8632812,4.1113281,142.8632812,3.3476562z"/>
	<path class="st0" d="M144.5908203,1.9960938h-0.4980469V1.5263672h0.4980469V1.2119141
		c0-0.4140625,0.1113281-0.7285156,0.3144531-0.9316406C145.0878906,0.0976562,145.3535156,0,145.6826172,0
		c0.2529297,0,0.4208984,0.0283203,0.5957031,0.0908203v0.4697266c-0.1962891-0.0566406-0.3427734-0.0917969-0.5253906-0.0917969
		c-0.4199219,0-0.6298828,0.2529297-0.6298828,0.7705078v0.2939453h1.1484375v0.4628906h-1.1416016V5.140625h-0.5390625V1.9960938z"
		/>
</g>
<g>
	<path class="st0" d="M0,11.3486328v-0.0136719C0,10.3125,0.7983398,9.4433594,1.855957,9.4433594
		c0.6860352,0,1.1132812,0.2871094,1.449707,0.6445312l-0.3574219,0.3779297
		c-0.2871094-0.3007812-0.609375-0.5458984-1.0996094-0.5458984c-0.7353516,0-1.2954102,0.6230469-1.2954102,1.4003906v0.0146484
		c0,0.7841797,0.5742188,1.4072266,1.3305664,1.4072266c0.4624023,0,0.8193359-0.2304688,1.1064453-0.5390625l0.3432617,0.3222656
		c-0.3642578,0.40625-0.7983398,0.7001953-1.4775391,0.7001953C0.7983398,13.2255859,0,12.3642578,0,11.3486328z"/>
	<path class="st0" d="M4.0532227,8.0292969h0.5390625v2.1220703c0.2382812-0.3925781,0.6162109-0.7080078,1.2397461-0.7080078
		c0.8754883,0,1.3867188,0.5888672,1.3867188,1.4501953v2.2480469H6.6791992v-2.1152344
		c0-0.671875-0.3637695-1.0927734-1.0014648-1.0927734c-0.6230469,0-1.0854492,0.4550781-1.0854492,1.1347656v2.0732422H4.0532227
		V8.0292969z"/>
	<path class="st0" d="M8.1972656,9.5205078h0.5390625v0.9453125c0.2661133-0.6015625,0.7915039-1.0361328,1.4780273-1.0078125
		v0.5810547h-0.0419922c-0.7915039,0-1.4360352,0.5673828-1.4360352,1.6601562v1.4423828H8.1972656V9.5205078z"/>
	<path class="st0" d="M10.4790039,11.3486328v-0.0136719c0-1.0224609,0.7983398-1.8916016,1.890625-1.8916016
		c1.0859375,0,1.8842773,0.8544922,1.8842773,1.8769531v0.0146484c0,1.0224609-0.8056641,1.890625-1.8979492,1.890625
		C11.2700195,13.2255859,10.4790039,12.3710938,10.4790039,11.3486328z M13.7006836,11.3486328v-0.0136719
		c0-0.7773438-0.581543-1.4150391-1.3447266-1.4150391c-0.784668,0-1.3237305,0.6376953-1.3237305,1.4003906v0.0146484
		c0,0.7773438,0.5742188,1.4072266,1.3374023,1.4072266C13.1542969,12.7421875,13.7006836,12.1123047,13.7006836,11.3486328z"/>
	<path class="st0" d="M15.0571289,9.5205078h0.5390625v0.6308594c0.2382812-0.3925781,0.6162109-0.7080078,1.2397461-0.7080078
		c0.8754883,0,1.3867188,0.5888672,1.3867188,1.4501953v2.2480469h-0.5395508v-2.1152344
		c0-0.671875-0.3637695-1.0927734-1.0014648-1.0927734c-0.6230469,0-1.0854492,0.4550781-1.0854492,1.1347656v2.0732422h-0.5390625
		V9.5205078z"/>
	<path class="st0" d="M19.2075195,8.1337891h0.6162109v0.5957031h-0.6162109V8.1337891z M19.2426758,9.5205078h0.5390625v3.6210938
		h-0.5390625V9.5205078z"/>
	<path class="st0" d="M20.6425781,11.3486328v-0.0136719c0-1.0224609,0.7983398-1.8916016,1.855957-1.8916016
		c0.6860352,0,1.1132812,0.2871094,1.449707,0.6445312l-0.3574219,0.3779297
		c-0.2871094-0.3007812-0.609375-0.5458984-1.0996094-0.5458984c-0.7353516,0-1.2954102,0.6230469-1.2954102,1.4003906v0.0146484
		c0,0.7841797,0.5742188,1.4072266,1.3305664,1.4072266c0.4624023,0,0.8193359-0.2304688,1.1064453-0.5390625l0.3432617,0.3222656
		c-0.3642578,0.40625-0.7983398,0.7001953-1.4775391,0.7001953C21.440918,13.2255859,20.6425781,12.3642578,20.6425781,11.3486328z"
		/>
	<path class="st0" d="M26.6279297,8.0292969h0.5390625v2.1220703c0.2382812-0.3925781,0.6162109-0.7080078,1.2397461-0.7080078
		c0.8754883,0,1.3867188,0.5888672,1.3867188,1.4501953v2.2480469h-0.5395508v-2.1152344
		c0-0.671875-0.3637695-1.0927734-1.0014648-1.0927734c-0.6230469,0-1.0854492,0.4550781-1.0854492,1.1347656v2.0732422h-0.5390625
		V8.0292969z"/>
	<path class="st0" d="M30.5405273,11.3417969v-0.0146484c0-1.0429688,0.7353516-1.8837891,1.7368164-1.8837891
		c1.0712891,0,1.6879883,0.8544922,1.6879883,1.9121094c0,0.0703125,0,0.1123047-0.0073242,0.1748047h-2.871582
		c0.0771484,0.7851562,0.6303711,1.2265625,1.2749023,1.2265625c0.4970703,0,0.8476562-0.203125,1.1416016-0.5117188
		l0.3359375,0.3007812c-0.3637695,0.40625-0.8051758,0.6796875-1.4916992,0.6796875
		C31.3525391,13.2255859,30.5405273,12.4619141,30.5405273,11.3417969z M33.4189453,11.1318359
		c-0.0561523-0.6582031-0.434082-1.2333984-1.1557617-1.2333984c-0.6303711,0-1.1064453,0.5253906-1.1767578,1.2333984H33.4189453z"
		/>
	<path class="st0" d="M34.7407227,9.5205078h0.5390625v0.7285156c0.2939453-0.4345703,0.7211914-0.8056641,1.3867188-0.8056641
		c0.8686523,0,1.7299805,0.6865234,1.7299805,1.8769531v0.0146484c0,1.1835938-0.8544922,1.8837891-1.7299805,1.8837891
		c-0.6723633,0-1.1064453-0.3642578-1.3867188-0.7705078v1.8134766h-0.5390625V9.5205078z M37.8432617,11.3417969v-0.0146484
		c0-0.8535156-0.5883789-1.4003906-1.2749023-1.4003906c-0.6723633,0-1.3095703,0.5673828-1.3095703,1.3935547v0.0146484
		c0,0.8398438,0.637207,1.4003906,1.3095703,1.4003906C37.269043,12.7353516,37.8432617,12.2167969,37.8432617,11.3417969z"/>
	<path class="st0" d="M38.9472656,12.0908203v-0.0136719c0-0.7636719,0.6303711-1.1699219,1.5478516-1.1699219
		c0.4624023,0,0.7915039,0.0634766,1.1137695,0.1542969v-0.1259766c0-0.6513672-0.3994141-0.9873047-1.0786133-0.9873047
		c-0.4272461,0-0.7636719,0.1113281-1.0996094,0.265625l-0.1611328-0.4414062
		c0.3994141-0.1816406,0.7915039-0.3007812,1.3168945-0.3007812c0.5112305,0,0.9033203,0.1328125,1.1694336,0.3994141
		c0.2451172,0.2451172,0.3710938,0.5947266,0.3710938,1.0576172v2.2128906h-0.5180664v-0.5458984
		c-0.2524414,0.3291016-0.6723633,0.6230469-1.3095703,0.6230469C39.6264648,13.21875,38.9472656,12.8330078,38.9472656,12.0908203z
		 M41.6157227,11.8105469v-0.3496094c-0.2661133-0.0771484-0.6230469-0.1542969-1.0644531-0.1542969
		c-0.6791992,0-1.0576172,0.2939453-1.0576172,0.7490234v0.0146484c0,0.4550781,0.4204102,0.7207031,0.9106445,0.7207031
		C41.0693359,12.7910156,41.6157227,12.3847656,41.6157227,11.8105469z"/>
	<path class="st0" d="M43.2524414,12.1816406V9.9970703h-0.5043945V9.5205078h0.5043945V8.4277344h0.5390625v1.0927734h1.1489258
		v0.4765625h-1.1489258v2.1152344c0,0.4414062,0.2451172,0.6025391,0.609375,0.6025391
		c0.1821289,0,0.3364258-0.0351562,0.5253906-0.1269531v0.4628906c-0.1889648,0.0976562-0.3920898,0.1542969-0.6513672,0.1542969
		C43.6938477,13.2050781,43.2524414,12.9179688,43.2524414,12.1816406z"/>
	<path class="st0" d="M45.7373047,8.1337891h0.6166992v0.5957031h-0.6166992V8.1337891z M45.7724609,9.5205078h0.5390625v3.6210938
		h-0.5390625V9.5205078z"/>
	<path class="st0" d="M47.5854492,12.1816406V9.9970703h-0.5043945V9.5205078h0.5043945V8.4277344h0.5390625v1.0927734h1.1489258
		v0.4765625h-1.1489258v2.1152344c0,0.4414062,0.2451172,0.6025391,0.6098633,0.6025391
		c0.1816406,0,0.3359375-0.0351562,0.5253906-0.1269531v0.4628906c-0.1894531,0.0976562-0.3925781,0.1542969-0.6518555,0.1542969
		C48.0268555,13.2050781,47.5854492,12.9179688,47.5854492,12.1816406z"/>
	<path class="st0" d="M50.0703125,8.1337891H50.6875v0.5957031h-0.6171875V8.1337891z M50.1054688,9.5205078h0.5390625v3.6210938
		h-0.5390625V9.5205078z"/>
	<path class="st0" d="M51.4287109,12.6796875l0.2724609-0.3857422c0.3925781,0.2939453,0.8271484,0.4628906,1.2539062,0.4628906
		c0.4345703,0,0.75-0.2246094,0.75-0.5751953v-0.0136719c0-0.3642578-0.4277344-0.5039062-0.9042969-0.6376953
		c-0.5673828-0.1601562-1.1972656-0.3564453-1.1972656-1.0224609v-0.0136719c0-0.6230469,0.5185547-1.0361328,1.2324219-1.0361328
		c0.4414062,0,0.9316406,0.1533203,1.3027344,0.3984375l-0.2451172,0.40625
		c-0.3359375-0.2167969-0.7216797-0.3496094-1.0712891-0.3496094c-0.4277344,0-0.7001953,0.2236328-0.7001953,0.5253906v0.0136719
		c0,0.3427734,0.4482422,0.4765625,0.9316406,0.6230469c0.5595703,0.1679688,1.1621094,0.3857422,1.1621094,1.0371094v0.0136719
		c0,0.6865234-0.5673828,1.0859375-1.2890625,1.0859375C52.4091797,13.2119141,51.8349609,13.0087891,51.4287109,12.6796875z"/>
	<path class="st0" d="M56.8525391,10.7041016v-0.0136719c0-1.3867188,1.0371094-2.5351562,2.4794922-2.5351562
		c0.8896484,0,1.421875,0.3144531,1.9121094,0.7773438l-0.3779297,0.40625
		c-0.4130859-0.3925781-0.8759766-0.6728516-1.5410156-0.6728516c-1.0859375,0-1.8974609,0.8828125-1.8974609,2.0097656v0.0146484
		c0,1.1347656,0.8193359,2.0244141,1.8974609,2.0244141c0.6728516,0,1.1132812-0.2597656,1.5830078-0.7080078l0.3642578,0.3574219
		c-0.5117188,0.5185547-1.0712891,0.8613281-1.9609375,0.8613281
		C57.8964844,13.2255859,56.8525391,12.1123047,56.8525391,10.7041016z"/>
	<path class="st0" d="M63.5800781,9.5205078h0.5947266l1.21875,3.0048828l1.2255859-3.0048828h0.5820312L65.625,13.1699219
		h-0.4765625L63.5800781,9.5205078z"/>
	<path class="st0" d="M67.8916016,8.1337891h0.6171875v0.5957031h-0.6171875V8.1337891z M67.9267578,9.5205078h0.5390625v3.6210938
		h-0.5390625V9.5205078z"/>
	<path class="st0" d="M69.5507812,9.5205078h0.5390625v0.9453125c0.2666016-0.6015625,0.7919922-1.0361328,1.4785156-1.0078125
		v0.5810547h-0.0419922c-0.7919922,0-1.4365234,0.5673828-1.4365234,1.6601562v1.4423828h-0.5390625V9.5205078z"/>
	<path class="st0" d="M72.1621094,11.7685547V9.5205078h0.5390625v2.1152344c0,0.6728516,0.3642578,1.0927734,1.0009766,1.0927734
		c0.6171875,0,1.0859375-0.4550781,1.0859375-1.1347656V9.5205078h0.5322266v3.6210938h-0.5322266v-0.6298828
		c-0.2451172,0.3916016-0.6162109,0.7070312-1.2392578,0.7070312C72.6728516,13.21875,72.1621094,12.6298828,72.1621094,11.7685547z
		"/>
	<path class="st0" d="M76.0605469,12.6796875l0.2734375-0.3857422c0.3916016,0.2939453,0.8261719,0.4628906,1.2539062,0.4628906
		c0.4335938,0,0.7490234-0.2246094,0.7490234-0.5751953v-0.0136719c0-0.3642578-0.4267578-0.5039062-0.9033203-0.6376953
		c-0.5673828-0.1601562-1.1982422-0.3564453-1.1982422-1.0224609v-0.0136719c0-0.6230469,0.5185547-1.0361328,1.2333984-1.0361328
		c0.4414062,0,0.9316406,0.1533203,1.3027344,0.3984375l-0.2451172,0.40625
		c-0.3369141-0.2167969-0.7216797-0.3496094-1.0722656-0.3496094c-0.4267578,0-0.7001953,0.2236328-0.7001953,0.5253906v0.0136719
		c0,0.3427734,0.4482422,0.4765625,0.9316406,0.6230469c0.5605469,0.1679688,1.1630859,0.3857422,1.1630859,1.0371094v0.0136719
		c0,0.6865234-0.5673828,1.0859375-1.2890625,1.0859375C77.0410156,13.2119141,76.4667969,13.0087891,76.0605469,12.6796875z"/>
	<path class="st0" d="M81.4853516,11.1318359c0-1.2890625,0.6933594-2.2978516,1.9404297-2.9980469l0.2314453,0.3574219
		c-1.0644531,0.6796875-1.625,1.5195312-1.625,2.640625c0,1.1201172,0.5605469,1.9609375,1.625,2.6396484l-0.2314453,0.3574219
		C82.1787109,13.4287109,81.4853516,12.4199219,81.4853516,11.1318359z"/>
	<path class="st0" d="M84.5722656,8.2392578h0.5537109v2.1777344h2.8291016V8.2392578h0.5537109v4.9023438h-0.5537109v-2.2060547
		h-2.8291016v2.2060547h-0.5537109V8.2392578z"/>
	<path class="st0" d="M89.5068359,10.7041016v-0.0136719c0-1.3867188,1.0371094-2.5351562,2.4794922-2.5351562
		c0.8896484,0,1.421875,0.3144531,1.9121094,0.7773438l-0.3779297,0.40625
		c-0.4130859-0.3925781-0.8759766-0.6728516-1.5410156-0.6728516c-1.0859375,0-1.8974609,0.8828125-1.8974609,2.0097656v0.0146484
		c0,1.1347656,0.8193359,2.0244141,1.8974609,2.0244141c0.6728516,0,1.1132812-0.2597656,1.5830078-0.7080078l0.3642578,0.3574219
		c-0.5117188,0.5185547-1.0712891,0.8613281-1.9609375,0.8613281
		C90.5507812,13.2255859,89.5068359,12.1123047,89.5068359,10.7041016z"/>
	<path class="st0" d="M94.2949219,8.2392578h0.6171875l1.7431641,4.2226562L98.40625,8.2392578h0.5957031l-2.1083984,4.9375
		h-0.4902344L94.2949219,8.2392578z"/>
	<path class="st0" d="M99.4960938,13.7714844c1.0654297-0.6787109,1.625-1.5195312,1.625-2.6396484
		c0-1.1210938-0.5595703-1.9609375-1.625-2.640625l0.2314453-0.3574219
		c1.2470703,0.7001953,1.9404297,1.7089844,1.9404297,2.9980469c0,1.2880859-0.6933594,2.296875-1.9404297,2.9970703
		L99.4960938,13.7714844z"/>
	<path class="st0" d="M104.5224609,8.1337891h0.6162109v0.5957031h-0.6162109V8.1337891z M104.5576172,9.5205078h0.5390625
		v3.6210938h-0.5390625V9.5205078z"/>
	<path class="st0" d="M106.1816406,9.5205078h0.5390625v0.6308594c0.2382812-0.3925781,0.6162109-0.7080078,1.2392578-0.7080078
		c0.8759766,0,1.3867188,0.5888672,1.3867188,1.4501953v2.2480469h-0.5390625v-2.1152344
		c0-0.671875-0.3642578-1.0927734-1.0019531-1.0927734c-0.6230469,0-1.0849609,0.4550781-1.0849609,1.1347656v2.0732422h-0.5390625
		V9.5205078z"/>
	<path class="st0" d="M110.5283203,9.9970703H110.03125V9.5273438h0.4970703V9.2128906
		c0-0.4140625,0.1123047-0.7285156,0.3154297-0.9316406c0.1816406-0.1826172,0.4482422-0.2802734,0.7773438-0.2802734
		c0.2519531,0,0.4199219,0.0283203,0.5947266,0.0908203v0.4697266c-0.1953125-0.0566406-0.3427734-0.0917969-0.5244141-0.0917969
		c-0.4208984,0-0.6308594,0.2529297-0.6308594,0.7705078v0.2939453h1.1484375v0.4628906h-1.1416016v3.1445312h-0.5390625V9.9970703z
		"/>
	<path class="st0" d="M112.4326172,11.3417969v-0.0146484c0-1.0429688,0.7353516-1.8837891,1.7363281-1.8837891
		c1.0712891,0,1.6884766,0.8544922,1.6884766,1.9121094c0,0.0703125,0,0.1123047-0.0078125,0.1748047h-2.8710938
		c0.0771484,0.7851562,0.6298828,1.2265625,1.2744141,1.2265625c0.4970703,0,0.8476562-0.203125,1.1416016-0.5117188
		l0.3359375,0.3007812c-0.3632812,0.40625-0.8046875,0.6796875-1.4912109,0.6796875
		C113.2441406,13.2255859,112.4326172,12.4619141,112.4326172,11.3417969z M115.3105469,11.1318359
		c-0.0556641-0.6582031-0.4335938-1.2333984-1.1552734-1.2333984c-0.6308594,0-1.1064453,0.5253906-1.1767578,1.2333984H115.3105469
		z"/>
	<path class="st0" d="M116.4013672,11.3486328v-0.0136719c0-1.0224609,0.7978516-1.8916016,1.8554688-1.8916016
		c0.6865234,0,1.1132812,0.2871094,1.4501953,0.6445312l-0.3574219,0.3779297
		C119.0625,10.1650391,118.7402344,9.9199219,118.25,9.9199219c-0.7353516,0-1.2958984,0.6230469-1.2958984,1.4003906v0.0146484
		c0,0.7841797,0.5742188,1.4072266,1.3310547,1.4072266c0.4619141,0,0.8193359-0.2304688,1.1064453-0.5390625l0.3427734,0.3222656
		c-0.3642578,0.40625-0.7978516,0.7001953-1.4775391,0.7001953
		C117.1992188,13.2255859,116.4013672,12.3642578,116.4013672,11.3486328z"/>
	<path class="st0" d="M120.6435547,12.1816406V9.9970703h-0.5048828V9.5205078h0.5048828V8.4277344h0.5390625v1.0927734h1.1484375
		v0.4765625h-1.1484375v2.1152344c0,0.4414062,0.2451172,0.6025391,0.609375,0.6025391
		c0.1816406,0,0.3359375-0.0351562,0.5253906-0.1269531v0.4628906c-0.1894531,0.0976562-0.3925781,0.1542969-0.6513672,0.1542969
		C121.0849609,13.2050781,120.6435547,12.9179688,120.6435547,12.1816406z"/>
	<path class="st0" d="M123.1279297,8.1337891h0.6162109v0.5957031h-0.6162109V8.1337891z M123.1630859,9.5205078h0.5390625
		v3.6210938h-0.5390625V9.5205078z"/>
	<path class="st0" d="M124.5634766,11.3486328v-0.0136719c0-1.0224609,0.7978516-1.8916016,1.890625-1.8916016
		c1.0859375,0,1.8837891,0.8544922,1.8837891,1.8769531v0.0146484c0,1.0224609-0.8056641,1.890625-1.8974609,1.890625
		C125.3544922,13.2255859,124.5634766,12.3710938,124.5634766,11.3486328z M127.7851562,11.3486328v-0.0136719
		c0-0.7773438-0.5820312-1.4150391-1.3447266-1.4150391c-0.7851562,0-1.3242188,0.6376953-1.3242188,1.4003906v0.0146484
		c0,0.7773438,0.5742188,1.4072266,1.3378906,1.4072266C127.2382812,12.7421875,127.7851562,12.1123047,127.7851562,11.3486328z"/>
	<path class="st0" d="M129.1337891,9.5205078h0.5390625v0.6308594c0.2382812-0.3925781,0.6162109-0.7080078,1.2402344-0.7080078
		c0.875,0,1.3867188,0.5888672,1.3867188,1.4501953v2.2480469h-0.5400391v-2.1152344
		c0-0.671875-0.3632812-1.0927734-1.0009766-1.0927734c-0.6230469,0-1.0859375,0.4550781-1.0859375,1.1347656v2.0732422h-0.5390625
		V9.5205078z"/>
	<path class="st0" d="M135.2236328,8.1337891h0.6171875v0.5957031h-0.6171875V8.1337891z M135.2587891,9.5205078h0.5390625
		v3.6210938h-0.5390625V9.5205078z"/>
	<path class="st0" d="M136.8828125,9.5205078h0.5390625v0.6308594c0.2382812-0.3925781,0.6162109-0.7080078,1.2402344-0.7080078
		c0.875,0,1.3867188,0.5888672,1.3867188,1.4501953v2.2480469h-0.5400391v-2.1152344
		c0-0.671875-0.3632812-1.0927734-1.0009766-1.0927734c-0.6230469,0-1.0859375,0.4550781-1.0859375,1.1347656v2.0732422h-0.5390625
		V9.5205078z"/>
	<path class="st0" d="M142.6855469,12.0908203v-0.0136719c0-0.7636719,0.6298828-1.1699219,1.5478516-1.1699219
		c0.4619141,0,0.7910156,0.0634766,1.1132812,0.1542969v-0.1259766c0-0.6513672-0.3994141-0.9873047-1.078125-0.9873047
		c-0.4277344,0-0.7636719,0.1113281-1.0996094,0.265625l-0.1611328-0.4414062
		c0.3994141-0.1816406,0.7910156-0.3007812,1.3164062-0.3007812c0.5117188,0,0.9033203,0.1328125,1.1699219,0.3994141
		c0.2451172,0.2451172,0.3710938,0.5947266,0.3710938,1.0576172v2.2128906h-0.5185547v-0.5458984
		c-0.2519531,0.3291016-0.671875,0.6230469-1.3095703,0.6230469
		C143.3652344,13.21875,142.6855469,12.8330078,142.6855469,12.0908203z M145.3535156,11.8105469v-0.3496094
		c-0.265625-0.0771484-0.6230469-0.1542969-1.0644531-0.1542969c-0.6787109,0-1.0576172,0.2939453-1.0576172,0.7490234v0.0146484
		c0,0.4550781,0.4208984,0.7207031,0.9111328,0.7207031C144.8076172,12.7910156,145.3535156,12.3847656,145.3535156,11.8105469z"/>
	<path class="st0" d="M146.6259766,11.3417969v-0.0146484c0-1.1835938,0.8623047-1.8837891,1.7304688-1.8837891
		c0.671875,0,1.1064453,0.3642578,1.3867188,0.7705078V8.0292969h0.5390625v5.1123047h-0.5390625v-0.7285156
		c-0.2939453,0.4345703-0.7216797,0.8056641-1.3867188,0.8056641
		C147.4882812,13.21875,146.6259766,12.5322266,146.6259766,11.3417969z M149.7636719,11.3349609v-0.0146484
		c0-0.8330078-0.6367188-1.3935547-1.3095703-1.3935547c-0.7001953,0-1.2744141,0.5185547-1.2744141,1.3935547v0.0146484
		c0,0.8544922,0.5878906,1.4003906,1.2744141,1.4003906C149.1269531,12.7353516,149.7636719,12.1679688,149.7636719,11.3349609z"/>
	<path class="st0" d="M151.2607422,11.7685547V9.5205078h0.5390625v2.1152344c0,0.6728516,0.3642578,1.0927734,1.0009766,1.0927734
		c0.6171875,0,1.0859375-0.4550781,1.0859375-1.1347656V9.5205078h0.5322266v3.6210938h-0.5322266v-0.6298828
		c-0.2451172,0.3916016-0.6162109,0.7070312-1.2392578,0.7070312
		C151.7714844,13.21875,151.2607422,12.6298828,151.2607422,11.7685547z"/>
	<path class="st0" d="M155.5029297,8.0292969h0.5390625v5.1123047h-0.5390625V8.0292969z"/>
	<path class="st0" d="M157.3154297,12.1816406V9.9970703h-0.5039062V9.5205078h0.5039062V8.4277344h0.5390625v1.0927734h1.1494141
		v0.4765625h-1.1494141v2.1152344c0,0.4414062,0.2451172,0.6025391,0.609375,0.6025391
		c0.1826172,0,0.3369141-0.0351562,0.5253906-0.1269531v0.4628906c-0.1884766,0.0976562-0.3916016,0.1542969-0.6513672,0.1542969
		C157.7568359,13.2050781,157.3154297,12.9179688,157.3154297,12.1816406z"/>
	<path class="st0" d="M159.4853516,12.6796875l0.2724609-0.3857422c0.3925781,0.2939453,0.8271484,0.4628906,1.2539062,0.4628906
		c0.4345703,0,0.75-0.2246094,0.75-0.5751953v-0.0136719c0-0.3642578-0.4277344-0.5039062-0.9042969-0.6376953
		c-0.5673828-0.1601562-1.1972656-0.3564453-1.1972656-1.0224609v-0.0136719c0-0.6230469,0.5185547-1.0361328,1.2324219-1.0361328
		c0.4414062,0,0.9316406,0.1533203,1.3027344,0.3984375l-0.2451172,0.40625
		c-0.3359375-0.2167969-0.7216797-0.3496094-1.0712891-0.3496094c-0.4277344,0-0.7001953,0.2236328-0.7001953,0.5253906v0.0136719
		c0,0.3427734,0.4482422,0.4765625,0.9316406,0.6230469c0.5595703,0.1679688,1.1621094,0.3857422,1.1621094,1.0371094v0.0136719
		c0,0.6865234-0.5673828,1.0859375-1.2890625,1.0859375C160.4658203,13.2119141,159.8916016,13.0087891,159.4853516,12.6796875z"/>
	<path class="st0" d="M163.0341797,12.40625h0.6445312v0.7353516h-0.6445312V12.40625z"/>
</g>
<g>
	<path class="st0" d="M0.3149414,16.2402344h3.5229492v0.5107422H0.8681641v1.7509766h2.6542969v0.5048828H0.8681641v2.1357422
		H0.3149414V16.2402344z"/>
	<path class="st0" d="M4.4941406,19.3496094v-0.0136719c0-1.0224609,0.7983398-1.8916016,1.890625-1.8916016
		c1.0859375,0,1.8842773,0.8544922,1.8842773,1.8769531v0.0146484c0,1.0224609-0.8056641,1.890625-1.8979492,1.890625
		C5.2851562,21.2265625,4.4941406,20.3720703,4.4941406,19.3496094z M7.7158203,19.3496094v-0.0136719
		c0-0.7773438-0.581543-1.4150391-1.3447266-1.4150391c-0.784668,0-1.3237305,0.6376953-1.3237305,1.4003906v0.0146484
		c0,0.7773438,0.5742188,1.4072266,1.3374023,1.4072266C7.1694336,20.7431641,7.7158203,20.1132812,7.7158203,19.3496094z"/>
	<path class="st0" d="M9.2402344,17.5214844h0.5390625v0.9453125c0.2661133-0.6015625,0.7915039-1.0361328,1.4780273-1.0078125
		v0.5810547H11.215332c-0.7915039,0-1.4360352,0.5673828-1.4360352,1.6601562v1.4423828H9.2402344V17.5214844z"/>
	<path class="st0" d="M14.265625,16.2402344h3.5439453v0.5039062h-2.9907227v1.6738281h2.6757812v0.5048828h-2.6757812v1.7158203
		h3.0258789v0.5039062H14.265625V16.2402344z"/>
	<path class="st0" d="M18.878418,19.0908203v-2.8505859h0.5532227v2.8154297c0,1.0576172,0.5605469,1.6523438,1.4990234,1.6523438
		c0.9033203,0,1.4780273-0.5458984,1.4780273-1.6171875v-2.8505859h0.5532227v2.8085938
		c0,1.4287109-0.8198242,2.1708984-2.0454102,2.1708984C19.7050781,21.2197266,18.878418,20.4775391,18.878418,19.0908203z"/>
	<path class="st0" d="M26.3686523,16.2402344h0.5532227v2.1777344h2.8295898v-2.1777344h0.5532227v4.9023438h-0.5532227v-2.2060547
		H26.921875v2.2060547h-0.5532227V16.2402344z"/>
	<path class="st0" d="M31.3735352,19.3427734V19.328125c0-1.0429688,0.7353516-1.8837891,1.7368164-1.8837891
		c1.0712891,0,1.6879883,0.8544922,1.6879883,1.9121094c0,0.0703125,0,0.1123047-0.0073242,0.1748047h-2.871582
		c0.0771484,0.7851562,0.6303711,1.2265625,1.2749023,1.2265625c0.4970703,0,0.8476562-0.203125,1.1416016-0.5117188
		l0.3359375,0.3007812c-0.3637695,0.40625-0.8051758,0.6796875-1.4916992,0.6796875
		C32.1855469,21.2265625,31.3735352,20.4628906,31.3735352,19.3427734z M34.2519531,19.1328125
		c-0.0561523-0.6582031-0.434082-1.2333984-1.1557617-1.2333984c-0.6303711,0-1.1064453,0.5253906-1.1767578,1.2333984H34.2519531z"
		/>
	<path class="st0" d="M35.4682617,20.0917969V20.078125c0-0.7636719,0.6303711-1.1699219,1.5478516-1.1699219
		c0.4624023,0,0.7915039,0.0634766,1.1137695,0.1542969v-0.1259766c0-0.6513672-0.3994141-0.9873047-1.0786133-0.9873047
		c-0.4272461,0-0.7636719,0.1113281-1.0996094,0.265625l-0.1611328-0.4414062
		c0.3994141-0.1816406,0.7915039-0.3007812,1.3168945-0.3007812c0.5112305,0,0.9033203,0.1328125,1.1694336,0.3994141
		c0.2451172,0.2451172,0.3710938,0.5947266,0.3710938,1.0576172v2.2128906h-0.5180664v-0.5458984
		c-0.2524414,0.3291016-0.6723633,0.6230469-1.3100586,0.6230469
		C36.1479492,21.2197266,35.4682617,20.8339844,35.4682617,20.0917969z M38.1367188,19.8115234v-0.3496094
		c-0.2661133-0.0771484-0.6230469-0.1542969-1.0644531-0.1542969c-0.6791992,0-1.0576172,0.2939453-1.0576172,0.7490234v0.0146484
		c0,0.4550781,0.4204102,0.7207031,0.9106445,0.7207031C37.590332,20.7919922,38.1367188,20.3857422,38.1367188,19.8115234z"/>
	<path class="st0" d="M39.8432617,16.0302734h0.5390625v5.1123047h-0.5390625V16.0302734z"/>
	<path class="st0" d="M41.824707,20.1826172v-2.1845703h-0.5043945v-0.4765625h0.5043945v-1.0927734h0.5390625v1.0927734h1.1489258
		v0.4765625h-1.1489258v2.1152344c0,0.4414062,0.2451172,0.6025391,0.609375,0.6025391
		c0.1821289,0,0.3364258-0.0351562,0.5253906-0.1269531v0.4628906c-0.1889648,0.0976562-0.3920898,0.1542969-0.6513672,0.1542969
		C42.2661133,21.2060547,41.824707,20.9179688,41.824707,20.1826172z"/>
	<path class="st0" d="M44.4633789,16.0302734h0.5390625v2.1220703c0.2382812-0.3925781,0.6162109-0.7080078,1.2397461-0.7080078
		c0.8754883,0,1.3867188,0.5888672,1.3867188,1.4501953v2.2480469h-0.5395508v-2.1152344
		c0-0.671875-0.3637695-1.0927734-1.0014648-1.0927734c-0.6230469,0-1.0854492,0.4550781-1.0854492,1.1347656v2.0732422h-0.5390625
		V16.0302734z"/>
	<path class="st0" d="M48.5512695,19.3496094v-0.0136719c0-1.0224609,0.7983398-1.8916016,1.855957-1.8916016
		c0.6865234,0,1.1132812,0.2871094,1.4501953,0.6445312L51.5,18.4667969
		c-0.2871094-0.3007812-0.609375-0.5458984-1.0996094-0.5458984c-0.7353516,0-1.2958984,0.6230469-1.2958984,1.4003906v0.0146484
		c0,0.7841797,0.5742188,1.4072266,1.3310547,1.4072266c0.4619141,0,0.8193359-0.2304688,1.1064453-0.5390625l0.3427734,0.3222656
		c-0.3642578,0.40625-0.7978516,0.7001953-1.4775391,0.7001953C49.3496094,21.2265625,48.5512695,20.3652344,48.5512695,19.3496094z
		"/>
	<path class="st0" d="M52.4990234,20.0917969V20.078125c0-0.7636719,0.6308594-1.1699219,1.5478516-1.1699219
		c0.4628906,0,0.7919922,0.0634766,1.1142578,0.1542969v-0.1259766c0-0.6513672-0.3994141-0.9873047-1.0791016-0.9873047
		c-0.4267578,0-0.7636719,0.1113281-1.0996094,0.265625l-0.1611328-0.4414062
		c0.3994141-0.1816406,0.7919922-0.3007812,1.3173828-0.3007812c0.5107422,0,0.9033203,0.1328125,1.1689453,0.3994141
		c0.2451172,0.2451172,0.3710938,0.5947266,0.3710938,1.0576172v2.2128906h-0.5175781v-0.5458984
		c-0.2529297,0.3291016-0.6728516,0.6230469-1.3095703,0.6230469
		C53.1787109,21.2197266,52.4990234,20.8339844,52.4990234,20.0917969z M55.1679688,19.8115234v-0.3496094
		c-0.2666016-0.0771484-0.6230469-0.1542969-1.0644531-0.1542969c-0.6796875,0-1.0576172,0.2939453-1.0576172,0.7490234v0.0146484
		c0,0.4550781,0.4199219,0.7207031,0.9101562,0.7207031C54.6210938,20.7919922,55.1679688,20.3857422,55.1679688,19.8115234z"/>
	<path class="st0" d="M56.8251953,17.5214844h0.5390625v0.9453125c0.2666016-0.6015625,0.7919922-1.0361328,1.4785156-1.0078125
		v0.5810547h-0.0419922c-0.7919922,0-1.4365234,0.5673828-1.4365234,1.6601562v1.4423828h-0.5390625V17.5214844z"/>
	<path class="st0" d="M59.2822266,19.3427734V19.328125c0-1.0429688,0.7353516-1.8837891,1.7373047-1.8837891
		c1.0712891,0,1.6875,0.8544922,1.6875,1.9121094c0,0.0703125,0,0.1123047-0.0068359,0.1748047H59.828125
		c0.0771484,0.7851562,0.6308594,1.2265625,1.2753906,1.2265625c0.4970703,0,0.8476562-0.203125,1.1416016-0.5117188
		l0.3359375,0.3007812c-0.3642578,0.40625-0.8056641,0.6796875-1.4921875,0.6796875
		C60.0947266,21.2265625,59.2822266,20.4628906,59.2822266,19.3427734z M62.1611328,19.1328125
		c-0.0566406-0.6582031-0.4345703-1.2333984-1.15625-1.2333984c-0.6298828,0-1.1064453,0.5253906-1.1767578,1.2333984H62.1611328z"
		/>
	<path class="st0" d="M65.8417969,16.2402344h1.8349609c1.1064453,0,1.8349609,0.5878906,1.8349609,1.5546875v0.0136719
		c0,1.0576172-0.8828125,1.6044922-1.9257812,1.6044922h-1.1914062v1.7294922h-0.5527344V16.2402344z M67.6064453,18.9082031
		c0.8125,0,1.3447266-0.4335938,1.3447266-1.078125v-0.0146484c0-0.7001953-0.5253906-1.0644531-1.3164062-1.0644531h-1.2402344
		v2.1572266H67.6064453z"/>
	<path class="st0" d="M70.4267578,17.5214844h0.5390625v0.9453125c0.265625-0.6015625,0.7910156-1.0361328,1.4775391-1.0078125
		v0.5810547h-0.0419922c-0.7910156,0-1.4355469,0.5673828-1.4355469,1.6601562v1.4423828h-0.5390625V17.5214844z"/>
	<path class="st0" d="M72.8837891,19.3496094v-0.0136719c0-1.0224609,0.7978516-1.8916016,1.890625-1.8916016
		c1.0859375,0,1.8837891,0.8544922,1.8837891,1.8769531v0.0146484c0,1.0224609-0.8056641,1.890625-1.8974609,1.890625
		C73.6748047,21.2265625,72.8837891,20.3720703,72.8837891,19.3496094z M76.1054688,19.3496094v-0.0136719
		c0-0.7773438-0.5820312-1.4150391-1.3447266-1.4150391c-0.7851562,0-1.3242188,0.6376953-1.3242188,1.4003906v0.0146484
		c0,0.7773438,0.5742188,1.4072266,1.3378906,1.4072266C75.5585938,20.7431641,76.1054688,20.1132812,76.1054688,19.3496094z"/>
	<path class="st0" d="M77.8330078,17.9980469h-0.4980469v-0.4697266h0.4980469v-0.3144531
		c0-0.4140625,0.1113281-0.7285156,0.3144531-0.9316406c0.1826172-0.1826172,0.4482422-0.2802734,0.7773438-0.2802734
		c0.2529297,0,0.4208984,0.0283203,0.5957031,0.0908203V16.5625c-0.1962891-0.0566406-0.3427734-0.0917969-0.5253906-0.0917969
		c-0.4199219,0-0.6298828,0.2529297-0.6298828,0.7705078v0.2939453h1.1484375v0.4628906h-1.1416016v3.1445312h-0.5390625V17.9980469
		z"/>
	<path class="st0" d="M79.9111328,19.3427734V19.328125c0-1.0429688,0.7353516-1.8837891,1.7373047-1.8837891
		c1.0712891,0,1.6875,0.8544922,1.6875,1.9121094c0,0.0703125,0,0.1123047-0.0068359,0.1748047h-2.8720703
		c0.0771484,0.7851562,0.6308594,1.2265625,1.2753906,1.2265625c0.4970703,0,0.8476562-0.203125,1.1416016-0.5117188
		l0.3359375,0.3007812c-0.3642578,0.40625-0.8056641,0.6796875-1.4921875,0.6796875
		C80.7236328,21.2265625,79.9111328,20.4628906,79.9111328,19.3427734z M82.7900391,19.1328125
		c-0.0566406-0.6582031-0.4345703-1.2333984-1.15625-1.2333984c-0.6298828,0-1.1064453,0.5253906-1.1767578,1.2333984H82.7900391z"
		/>
	<path class="st0" d="M83.9785156,20.6806641l0.2724609-0.3857422c0.3925781,0.2939453,0.8271484,0.4628906,1.2539062,0.4628906
		c0.4345703,0,0.75-0.2246094,0.75-0.5751953v-0.0136719c0-0.3642578-0.4277344-0.5039062-0.9042969-0.6376953
		c-0.5673828-0.1601562-1.1972656-0.3564453-1.1972656-1.0224609v-0.0136719c0-0.6230469,0.5185547-1.0361328,1.2324219-1.0361328
		c0.4414062,0,0.9316406,0.1533203,1.3027344,0.3984375l-0.2451172,0.40625
		c-0.3359375-0.2167969-0.7216797-0.3496094-1.0712891-0.3496094c-0.4277344,0-0.7001953,0.2236328-0.7001953,0.5253906v0.0136719
		c0,0.3427734,0.4482422,0.4765625,0.9316406,0.6230469c0.5595703,0.1679688,1.1621094,0.3857422,1.1621094,1.0371094v0.0136719
		c0,0.6865234-0.5673828,1.0859375-1.2890625,1.0859375C84.9589844,21.2128906,84.3847656,21.0097656,83.9785156,20.6806641z"/>
	<path class="st0" d="M87.4013672,20.6806641l0.2724609-0.3857422c0.3925781,0.2939453,0.8271484,0.4628906,1.2539062,0.4628906
		c0.4345703,0,0.75-0.2246094,0.75-0.5751953v-0.0136719c0-0.3642578-0.4277344-0.5039062-0.9042969-0.6376953
		c-0.5673828-0.1601562-1.1972656-0.3564453-1.1972656-1.0224609v-0.0136719c0-0.6230469,0.5185547-1.0361328,1.2324219-1.0361328
		c0.4414062,0,0.9316406,0.1533203,1.3027344,0.3984375l-0.2451172,0.40625
		c-0.3359375-0.2167969-0.7216797-0.3496094-1.0712891-0.3496094c-0.4277344,0-0.7001953,0.2236328-0.7001953,0.5253906v0.0136719
		c0,0.3427734,0.4482422,0.4765625,0.9316406,0.6230469c0.5595703,0.1679688,1.1621094,0.3857422,1.1621094,1.0371094v0.0136719
		c0,0.6865234-0.5673828,1.0859375-1.2890625,1.0859375C88.3818359,21.2128906,87.8076172,21.0097656,87.4013672,20.6806641z"/>
	<path class="st0" d="M91.2021484,16.1347656h0.6162109v0.5957031h-0.6162109V16.1347656z M91.2373047,17.5214844h0.5390625
		v3.6210938h-0.5390625V17.5214844z"/>
	<path class="st0" d="M92.8046875,19.3496094v-0.0136719c0-1.0224609,0.7988281-1.8916016,1.890625-1.8916016
		c1.0859375,0,1.8847656,0.8544922,1.8847656,1.8769531v0.0146484c0,1.0224609-0.8056641,1.890625-1.8984375,1.890625
		C93.5957031,21.2265625,92.8046875,20.3720703,92.8046875,19.3496094z M96.0263672,19.3496094v-0.0136719
		c0-0.7773438-0.5810547-1.4150391-1.3447266-1.4150391c-0.7841797,0-1.3232422,0.6376953-1.3232422,1.4003906v0.0146484
		c0,0.7773438,0.5742188,1.4072266,1.3369141,1.4072266C95.4804688,20.7431641,96.0263672,20.1132812,96.0263672,19.3496094z"/>
	<path class="st0" d="M97.5507812,17.5214844h0.5390625v0.6308594c0.2382812-0.3925781,0.6162109-0.7080078,1.2402344-0.7080078
		c0.875,0,1.3867188,0.5888672,1.3867188,1.4501953v2.2480469h-0.5400391v-2.1152344
		c0-0.671875-0.3632812-1.0927734-1.0009766-1.0927734c-0.6230469,0-1.0859375,0.4550781-1.0859375,1.1347656v2.0732422h-0.5390625
		V17.5214844z"/>
	<path class="st0" d="M101.5898438,20.0917969V20.078125c0-0.7636719,0.6298828-1.1699219,1.5478516-1.1699219
		c0.4619141,0,0.7910156,0.0634766,1.1132812,0.1542969v-0.1259766c0-0.6513672-0.3994141-0.9873047-1.078125-0.9873047
		c-0.4277344,0-0.7636719,0.1113281-1.0996094,0.265625l-0.1611328-0.4414062
		c0.3994141-0.1816406,0.7910156-0.3007812,1.3164062-0.3007812c0.5117188,0,0.9033203,0.1328125,1.1699219,0.3994141
		c0.2451172,0.2451172,0.3710938,0.5947266,0.3710938,1.0576172v2.2128906h-0.5185547v-0.5458984
		c-0.2519531,0.3291016-0.671875,0.6230469-1.3095703,0.6230469
		C102.2695312,21.2197266,101.5898438,20.8339844,101.5898438,20.0917969z M104.2578125,19.8115234v-0.3496094
		c-0.265625-0.0771484-0.6230469-0.1542969-1.0644531-0.1542969c-0.6787109,0-1.0576172,0.2939453-1.0576172,0.7490234v0.0146484
		c0,0.4550781,0.4208984,0.7207031,0.9111328,0.7207031C103.7119141,20.7919922,104.2578125,20.3857422,104.2578125,19.8115234z"/>
	<path class="st0" d="M105.9648438,16.0302734h0.5390625v5.1123047h-0.5390625V16.0302734z"/>
	<path class="st0" d="M107.4560547,20.6806641l0.2724609-0.3857422c0.3925781,0.2939453,0.8271484,0.4628906,1.2539062,0.4628906
		c0.4345703,0,0.75-0.2246094,0.75-0.5751953v-0.0136719c0-0.3642578-0.4277344-0.5039062-0.9042969-0.6376953
		c-0.5673828-0.1601562-1.1972656-0.3564453-1.1972656-1.0224609v-0.0136719c0-0.6230469,0.5185547-1.0361328,1.2324219-1.0361328
		c0.4414062,0,0.9316406,0.1533203,1.3027344,0.3984375l-0.2451172,0.40625
		c-0.3359375-0.2167969-0.7216797-0.3496094-1.0712891-0.3496094c-0.4277344,0-0.7001953,0.2236328-0.7001953,0.5253906v0.0136719
		c0,0.3427734,0.4482422,0.4765625,0.9316406,0.6230469c0.5595703,0.1679688,1.1621094,0.3857422,1.1621094,1.0371094v0.0136719
		c0,0.6865234-0.5673828,1.0859375-1.2890625,1.0859375C108.4365234,21.2128906,107.8623047,21.0097656,107.4560547,20.6806641z"/>
	<path class="st0" d="M110.8857422,17.5214844h0.5947266l1.21875,3.0048828l1.2255859-3.0048828h0.5820312l-1.5761719,3.6494141
		h-0.4765625L110.8857422,17.5214844z"/>
	<path class="st0" d="M117.2275391,19.3496094v-0.0136719c0-1.0224609,0.7978516-1.8916016,1.890625-1.8916016
		c1.0859375,0,1.8837891,0.8544922,1.8837891,1.8769531v0.0146484c0,1.0224609-0.8056641,1.890625-1.8974609,1.890625
		C118.0185547,21.2265625,117.2275391,20.3720703,117.2275391,19.3496094z M120.4492188,19.3496094v-0.0136719
		c0-0.7773438-0.5820312-1.4150391-1.3447266-1.4150391c-0.7851562,0-1.3242188,0.6376953-1.3242188,1.4003906v0.0146484
		c0,0.7773438,0.5742188,1.4072266,1.3378906,1.4072266C119.9023438,20.7431641,120.4492188,20.1132812,120.4492188,19.3496094z"/>
	<path class="st0" d="M121.9736328,17.5214844h0.5390625v0.6308594c0.2382812-0.3925781,0.6162109-0.7080078,1.2392578-0.7080078
		c0.8759766,0,1.3867188,0.5888672,1.3867188,1.4501953v2.2480469h-0.5390625v-2.1152344
		c0-0.671875-0.3642578-1.0927734-1.0019531-1.0927734c-0.6230469,0-1.0849609,0.4550781-1.0849609,1.1347656v2.0732422h-0.5390625
		V17.5214844z"/>
	<path class="st0" d="M126.3339844,16.0302734h0.5390625v5.1123047h-0.5390625V16.0302734z"/>
	<path class="st0" d="M130.8369141,17.5214844h0.5742188l-1.5195312,3.7402344
		c-0.3085938,0.7490234-0.6582031,1.0224609-1.2050781,1.0224609c-0.3007812,0-0.5253906-0.0634766-0.7705078-0.1816406
		l0.1826172-0.4277344c0.1748047,0.0908203,0.3359375,0.1328125,0.5673828,0.1328125
		c0.3222656,0,0.5253906-0.1679688,0.7421875-0.6787109l-1.6455078-3.6074219h0.5947266l1.3173828,3.0185547L130.8369141,17.5214844
		z"/>
	<path class="st0" d="M131.5976562,20.4072266h0.6445312v0.7353516h-0.6445312V20.4072266z"/>
</g>
<g>
	<path class="st0" d="M0.3149414,24.2412109h0.5605469l1.7856445,2.6748047l1.7861328-2.6748047h0.5600586v4.9023438H4.4541016
		v-3.9707031L2.668457,27.7988281H2.6401367l-1.7861328-2.6191406v3.9638672H0.3149414V24.2412109z"/>
	<path class="st0" d="M6.0268555,28.0927734v-0.0136719c0-0.7636719,0.6303711-1.1699219,1.5478516-1.1699219
		c0.4624023,0,0.7915039,0.0634766,1.1137695,0.1542969V26.9375c0-0.6513672-0.3994141-0.9873047-1.0786133-0.9873047
		c-0.4272461,0-0.7636719,0.1113281-1.0996094,0.265625l-0.1611328-0.4414062
		c0.3994141-0.1816406,0.7915039-0.3007812,1.3168945-0.3007812c0.5112305,0,0.9033203,0.1328125,1.1694336,0.3994141
		c0.2451172,0.2451172,0.3710938,0.5947266,0.3710938,1.0576172v2.2128906H8.6884766v-0.5458984
		c-0.2524414,0.3291016-0.6723633,0.6230469-1.3100586,0.6230469C6.706543,29.2207031,6.0268555,28.8349609,6.0268555,28.0927734z
		 M8.6953125,27.8125v-0.3496094c-0.2661133-0.0771484-0.6230469-0.1542969-1.0644531-0.1542969
		c-0.6791992,0-1.0576172,0.2939453-1.0576172,0.7490234v0.0146484c0,0.4550781,0.4204102,0.7207031,0.9106445,0.7207031
		C8.1489258,28.7929688,8.6953125,28.3867188,8.6953125,27.8125z"/>
	<path class="st0" d="M12.9306641,25.5224609h0.5742188l-1.5200195,3.7402344
		c-0.3081055,0.7490234-0.6582031,1.0224609-1.2045898,1.0224609c-0.3012695,0-0.5253906-0.0634766-0.7705078-0.1816406
		l0.1821289-0.4277344c0.175293,0.0908203,0.3364258,0.1328125,0.5673828,0.1328125
		c0.3222656,0,0.5253906-0.1679688,0.7421875-0.6787109L9.855957,25.5224609h0.5952148l1.3168945,3.0185547L12.9306641,25.5224609z"
		/>
	<path class="st0" d="M16.190918,28.7167969l1.7788086-1.5693359c0.7495117-0.671875,1.0224609-1.0507812,1.0224609-1.5410156
		c0-0.5742188-0.4550781-0.9384766-0.9873047-0.9384766c-0.5605469,0-0.9248047,0.2939453-1.3168945,0.8408203l-0.40625-0.2939453
		c0.4414062-0.6591797,0.9033203-1.0439453,1.7651367-1.0439453c0.8823242,0,1.5195312,0.5878906,1.5195312,1.3867188v0.0136719
		c0,0.7148438-0.3779297,1.15625-1.2397461,1.9052734l-1.3095703,1.1630859h2.5986328v0.5039062H16.190918V28.7167969z"/>
	<path class="st0" d="M20.4814453,26.7060547v-0.0136719c0-1.3730469,0.8198242-2.5351562,2.0800781-2.5351562
		c1.2607422,0,2.059082,1.1484375,2.059082,2.5205078v0.0146484c0,1.3730469-0.8120117,2.5351562-2.0727539,2.5351562
		C21.2797852,29.2275391,20.4814453,28.0791016,20.4814453,26.7060547z M24.0463867,26.7060547v-0.0136719
		c0-1.0712891-0.5883789-2.03125-1.4985352-2.03125c-0.9174805,0-1.4916992,0.9384766-1.4916992,2.0166016v0.0146484
		c0,1.0712891,0.5878906,2.03125,1.5053711,2.03125S24.0463867,27.7773438,24.0463867,26.7060547z"/>
	<path class="st0" d="M25.3256836,28.7167969l1.7788086-1.5693359c0.7495117-0.671875,1.0224609-1.0507812,1.0224609-1.5410156
		c0-0.5742188-0.4550781-0.9384766-0.9873047-0.9384766c-0.5605469,0-0.9248047,0.2939453-1.3168945,0.8408203l-0.40625-0.2939453
		c0.4414062-0.6591797,0.9033203-1.0439453,1.7651367-1.0439453c0.8823242,0,1.5195312,0.5878906,1.5195312,1.3867188v0.0136719
		c0,0.7148438-0.3779297,1.15625-1.2397461,1.9052734l-1.3095703,1.1630859h2.5986328v0.5039062h-3.4248047V28.7167969z"/>
	<path class="st0" d="M29.5180664,28.7167969l1.7792969-1.5693359c0.7495117-0.671875,1.0224609-1.0507812,1.0224609-1.5410156
		c0-0.5742188-0.4550781-0.9384766-0.9873047-0.9384766c-0.5605469,0-0.9248047,0.2939453-1.3168945,0.8408203l-0.40625-0.2939453
		c0.4414062-0.6591797,0.9033203-1.0439453,1.7651367-1.0439453c0.8823242,0,1.5195312,0.5878906,1.5195312,1.3867188v0.0136719
		c0,0.7148438-0.3779297,1.15625-1.2397461,1.9052734l-1.3095703,1.1630859h2.5986328v0.5039062h-3.425293V28.7167969z"/>
	<path class="st0" d="M36.2172852,24.2412109h0.5537109v4.9023438h-0.5537109V24.2412109z"/>
	<path class="st0" d="M38.2055664,24.2412109h0.5532227v2.1777344h2.8295898v-2.1777344h0.5532227v4.9023438h-0.5532227V26.9375
		h-2.8295898v2.2060547h-0.5532227V24.2412109z"/>
	<path class="st0" d="M47.9936523,29.2910156l-0.6513672-0.5820312c-0.4130859,0.3222656-0.9384766,0.5185547-1.5405273,0.5185547
		c-1.4916992,0-2.4936523-1.1699219-2.4936523-2.5214844v-0.0136719c0-1.3515625,1.015625-2.5351562,2.5073242-2.5351562
		c1.4921875,0,2.4936523,1.1689453,2.4936523,2.5205078v0.0146484c0,0.609375-0.2172852,1.1904297-0.581543,1.6386719
		l0.6445312,0.5458984L47.9936523,29.2910156z M46.9501953,28.3525391l-0.9174805-0.7851562l0.3710938-0.4130859
		l0.9174805,0.8339844c0.2661133-0.3505859,0.4135742-0.7919922,0.4135742-1.2822266v-0.0136719
		c0-1.1132812-0.8125-2.0244141-1.9331055-2.0244141s-1.9189453,0.8964844-1.9189453,2.0097656v0.0146484
		c0,1.1132812,0.8120117,2.0244141,1.9326172,2.0244141C46.25,28.7167969,46.6420898,28.5830078,46.9501953,28.3525391z"/>
	<path class="st0" d="M49.2373047,26.7548828h1.9472656v0.5673828h-1.9472656V26.7548828z"/>
	<path class="st0" d="M52.3320312,24.2412109h3.5439453v0.5039062h-2.9912109v1.6738281h2.6757812v0.5048828h-2.6757812v1.7158203
		h3.0263672v0.5039062h-3.5791016V24.2412109z"/>
	<path class="st0" d="M57.0214844,24.2412109h1.8349609c1.1064453,0,1.8349609,0.5878906,1.8349609,1.5546875v0.0136719
		c0,1.0576172-0.8818359,1.6044922-1.9257812,1.6044922h-1.1904297v1.7294922h-0.5537109V24.2412109z M58.7871094,26.9091797
		c0.8125,0,1.3447266-0.4335938,1.3447266-1.078125v-0.0146484c0-0.7001953-0.5253906-1.0644531-1.3173828-1.0644531h-1.2392578
		v2.1572266H58.7871094z"/>
	<path class="st0" d="M61.4804688,26.7060547v-0.0136719c0-1.3867188,1.0361328-2.5351562,2.4794922-2.5351562
		c0.8896484,0,1.421875,0.3144531,1.9121094,0.7773438l-0.3789062,0.40625
		c-0.4130859-0.3925781-0.875-0.6728516-1.5400391-0.6728516c-1.0859375,0-1.8984375,0.8828125-1.8984375,2.0097656v0.0146484
		c0,1.1347656,0.8193359,2.0244141,1.8984375,2.0244141c0.671875,0,1.1132812-0.2597656,1.5820312-0.7080078l0.3642578,0.3574219
		c-0.5107422,0.5185547-1.0712891,0.8613281-1.9609375,0.8613281
		C62.5244141,29.2275391,61.4804688,28.1142578,61.4804688,26.7060547z"/>
	<path class="st0" d="M66.5830078,26.7548828h1.9472656v0.5673828h-1.9472656V26.7548828z"/>
	<path class="st0" d="M69.4179688,26.7060547v-0.0136719c0-1.3730469,0.8203125-2.5351562,2.0800781-2.5351562
		c1.2607422,0,2.0595703,1.1484375,2.0595703,2.5205078v0.0146484c0,1.3730469-0.8125,2.5351562-2.0732422,2.5351562
		C70.2167969,29.2275391,69.4179688,28.0791016,69.4179688,26.7060547z M72.9833984,26.7060547v-0.0136719
		c0-1.0712891-0.5888672-2.03125-1.4990234-2.03125c-0.9169922,0-1.4912109,0.9384766-1.4912109,2.0166016v0.0146484
		c0,1.0712891,0.5878906,2.03125,1.5048828,2.03125C72.4160156,28.7236328,72.9833984,27.7773438,72.9833984,26.7060547z"/>
	<path class="st0" d="M74.4228516,26.7060547v-0.0136719c0-1.3730469,0.8203125-2.5351562,2.0800781-2.5351562
		c1.2607422,0,2.0595703,1.1484375,2.0595703,2.5205078v0.0146484c0,1.3730469-0.8125,2.5351562-2.0732422,2.5351562
		C75.2216797,29.2275391,74.4228516,28.0791016,74.4228516,26.7060547z M77.9882812,26.7060547v-0.0136719
		c0-1.0712891-0.5888672-2.03125-1.4990234-2.03125c-0.9169922,0-1.4912109,0.9384766-1.4912109,2.0166016v0.0146484
		c0,1.0712891,0.5878906,2.03125,1.5048828,2.03125C77.4208984,28.7236328,77.9882812,27.7773438,77.9882812,26.7060547z"/>
	<path class="st0" d="M79.3652344,28.4501953l0.3642578-0.3994141c0.4267578,0.4130859,0.8964844,0.6728516,1.3935547,0.6728516
		c0.7001953,0,1.1835938-0.4628906,1.1835938-1.0859375v-0.0136719c0-0.609375-0.5039062-1.0302734-1.21875-1.0302734
		c-0.4130859,0-0.7421875,0.1269531-1.0292969,0.2802734L79.6875,26.6289062l0.1396484-2.3876953h2.8222656v0.5107422h-2.3388672
		l-0.1054688,1.5693359c0.2880859-0.1259766,0.5605469-0.2177734,0.9667969-0.2177734
		c0.953125,0,1.6953125,0.5673828,1.6953125,1.4990234v0.0146484c0,0.9589844-0.7285156,1.6103516-1.7509766,1.6103516
		C80.4160156,29.2275391,79.8066406,28.8916016,79.3652344,28.4501953z"/>
	<path class="st0" d="M83.5517578,28.7167969l1.7783203-1.5693359c0.75-0.671875,1.0224609-1.0507812,1.0224609-1.5410156
		c0-0.5742188-0.4550781-0.9384766-0.9873047-0.9384766c-0.5605469,0-0.9248047,0.2939453-1.3164062,0.8408203l-0.40625-0.2939453
		c0.4414062-0.6591797,0.9033203-1.0439453,1.7646484-1.0439453c0.8828125,0,1.5195312,0.5878906,1.5195312,1.3867188v0.0136719
		c0,0.7148438-0.3779297,1.15625-1.2392578,1.9052734l-1.3095703,1.1630859h2.5986328v0.5039062h-3.4248047V28.7167969z"/>
</g>
</svg>
