<?xml version="1.0" encoding="UTF-8"?><svg id="a" xmlns="http://www.w3.org/2000/svg" viewBox="0 0 163.79 37.02"><defs><style>.b{fill:#fff;}</style></defs><g><path class="b" d="M.48,.24h3.54V.74H1.03v1.67H3.7v.5H1.03v1.72h3.03v.5H.48V.24Z"/><path class="b" d="M5.17,.24h1.83c1.11,0,1.83,.59,1.83,1.55h0c0,1.07-.88,1.62-1.93,1.62h-1.19v1.73h-.55V.24Zm1.77,2.67c.81,0,1.34-.43,1.34-1.08h0c0-.71-.53-1.08-1.32-1.08h-1.24V2.91h1.21Z"/><path class="b" d="M9.62,2.7h0c0-1.4,1.04-2.55,2.48-2.55,.89,0,1.42,.31,1.91,.78l-.38,.41c-.41-.39-.88-.67-1.54-.67-1.09,0-1.9,.88-1.9,2.01h0c0,1.15,.82,2.04,1.9,2.04,.67,0,1.11-.26,1.58-.71l.36,.36c-.51,.52-1.07,.86-1.96,.86-1.41,0-2.46-1.11-2.46-2.52Z"/><path class="b" d="M15.01,.24h.55V4.63h2.76v.51h-3.31V.24Z"/><path class="b" d="M19.16,3.09V.24h.55V3.05c0,1.06,.57,1.65,1.5,1.65s1.48-.55,1.48-1.62V.24h.55V3.05c0,1.43-.82,2.17-2.05,2.17s-2.04-.74-2.04-2.13Z"/><path class="b" d="M24.23,4.43l.34-.41c.51,.46,1,.69,1.68,.69s1.09-.35,1.09-.83h0c0-.47-.25-.73-1.27-.95-1.13-.25-1.65-.61-1.65-1.42h0c0-.78,.68-1.35,1.61-1.35,.71,0,1.23,.2,1.72,.6l-.32,.43c-.46-.37-.91-.53-1.42-.53-.64,0-1.04,.35-1.04,.79h0c0,.48,.25,.74,1.33,.97,1.09,.24,1.6,.64,1.6,1.39h0c0,.85-.7,1.4-1.67,1.4-.78,0-1.42-.26-2-.79Z"/><path class="b" d="M30.74,.2h.52l2.23,4.94h-.6l-.57-1.3h-2.67l-.58,1.3h-.57L30.74,.2Zm1.37,3.14l-1.11-2.49-1.12,2.49h2.23Z"/><path class="b" d="M36.48,.13h.62V.73h-.62V.13Zm.04,1.39h.54v3.62h-.54V1.52Z"/><path class="b" d="M38,4.68l.27-.39c.39,.29,.83,.46,1.25,.46s.75-.22,.75-.58h0c0-.38-.43-.52-.9-.65-.57-.16-1.2-.36-1.2-1.02h0c0-.64,.52-1.05,1.23-1.05,.44,0,.93,.15,1.3,.4l-.25,.41c-.34-.22-.72-.35-1.07-.35-.43,0-.7,.22-.7,.53h0c0,.36,.45,.49,.93,.64,.56,.17,1.16,.39,1.16,1.04h0c0,.7-.57,1.1-1.29,1.1-.52,0-1.09-.2-1.5-.53Z"/><path class="b" d="M43.9,.13h.62V.73h-.62V.13Zm.04,1.39h.54v3.62h-.54V1.52Z"/><path class="b" d="M45.73,1.52h.54v.63c.24-.39,.62-.71,1.24-.71,.88,0,1.39,.59,1.39,1.45v2.25h-.54V3.03c0-.67-.36-1.09-1-1.09s-1.09,.46-1.09,1.13v2.07h-.54V1.52Z"/><path class="b" d="M49.83,3.34h0c0-1.2,.86-1.9,1.73-1.9,.67,0,1.11,.36,1.39,.77V.03h.54V5.14h-.54v-.73c-.29,.43-.72,.81-1.39,.81-.87,0-1.73-.69-1.73-1.88Zm3.14,0h0c0-.85-.64-1.41-1.31-1.41s-1.27,.52-1.27,1.39h0c0,.87,.6,1.42,1.27,1.42s1.31-.57,1.31-1.4Z"/><path class="b" d="M54.7,.13h.62V.73h-.62V.13Zm.04,1.39h.54v3.62h-.54V1.52Z"/><path class="b" d="M56.31,3.35h0c0-1.04,.8-1.91,1.86-1.91,.69,0,1.11,.29,1.45,.64l-.36,.38c-.29-.3-.61-.55-1.1-.55-.74,0-1.3,.62-1.3,1.4h0c0,.8,.57,1.42,1.33,1.42,.46,0,.82-.23,1.11-.54l.34,.32c-.36,.41-.8,.7-1.48,.7-1.06,0-1.86-.86-1.86-1.88Z"/><path class="b" d="M60.25,4.09h0c0-.78,.63-1.18,1.55-1.18,.46,0,.79,.06,1.11,.15v-.13c0-.65-.4-.99-1.08-.99-.43,0-.76,.11-1.1,.27l-.16-.44c.4-.18,.79-.3,1.32-.3s.9,.13,1.17,.4c.25,.25,.37,.59,.37,1.06v2.21h-.52v-.55c-.25,.33-.67,.62-1.31,.62-.67,0-1.35-.39-1.35-1.13Zm2.67-.28v-.35c-.27-.08-.62-.15-1.06-.15-.68,0-1.06,.29-1.06,.75h0c0,.47,.42,.74,.91,.74,.67,0,1.21-.41,1.21-.98Z"/><path class="b" d="M64.73,4.18V2h-.5v-.48h.5V.43h.54V1.52h1.15v.48h-1.15v2.12c0,.44,.25,.6,.61,.6,.18,0,.34-.04,.53-.13v.46c-.19,.1-.39,.15-.65,.15-.58,0-1.02-.29-1.02-1.02Z"/><path class="b" d="M67.05,3.34h0c0-1.06,.74-1.9,1.74-1.9,1.07,0,1.69,.85,1.69,1.91,0,.07,0,.11,0,.17h-2.87c.08,.79,.63,1.23,1.27,1.23,.5,0,.85-.2,1.14-.51l.34,.3c-.36,.41-.8,.68-1.49,.68-1,0-1.81-.76-1.81-1.88Zm2.88-.21c-.06-.66-.43-1.23-1.16-1.23-.63,0-1.11,.53-1.18,1.23h2.33Z"/><path class="b" d="M71.21,3.34h0c0-1.2,.86-1.9,1.73-1.9,.67,0,1.11,.36,1.39,.77V.03h.54V5.14h-.54v-.73c-.29,.43-.72,.81-1.39,.81-.87,0-1.73-.69-1.73-1.88Zm3.14,0h0c0-.85-.64-1.41-1.31-1.41s-1.28,.52-1.28,1.39h0c0,.87,.6,1.42,1.28,1.42s1.31-.57,1.31-1.4Z"/><path class="b" d="M78.37,2h-.5v-.47h.5v-.31c0-.41,.11-.73,.32-.93,.18-.18,.45-.28,.78-.28,.25,0,.42,.03,.59,.09v.47c-.2-.06-.34-.09-.52-.09-.42,0-.63,.25-.63,.77v.29h1.15v.46h-1.14v3.14h-.54V2Z"/><path class="b" d="M80.44,3.35h0c0-1.04,.8-1.91,1.89-1.91s1.88,.85,1.88,1.88h0c0,1.04-.81,1.91-1.9,1.91s-1.88-.85-1.88-1.88Zm3.22,0h0c0-.79-.58-1.43-1.34-1.43s-1.32,.64-1.32,1.4h0c0,.79,.57,1.42,1.34,1.42s1.33-.63,1.33-1.39Z"/><path class="b" d="M85.19,1.52h.54v.95c.27-.6,.79-1.04,1.48-1.01v.58h-.04c-.79,0-1.44,.57-1.44,1.66v1.44h-.54V1.52Z"/><path class="b" d="M90.31,4.18V2h-.5v-.48h.5V.43h.54V1.52h1.15v.48h-1.15v2.12c0,.44,.25,.6,.61,.6,.18,0,.34-.04,.53-.13v.46c-.19,.1-.39,.15-.65,.15-.58,0-1.02-.29-1.02-1.02Z"/><path class="b" d="M92.95,.03h.54V2.15c.24-.39,.62-.71,1.24-.71,.88,0,1.39,.59,1.39,1.45v2.25h-.54V3.03c0-.67-.36-1.09-1-1.09s-1.08,.46-1.08,1.13v2.07h-.54V.03Z"/><path class="b" d="M97.04,3.34h0c0-1.06,.74-1.9,1.74-1.9,1.07,0,1.69,.85,1.69,1.91,0,.07,0,.11,0,.17h-2.87c.08,.79,.63,1.23,1.27,1.23,.5,0,.85-.2,1.14-.51l.34,.3c-.36,.41-.8,.68-1.49,.68-1,0-1.81-.76-1.81-1.88Zm2.88-.21c-.06-.66-.43-1.23-1.16-1.23-.63,0-1.11,.53-1.18,1.23h2.33Z"/><path class="b" d="M103.7,4.18V2h-.5v-.48h.5V.43h.54V1.52h1.15v.48h-1.15v2.12c0,.44,.25,.6,.61,.6,.18,0,.34-.04,.53-.13v.46c-.19,.1-.39,.15-.65,.15-.58,0-1.02-.29-1.02-1.02Z"/><path class="b" d="M106.34,1.52h.54v.95c.27-.6,.79-1.04,1.48-1.01v.58h-.04c-.79,0-1.44,.57-1.44,1.66v1.44h-.54V1.52Z"/><path class="b" d="M108.79,3.34h0c0-1.06,.74-1.9,1.74-1.9,1.07,0,1.69,.85,1.69,1.91,0,.07,0,.11,0,.17h-2.87c.08,.79,.63,1.23,1.27,1.23,.5,0,.85-.2,1.14-.51l.34,.3c-.36,.41-.8,.68-1.49,.68-1,0-1.81-.76-1.81-1.88Zm2.88-.21c-.06-.66-.43-1.23-1.16-1.23-.63,0-1.11,.53-1.18,1.23h2.33Z"/><path class="b" d="M112.89,4.09h0c0-.78,.63-1.18,1.55-1.18,.46,0,.79,.06,1.11,.15v-.13c0-.65-.4-.99-1.08-.99-.43,0-.76,.11-1.1,.27l-.16-.44c.4-.18,.79-.3,1.32-.3s.9,.13,1.17,.4c.25,.25,.37,.59,.37,1.06v2.21h-.52v-.55c-.25,.33-.67,.62-1.31,.62-.67,0-1.35-.39-1.35-1.13Zm2.67-.28v-.35c-.27-.08-.62-.15-1.06-.15-.68,0-1.06,.29-1.06,.75h0c0,.47,.42,.74,.91,.74,.67,0,1.21-.41,1.21-.98Z"/><path class="b" d="M117.37,4.18V2h-.5v-.48h.5V.43h.54V1.52h1.15v.48h-1.15v2.12c0,.44,.25,.6,.61,.6,.18,0,.34-.04,.53-.13v.46c-.19,.1-.39,.15-.65,.15-.58,0-1.02-.29-1.02-1.02Z"/><path class="b" d="M120.01,1.52h.54v.61c.24-.36,.56-.69,1.17-.69s.97,.32,1.16,.72c.26-.4,.64-.72,1.27-.72,.83,0,1.34,.56,1.34,1.46v2.24h-.54V3.03c0-.7-.35-1.09-.94-1.09-.55,0-.99,.41-.99,1.12v2.09h-.54V3.01c0-.68-.36-1.08-.93-1.08s-1.01,.48-1.01,1.14v2.07h-.54V1.52Z"/><path class="b" d="M126.44,3.34h0c0-1.06,.74-1.9,1.74-1.9,1.07,0,1.69,.85,1.69,1.91,0,.07,0,.11,0,.17h-2.87c.08,.79,.63,1.23,1.27,1.23,.5,0,.85-.2,1.14-.51l.34,.3c-.36,.41-.8,.68-1.49,.68-1,0-1.81-.76-1.81-1.88Zm2.88-.21c-.06-.66-.43-1.23-1.16-1.23-.63,0-1.11,.53-1.18,1.23h2.33Z"/><path class="b" d="M130.81,1.52h.54v.63c.24-.39,.62-.71,1.24-.71,.88,0,1.39,.59,1.39,1.45v2.25h-.54V3.03c0-.67-.36-1.09-1-1.09s-1.08,.46-1.08,1.13v2.07h-.54V1.52Z"/><path class="b" d="M135.31,4.18V2h-.5v-.48h.5V.43h.54V1.52h1.15v.48h-1.15v2.12c0,.44,.25,.6,.61,.6,.18,0,.34-.04,.53-.13v.46c-.19,.1-.39,.15-.65,.15-.58,0-1.02-.29-1.02-1.02Z"/><path class="b" d="M139.82,3.35h0c0-1.04,.8-1.91,1.89-1.91s1.88,.85,1.88,1.88h0c0,1.04-.81,1.91-1.9,1.91s-1.88-.85-1.88-1.88Zm3.22,0h0c0-.79-.58-1.43-1.34-1.43s-1.32,.64-1.32,1.4h0c0,.79,.57,1.42,1.34,1.42s1.33-.63,1.33-1.39Z"/><path class="b" d="M144.77,2h-.5v-.47h.5v-.31c0-.41,.11-.73,.32-.93,.18-.18,.45-.28,.78-.28,.25,0,.42,.03,.59,.09v.47c-.2-.06-.34-.09-.53-.09-.42,0-.63,.25-.63,.77v.29h1.15v.46h-1.14v3.14h-.54V2Z"/></g><g><path class="b" d="M.16,11.35H.16c0-1.04,.8-1.91,1.86-1.91,.69,0,1.11,.29,1.45,.64l-.36,.38c-.29-.3-.61-.55-1.1-.55-.74,0-1.3,.62-1.3,1.4H.71c0,.8,.57,1.42,1.33,1.42,.46,0,.82-.23,1.11-.54l.34,.32c-.36,.41-.8,.7-1.48,.7-1.06,0-1.86-.86-1.86-1.88Z"/><path class="b" d="M4.21,8.03h.54v2.12c.24-.39,.62-.71,1.24-.71,.88,0,1.39,.59,1.39,1.45v2.25h-.54v-2.12c0-.67-.36-1.09-1-1.09s-1.09,.46-1.09,1.13v2.07h-.54v-5.11Z"/><path class="b" d="M8.36,9.52h.54v.95c.27-.6,.79-1.04,1.48-1.01v.58h-.04c-.79,0-1.44,.57-1.44,1.66v1.44h-.54v-3.62Z"/><path class="b" d="M10.64,11.35h0c0-1.04,.8-1.91,1.89-1.91s1.88,.85,1.88,1.88h0c0,1.04-.81,1.91-1.9,1.91s-1.88-.85-1.88-1.88Zm3.22,0h0c0-.79-.58-1.43-1.34-1.43s-1.32,.64-1.32,1.4h0c0,.79,.57,1.42,1.34,1.42s1.33-.63,1.33-1.39Z"/><path class="b" d="M15.22,9.52h.54v.63c.24-.39,.62-.71,1.24-.71,.88,0,1.39,.59,1.39,1.45v2.25h-.54v-2.12c0-.67-.36-1.09-1-1.09s-1.09,.46-1.09,1.13v2.07h-.54v-3.62Z"/><path class="b" d="M19.37,8.13h.62v.6h-.62v-.6Zm.04,1.39h.54v3.62h-.54v-3.62Z"/><path class="b" d="M20.8,11.35h0c0-1.04,.8-1.91,1.86-1.91,.69,0,1.11,.29,1.45,.64l-.36,.38c-.29-.3-.61-.55-1.1-.55-.74,0-1.3,.62-1.3,1.4h0c0,.8,.57,1.42,1.33,1.42,.46,0,.82-.23,1.11-.54l.34,.32c-.36,.41-.8,.7-1.48,.7-1.06,0-1.86-.86-1.86-1.88Z"/><path class="b" d="M26.79,8.03h.54v2.12c.24-.39,.62-.71,1.24-.71,.88,0,1.39,.59,1.39,1.45v2.25h-.54v-2.12c0-.67-.36-1.09-1-1.09s-1.09,.46-1.09,1.13v2.07h-.54v-5.11Z"/><path class="b" d="M30.7,11.34h0c0-1.06,.74-1.9,1.74-1.9,1.07,0,1.69,.85,1.69,1.91,0,.07,0,.11,0,.17h-2.87c.08,.79,.63,1.23,1.27,1.23,.5,0,.85-.2,1.14-.51l.34,.3c-.36,.41-.81,.68-1.49,.68-.99,0-1.81-.76-1.81-1.88Zm2.88-.21c-.06-.66-.43-1.23-1.16-1.23-.63,0-1.11,.53-1.18,1.23h2.33Z"/><path class="b" d="M34.9,9.52h.54v.73c.29-.43,.72-.81,1.39-.81,.87,0,1.73,.69,1.73,1.88h0c0,1.2-.85,1.9-1.73,1.9-.67,0-1.11-.36-1.39-.77v1.81h-.54v-4.74Zm3.1,1.82h0c0-.87-.59-1.42-1.27-1.42s-1.31,.57-1.31,1.39h0c0,.85,.64,1.42,1.31,1.42s1.27-.52,1.27-1.39Z"/><path class="b" d="M39.11,12.09h0c0-.78,.63-1.18,1.55-1.18,.46,0,.79,.06,1.11,.15v-.13c0-.65-.4-.99-1.08-.99-.43,0-.76,.11-1.1,.27l-.16-.44c.4-.18,.79-.3,1.32-.3s.9,.13,1.17,.4c.25,.25,.37,.59,.37,1.06v2.21h-.52v-.55c-.25,.33-.67,.62-1.31,.62-.67,0-1.35-.39-1.35-1.13Zm2.67-.28v-.35c-.27-.08-.62-.15-1.06-.15-.68,0-1.06,.29-1.06,.75h0c0,.47,.42,.74,.91,.74,.67,0,1.21-.41,1.21-.98Z"/><path class="b" d="M43.41,12.18v-2.18h-.5v-.48h.5v-1.09h.54v1.09h1.15v.48h-1.15v2.12c0,.44,.25,.6,.61,.6,.18,0,.34-.04,.53-.13v.46c-.19,.1-.39,.15-.65,.15-.58,0-1.02-.29-1.02-1.02Z"/><path class="b" d="M45.9,8.13h.62v.6h-.62v-.6Zm.04,1.39h.54v3.62h-.54v-3.62Z"/><path class="b" d="M47.75,12.18v-2.18h-.5v-.48h.5v-1.09h.54v1.09h1.15v.48h-1.15v2.12c0,.44,.25,.6,.61,.6,.18,0,.34-.04,.53-.13v.46c-.19,.1-.39,.15-.65,.15-.58,0-1.02-.29-1.02-1.02Z"/><path class="b" d="M50.23,8.13h.62v.6h-.62v-.6Zm.04,1.39h.54v3.62h-.54v-3.62Z"/><path class="b" d="M51.59,12.68l.27-.39c.39,.29,.83,.46,1.25,.46s.75-.22,.75-.58h0c0-.38-.43-.52-.9-.65-.57-.16-1.2-.36-1.2-1.02h0c0-.64,.52-1.05,1.23-1.05,.44,0,.93,.15,1.3,.4l-.25,.41c-.34-.22-.72-.35-1.07-.35-.43,0-.7,.22-.7,.53h0c0,.36,.45,.49,.93,.64,.56,.17,1.16,.39,1.16,1.04h0c0,.7-.57,1.1-1.29,1.1-.52,0-1.09-.2-1.5-.53Z"/><path class="b" d="M57.01,10.7h0c0-1.4,1.04-2.55,2.48-2.55,.89,0,1.42,.31,1.91,.78l-.38,.41c-.41-.39-.88-.67-1.54-.67-1.09,0-1.9,.88-1.9,2.01h0c0,1.15,.82,2.04,1.9,2.04,.67,0,1.11-.26,1.58-.71l.36,.36c-.51,.52-1.07,.86-1.96,.86-1.41,0-2.46-1.11-2.46-2.52Z"/><path class="b" d="M63.71,9.52h.6l1.22,3,1.23-3h.58l-1.58,3.65h-.48l-1.57-3.65Z"/><path class="b" d="M68.02,8.13h.62v.6h-.62v-.6Zm.04,1.39h.54v3.62h-.54v-3.62Z"/><path class="b" d="M69.68,9.52h.54v.95c.27-.6,.79-1.04,1.48-1.01v.58h-.04c-.79,0-1.44,.57-1.44,1.66v1.44h-.54v-3.62Z"/><path class="b" d="M72.29,11.77v-2.25h.54v2.12c0,.67,.36,1.09,1,1.09s1.09-.46,1.09-1.13v-2.07h.53v3.62h-.53v-.63c-.25,.39-.62,.71-1.24,.71-.88,0-1.39-.59-1.39-1.45Z"/><path class="b" d="M76.19,12.68l.27-.39c.39,.29,.83,.46,1.25,.46s.75-.22,.75-.58h0c0-.38-.43-.52-.9-.65-.57-.16-1.2-.36-1.2-1.02h0c0-.64,.52-1.05,1.23-1.05,.44,0,.93,.15,1.3,.4l-.25,.41c-.34-.22-.72-.35-1.07-.35-.43,0-.7,.22-.7,.53h0c0,.36,.45,.49,.93,.64,.56,.17,1.16,.39,1.16,1.04h0c0,.7-.57,1.1-1.29,1.1-.52,0-1.09-.2-1.5-.53Z"/><path class="b" d="M81.62,11.13c0-1.29,.69-2.3,1.94-3l.23,.36c-1.06,.68-1.62,1.52-1.62,2.64s.56,1.96,1.62,2.64l-.23,.36c-1.25-.7-1.94-1.71-1.94-3Z"/><path class="b" d="M84.71,8.24h.55v2.18h2.83v-2.18h.55v4.9h-.55v-2.21h-2.83v2.21h-.55v-4.9Z"/><path class="b" d="M89.64,10.7h0c0-1.4,1.04-2.55,2.48-2.55,.89,0,1.42,.31,1.91,.78l-.38,.41c-.41-.39-.88-.67-1.54-.67-1.09,0-1.9,.88-1.9,2.01h0c0,1.15,.82,2.04,1.9,2.04,.67,0,1.11-.26,1.58-.71l.36,.36c-.51,.52-1.07,.86-1.96,.86-1.41,0-2.46-1.11-2.46-2.52Z"/><path class="b" d="M94.4,8.24h.62l1.74,4.22,1.75-4.22h.59l-2.11,4.94h-.49l-2.11-4.94Z"/><path class="b" d="M99.6,13.77c1.06-.68,1.62-1.52,1.62-2.64s-.56-1.96-1.62-2.64l.23-.36c1.25,.7,1.94,1.71,1.94,3s-.69,2.3-1.94,3l-.23-.36Z"/><path class="b" d="M104.63,8.13h.62v.6h-.62v-.6Zm.04,1.39h.54v3.62h-.54v-3.62Z"/><path class="b" d="M106.29,9.52h.54v.63c.24-.39,.62-.71,1.24-.71,.88,0,1.39,.59,1.39,1.45v2.25h-.54v-2.12c0-.67-.36-1.09-1-1.09s-1.09,.46-1.09,1.13v2.07h-.54v-3.62Z"/><path class="b" d="M110.63,10h-.5v-.47h.5v-.31c0-.41,.11-.73,.31-.93,.18-.18,.45-.28,.78-.28,.25,0,.42,.03,.6,.09v.47c-.2-.06-.34-.09-.53-.09-.42,0-.63,.25-.63,.77v.29h1.15v.46h-1.14v3.14h-.54v-3.14Z"/><path class="b" d="M112.54,11.34h0c0-1.06,.74-1.9,1.74-1.9,1.07,0,1.69,.85,1.69,1.91,0,.07,0,.11,0,.17h-2.87c.08,.79,.63,1.23,1.28,1.23,.5,0,.85-.2,1.14-.51l.34,.3c-.36,.41-.81,.68-1.49,.68-.99,0-1.81-.76-1.81-1.88Zm2.88-.21c-.06-.66-.43-1.23-1.16-1.23-.63,0-1.11,.53-1.18,1.23h2.33Z"/><path class="b" d="M116.51,11.35h0c0-1.04,.8-1.91,1.86-1.91,.69,0,1.11,.29,1.45,.64l-.36,.38c-.29-.3-.61-.55-1.1-.55-.74,0-1.29,.62-1.29,1.4h0c0,.8,.57,1.42,1.33,1.42,.46,0,.82-.23,1.11-.54l.34,.32c-.36,.41-.8,.7-1.48,.7-1.06,0-1.86-.86-1.86-1.88Z"/><path class="b" d="M120.75,12.18v-2.18h-.5v-.48h.5v-1.09h.54v1.09h1.15v.48h-1.15v2.12c0,.44,.25,.6,.61,.6,.18,0,.34-.04,.53-.13v.46c-.19,.1-.39,.15-.65,.15-.58,0-1.02-.29-1.02-1.02Z"/><path class="b" d="M123.23,8.13h.62v.6h-.62v-.6Zm.04,1.39h.54v3.62h-.54v-3.62Z"/><path class="b" d="M124.67,11.35h0c0-1.04,.8-1.91,1.89-1.91s1.88,.85,1.88,1.88h0c0,1.04-.81,1.91-1.9,1.91s-1.88-.85-1.88-1.88Zm3.22,0h0c0-.79-.58-1.43-1.34-1.43s-1.32,.64-1.32,1.4h0c0,.79,.57,1.42,1.34,1.42s1.33-.63,1.33-1.39Z"/><path class="b" d="M129.24,9.52h.54v.63c.24-.39,.62-.71,1.24-.71,.88,0,1.39,.59,1.39,1.45v2.25h-.54v-2.12c0-.67-.36-1.09-1-1.09s-1.08,.46-1.08,1.13v2.07h-.54v-3.62Z"/><path class="b" d="M135.33,8.13h.62v.6h-.62v-.6Zm.04,1.39h.54v3.62h-.54v-3.62Z"/><path class="b" d="M136.99,9.52h.54v.63c.24-.39,.62-.71,1.24-.71,.88,0,1.39,.59,1.39,1.45v2.25h-.54v-2.12c0-.67-.36-1.09-1-1.09s-1.09,.46-1.09,1.13v2.07h-.54v-3.62Z"/><path class="b" d="M142.79,12.09h0c0-.78,.63-1.18,1.55-1.18,.46,0,.79,.06,1.11,.15v-.13c0-.65-.4-.99-1.08-.99-.43,0-.76,.11-1.1,.27l-.16-.44c.4-.18,.79-.3,1.32-.3s.9,.13,1.17,.4c.25,.25,.37,.59,.37,1.06v2.21h-.52v-.55c-.25,.33-.67,.62-1.31,.62-.67,0-1.35-.39-1.35-1.13Zm2.67-.28v-.35c-.27-.08-.62-.15-1.07-.15-.68,0-1.06,.29-1.06,.75h0c0,.47,.42,.74,.91,.74,.67,0,1.21-.41,1.21-.98Z"/><path class="b" d="M146.73,11.34h0c0-1.2,.86-1.9,1.73-1.9,.67,0,1.11,.36,1.39,.77v-2.18h.54v5.11h-.54v-.73c-.29,.43-.72,.81-1.39,.81-.87,0-1.73-.69-1.73-1.88Zm3.14,0h0c0-.85-.64-1.41-1.31-1.41s-1.27,.52-1.27,1.39h0c0,.87,.6,1.42,1.27,1.42s1.31-.57,1.31-1.4Z"/><path class="b" d="M151.36,11.77v-2.25h.54v2.12c0,.67,.36,1.09,1,1.09s1.09-.46,1.09-1.13v-2.07h.53v3.62h-.53v-.63c-.25,.39-.62,.71-1.24,.71-.88,0-1.39-.59-1.39-1.45Z"/><path class="b" d="M155.61,8.03h.54v5.11h-.54v-5.11Z"/><path class="b" d="M157.42,12.18v-2.18h-.5v-.48h.5v-1.09h.54v1.09h1.15v.48h-1.15v2.12c0,.44,.25,.6,.61,.6,.18,0,.34-.04,.52-.13v.46c-.19,.1-.39,.15-.65,.15-.58,0-1.02-.29-1.02-1.02Z"/><path class="b" d="M159.59,12.68l.27-.39c.39,.29,.83,.46,1.25,.46s.75-.22,.75-.58h0c0-.38-.43-.52-.9-.65-.57-.16-1.2-.36-1.2-1.02h0c0-.64,.52-1.05,1.23-1.05,.44,0,.93,.15,1.3,.4l-.25,.41c-.34-.22-.72-.35-1.07-.35-.43,0-.7,.22-.7,.53h0c0,.36,.45,.49,.93,.64,.56,.17,1.16,.39,1.16,1.04h0c0,.7-.57,1.1-1.29,1.1-.52,0-1.09-.2-1.5-.53Z"/><path class="b" d="M163.15,12.41h.64v.74h-.64v-.74Z"/></g><g><path class="b" d="M.48,16.24H4v.51H1.03v1.75H3.68v.5H1.03v2.14H.48v-4.9Z"/><path class="b" d="M4.66,19.35h0c0-1.04,.8-1.91,1.89-1.91s1.88,.85,1.88,1.88h0c0,1.04-.81,1.91-1.9,1.91s-1.88-.85-1.88-1.88Zm3.22,0h0c0-.79-.58-1.43-1.34-1.43s-1.32,.64-1.32,1.4h0c0,.79,.57,1.42,1.34,1.42s1.33-.63,1.33-1.39Z"/><path class="b" d="M9.4,17.52h.54v.95c.27-.6,.79-1.04,1.48-1.01v.58h-.04c-.79,0-1.44,.57-1.44,1.66v1.44h-.54v-3.62Z"/><path class="b" d="M14.43,16.24h3.54v.5h-2.99v1.67h2.68v.5h-2.68v1.72h3.03v.5h-3.58v-4.9Z"/><path class="b" d="M19.04,19.09v-2.85h.55v2.82c0,1.06,.57,1.65,1.5,1.65s1.48-.55,1.48-1.62v-2.85h.55v2.81c0,1.43-.82,2.17-2.05,2.17s-2.04-.74-2.04-2.13Z"/><path class="b" d="M26.53,16.24h.55v2.18h2.83v-2.18h.55v4.9h-.55v-2.21h-2.83v2.21h-.55v-4.9Z"/><path class="b" d="M31.53,19.34h0c0-1.06,.74-1.9,1.74-1.9,1.07,0,1.69,.85,1.69,1.91,0,.07,0,.11,0,.17h-2.87c.08,.79,.63,1.23,1.27,1.23,.5,0,.85-.2,1.14-.51l.34,.3c-.36,.41-.81,.68-1.49,.68-.99,0-1.81-.76-1.81-1.88Zm2.88-.21c-.06-.66-.43-1.23-1.16-1.23-.63,0-1.11,.53-1.18,1.23h2.33Z"/><path class="b" d="M35.63,20.09h0c0-.78,.63-1.18,1.55-1.18,.46,0,.79,.06,1.11,.15v-.13c0-.65-.4-.99-1.08-.99-.43,0-.76,.11-1.1,.27l-.16-.44c.4-.18,.79-.3,1.32-.3s.9,.13,1.17,.4c.25,.25,.37,.59,.37,1.06v2.21h-.52v-.55c-.25,.33-.67,.62-1.31,.62-.67,0-1.35-.39-1.35-1.13Zm2.67-.28v-.35c-.27-.08-.62-.15-1.06-.15-.68,0-1.06,.29-1.06,.75h0c0,.47,.42,.74,.91,.74,.67,0,1.21-.41,1.21-.98Z"/><path class="b" d="M40,16.03h.54v5.11h-.54v-5.11Z"/><path class="b" d="M41.99,20.18v-2.18h-.5v-.48h.5v-1.09h.54v1.09h1.15v.48h-1.15v2.12c0,.44,.25,.6,.61,.6,.18,0,.34-.04,.53-.13v.46c-.19,.1-.39,.15-.65,.15-.58,0-1.02-.29-1.02-1.02Z"/><path class="b" d="M44.62,16.03h.54v2.12c.24-.39,.62-.71,1.24-.71,.88,0,1.39,.59,1.39,1.45v2.25h-.54v-2.12c0-.67-.36-1.09-1-1.09s-1.09,.46-1.09,1.13v2.07h-.54v-5.11Z"/><path class="b" d="M48.71,19.35h0c0-1.04,.8-1.91,1.86-1.91,.69,0,1.11,.29,1.45,.64l-.36,.38c-.29-.3-.61-.55-1.1-.55-.74,0-1.3,.62-1.3,1.4h0c0,.8,.57,1.42,1.33,1.42,.46,0,.82-.23,1.11-.54l.34,.32c-.36,.41-.8,.7-1.48,.7-1.06,0-1.86-.86-1.86-1.88Z"/><path class="b" d="M52.66,20.09h0c0-.78,.63-1.18,1.55-1.18,.46,0,.79,.06,1.11,.15v-.13c0-.65-.4-.99-1.08-.99-.43,0-.76,.11-1.1,.27l-.16-.44c.4-.18,.79-.3,1.32-.3s.9,.13,1.17,.4c.25,.25,.37,.59,.37,1.06v2.21h-.52v-.55c-.25,.33-.67,.62-1.31,.62-.67,0-1.35-.39-1.35-1.13Zm2.67-.28v-.35c-.27-.08-.62-.15-1.06-.15-.68,0-1.06,.29-1.06,.75h0c0,.47,.42,.74,.91,.74,.67,0,1.21-.41,1.21-.98Z"/><path class="b" d="M56.99,17.52h.54v.95c.27-.6,.79-1.04,1.48-1.01v.58h-.04c-.79,0-1.44,.57-1.44,1.66v1.44h-.54v-3.62Z"/><path class="b" d="M59.44,19.34h0c0-1.06,.74-1.9,1.74-1.9,1.07,0,1.69,.85,1.69,1.91,0,.07,0,.11,0,.17h-2.87c.08,.79,.63,1.23,1.28,1.23,.5,0,.85-.2,1.14-.51l.34,.3c-.36,.41-.81,.68-1.49,.68-.99,0-1.81-.76-1.81-1.88Zm2.88-.21c-.06-.66-.43-1.23-1.16-1.23-.63,0-1.11,.53-1.18,1.23h2.33Z"/><path class="b" d="M66,16.24h1.83c1.11,0,1.83,.59,1.83,1.55h0c0,1.07-.88,1.62-1.93,1.62h-1.19v1.73h-.55v-4.9Zm1.76,2.67c.81,0,1.34-.43,1.34-1.08h0c0-.71-.53-1.08-1.32-1.08h-1.24v2.16h1.21Z"/><path class="b" d="M70.59,17.52h.54v.95c.27-.6,.79-1.04,1.48-1.01v.58h-.04c-.79,0-1.44,.57-1.44,1.66v1.44h-.54v-3.62Z"/><path class="b" d="M73.04,19.35h0c0-1.04,.8-1.91,1.89-1.91s1.88,.85,1.88,1.88h0c0,1.04-.81,1.91-1.9,1.91s-1.88-.85-1.88-1.88Zm3.22,0h0c0-.79-.58-1.43-1.34-1.43s-1.32,.64-1.32,1.4h0c0,.79,.57,1.42,1.34,1.42s1.33-.63,1.33-1.39Z"/><path class="b" d="M77.99,18h-.5v-.47h.5v-.31c0-.41,.11-.73,.31-.93,.18-.18,.45-.28,.78-.28,.25,0,.42,.03,.6,.09v.47c-.2-.06-.34-.09-.53-.09-.42,0-.63,.25-.63,.77v.29h1.15v.46h-1.14v3.14h-.54v-3.14Z"/><path class="b" d="M80.07,19.34h0c0-1.06,.74-1.9,1.74-1.9,1.07,0,1.69,.85,1.69,1.91,0,.07,0,.11,0,.17h-2.87c.08,.79,.63,1.23,1.28,1.23,.5,0,.85-.2,1.14-.51l.34,.3c-.36,.41-.81,.68-1.49,.68-.99,0-1.81-.76-1.81-1.88Zm2.88-.21c-.06-.66-.43-1.23-1.16-1.23-.63,0-1.11,.53-1.18,1.23h2.33Z"/><path class="b" d="M84.14,20.68l.27-.39c.39,.29,.83,.46,1.25,.46s.75-.22,.75-.58h0c0-.38-.43-.52-.9-.65-.57-.16-1.2-.36-1.2-1.02h0c0-.64,.52-1.05,1.23-1.05,.44,0,.93,.15,1.3,.4l-.25,.41c-.34-.22-.72-.35-1.07-.35-.43,0-.7,.22-.7,.53h0c0,.36,.45,.49,.93,.64,.56,.17,1.16,.39,1.16,1.04h0c0,.7-.57,1.1-1.29,1.1-.52,0-1.09-.2-1.5-.53Z"/><path class="b" d="M87.56,20.68l.27-.39c.39,.29,.83,.46,1.25,.46s.75-.22,.75-.58h0c0-.38-.43-.52-.9-.65-.57-.16-1.2-.36-1.2-1.02h0c0-.64,.52-1.05,1.23-1.05,.44,0,.93,.15,1.3,.4l-.25,.41c-.34-.22-.72-.35-1.07-.35-.43,0-.7,.22-.7,.53h0c0,.36,.45,.49,.93,.64,.56,.17,1.16,.39,1.16,1.04h0c0,.7-.57,1.1-1.29,1.1-.52,0-1.09-.2-1.5-.53Z"/><path class="b" d="M91.36,16.13h.62v.6h-.62v-.6Zm.04,1.39h.54v3.62h-.54v-3.62Z"/><path class="b" d="M92.97,19.35h0c0-1.04,.8-1.91,1.89-1.91s1.88,.85,1.88,1.88h0c0,1.04-.81,1.91-1.9,1.91s-1.88-.85-1.88-1.88Zm3.22,0h0c0-.79-.58-1.43-1.34-1.43s-1.32,.64-1.32,1.4h0c0,.79,.57,1.42,1.34,1.42s1.33-.63,1.33-1.39Z"/><path class="b" d="M97.71,17.52h.54v.63c.24-.39,.62-.71,1.24-.71,.88,0,1.39,.59,1.39,1.45v2.25h-.54v-2.12c0-.67-.36-1.09-1-1.09s-1.09,.46-1.09,1.13v2.07h-.54v-3.62Z"/><path class="b" d="M101.75,20.09h0c0-.78,.63-1.18,1.55-1.18,.46,0,.79,.06,1.11,.15v-.13c0-.65-.4-.99-1.08-.99-.43,0-.76,.11-1.1,.27l-.16-.44c.4-.18,.79-.3,1.32-.3s.9,.13,1.17,.4c.25,.25,.37,.59,.37,1.06v2.21h-.52v-.55c-.25,.33-.67,.62-1.31,.62-.67,0-1.35-.39-1.35-1.13Zm2.67-.28v-.35c-.27-.08-.62-.15-1.06-.15-.68,0-1.06,.29-1.06,.75h0c0,.47,.42,.74,.91,.74,.67,0,1.21-.41,1.21-.98Z"/><path class="b" d="M106.13,16.03h.54v5.11h-.54v-5.11Z"/><path class="b" d="M107.62,20.68l.27-.39c.39,.29,.83,.46,1.25,.46s.75-.22,.75-.58h0c0-.38-.43-.52-.9-.65-.57-.16-1.2-.36-1.2-1.02h0c0-.64,.52-1.05,1.23-1.05,.44,0,.93,.15,1.3,.4l-.25,.41c-.34-.22-.72-.35-1.07-.35-.43,0-.7,.22-.7,.53h0c0,.36,.45,.49,.93,.64,.56,.17,1.16,.39,1.16,1.04h0c0,.7-.57,1.1-1.29,1.1-.52,0-1.09-.2-1.5-.53Z"/><path class="b" d="M113.28,19.35h0c0-1.04,.8-1.91,1.89-1.91s1.88,.85,1.88,1.88h0c0,1.04-.81,1.91-1.9,1.91s-1.88-.85-1.88-1.88Zm3.22,0h0c0-.79-.58-1.43-1.34-1.43s-1.32,.64-1.32,1.4h0c0,.79,.57,1.42,1.34,1.42s1.33-.63,1.33-1.39Z"/><path class="b" d="M118.02,17.52h.54v.63c.24-.39,.62-.71,1.24-.71,.88,0,1.39,.59,1.39,1.45v2.25h-.54v-2.12c0-.67-.36-1.09-1-1.09s-1.09,.46-1.09,1.13v2.07h-.54v-3.62Z"/><path class="b" d="M122.39,16.03h.54v5.11h-.54v-5.11Z"/><path class="b" d="M126.89,17.52h.57l-1.52,3.74c-.31,.75-.66,1.02-1.21,1.02-.3,0-.53-.06-.77-.18l.18-.43c.17,.09,.34,.13,.57,.13,.32,0,.53-.17,.74-.68l-1.65-3.61h.59l1.32,3.02,1.16-3.02Z"/><path class="b" d="M127.66,20.41h.64v.74h-.64v-.74Z"/></g><g><path class="b" d="M2.29,24.21h.52l2.23,4.94h-.6l-.57-1.3H1.2l-.58,1.3H.06l2.23-4.94Zm1.37,3.14l-1.11-2.49-1.12,2.49H3.66Z"/><path class="b" d="M5.7,27.34h0c0-1.2,.86-1.9,1.73-1.9,.67,0,1.11,.36,1.39,.77v-2.18h.54v5.11h-.54v-.73c-.29,.43-.72,.81-1.39,.81-.87,0-1.73-.69-1.73-1.88Zm3.14,0h0c0-.85-.64-1.41-1.31-1.41s-1.27,.52-1.27,1.39h0c0,.87,.6,1.42,1.27,1.42s1.31-.57,1.31-1.4Z"/><path class="b" d="M10.21,25.52h.6l1.22,3,1.23-3h.58l-1.58,3.65h-.48l-1.57-3.65Z"/><path class="b" d="M14.45,27.34h0c0-1.06,.74-1.9,1.74-1.9,1.07,0,1.69,.85,1.69,1.91,0,.07,0,.11,0,.17h-2.87c.08,.79,.63,1.23,1.27,1.23,.5,0,.85-.2,1.14-.51l.34,.3c-.36,.41-.81,.68-1.49,.68-.99,0-1.81-.76-1.81-1.88Zm2.88-.21c-.06-.66-.43-1.23-1.16-1.23-.63,0-1.11,.53-1.18,1.23h2.33Z"/><path class="b" d="M18.82,25.52h.54v.95c.27-.6,.79-1.04,1.48-1.01v.58h-.04c-.79,0-1.44,.57-1.44,1.66v1.44h-.54v-3.62Z"/><path class="b" d="M21.35,28.68l.27-.39c.39,.29,.83,.46,1.25,.46s.75-.22,.75-.58h0c0-.38-.43-.52-.9-.65-.57-.16-1.2-.36-1.2-1.02h0c0-.64,.52-1.05,1.23-1.05,.44,0,.93,.15,1.3,.4l-.25,.41c-.34-.22-.72-.35-1.07-.35-.43,0-.7,.22-.7,.53h0c0,.36,.45,.49,.93,.64,.56,.17,1.16,.39,1.16,1.04h0c0,.7-.57,1.1-1.29,1.1-.52,0-1.09-.2-1.5-.53Z"/><path class="b" d="M24.91,27.34h0c0-1.06,.74-1.9,1.74-1.9,1.07,0,1.69,.85,1.69,1.91,0,.07,0,.11,0,.17h-2.87c.08,.79,.63,1.23,1.27,1.23,.5,0,.85-.2,1.14-.51l.34,.3c-.36,.41-.81,.68-1.49,.68-.99,0-1.81-.76-1.81-1.88Zm2.88-.21c-.06-.66-.43-1.23-1.16-1.23-.63,0-1.11,.53-1.18,1.23h2.33Z"/><path class="b" d="M31.16,27.34h0c0-1.06,.74-1.9,1.74-1.9,1.07,0,1.69,.85,1.69,1.91,0,.07,0,.11,0,.17h-2.87c.08,.79,.63,1.23,1.27,1.23,.5,0,.85-.2,1.14-.51l.34,.3c-.36,.41-.81,.68-1.49,.68-.99,0-1.81-.76-1.81-1.88Zm2.88-.21c-.06-.66-.43-1.23-1.16-1.23-.63,0-1.11,.53-1.18,1.23h2.33Z"/><path class="b" d="M35.17,25.52h.6l1.22,3,1.23-3h.58l-1.58,3.65h-.48l-1.57-3.65Z"/><path class="b" d="M39.41,27.34h0c0-1.06,.74-1.9,1.74-1.9,1.07,0,1.69,.85,1.69,1.91,0,.07,0,.11,0,.17h-2.87c.08,.79,.63,1.23,1.27,1.23,.5,0,.85-.2,1.14-.51l.34,.3c-.36,.41-.81,.68-1.49,.68-.99,0-1.81-.76-1.81-1.88Zm2.88-.21c-.06-.66-.43-1.23-1.16-1.23-.63,0-1.11,.53-1.18,1.23h2.33Z"/><path class="b" d="M43.78,25.52h.54v.63c.24-.39,.62-.71,1.24-.71,.88,0,1.39,.59,1.39,1.45v2.25h-.54v-2.12c0-.67-.36-1.09-1-1.09s-1.09,.46-1.09,1.13v2.07h-.54v-3.62Z"/><path class="b" d="M48.28,28.18v-2.18h-.5v-.48h.5v-1.09h.54v1.09h1.15v.48h-1.15v2.12c0,.44,.25,.6,.61,.6,.18,0,.34-.04,.53-.13v.46c-.19,.1-.39,.15-.65,.15-.58,0-1.02-.29-1.02-1.02Z"/><path class="b" d="M50.62,28.68l.27-.39c.39,.29,.83,.46,1.25,.46s.75-.22,.75-.58h0c0-.38-.43-.52-.9-.65-.57-.16-1.2-.36-1.2-1.02h0c0-.64,.52-1.05,1.23-1.05,.44,0,.93,.15,1.3,.4l-.25,.41c-.34-.22-.72-.35-1.07-.35-.43,0-.7,.22-.7,.53h0c0,.36,.45,.49,.93,.64,.56,.17,1.16,.39,1.16,1.04h0c0,.7-.57,1.1-1.29,1.1-.52,0-1.09-.2-1.5-.53Z"/><path class="b" d="M56.2,28.68l.27-.39c.39,.29,.83,.46,1.25,.46s.75-.22,.75-.58h0c0-.38-.43-.52-.9-.65-.57-.16-1.2-.36-1.2-1.02h0c0-.64,.52-1.05,1.23-1.05,.44,0,.93,.15,1.3,.4l-.25,.41c-.34-.22-.72-.35-1.07-.35-.43,0-.7,.22-.7,.53h0c0,.36,.45,.49,.93,.64,.56,.17,1.16,.39,1.16,1.04h0c0,.7-.57,1.1-1.29,1.1-.52,0-1.09-.2-1.5-.53Z"/><path class="b" d="M59.99,24.03h.54v2.12c.24-.39,.62-.71,1.24-.71,.88,0,1.39,.59,1.39,1.45v2.25h-.54v-2.12c0-.67-.36-1.09-1-1.09s-1.09,.46-1.09,1.13v2.07h-.54v-5.11Z"/><path class="b" d="M64.08,27.35h0c0-1.04,.8-1.91,1.89-1.91s1.88,.85,1.88,1.88h0c0,1.04-.81,1.91-1.9,1.91s-1.88-.85-1.88-1.88Zm3.22,0h0c0-.79-.58-1.43-1.34-1.43s-1.32,.64-1.32,1.4h0c0,.79,.57,1.42,1.34,1.42s1.33-.63,1.33-1.39Z"/><path class="b" d="M68.77,27.77v-2.25h.54v2.12c0,.67,.36,1.09,1,1.09s1.09-.46,1.09-1.13v-2.07h.53v3.62h-.53v-.63c-.25,.39-.62,.71-1.24,.71-.88,0-1.39-.59-1.39-1.45Z"/><path class="b" d="M73.18,24.03h.54v5.11h-.54v-5.11Z"/><path class="b" d="M74.77,27.34h0c0-1.2,.86-1.9,1.73-1.9,.67,0,1.11,.36,1.39,.77v-2.18h.54v5.11h-.54v-.73c-.29,.43-.72,.81-1.39,.81-.87,0-1.73-.69-1.73-1.88Zm3.14,0h0c0-.85-.64-1.41-1.31-1.41s-1.27,.52-1.27,1.39h0c0,.87,.6,1.42,1.27,1.42s1.31-.57,1.31-1.4Z"/><path class="b" d="M82.26,28.45v.69h-.54v-5.11h.54v2.22c.29-.43,.72-.81,1.39-.81,.87,0,1.73,.69,1.73,1.88h0c0,1.2-.85,1.9-1.73,1.9-.67,0-1.11-.36-1.39-.77Zm2.56-1.11h0c0-.87-.59-1.42-1.28-1.42s-1.31,.57-1.31,1.39h0c0,.85,.64,1.42,1.31,1.42s1.28-.52,1.28-1.39Z"/><path class="b" d="M86.15,27.34h0c0-1.06,.74-1.9,1.74-1.9,1.07,0,1.69,.85,1.69,1.91,0,.07,0,.11,0,.17h-2.87c.08,.79,.63,1.23,1.27,1.23,.5,0,.85-.2,1.14-.51l.34,.3c-.36,.41-.8,.68-1.49,.68-1,0-1.81-.76-1.81-1.88Zm2.88-.21c-.06-.66-.43-1.23-1.16-1.23-.63,0-1.11,.53-1.18,1.23h2.33Z"/><path class="b" d="M92.62,25.52h.54v.95c.27-.6,.79-1.04,1.48-1.01v.58h-.04c-.79,0-1.44,.57-1.44,1.66v1.44h-.54v-3.62Z"/><path class="b" d="M95.23,27.34h0c0-1.06,.74-1.9,1.74-1.9,1.07,0,1.69,.85,1.69,1.91,0,.07,0,.11,0,.17h-2.87c.08,.79,.63,1.23,1.28,1.23,.5,0,.85-.2,1.14-.51l.34,.3c-.36,.41-.81,.68-1.49,.68-.99,0-1.81-.76-1.81-1.88Zm2.88-.21c-.06-.66-.43-1.23-1.16-1.23-.63,0-1.11,.53-1.18,1.23h2.33Z"/><path class="b" d="M99.59,25.52h.54v.73c.29-.43,.72-.81,1.39-.81,.87,0,1.73,.69,1.73,1.88h0c0,1.2-.85,1.9-1.73,1.9-.67,0-1.11-.36-1.39-.77v1.81h-.54v-4.74Zm3.1,1.82h0c0-.87-.59-1.42-1.27-1.42s-1.31,.57-1.31,1.39h0c0,.85,.64,1.42,1.31,1.42s1.27-.52,1.27-1.39Z"/><path class="b" d="M104.02,27.35h0c0-1.04,.8-1.91,1.89-1.91s1.88,.85,1.88,1.88h0c0,1.04-.81,1.91-1.9,1.91s-1.88-.85-1.88-1.88Zm3.22,0h0c0-.79-.58-1.43-1.34-1.43s-1.32,.64-1.32,1.4h0c0,.79,.57,1.42,1.34,1.42s1.33-.63,1.33-1.39Z"/><path class="b" d="M108.76,25.52h.54v.95c.27-.6,.79-1.04,1.48-1.01v.58h-.04c-.79,0-1.44,.57-1.44,1.66v1.44h-.54v-3.62Z"/><path class="b" d="M111.79,28.18v-2.18h-.5v-.48h.5v-1.09h.54v1.09h1.15v.48h-1.15v2.12c0,.44,.25,.6,.61,.6,.18,0,.34-.04,.53-.13v.46c-.19,.1-.39,.15-.65,.15-.58,0-1.02-.29-1.02-1.02Z"/><path class="b" d="M114.2,27.34h0c0-1.06,.74-1.9,1.74-1.9,1.07,0,1.69,.85,1.69,1.91,0,.07,0,.11,0,.17h-2.87c.08,.79,.63,1.23,1.28,1.23,.5,0,.85-.2,1.14-.51l.34,.3c-.36,.41-.81,.68-1.49,.68-.99,0-1.81-.76-1.81-1.88Zm2.88-.21c-.06-.66-.43-1.23-1.16-1.23-.63,0-1.11,.53-1.18,1.23h2.33Z"/><path class="b" d="M118.36,27.34h0c0-1.2,.86-1.9,1.73-1.9,.67,0,1.11,.36,1.39,.77v-2.18h.54v5.11h-.54v-.73c-.29,.43-.72,.81-1.39,.81-.87,0-1.73-.69-1.73-1.88Zm3.14,0h0c0-.85-.64-1.41-1.31-1.41s-1.28,.52-1.28,1.39h0c0,.87,.6,1.42,1.28,1.42s1.31-.57,1.31-1.4Z"/><path class="b" d="M123.16,28.41h.64v.74h-.64v-.74Z"/></g><g><path class="b" d="M0,36.08l.4-.34c.3,.46,.61,.7,1.12,.7,.55,0,.96-.4,.96-1.18v-3.28h.56v3.28c0,.57-.17,1.01-.45,1.29-.27,.27-.64,.41-1.08,.41-.74,0-1.2-.36-1.51-.87Z"/><path class="b" d="M4.2,35.5v-2.25h.54v2.12c0,.67,.36,1.09,1,1.09s1.09-.46,1.09-1.13v-2.07h.53v3.62h-.53v-.63c-.25,.39-.62,.71-1.24,.71-.88,0-1.39-.59-1.39-1.45Z"/><path class="b" d="M8.57,33.26h.54v.63c.24-.39,.62-.71,1.24-.71,.88,0,1.39,.59,1.39,1.45v2.25h-.54v-2.12c0-.67-.36-1.09-1-1.09s-1.09,.46-1.09,1.13v2.07h-.54v-3.62Z"/><path class="b" d="M12.66,35.08h0c0-1.06,.74-1.9,1.74-1.9,1.07,0,1.69,.85,1.69,1.91,0,.07,0,.11,0,.17h-2.87c.08,.79,.63,1.23,1.27,1.23,.5,0,.85-.2,1.14-.51l.34,.3c-.36,.41-.81,.68-1.49,.68-.99,0-1.81-.76-1.81-1.88Zm2.88-.21c-.06-.66-.43-1.23-1.16-1.23-.63,0-1.11,.53-1.18,1.23h2.33Z"/><path class="b" d="M18.86,36.45l1.78-1.57c.75-.67,1.02-1.05,1.02-1.54,0-.57-.46-.94-.99-.94-.56,0-.92,.29-1.32,.84l-.41-.29c.44-.66,.9-1.04,1.77-1.04s1.52,.59,1.52,1.39h0c0,.73-.38,1.17-1.24,1.92l-1.31,1.16h2.6v.5h-3.42v-.43Z"/><path class="b" d="M23.15,34.44h0c0-1.39,.82-2.55,2.08-2.55s2.06,1.15,2.06,2.52h0c0,1.39-.81,2.55-2.07,2.55s-2.07-1.15-2.07-2.52Zm3.56,0h0c0-1.08-.59-2.04-1.5-2.04s-1.49,.94-1.49,2.02h0c0,1.09,.59,2.05,1.51,2.05s1.48-.95,1.48-2.02Z"/><path class="b" d="M27.99,36.45l1.78-1.57c.75-.67,1.02-1.05,1.02-1.54,0-.57-.46-.94-.99-.94-.56,0-.92,.29-1.32,.84l-.41-.29c.44-.66,.9-1.04,1.77-1.04s1.52,.59,1.52,1.39h0c0,.73-.38,1.17-1.24,1.92l-1.31,1.16h2.6v.5h-3.42v-.43Z"/><path class="b" d="M32.19,36.45l1.78-1.57c.75-.67,1.02-1.05,1.02-1.54,0-.57-.46-.94-.99-.94-.56,0-.92,.29-1.32,.84l-.41-.29c.44-.66,.9-1.04,1.77-1.04s1.52,.59,1.52,1.39h0c0,.73-.38,1.17-1.24,1.92l-1.31,1.16h2.6v.5h-3.42v-.43Z"/><path class="b" d="M38.88,31.97h.55v4.9h-.55v-4.9Z"/><path class="b" d="M40.87,31.97h.55v2.18h2.83v-2.18h.55v4.9h-.55v-2.21h-2.83v2.21h-.55v-4.9Z"/><path class="b" d="M50.66,37.02l-.65-.58c-.41,.32-.94,.52-1.54,.52-1.49,0-2.49-1.17-2.49-2.52h0c0-1.37,1.02-2.55,2.51-2.55s2.49,1.17,2.49,2.52h0c0,.62-.22,1.21-.58,1.65l.64,.55-.38,.41Zm-1.04-.94l-.92-.79,.37-.41,.92,.83c.27-.35,.41-.79,.41-1.28h0c0-1.13-.81-2.04-1.93-2.04s-1.92,.9-1.92,2.01h0c0,1.13,.81,2.04,1.93,2.04,.43,0,.83-.13,1.13-.36Z"/><path class="b" d="M51.9,34.49h1.95v.57h-1.95v-.57Z"/><path class="b" d="M55,31.97h3.54v.5h-2.99v1.67h2.68v.5h-2.68v1.72h3.03v.5h-3.58v-4.9Z"/><path class="b" d="M59.69,31.97h1.83c1.11,0,1.83,.59,1.83,1.55h0c0,1.07-.88,1.62-1.93,1.62h-1.19v1.73h-.55v-4.9Zm1.77,2.67c.81,0,1.34-.43,1.34-1.08h0c0-.71-.53-1.08-1.32-1.08h-1.24v2.16h1.21Z"/><path class="b" d="M64.15,34.44h0c0-1.4,1.04-2.55,2.48-2.55,.89,0,1.42,.31,1.91,.78l-.38,.41c-.41-.39-.88-.67-1.54-.67-1.09,0-1.9,.88-1.9,2.01h0c0,1.15,.82,2.04,1.9,2.04,.67,0,1.11-.26,1.58-.71l.36,.36c-.51,.52-1.07,.86-1.96,.86-1.41,0-2.46-1.11-2.46-2.52Z"/><path class="b" d="M69.22,34.49h1.95v.57h-1.95v-.57Z"/><path class="b" d="M72.06,34.44h0c0-1.39,.82-2.55,2.08-2.55s2.06,1.15,2.06,2.52h0c0,1.39-.81,2.55-2.07,2.55s-2.07-1.15-2.07-2.52Zm3.56,0h0c0-1.08-.59-2.04-1.5-2.04s-1.49,.94-1.49,2.02h0c0,1.09,.59,2.05,1.51,2.05s1.48-.95,1.48-2.02Z"/><path class="b" d="M77.06,34.44h0c0-1.39,.82-2.55,2.08-2.55s2.06,1.15,2.06,2.52h0c0,1.39-.81,2.55-2.07,2.55s-2.07-1.15-2.07-2.52Zm3.56,0h0c0-1.08-.59-2.04-1.5-2.04s-1.49,.94-1.49,2.02h0c0,1.09,.59,2.05,1.51,2.05s1.48-.95,1.48-2.02Z"/><path class="b" d="M82,36.18l.36-.4c.43,.41,.9,.67,1.39,.67,.7,0,1.18-.47,1.18-1.09h0c0-.62-.5-1.04-1.22-1.04-.41,0-.74,.13-1.03,.28l-.37-.25,.14-2.39h2.82v.51h-2.34l-.11,1.57c.29-.13,.56-.22,.97-.22,.95,0,1.69,.56,1.69,1.5h0c0,.97-.73,1.62-1.75,1.62-.7,0-1.31-.34-1.75-.78Z"/><path class="b" d="M86.19,36.45l1.78-1.57c.75-.67,1.02-1.05,1.02-1.54,0-.57-.46-.94-.99-.94-.56,0-.92,.29-1.32,.84l-.41-.29c.44-.66,.9-1.04,1.77-1.04s1.52,.59,1.52,1.39h0c0,.73-.38,1.17-1.24,1.92l-1.31,1.16h2.6v.5h-3.42v-.43Z"/></g></svg>