<?xml version="1.0" encoding="utf-8"?>
<!-- Generator: Adobe Illustrator 26.3.1, SVG Export Plug-In . SVG Version: 6.00 Build 0)  -->
<svg version="1.1" id="Layer_1" xmlns="http://www.w3.org/2000/svg" xmlns:xlink="http://www.w3.org/1999/xlink" x="0px" y="0px"
	 viewBox="0 0 300 250" style="enable-background:new 0 0 300 250;" xml:space="preserve">
<style type="text/css">
	.st0{fill:#FFFFFF;}
	.st1{fill:#35C4AF;}
	.st2{fill:none;}
</style>
<g>
	<path class="st0" d="M24.3759766,75.1982422h5.8325195c5.2807617,0,8.9291992,3.625,8.9291992,8.3525391v0.0488281
		C39.1376953,88.328125,35.4892578,92,30.2084961,92h-5.8325195V75.1982422z M26.2724609,76.9511719v13.296875h3.9360352
		c4.2485352,0,6.9609375-2.8808594,6.9609375-6.6005859v-0.0478516c0-3.7207031-2.7124023-6.6484375-6.9609375-6.6484375H26.2724609
		z"/>
	<path class="st0" d="M43.3125,75.1982422h1.8959961V92H43.3125V75.1982422z"/>
	<path class="st0" d="M50.1274414,75.1982422h12.0732422v1.7529297H52.0239258v6h9.0966797v1.7285156h-9.0966797V92h-1.8964844
		V75.1982422z"/>
	<path class="st0" d="M65.8710938,75.1982422h12.0732422v1.7529297H67.7675781v6h9.0966797v1.7285156h-9.0966797V92h-1.8964844
		V75.1982422z"/>
	<path class="st0" d="M81.6152344,75.1982422h12.1455078v1.7285156H83.5117188v5.7363281h9.1689453v1.7285156h-9.1689453v5.8798828
		h10.3686523V92H81.6152344V75.1982422z"/>
	<path class="st0" d="M97.6953125,75.1982422h7.2246094c2.0644531,0,3.7207031,0.6240234,4.7768555,1.6806641
		c0.815918,0.8154297,1.2958984,1.9921875,1.2958984,3.3125v0.0478516c0,2.7841797-1.9199219,4.4160156-4.5605469,4.8964844
		L111.5927734,92h-2.328125l-4.8725586-6.5283203h-4.800293V92h-1.8964844V75.1982422z M104.7519531,83.7675781
		c2.5205078,0,4.3208008-1.296875,4.3208008-3.4570312v-0.0478516c0-2.0634766-1.5844727-3.3115234-4.2963867-3.3115234h-5.1845703
		v6.8164062H104.7519531z"/>
	<path class="st0" d="M115.046875,75.1982422h12.1455078v1.7285156h-10.2490234v5.7363281h9.1689453v1.7285156h-9.1689453v5.8798828
		h10.3686523V92H115.046875V75.1982422z"/>
	<path class="st0" d="M131.1269531,75.1982422h1.7763672l10.5849609,13.4658203V75.1982422h1.8481445V92h-1.512207
		l-10.8486328-13.7773438V92h-1.8486328V75.1982422z"/>
	<path class="st0" d="M154.4550781,76.9511719h-5.6640625v-1.7529297h13.2246094v1.7529297h-5.6640625V92h-1.8964844V76.9511719z"/>
</g>
<g>
	<path class="st0" d="M39.6894531,116.5039062l-2.2319336-1.9921875c-1.4165039,1.1044922-3.2163086,1.7763672-5.2807617,1.7763672
		c-5.1123047,0-8.5444336-4.0087891-8.5444336-8.640625v-0.0478516c0-4.6328125,3.4799805-8.6894531,8.5927734-8.6894531
		c5.1123047,0,8.5444336,4.0087891,8.5444336,8.640625v0.0488281c0,2.0878906-0.7441406,4.0800781-1.9921875,5.6162109
		l2.2084961,1.8720703L39.6894531,116.5039062z M36.1132812,113.2880859l-3.1445312-2.6884766l1.2724609-1.4160156
		l3.144043,2.8564453c0.9121094-1.2001953,1.4160156-2.7128906,1.4160156-4.3925781v-0.0478516
		c0-3.8164062-2.7841797-6.9365234-6.6245117-6.9365234s-6.5766602,3.0722656-6.5766602,6.8876953v0.0488281
		c0,3.8164062,2.784668,6.9365234,6.625,6.9365234C33.7128906,114.5361328,35.0571289,114.0800781,36.1132812,113.2880859z"/>
	<path class="st0" d="M44.512207,108.9677734v-9.7695312h1.8959961v9.6494141c0,3.6240234,1.9204102,5.6640625,5.1367188,5.6640625
		c3.0961914,0,5.0644531-1.8720703,5.0644531-5.5439453v-9.7695312h1.8959961v9.625
		c0,4.8964844-2.8081055,7.4404297-7.0087891,7.4404297C47.3442383,116.2636719,44.512207,113.7197266,44.512207,108.9677734z"/>
	<path class="st0" d="M62.9912109,99.1982422h12.1455078v1.7285156H64.8876953v5.7363281h9.1689453v1.7285156h-9.1689453v5.8798828
		h10.3686523V116H62.9912109V99.1982422z"/>
	<path class="st0" d="M77.9672852,113.5517578l1.1762695-1.3916016c1.7519531,1.5839844,3.4321289,2.3759766,5.7602539,2.3759766
		c2.2563477,0,3.7446289-1.2001953,3.7446289-2.8564453v-0.0478516c0-1.5605469-0.840332-2.4482422-4.3686523-3.1923828
		c-3.8642578-0.8398438-5.6401367-2.0878906-5.6401367-4.8486328v-0.0478516c0-2.640625,2.328125-4.5839844,5.5205078-4.5839844
		c2.4482422,0,4.2001953,0.6953125,5.9042969,2.0634766l-1.1040039,1.4648438
		c-1.5600586-1.2724609-3.1201172-1.8242188-4.8486328-1.8242188c-2.184082,0-3.5761719,1.1992188-3.5761719,2.7119141v0.0478516
		c0,1.5839844,0.8642578,2.4726562,4.5605469,3.2646484c3.7441406,0.8154297,5.472168,2.1835938,5.472168,4.7519531v0.0478516
		c0,2.8808594-2.3999023,4.7529297-5.7363281,4.7529297C82.1679688,116.2402344,79.9833984,115.3515625,77.9672852,113.5517578z"/>
	<path class="st0" d="M98.5600586,100.9511719h-5.6645508v-1.7529297h13.2250977v1.7529297h-5.6645508V116h-1.8959961V100.9511719z"
		/>
	<path class="st0" d="M109.7436523,99.1982422h1.8959961V116h-1.8959961V99.1982422z"/>
	<path class="st0" d="M115.8149414,107.6474609v-0.0478516c0-4.6328125,3.4799805-8.6894531,8.5927734-8.6894531
		c5.1123047,0,8.5444336,4.0087891,8.5444336,8.640625v0.0488281c0,4.6318359-3.4799805,8.6884766-8.5927734,8.6884766
		C119.2470703,116.2880859,115.8149414,112.2792969,115.8149414,107.6474609z M130.9838867,107.6474609v-0.0478516
		c0-3.8164062-2.7841797-6.9365234-6.6245117-6.9365234s-6.5766602,3.0722656-6.5766602,6.8876953v0.0488281
		c0,3.8164062,2.784668,6.9365234,6.625,6.9365234S130.9838867,111.4638672,130.9838867,107.6474609z"/>
	<path class="st0" d="M136.9584961,99.1982422h1.7763672l10.5849609,13.4658203V99.1982422h1.8481445V116h-1.512207
		l-10.8491211-13.7773438V116h-1.8481445V99.1982422z"/>
	<path class="st0" d="M154.8144531,113.5517578l1.1757812-1.3916016c1.7519531,1.5839844,3.4326172,2.3759766,5.7607422,2.3759766
		c2.2568359,0,3.7451172-1.2001953,3.7451172-2.8564453v-0.0478516c0-1.5605469-0.8408203-2.4482422-4.3691406-3.1923828
		c-3.8642578-0.8398438-5.640625-2.0878906-5.640625-4.8486328v-0.0478516c0-2.640625,2.328125-4.5839844,5.5214844-4.5839844
		c2.4472656,0,4.1992188,0.6953125,5.9042969,2.0634766l-1.1044922,1.4648438
		c-1.5595703-1.2724609-3.1201172-1.8242188-4.8486328-1.8242188c-2.1835938,0-3.5761719,1.1992188-3.5761719,2.7119141v0.0478516
		c0,1.5839844,0.8642578,2.4726562,4.5605469,3.2646484c3.7441406,0.8154297,5.4726562,2.1835938,5.4726562,4.7519531v0.0478516
		c0,2.8808594-2.4003906,4.7529297-5.7363281,4.7529297C159.015625,116.2402344,156.8300781,115.3515625,154.8144531,113.5517578z"
		/>
	<path class="st0" d="M170.7265625,113.4794922h2.2080078V116h-2.2080078V113.4794922z"/>
</g>
<g>
	<path class="st1" d="M22.8642578,137.5517578l2.184082-2.6162109c1.512207,1.2480469,3.0961914,2.0400391,5.0161133,2.0400391
		c1.512207,0,2.4243164-0.5996094,2.4243164-1.5839844V135.34375c0-0.9365234-0.5756836-1.4160156-3.3842773-2.1367188
		c-3.3842773-0.8632812-5.5683594-1.7998047-5.5683594-5.1357422v-0.0478516c0-3.0488281,2.4482422-5.0644531,5.8803711-5.0644531
		c2.4482422,0,4.5366211,0.7675781,6.2407227,2.1357422l-1.9204102,2.7841797
		c-1.487793-1.0322266-2.9521484-1.65625-4.3681641-1.65625s-2.1601562,0.6484375-2.1601562,1.4638672v0.0488281
		c0,1.1035156,0.7202148,1.4638672,3.6245117,2.2080078c3.4082031,0.8876953,5.328125,2.1123047,5.328125,5.0400391v0.0478516
		c0,3.3369141-2.5439453,5.2089844-6.168457,5.2089844C27.4482422,140.2402344,24.8803711,139.3515625,22.8642578,137.5517578z"/>
	<path class="st1" d="M44.7768555,123.078125h3.4082031L55.3857422,140h-3.8642578l-1.5361328-3.7685547h-7.1049805L41.3442383,140
		h-3.7680664L44.7768555,123.078125z M48.6650391,132.9677734l-2.2324219-5.4492188l-2.2319336,5.4492188H48.6650391z"/>
	<path class="st1" d="M57.9760742,123.1982422h3.984375l4.4165039,7.1044922l4.4165039-7.1044922h3.9838867V140h-3.671875v-10.96875
		l-4.7285156,7.1767578h-0.0961914l-4.6801758-7.1044922V140h-3.6245117V123.1982422z"/>
	<path class="st1" d="M78.8076172,123.1982422H91.480957v3.2890625h-9.0009766v3.4082031h7.9208984v3.2880859h-7.9208984v3.5283203
		h9.1206055V140H78.8076172V123.1982422z"/>
	<path class="st1" d="M107.3442383,123.078125h3.4082031L117.953125,140h-3.8642578l-1.5361328-3.7685547h-7.1049805
		L103.9116211,140h-3.7680664L107.3442383,123.078125z M111.2324219,132.9677734L109,127.5185547l-2.2319336,5.4492188H111.2324219z
		"/>
	<path class="st1" d="M120.543457,123.1982422h3.4082031l7.8730469,10.3447266v-10.3447266h3.6479492V140h-3.144043
		l-8.1367188-10.6806641V140h-3.6484375V123.1982422z"/>
	<path class="st1" d="M138.3515625,137.5517578l2.184082-2.6162109c1.512207,1.2480469,3.0961914,2.0400391,5.0161133,2.0400391
		c1.512207,0,2.4243164-0.5996094,2.4243164-1.5839844V135.34375c0-0.9365234-0.5756836-1.4160156-3.3842773-2.1367188
		c-3.3842773-0.8632812-5.5683594-1.7998047-5.5683594-5.1357422v-0.0478516c0-3.0488281,2.4482422-5.0644531,5.8803711-5.0644531
		c2.4482422,0,4.5366211,0.7675781,6.2407227,2.1357422l-1.9204102,2.7841797
		c-1.487793-1.0322266-2.9521484-1.65625-4.3681641-1.65625s-2.1601562,0.6484375-2.1601562,1.4638672v0.0488281
		c0,1.1035156,0.7202148,1.4638672,3.6245117,2.2080078c3.4082031,0.8876953,5.328125,2.1123047,5.328125,5.0400391v0.0478516
		c0,3.3369141-2.5439453,5.2089844-6.168457,5.2089844C142.9355469,140.2402344,140.3676758,139.3515625,138.3515625,137.5517578z"
		/>
	<path class="st1" d="M152.9912109,123.1982422h3.9599609l3.4804688,11.3769531l3.7685547-11.4248047h3.1679688
		l3.7685547,11.4248047l3.4804688-11.3769531h3.8642578l-5.7373047,16.921875h-3.2158203l-3.7919922-10.9931641
		l-3.7929688,10.9931641h-3.2158203L152.9912109,123.1982422z"/>
	<path class="st1" d="M181.2148438,123.1982422h12.6738281v3.2890625h-9.0019531v3.4082031h7.921875v3.2880859h-7.921875v3.5283203
		h9.1210938V140h-12.7929688V123.1982422z"/>
	<path class="st1" d="M197.2949219,123.1982422h7.6806641c2.1357422,0,3.7919922,0.6005859,4.8964844,1.7041016
		c0.9365234,0.9365234,1.4404297,2.2568359,1.4404297,3.8408203v0.0478516c0,2.7119141-1.4648438,4.4160156-3.6005859,5.2080078
		L211.8164062,140h-4.3203125l-3.6005859-5.3769531h-2.9042969V140h-3.6962891V123.1982422z M204.7363281,131.359375
		c1.7988281,0,2.8320312-0.9599609,2.8320312-2.3759766v-0.0488281c0-1.5839844-1.1044922-2.3994141-2.9042969-2.3994141h-3.6728516
		v4.8242188H204.7363281z"/>
	<path class="st1" d="M214.1191406,136.1601562h3.8886719V140h-3.8886719V136.1601562z"/>
</g>
<g>
	<path class="st0" d="M24.1660156,49.2490234h0.8691406v7.7011719h-0.8691406V49.2490234z"/>
	<path class="st0" d="M27.2900391,49.2490234h0.8139648l4.8515625,6.171875v-6.171875h0.847168v7.7011719h-0.6928711
		l-4.9731445-6.3144531v6.3144531h-0.8466797V49.2490234z"/>
	<path class="st0" d="M41.2817383,50.0517578h-2.5961914v-0.8027344h6.0620117v0.8027344h-2.5966797v6.8984375h-0.8691406
		V50.0517578z"/>
	<path class="st0" d="M46.3310547,49.2490234h3.3115234c0.9458008,0,1.7050781,0.2861328,2.1889648,0.7705078
		c0.3740234,0.3740234,0.5942383,0.9130859,0.5942383,1.5175781v0.0224609c0,1.2763672-0.8803711,2.0244141-2.090332,2.2441406
		l2.3652344,3.1464844h-1.0668945l-2.2333984-2.9921875h-2.2001953v2.9921875h-0.8691406V49.2490234z M49.5654297,53.1767578
		c1.1552734,0,1.9799805-0.59375,1.9799805-1.5839844v-0.0224609c0-0.9462891-0.7260742-1.5185547-1.9692383-1.5185547h-2.3759766
		v3.125H49.5654297z"/>
	<path class="st0" d="M54.2836914,49.2490234h5.5664062v0.7919922H55.152832v2.6298828h4.2026367v0.7919922H55.152832v2.6953125
		h4.7524414v0.7919922h-5.621582V49.2490234z"/>
	<path class="st0" d="M64.5029297,49.1943359h0.8144531l3.5092773,7.7558594h-0.9350586l-0.9023438-2.0351562h-4.1914062
		l-0.9130859,2.0351562h-0.8911133L64.5029297,49.1943359z M66.6484375,54.1337891l-1.7495117-3.9277344l-1.7602539,3.9277344
		H66.6484375z"/>
	<path class="st0" d="M71.3999023,50.0517578h-2.5961914v-0.8027344h6.0620117v0.8027344H72.269043v6.8984375h-0.8691406V50.0517578
		z"/>
	<path class="st0" d="M76.4487305,49.2490234h0.8798828l2.8056641,4.203125l2.8051758-4.203125h0.8803711v7.7011719h-0.8691406
		v-6.2382812l-2.8056641,4.1259766h-0.0439453l-2.8051758-4.1142578v6.2265625h-0.847168V49.2490234z"/>
	<path class="st0" d="M85.996582,49.2490234h5.5664062v0.7919922h-4.6972656v2.6298828h4.2026367v0.7919922h-4.2026367v2.6953125
		h4.7524414v0.7919922h-5.621582V49.2490234z"/>
	<path class="st0" d="M93.3666992,49.2490234h0.8139648l4.8515625,6.171875v-6.171875h0.847168v7.7011719h-0.6928711
		l-4.9726562-6.3144531v6.3144531h-0.847168V49.2490234z"/>
	<path class="st0" d="M104.0585938,50.0517578h-2.5961914v-0.8027344h6.0620117v0.8027344h-2.5966797v6.8984375h-0.8691406
		V50.0517578z"/>
	<path class="st0" d="M112.065918,53.1220703v-0.0224609c0-2.1230469,1.5952148-3.9824219,3.9384766-3.9824219
		s3.9165039,1.8369141,3.9165039,3.9609375v0.0214844c0,2.1230469-1.5952148,3.9824219-3.9384766,3.9824219
		S112.065918,55.2451172,112.065918,53.1220703z M119.019043,53.1220703v-0.0224609
		c0-1.7490234-1.2763672-3.1796875-3.0366211-3.1796875s-3.0141602,1.4082031-3.0141602,3.1582031v0.0214844
		c0,1.7490234,1.2758789,3.1796875,3.0361328,3.1796875S119.019043,54.8710938,119.019043,53.1220703z"/>
	<path class="st0" d="M121.7573242,49.2490234h5.5336914v0.8027344h-4.6645508v2.7509766h4.1694336v0.7919922h-4.1694336v3.3554688
		h-0.8691406V49.2490234z"/>
	<path class="st0" d="M131.9316406,53.1220703v-0.0224609c0-2.1787109,1.628418-3.9824219,3.8945312-3.9824219
		c1.3974609,0,2.2333984,0.4951172,3.003418,1.2207031l-0.59375,0.6386719
		c-0.6494141-0.6162109-1.3754883-1.0566406-2.4204102-1.0566406c-1.7055664,0-2.9814453,1.3867188-2.9814453,3.1582031v0.0214844
		c0,1.7822266,1.2871094,3.1796875,2.9814453,3.1796875c1.0561523,0,1.7490234-0.4072266,2.4863281-1.1113281l0.5717773,0.5615234
		c-0.8027344,0.8134766-1.6831055,1.3525391-3.0800781,1.3525391
		C133.5708008,57.0820312,131.9316406,55.3330078,131.9316406,53.1220703z"/>
	<path class="st0" d="M140.4345703,49.2490234h0.8691406v3.421875h4.4443359v-3.421875h0.8691406v7.7011719h-0.8691406V53.484375
		h-4.4443359v3.4658203h-0.8691406V49.2490234z"/>
	<path class="st0" d="M148.7949219,49.2490234h3.3115234c0.9462891,0,1.7050781,0.2861328,2.1884766,0.7705078
		c0.375,0.3740234,0.5947266,0.9130859,0.5947266,1.5175781v0.0224609c0,1.2763672-0.8798828,2.0244141-2.0908203,2.2441406
		l2.3652344,3.1464844h-1.0664062l-2.2333984-2.9921875h-2.2001953v2.9921875h-0.8691406V49.2490234z M152.0292969,53.1767578
		c1.1552734,0,1.9804688-0.59375,1.9804688-1.5839844v-0.0224609c0-0.9462891-0.7265625-1.5185547-1.9697266-1.5185547h-2.3759766
		v3.125H152.0292969z"/>
	<path class="st0" d="M156.40625,53.1220703v-0.0224609c0-2.1230469,1.5957031-3.9824219,3.9384766-3.9824219
		s3.9169922,1.8369141,3.9169922,3.9609375v0.0214844c0,2.1230469-1.5957031,3.9824219-3.9394531,3.9824219
		C157.9794922,57.0820312,156.40625,55.2451172,156.40625,53.1220703z M163.359375,53.1220703v-0.0224609
		c0-1.7490234-1.2763672-3.1796875-3.0371094-3.1796875c-1.7597656,0-3.0136719,1.4082031-3.0136719,3.1582031v0.0214844
		c0,1.7490234,1.2753906,3.1796875,3.0361328,3.1796875S163.359375,54.8710938,163.359375,53.1220703z"/>
	<path class="st0" d="M166.0976562,49.2490234h0.8144531l4.8515625,6.171875v-6.171875h0.8466797v7.7011719h-0.6923828
		l-4.9736328-6.3144531v6.3144531h-0.8466797V49.2490234z"/>
	<path class="st0" d="M174.8642578,49.2490234h0.8691406v7.7011719h-0.8691406V49.2490234z"/>
	<path class="st0" d="M177.6464844,53.1220703v-0.0224609c0-2.1787109,1.6289062-3.9824219,3.8945312-3.9824219
		c1.3984375,0,2.234375,0.4951172,3.0039062,1.2207031l-0.59375,0.6386719
		c-0.6494141-0.6162109-1.375-1.0566406-2.4199219-1.0566406c-1.7060547,0-2.9824219,1.3867188-2.9824219,3.1582031v0.0214844
		c0,1.7822266,1.2871094,3.1796875,2.9824219,3.1796875c1.0556641,0,1.7480469-0.4072266,2.4863281-1.1113281l0.5712891,0.5615234
		c-0.8027344,0.8134766-1.6826172,1.3525391-3.0800781,1.3525391
		C179.2861328,57.0820312,177.6464844,55.3330078,177.6464844,53.1220703z"/>
	<path class="st0" d="M189.4501953,49.2490234h0.8691406v3.421875h4.4443359v-3.421875h0.8691406v7.7011719h-0.8691406V53.484375
		h-4.4443359v3.4658203h-0.8691406V49.2490234z"/>
	<path class="st0" d="M197.8105469,49.2490234h5.5664062v0.7919922h-4.6972656v2.6298828h4.2021484v0.7919922h-4.2021484v2.6953125
		h4.7519531v0.7919922h-5.6210938V49.2490234z"/>
	<path class="st0" d="M205.1796875,49.2490234H208.0625c1.7382812,0,2.8828125,0.9238281,2.8828125,2.4423828v0.0224609
		c0,1.6611328-1.3867188,2.5185547-3.0253906,2.5185547h-1.8710938v2.7177734h-0.8691406V49.2490234z M207.9521484,53.4404297
		c1.2763672,0,2.1123047-0.6816406,2.1123047-1.6943359v-0.0214844c0-1.1005859-0.8242188-1.6728516-2.0683594-1.6728516h-1.9472656
		v3.3886719H207.9521484z"/>
	<path class="st0" d="M214.6074219,49.1943359h0.8134766l3.5097656,7.7558594h-0.9345703l-0.9023438-2.0351562h-4.1914062
		l-0.9140625,2.0351562h-0.890625L214.6074219,49.1943359z M216.7519531,54.1337891l-1.7490234-3.9277344l-1.7607422,3.9277344
		H216.7519531z"/>
	<path class="st0" d="M221.5039062,50.0517578h-2.5957031v-0.8027344h6.0615234v0.8027344h-2.5966797v6.8984375h-0.8691406
		V50.0517578z"/>
	<path class="st0" d="M226.6289062,49.2490234h0.8691406v7.7011719h-0.8691406V49.2490234z"/>
	<path class="st0" d="M231.7558594,50.0517578h-2.5966797v-0.8027344h6.0615234v0.8027344H232.625v6.8984375h-0.8691406V50.0517578z
		"/>
	<path class="st0" d="M236.8808594,49.2490234H237.75v7.7011719h-0.8691406V49.2490234z"/>
	<path class="st0" d="M239.4990234,55.828125l0.5390625-0.6386719c0.8037109,0.7265625,1.5732422,1.0898438,2.640625,1.0898438
		c1.0341797,0,1.7158203-0.5498047,1.7158203-1.3095703v-0.0214844c0-0.7158203-0.3847656-1.1220703-2.0019531-1.4638672
		c-1.7714844-0.3847656-2.5859375-0.9570312-2.5859375-2.2216797v-0.0224609c0-1.2099609,1.0683594-2.1015625,2.53125-2.1015625
		c1.1210938,0,1.9248047,0.3193359,2.7060547,0.9462891l-0.5068359,0.6708984
		c-0.7148438-0.5830078-1.4296875-0.8359375-2.2216797-0.8359375c-1.0009766,0-1.6396484,0.5507812-1.6396484,1.2431641v0.0224609
		c0,0.7255859,0.3964844,1.1328125,2.0908203,1.4960938c1.7158203,0.3740234,2.5087891,1.0009766,2.5087891,2.1787109v0.0214844
		c0,1.3203125-1.1005859,2.1787109-2.6298828,2.1787109C241.4238281,57.0605469,240.4238281,56.6533203,239.4990234,55.828125z"/>
	<path class="st0" d="M250.0039062,53.1220703v-0.0224609c0-2.1787109,1.6289062-3.9824219,3.8945312-3.9824219
		c1.3974609,0,2.2333984,0.4951172,3.0039062,1.2207031l-0.59375,0.6386719
		c-0.6503906-0.6162109-1.3759766-1.0566406-2.4208984-1.0566406c-1.7060547,0-2.9814453,1.3867188-2.9814453,3.1582031v0.0214844
		c0,1.7822266,1.2871094,3.1796875,2.9814453,3.1796875c1.0556641,0,1.7490234-0.4072266,2.4863281-1.1113281l0.5712891,0.5615234
		c-0.8027344,0.8134766-1.6826172,1.3525391-3.0800781,1.3525391
		C251.6425781,57.0820312,250.0039062,55.3330078,250.0039062,53.1220703z"/>
	<path class="st0" d="M258.3085938,51.2626953h1.0126953v1.1552734h-1.0126953V51.2626953z M258.3085938,55.7949219h1.0126953
		v1.1552734h-1.0126953V55.7949219z"/>
</g>
<rect class="st2" width="300" height="250"/>
</svg>
