<?xml version="1.0" encoding="utf-8"?>
<!-- Generator: Adobe Illustrator 26.3.1, SVG Export Plug-In . SVG Version: 6.00 Build 0)  -->
<svg version="1.1" id="Layer_1" xmlns="http://www.w3.org/2000/svg" xmlns:xlink="http://www.w3.org/1999/xlink" x="0px" y="0px"
	 viewBox="0 0 300 250" style="enable-background:new 0 0 300 250;" xml:space="preserve">
<style type="text/css">
	.st0{fill:#35C4AF;}
	.st1{fill:#FFFFFF;}
</style>
<g>
	<g>
		<path class="st0" d="M125.6268082,156.6815186l0.6000366-0.600174
			c15.8377151-0.3594971,24.955162-10.0799561,24.955162-21.6008911v-0.2396698
			c0-9.8402939-7.6787567-20.5204086-19.916214-20.5204086c-9.5976715,0-16.9169846,4.6794815-23.1550217,12.3597794
			l-4.3200989-3.5999908c6.8390732-8.5201187,14.9970474-14.280098,27.7147446-14.280098
			c15.8377075,0,26.0354156,12.959938,26.0354156,25.8010483v0.2396698c0,14.8812561-11.5176086,25.200882-25.435379,26.881546
			l-0.730835,16.7985992h-5.1567612L125.6268082,156.6815186z"/>
		<path class="st0" d="M132.4732666,186.2906647c0,2.0101929-1.6293945,3.6389313-3.6391907,3.6389313
			c-2.0087891,0-3.6381836-1.6287384-3.6381836-3.6389313c0-2.0112,1.6293945-3.6389313,3.6381836-3.6389313
			C130.8438721,182.6517334,132.4732666,184.2794647,132.4732666,186.2906647"/>
	</g>
	<polygon class="st1" points="62.3862228,128.7402344 63.072628,128.7402344 64.6691971,133.3948822 66.2019119,128.7236481 
		66.7206116,128.7236481 68.2533188,133.3948822 69.8503799,128.7402344 70.5128937,128.7402344 68.5170593,134.3691101 
		67.9822693,134.3691101 66.4495621,129.8334351 64.9085617,134.3691101 64.3820648,134.3691101 	"/>
	<rect x="71.7150803" y="128.7402344" class="st1" width="0.6303406" height="5.5888977"/>
	<polygon class="st1" points="73.9829407,128.7402344 74.6137695,128.7402344 74.6137695,133.7459564 77.7586517,133.7459564 
		77.7586517,134.3291321 73.9829407,134.3291321 	"/>
	<polygon class="st1" points="78.8950195,128.7402344 79.5258484,128.7402344 79.5258484,133.7459564 82.6707306,133.7459564 
		82.6707306,134.3291321 78.8950195,134.3291321 	"/>
	<polygon class="st1" points="86.2036667,128.7402344 86.8344879,128.7402344 86.8344879,131.2230988 90.0593262,131.2230988 
		90.0593262,128.7402344 90.690155,128.7402344 90.690155,134.3291321 90.0593262,134.3291321 90.0593262,131.8140717 
		86.8344879,131.8140717 86.8344879,134.3291321 86.2036667,134.3291321 	"/>
	<polygon class="st1" points="92.2735596,128.7402344 96.3130112,128.7402344 96.3130112,129.314621 92.9043884,129.314621 
		92.9043884,131.2230988 95.9537201,131.2230988 95.9537201,131.7984772 92.9043884,131.7984772 92.9043884,133.7537537 
		96.3529816,133.7537537 96.3529816,134.3291321 92.2735596,134.3291321 	"/>
	<path class="st1" d="M103.3345337,131.4385986c0.4387207-0.1911011,0.8858032-0.5665894,0.8858032-1.2930908v-0.0166016
		c0-0.3588867-0.1277466-0.6543579-0.3588257-0.8942261c-0.3198242-0.3110962-0.8224487-0.4944458-1.4610596-0.4944458h-2.3790283
		v5.5888672h2.4828491c1.2211914,0,2.0275269-0.5665894,2.0275269-1.5252075v-0.015625
		C104.5317993,132.0217896,103.9970093,131.6385498,103.3345337,131.4385986z M100.6439819,129.3068237h1.7004395
		c0.7985229,0,1.2372437,0.3588867,1.2372437,0.9098511v0.0166016c0,0.6543579-0.5264893,0.9976196-1.2850342,0.9976196h-1.6526489
		V129.3068237z M103.8931885,132.763916c0,0.6231689-0.5269775,0.9985962-1.373291,0.9985962h-1.8759155v-1.9728394h1.7642822
		c0.973999,0,1.4849243,0.3520508,1.4849243,0.9586182V132.763916z"/>
	<polygon class="st1" points="105.7876282,128.7402344 109.8270721,128.7402344 109.8270721,129.314621 106.418457,129.314621 
		106.418457,131.2230988 109.4677887,131.2230988 109.4677887,131.7984772 106.418457,131.7984772 106.418457,133.7537537 
		109.8670502,133.7537537 109.8670502,134.3291321 105.7876282,134.3291321 	"/>
	<path class="st1" d="M116.8485718,131.4385986c0.4387817-0.1911011,0.8858032-0.5665894,0.8858032-1.2930908v-0.0166016
		c0-0.3588867-0.1277466-0.6543579-0.359314-0.8942261c-0.3187866-0.3110962-0.8218994-0.4944458-1.4605103-0.4944458h-2.3790283
		v5.5888672h2.4828491c1.2211914,0,2.0275269-0.5665894,2.0275269-1.5252075v-0.015625
		C118.0458984,132.0217896,117.5111084,131.6385498,116.8485718,131.4385986z M114.1580811,129.3068237h1.7003784
		c0.7985229,0,1.2373047,0.3588867,1.2373047,0.9098511v0.0166016c0,0.6543579-0.5265503,0.9976196-1.2850952,0.9976196h-1.6525879
		V129.3068237z M117.4072876,132.763916c0,0.6231689-0.5270386,0.9985962-1.3728638,0.9985962h-1.8763428v-1.9728394h1.7642212
		c0.9740601,0,1.4849854,0.3520508,1.4849854,0.9586182V132.763916z"/>
	<path class="st1" d="M121.8728027,128.7002563h-0.5908813l-2.5462036,5.6288452h0.6464233l0.6625366-1.477417h3.0415039
		l0.6547241,1.477417h0.6785889L121.8728027,128.7002563z M120.2922974,132.2850952l1.2772827-2.8505249l1.2689209,2.8505249
		H120.2922974z"/>
	<path class="st1" d="M124.9489288,131.550766v-0.016571c0-1.5808105,1.1817017-2.8905029,2.8260498-2.8905029
		c1.0140076,0,1.6204529,0.359848,2.1796265,0.8864594l-0.4314423,0.4632263
		c-0.470932-0.4466553-0.9979095-0.76651-1.7559814-0.76651c-1.2372818,0-2.1635361,1.0064087-2.1635361,2.2917175v0.0156097
		c0,1.2940979,0.9340515,2.3083038,2.1635361,2.3083038c0.7663574,0,1.2689667-0.2954865,1.804245-0.806488l0.4148712,0.406662
		c-0.5825653,0.5909729-1.2212067,0.9820251-2.2352066,0.9820251
		C126.1384354,134.4246979,124.9489288,133.1549835,124.9489288,131.550766z"/>
	<polygon class="st1" points="131.1231537,128.7402344 131.7539825,128.7402344 131.7539825,132.0773773 134.9632111,128.7402344 
		135.785141,128.7402344 133.3822327,131.1831207 135.8811798,134.3291321 135.0909271,134.3291321 132.9434814,131.6219635 
		131.7539825,132.8282928 131.7539825,134.3291321 131.1231537,134.3291321 	"/>
	<polygon class="st1" points="49.5024986,138.223114 53.5180626,138.223114 53.5180626,138.8053131 50.1333275,138.8053131 
		50.1333275,140.8015594 53.1587715,140.8015594 53.1587715,141.3769226 50.1333275,141.3769226 50.1333275,143.8120117 
		49.5024986,143.8120117 	"/>
	<path class="st1" d="M57.2406616,138.1265869c-1.7004395,0-2.8577881,1.3496704-2.8577881,2.8905029v0.0165405
		c0,1.5408325,1.1412354,2.8739624,2.8416748,2.8739624c1.7003784,0,2.8577271-1.3487549,2.8577271-2.8905029v-0.015625
		C60.0822754,139.4606323,58.94104,138.1265869,57.2406616,138.1265869z M59.4275513,141.0336304
		c0,1.2697144-0.909668,2.291748-2.1868896,2.291748c-1.2772827,0-2.2035522-1.0385742-2.2035522-2.3082886v-0.015625
		c0-1.2697144,0.9101562-2.291748,2.187439-2.291748s2.2030029,1.0386353,2.2030029,2.307373V141.0336304z"/>
	<path class="st1" d="M64.3255005,141.5280762c0.8779907-0.1589355,1.5166626-0.7021484,1.5166626-1.6286011v-0.015625
		c0-0.4397583-0.1599121-0.8308716-0.4309692-1.1019287c-0.3515015-0.3510742-0.9024048-0.5588379-1.5888062-0.5588379h-2.4028931
		v5.5889282h0.6308594v-2.171814h1.5965576l1.6204834,2.171814h0.7741089L64.3255005,141.5280762z M62.050354,141.0736084
		v-2.2683105h1.7243042c0.9018555,0,1.428833,0.4154663,1.428833,1.1019897v0.0166016
		c0,0.718689-0.5986328,1.1497192-1.4371338,1.1497192H62.050354z"/>
	<polygon class="st1" points="69.5900574,138.223114 70.2208862,138.223114 70.2208862,140.7059784 73.4457169,140.7059784 
		73.4457169,138.223114 74.0765457,138.223114 74.0765457,143.8120117 73.4457169,143.8120117 73.4457169,141.2969513 
		70.2208862,141.2969513 70.2208862,143.8120117 69.5900574,143.8120117 	"/>
	<rect x="75.7164993" y="138.223114" class="st1" width="0.6303406" height="5.5888977"/>
	<path class="st1" d="M77.6172791,142.9977112l0.390976-0.4632263c0.5830536,0.5266113,1.1417313,0.7908936,1.9158859,0.7908936
		c0.7507553,0,1.2455673-0.399826,1.2455673-0.9508209v-0.0156097c0-0.5187988-0.279335-0.8142853-1.4532471-1.0619965
		c-1.2850571-0.2798767-1.8759079-0.6943359-1.8759079-1.6129761v-0.0156097c0-0.8786621,0.7746429-1.5252228,1.8364182-1.5252228
		c0.8141327,0,1.396698,0.2311249,1.9636688,0.686554l-0.3670959,0.486618
		c-0.5191879-0.423233-1.0378876-0.6065674-1.6126556-0.6065674c-0.7263794,0-1.1895065,0.399826-1.1895065,0.9020538v0.0165863
		c0,0.5266113,0.2876282,0.8220978,1.5166168,1.0854034c1.245575,0.2720795,1.8203354,0.7265167,1.8203354,1.5807953v0.0165863
		c0,0.9576416-0.7985229,1.5807953-1.9080811,1.5807953C79.0144577,143.8919678,78.28759,143.5964813,77.6172791,142.9977112z"/>
	<polygon class="st1" points="85.3656464,138.223114 89.6200867,138.223114 89.6200867,139.3406982 86.5946426,139.3406982 
		86.5946426,140.5304413 89.2607956,140.5304413 89.2607956,141.6480255 86.5946426,141.6480255 86.5946426,143.8120117 
		85.3656464,143.8120117 	"/>
	<path class="st1" d="M93.3353271,138.1265869c-1.7243042,0-2.9776611,1.3018799-2.9776611,2.8905029v0.0165405
		c0,1.588623,1.2373047,2.8739624,2.9616089,2.8739624s2.9776611-1.3009644,2.9776611-2.8905029v-0.015625
		C96.296936,139.4128418,95.0596313,138.1265869,93.3353271,138.1265869z M95.0113525,141.0336304
		c0,0.9576416-0.6864014,1.7407837-1.6760254,1.7407837c-0.9901123,0-1.6925659-0.7987061-1.6925659-1.7573242v-0.015625
		c0-0.9576416,0.6864014-1.7407227,1.6765137-1.7407227s1.6920776,0.798645,1.6920776,1.7563477V141.0336304z"/>
	<polygon class="st1" points="97.3942871,138.223114 98.6232834,138.223114 98.6232834,142.6944275 101.4093628,142.6944275 
		101.4093628,143.8120117 97.3942871,143.8120117 	"/>
	<polygon class="st1" points="102.3385468,138.223114 103.5675354,138.223114 103.5675354,142.6944275 106.3536148,142.6944275 
		106.3536148,143.8120117 102.3385468,143.8120117 	"/>
	<path class="st1" d="M109.7008057,138.1265869c-1.7243042,0-2.9776611,1.3018799-2.9776611,2.8905029v0.0165405
		c0,1.588623,1.2373047,2.8739624,2.9616089,2.8739624c1.7242432,0,2.9776611-1.3009644,2.9776611-2.8905029v-0.015625
		C112.6624146,139.4128418,111.4251099,138.1265869,109.7008057,138.1265869z M111.3768311,141.0336304
		c0,0.9576416-0.6864014,1.7407837-1.6760254,1.7407837c-0.9901123,0-1.692627-0.7987061-1.692627-1.7573242v-0.015625
		c0-0.9576416,0.6864014-1.7407227,1.6765747-1.7407227c0.9901123,0,1.6920776,0.798645,1.6920776,1.7563477V141.0336304z"/>
	<polygon class="st1" points="113.0168076,138.223114 114.3340378,138.223114 115.4913712,142.0078735 116.7447433,138.206543 
		117.7987213,138.206543 119.0520935,142.0078735 120.2094193,138.223114 121.4944839,138.223114 119.5868835,143.8519897 
		118.5173035,143.8519897 117.2556458,140.1949768 115.9944763,143.8519897 114.9248886,143.8519897 	"/>
	<rect x="121.8669357" y="140.7537689" class="st1" width="2.4584732" height="1.1663513"/>
	<path class="st1" d="M125.3087006,141.4169006v-3.1937866h1.2294846v3.1616058
		c0,0.9098663,0.4553299,1.3808899,1.2055969,1.3808899s1.205101-0.4544373,1.205101-1.3408966v-3.2015991h1.2294922v3.1538086
		c0,1.6929626-0.9501495,2.5228577-2.4506836,2.5228577S125.3087006,143.0610962,125.3087006,141.4169006z"/>
	<path class="st1" d="M133.7186279,138.2230835h-2.282959v5.5889282h1.2289429v-1.6763916h0.934082
		c1.2533569,0,2.2590942-0.6709595,2.2590942-1.9650269v-0.015625
		C135.8577881,139.0130005,135.0514526,138.2230835,133.7186279,138.2230835z M134.6127319,140.1949463
		c0,0.4788208-0.359314,0.8464966-0.9740601,0.8464966h-0.9740601v-1.7085571h0.9501953
		c0.6147461,0,0.9979248,0.2954712,0.9979248,0.8464966V140.1949463z"/>
	<path class="st1" d="M78.0872192,147.6660156h-1.1339111l-2.3945923,5.6288452h1.2533569l0.5108643-1.2531128h2.3629761
		l0.5108643,1.2531128h1.2850952L78.0872192,147.6660156z M76.762207,150.9553833l0.7419434-1.8129272l0.7424927,1.8129272
		H76.762207z"/>
	<path class="st1" d="M83.6306152,147.7059937h-2.282959v5.5888672h1.2290039v-1.6763306h0.934021
		c1.253418,0,2.2590942-0.6709595,2.2590942-1.9650879v-0.015564
		C85.7697754,148.4959106,84.9634399,147.7059937,83.6306152,147.7059937z M84.5247192,149.6778564
		c0,0.4788208-0.359314,0.8464966-0.9740601,0.8464966h-0.973999v-1.7085571h0.9501343
		c0.6147461,0,0.9979248,0.2954712,0.9979248,0.8464355V149.6778564z"/>
	<path class="st1" d="M88.9663696,147.7059937h-2.2835083v5.5888672h1.2294922v-1.6763306h0.934082
		c1.2533569,0,2.2590942-0.6709595,2.2590942-1.9650879v-0.015564
		C91.1055298,148.4959106,90.2991943,147.7059937,88.9663696,147.7059937z M89.8604126,149.6778564
		c0,0.4788208-0.3592529,0.8464966-0.973999,0.8464966h-0.9740601v-1.7085571h0.9501343
		c0.6147461,0,0.9979248,0.2954712,0.9979248,0.8464355V149.6778564z"/>
	<path class="st1" d="M94.7485962,147.609436c-1.7243042,0-2.9776611,1.3018799-2.9776611,2.8905029v0.0166016
		c0,1.588623,1.2373047,2.8739014,2.9616089,2.8739014s2.9776611-1.3009033,2.9776611-2.8905029v-0.015564
		C97.7102051,148.895752,96.4729004,147.609436,94.7485962,147.609436z M96.4251099,150.5165405
		c0,0.9576416-0.6868896,1.7407227-1.6765137,1.7407227c-0.9901123,0-1.6925659-0.7987061-1.6925659-1.7573242v-0.015564
		c0-0.9577026,0.6868896-1.7407837,1.6765137-1.7407837s1.6925659,0.7987061,1.6925659,1.7563477V150.5165405z"/>
	<rect x="98.8636246" y="147.7059937" class="st1" width="1.2294846" height="5.5888977"/>
	<polygon class="st1" points="101.4912643,147.7059937 102.6247101,147.7059937 105.2430878,151.1474915 105.2430878,147.7059937 
		106.4564819,147.7059937 106.4564819,153.2948914 105.4107895,153.2948914 102.7041702,149.742218 102.7041702,153.2948914 
		101.4912643,153.2948914 	"/>
	<polygon class="st1" points="109.1026459,148.8391876 107.4022369,148.8391876 107.4022369,147.7059937 112.0320511,147.7059937 
		112.0320511,148.8391876 110.3316422,148.8391876 110.3316422,153.2948914 109.1026459,153.2948914 	"/>
	<polygon class="st1" points="112.9768295,147.7059937 114.3018646,147.7059937 115.7707062,150.0689087 117.2395554,147.7059937 
		118.5645905,147.7059937 118.5645905,153.2948914 117.3433914,153.2948914 117.3433914,149.6456757 115.7707062,152.0329742 
		115.738533,152.0329742 114.1819382,149.6700592 114.1819382,153.2948914 112.9768295,153.2948914 	"/>
	<polygon class="st1" points="119.9100952,147.7059937 124.1250458,147.7059937 124.1250458,148.7991943 121.1312943,148.7991943 
		121.1312943,149.9333649 123.7657547,149.9333649 123.7657547,151.0275421 121.1312943,151.0275421 121.1312943,152.2007141 
		124.1645355,152.2007141 124.1645355,153.2948914 119.9100952,153.2948914 	"/>
	<polygon class="st1" points="125.2609253,147.7059937 126.3948593,147.7059937 129.0132294,151.1474915 129.0132294,147.7059937 
		130.2266235,147.7059937 130.2266235,153.2948914 129.1809387,153.2948914 126.4748077,149.742218 126.4748077,153.2948914 
		125.2609253,153.2948914 	"/>
	<polygon class="st1" points="132.8723145,148.8391876 131.1719055,148.8391876 131.1719055,147.7059937 135.801712,147.7059937 
		135.801712,148.8391876 134.1013031,148.8391876 134.1013031,153.2948914 132.8723145,153.2948914 	"/>
</g>
</svg>
