<?xml version="1.0" encoding="utf-8"?>
<!-- Generator: Adobe Illustrator 26.3.1, SVG Export Plug-In . SVG Version: 6.00 Build 0)  -->
<svg version="1.1" id="Layer_1" xmlns="http://www.w3.org/2000/svg" xmlns:xlink="http://www.w3.org/1999/xlink" x="0px" y="0px"
	 viewBox="0 0 300 250" style="enable-background:new 0 0 300 250;" xml:space="preserve">
<style type="text/css">
	.st0{fill:#35C4AF;}
	.st1{fill:#FFFFFF;}
</style>
<g>
	<g>
		<path class="st0" d="M251.3102264,156.6815186l0.6000366-0.600174
			c15.8376923-0.3594971,24.9551544-10.0799561,24.9551544-21.6008911v-0.2396698
			c0-9.8402939-7.6787415-20.5204086-19.9161987-20.5204086c-9.5976868,0-16.9169922,4.6794815-23.1550293,12.3597794
			l-4.3200989-3.5999908c6.8390656-8.5201187,14.9970398-14.280098,27.7147217-14.280098
			c15.837738,0,26.0354309,12.959938,26.0354309,25.8010483v0.2396698c0,14.8812561-11.5175781,25.200882-25.4353638,26.881546
			l-0.7308655,16.7985992h-5.1567383L251.3102264,156.6815186z"/>
		<path class="st0" d="M258.1565857,186.2906647c0,2.0101929-1.629425,3.6389313-3.6392059,3.6389313
			c-2.0088043,0-3.6381836-1.6287384-3.6381836-3.6389313c0-2.0112,1.6293793-3.6389313,3.6381836-3.6389313
			C256.5271606,182.6517334,258.1565857,184.2794647,258.1565857,186.2906647"/>
	</g>
	<rect x="213.8840637" y="132.6654358" class="st1" width="0.6303406" height="5.5888977"/>
	<path class="st1" d="M215.7853241,137.440033l0.390976-0.4632263c0.5830536,0.5266113,1.1417389,0.7908936,1.9158936,0.7908936
		c0.7507477,0,1.245575-0.3998413,1.245575-0.9508362v-0.0155945c0-0.5188141-0.2793427-0.8143005-1.4532471-1.0619965
		c-1.2850647-0.279892-1.8759155-0.6943512-1.8759155-1.6129913v-0.0155945c0-0.8786621,0.7746429-1.5252228,1.8364258-1.5252228
		c0.8141327,0,1.396698,0.2311249,1.9636536,0.6865387l-0.3670807,0.4866333
		c-0.5191956-0.4222717-1.0379028-0.6065826-1.6126709-0.6065826c-0.7263794,0-1.1894989,0.3998413-1.1894989,0.9020691v0.016571
		c0,0.5266113,0.2876282,0.8220978,1.5166168,1.0854034c1.245575,0.2720795,1.820343,0.726532,1.820343,1.5808105v0.016571
		c0,0.9576569-0.7985382,1.5808105-1.9080963,1.5808105C217.1825104,138.3342896,216.4556427,138.0388031,215.7853241,137.440033z"
		/>
	<polygon class="st1" points="223.6599579,132.6654358 224.2907867,132.6654358 224.2907867,135.1483002 227.515625,135.1483002 
		227.515625,132.6654358 228.1464539,132.6654358 228.1464539,138.2543182 227.515625,138.2543182 227.515625,135.7392731 
		224.2907867,135.7392731 224.2907867,138.2543182 223.6599579,138.2543182 	"/>
	<polygon class="st1" points="229.7303467,132.6654358 233.7697906,132.6654358 233.7697906,133.2398224 230.3611755,133.2398224 
		230.3611755,135.1483002 233.4105072,135.1483002 233.4105072,135.7236633 230.3611755,135.7236633 230.3611755,137.6799316 
		233.8097687,137.6799316 233.8097687,138.2543182 229.7303467,138.2543182 	"/>
	<path class="st1" d="M237.3899841,135.9148102v-3.2493744h0.6308289v3.2093811
		c0,1.2053528,0.6386414,1.8840942,1.7082214,1.8840942c1.0296021,0,1.6843109-0.6221771,1.6843109-1.844101v-3.2493744h0.6308289
		v3.2015839c0,1.6286011-0.9340515,2.4750671-2.3312378,2.4750671
		C238.3318481,138.3420868,237.3899841,137.4956207,237.3899841,135.9148102z"/>
	<path class="st1" d="M243.173233,137.440033l0.390976-0.4632263c0.5830536,0.5266113,1.1417389,0.7908936,1.9158936,0.7908936
		c0.7507477,0,1.245575-0.3998413,1.245575-0.9508362v-0.0155945c0-0.5188141-0.2793427-0.8143005-1.4532471-1.0619965
		c-1.2850647-0.279892-1.8759155-0.6943512-1.8759155-1.6129913v-0.0155945c0-0.8786621,0.7746429-1.5252228,1.8364258-1.5252228
		c0.8141327,0,1.396698,0.2311249,1.9636536,0.6865387l-0.3670807,0.4866333
		c-0.5191956-0.4222717-1.0379028-0.6065826-1.6126709-0.6065826c-0.7263794,0-1.1894989,0.3998413-1.1894989,0.9020691v0.016571
		c0,0.5266113,0.2876282,0.8220978,1.5166168,1.0854034c1.245575,0.2720795,1.820343,0.726532,1.820343,1.5808105v0.016571
		c0,0.9576569-0.7985382,1.5808105-1.9080963,1.5808105C244.5704193,138.3342896,243.8435516,138.0388031,243.173233,137.440033z"/>
	<rect x="248.7078552" y="132.6654358" class="st1" width="0.6303406" height="5.5888977"/>
	<polygon class="st1" points="250.9762115,132.6654358 251.5670624,132.6654358 255.087326,137.1445465 255.087326,132.6654358 
		255.7020569,132.6654358 255.7020569,138.2543182 255.1989594,138.2543182 251.5909424,133.6708679 251.5909424,138.2543182 
		250.9762115,138.2543182 	"/>
	<path class="st1" d="M257.0387878,135.4759674v-0.0165863c0-1.53302,1.1251526-2.8895264,2.8016968-2.8895264
		c0.9418335,0,1.5249023,0.2711182,2.0835876,0.7421265l-0.407074,0.4788361
		c-0.4309692-0.3754578-0.9101868-0.6387634-1.7004089-0.6387634c-1.2372742,0-2.1235657,1.046402-2.1235657,2.2917328v0.0155945
		c0,1.3340912,0.8540955,2.3239136,2.2113037,2.3239136c0.6386414,0,1.2294922-0.2476959,1.6126709-0.5587921v-1.3896637h-1.7004089
		v-0.5665894h2.3068542v2.2273712c-0.5187073,0.4632111-1.3011475,0.8542633-2.2430115,0.8542633
		C258.1239624,138.349884,257.0387878,137.0723724,257.0387878,135.4759674z"/>
	<rect x="202.6456604" y="142.1483154" class="st1" width="1.2294769" height="5.5888977"/>
	<polygon class="st1" points="205.2737885,142.1483154 206.5027924,142.1483154 206.5027924,146.6196136 209.2888641,146.6196136 
		209.2888641,147.7371979 205.2737885,147.7371979 	"/>
	<polygon class="st1" points="210.2180481,142.1483154 211.4470367,142.1483154 211.4470367,146.6196136 214.2331238,146.6196136 
		214.2331238,147.7371979 210.2180481,147.7371979 	"/>
	<rect x="215.217392" y="142.1483154" class="st1" width="1.2294769" height="5.5888977"/>
	<path class="st1" d="M217.5978699,144.958847v-0.016571c0-1.5886078,1.1972961-2.8895416,2.9138031-2.8895416
		c1.0534821,0,1.6843109,0.3510742,2.2030182,0.8620911l-0.7819519,0.9020538
		c-0.4314423-0.3910522-0.8701935-0.6309509-1.4293518-0.6309509c-0.941864,0-1.6204681,0.7821198-1.6204681,1.7407379v0.0156097
		c0,0.9586182,0.6625214,1.757309,1.6204681,1.757309c0.6386261,0,1.0300903-0.2555084,1.4688416-0.6553345l0.7824402,0.7908936
		c-0.5747681,0.6143799-1.2133942,0.9976349-2.2912598,0.9976349
		C218.8190613,147.8327789,217.5978699,146.5630646,217.5978699,144.958847z"/>
	<rect x="223.7954865" y="142.1483154" class="st1" width="1.2294769" height="5.5888977"/>
	<polygon class="st1" points="227.724762,143.2814941 226.024353,143.2814941 226.024353,142.1483154 230.6541595,142.1483154 
		230.6541595,143.2814941 228.9537506,143.2814941 228.9537506,147.7371979 227.724762,147.7371979 	"/>
	<path class="st1" d="M236.1746826,142.1483154h-2.1791382v5.5888672h2.1791382
		c1.7559814,0,2.9693604-1.2219238,2.9693604-2.7949219v-0.015625
		C239.144043,143.3536377,237.9306641,142.1483154,236.1746826,142.1483154z M237.8589478,144.9588623
		c0,0.9898071-0.6785889,1.6685791-1.6842651,1.6685791h-0.9501953v-3.3693848h0.9501953
		c1.0056763,0,1.6842651,0.694397,1.6842651,1.6842041V144.9588623z"/>
	<path class="st1" d="M243.7056274,145.7409668c0.7107544-0.2633057,1.1972656-0.829895,1.1972656-1.7329712v-0.015564
		c0-0.5266113-0.1671753-0.9664307-0.4786987-1.2775269c-0.3671265-0.3676758-0.9179688-0.5665894-1.6282959-0.5665894h-2.5545044
		v5.5888672h1.2290039v-1.7885132h0.9662476l1.1972656,1.7885132h1.4367065L243.7056274,145.7409668z M243.6578369,144.0723877
		c0,0.4710083-0.3432007,0.7908936-0.9418945,0.7908936h-1.2455444v-1.6052246h1.2216797
		c0.5986328,0,0.9657593,0.2711182,0.9657593,0.7987061V144.0723877z"/>
	<path class="st1" d="M245.9281158,145.3421021v-3.1937866h1.2294769v3.1616058
		c0,0.9098663,0.4548492,1.3808899,1.2055969,1.3808899c0.7502747,0,1.2051086-0.4544525,1.2051086-1.3409119v-3.2015839h1.2294769
		v3.1538086c0,1.6929474-0.949646,2.5228424-2.4506683,2.5228424S245.9281158,146.9862976,245.9281158,145.3421021z"/>
	<path class="st1" d="M251.8069153,144.958847v-0.016571c0-1.5886078,1.2372742-2.8895416,2.9298859-2.8895416
		c1.005722,0,1.6121674,0.2711182,2.1952362,0.76651l-0.7746582,0.9332733
		c-0.4309387-0.3588715-0.8141174-0.5665894-1.460556-0.5665894c-0.8940735,0-1.6048584,0.7908936-1.6048584,1.7407379v0.0156097
		c0,1.0220032,0.7024994,1.7729187,1.6926117,1.7729187c0.4470367,0,0.8463135-0.1121521,1.1573334-0.3354797v-0.7986908h-1.2372742
		v-1.0619965h2.4267731v2.4272919c-0.5747681,0.4875946-1.3650055,0.8864594-2.3868103,0.8864594
		C253.0042114,147.8327789,251.8069153,146.6118164,251.8069153,144.958847z"/>
	<path class="st1" d="M257.9328613,146.9229126l0.7268677-0.8708649c0.5026245,0.4154358,1.0296021,0.6787415,1.6682434,0.6787415
		c0.5031128,0,0.8063354-0.1989441,0.8063354-0.5266113v-0.0155945c0-0.3120728-0.1915894-0.4710236-1.1256409-0.7109222
		c-1.1256409-0.2876892-1.8520203-0.5987854-1.8520203-1.7085571v-0.0165863c0-1.0132294,0.8141174-1.6841736,1.9558411-1.6841736
		c0.8141479,0,1.5088196,0.2555084,2.0753174,0.7109222l-0.6386414,0.9254761
		c-0.494812-0.343277-0.9818115-0.5509949-1.4527588-0.5509949c-0.4709167,0-0.7185669,0.2155151-0.7185669,0.4875946v0.0156097
		c0,0.3676453,0.2398376,0.4875946,1.2055969,0.7343292c1.1334229,0.2954865,1.7720642,0.703125,1.7720642,1.6773529v0.0155945
		c0,1.109787-0.8463135,1.7329407-2.0514221,1.7329407C259.4577942,147.8171692,258.6036682,147.5216827,257.9328613,146.9229126z"
		/>
</g>
</svg>
