<?xml version="1.0" encoding="utf-8"?>
<!-- Generator: Adobe Illustrator 26.3.1, SVG Export Plug-In . SVG Version: 6.00 Build 0)  -->
<svg version="1.1" id="Layer_1" xmlns="http://www.w3.org/2000/svg" xmlns:xlink="http://www.w3.org/1999/xlink" x="0px" y="0px"
	 viewBox="0 0 300 250" style="enable-background:new 0 0 300 250;" xml:space="preserve">
<style type="text/css">
	.st0{fill:#FFFFFF;}
	.st1{fill:none;}
</style>
<g>
	<path class="st0" d="M249.0771027,90.9664154c-1.381012,0-2.5050049,1.1309967-2.5050049,2.5209961v0.0160065
		c0,1.3799896,1.1239929,2.5049896,2.5050049,2.5049896c1.3819885,0,2.5059967-1.1309967,2.5059967-2.5349884
		C251.5830994,92.0904083,250.4590912,90.9664154,249.0771027,90.9664154 M249.0771027,95.6244049
		c-1.1830139,0-2.1100006-0.9319916-2.1100006-2.1209869v-0.0160065c0-1.1779938,0.946991-2.1360016,2.1100006-2.1360016
		c1.1819916,0,2.1079865,0.9320068,2.1079865,2.1360016C251.1850891,94.6664124,250.240097,95.6244049,249.0771027,95.6244049"/>
	<path class="st0" d="M249.7239838,93.7970123c0.3370056-0.1119995,0.5619965-0.3789978,0.5619965-0.7880096
		c0-0.5769958-0.4339905-0.8430023-1.026001-0.8430023h-1.1949921v2.5450134h0.6190033v-0.802002h0.3929901l0.5480042,0.802002
		h0.7470093L249.7239838,93.7970123z M249.2189941,93.4029999h-0.5350037v-0.7039948h0.5350037
		c0.2649994,0,0.4339905,0.128006,0.4339905,0.3540039C249.6529846,93.2630005,249.4999847,93.4029999,249.2189941,93.4029999"/>
	<path class="st0" d="M92.513298,129.8668976l0.6029968-0.8430023c0.8639984,0.6440125,1.8219986,1.0120087,2.7630005,1.0120087
		c0.9580002,0,1.6539993-0.4910126,1.6539993-1.2570038v-0.0299988c0-0.7969971-0.9430008-1.1039963-1.9919968-1.3949966
		c-1.2520065-0.3530045-2.6420059-0.7830048-2.6420059-2.2370071v-0.0319977c0-1.362999,1.1430054-2.2669983,2.7180023-2.2669983
		c0.9729996,0,2.0550003,0.336998,2.8740005,0.8720016l-0.5410004,0.8899994
		c-0.7419968-0.4749985-1.5910034-0.7669983-2.3639984-0.7669983c-0.9410019,0-1.5439987,0.4909973-1.5439987,1.1499939v0.0310059
		c0,0.75,0.9889984,1.0419998,2.0539932,1.3639984c1.2360001,0.3679962,2.564003,0.8419952,2.564003,2.2679977v0.0299988
		c0,1.503006-1.25,2.3759918-2.8409958,2.3759918C94.675293,131.0318909,93.4092941,130.5868988,92.513298,129.8668976"/>
	<path class="st0" d="M106.8284988,126.955101v-0.0299988c0-1.7019958-1.2819977-3.0960007-2.9659958-3.0960007
		c-1.7290039,0-2.9180069,1.3940048-2.9180069,3.0650024v0.0309982c0,1.7000046,1.2660065,3.0799942,2.9490051,3.0799942
		C105.623497,130.0050964,106.8284988,128.6251068,106.8284988,126.955101 M99.7235031,126.955101v-0.0299988
		c0-2.2389984,1.760994-4.1380005,4.1699982-4.1380005c2.3939972,0,4.1549988,1.8690033,4.1549988,4.1070023v0.0309982
		c0,2.2360001-1.776001,4.137001-4.185997,4.137001C101.4684982,131.0621033,99.7235031,129.1931152,99.7235031,126.955101"/>
	<path class="st0" d="M109.8753967,123.9969025h-1.0960007v-1.0259933h1.0960007v-0.6910019
		c0-0.9029999,0.246994-1.5930023,0.6949997-2.0379944c0.4009933-0.3980103,0.9889984-0.6119995,1.7149963-0.6119995
		c0.5550003,0,0.9260025,0.0609894,1.3119965,0.1989899v1.0270081c-0.4319992-0.1230011-0.7569962-0.1990051-1.1569977-0.1990051
		c-0.9280014,0-1.3909988,0.552002-1.3909988,1.6849976v0.6440048h2.5319977v1.010994h-2.5169983v6.8820038h-1.1889954V123.9969025z
		"/>
	<path class="st0" d="M120.9532928,126.955101v-0.0299988c0-1.7019958-1.2819977-3.0960007-2.9659958-3.0960007
		c-1.7290039,0-2.9180069,1.3940048-2.9180069,3.0650024v0.0309982c0,1.7000046,1.2660065,3.0799942,2.9490051,3.0799942
		C119.748291,130.0050964,120.9532928,128.6251068,120.9532928,126.955101 M113.8482971,126.955101v-0.0299988
		c0-2.2389984,1.760994-4.1380005,4.1699982-4.1380005c2.3939972,0,4.1549988,1.8690033,4.1549988,4.1070023v0.0309982
		c0,2.2360001-1.776001,4.137001-4.185997,4.137001C115.5932922,131.0621033,113.8482971,129.1931152,113.8482971,126.955101"/>
	<path class="st0" d="M122.9929962,129.8668976l0.6029968-0.8430023c0.8639984,0.6440125,1.8219986,1.0120087,2.7630005,1.0120087
		c0.9580002,0,1.6539917-0.4910126,1.6539917-1.2570038v-0.0299988c0-0.7969971-0.9429932-1.1039963-1.9919891-1.3949966
		c-1.2520065-0.3530045-2.6420059-0.7830048-2.6420059-2.2370071v-0.0319977c0-1.362999,1.1430054-2.2669983,2.7190018-2.2669983
		c0.9720001,0,2.0540009,0.336998,2.8730011,0.8720016l-0.5410004,0.8899994
		c-0.7419968-0.4749985-1.5910034-0.7669983-2.3639984-0.7669983c-0.9410019,0-1.5439987,0.4909973-1.5439987,1.1499939v0.0310059
		c0,0.75,0.9889984,1.0419998,2.0539932,1.3639984c1.2360001,0.3679962,2.5639954,0.8419952,2.5639954,2.2679977v0.0299988
		c0,1.503006-1.2499924,2.3759918-2.8409882,2.3759918C125.1549911,131.0318909,123.8889923,130.5868988,122.9929962,129.8668976"/>
	<path class="st0" d="M137.5740051,126.9395065v-0.0309982c0-1.8700027-1.2970123-3.0650024-2.8110046-3.0650024
		c-1.4830017,0-2.8890076,1.2420044-2.8890076,3.0500031v0.0309982c0,1.8380051,1.4060059,3.0649948,2.8890076,3.0649948
		C136.3079987,129.989502,137.5740051,128.8554993,137.5740051,126.9395065 M131.9210052,129.3615112v1.5169983h-1.1890106
		V119.690506h1.1890106v4.8590012c0.647995-0.9499969,1.5909882-1.7630005,3.0579987-1.7630005
		c1.9149933,0,3.8139954,1.5009995,3.8139954,4.1070023v0.0309982c0,2.5889969-1.8829956,4.1220016-3.8139954,4.1220016
		C133.496994,131.0465088,132.5390015,130.2495117,131.9210052,129.3615112"/>
	<path class="st0" d="M140.3551941,127.8746033v-4.9199982h1.1889954v4.6300049c0,1.470993,0.8029938,2.3899994,2.2089996,2.3899994
		c1.3589935,0,2.3950043-0.9970093,2.3950043-2.4830017v-4.5370026h1.1729889v7.923996h-1.1729889v-1.3800049
		c-0.5410004,0.8590088-1.3610077,1.5470123-2.7350006,1.5470123
		C141.482193,131.0456085,140.3551941,129.758606,140.3551941,127.8746033"/>
	<polygon class="st0" points="148.5469971,122.9548035 149.8599854,122.9548035 152.5469971,129.5298157 155.2509918,122.9548035 
		156.5319824,122.9548035 153.0569916,130.9398041 152.0059967,130.9398041 	"/>
	<path class="st0" d="M157.8040009,122.9550018h1.1889954v7.9229889h-1.1889954V122.9550018z M157.727005,119.9210052h1.3589935
		v1.302002h-1.3589935V119.9210052z"/>
	<path class="st0" d="M161.134201,122.9548035h1.1889954v2.0700073c0.5869904-1.3180008,1.7460022-2.2690048,3.2599945-2.2070007
		v1.2719955h-0.0930023c-1.7460022,0-3.1669922,1.2399979-3.1669922,3.6320038v3.1559982h-1.1889954V122.9548035z"/>
	<polygon class="st0" points="174.6903992,122.9548035 176.0033875,122.9548035 178.6903992,129.5298157 181.3943939,122.9548035 
		182.6753845,122.9548035 179.2003937,130.9398041 178.1493988,130.9398041 	"/>
	<path class="st0" d="M189.4011993,126.4804001c-0.1239929-1.4419937-0.9579926-2.6969986-2.548996-2.6969986
		c-1.3890076,0-2.4400024,1.1490021-2.5950012,2.6969986H189.4011993z M183.0532074,126.9393997v-0.0299988
		c0-2.2839966,1.621994-4.1230011,3.8309937-4.1230011c2.3629913,0,3.7220001,1.8710022,3.7220001,4.1850052
		c0,0.1520004,0,0.2439957-0.0160065,0.3829956h-6.3329926c0.1699982,1.7149963,1.3909912,2.6820068,2.8119965,2.6820068
		c1.0960083,0,1.8690033-0.4450073,2.5180054-1.1199951l0.7409973,0.6589966
		c-0.8040009,0.8889923-1.7770081,1.4869995-3.2910004,1.4869995
		C184.8451996,131.0624084,183.0532074,129.392395,183.0532074,126.9393997"/>
	<rect x="192.2640076" y="119.6909943" class="st0" width="1.1889954" height="11.1869965"/>
	<path class="st0" d="M202.4231873,126.9388046v-0.0299988c0-1.8689957-1.2979889-3.0649948-2.8119965-3.0649948
		c-1.4830017,0-2.8880005,1.2409973-2.8880005,3.0499954v0.0299988c0,1.840004,1.4049988,3.0649948,2.8880005,3.0649948
		C201.156189,129.9888,202.4231873,128.8547974,202.4231873,126.9388046 M195.5802002,122.9548035h1.1889954v1.5940018
		c0.6499939-0.9499969,1.5910034-1.7630005,3.0589905-1.7630005c1.9150085,0,3.8150024,1.503006,3.8150024,4.1080017v0.0299988
		c0,2.5909958-1.8849945,4.1230087-3.8150024,4.1230087c-1.4829865,0-2.4409943-0.7980042-3.0589905-1.6860046v3.9700012h-1.1889954
		V122.9548035z"/>
	<path class="st0" d="M210.552597,127.967598v-0.7679977c-0.5870056-0.1669998-1.375-0.336998-2.3470001-0.336998
		c-1.4990082,0-2.3320007,0.6439972-2.3320007,1.6409988v0.0299988c0,0.9960022,0.9259949,1.5780029,2.0070038,1.5780029
		C209.3475952,130.1116028,210.552597,129.2236023,210.552597,127.967598 M204.6676025,128.5795898v-0.0299988
		c0-1.6719894,1.3909912-2.5589905,3.4129944-2.5589905c1.0209961,0,1.7460022,0.1360016,2.4570007,0.3359985v-0.276001
		c0-1.4249954-0.8809967-2.159996-2.3789978-2.159996c-0.9420013,0-1.6840057,0.2439957-2.4250031,0.5820007l-0.3549957-0.9670029
		c0.8799896-0.3969955,1.7459869-0.6579971,2.9039917-0.6579971c1.1269989,0,1.9920044,0.2910004,2.5789948,0.8740005
		c0.5400085,0.5359955,0.8190002,1.3019943,0.8190002,2.3139954v4.8430023h-1.1429901v-1.1959991
		c-0.5570068,0.720993-1.4830017,1.3629913-2.8890076,1.3629913
		C206.1665955,131.0455933,204.6676025,130.203598,204.6676025,128.5795898"/>
	<path class="st0" d="M213.9136963,128.7785034v-4.7819977h-1.1120148v-1.0419998h1.1120148v-2.3909988h1.1889954v2.3909988
		h2.5329895v1.0419998h-2.5329895v4.6300049c0,0.9649963,0.5399933,1.3170013,1.3439941,1.3170013
		c0.401001,0,0.7409973-0.0769958,1.1580048-0.276001v1.0119934c-0.4170074,0.2140045-0.8650055,0.3370056-1.4360046,0.3370056
		C214.8866882,131.01651,213.9136963,130.3875122,213.9136963,128.7785034"/>
	<path class="st0" d="M224.4375916,127.967598v-0.7679977c-0.5859985-0.1669998-1.3739929-0.336998-2.3479919-0.336998
		c-1.4970093,0-2.3320007,0.6439972-2.3320007,1.6409988v0.0299988c0,0.9960022,0.9259949,1.5780029,2.0090027,1.5780029
		C223.2335968,130.1116028,224.4375916,129.2236023,224.4375916,127.967598 M218.5536041,128.5795898v-0.0299988
		c0-1.6719894,1.3889923-2.5589905,3.4129944-2.5589905c1.0189972,0,1.7449951,0.1360016,2.4559937,0.3359985v-0.276001
		c0-1.4249954-0.8809967-2.159996-2.3799896-2.159996c-0.9410095,0-1.6820068,0.2439957-2.4230042,0.5820007l-0.3569946-0.9670029
		c0.8809967-0.3969955,1.7459869-0.6579971,2.9049988-0.6579971c1.1269989,0,1.9919891,0.2910004,2.5799866,0.8740005
		c0.5400085,0.5359955,0.8180084,1.3019943,0.8180084,2.3139954v4.8430023h-1.1430054v-1.1959991
		c-0.5559998,0.720993-1.4819946,1.3629913-2.8880005,1.3629913
		C220.0505981,131.0455933,218.5536041,130.203598,218.5536041,128.5795898"/>
	<path class="st0" d="M226.8585968,129.8668976l0.6029968-0.8430023c0.8649902,0.6440125,1.821991,1.0120087,2.7649994,1.0120087
		c0.9559937,0,1.6519928-0.4910126,1.6519928-1.2570038v-0.0299988c0-0.7969971-0.9429932-1.1039963-1.9919891-1.3949966
		c-1.2520142-0.3530045-2.6410065-0.7830048-2.6410065-2.2370071v-0.0319977c0-1.362999,1.1419983-2.2669983,2.7180023-2.2669983
		c0.9720001,0,2.0540009,0.336998,2.8730011,0.8720016l-0.5410004,0.8899994
		c-0.7420044-0.4749985-1.5910034-0.7669983-2.3639984-0.7669983c-0.9410095,0-1.5440063,0.4909973-1.5440063,1.1499939v0.0310059
		c0,0.75,0.9889984,1.0419998,2.0540009,1.3639984c1.2359924,0.3679962,2.5650024,0.8419952,2.5650024,2.2679977v0.0299988
		c0,1.503006-1.2510071,2.3759918-2.8419952,2.3759918C229.0205841,131.0318909,227.7545929,130.5868988,226.8585968,129.8668976"/>
	<polygon class="st0" points="233.8144989,122.9548035 235.1274872,122.9548035 237.8154907,129.5298157 240.5184937,122.9548035 
		241.7994843,122.9548035 238.3244934,130.9398041 237.2734985,130.9398041 	"/>
	<path class="st0" d="M243.0720062,122.9550018h1.1900024v7.9229889h-1.1900024V122.9550018z M242.9960022,119.9210052h1.3589935
		v1.302002h-1.3589935V119.9210052z"/>
	<path class="st0" d="M246.4082031,122.9548035h1.1889954v2.0700073c0.5869904-1.3180008,1.7460022-2.2690048,3.2599945-2.2070007
		v1.2719955h-0.0930023c-1.7460022,0-3.1669922,1.2399979-3.1669922,3.6320038v3.1559982h-1.1889954V122.9548035z"/>
	<path class="st0" d="M62.012001,82.2106018l-0.4090004-0.54599l-0.3320007-0.3410034
		c-1.6580009-1.8730011-3.651001-3.3759918-5.9249992-4.470993c-2.5610008-1.2290039-5.2970009-1.8530121-8.1310005-1.8530121
		c-7.182003,0-13.8330002,4.1840057-16.9459991,10.6620026c-2.1720009,4.526001-2.4510002,9.6260071-0.7880001,14.3590088
		c1.6639996,4.7369995,5.0749989,8.5429993,9.6019993,10.7149963c2.4720001,1.1849976,5.1110001,1.8069916,7.8470001,1.8470001
		l39.4369965,0.0090027L62.012001,82.2106018z M41.5470009,105.5986023
		c-3.1550026-1.5119934-5.5300026-4.1639862-6.6900024-7.4669952c-1.1599998-3.2980042-0.9650002-6.8509979,0.5489998-10.0050049
		c2.1690025-4.5139923,6.8050003-7.4289856,11.8090019-7.4289856c1.973999,0,3.8789978,0.4339905,5.6639977,1.2909851
		c1.6220016,0.7810059,3.0360031,1.8580017,4.2060013,3.2020111l0.1780014,0.1849976l0.2479973,0.3289948l16.9850044,21.1870117
		l-27.4810028-0.006012C45.1100006,106.857605,43.2700005,106.4256134,41.5470009,105.5986023"/>
	<path class="st0" d="M55.2597008,87.451004l-0.1660004-0.220993l-0.1100006-0.1139984
		c-0.9239998-1.0769958-2.0470009-1.9380035-3.3380013-2.5590057c-1.3959999-0.6699982-2.8859978-1.0119934-4.4309998-1.0119934
		c-3.9160004,0-7.5429993,2.2830048-9.2399979,5.8139954c-1.1840019,2.4680023-1.3370018,5.2480011-0.4300003,7.82901
		c0.9069977,2.5839996,2.7659988,4.6569977,5.2339973,5.8419952c1.3490028,0.6459961,2.788002,0.9859924,4.2790031,1.0079956
		l21.5019989,0.003006L55.2597008,87.451004z"/>
	<polygon class="st0" points="92.6640015,90.9161987 108.6500015,90.9161987 108.6500015,94.3041992 96.4519958,94.3041992 
		96.4519958,99.9092102 107.2630005,99.9092102 107.2630005,103.2982025 96.4519958,103.2982025 96.4519958,109.0892029 
		108.8030014,109.0892029 108.8030014,112.4762115 92.6640015,112.4762115 	"/>
	<path class="st0" d="M115.8703995,90.9156036h8.5009995c5.0519867,0,8.1929932,2.8649902,8.1929932,7.2079926v0.0610046
		c0,4.8359985-3.8809967,7.3619995-8.6239929,7.3619995h-4.2820053v6.9300079h-3.7879944V90.9156036z M124.0634003,102.127594
		c2.8649979,0,4.6509857-1.6019897,4.6509857-3.8499908v-0.0610046c0-2.526001-1.8169861-3.8499908-4.6509857-3.8499908h-4.4050064
		v7.7609863H124.0634003z"/>
	<path class="st0" d="M137.6210938,101.7581024v-0.0619965c0-6.1289978,4.5899963-11.1499939,11.118988-11.1499939
		c3.973999,0,6.375,1.3869934,8.4390106,3.3580017l-2.4329987,2.802002
		c-1.7240143-1.6010132-3.5720062-2.6790009-6.0370026-2.6790009c-4.0970001,0-7.1150055,3.3869934-7.1150055,7.6080017v0.0609894
		c0,4.2210083,2.9880066,7.6390076,7.1150055,7.6390076c2.647995,0,4.3430023-1.0480042,6.1920013-2.7730103l2.4329987,2.4650116
		c-2.2490082,2.3409882-4.7129974,3.8190002-8.7480011,3.8190002
		C142.3020935,112.8461151,137.6210938,107.9491119,137.6210938,101.7581024"/>
	<polygon class="st0" points="163.8762054,90.9161987 167.6641998,90.9161987 167.6641998,109.0272064 178.9991913,109.0272064 
		178.9991913,112.4762115 163.8762054,112.4762115 	"/>
	<path class="st0" d="M183.6784058,103.3287048V90.9167175h3.7879944v12.2589874c0,4.003006,2.0639954,6.128006,5.4530029,6.128006
		c3.3560028,0,5.4199982-2.0019989,5.4199982-5.9750061V90.9167175h3.7879944v12.2269897
		c0,6.4380035-3.6340027,9.6720123-9.2709961,9.6720123C187.2503967,112.8157196,183.6784058,109.5817108,183.6784058,103.3287048"
		/>
	<path class="st0" d="M208.4555054,109.3348999l2.2799988-2.7109985c2.0639954,1.7860107,4.1569977,2.8040009,6.8059998,2.8040009
		c2.3399963,0,3.8199921-1.1089935,3.8199921-2.7109985v-0.0609894c0-1.5400085-0.8629913-2.3730011-4.8670044-3.2960052
		c-4.5899963-1.1090088-7.1759949-2.4640045-7.1759949-6.4380035v-0.0610046c0-3.696991,3.0800018-6.2529907,7.3610077-6.2529907
		c3.1409912,0,5.6369934,0.9550018,7.822998,2.7109985l-2.0330048,2.8639984
		c-1.9409943-1.4470062-3.8800049-2.2169952-5.852005-2.2169952c-2.2169952,0-3.5110016,1.1389923-3.5110016,2.5559998v0.0609894
		c0,1.6630096,0.9850006,2.4029999,5.1440125,3.3880005c4.5579987,1.1090088,6.8990021,2.7420044,6.8990021,6.3140106v0.0619965
		c0,4.0350037-3.1720123,6.4369965-7.701004,6.4369965C214.1544952,112.783905,211.0424957,111.6449127,208.4555054,109.3348999"/>
	<path class="st0" d="M238.0442963,90.7619019h3.5099945l9.4880066,21.7149963h-4.0050049l-2.1869965-5.2059937h-10.1940002
		l-2.2180023,5.2059937h-3.8800049L238.0442963,90.7619019z M243.4653015,103.9138947l-3.727005-8.6239929l-3.6959991,8.6239929
		H243.4653015z"/>
	<path class="st0" d="M141.5124969,139.1383972h0.9009857v1.0180054c0.3970032-0.5960083,0.9350128-1.1470032,1.9520111-1.1470032
		c0.9830017,0,1.6139984,0.526001,1.9429932,1.2059937c0.4309998-0.6679993,1.0749969-1.2059937,2.1269989-1.2059937
		c1.3930054,0,2.2460022,0.9360046,2.2460022,2.4339905v3.7420044h-0.9019928v-3.5319824
		c0-1.1700134-0.5830078-1.8240051-1.5660095-1.8240051c-0.9129944,0-1.6600037,0.6779938-1.6600037,1.8710022v3.4849854h-0.9019928
		v-3.5559998c0-1.1349945-0.595993-1.7999878-1.5540009-1.7999878c-0.9589996,0-1.6840057,0.7939911-1.6840057,1.9049988v3.4509888
		h-0.9009857V139.1383972z"/>
	<path class="st0" d="M152.0868835,146.237915l0.4090118-0.7020111c0.6909943,0.503006,1.4629974,0.7710114,2.3280029,0.7710114
		c1.3329926,0,2.1989899-0.7350159,2.1989899-2.1520081v-0.7120056c-0.526001,0.7019958-1.2630005,1.2730103-2.3739929,1.2730103
		c-1.4499969,0-2.8430023-1.0870056-2.8430023-2.82901v-0.022995c0-1.7649994,1.4039917-2.8540039,2.8430023-2.8540039
		c1.1349945,0,1.871994,0.5600128,2.3619995,1.2160034v-1.0870056h0.8999939v4.9940033
		c0,0.9360046-0.2799988,1.6490021-0.7709961,2.1399994c-0.5379944,0.5370026-1.3450012,0.8069916-2.303009,0.8069916
		C153.829895,147.079895,152.8938904,146.7989044,152.0868835,146.237915 M157.0458984,141.8749084v-0.0230103
		c0-1.2389832-1.076004-2.0469971-2.2220001-2.0469971c-1.1460114,0-2.0930023,0.7950134-2.0930023,2.0350037v0.0240021
		c0,1.2169952,0.970993,2.0579987,2.0930023,2.0579987C155.9698944,143.9219055,157.0458984,143.0919037,157.0458984,141.8749084"/>
	<path class="st0" d="M120.2528,143.2445068h-4.3160019l-0.2340012-0.6790161l4.6319962-5.6269836h0.8180008v5.5329895h1.2639999
		v0.7730103h-1.2639999v1.9409943H120.2528V143.2445068z M120.2528,142.4714966v-4.2220001l-3.4380035,4.2220001H120.2528z"/>
	<path class="st0" d="M123.2954941,141.115799v-0.0249939c0-2.2920074,1.3679962-4.2330017,3.4729996-4.2330017
		c2.1040039,0,3.4380035,1.9170074,3.4380035,4.2109985v0.0220032c0,2.2939911-1.3560028,4.2350006-3.4610062,4.2350006
		C124.6284943,145.3258057,123.2954941,143.4067993,123.2954941,141.115799 M129.2474976,141.115799v-0.0249939
		c0-1.7890015-0.9820099-3.3899994-2.5020065-3.3899994c-1.5319977,0-2.4919968,1.5650024-2.4919968,3.3679962v0.0220032
		c0,1.7899933,0.9830017,3.3929901,2.5149994,3.3929901S129.2474976,142.9048004,129.2474976,141.115799"/>
	<path class="st0" d="M131.1795044,141.115799v-0.0249939c0-2.2920074,1.3669891-4.2330017,3.4729919-4.2330017
		c2.105011,0,3.4380035,1.9170074,3.4380035,4.2109985v0.0220032c0,2.2939911-1.3560028,4.2350006-3.4600067,4.2350006
		C132.5124969,145.3258057,131.1795044,143.4067993,131.1795044,141.115799 M137.1325073,141.115799v-0.0249939
		c0-1.7890015-0.9830017-3.3899994-2.5020142-3.3899994c-1.5329895,0-2.4919891,1.5650024-2.4919891,3.3679962v0.0220032
		c0,1.7899933,0.9819946,3.3929901,2.5139923,3.3929901S137.1325073,142.9048004,137.1325073,141.115799"/>
	<polygon class="st0" points="173.2052002,118.6486969 174.2171936,118.6486969 167.1051941,132.8386993 166.0951996,132.8386993 	
		"/>
	<polygon class="st0" points="169.0684967,137.9133911 167.532486,138.3904114 167.3114929,137.645401 169.3004913,136.9594116 
		169.9764862,136.9594116 169.9764862,145.1664124 169.0684967,145.1664124 	"/>
	<path class="st0" d="M171.7341919,141.1147003v-0.022995c0-2.2819977,1.3609924-4.2140045,3.4570007-4.2140045
		c2.0950012,0,3.4219971,1.9090118,3.4219971,4.1900024v0.0240021c0,2.2810059-1.348999,4.2129974-3.4450073,4.2129974
		C173.0611877,145.3047028,171.7341919,143.3957062,171.7341919,141.1147003 M177.6591949,141.1147003v-0.022995
		c0-1.7810059-0.977005-3.3769989-2.4910126-3.3769989c-1.5249939,0-2.4799957,1.5609894-2.4799957,3.3529968v0.0240021
		c0,1.7799988,0.9779968,3.3760071,2.503006,3.3760071C176.7161865,144.4677124,177.6591949,142.8957062,177.6591949,141.1147003"/>
	<path class="st0" d="M179.7297974,141.1147003v-0.022995c0-2.2819977,1.3609924-4.2140045,3.4570007-4.2140045
		c2.0950012,0,3.4219971,1.9090118,3.4219971,4.1900024v0.0240021c0,2.2810059-1.348999,4.2129974-3.4450073,4.2129974
		C181.0567932,145.3047028,179.7297974,143.3957062,179.7297974,141.1147003 M185.6548004,141.1147003v-0.022995
		c0-1.7810059-0.977005-3.3769989-2.4910126-3.3769989c-1.5249939,0-2.4799957,1.5609894-2.4799957,3.3529968v0.0240021
		c0,1.7799988,0.9779968,3.3760071,2.503006,3.3760071C184.711792,144.4677124,185.6548004,142.8957062,185.6548004,141.1147003"/>
	<path class="st0" d="M190.2158051,139.1473083h0.8959961v1.0130005c0.3970032-0.5939941,0.9319916-1.1400146,1.9449921-1.1400146
		c0.977005,0,1.6060028,0.5220032,1.9309998,1.1980133c0.4320068-0.6630096,1.0720062-1.1980133,2.1200104-1.1980133
		c1.3849945,0,2.2350006,0.9300079,2.2350006,2.4210205v3.723999h-0.8970032v-3.5140076
		c0-1.1660004-0.5820007-1.8170013-1.5590057-1.8170013c-0.9089966,0-1.6539917,0.6750031-1.6539917,1.8619995v3.4690094h-0.8960114
		v-3.5380096c0-1.1289978-0.5939941-1.7929993-1.5479889-1.7929993c-0.95401,0-1.677002,0.7910004-1.677002,1.897995v3.4330139
		h-0.8959961V139.1473083z"/>
	<path class="st0" d="M200.8891907,146.2134094l0.4060059-0.697998c0.6869965,0.5009918,1.4559937,0.7679901,2.3170013,0.7679901
		c1.3269958,0,2.1880035-0.7330017,2.1880035-2.1419983v-0.7109985c-0.5230103,0.6989899-1.256012,1.2700043-2.3619995,1.2700043
		c-1.4430084,0-2.82901-1.0830078-2.82901-2.8180084v-0.0219879c0-1.7590027,1.3970032-2.8410034,2.82901-2.8410034
		c1.1289978,0,1.8619995,0.5579834,2.3509979,1.2109985v-1.0830078h0.8959961v4.9710083
		c0,0.9309998-0.279007,1.6409912-0.7680054,2.1300049c-0.5349884,0.5359802-1.3389893,0.8029785-2.2929993,0.8029785
		C202.6221924,147.0513916,201.6921997,146.7723999,200.8891907,146.2134094 M205.8242035,141.8713989v-0.0239868
		c0-1.2330017-1.0710144-2.0360107-2.2120056-2.0360107c-1.1410065,0-2.0830078,0.7910004-2.0830078,2.0249939v0.0240173
		c0,1.2099915,0.9660034,2.0489807,2.0830078,2.0489807C204.7531891,143.9093933,205.8242035,143.0823975,205.8242035,141.8713989"
		/>
	<path class="st0" d="M211.7006073,143.571106v-3.6320038h-0.8380127v-0.7920074h0.8380127v-1.8150024h0.8959961v1.8150024H214.5056
		v0.7920074h-1.9089966v3.5160065c0,0.7330017,0.4079895,1.0009918,1.0130005,1.0009918
		c0.3029938,0,0.5589905-0.0579987,0.8739929-0.2100067v0.7680054c-0.3150024,0.1629944-0.6529999,0.256012-1.0839996,0.256012
		C212.4346008,145.2701111,211.7006073,144.7930908,211.7006073,143.571106"/>
	<path class="st0" d="M215.5759888,143.4197998v-0.0240021c0-1.2689972,1.0480042-1.9430084,2.572998-1.9430084
		c0.7680054,0,1.3150024,0.105011,1.8510132,0.2550049v-0.2079926c0-1.0829926-0.6640015-1.6429901-1.7929993-1.6429901
		c-0.7110138,0-1.2690125,0.1869812-1.8280029,0.4429932l-0.2680054-0.7330017
		c0.6640015-0.303009,1.3159943-0.5010071,2.1880035-0.5010071c0.8509979,0,1.5029907,0.2220154,1.9440002,0.6640015
		c0.4080048,0.4060059,0.6179962,0.9890137,0.6179962,1.7570038v3.6790009H220v-0.9080048
		c-0.4190063,0.5470123-1.1190033,1.0370026-2.177002,1.0370026
		C216.7049866,145.2947998,215.5759888,144.6528015,215.5759888,143.4197998 M220.0110016,142.9537964v-0.5820007
		c-0.4420013-0.1269989-1.0350037-0.2559967-1.7700043-0.2559967c-1.1289978,0-1.7570038,0.4879913-1.7570038,1.2460022v0.0219879
		c0,0.7580109,0.697998,1.2000122,1.5130005,1.2000122C219.1029968,144.5838013,220.0110016,143.9087982,220.0110016,142.9537964"/>
	<path class="st0" d="M223.6067963,144.0131073v1.1529999h-0.8960114v-8.4980011h0.8960114v3.6890106
		c0.4899902-0.7210083,1.1989899-1.3380127,2.3049927-1.3380127c1.4430084,0,2.875,1.1409912,2.875,3.1199951v0.0240173
		c0,1.9659882-1.4189911,3.1309814-2.875,3.1309814C224.7947845,145.2940979,224.0727844,144.6891174,223.6067963,144.0131073
		 M227.8677979,142.1741028v-0.0239868c0-1.4190063-0.977005-2.3280029-2.1190033-2.3280029
		c-1.1170044,0-2.1760101,0.9429932-2.1760101,2.3169861v0.0240173c0,1.3959961,1.0590057,2.3279877,2.1760101,2.3279877
		C226.912796,144.4911041,227.8677979,143.6281128,227.8677979,142.1741028"/>
	<rect x="230.4620056" y="136.6679993" class="st0" width="0.8959961" height="8.4980011"/>
	<path class="st0" d="M233.0101929,142.1750031v-0.0240021c0-1.7350006,1.2220001-3.1309967,2.8869934-3.1309967
		c1.7819977,0,2.8059998,1.4199982,2.8059998,3.1769867c0,0.1170044,0,0.1870117-0.0119934,0.2920074h-4.7720032
		c0.1269989,1.3029938,1.0469971,2.0359955,2.1170044,2.0359955c0.8269958,0,1.4089966-0.3369904,1.8990021-0.848999
		l0.5579987,0.5010071c-0.605011,0.673996-1.3380127,1.1289978-2.4790039,1.1289978
		C234.3611908,145.3059998,233.0101929,144.0370026,233.0101929,142.1750031 M237.7951965,141.8249969
		c-0.0930023-1.094986-0.7220001-2.048996-1.9220123-2.048996c-1.04599,0-1.8379974,0.8730011-1.9539948,2.048996H237.7951965z"/>
	<path class="st0" d="M240.5294952,143.571106v-3.6320038h-0.8380127v-0.7920074h0.8380127v-1.8150024h0.8959961v1.8150024
		h1.9089966v0.7920074h-1.9089966v3.5160065c0,0.7330017,0.4079895,1.0009918,1.0130005,1.0009918
		c0.3029938,0,0.5589905-0.0579987,0.8739929-0.2100067v0.7680054c-0.3150024,0.1629944-0.6529999,0.256012-1.0839996,0.256012
		C241.2634888,145.2701111,240.5294952,144.7930908,240.5294952,143.571106"/>
	<path class="st0" d="M244.3583984,144.3975983l0.4529877-0.6399994c0.6529999,0.4880066,1.375,0.7669983,2.0839996,0.7669983
		c0.7230072,0,1.2450104-0.371994,1.2450104-0.9539948v-0.022995c0-0.6060028-0.7089996-0.8380127-1.5010071-1.0590057
		c-0.9429932-0.2679901-1.9909973-0.5950012-1.9909973-1.6989899v-0.0240173c0-1.0369873,0.8630066-1.7219849,2.048996-1.7219849
		c0.7340088,0,1.548996,0.2549896,2.1650085,0.6629944l-0.4060059,0.6749878
		c-0.5590057-0.3609924-1.1990051-0.5820007-1.7810059-0.5820007c-0.7109985,0-1.1639862,0.3720093-1.1639862,0.8740082v0.0220032
		c0,0.5709991,0.7449951,0.7920074,1.5469971,1.0370026c0.9319916,0.2789917,1.9329987,0.6399994,1.9329987,1.7220001v0.0240021
		c0,1.1399841-0.9430084,1.8039856-2.1419983,1.8039856C245.9883881,145.2825928,245.0333862,144.9446106,244.3583984,144.3975983"
		/>
	<polygon class="st0" points="165.3027954,135.9550018 166.1317902,135.9550018 160.7057953,146.7850037 159.8747864,146.7850037 	
		"/>
</g>
<polygon points="254.5451965,90.6604004 263.3391724,105.9454041 263.3421936,105.9454041 272.1821899,90.6654053 
	272.1821899,90.6604004 "/>
<rect class="st1" width="300" height="250"/>
</svg>
