<?xml version="1.0" encoding="utf-8"?>
<!-- Generator: Adobe Illustrator 26.3.1, SVG Export Plug-In . SVG Version: 6.00 Build 0)  -->
<svg version="1.1" id="Layer_1" xmlns="http://www.w3.org/2000/svg" xmlns:xlink="http://www.w3.org/1999/xlink" x="0px" y="0px"
	 viewBox="0 0 300 250" style="enable-background:new 0 0 300 250;" xml:space="preserve">
<style type="text/css">
	.st0{fill:#35C4AF;}
	.st1{fill:#FFFFFF;}
</style>
<g>
	<g>
		<path class="st0" d="M202.7422638,89.7723389l0.6000366-0.6001587
			c15.8377075-0.3595047,24.9551544-10.0799561,24.9551544-21.6009064V67.331604
			c0-9.8402786-7.6787415-20.5204048-19.9161987-20.5204048c-9.5976868,0-16.9169922,4.6794853-23.1550293,12.3597794
			l-4.3200989-3.5999832c6.8390656-8.5201263,14.9970551-14.2801056,27.7147369-14.2801056
			c15.8377228,0,26.0354462,12.9599419,26.0354462,25.8010597v0.2396545c0,14.8812714-11.5176086,25.2008972-25.4353943,26.8815536
			l-0.730835,16.7985992h-5.1567688L202.7422638,89.7723389z"/>
		<path class="st0" d="M209.5887451,119.3814774c0,2.0102005-1.6294098,3.6389313-3.6391907,3.6389313
			c-2.0088043,0-3.6381989-1.6287308-3.6381989-3.6389313c0-2.0111923,1.6293945-3.6389313,3.6381989-3.6389313
			C207.9593353,115.7425461,209.5887451,117.370285,209.5887451,119.3814774"/>
	</g>
	<path class="st1" d="M143.8996582,61.7544556h-1.9398193v5.5888672h1.9398193c1.7564697,0,2.9698486-1.2219238,2.9698486-2.7949219
		v-0.015564C146.8695068,62.9598389,145.6561279,61.7544556,143.8996582,61.7544556z M146.2147827,64.5650024
		c0,1.2375488-0.9018555,2.1951904-2.3151245,2.1951904h-1.30896v-4.4235229h1.30896
		c1.413269,0,2.3151245,0.9742432,2.3151245,2.211731V64.5650024z"/>
	<path class="st1" d="M150.8163452,61.6588745c-1.7004395,0-2.8582764,1.3486938-2.8582764,2.8895264v0.0166016
		c0,1.5408325,1.1417847,2.8739014,2.8421631,2.8739014c1.7004395,0,2.8577271-1.3486938,2.8577271-2.8905029v-0.015564
		C153.657959,62.9920044,152.5167236,61.6588745,150.8163452,61.6588745z M153.0037231,64.5650024
		c0,1.2697144-0.9101562,2.291748-2.1873779,2.291748c-1.2772827,0-2.2035522-1.0386353-2.2035522-2.3083496v-0.015564
		c0-1.2697144,0.9101562-2.291748,2.187439-2.291748s2.2034912,1.0385742,2.2034912,2.307312V64.5650024z"/>
	<polygon class="st1" points="154.9951935,61.7544594 159.0346375,61.7544594 159.0346375,62.3288536 155.6260223,62.3288536 
		155.6260223,64.2373276 158.6753387,64.2373276 158.6753387,64.8126984 155.6260223,64.8126984 155.6260223,66.768959 
		159.0746155,66.768959 159.0746155,67.3433533 154.9951935,67.3433533 	"/>
	<path class="st1" d="M159.9794159,66.5290604l0.390976-0.4632263c0.5830536,0.5266113,1.1417389,0.7908936,1.9158936,0.7908936
		c0.7502594,0,1.2455597-0.3998337,1.2455597-0.9508286v-0.0156021c0-0.5188065-0.2793274-0.8142929-1.4527588-1.0619965
		c-1.2855377-0.2798843-1.8763885-0.6943436-1.8763885-1.6129875v-0.0156021c0-0.8786583,0.7746429-1.525219,1.8364105-1.525219
		c0.8141327,0,1.396698,0.2311249,1.9636688,0.6865425l-0.3670959,0.4866295
		c-0.5191803-0.4222641-1.0378876-0.6065788-1.6126556-0.6065788c-0.7263794,0-1.1894989,0.3998337-1.1894989,0.9020653v0.0165787
		c0,0.5266075,0.2871399,0.822094,1.5166168,1.0854034c1.245575,0.2720795,1.8203278,0.7265244,1.8203278,1.5808029v0.0165787
		c0,0.9576492-0.7985229,1.5808029-1.9080811,1.5808029C161.3761139,67.423317,160.6497345,67.1278305,159.9794159,66.5290604z"/>
	<path class="st1" d="M167.487442,66.5290604l0.390976-0.4632263c0.5830536,0.5266113,1.1417389,0.7908936,1.9158936,0.7908936
		c0.7507477,0,1.245575-0.3998337,1.245575-0.9508286v-0.0156021c0-0.5188065-0.2793427-0.8142929-1.4532471-1.0619965
		c-1.2850647-0.2798843-1.8759155-0.6943436-1.8759155-1.6129875v-0.0156021c0-0.8786583,0.7746429-1.525219,1.8364258-1.525219
		c0.8141327,0,1.396698,0.2311249,1.9636536,0.6865425l-0.3670807,0.4866295
		c-0.5191956-0.4222641-1.0379028-0.6065788-1.6126556-0.6065788c-0.7263794,0-1.1895142,0.3998337-1.1895142,0.9020653v0.0165787
		c0,0.5266075,0.2876282,0.822094,1.5166168,1.0854034c1.245575,0.2720795,1.820343,0.7265244,1.820343,1.5808029v0.0165787
		c0,0.9576492-0.7985382,1.5808029-1.9080963,1.5808029C168.8846283,67.423317,168.1577606,67.1278305,167.487442,66.5290604z"/>
	<polygon class="st1" points="172.9660034,61.7544594 173.5968323,61.7544594 173.5968323,64.2373276 176.8216705,64.2373276 
		176.8216705,61.7544594 177.4524994,61.7544594 177.4524994,67.3433533 176.8216705,67.3433533 176.8216705,64.8283005 
		173.5968323,64.8283005 173.5968323,67.3433533 172.9660034,67.3433533 	"/>
	<polygon class="st1" points="179.0363922,61.7544594 183.0758362,61.7544594 183.0758362,62.3288536 179.6672211,62.3288536 
		179.6672211,64.2373276 182.7165527,64.2373276 182.7165527,64.8126984 179.6672211,64.8126984 179.6672211,66.768959 
		183.1158142,66.768959 183.1158142,67.3433533 179.0363922,67.3433533 	"/>
	<polygon class="st1" points="186.783783,61.7544594 187.4146118,61.7544594 187.4146118,65.0916061 190.6233521,61.7544594 
		191.4457703,61.7544594 189.0428772,64.1973419 191.5418091,67.3433533 190.7510834,67.3433533 188.604126,64.6361847 
		187.4146118,65.842514 187.4146118,67.3433533 186.783783,67.3433533 	"/>
	<polygon class="st1" points="192.5265656,61.7544594 193.1174164,61.7544594 196.6376801,66.2335739 196.6376801,61.7544594 
		197.2524261,61.7544594 197.2524261,67.3433533 196.7493134,67.3433533 193.1413116,62.7598953 193.1413116,67.3433533 
		192.5265656,67.3433533 	"/>
	<path class="st1" d="M201.4468994,61.6588745c-1.7003784,0-2.8577271,1.3486938-2.8577271,2.8895264v0.0166016
		c0,1.5408325,1.1412354,2.8739014,2.8416138,2.8739014c1.7004395,0,2.8577881-1.3486938,2.8577881-2.8905029v-0.015564
		C204.2885742,62.9920044,203.1473389,61.6588745,201.4468994,61.6588745z M203.6338501,64.5650024
		c0,1.2697144-0.909668,2.291748-2.1869507,2.291748s-2.2034912-1.0386353-2.2034912-2.3083496v-0.015564
		c0-1.2697144,0.9101562-2.291748,2.1873779-2.291748c1.2772827,0,2.203064,1.0385742,2.203064,2.307312V64.5650024z"/>
	<polygon class="st1" points="204.907196,61.7544594 205.5935974,61.7544594 207.1901703,66.4091034 208.7228699,61.7378807 
		209.2420654,61.7378807 210.7747803,66.4091034 212.3708649,61.7544594 213.0338593,61.7544594 211.0380249,67.3833389 
		210.5032349,67.3833389 208.97052,62.8476639 207.4295349,67.3833389 206.9030304,67.3833389 	"/>
	<polygon class="st1" points="142.5029297,71.2373428 143.1893311,71.2373428 144.7859039,75.8919907 146.3186188,71.2207642 
		146.8377991,71.2207642 148.3705139,75.8919907 149.9665985,71.2373428 150.6295929,71.2373428 148.6337585,76.8662186 
		148.0989685,76.8662186 146.5662689,72.3305435 145.0252686,76.8662186 144.498764,76.8662186 	"/>
	<polygon class="st1" points="151.7757263,71.2373428 152.4065399,71.2373428 152.4065399,73.7202072 155.6313782,73.7202072 
		155.6313782,71.2373428 156.262207,71.2373428 156.262207,76.8262329 155.6313782,76.8262329 155.6313782,74.3111801 
		152.4065399,74.3111801 152.4065399,76.8262329 151.7757263,76.8262329 	"/>
	<polygon class="st1" points="157.8460999,71.2373428 161.8855591,71.2373428 161.8855591,71.8117371 158.4769287,71.8117371 
		158.4769287,73.7202072 161.5262604,73.7202072 161.5262604,74.295578 158.4769287,74.295578 158.4769287,76.2518387 
		161.9255219,76.2518387 161.9255219,76.8262329 157.8460999,76.8262329 	"/>
	<polygon class="st1" points="163.1974182,71.2373428 163.788269,71.2373428 167.3085327,75.7164536 167.3085327,71.2373428 
		167.9232788,71.2373428 167.9232788,76.8262329 167.420166,76.8262329 163.8121643,72.242775 163.8121643,76.8262329 
		163.1974182,76.8262329 	"/>
	<polygon class="st1" points="171.7843018,71.2373428 173.0132904,71.2373428 173.0132904,73.4491043 175.2806702,73.4491043 
		175.2806702,71.2373428 176.5101471,71.2373428 176.5101471,76.8262329 175.2806702,76.8262329 175.2806702,74.5822906 
		173.0132904,74.5822906 173.0132904,76.8262329 171.7843018,76.8262329 	"/>
	<polygon class="st1" points="177.8546753,71.2373428 182.0696259,71.2373428 182.0696259,72.3305435 179.075882,72.3305435 
		179.075882,73.4647064 181.7103424,73.4647064 181.7103424,74.5588837 179.075882,74.5588837 179.075882,75.7320557 
		182.1091156,75.7320557 182.1091156,76.8262329 177.8546753,76.8262329 	"/>
	<path class="st1" d="M186.6702271,74.8300171c0.7107544-0.2633057,1.1977539-0.8299561,1.1977539-1.7329712v-0.015625
		c0-0.5266113-0.1676636-0.9664307-0.479187-1.2774658c-0.3671265-0.3676758-0.9179688-0.5665894-1.6287842-0.5665894h-2.5545044
		v5.5888672h1.2294922v-1.7885132h0.9662476l1.1972656,1.7885132h1.4367065L186.6702271,74.8300171z M186.6224365,73.161438
		c0,0.4710083-0.3432007,0.7908936-0.9418335,0.7908936h-1.2456055v-1.6052246h1.2216797
		c0.5986328,0,0.9657593,0.2711182,0.9657593,0.7987061V73.161438z"/>
	<polygon class="st1" points="191.3770294,71.2373428 192.5104828,71.2373428 195.1288605,74.678833 195.1288605,71.2373428 
		196.3422546,71.2373428 196.3422546,76.8262329 195.2965546,76.8262329 192.5899506,73.2735672 192.5899506,76.8262329 
		191.3770294,76.8262329 	"/>
	<polygon class="st1" points="197.6862946,71.2373428 201.9012451,71.2373428 201.9012451,72.3305435 198.9079742,72.3305435 
		198.9079742,73.4647064 201.54245,73.4647064 201.54245,74.5588837 198.9079742,74.5588837 198.9079742,75.7320557 
		201.9412231,75.7320557 201.9412231,76.8262329 197.6862946,76.8262329 	"/>
	<polygon class="st1" points="207.8833923,71.2373428 206.0152893,73.9679108 207.9633484,76.8262329 206.5261841,76.8262329 
		205.2728119,74.9099579 204.0116425,76.8262329 202.6149445,76.8262329 204.5625305,73.9835129 202.6944122,71.2373428 
		204.1315765,71.2373428 205.2971954,73.0492706 206.4866943,71.2373428 	"/>
	<polygon class="st1" points="210.1858673,72.3705292 208.4854584,72.3705292 208.4854584,71.2373428 213.1152802,71.2373428 
		213.1152802,72.3705292 211.4148712,72.3705292 211.4148712,76.8262329 210.1858673,76.8262329 	"/>
	<polygon class="st1" points="153.6209106,80.7202225 154.9464417,80.7202225 156.4152832,83.0831451 157.8841248,80.7202225 
		159.2091675,80.7202225 159.2091675,86.3091125 157.9879608,86.3091125 157.9879608,82.6599045 156.4152832,85.0472031 
		156.3831024,85.0472031 154.8265076,82.6842804 154.8265076,86.3091125 153.6209106,86.3091125 	"/>
	<polygon class="st1" points="160.554184,80.7202225 164.7691345,80.7202225 164.7691345,81.8134232 161.7753754,81.8134232 
		161.7753754,82.9475861 164.4098358,82.9475861 164.4098358,84.0417633 161.7753754,84.0417633 161.7753754,85.2149353 
		164.8086243,85.2149353 164.8086243,86.3091125 160.554184,86.3091125 	"/>
	<path class="st1" d="M168.9553223,80.6802368h-1.1334229l-2.3951416,5.6288452h1.253418l0.5108643-1.2531128h2.362915
		l0.5109253,1.2531128h1.2850342L168.9553223,80.6802368z M167.6298218,83.9696045l0.7424316-1.8119507l0.7424927,1.8119507
		H167.6298218z"/>
	<polygon class="st1" points="172.2152557,80.7202225 173.4447327,80.7202225 173.4447327,85.1915359 176.2308044,85.1915359 
		176.2308044,86.3091125 172.2152557,86.3091125 	"/>
	<polygon class="st1" points="179.2440643,80.7202225 179.9304657,80.7202225 181.5270386,85.3748703 183.0597534,80.7036438 
		183.5789337,80.7036438 185.1116486,85.3748703 186.7077332,80.7202225 187.3707428,80.7202225 185.3749084,86.3490982 
		184.8401031,86.3490982 183.3074036,81.8134232 181.7664032,86.3490982 181.2398987,86.3490982 	"/>
	<rect x="188.5729218" y="80.7202225" class="st1" width="0.6303406" height="5.5888901"/>
	<polygon class="st1" points="190.8412781,80.7202225 191.4720917,80.7202225 191.4720917,85.7259445 194.6169739,85.7259445 
		194.6169739,86.3091125 190.8412781,86.3091125 	"/>
	<polygon class="st1" points="195.7533417,80.7202225 196.3841705,80.7202225 196.3841705,85.7259445 199.5290527,85.7259445 
		199.5290527,86.3091125 195.7533417,86.3091125 	"/>
	<path class="st1" d="M206.3740845,83.4185791c0.4387817-0.1911011,0.8858032-0.5665894,0.8858032-1.2930908v-0.0166016
		c0-0.3588257-0.1277466-0.6543579-0.3588257-0.8942261c-0.3197632-0.3110962-0.8223877-0.4944458-1.4609985-0.4944458h-2.3790283
		v5.5888672h2.4828491c1.2211914,0,2.0275269-0.5665894,2.0275269-1.5252075v-0.015564
		C207.5714111,84.00177,207.0366211,83.6185303,206.3740845,83.4185791z M203.6835938,81.2868042h1.7003784
		c0.7985229,0,1.2373047,0.3598633,1.2373047,0.9098511v0.0166016c0,0.6543579-0.5265503,0.9976196-1.2850952,0.9976196h-1.6525879
		V81.2868042z M206.9328003,84.7438965c0,0.6231689-0.5270386,0.9985962-1.3733521,0.9985962h-1.8758545v-1.9728394h1.7642212
		c0.9740601,0,1.4849854,0.3520508,1.4849854,0.9586792V84.7438965z"/>
	<polygon class="st1" points="208.8281708,80.7202225 212.86763,80.7202225 212.86763,81.2946167 209.4589996,81.2946167 
		209.4589996,83.2030945 212.5083313,83.2030945 212.5083313,83.7784653 209.4589996,83.7784653 209.4589996,85.7347183 
		212.9075928,85.7347183 212.9075928,86.3091125 208.8281708,86.3091125 	"/>
</g>
</svg>
