<?xml version="1.0" encoding="utf-8"?>
<!-- Generator: Adobe Illustrator 26.3.1, SVG Export Plug-In . SVG Version: 6.00 Build 0)  -->
<svg version="1.1" id="Layer_1" xmlns="http://www.w3.org/2000/svg" xmlns:xlink="http://www.w3.org/1999/xlink" x="0px" y="0px"
	 viewBox="0 0 300 250" style="enable-background:new 0 0 300 250;" xml:space="preserve">
<style type="text/css">
	.st0{fill:#35C4AF;}
	.st1{fill:#FFFFFF;}
</style>
<g>
	<g>
		<path class="st0" d="M79.2009354,89.7723389l0.6000443-0.6001587
			c15.8377075-0.3595047,24.9551544-10.0799561,24.9551544-21.6009064V67.331604
			c0-9.8402786-7.6787415-20.5204048-19.9162064-20.5204048c-9.5976715,0-16.9169922,4.6794853-23.1550255,12.3597794
			l-4.3201027-3.5999832c6.8390808-8.5201263,14.9970474-14.2801056,27.7147446-14.2801056
			c15.8377151,0,26.0354309,12.9599419,26.0354309,25.8010597v0.2396545c0,14.8812714-11.5176086,25.2008972-25.4353867,26.8815536
			l-0.730835,16.7985992h-5.1567688L79.2009354,89.7723389z"/>
		<path class="st0" d="M86.0474014,119.3814774c0,2.0102005-1.6294022,3.6389313-3.6391907,3.6389313
			c-2.0087967,0-3.6381912-1.6287308-3.6381912-3.6389313c0-2.0111923,1.6293945-3.6389313,3.6381912-3.6389313
			C84.4179993,115.7425461,86.0474014,117.370285,86.0474014,119.3814774"/>
	</g>
	<rect x="42.1070824" y="60.7558517" class="st1" width="0.6303406" height="5.5888901"/>
	<path class="st1" d="M44.0078545,65.5304489l0.3909798-0.4632187c0.5830536,0.5266037,1.1417313,0.7908859,1.9158859,0.7908859
		c0.7507515,0,1.2455673-0.3998337,1.2455673-0.9508209v-0.0156021c0-0.5188141-0.2793388-0.8143005-1.4532433-1.0620003
		c-1.2850571-0.2798843-1.8759117-0.6943436-1.8759117-1.6129875v-0.0156021c0-0.8786583,0.7746429-1.525219,1.836422-1.525219
		c0.8141289,0,1.396698,0.2311211,1.9636612,0.6865425l-0.3670883,0.4866257
		c-0.5191917-0.4222603-1.0378952-0.606575-1.6126595-0.606575c-0.7263794,0-1.1895065,0.3998337-1.1895065,0.9020615v0.0165787
		c0,0.5266113,0.2876244,0.8220978,1.5166206,1.0854034c1.2455711,0.2720833,1.8203354,0.7265282,1.8203354,1.5808029v0.0165787
		c0,0.9576492-0.7985306,1.5808105-1.9080849,1.5808105C45.4050369,66.4247131,44.6781731,66.1292267,44.0078545,65.5304489z"/>
	<polygon class="st1" points="51.8829765,60.7558517 52.5138054,60.7558517 52.5138054,63.2387199 55.738636,63.2387199 
		55.738636,60.7558517 56.3694649,60.7558517 56.3694649,66.3447418 55.738636,66.3447418 55.738636,63.8296928 
		52.5138054,63.8296928 52.5138054,66.3447418 51.8829765,66.3447418 	"/>
	<polygon class="st1" points="57.9533615,60.7558517 61.9928093,60.7558517 61.9928093,61.330246 58.5841904,61.330246 
		58.5841904,63.2387199 61.633522,63.2387199 61.633522,63.8140907 58.5841904,63.8140907 58.5841904,65.7703476 
		62.0327835,65.7703476 62.0327835,66.3447418 57.9533615,66.3447418 	"/>
	<path class="st1" d="M68.3113403,60.6602783c-1.7004395,0-2.8582153,1.3486938-2.8582153,2.8895264v0.0166016
		c0,1.5407715,1.1417236,2.8739014,2.8421021,2.8739014c1.7004395,0,2.8577881-1.3486938,2.8577881-2.8905029v-0.015625
		C71.1530151,61.9934082,70.0117188,60.6602783,68.3113403,60.6602783z M70.4987793,63.5664062
		c0,1.2697144-0.9101562,2.291687-2.187439,2.291687s-2.2034912-1.0385742-2.2034912-2.3082886v-0.015625
		c0-1.2697144,0.9101562-2.291687,2.1873779-2.291687c1.2772827,0,2.2035522,1.0385742,2.2035522,2.307312V63.5664062z"/>
	<polygon class="st1" points="72.4902115,60.7558517 73.0810623,60.7558517 76.6013184,65.2349625 76.6013184,60.7558517 
		77.2160645,60.7558517 77.2160645,66.3447418 76.7134476,66.3447418 73.10495,61.7612839 73.10495,66.3447418 
		72.4902115,66.3447418 	"/>
	<path class="st1" d="M83.8543701,60.7158813h-0.5908203l-2.5462646,5.6288452h0.6464233l0.6625366-1.477417h3.0415649
		l0.6546631,1.477417h0.6786499L83.8543701,60.7158813z M82.2739258,64.3007202l1.2772217-2.8505249l1.2689819,2.8505249H82.2739258
		z"/>
	<polygon class="st1" points="87.5057831,60.7558517 88.0966339,60.7558517 91.6168976,65.2349625 91.6168976,60.7558517 
		92.231636,60.7558517 92.231636,66.3447418 91.7285309,66.3447418 88.1205215,61.7612839 88.1205215,66.3447418 
		87.5057831,66.3447418 	"/>
	<path class="st1" d="M28.5510864,70.1987305h-1.1339111l-2.3946533,5.6289062h1.253418l0.5108643-1.2531738h2.362915
		l0.5109253,1.2531738h1.2850342L28.5510864,70.1987305z M27.2260742,73.4880981l0.7419434-1.8118896l0.7424927,1.8118896
		H27.2260742z"/>
	<polygon class="st1" points="31.8115101,70.2387314 32.9449539,70.2387314 35.5633316,73.6802292 35.5633316,70.2387314 
		36.7767258,70.2387314 36.7767258,75.8276291 35.7310333,75.8276291 33.0244179,72.2749557 33.0244179,75.8276291 
		31.8115101,75.8276291 	"/>
	<polygon class="st1" points="39.4228897,71.3719177 37.7224808,71.3719177 37.7224808,70.2387314 42.3522949,70.2387314 
		42.3522949,71.3719177 40.651886,71.3719177 40.651886,75.8276291 39.4228897,75.8276291 	"/>
	<rect x="43.3526535" y="70.2387314" class="st1" width="1.2294807" height="5.5888901"/>
	<path class="st1" d="M48.2637329,70.2387085h-2.2834473v5.5889282h1.2294922v-1.6763916h0.934082
		c1.2533569,0,2.2590332-0.6709595,2.2590332-1.9640503v-0.0166016
		C50.4028931,71.0286255,49.5966187,70.2387085,48.2637329,70.2387085z M49.1578369,72.2105713
		c0,0.4788208-0.359314,0.8464966-0.9740601,0.8464966h-0.973999v-1.7085571h0.9501343
		c0.6147461,0,0.9979248,0.2954712,0.9979248,0.8464966V72.2105713z"/>
	<path class="st1" d="M50.9333191,75.0133286l0.7263794-0.8708572c0.5026169,0.4154358,1.0296059,0.6787415,1.6682358,0.6787415
		c0.5031052,0,0.8063316-0.1989365,0.8063316-0.5266113v-0.0156021c0-0.3120651-0.1915894-0.4710236-1.1256447-0.7109222
		c-1.1256447-0.2876816-1.8520241-0.5987778-1.8520241-1.7085571v-0.0165787c0-1.013237,0.8141289-1.6841736,1.9558601-1.6841736
		c0.8141327,0,1.5088234,0.2555008,2.0753021,0.7109222l-0.6386299,0.9254684
		c-0.4948158-0.3432693-0.9818306-0.5509872-1.4527588-0.5509872s-0.7185783,0.2155151-0.7185783,0.4875946v0.0156097
		c0,0.3676453,0.2398491,0.4876022,1.2055931,0.7343292c1.1334457,0.2954865,1.7720718,0.7031174,1.7720718,1.6773453v0.0156021
		c0,1.109787-0.8458176,1.7329407-2.0514107,1.7329407C52.4577408,75.9075928,51.6036377,75.6121063,50.9333191,75.0133286z"/>
	<polygon class="st1" points="57.7685966,73.6236649 55.6211472,70.2387314 57.0583076,70.2387314 58.3916283,72.4817047 
		59.7483482,70.2387314 61.1455307,70.2387314 58.9980812,73.6002579 58.9980812,75.8276291 57.7685966,75.8276291 	"/>
	<path class="st1" d="M61.1962318,73.0492706V73.032692c0-1.5886078,1.1973038-2.8895264,2.9137993-2.8895264
		c1.0534973,0,1.6843262,0.3510666,2.2030258,0.8620758l-0.7819519,0.9020615
		c-0.4314423-0.3910522-0.8701935-0.6309509-1.4293594-0.6309509c-0.9418526,0-1.6204567,0.7821121-1.6204567,1.7407379v0.0156021
		c0,0.9586258,0.6625137,1.7573166,1.6204567,1.7573166c0.6386337,0,1.030098-0.2555008,1.4688492-0.6553345L66.353035,74.92556
		c-0.5747681,0.6143799-1.2133942,0.9976349-2.2912598,0.9976349
		C62.4174232,75.9231949,61.1962318,74.6534805,61.1962318,73.0492706z"/>
	<polygon class="st1" points="67.338768,70.2387314 68.5677643,70.2387314 68.5677643,72.4504929 70.8351364,72.4504929 
		70.8351364,70.2387314 72.064621,70.2387314 72.064621,75.8276291 70.8351364,75.8276291 70.8351364,73.5836792 
		68.5677643,73.5836792 68.5677643,75.8276291 67.338768,75.8276291 	"/>
	<path class="st1" d="M76.1386719,70.1431885c-1.7243042,0-2.9776611,1.3009033-2.9776611,2.8895264v0.0165405
		c0,1.588623,1.2373047,2.8739624,2.9616089,2.8739624s2.9776611-1.3009644,2.9776611-2.8905029v-0.015625
		C79.1002808,71.4284668,77.8629761,70.1431885,76.1386719,70.1431885z M77.8151855,73.0492554
		c0,0.9576416-0.6868896,1.7407227-1.6765137,1.7407227c-0.9901123,0-1.692627-0.798645-1.692627-1.7572632v-0.015625
		c0-0.9586182,0.6868896-1.7407227,1.6765747-1.7407227c0.989624,0,1.6925659,0.798645,1.6925659,1.7563477V73.0492554z"/>
	<polygon class="st1" points="81.259407,71.3719177 79.5589981,71.3719177 79.5589981,70.2387314 84.1888123,70.2387314 
		84.1888123,71.3719177 82.4884033,71.3719177 82.4884033,75.8276291 81.259407,75.8276291 	"/>
	<rect x="85.1896591" y="70.2387314" class="st1" width="1.2294846" height="5.5888901"/>
	<path class="st1" d="M87.570137,73.0492706V73.032692c0-1.5886078,1.1973038-2.8895264,2.9138031-2.8895264
		c1.0534897,0,1.6843185,0.3510666,2.2030258,0.8620758l-0.7819595,0.9020615
		c-0.4314346-0.3910522-0.8701935-0.6309509-1.4293594-0.6309509c-0.9418488,0-1.6204529,0.7821121-1.6204529,1.7407379v0.0156021
		c0,0.9586258,0.6625137,1.7573166,1.6204529,1.7573166c0.6386337,0,1.030098-0.2555008,1.4688492-0.6553345l0.7824402,0.7908859
		c-0.5747604,0.6143799-1.2133942,0.9976349-2.2912598,0.9976349C88.7913284,75.9231949,87.570137,74.6534805,87.570137,73.0492706z
		"/>
	<path class="st1" d="M58.4949951,83.31427c0.7107544-0.2633057,1.1977539-0.829895,1.1977539-1.7329712v-0.015564
		c0-0.5266113-0.1676636-0.9664307-0.479187-1.2775269c-0.3670654-0.3676758-0.9179688-0.5665894-1.6287231-0.5665894h-2.5545654
		v5.5888672h1.2294922v-1.7885132h0.9662476l1.1973267,1.7885132h1.4366455L58.4949951,83.31427z M58.4472046,81.6456909
		c0,0.4710083-0.3432007,0.7908936-0.9418335,0.7908936h-1.2456055v-1.6051636h1.2216797
		c0.5986938,0,0.9657593,0.2710571,0.9657593,0.798645V81.6456909z"/>
	<polygon class="st1" points="60.8052521,79.721611 65.0202026,79.721611 65.0202026,80.8148193 62.0264473,80.8148193 
		62.0264473,81.9489822 64.6609116,81.9489822 64.6609116,83.0431595 62.0264473,83.0431595 62.0264473,84.2163315 
		65.0596924,84.2163315 65.0596924,85.3105087 60.8052521,85.3105087 	"/>
	<path class="st1" d="M65.9094086,82.5321503v-0.0165787c0-1.5886078,1.2372818-2.8895264,2.9298935-2.8895264
		c1.0057144,0,1.6121674,0.2711029,2.1952209,0.76651l-0.7746429,0.9332657
		c-0.4309464-0.3588715-0.8141251-0.5665894-1.460556-0.5665894c-0.8940811,0-1.6048584,0.7908859-1.6048584,1.7407379v0.0156021
		c0,1.0220184,0.7024918,1.7729187,1.6926117,1.7729187c0.4470367,0,0.8463058-0.1121445,1.1573257-0.3354645V83.154335h-1.2372818
		v-1.0620041h2.426796v2.4272842c-0.5747681,0.4876022-1.3650131,0.8864594-2.3868179,0.8864594
		C67.1067123,85.4060745,65.9094086,84.1851196,65.9094086,82.5321503z"/>
	<rect x="72.4746094" y="79.721611" class="st1" width="1.2294846" height="5.5888901"/>
	<polygon class="st1" points="75.1027374,79.721611 76.4277725,79.721611 77.8966141,82.0845337 79.3654633,79.721611 
		80.6904907,79.721611 80.6904907,85.3105087 79.4692993,85.3105087 79.4692993,81.661293 77.8966141,84.0485916 
		77.8644409,84.0485916 76.3078461,81.6856766 76.3078461,85.3105087 75.1027374,85.3105087 	"/>
	<polygon class="st1" points="82.0350266,79.721611 86.2499771,79.721611 86.2499771,80.8148193 83.2567062,80.8148193 
		83.2567062,81.9489822 85.8911743,81.9489822 85.8911743,83.0431595 83.2567062,83.0431595 83.2567062,84.2163315 
		86.2899475,84.2163315 86.2899475,85.3105087 82.0350266,85.3105087 	"/>
	<polygon class="st1" points="87.3868332,79.721611 88.5202789,79.721611 91.1386566,83.1631088 91.1386566,79.721611 
		92.3520508,79.721611 92.3520508,85.3105087 91.3063583,85.3105087 88.5997391,81.757843 88.5997391,85.3105087 
		87.3868332,85.3105087 	"/>
</g>
</svg>
