<?xml version="1.0" encoding="utf-8"?>
<!-- Generator: Adobe Illustrator 26.3.0, SVG Export Plug-In . SVG Version: 6.00 Build 0)  -->
<svg version="1.1" id="Layer_1" xmlns="http://www.w3.org/2000/svg" xmlns:xlink="http://www.w3.org/1999/xlink" x="0px" y="0px"
	 viewBox="0 0 41.0731812 11.2519989" style="enable-background:new 0 0 41.0731812 11.2519989;" xml:space="preserve">
<style type="text/css">
	.st0{fill:#FFFFFF;}
</style>
<g>
	<g>
		<g>
			<path class="st0" d="M15.5814209,5.327198l-0.0020142,1.9830017c-0.1340332,0.052002-0.4200439,0.1259995-0.9500122,0.1259995
				c-1.3029785,0-2.1450195-0.7739983-2.1450195-1.9720001c0-1.1870003,0.8699951-1.954998,2.2150269-1.954998
				c0.5089722,0,0.9049683,0.0749969,1.28302,0.2439995l0.1189575,0.0540009l0.25-0.7820015l-0.0930176-0.0429993
				C15.9833984,2.853199,15.4154053,2.702198,14.7243652,2.702198c-2.2059937,0-3.2109985,1.4470024-3.2109985,2.7910004
				c0,0.7790031,0.2900391,1.4970016,0.7940063,1.9680023c0.5560303,0.5239983,1.2960205,0.7779999,2.2590332,0.7779999
				c0.8389893,0,1.5280151-0.2060013,1.8640137-0.3269997l0.0769653-0.0289993V5.3292007L15.5814209,5.327198z"/>
		</g>
		<g>
			<rect x="18.133667" y="2.7557983" class="st0" width="0.9359741" height="5.4290009"/>
		</g>
		<g>
			<polygon class="st0" points="21.7880249,7.3640976 21.7880249,2.7551003 20.8519897,2.7551003 20.8519897,8.1851006 
				24.2630005,8.1851006 24.2630005,7.3640976 			"/>
		</g>
		<g>
			<polygon class="st0" points="26.3717651,7.3777962 26.3717651,5.7607994 28.6237793,5.7607994 28.6237793,4.9537964 
				26.3717651,4.9537964 26.3717651,3.563797 28.7548218,3.563797 28.7548218,2.7567978 25.435791,2.7567978 25.435791,8.1847992 
				28.8807983,8.1847992 28.8807983,7.3777962 			"/>
		</g>
		<g>
			<path class="st0" d="M32.8944702,2.7560997h-0.927002l-2.0469971,5.428997h0.9450073l0.6010132-1.6579971h1.90802
				l0.6289673,1.6579971h0.9620361L32.8944702,2.7560997z M32.4135132,3.8240967
				c0.052002,0.1650009,0.5669556,1.5330009,0.7189941,1.9280014h-1.4249878
				C31.7075195,5.7520981,32.3624878,3.9880981,32.4135132,3.8240967"/>
		</g>
		<g>
			<path class="st0" d="M40.2871704,3.4709969c-0.5360107-0.5049973-1.3709717-0.7609978-2.4790039-0.7609978l-1.7469482,0.0009995
				v0.781002l1.7679443,0.0039978c0.8110352,0,1.4210205,0.1980019,1.8080444,0.5890007
				c0.3120117,0.3149986,0.4689941,0.7480011,0.4639893,1.2859993c0,0.5960007-0.1870117,1.0979996-0.5410156,1.4510002
				C39.1491699,7.230999,38.5042114,7.447998,37.696167,7.4449997c-0.2449951,0-0.5109863-0.0040016-0.7069702-0.0230026V4.9629974
				h-0.9279785v3.2019997l0.1049805,0.0100021c0.4049683,0.0419998,0.8480225,0.0610008,1.4110107,0.0610008
				c1.151001,0,2.0999756-0.2989998,2.6709595-0.8440018c0.5310059-0.5229988,0.8250122-1.2490005,0.8250122-2.0489998
				C41.0731812,4.5779991,40.8092041,3.9489975,40.2871704,3.4709969"/>
		</g>
		<g>
			<path class="st0" d="M8.4558105,0.0309982c0-0.0169983-0.0140381-0.0299988-0.0300293-0.0299988V0H8.4248047
				C8.4227905,0,8.4227905,0.0009995,8.421814,0.0009995C1.4008179,0.6679993,0.5067749,5.5099983,2.8018188,7.0550003
				C2.4058228,8.8030014,2.7747803,8.7630005,2.7747803,8.7630005c0.0700073-0.5209999,0.1740112-1.038002,0.3080444-1.5460014
				C3.9777832,3.8100014,6.1948242,0.8380013,8.428772,0.0620003V0.0610008
				C8.4437866,0.0600014,8.4558105,0.0470009,8.4558105,0.0309982"/>
		</g>
		<g>
			<path class="st0" d="M8.085022,1.1429977c0-0.0169983-0.0140381-0.0309982-0.0310059-0.0309982
				c-0.0140381,0-0.0250244,0.0089989-0.0289917,0.0209999c-0.5800171,1.137001-0.7480469,2.7659988-1.1900024,4.012001
				C6.3289795,6.5719986,5.4299927,7.5319977,4.0419922,7.4409981v3.4659996c0,0-3.7069702-1.6759987-3.7069702-4.3729973v-5.052002
				l3.0299683-0.2759972c0.0180054,0,0.0319824-0.0139999,0.0319824-0.031002c0-0.0169983-0.0130005-0.0299988-0.0289917-0.0309982
				V1.1429977H0v5.3910027c0,3.0340004,4.0419922,4.7179985,4.0419922,4.7179985s4.0440063-1.7130013,4.0440063-4.7179985V1.1429977
				H8.085022z"/>
		</g>
	</g>
</g>
</svg>
