<?xml version="1.0" encoding="utf-8"?>
<!-- Generator: Adobe Illustrator 26.3.1, SVG Export Plug-In . SVG Version: 6.00 Build 0)  -->
<svg version="1.1" id="Layer_1" xmlns="http://www.w3.org/2000/svg" xmlns:xlink="http://www.w3.org/1999/xlink" x="0px" y="0px"
	 viewBox="0 0 108.8675842 31.987999" style="enable-background:new 0 0 108.8675842 31.987999;" xml:space="preserve">
<style type="text/css">
	.st0{fill:#FFFFFF;}
</style>
<g>
	<path class="st0" d="M98.191803,7.0860023c-0.6130066,0-1.11203,0.5019989-1.11203,1.118v0.0079994
		c0,0.6119995,0.4990234,1.1119995,1.11203,1.1119995c0.6139832,0,1.1119995-0.5019989,1.1119995-1.1259995
		C99.3038025,7.5850029,98.8057861,7.0860023,98.191803,7.0860023 M98.191803,9.1529999
		c-0.5250244,0-0.9360046-0.4139977-0.9360046-0.9409981V8.2040024c0-0.5219994,0.4199829-0.9470024,0.9360046-0.9470024
		c0.5249939,0,0.9359741,0.413002,0.9359741,0.9470024C99.1277771,8.7280006,98.7077942,9.1529999,98.191803,9.1529999"/>
	<path class="st0" d="M98.4786987,8.3422012c0.1499939-0.0500031,0.25-0.1679993,0.25-0.3500023
		c0-0.2560005-0.1930237-0.3740005-0.4560242-0.3740005h-0.5299988V8.7472h0.2749939V8.3922005h0.1740112L98.4346924,8.7472
		h0.3320007L98.4786987,8.3422012z M98.2546997,8.1671982h-0.23703V7.8552017h0.23703
		c0.117981,0,0.1929932,0.0559998,0.1929932,0.1569977C98.4476929,8.1052017,98.3796997,8.1671982,98.2546997,8.1671982"/>
	<path class="st0" d="M28.7113953,24.3492985l0.2679901-0.3739986c0.3829956,0.2859993,0.8079987,0.4489994,1.2259979,0.4489994
		c0.4250031,0,0.7340088-0.2180004,0.7340088-0.5580006v-0.0129986c0-0.3540001-0.4190063-0.4899998-0.8840027-0.6190014
		c-0.5559998-0.1569996-1.1730042-0.3479996-1.1730042-0.993v-0.0139999c0-0.6049995,0.5079956-1.0059986,1.2060089-1.0059986
		c0.4319916,0,0.9129944,0.1489983,1.276001,0.3869991l-0.2400055,0.3950005
		c-0.3289948-0.2110004-0.7060089-0.3409996-1.048996-0.3409996c-0.4179993,0-0.6850128,0.2179985-0.6850128,0.5109997v0.0129986
		c0,0.3330002,0.4380035,0.4630013,0.9110107,0.6060009c0.548996,0.1630001,1.1380005,0.3740005,1.1380005,1.0060005v0.0139999
		c0,0.6660004-0.5550079,1.0539989-1.2610016,1.0539989C29.6713867,24.8662987,29.1093903,24.6693001,28.7113953,24.3492985"/>
	<path class="st0" d="M35.0641937,23.0570984v-0.0139999c0-0.7549992-0.5690002-1.3729992-1.3160095-1.3729992
		c-0.7680054,0-1.2949982,0.618-1.2949982,1.3600006v0.0129986c0,0.7550011,0.5619965,1.3670006,1.3079987,1.3670006
		C34.5301819,24.410099,35.0641937,23.7980995,35.0641937,23.0570984 M31.9111938,23.0570984v-0.0139999
		c0-0.993,0.7819977-1.8359985,1.8499908-1.8359985c1.0630035,0,1.8450012,0.8299999,1.8450012,1.823v0.0129986
		c0,0.993-0.7890015,1.8369999-1.8580017,1.8369999C32.6851807,24.8800983,31.9111938,24.0500984,31.9111938,23.0570984"/>
	<path class="st0" d="M36.4163971,21.7442989h-0.4870148V21.289299h0.4870148v-0.3069992
		c0-0.4009991,0.1099854-0.7070007,0.3089905-0.9039993c0.178009-0.177,0.4380035-0.2720013,0.7599945-0.2720013
		c0.2470093,0,0.4110107,0.0270004,0.5830078,0.0880013v0.4559994c-0.1920013-0.0550003-0.3359985-0.0879993-0.5140076-0.0879993
		c-0.4119873,0-0.6169891,0.2449989-0.6169891,0.7479992v0.2859993h1.1239929v0.448H36.944397v3.0540009h-0.5279999V21.7442989z"/>
	<path class="st0" d="M41.3325043,23.0570984v-0.0139999c0-0.7549992-0.5690002-1.3729992-1.3160095-1.3729992
		c-0.7680054,0-1.2949982,0.618-1.2949982,1.3600006v0.0129986c0,0.7550011,0.5619965,1.3670006,1.3079987,1.3670006
		C40.7984924,24.410099,41.3325043,23.7980995,41.3325043,23.0570984 M38.1795044,23.0570984v-0.0139999
		c0-0.993,0.7819977-1.8359985,1.8499908-1.8359985c1.0630035,0,1.8450012,0.8299999,1.8450012,1.823v0.0129986
		c0,0.993-0.7890015,1.8369999-1.8580017,1.8369999C38.9534912,24.8800983,38.1795044,24.0500984,38.1795044,23.0570984"/>
	<path class="st0" d="M42.2377014,24.3492985l0.2679901-0.3739986c0.3829956,0.2859993,0.8079987,0.4489994,1.2259979,0.4489994
		c0.4250031,0,0.7340088-0.2180004,0.7340088-0.5580006v-0.0129986c0-0.3540001-0.4190063-0.4899998-0.8840027-0.6190014
		c-0.5559998-0.1569996-1.1730042-0.3479996-1.1730042-0.993v-0.0139999c0-0.6049995,0.5079956-1.0059986,1.2070007-1.0059986
		c0.4309998,0,0.9120026,0.1489983,1.2750092,0.3869991l-0.2400055,0.3950005
		c-0.3289948-0.2110004-0.7060089-0.3409996-1.048996-0.3409996c-0.4179993,0-0.6850128,0.2179985-0.6850128,0.5109997v0.0129986
		c0,0.3330002,0.4380035,0.4630013,0.9110107,0.6060009c0.548996,0.1630001,1.1380005,0.3740005,1.1380005,1.0060005v0.0139999
		c0,0.6660004-0.5550079,1.0539989-1.2610016,1.0539989C43.1976929,24.8662987,42.6356964,24.6693001,42.2377014,24.3492985"/>
	<path class="st0" d="M48.708786,23.0500011v-0.0130005c0-0.8309994-0.5759888-1.3610001-1.2480011-1.3610001
		c-0.6579895,0-1.2819977,0.5510006-1.2819977,1.3540001v0.0130005c0,0.816,0.6240082,1.3610001,1.2819977,1.3610001
		C48.1467896,24.4040012,48.708786,23.9000015,48.708786,23.0500011 M46.1997986,24.125v0.6730003h-0.5280151v-4.9650002h0.5280151
		v2.1560001c0.2879944-0.4209995,0.7059937-0.7819996,1.3569946-0.7819996c0.8499908,0,1.6929932,0.6660004,1.6929932,1.823
		v0.0130005c0,1.1490002-0.8359985,1.8299999-1.6929932,1.8299999C46.8987885,24.8730011,46.4737854,24.519001,46.1997986,24.125"/>
	<path class="st0" d="M49.9427948,23.4651985v-2.184h0.5279999v2.0550003c0,0.6529999,0.3559875,1.0610008,0.9799957,1.0610008
		c0.6029968,0,1.0630035-0.4419994,1.0630035-1.1019993v-2.0140018H53.03479v3.5170002h-0.5209961v-0.6119995
		C52.2737885,24.5671997,51.90979,24.8722,51.2997894,24.8722C50.4427948,24.8722,49.9427948,24.301199,49.9427948,23.4651985"/>
	<polygon class="st0" points="53.5782013,21.2817993 54.1611938,21.2817993 55.3531952,24.1998005 56.5531921,21.2817993 
		57.1221924,21.2817993 55.5791931,24.8257999 55.1131897,24.8257999 	"/>
	<path class="st0" d="M57.6860046,21.2819996h0.5279999v3.5160007h-0.5279999V21.2819996z M57.6519928,19.9349995h0.6029968
		v0.5779991h-0.6029968V19.9349995z"/>
	<path class="st0" d="M59.1641998,21.2817993h0.5279999v0.9180012c0.2599945-0.5839996,0.7749939-1.0060005,1.4459991-0.9790001
		v0.5650005h-0.0410004c-0.7750092,0-1.4049988,0.5499992-1.4049988,1.6110001v1.4009991h-0.5279999V21.2817993z"/>
	<polygon class="st0" points="65.180191,21.2817993 65.7631836,21.2817993 66.9551849,24.1998005 68.1551819,21.2817993 
		68.7241821,21.2817993 67.1811829,24.8257999 66.7151794,24.8257999 	"/>
	<path class="st0" d="M71.7084808,22.8460999c-0.0549927-0.6400013-0.4249878-1.1970005-1.1309967-1.1970005
		c-0.6170044,0-1.0829926,0.5100002-1.1519928,1.1970005H71.7084808z M68.8914948,23.0500984v-0.0129986
		c0-1.0139999,0.719986-1.8299999,1.6999969-1.8299999c1.048996,0,1.6519775,0.8299999,1.6519775,1.8570004
		c0,0.0679989,0,0.1089993-0.0069885,0.1699982h-2.8109894c0.0759888,0.7610016,0.6179962,1.1900005,1.2480011,1.1900005
		c0.4869995,0,0.8300018-0.1970005,1.1179962-0.4969997l0.3279877,0.2929993
		c-0.3559875,0.394001-0.7879944,0.6600018-1.4599915,0.6600018C69.6864929,24.8801003,68.8914948,24.1380997,68.8914948,23.0500984
		"/>
	<rect x="72.9790039" y="19.8329983" class="st0" width="0.5280151" height="4.9650002"/>
	<path class="st0" d="M77.487793,23.0498009v-0.0130005c0-0.8299999-0.5759888-1.3600006-1.2480164-1.3600006
		c-0.6579895,0-1.2819824,0.5500011-1.2819824,1.3530006v0.0130005c0,0.8169994,0.6239929,1.3610001,1.2819824,1.3610001
		C76.9248047,24.403801,77.487793,23.9008007,77.487793,23.0498009 M74.4508057,21.2817993h0.5279846V21.9888
		c0.2879944-0.4209995,0.7059937-0.7819996,1.3569946-0.7819996c0.8500061,0,1.6929932,0.6669998,1.6929932,1.823v0.0130005
		c0,1.1499996-0.8359985,1.8299999-1.6929932,1.8299999c-0.6579895,0-1.0830078-0.3540001-1.3569946-0.7480011v1.762001h-0.5279846
		V21.2817993z"/>
	<path class="st0" d="M81.0956116,23.5060005v-0.3400002c-0.2610168-0.0749989-0.6110229-0.1499996-1.0420227-0.1499996
		c-0.664978,0-1.0350037,0.2859993-1.0350037,0.7280006v0.0139999c0,0.441,0.4110107,0.6999989,0.8910217,0.6999989
		C80.5606079,24.4580002,81.0956116,24.0640011,81.0956116,23.5060005 M78.4836121,23.7779999v-0.0139999
		c0-0.7409992,0.6169739-1.1349983,1.5149841-1.1349983c0.4530029,0,0.7749939,0.0609989,1.0899963,0.1489983v-0.1219997
		c0-0.6329994-0.3909912-0.9589996-1.0559998-0.9589996c-0.4179993,0-0.7470093,0.1090012-1.0759888,0.2579994l-0.15802-0.4289989
		c0.3910217-0.1760006,0.7750244-0.2919998,1.2890015-0.2919998c0.5,0,0.8840027,0.1289997,1.1450195,0.3880005
		c0.2389832,0.237999,0.3630066,0.5779991,0.3630066,1.0269985v2.1490002h-0.507019v-0.5299988
		c-0.2470093,0.3189983-0.6579895,0.6049995-1.2819824,0.6049995
		C79.1485901,24.8730011,78.4836121,24.4990005,78.4836121,23.7779999"/>
	<path class="st0" d="M82.586792,23.8662987v-2.1219997h-0.4930115v-0.4629993h0.4930115v-1.0610008h0.5279846v1.0610008h1.1239929
		v0.4629993h-1.1239929v2.0550003c0,0.4279995,0.2399902,0.5839996,0.5960083,0.5839996
		c0.1779785,0,0.3289795-0.0339985,0.5139771-0.1219997v0.4490013c-0.1849976,0.0949993-0.3839722,0.1489983-0.6369934,0.1489983
		C83.0187683,24.8592987,82.586792,24.5802994,82.586792,23.8662987"/>
	<path class="st0" d="M87.2569885,23.5060005v-0.3400002c-0.2600098-0.0749989-0.6100159-0.1499996-1.0420227-0.1499996
		c-0.6639709,0-1.0349731,0.2859993-1.0349731,0.7280006v0.0139999c0,0.441,0.4109802,0.6999989,0.8919983,0.6999989
		C86.7229919,24.4580002,87.2569885,24.0640011,87.2569885,23.5060005 M84.6459961,23.7779999v-0.0139999
		c0-0.7409992,0.6169739-1.1349983,1.5149841-1.1349983c0.4519958,0,0.7739868,0.0609989,1.0889893,0.1489983v-0.1219997
		c0-0.6329994-0.3899841-0.9589996-1.0549927-0.9589996c-0.4179993,0-0.7470093,0.1090012-1.0759888,0.2579994l-0.15802-0.4289989
		c0.3910217-0.1760006,0.7750244-0.2919998,1.2890015-0.2919998c0.5,0,0.8840027,0.1289997,1.1450195,0.3880005
		c0.2389832,0.237999,0.3630066,0.5779991,0.3630066,1.0269985v2.1490002h-0.5080261v-0.5299988
		c-0.2460022,0.3189983-0.6569824,0.6049995-1.2809753,0.6049995C85.309967,24.8730011,84.6459961,24.4990005,84.6459961,23.7779999
		"/>
	<path class="st0" d="M88.331604,24.3492985l0.2679749-0.3739986c0.3840027,0.2859993,0.8080139,0.4489994,1.2270203,0.4489994
		c0.4239807,0,0.7330017-0.2180004,0.7330017-0.5580006v-0.0129986c0-0.3540001-0.4190063-0.4899998-0.8840027-0.6190014
		c-0.5559998-0.1569996-1.1719971-0.3479996-1.1719971-0.993v-0.0139999c0-0.6049995,0.5069885-1.0059986,1.2059937-1.0059986
		c0.4309998,0,0.9119873,0.1489983,1.2749939,0.3869991l-0.2399902,0.3950005
		c-0.32901-0.2110004-0.7060242-0.3409996-1.0490112-0.3409996c-0.4179993,0-0.6849976,0.2179985-0.6849976,0.5109997v0.0129986
		c0,0.3330002,0.4379883,0.4630013,0.9110107,0.6060009c0.5489807,0.1630001,1.1380005,0.3740005,1.1380005,1.0060005v0.0139999
		c0,0.6660004-0.5550232,1.0539989-1.2610168,1.0539989C89.2915955,24.8662987,88.7295837,24.6693001,88.331604,24.3492985"/>
	<polygon class="st0" points="91.4184875,21.2817993 92.0014648,21.2817993 93.194458,24.1998005 94.3934631,21.2817993 
		94.9624634,21.2817993 93.4194641,24.8257999 92.9534607,24.8257999 	"/>
	<path class="st0" d="M95.5270081,21.2819996h0.5280151v3.5160007h-0.5280151V21.2819996z M95.4930115,19.9349995h0.6029968
		v0.5779991h-0.6029968V19.9349995z"/>
	<path class="st0" d="M97.0073853,21.2817993h0.5279846v0.9180012c0.2600098-0.5839996,0.7739868-1.0060005,1.4460144-0.9790001
		v0.5650005h-0.0410156c-0.7749939,0-1.4049988,0.5499992-1.4049988,1.6110001v1.4009991h-0.5279846V21.2817993z"/>
	<path class="st0" d="M15.1753845,3.2004013l-0.1819916-0.2420006l-0.1470032-0.1520004
		c-0.7350006-0.8310013-1.6199951-1.4980011-2.6289978-1.9840012C11.0803986,0.277401,9.866394,0.0004005,8.6083984,0.0004005
		c-3.1870117,0-6.1380005,1.855999-7.5200043,4.730999c-0.9640045,2.0090027-1.0879974,4.2719994-0.3500061,6.3720016
		c0.7389984,2.1029987,2.2519989,3.7919979,4.2620087,4.7559986c1.0970001,0.526001,2.2679901,0.802,3.4819946,0.8199997
		l17.5010071,0.0030003L15.1753845,3.2004013z M6.093399,13.5793991c-1.4000092-0.6709995-2.45401-1.8479996-2.9690094-3.3139992
		C2.6093903,8.8013992,2.6963959,7.225399,3.3683929,5.8254013c0.9620056-2.0030022,3.0189972-3.2970009,5.2400055-3.2970009
		c0.8769989,0,1.7220001,0.1930008,2.5139923,0.5730019c0.7200012,0.3470001,1.3470001,0.8249969,1.8659973,1.4209976
		l0.0800018,0.0820007l0.1090088,0.1459999l7.5379944,9.4029999L8.5193939,14.1504002
		C7.6743927,14.1383991,6.8573914,13.9463997,6.093399,13.5793991"/>
	<path class="st0" d="M12.1788025,5.5257988l-0.0740051-0.0979996L12.0558014,5.3778
		c-0.4100037-0.4780006-0.9080048-0.8610001-1.4810028-1.1359978C9.9557953,3.9438019,9.2937927,3.7928009,8.6087952,3.7928009
		c-1.7380066,0-3.3470001,1.0130005-4.1009979,2.579998C3.9827881,7.4678001,3.9147949,8.7018013,4.3167877,9.8468018
		c0.4029999,1.1469994,1.2280121,2.0669975,2.3230133,2.5929985c0.598999,0.2859993,1.2379913,0.4369984,1.8989868,0.4469986
		l9.5420074,0.0010014L12.1788025,5.5257988z"/>
	<polygon class="st0" points="28.7781982,7.0635986 35.8721924,7.0635986 35.8721924,8.5676003 30.459198,8.5676003 
		30.459198,11.0545998 35.2571869,11.0545998 35.2571869,12.5585995 30.459198,12.5585995 30.459198,15.1285992 
		35.9401855,15.1285992 35.9401855,16.6315994 28.7781982,16.6315994 	"/>
	<path class="st0" d="M39.0767975,7.0630989h3.772995c2.2420044,0,3.6360016,1.2720032,3.6360016,3.1990013v0.0270004
		c0,2.1459999-1.7230072,3.2669983-3.8280029,3.2669983h-1.8999939v3.0760002h-1.6809998V7.0630989z M42.7127991,12.0390987
		c1.2709961,0,2.0639954-0.7109966,2.0639954-1.7089977v-0.0270004c0-1.1209984-0.8059998-1.7080002-2.0639954-1.7080002h-1.9550018
		v3.4439983H42.7127991z"/>
	<path class="st0" d="M48.7294922,11.8750992v-0.0279999c0-2.718998,2.0369873-4.947998,4.9349976-4.947998
		c1.7630005,0,2.8289948,0.6160011,3.7449951,1.4910011l-1.0800018,1.243
		c-0.7649994-0.7100029-1.5859985-1.189003-2.6799927-1.189003c-1.8170013,0-3.1570129,1.5030022-3.1570129,3.3760014v0.0269985
		c0,1.8730011,1.326004,3.3910007,3.1570129,3.3910007c1.1759949,0,1.9279938-0.4650002,2.7480011-1.2310009l1.0799866,1.0940018
		c-0.9979858,1.0389996-2.0909882,1.6939983-3.8819885,1.6939983C50.806488,16.7950993,48.7294922,14.6221008,48.7294922,11.8750992
		"/>
	<polygon class="st0" points="60.3809967,7.0635986 62.0619965,7.0635986 62.0619965,15.1005993 67.0919952,15.1005993 
		67.0919952,16.6315994 60.3809967,16.6315994 	"/>
	<path class="st0" d="M69.1688995,12.5720997V7.0641022h1.6809998v5.4399986c0,1.7770004,0.9159851,2.7199993,2.4199982,2.7199993
		c1.4889832,0,2.4049988-0.8889999,2.4049988-2.6520004V7.0641022h1.6819763v5.4259987
		c0,2.8570004-1.6129761,4.2919998-4.1149902,4.2919998C70.753891,16.7821007,69.1688995,15.3471012,69.1688995,12.5720997"/>
	<path class="st0" d="M80.1646118,15.2374992l1.0119934-1.2029991c0.9159851,0.7929993,1.8450012,1.2439995,3.019989,1.2439995
		c1.0390015,0,1.6950073-0.4919987,1.6950073-1.2029991v-0.0270004c0-0.6830006-0.3829956-1.0529995-2.1589966-1.4629993
		c-2.0370178-0.4920006-3.1849976-1.0930004-3.1849976-2.8570004V9.7014999c0-1.6399994,1.3670044-2.7749977,3.2669983-2.7749977
		c1.3939819,0,2.5009766,0.4239998,3.4709778,1.2029991L86.383606,9.4015007
		c-0.8610229-0.6430016-1.7220154-0.9850006-2.5970154-0.9850006c-0.9840088,0-1.5579834,0.5060005-1.5579834,1.1350021v0.0270004
		c0,0.737999,0.4369812,1.0659981,2.2829895,1.5039978c2.0230103,0.4920006,3.0610046,1.2159996,3.0610046,2.802v0.0270004
		c0,1.789999-1.4070129,2.8569984-3.4169922,2.8569984C82.6936035,16.7684994,81.3125916,16.2625008,80.1646118,15.2374992"/>
	<path class="st0" d="M93.2953796,6.9958h1.5579834l4.2109985,9.6359997H97.286377l-0.9700012-2.3099995h-4.5240173
		l-0.9839783,2.3099995h-1.7230225L93.2953796,6.9958z M95.7013855,12.8317986l-1.6540222-3.8269997l-1.6399841,3.8269997
		H95.7013855z"/>
	<path class="st0" d="M50.4563904,28.4637985h0.3999939v0.4520016c0.1759949-0.2650013,0.4149933-0.5090008,0.8659973-0.5090008
		c0.4369965,0,0.7160034,0.2330017,0.8619995,0.5349998c0.1920013-0.2959995,0.4779968-0.5349998,0.9450073-0.5349998
		c0.6169891,0,0.9959869,0.4150009,0.9959869,1.0800018v1.6609993h-0.3999939v-1.5680008
		c0-0.519001-0.2590027-0.809-0.6949921-0.809c-0.405014,0-0.7369995,0.3000011-0.7369995,0.8299999v1.5470009h-0.4000092v-1.578001
		c0-0.5039997-0.2649994-0.7989998-0.6900024-0.7989998c-0.4259949,0-0.746994,0.3519993-0.746994,0.8449993v1.5320015h-0.3999939
		V28.4637985z"/>
	<path class="st0" d="M55.1488953,31.6142998l0.1819916-0.3110008c0.3070068,0.2229996,0.6490021,0.3419991,1.0330048,0.3419991
		c0.5910034,0,0.9759979-0.3259983,0.9759979-0.954998v-0.3160019c-0.2339935,0.3110008-0.5610046,0.5650024-1.0540009,0.5650024
		c-0.6429901,0-1.2610016-0.4820023-1.2610016-1.2550011v-0.0109997c0-0.782999,0.6220093-1.2660007,1.2610016-1.2660007
		c0.5039978,0,0.8310089,0.2480011,1.048996,0.5390015v-0.4820023h0.3990021v2.2160015
		c0,0.414999-0.1239929,0.7320004-0.3419952,0.9499989c-0.2389984,0.2380009-0.5970001,0.3580017-1.0220032,0.3580017
		C55.9228973,31.9883003,55.5078888,31.8633003,55.1488953,31.6142998 M57.3498993,29.678299v-0.0099983
		c0-0.5500011-0.477005-0.9080009-0.9860077-0.9080009s-0.9290009,0.3519993-0.9290009,0.9029999v0.0100002
		c0,0.539999,0.4309998,0.9139996,0.9290009,0.9139996C56.8728943,30.5872993,57.3498993,30.2182999,57.3498993,29.678299"/>
	<path class="st0" d="M41.021698,30.2859993h-1.9150085l-0.1040039-0.3009987l2.0550079-2.4970016h0.3629913v2.4549999h0.5610046
		v0.3430004h-0.5610046v0.8610001H41.021698V30.2859993z M41.021698,29.9429989v-1.8739986l-1.526001,1.8739986H41.021698z"/>
	<path class="st0" d="M42.3723907,29.3414001v-0.0110016c0-1.0169983,0.6069946-1.8789978,1.5410004-1.8789978
		s1.526001,0.8509979,1.526001,1.8689995v0.0099983c0,1.0180016-0.602005,1.8790016-1.5359955,1.8790016
		C42.9633942,31.2094002,42.3723907,30.3583984,42.3723907,29.3414001 M45.0133972,29.3414001v-0.0110016
		c0-0.7939987-0.4360046-1.5039978-1.1100006-1.5039978c-0.6800079,0-1.1060028,0.6940002-1.1060028,1.4939995v0.0099983
		c0,0.7940006,0.4359894,1.5060005,1.1159973,1.5060005C44.5933838,30.8363991,45.0133972,30.1353989,45.0133972,29.3414001"/>
	<path class="st0" d="M45.8705902,29.3414001v-0.0110016c0-1.0169983,0.6070099-1.8789978,1.5410004-1.8789978
		c0.9350128,0,1.526001,0.8509979,1.526001,1.8689995v0.0099983c0,1.0180016-0.6019897,1.8790016-1.5349884,1.8790016
		C46.4626007,31.2094002,45.8705902,30.3583984,45.8705902,29.3414001 M48.5126038,29.3414001v-0.0110016
		c0-0.7939987-0.4360046-1.5039978-1.1100006-1.5039978c-0.6809998,0-1.1060028,0.6940002-1.1060028,1.4939995v0.0099983
		c0,0.7940006,0.4359894,1.5060005,1.1149902,1.5060005C48.0915985,30.8363991,48.5126038,30.1353989,48.5126038,29.3414001"/>
	<polygon class="st0" points="64.5211029,19.3708992 64.9700928,19.3708992 61.8141022,25.6679001 61.3660889,25.6679001 	"/>
	<polygon class="st0" points="62.6853027,27.9202003 62.0032959,28.1322002 61.9052887,27.8012009 62.7882996,27.4972 
		63.0883026,27.4972 63.0883026,31.1392002 62.6853027,31.1392002 	"/>
	<path class="st0" d="M63.867691,29.3409004v-0.0100002c0-1.0130005,0.6049957-1.8699989,1.5350037-1.8699989
		c0.9290009,0,1.5179901,0.8469982,1.5179901,1.8589993v0.0109997c0,1.0119991-0.5979919,1.8700008-1.5289917,1.8700008
		C64.4566956,31.200901,63.867691,30.3528996,63.867691,29.3409004 M66.4976959,29.3409004v-0.0100002
		c0-0.7910004-0.4340057-1.4990005-1.1060028-1.4990005c-0.6760101,0-1.1000061,0.6929989-1.1000061,1.4880009v0.0109997
		c0,0.789999,0.4340057,1.4979992,1.1110077,1.4979992C66.0796814,30.8288994,66.4976959,30.1309013,66.4976959,29.3409004"/>
	<path class="st0" d="M67.4159851,29.3409004v-0.0100002c0-1.0130005,0.6049957-1.8699989,1.5350037-1.8699989
		c0.9290009,0,1.5179901,0.8469982,1.5179901,1.8589993v0.0109997c0,1.0119991-0.5979919,1.8700008-1.5289917,1.8700008
		C68.0049896,31.200901,67.4159851,30.3528996,67.4159851,29.3409004 M70.04599,29.3409004v-0.0100002
		c0-0.7910004-0.4340057-1.4990005-1.1060028-1.4990005c-0.6760101,0-1.1000061,0.6929989-1.1000061,1.4880009v0.0109997
		c0,0.789999,0.4340057,1.4979992,1.1110077,1.4979992C69.6279755,30.8288994,70.04599,30.1309013,70.04599,29.3409004"/>
	<path class="st0" d="M72.0700989,28.4678001h0.3979797v0.4500008c0.1759949-0.2639999,0.4129944-0.5060005,0.8630066-0.5060005
		c0.4339905,0,0.7130127,0.230999,0.8569946,0.5309982c0.1910095-0.2939987,0.4750061-0.5309982,0.9400024-0.5309982
		c0.6149902,0,0.9920044,0.4119987,0.9920044,1.0739994v1.6529999h-0.3980103v-1.5599995
		c0-0.5170002-0.2579956-0.8059998-0.6919861-0.8059998c-0.4030151,0-0.7340088,0.2989998-0.7340088,0.8260002v1.539999h-0.3970032
		V29.5688c0-0.5020008-0.2640076-0.7959995-0.6869812-0.7959995c-0.4240112,0-0.7440186,0.3509979-0.7440186,0.8419991v1.5240002
		h-0.3979797V28.4678001z"/>
	<path class="st0" d="M76.8068848,31.6036987l0.1799927-0.3099976c0.3049927,0.2220001,0.6459961,0.3409996,1.0279846,0.3409996
		c0.5890198,0,0.9720154-0.3250008,0.9720154-0.9510002V30.3687c-0.2330017,0.3099995-0.5580139,0.5629997-1.0490112,0.5629997
		c-0.6399841,0-1.2550049-0.4799995-1.2550049-1.25v-0.0100002c0-0.7799988,0.6190186-1.2609997,1.2550049-1.2609997
		c0.5010071,0,0.8260193,0.2479992,1.0440063,0.5380001v-0.480999h0.3970032v2.2059994
		c0,0.4130001-0.1239929,0.7279987-0.3410034,0.9449997c-0.2369995,0.2380009-0.5939941,0.3570004-1.0169983,0.3570004
		C77.5758667,31.9757004,77.1628723,31.8516998,76.8068848,31.6036987 M78.9968872,29.6767006v-0.0100002
		c0-0.5480003-0.4750061-0.9040012-0.9820251-0.9040012c-0.5059814,0-0.9239807,0.3510017-0.9239807,0.8990021v0.0099983
		c0,0.5370007,0.4289856,0.9090004,0.9239807,0.9090004C78.5218811,30.5806999,78.9968872,30.2136993,78.9968872,29.6767006"/>
	<path class="st0" d="M81.6047058,30.4309998v-1.6119995h-0.3720093v-0.3510017h0.3720093v-0.8059998h0.3979797v0.8059998h0.8470154
		v0.3510017h-0.8470154v1.5599995c0,0.3259983,0.1809998,0.4449997,0.4490051,0.4449997
		c0.1350098,0,0.2479858-0.0259991,0.3880005-0.0939999v0.3419991c-0.1400146,0.0720005-0.2900085,0.1130009-0.4809875,0.1130009
		C81.9306946,31.1849995,81.6047058,30.9729996,81.6047058,30.4309998"/>
	<path class="st0" d="M83.3246765,30.3640995v-0.0109997c0-0.5629997,0.4649963-0.8619995,1.1419983-0.8619995
		c0.3410034,0,0.5830078,0.0459976,0.8210144,0.112999v-0.0919991c0-0.4810009-0.2940063-0.7290001-0.7960205-0.7290001
		c-0.3150024,0-0.5629883,0.0830002-0.8110046,0.1959991l-0.118988-0.3250008
		c0.2950134-0.1339989,0.5840149-0.2220001,0.9710083-0.2220001c0.3779907,0,0.6669922,0.0979996,0.8630066,0.2940006
		c0.1809998,0.1809998,0.2739868,0.4390011,0.2739868,0.7800007v1.6329994h-0.3819885v-0.4029999
		c-0.1860046,0.243-0.4960022,0.4599991-0.9660034,0.4599991C83.8256836,31.1960983,83.3246765,30.9110985,83.3246765,30.3640995
		 M85.2926941,30.1570988v-0.2579994c-0.1960144-0.0570011-0.460022-0.1140003-0.7850037-0.1140003
		c-0.5020142,0-0.7799988,0.2169991-0.7799988,0.5530014v0.0099983c0,0.3360004,0.3099976,0.5320015,0.67099,0.5320015
		C84.889679,30.8801003,85.2926941,30.5811005,85.2926941,30.1570988"/>
	<path class="st0" d="M86.8884888,30.6269989v0.512001h-0.3970032v-3.7719994h0.3970032v1.6379986
		c0.2170105-0.3199997,0.5320129-0.5939999,1.0230103-0.5939999c0.6399841,0,1.276001,0.5060005,1.276001,1.3850002v0.0100002
		c0,0.8729992-0.6300049,1.3899994-1.276001,1.3899994C87.4154968,31.1959991,87.0954895,30.9269981,86.8884888,30.6269989
		 M88.7795105,29.8109989v-0.0100002c0-0.6310005-0.434021-1.0340004-0.9410095-1.0340004
		c-0.4949951,0-0.9649963,0.4190006-0.9649963,1.0290012v0.0100002c0,0.6199989,0.4700012,1.0330009,0.9649963,1.0330009
		C88.3554993,30.8390007,88.7795105,30.4559994,88.7795105,29.8109989"/>
	<rect x="89.9309998" y="27.368" class="st0" width="0.3980103" height="3.7709999"/>
	<path class="st0" d="M91.0620728,29.8111v-0.0100002c0-0.7700005,0.5419922-1.3900013,1.2810059-1.3900013
		c0.7900085,0,1.2449951,0.6300011,1.2449951,1.4100018c0,0.052,0,0.0829983-0.0050049,0.1289997h-2.117981
		c0.0559998,0.5789986,0.4649963,0.9039993,0.9399719,0.9039993c0.3660278,0,0.625-0.1489983,0.8420105-0.3759995
		l0.2480164,0.2220001c-0.2690125,0.2989998-0.5940247,0.5009995-1.1000061,0.5009995
		C91.6610718,31.2010994,91.0620728,30.6380997,91.0620728,29.8111 M93.1850891,29.6560993
		c-0.0410156-0.4859982-0.3200073-0.9089985-0.8530273-0.9089985c-0.4639893,0-0.815979,0.3869991-0.8669739,0.9089985H93.1850891z"
		/>
	<path class="st0" d="M94.3984985,30.4309998v-1.6119995h-0.3720093v-0.3510017h0.3720093v-0.8059998h0.3979797v0.8059998h0.8470154
		v0.3510017h-0.8470154v1.5599995c0,0.3259983,0.1809998,0.4449997,0.4490051,0.4449997
		c0.1350098,0,0.2479858-0.0259991,0.3880005-0.0939999v0.3419991c-0.1400146,0.0720005-0.2900085,0.1130009-0.4809875,0.1130009
		C94.7244873,31.1849995,94.3984985,30.9729996,94.3984985,30.4309998"/>
	<path class="st0" d="M96.0976868,30.7977982l0.2009888-0.2839985c0.2900085,0.217001,0.6099854,0.3400002,0.9249878,0.3400002
		c0.3210144,0,0.553009-0.164999,0.553009-0.4230003v-0.0100002c0-0.269001-0.3150024-0.3719997-0.6669922-0.4699993
		c-0.4179993-0.1190014-0.8829956-0.2639999-0.8829956-0.7539997v-0.0110016c0-0.4599991,0.3829956-0.7639999,0.9089966-0.7639999
		c0.3259888,0,0.6869812,0.1130009,0.9609985,0.2940006l-0.1809998,0.3000011
		c-0.2470093-0.1599998-0.5310059-0.2590008-0.7900085-0.2590008c-0.3150024,0-0.5159912,0.164999-0.5159912,0.3879986v0.0100021
		c0,0.2529984,0.3299866,0.3519993,0.6860046,0.4599991c0.4140015,0.1240005,0.8580017,0.2840004,0.8580017,0.7649994v0.0100002
		c0,0.5060005-0.4180298,0.8010006-0.9500122,0.8010006C96.8206787,31.1907997,96.3966675,31.0407982,96.0976868,30.7977982"/>
	<polygon class="st0" points="61.0140991,27.0510998 61.3820953,27.0510998 58.9740906,31.8571014 58.6050873,31.8571014 	"/>
</g>
<polygon points="100.6185913,6.9501991 104.7315674,14.1002007 104.7325745,14.1002007 108.8675842,6.9532013 
	108.8675842,6.9501991 "/>
</svg>
