<?xml version="1.0" encoding="utf-8"?>
<!-- Generator: Adobe Illustrator 26.3.1, SVG Export Plug-In . SVG Version: 6.00 Build 0)  -->
<svg version="1.1" id="Layer_1" xmlns="http://www.w3.org/2000/svg" xmlns:xlink="http://www.w3.org/1999/xlink" x="0px" y="0px"
	 viewBox="0 0 70 19.1750031" style="enable-background:new 0 0 70 19.1750031;" xml:space="preserve">
<style type="text/css">
	.st0{clip-path:url(#SVGID_00000014618099823919157940000015205485514131347127_);fill:#FFFFFF;}
</style>
<g>
	<defs>
		<rect id="SVGID_1_" width="70" height="19.1750031"/>
	</defs>
	<clipPath id="SVGID_00000029042860892229399740000003166761397748466078_">
		<use xlink:href="#SVGID_1_"  style="overflow:visible;"/>
	</clipPath>
	<path style="clip-path:url(#SVGID_00000029042860892229399740000003166761397748466078_);fill:#FFFFFF;" d="M26.5554008,9.0784149
		l-0.0030022,3.3790131c-0.2290001,0.0889893-0.7159996,0.2159882-1.6199989,0.2159882
		c-2.2210007,0-3.656002-1.3199921-3.656002-3.3619995c0-2.022995,1.4830017-3.3309937,3.7750015-3.3309937
		c0.868,0,1.5429993,0.128006,2.1870003,0.4160004l0.2039986,0.0910034l0.4260025-1.3320007l-0.1590004-0.072998
		c-0.4700012-0.2210083-1.4370003-0.4780121-2.6150017-0.4780121c-3.7589989,0-5.4719982,2.4660034-5.4719982,4.7570038
		c0,1.3280029,0.4939976,2.5510101,1.3519993,3.3529968c0.9490013,0.8930054,2.2109985,1.3280029,3.8520012,1.3280029
		c1.4299965,0,2.6029968-0.3519897,3.1759987-0.5589905L28.1334,13.4354248V9.082428L26.5554008,9.0784149z"/>
	
		<rect x="30.9049988" y="4.6959991" style="clip-path:url(#SVGID_00000029042860892229399740000003166761397748466078_);fill:#FFFFFF;" width="1.5960007" height="9.253006"/>
	<polygon style="clip-path:url(#SVGID_00000029042860892229399740000003166761397748466078_);fill:#FFFFFF;" points="
		37.1332016,12.5499115 37.1332016,4.6959229 35.5372009,4.6959229 35.5372009,13.9489136 41.3512001,13.9489136 
		41.3512001,12.5499115 	"/>
	<polygon style="clip-path:url(#SVGID_00000029042860892229399740000003166761397748466078_);fill:#FFFFFF;" points="
		44.9453011,12.5731049 44.9453011,9.8171082 48.7832985,9.8171082 48.7832985,8.4421082 44.9453011,8.4421082 44.9453011,6.072113 
		49.0062981,6.072113 49.0062981,4.697113 43.3512993,4.697113 43.3512993,13.9481049 49.2212982,13.9481049 49.2212982,12.5731049 
			"/>
	<path style="clip-path:url(#SVGID_00000029042860892229399740000003166761397748466078_);fill:#FFFFFF;" d="M56.0628967,4.6967163
		h-1.5810013l-3.4889984,9.2519989h1.6110001l1.0239944-2.8249969h3.253006l1.0699997,2.8249969h1.6399994L56.0628967,4.6967163z
		 M55.2418976,6.5167084c0.0879974,0.2810059,0.9669952,2.6130066,1.2249985,3.2860107h-2.4280014
		C54.0388947,9.8027191,55.154892,6.7957153,55.2418976,6.5167084"/>
	<path style="clip-path:url(#SVGID_00000029042860892229399740000003166761397748466078_);fill:#FFFFFF;" d="M68.6608963,5.9149017
		c-0.9140015-0.8609924-2.3360062-1.2979889-4.2250061-1.2979889l-2.9769974,0.0029907v1.3300018l3.012001,0.0080109
		c1.3839951,0,2.4219971,0.3369904,3.0820007,1.0029907c0.5319977,0.5380096,0.798996,1.276001,0.7900009,2.1920013
		c0,1.0160065-0.3180008,1.8710022-0.9210052,2.4720001c-0.6999969,0.6990051-1.7999954,1.0670013-3.1759949,1.0630035
		c-0.4179993,0-0.8710022-0.0059967-1.2060013-0.0400085V8.4579163h-1.5810013v5.4559937l0.1790009,0.0189972
		c0.6910019,0.0709991,1.4449997,0.1029968,2.4039993,0.1029968c1.961998,0,3.5790024-0.5099945,4.5530014-1.4389954
		c0.9049988-0.8899994,1.4049988-2.128006,1.4049988-3.4920044C69.9998932,7.8019104,69.5498962,6.7289124,68.6608963,5.9149017"/>
	<path style="clip-path:url(#SVGID_00000029042860892229399740000003166761397748466078_);fill:#FFFFFF;" d="M14.4116001,0.0522003
		c0-0.0289917-0.0230007-0.0519867-0.0510006-0.0519867v-0.0010071h-0.0009995h-0.0010014
		c-0.0030003,0-0.0039997,0.0010071-0.0049992,0.0010071C2.3886003,1.1382141,0.8635998,9.3892059,4.7765999,12.0232086
		c-0.6760006,2.9790039-0.0470009,2.9100037-0.0470009,2.9100037c0.1190014-0.8870087,0.2970009-1.7689972,0.5250015-2.6340027
		C6.7805996,6.4932098,10.5576,1.4272003,14.3666,0.1052094l-0.0020008-0.0010071
		C14.3905983,0.1012115,14.4116001,0.0792084,14.4116001,0.0522003"/>
	<path style="clip-path:url(#SVGID_00000029042860892229399740000003166761397748466078_);fill:#FFFFFF;" d="M13.7796001,1.9473114
		c0-0.0299988-0.0230007-0.0529938-0.0530014-0.0529938c-0.0229988,0-0.0429993,0.0149994-0.0489998,0.0359955
		c-0.9890003,1.9380035-1.2749996,4.7150116-2.0289993,6.8380127C10.7875996,11.1993256,9.2556,12.836319,6.8895988,12.6803131
		v5.9080048c0,0-6.3179989-2.8569946-6.3179989-7.4530029V2.5253143l5.1630001-0.4700012h0.0009995
		c0.0300007,0,0.0550003-0.0239868,0.0550003-0.0540009c0-0.0279999-0.0230007-0.0499878-0.0510006-0.0529938V1.9473114h-5.7399988
		v9.1880035c0,5.1699982,6.888999,8.0400085,6.888999,8.0400085s6.8920002-2.9179993,6.8920002-8.0400085V1.9473114H13.7796001z"/>
</g>
</svg>
