<?xml version="1.0" encoding="utf-8"?>
<!-- Generator: Adobe Illustrator 26.3.1, SVG Export Plug-In . SVG Version: 6.00 Build 0)  -->
<svg version="1.1" id="Layer_1" xmlns="http://www.w3.org/2000/svg" xmlns:xlink="http://www.w3.org/1999/xlink" x="0px" y="0px"
	 viewBox="0 0 234.6191406 11.3789062" style="enable-background:new 0 0 234.6191406 11.3789062;" xml:space="preserve">
<style type="text/css">
	.st0{fill:#FFFFFF;}
</style>
<g>
	<g>
		<g>
			<g>
				<g>
					<g>
						<path class="st0" d="M0.0664062,0.2041016h3.0341797v0.4316406H0.5400391v1.4326172h2.2910156V2.5H0.5400391v1.4697266
							h2.5908203v0.4316406H0.0664062V0.2041016z"/>
						<path class="st0" d="M3.9423828,0.2041016h1.5712891c0.9472656,0,1.5712891,0.5029297,1.5712891,1.3310547V1.546875
							c0,0.9052734-0.7558594,1.3730469-1.6494141,1.3730469H4.4160156v1.4814453H3.9423828V0.2041016z M5.453125,2.4882812
							c0.6962891,0,1.1513672-0.3720703,1.1513672-0.9238281V1.5527344c0-0.5996094-0.4492188-0.9111328-1.1269531-0.9111328
							H4.4160156v1.8466797H5.453125z"/>
						<path class="st0" d="M7.6210938,2.3144531V2.3027344c0-1.1875,0.8867188-2.1708984,2.1220703-2.1708984
							c0.7617188,0,1.2177734,0.2695312,1.6376953,0.6650391l-0.3242188,0.3486328
							c-0.3535156-0.3359375-0.7490234-0.5761719-1.3193359-0.5761719c-0.9296875,0-1.625,0.7558594-1.625,1.7207031v0.0126953
							c0,0.9716797,0.7021484,1.7324219,1.625,1.7324219c0.5761719,0,0.9541016-0.2216797,1.3554688-0.6054688l0.3115234,0.3056641
							c-0.4375,0.4443359-0.9169922,0.7382812-1.6787109,0.7382812C8.5146484,4.4736328,7.6210938,3.5195312,7.6210938,2.3144531z"
							/>
						<path class="st0" d="M12.1142578,0.2041016h0.4736328v3.7597656h2.3623047v0.4375h-2.8359375V0.2041016z"/>
						<path class="st0" d="M15.4980469,2.6445312V0.2041016h0.4736328v2.4101562
							c0,0.9052734,0.4804688,1.4150391,1.2841797,1.4150391c0.7734375,0,1.2646484-0.4677734,1.2646484-1.3847656V0.2041016
							h0.4736328v2.4042969c0,1.2236328-0.7011719,1.859375-1.7509766,1.859375
							C16.2060547,4.4677734,15.4980469,3.8320312,15.4980469,2.6445312z"/>
						<path class="st0" d="M19.6982422,3.7900391l0.2939453-0.3476562c0.4384766,0.3955078,0.8574219,0.5927734,1.4394531,0.5927734
							c0.5634766,0,0.9355469-0.2998047,0.9355469-0.7128906V3.3095703c0-0.3896484-0.2099609-0.6113281-1.0917969-0.796875
							c-0.9648438-0.2099609-1.4091797-0.5224609-1.4091797-1.2119141V1.2890625
							c0-0.6591797,0.5820312-1.1455078,1.3798828-1.1455078c0.6113281,0,1.0488281,0.1738281,1.4746094,0.515625
							l-0.2753906,0.3662109c-0.3896484-0.3183594-0.7792969-0.4560547-1.2119141-0.4560547
							c-0.5449219,0-0.8935547,0.2998047-0.8935547,0.6777344v0.0117188c0,0.3964844,0.2167969,0.6181641,1.1396484,0.8154297
							c0.9355469,0.2041016,1.3671875,0.5458984,1.3671875,1.1875v0.0126953c0,0.71875-0.5996094,1.1865234-1.4326172,1.1865234
							C20.7480469,4.4609375,20.2021484,4.2392578,19.6982422,3.7900391z"/>
						<path class="st0" d="M25.1328125,0.1738281h0.4443359l1.9130859,4.2275391h-0.5097656l-0.4921875-1.109375h-2.2841797
							l-0.4980469,1.109375h-0.4863281L25.1328125,0.1738281z M26.3027344,2.8662109l-0.9541016-2.140625l-0.9589844,2.140625
							H26.3027344z"/>
						<path class="st0" d="M29.7597656,0.1132812h0.5283203v0.5097656h-0.5283203V0.1132812z M29.7900391,1.3007812h0.4619141
							v3.1005859h-0.4619141V1.3007812z"/>
						<path class="st0" d="M30.9238281,4.0058594l0.234375-0.3300781c0.3349609,0.2519531,0.7070312,0.3955078,1.0732422,0.3955078
							c0.3710938,0,0.6416016-0.1914062,0.6416016-0.4912109V3.5673828c0-0.3115234-0.3662109-0.4316406-0.7734375-0.5449219
							c-0.4863281-0.1386719-1.0253906-0.3066406-1.0253906-0.8759766V2.1347656
							c0-0.5341797,0.4433594-0.8876953,1.0546875-0.8876953c0.3779297,0,0.7978516,0.1318359,1.1152344,0.3417969
							l-0.2089844,0.3476562c-0.2880859-0.1855469-0.6181641-0.2998047-0.9179688-0.2998047
							c-0.3662109,0-0.5996094,0.1923828-0.5996094,0.4501953v0.0117188c0,0.2939453,0.3837891,0.4082031,0.7978516,0.5341797
							c0.4794922,0.1435547,0.9951172,0.3291016,0.9951172,0.8867188v0.0126953
							c0,0.5869141-0.4853516,0.9287109-1.1035156,0.9287109C31.7636719,4.4609375,31.2714844,4.2871094,30.9238281,4.0058594z"/>
						<path class="st0" d="M35.6933594,0.1132812h0.5283203v0.5097656h-0.5283203V0.1132812z M35.7236328,1.3007812h0.4619141
							v3.1005859h-0.4619141V1.3007812z"/>
						<path class="st0" d="M37.1152344,1.3007812h0.4619141v0.5400391c0.2041016-0.3359375,0.5273438-0.6054688,1.0615234-0.6054688
							c0.7490234,0,1.1875,0.5039062,1.1875,1.2412109v1.9248047h-0.4619141V2.5908203
							c0-0.5761719-0.3115234-0.9355469-0.8574219-0.9355469c-0.5341797,0-0.9296875,0.3896484-0.9296875,0.9707031v1.7753906
							h-0.4619141V1.3007812z"/>
						<path class="st0" d="M40.4814453,2.8603516V2.8486328c0-1.0136719,0.7373047-1.6132812,1.4814453-1.6132812
							c0.5751953,0,0.9472656,0.3115234,1.1865234,0.6591797V0.0234375h0.4619141v4.3779297h-0.4619141V3.7773438
							c-0.2509766,0.3720703-0.6171875,0.6904297-1.1865234,0.6904297
							C41.21875,4.4677734,40.4814453,3.8798828,40.4814453,2.8603516z M43.1679688,2.8544922V2.8417969
							c0-0.7128906-0.5458984-1.1933594-1.1210938-1.1933594c-0.5996094,0-1.0917969,0.4443359-1.0917969,1.1933594v0.0126953
							c0,0.7314453,0.5039062,1.1992188,1.0917969,1.1992188C42.6220703,4.0537109,43.1679688,3.5673828,43.1679688,2.8544922z"/>
						<path class="st0" d="M44.5136719,0.1132812h0.5283203v0.5097656h-0.5283203V0.1132812z M44.5439453,1.3007812h0.4619141
							v3.1005859h-0.4619141V1.3007812z"/>
						<path class="st0" d="M45.7441406,2.8662109V2.8544922c0-0.8759766,0.6835938-1.6191406,1.5888672-1.6191406
							c0.5878906,0,0.953125,0.2460938,1.2412109,0.5517578l-0.3056641,0.3232422
							c-0.2460938-0.2578125-0.5214844-0.4677734-0.9414062-0.4677734c-0.6298828,0-1.109375,0.5341797-1.109375,1.1992188
							v0.0126953c0,0.6708984,0.4912109,1.2050781,1.1386719,1.2050781c0.3964844,0,0.7021484-0.1982422,0.9482422-0.4619141
							l0.2939453,0.2763672c-0.3125,0.3476562-0.6845703,0.5996094-1.265625,0.5996094
							C46.4277344,4.4736328,45.7441406,3.7353516,45.7441406,2.8662109z"/>
						<path class="st0" d="M48.9775391,3.5019531V3.4902344c0-0.6542969,0.5390625-1.0019531,1.3251953-1.0019531
							c0.3955078,0,0.6777344,0.0537109,0.953125,0.1318359V2.5126953c0-0.5576172-0.3417969-0.8457031-0.9238281-0.8457031
							c-0.3652344,0-0.6533203,0.0957031-0.9414062,0.2275391l-0.1376953-0.3779297
							c0.3417969-0.1552734,0.6777344-0.2578125,1.1279297-0.2578125c0.4375,0,0.7734375,0.1142578,1.0009766,0.3417969
							c0.2099609,0.2099609,0.3173828,0.5097656,0.3173828,0.90625v1.8945312h-0.4433594V3.9335938
							c-0.2158203,0.2822266-0.5751953,0.5341797-1.1210938,0.5341797
							C49.5585938,4.4677734,48.9775391,4.1376953,48.9775391,3.5019531z M51.2617188,3.2617188V2.9619141
							c-0.2275391-0.0654297-0.5332031-0.1318359-0.9111328-0.1318359c-0.5820312,0-0.9052734,0.2519531-0.9052734,0.6416016
							v0.0117188c0,0.390625,0.359375,0.6181641,0.7792969,0.6181641
							C50.7939453,4.1015625,51.2617188,3.7539062,51.2617188,3.2617188z"/>
						<path class="st0" d="M52.6738281,3.5800781V1.7089844h-0.4316406V1.3007812h0.4316406V0.3652344h0.4619141v0.9355469
							h0.9833984v0.4082031h-0.9833984v1.8105469c0,0.3779297,0.2099609,0.515625,0.5214844,0.515625
							c0.15625,0,0.2880859-0.0292969,0.4501953-0.1074219v0.3955078c-0.1621094,0.0839844-0.3359375,0.1318359-0.5585938,0.1318359
							C53.0517578,4.4550781,52.6738281,4.2099609,52.6738281,3.5800781z"/>
						<path class="st0" d="M54.5039062,2.8603516V2.8486328c0-0.8935547,0.6289062-1.6132812,1.4863281-1.6132812
							c0.9179688,0,1.4453125,0.7314453,1.4453125,1.6367188c0,0.0605469,0,0.0957031-0.0058594,0.1503906h-2.4580078
							c0.0654297,0.6708984,0.5390625,1.0488281,1.0908203,1.0488281c0.4257812,0,0.7255859-0.1738281,0.9775391-0.4375
							l0.2880859,0.2578125c-0.3115234,0.3476562-0.6894531,0.5820312-1.2773438,0.5820312
							C55.1992188,4.4736328,54.5039062,3.8193359,54.5039062,2.8603516z M56.9677734,2.6806641
							C56.9199219,2.1162109,56.5966797,1.625,55.9785156,1.625c-0.5390625,0-0.9472656,0.4492188-1.0068359,1.0556641H56.9677734z"
							/>
						<path class="st0" d="M57.9238281,2.8603516V2.8486328c0-1.0136719,0.7373047-1.6132812,1.4814453-1.6132812
							c0.5751953,0,0.9472656,0.3115234,1.1865234,0.6591797V0.0234375h0.4619141v4.3779297h-0.4619141V3.7773438
							c-0.2509766,0.3720703-0.6171875,0.6904297-1.1865234,0.6904297
							C58.6611328,4.4677734,57.9238281,3.8798828,57.9238281,2.8603516z M60.6103516,2.8544922V2.8417969
							c0-0.7128906-0.5458984-1.1933594-1.1210938-1.1933594c-0.5996094,0-1.0917969,0.4443359-1.0917969,1.1933594v0.0126953
							c0,0.7314453,0.5039062,1.1992188,1.0917969,1.1992188C60.0644531,4.0537109,60.6103516,3.5673828,60.6103516,2.8544922z"/>
						<path class="st0" d="M63.7734375,1.7089844h-0.4257812V1.3066406h0.4257812V1.0371094
							c0-0.3535156,0.0957031-0.6240234,0.2695312-0.7978516C64.1992188,0.0839844,64.4277344,0,64.7089844,0
							c0.2158203,0,0.3603516,0.0234375,0.5097656,0.078125v0.4013672c-0.1679688-0.0478516-0.2939453-0.078125-0.4492188-0.078125
							c-0.3603516,0-0.5400391,0.2158203-0.5400391,0.6601562v0.2519531h0.9833984v0.3955078h-0.9775391v2.6923828h-0.4619141
							V1.7089844z"/>
						<path class="st0" d="M65.4052734,2.8662109V2.8544922c0-0.8759766,0.6835938-1.6191406,1.6191406-1.6191406
							c0.9287109,0,1.6123047,0.7314453,1.6123047,1.6064453v0.0126953c0,0.875-0.6894531,1.6191406-1.625,1.6191406
							C66.0820312,4.4736328,65.4052734,3.7421875,65.4052734,2.8662109z M68.1630859,2.8662109V2.8544922
							c0-0.6660156-0.4970703-1.2119141-1.1513672-1.2119141c-0.6708984,0-1.1328125,0.5458984-1.1328125,1.1992188v0.0126953
							c0,0.6650391,0.4912109,1.2050781,1.1455078,1.2050781C67.6953125,4.0595703,68.1630859,3.5195312,68.1630859,2.8662109z"/>
						<path class="st0" d="M69.3291016,1.3007812h0.4619141v0.8095703c0.2275391-0.515625,0.6777344-0.8876953,1.265625-0.8632812
							v0.4980469h-0.0361328c-0.6777344,0-1.2294922,0.4853516-1.2294922,1.4208984v1.2353516h-0.4619141V1.3007812z"/>
						<path class="st0" d="M73.4267578,3.5800781V1.7089844h-0.4316406V1.3007812h0.4316406V0.3652344h0.4619141v0.9355469
							h0.9833984v0.4082031h-0.9833984v1.8105469c0,0.3779297,0.2099609,0.515625,0.5214844,0.515625
							c0.15625,0,0.2880859-0.0292969,0.4492188-0.1074219v0.3955078c-0.1611328,0.0839844-0.3349609,0.1318359-0.5576172,0.1318359
							C73.8046875,4.4550781,73.4267578,4.2099609,73.4267578,3.5800781z"/>
						<path class="st0" d="M75.5449219,0.0234375h0.4619141v1.8173828c0.2041016-0.3359375,0.5273438-0.6054688,1.0615234-0.6054688
							c0.7490234,0,1.1875,0.5039062,1.1875,1.2412109v1.9248047h-0.4619141V2.5908203
							c0-0.5761719-0.3115234-0.9355469-0.8574219-0.9355469c-0.5341797,0-0.9296875,0.3896484-0.9296875,0.9707031v1.7753906
							h-0.4619141V0.0234375z"/>
						<path class="st0" d="M78.9052734,2.8603516V2.8486328c0-0.8935547,0.6289062-1.6132812,1.4863281-1.6132812
							c0.9179688,0,1.4453125,0.7314453,1.4453125,1.6367188c0,0.0605469,0,0.0957031-0.0058594,0.1503906h-2.4580078
							c0.0654297,0.6708984,0.5390625,1.0488281,1.0908203,1.0488281c0.4257812,0,0.7255859-0.1738281,0.9775391-0.4375
							l0.2880859,0.2578125c-0.3115234,0.3476562-0.6894531,0.5820312-1.2773438,0.5820312
							C79.6005859,4.4736328,78.9052734,3.8193359,78.9052734,2.8603516z M81.3691406,2.6806641
							C81.3212891,2.1162109,80.9980469,1.625,80.3798828,1.625c-0.5390625,0-0.9472656,0.4492188-1.0068359,1.0556641H81.3691406z"
							/>
						<path class="st0" d="M84.3173828,3.5800781V1.7089844h-0.4316406V1.3007812h0.4316406V0.3652344h0.4619141v0.9355469
							h0.9833984v0.4082031h-0.9833984v1.8105469c0,0.3779297,0.2099609,0.515625,0.5214844,0.515625
							c0.15625,0,0.2880859-0.0292969,0.4492188-0.1074219v0.3955078c-0.1611328,0.0839844-0.3349609,0.1318359-0.5576172,0.1318359
							C84.6953125,4.4550781,84.3173828,4.2099609,84.3173828,3.5800781z"/>
						<path class="st0" d="M86.4345703,1.3007812h0.4619141v0.8095703c0.2275391-0.515625,0.6777344-0.8876953,1.265625-0.8632812
							v0.4980469h-0.0361328c-0.6777344,0-1.2294922,0.4853516-1.2294922,1.4208984v1.2353516h-0.4619141V1.3007812z"/>
						<path class="st0" d="M88.3974609,2.8603516V2.8486328c0-0.8935547,0.6289062-1.6132812,1.4863281-1.6132812
							c0.9179688,0,1.4453125,0.7314453,1.4453125,1.6367188c0,0.0605469,0,0.0957031-0.0058594,0.1503906h-2.4580078
							c0.0654297,0.6708984,0.5390625,1.0488281,1.0908203,1.0488281c0.4257812,0,0.7255859-0.1738281,0.9775391-0.4375
							l0.2880859,0.2578125c-0.3115234,0.3476562-0.6894531,0.5820312-1.2773438,0.5820312
							C89.0927734,4.4736328,88.3974609,3.8193359,88.3974609,2.8603516z M90.8613281,2.6806641
							C90.8134766,2.1162109,90.4902344,1.625,89.8720703,1.625c-0.5390625,0-0.9472656,0.4492188-1.0068359,1.0556641H90.8613281z"
							/>
						<path class="st0" d="M91.7578125,3.5019531V3.4902344c0-0.6542969,0.5390625-1.0019531,1.3251953-1.0019531
							c0.3955078,0,0.6777344,0.0537109,0.953125,0.1318359V2.5126953c0-0.5576172-0.3417969-0.8457031-0.9238281-0.8457031
							c-0.3652344,0-0.6533203,0.0957031-0.9414062,0.2275391l-0.1376953-0.3779297
							C92.375,1.3613281,92.7109375,1.2587891,93.1611328,1.2587891c0.4375,0,0.7734375,0.1142578,1.0009766,0.3417969
							c0.2099609,0.2099609,0.3173828,0.5097656,0.3173828,0.90625v1.8945312h-0.4433594V3.9335938
							c-0.2158203,0.2822266-0.5751953,0.5341797-1.1210938,0.5341797
							C92.3388672,4.4677734,91.7578125,4.1376953,91.7578125,3.5019531z M94.0419922,3.2617188V2.9619141
							c-0.2275391-0.0654297-0.5332031-0.1318359-0.9111328-0.1318359c-0.5820312,0-0.9052734,0.2519531-0.9052734,0.6416016
							v0.0117188c0,0.390625,0.359375,0.6181641,0.7792969,0.6181641
							C93.5742188,4.1015625,94.0419922,3.7539062,94.0419922,3.2617188z"/>
						<path class="st0" d="M95.4472656,3.5800781V1.7089844H95.015625V1.3007812h0.4316406V0.3652344h0.4619141v0.9355469h0.9833984
							v0.4082031h-0.9833984v1.8105469c0,0.3779297,0.2099609,0.515625,0.5214844,0.515625
							c0.15625,0,0.2880859-0.0292969,0.4501953-0.1074219v0.3955078c-0.1621094,0.0839844-0.3359375,0.1318359-0.5585938,0.1318359
							C95.8251953,4.4550781,95.4472656,4.2099609,95.4472656,3.5800781z"/>
						<path class="st0" d="M97.5644531,1.3007812h0.4619141v0.5224609c0.2041016-0.3066406,0.4794922-0.5878906,1.0009766-0.5878906
							c0.5039062,0,0.828125,0.2695312,0.9960938,0.6171875c0.2216797-0.3417969,0.5517578-0.6171875,1.0908203-0.6171875
							c0.7138672,0,1.1513672,0.4794922,1.1513672,1.2470703v1.9189453h-0.4609375V2.5908203
							c0-0.6005859-0.3007812-0.9355469-0.8037109-0.9355469c-0.4677734,0-0.8574219,0.3476562-0.8574219,0.9589844v1.7871094
							H99.6875V2.578125c0-0.5810547-0.3056641-0.9228516-0.7978516-0.9228516
							c-0.4912109,0-0.8632812,0.4072266-0.8632812,0.9775391v1.7685547h-0.4619141V1.3007812z"/>
						<path class="st0" d="M102.9169922,2.8603516V2.8486328c0-0.8935547,0.6289062-1.6132812,1.4863281-1.6132812
							c0.9179688,0,1.4453125,0.7314453,1.4453125,1.6367188c0,0.0605469,0,0.0957031-0.0058594,0.1503906h-2.4580078
							c0.0654297,0.6708984,0.5390625,1.0488281,1.0908203,1.0488281c0.4257812,0,0.7255859-0.1738281,0.9775391-0.4375
							l0.2880859,0.2578125c-0.3115234,0.3476562-0.6894531,0.5820312-1.2773438,0.5820312
							C103.6123047,4.4736328,102.9169922,3.8193359,102.9169922,2.8603516z M105.3808594,2.6806641
							C105.3330078,2.1162109,105.0097656,1.625,104.3916016,1.625c-0.5390625,0-0.9472656,0.4492188-1.0068359,1.0556641
							H105.3808594z"/>
						<path class="st0" d="M106.5107422,1.3007812h0.4619141v0.5400391
							c0.2041016-0.3359375,0.5273438-0.6054688,1.0615234-0.6054688c0.7490234,0,1.1875,0.5039062,1.1875,1.2412109v1.9248047
							h-0.4619141V2.5908203c0-0.5761719-0.3115234-0.9355469-0.8574219-0.9355469
							c-0.5341797,0-0.9296875,0.3896484-0.9296875,0.9707031v1.7753906h-0.4619141V1.3007812z"/>
						<path class="st0" d="M110.21875,3.5800781V1.7089844h-0.4316406V1.3007812h0.4316406V0.3652344h0.4619141v0.9355469h0.9833984
							v0.4082031h-0.9833984v1.8105469c0,0.3779297,0.2099609,0.515625,0.5214844,0.515625
							c0.15625,0,0.2880859-0.0292969,0.4501953-0.1074219v0.3955078c-0.1621094,0.0839844-0.3359375,0.1318359-0.5585938,0.1318359
							C110.5966797,4.4550781,110.21875,4.2099609,110.21875,3.5800781z"/>
						<path class="st0" d="M113.8007812,2.8662109V2.8544922c0-0.8759766,0.6835938-1.6191406,1.6191406-1.6191406
							c0.9287109,0,1.6123047,0.7314453,1.6123047,1.6064453v0.0126953c0,0.875-0.6894531,1.6191406-1.625,1.6191406
							C114.4775391,4.4736328,113.8007812,3.7421875,113.8007812,2.8662109z M116.5585938,2.8662109V2.8544922
							c0-0.6660156-0.4970703-1.2119141-1.1513672-1.2119141c-0.6708984,0-1.1328125,0.5458984-1.1328125,1.1992188v0.0126953
							c0,0.6650391,0.4912109,1.2050781,1.1455078,1.2050781C116.0908203,4.0595703,116.5585938,3.5195312,116.5585938,2.8662109z"
							/>
						<path class="st0" d="M117.8925781,1.7089844h-0.4257812V1.3066406h0.4257812V1.0371094
							c0-0.3535156,0.0957031-0.6240234,0.2695312-0.7978516C118.3183594,0.0839844,118.546875,0,118.828125,0
							c0.2158203,0,0.3603516,0.0234375,0.5097656,0.078125v0.4013672c-0.1679688-0.0478516-0.2939453-0.078125-0.4492188-0.078125
							c-0.3603516,0-0.5400391,0.2158203-0.5400391,0.6601562v0.2519531h0.9833984v0.3955078h-0.9775391v2.6923828h-0.4619141
							V1.7089844z"/>
						<path class="st0" d="M121.2412109,2.8662109V2.8544922c0-0.8759766,0.6835938-1.6191406,1.5888672-1.6191406
							c0.5878906,0,0.953125,0.2460938,1.2412109,0.5517578l-0.3056641,0.3232422
							c-0.2460938-0.2578125-0.5214844-0.4677734-0.9414062-0.4677734c-0.6298828,0-1.109375,0.5341797-1.109375,1.1992188
							v0.0126953c0,0.6708984,0.4912109,1.2050781,1.1386719,1.2050781c0.3964844,0,0.7021484-0.1982422,0.9482422-0.4619141
							l0.2939453,0.2763672c-0.3125,0.3476562-0.6835938,0.5996094-1.265625,0.5996094
							C121.9248047,4.4736328,121.2412109,3.7353516,121.2412109,2.8662109z"/>
						<path class="st0" d="M124.7138672,0.0234375h0.4619141v1.8173828
							c0.2041016-0.3359375,0.5273438-0.6054688,1.0615234-0.6054688c0.7490234,0,1.1875,0.5039062,1.1875,1.2412109v1.9248047
							h-0.4619141V2.5908203c0-0.5761719-0.3115234-0.9355469-0.8574219-0.9355469
							c-0.5341797,0-0.9296875,0.3896484-0.9296875,0.9707031v1.7753906h-0.4619141V0.0234375z"/>
						<path class="st0" d="M128.2666016,1.3007812h0.4619141v0.8095703c0.2275391-0.515625,0.6777344-0.8876953,1.265625-0.8632812
							v0.4980469h-0.0361328c-0.6777344,0-1.2294922,0.4853516-1.2294922,1.4208984v1.2353516h-0.4619141V1.3007812z"/>
						<path class="st0" d="M130.2226562,2.8662109V2.8544922c0-0.8759766,0.6835938-1.6191406,1.6191406-1.6191406
							c0.9287109,0,1.6123047,0.7314453,1.6123047,1.6064453v0.0126953c0,0.875-0.6894531,1.6191406-1.625,1.6191406
							C130.8994141,4.4736328,130.2226562,3.7421875,130.2226562,2.8662109z M132.9804688,2.8662109V2.8544922
							c0-0.6660156-0.4970703-1.2119141-1.1513672-1.2119141c-0.6708984,0-1.1328125,0.5458984-1.1328125,1.1992188v0.0126953
							c0,0.6650391,0.4912109,1.2050781,1.1455078,1.2050781C132.5126953,4.0595703,132.9804688,3.5195312,132.9804688,2.8662109z"
							/>
						<path class="st0" d="M134.1464844,1.3007812h0.4619141v0.5400391
							c0.2041016-0.3359375,0.5273438-0.6054688,1.0615234-0.6054688c0.7490234,0,1.1875,0.5039062,1.1875,1.2412109v1.9248047
							h-0.4619141V2.5908203c0-0.5761719-0.3115234-0.9355469-0.8574219-0.9355469
							c-0.5341797,0-0.9296875,0.3896484-0.9296875,0.9707031v1.7753906h-0.4619141V1.3007812z"/>
						<path class="st0" d="M137.7099609,0.1132812h0.5283203v0.5097656h-0.5283203V0.1132812z M137.7402344,1.3007812h0.4619141
							v3.1005859h-0.4619141V1.3007812z"/>
						<path class="st0" d="M138.9404297,2.8662109V2.8544922c0-0.8759766,0.6835938-1.6191406,1.5888672-1.6191406
							c0.5878906,0,0.953125,0.2460938,1.2412109,0.5517578l-0.3056641,0.3232422
							c-0.2460938-0.2578125-0.5214844-0.4677734-0.9414062-0.4677734c-0.6298828,0-1.109375,0.5341797-1.109375,1.1992188
							v0.0126953c0,0.6708984,0.4912109,1.2050781,1.1386719,1.2050781c0.3964844,0,0.7021484-0.1982422,0.9482422-0.4619141
							l0.2939453,0.2763672c-0.3125,0.3476562-0.6835938,0.5996094-1.265625,0.5996094
							C139.6240234,4.4736328,138.9404297,3.7353516,138.9404297,2.8662109z"/>
						<path class="st0" d="M144.0703125,0.0234375h0.4619141v1.8173828
							c0.2041016-0.3359375,0.5273438-0.6054688,1.0615234-0.6054688c0.7490234,0,1.1875,0.5039062,1.1875,1.2412109v1.9248047
							h-0.4619141V2.5908203c0-0.5761719-0.3115234-0.9355469-0.8574219-0.9355469
							c-0.5341797,0-0.9296875,0.3896484-0.9296875,0.9707031v1.7753906h-0.4619141V0.0234375z"/>
						<path class="st0" d="M147.4248047,2.8603516V2.8486328c0-0.8935547,0.6289062-1.6132812,1.4863281-1.6132812
							c0.9179688,0,1.4453125,0.7314453,1.4453125,1.6367188c0,0.0605469,0,0.0957031-0.0058594,0.1503906h-2.4580078
							c0.0654297,0.6708984,0.5390625,1.0488281,1.0908203,1.0488281c0.4257812,0,0.7255859-0.1738281,0.9775391-0.4375
							l0.2880859,0.2578125c-0.3115234,0.3476562-0.6894531,0.5820312-1.2773438,0.5820312
							C148.1201172,4.4736328,147.4248047,3.8193359,147.4248047,2.8603516z M149.8886719,2.6806641
							C149.8408203,2.1162109,149.5175781,1.625,148.8994141,1.625c-0.5390625,0-0.9472656,0.4492188-1.0068359,1.0556641
							H149.8886719z"/>
						<path class="st0" d="M151.0244141,1.3007812h0.4619141v0.6240234c0.2519531-0.3720703,0.6171875-0.6894531,1.1875-0.6894531
							c0.7431641,0,1.4804688,0.5878906,1.4804688,1.6064453v0.0126953c0,1.0126953-0.7314453,1.6132812-1.4804688,1.6132812
							c-0.5761719,0-0.9472656-0.3125-1.1875-0.6601562v1.5527344h-0.4619141V1.3007812z M153.6806641,2.8603516V2.8486328
							c0-0.7324219-0.5029297-1.2001953-1.0908203-1.2001953c-0.5761719,0-1.1210938,0.4863281-1.1210938,1.1933594v0.0126953
							c0,0.7197266,0.5449219,1.1992188,1.1210938,1.1992188C153.1894531,4.0537109,153.6806641,3.609375,153.6806641,2.8603516z"/>
						<path class="st0" d="M154.6308594,3.5019531V3.4902344c0-0.6542969,0.5390625-1.0019531,1.3251953-1.0019531
							c0.3955078,0,0.6777344,0.0537109,0.953125,0.1318359V2.5126953c0-0.5576172-0.3417969-0.8457031-0.9238281-0.8457031
							c-0.3652344,0-0.6533203,0.0957031-0.9414062,0.2275391L154.90625,1.5166016
							c0.3417969-0.1552734,0.6777344-0.2578125,1.1279297-0.2578125c0.4375,0,0.7734375,0.1142578,1.0009766,0.3417969
							c0.2099609,0.2099609,0.3173828,0.5097656,0.3173828,0.90625v1.8945312h-0.4433594V3.9335938
							c-0.2158203,0.2822266-0.5751953,0.5341797-1.1210938,0.5341797
							C155.2119141,4.4677734,154.6308594,4.1376953,154.6308594,3.5019531z M156.9150391,3.2617188V2.9619141
							c-0.2275391-0.0654297-0.5332031-0.1318359-0.9111328-0.1318359c-0.5820312,0-0.9052734,0.2519531-0.9052734,0.6416016
							v0.0117188c0,0.390625,0.359375,0.6181641,0.7792969,0.6181641
							C156.4472656,4.1015625,156.9150391,3.7539062,156.9150391,3.2617188z"/>
						<path class="st0" d="M158.3203125,3.5800781V1.7089844h-0.4316406V1.3007812h0.4316406V0.3652344h0.4619141v0.9355469
							h0.9833984v0.4082031h-0.9833984v1.8105469c0,0.3779297,0.2099609,0.515625,0.5214844,0.515625
							c0.15625,0,0.2880859-0.0292969,0.4501953-0.1074219v0.3955078c-0.1621094,0.0839844-0.3359375,0.1318359-0.5585938,0.1318359
							C158.6982422,4.4550781,158.3203125,4.2099609,158.3203125,3.5800781z"/>
						<path class="st0" d="M160.4492188,0.1132812h0.5283203v0.5097656h-0.5283203V0.1132812z M160.4794922,1.3007812h0.4619141
							v3.1005859h-0.4619141V1.3007812z"/>
						<path class="st0" d="M162.0341797,3.5800781V1.7089844h-0.4316406V1.3007812h0.4316406V0.3652344h0.4619141v0.9355469
							h0.9833984v0.4082031h-0.9833984v1.8105469c0,0.3779297,0.2099609,0.515625,0.5214844,0.515625
							c0.15625,0,0.2880859-0.0292969,0.4492188-0.1074219v0.3955078c-0.1611328,0.0839844-0.3349609,0.1318359-0.5576172,0.1318359
							C162.4121094,4.4550781,162.0341797,4.2099609,162.0341797,3.5800781z"/>
						<path class="st0" d="M164.1630859,0.1132812h0.5283203v0.5097656h-0.5283203V0.1132812z M164.1933594,1.3007812h0.4619141
							v3.1005859h-0.4619141V1.3007812z"/>
						<path class="st0" d="M165.328125,4.0058594l0.234375-0.3300781c0.3349609,0.2519531,0.7070312,0.3955078,1.0732422,0.3955078
							c0.3710938,0,0.6416016-0.1914062,0.6416016-0.4912109V3.5673828c0-0.3115234-0.3662109-0.4316406-0.7734375-0.5449219
							c-0.4863281-0.1386719-1.0253906-0.3066406-1.0253906-0.8759766V2.1347656
							c0-0.5341797,0.4433594-0.8876953,1.0546875-0.8876953c0.3779297,0,0.7978516,0.1318359,1.1152344,0.3417969
							l-0.2089844,0.3476562c-0.2880859-0.1855469-0.6181641-0.2998047-0.9179688-0.2998047
							c-0.3662109,0-0.5996094,0.1923828-0.5996094,0.4501953v0.0117188c0,0.2939453,0.3837891,0.4082031,0.7978516,0.5341797
							c0.4794922,0.1435547,0.9951172,0.3291016,0.9951172,0.8867188v0.0126953
							c0,0.5869141-0.4853516,0.9287109-1.1035156,0.9287109C166.1679688,4.4609375,165.6757812,4.2871094,165.328125,4.0058594z"/>
						<path class="st0" d="M169.9785156,2.3144531V2.3027344c0-1.1875,0.8867188-2.1708984,2.1220703-2.1708984
							c0.7617188,0,1.2177734,0.2695312,1.6376953,0.6650391l-0.3242188,0.3486328
							c-0.3535156-0.3359375-0.7490234-0.5761719-1.3193359-0.5761719c-0.9296875,0-1.625,0.7558594-1.625,1.7207031v0.0126953
							c0,0.9716797,0.7021484,1.7324219,1.625,1.7324219c0.5761719,0,0.9541016-0.2216797,1.3554688-0.6054688l0.3115234,0.3056641
							c-0.4375,0.4443359-0.9169922,0.7382812-1.6787109,0.7382812
							C170.8720703,4.4736328,169.9785156,3.5195312,169.9785156,2.3144531z"/>
						<path class="st0" d="M175.7441406,1.3007812h0.5097656l1.0429688,2.5732422l1.0498047-2.5732422h0.4980469l-1.3496094,3.125
							h-0.4082031L175.7441406,1.3007812z"/>
						<path class="st0" d="M179.4394531,0.1132812h0.5283203v0.5097656h-0.5283203V0.1132812z M179.4697266,1.3007812h0.4619141
							v3.1005859h-0.4619141V1.3007812z"/>
						<path class="st0" d="M180.8613281,1.3007812h0.4619141v0.8095703c0.2275391-0.515625,0.6777344-0.8876953,1.265625-0.8632812
							v0.4980469h-0.0361328c-0.6777344,0-1.2294922,0.4853516-1.2294922,1.4208984v1.2353516h-0.4619141V1.3007812z"/>
						<path class="st0" d="M183.0996094,3.2255859V1.3007812h0.4619141v1.8115234
							c0,0.5751953,0.3115234,0.9355469,0.8574219,0.9355469c0.5273438,0,0.9296875-0.3896484,0.9296875-0.9716797V1.3007812
							h0.4550781v3.1005859h-0.4550781V3.8613281c-0.2099609,0.3359375-0.5283203,0.6064453-1.0615234,0.6064453
							C183.5371094,4.4677734,183.0996094,3.9638672,183.0996094,3.2255859z"/>
						<path class="st0" d="M186.4355469,4.0058594l0.234375-0.3300781c0.3349609,0.2519531,0.7070312,0.3955078,1.0732422,0.3955078
							c0.3710938,0,0.6416016-0.1914062,0.6416016-0.4912109V3.5673828c0-0.3115234-0.3662109-0.4316406-0.7734375-0.5449219
							c-0.4863281-0.1386719-1.0253906-0.3066406-1.0253906-0.8759766V2.1347656
							c0-0.5341797,0.4433594-0.8876953,1.0546875-0.8876953c0.3779297,0,0.7978516,0.1318359,1.1152344,0.3417969
							l-0.2089844,0.3476562c-0.2880859-0.1855469-0.6181641-0.2998047-0.9179688-0.2998047
							c-0.3662109,0-0.5996094,0.1923828-0.5996094,0.4501953v0.0117188c0,0.2939453,0.3837891,0.4082031,0.7978516,0.5341797
							c0.4794922,0.1435547,0.9951172,0.3291016,0.9951172,0.8867188v0.0126953
							c0,0.5869141-0.4853516,0.9287109-1.1035156,0.9287109C187.2753906,4.4609375,186.7832031,4.2871094,186.4355469,4.0058594z"
							/>
						<path class="st0" d="M191.0859375,2.6806641c0-1.1035156,0.5927734-1.9667969,1.6611328-2.5673828l0.1972656,0.3066406
							c-0.9111328,0.5810547-1.390625,1.3007812-1.390625,2.2607422c0,0.9589844,0.4794922,1.6787109,1.390625,2.2607422
							l-0.1972656,0.3056641C191.6787109,4.6474609,191.0859375,3.7841797,191.0859375,2.6806641z"/>
						<path class="st0" d="M193.7314453,0.2041016h0.4736328v1.8642578h2.4228516V0.2041016h0.4736328v4.1972656h-0.4736328
							V2.5126953h-2.4228516v1.8886719h-0.4736328V0.2041016z"/>
						<path class="st0" d="M197.9619141,2.3144531V2.3027344c0-1.1875,0.8867188-2.1708984,2.1220703-2.1708984
							c0.7617188,0,1.2177734,0.2695312,1.6376953,0.6650391l-0.3242188,0.3486328
							c-0.3535156-0.3359375-0.7490234-0.5761719-1.3193359-0.5761719c-0.9296875,0-1.625,0.7558594-1.625,1.7207031v0.0126953
							c0,0.9716797,0.7021484,1.7324219,1.625,1.7324219c0.5761719,0,0.9541016-0.2216797,1.3554688-0.6054688l0.3115234,0.3056641
							c-0.4375,0.4443359-0.9169922,0.7382812-1.6787109,0.7382812
							C198.8554688,4.4736328,197.9619141,3.5195312,197.9619141,2.3144531z"/>
						<path class="st0" d="M202.0644531,0.2041016h0.5283203l1.4931641,3.6152344l1.4990234-3.6152344h0.5097656
							l-1.8046875,4.2275391h-0.4199219L202.0644531,0.2041016z"/>
						<path class="st0" d="M206.5175781,4.9414062c0.9111328-0.5820312,1.390625-1.3017578,1.390625-2.2607422
							c0-0.9599609-0.4794922-1.6796875-1.390625-2.2607422l0.1982422-0.3066406
							c1.0673828,0.6005859,1.6601562,1.4638672,1.6601562,2.5673828s-0.5927734,1.9667969-1.6601562,2.5664062
							L206.5175781,4.9414062z"/>
						<path class="st0" d="M210.8242188,0.1132812h0.5283203v0.5097656h-0.5283203V0.1132812z M210.8544922,1.3007812h0.4619141
							v3.1005859h-0.4619141V1.3007812z"/>
						<path class="st0" d="M212.2470703,1.3007812h0.4619141v0.5400391
							c0.2041016-0.3359375,0.5273438-0.6054688,1.0615234-0.6054688c0.7490234,0,1.1875,0.5039062,1.1875,1.2412109v1.9248047
							h-0.4619141V2.5908203c0-0.5761719-0.3115234-0.9355469-0.8574219-0.9355469
							c-0.5341797,0-0.9296875,0.3896484-0.9296875,0.9707031v1.7753906h-0.4619141V1.3007812z"/>
						<path class="st0" d="M215.9667969,1.7089844h-0.4257812V1.3066406h0.4257812V1.0371094
							c0-0.3535156,0.0957031-0.6240234,0.2695312-0.7978516C216.3925781,0.0839844,216.6210938,0,216.9023438,0
							c0.2158203,0,0.3603516,0.0234375,0.5097656,0.078125v0.4013672c-0.1679688-0.0478516-0.2939453-0.078125-0.4492188-0.078125
							c-0.3603516,0-0.5400391,0.2158203-0.5400391,0.6601562v0.2519531h0.9833984v0.3955078h-0.9775391v2.6923828h-0.4619141
							V1.7089844z"/>
						<path class="st0" d="M217.5996094,2.8603516V2.8486328c0-0.8935547,0.6289062-1.6132812,1.4863281-1.6132812
							c0.9179688,0,1.4453125,0.7314453,1.4453125,1.6367188c0,0.0605469,0,0.0957031-0.0058594,0.1503906h-2.4580078
							c0.0654297,0.6708984,0.5390625,1.0488281,1.0908203,1.0488281c0.4257812,0,0.7255859-0.1738281,0.9775391-0.4375
							l0.2880859,0.2578125c-0.3115234,0.3476562-0.6894531,0.5820312-1.2773438,0.5820312
							C218.2949219,4.4736328,217.5996094,3.8193359,217.5996094,2.8603516z M220.0634766,2.6806641
							C220.015625,2.1162109,219.6923828,1.625,219.0742188,1.625c-0.5390625,0-0.9472656,0.4492188-1.0068359,1.0556641
							H220.0634766z"/>
						<path class="st0" d="M221.0009766,2.8662109V2.8544922c0-0.8759766,0.6835938-1.6191406,1.5888672-1.6191406
							c0.5878906,0,0.953125,0.2460938,1.2412109,0.5517578l-0.3056641,0.3232422
							c-0.2460938-0.2578125-0.5214844-0.4677734-0.9414062-0.4677734c-0.6298828,0-1.109375,0.5341797-1.109375,1.1992188
							v0.0126953c0,0.6708984,0.4912109,1.2050781,1.1386719,1.2050781c0.3964844,0,0.7021484-0.1982422,0.9482422-0.4619141
							l0.2939453,0.2763672c-0.3125,0.3476562-0.6835938,0.5996094-1.265625,0.5996094
							C221.6845703,4.4736328,221.0009766,3.7353516,221.0009766,2.8662109z"/>
						<path class="st0" d="M224.6308594,3.5800781V1.7089844h-0.4316406V1.3007812h0.4316406V0.3652344h0.4619141v0.9355469
							h0.9833984v0.4082031h-0.9833984v1.8105469c0,0.3779297,0.2099609,0.515625,0.5214844,0.515625
							c0.15625,0,0.2880859-0.0292969,0.4501953-0.1074219v0.3955078c-0.1621094,0.0839844-0.3359375,0.1318359-0.5585938,0.1318359
							C225.0087891,4.4550781,224.6308594,4.2099609,224.6308594,3.5800781z"/>
						<path class="st0" d="M226.7597656,0.1132812h0.5283203v0.5097656h-0.5283203V0.1132812z M226.7900391,1.3007812h0.4619141
							v3.1005859h-0.4619141V1.3007812z"/>
						<path class="st0" d="M227.9912109,2.8662109V2.8544922c0-0.8759766,0.6835938-1.6191406,1.6191406-1.6191406
							c0.9287109,0,1.6123047,0.7314453,1.6123047,1.6064453v0.0126953c0,0.875-0.6894531,1.6191406-1.625,1.6191406
							C228.6679688,4.4736328,227.9912109,3.7421875,227.9912109,2.8662109z M230.7490234,2.8662109V2.8544922
							c0-0.6660156-0.4970703-1.2119141-1.1513672-1.2119141c-0.6708984,0-1.1328125,0.5458984-1.1328125,1.1992188v0.0126953
							c0,0.6650391,0.4912109,1.2050781,1.1455078,1.2050781C230.28125,4.0595703,230.7490234,3.5195312,230.7490234,2.8662109z"/>
						<path class="st0" d="M231.9082031,1.3007812h0.4619141v0.5400391
							c0.2041016-0.3359375,0.5273438-0.6054688,1.0615234-0.6054688c0.7490234,0,1.1875,0.5039062,1.1875,1.2412109v1.9248047
							h-0.4619141V2.5908203c0-0.5761719-0.3115234-0.9355469-0.8574219-0.9355469
							c-0.5341797,0-0.9296875,0.3896484-0.9296875,0.9707031v1.7753906h-0.4619141V1.3007812z"/>
					</g>
				</g>
				<g>
					<g>
						<path class="st0" d="M0,6.1132812h0.5283203v0.5097656H0V6.1132812z M0.0302734,7.3007812h0.4619141v3.1005859H0.0302734
							V7.3007812z"/>
						<path class="st0" d="M1.421875,7.3007812h0.4619141v0.5400391c0.2041016-0.3359375,0.5273438-0.6054688,1.0615234-0.6054688
							c0.7490234,0,1.1875,0.5039062,1.1875,1.2412109v1.9248047H3.6708984V8.5908203
							c0-0.5761719-0.3115234-0.9355469-0.8574219-0.9355469c-0.5341797,0-0.9296875,0.3896484-0.9296875,0.9707031v1.7753906
							H1.421875V7.3007812z"/>
						<path class="st0" d="M6.3964844,9.5019531V9.4902344c0-0.6542969,0.5390625-1.0019531,1.3251953-1.0019531
							c0.3955078,0,0.6777344,0.0537109,0.953125,0.1318359V8.5126953c0-0.5576172-0.3417969-0.8457031-0.9238281-0.8457031
							c-0.3652344,0-0.6533203,0.0957031-0.9414062,0.2275391L6.671875,7.5166016
							c0.3417969-0.1552734,0.6777344-0.2578125,1.1279297-0.2578125c0.4375,0,0.7734375,0.1142578,1.0009766,0.3417969
							c0.2099609,0.2099609,0.3173828,0.5097656,0.3173828,0.90625v1.8945312H8.6748047V9.9335938
							c-0.2158203,0.2822266-0.5751953,0.5341797-1.1210938,0.5341797
							C6.9775391,10.4677734,6.3964844,10.1376953,6.3964844,9.5019531z M8.6806641,9.2617188V8.9619141
							C8.453125,8.8964844,8.1474609,8.8300781,7.7695312,8.8300781c-0.5820312,0-0.9052734,0.2519531-0.9052734,0.6416016
							v0.0117188c0,0.390625,0.359375,0.6181641,0.7792969,0.6181641C8.2128906,10.1015625,8.6806641,9.7539062,8.6806641,9.2617188
							z"/>
						<path class="st0" d="M9.7802734,8.8603516V8.8486328c0-1.0136719,0.7373047-1.6132812,1.4814453-1.6132812
							c0.5751953,0,0.9472656,0.3115234,1.1865234,0.6591797V6.0234375h0.4619141v4.3779297h-0.4619141V9.7773438
							c-0.2509766,0.3720703-0.6171875,0.6904297-1.1865234,0.6904297
							C10.5175781,10.4677734,9.7802734,9.8798828,9.7802734,8.8603516z M12.4667969,8.8544922V8.8417969
							c0-0.7128906-0.5458984-1.1933594-1.1210938-1.1933594c-0.5996094,0-1.0917969,0.4443359-1.0917969,1.1933594v0.0126953
							c0,0.7314453,0.5039062,1.1992188,1.0917969,1.1992188C11.9208984,10.0537109,12.4667969,9.5673828,12.4667969,8.8544922z"/>
						<path class="st0" d="M13.7519531,9.2255859V7.3007812h0.4619141v1.8115234
							c0,0.5751953,0.3115234,0.9355469,0.8574219,0.9355469c0.5273438,0,0.9296875-0.3896484,0.9296875-0.9716797V7.3007812
							h0.4550781v3.1005859h-0.4550781V9.8613281c-0.2099609,0.3359375-0.5283203,0.6064453-1.0615234,0.6064453
							C14.1894531,10.4677734,13.7519531,9.9638672,13.7519531,9.2255859z"/>
						<path class="st0" d="M17.3876953,6.0234375h0.4619141v4.3779297h-0.4619141V6.0234375z"/>
						<path class="st0" d="M18.9423828,9.5800781V7.7089844h-0.4316406V7.3007812h0.4316406V6.3652344h0.4619141v0.9355469
							h0.9833984v0.4082031h-0.9833984v1.8105469c0,0.3779297,0.2099609,0.515625,0.5214844,0.515625
							c0.15625,0,0.2880859-0.0292969,0.4492188-0.1074219v0.3955078c-0.1611328,0.0839844-0.3349609,0.1318359-0.5576172,0.1318359
							C19.3203125,10.4550781,18.9423828,10.2099609,18.9423828,9.5800781z"/>
						<path class="st0" d="M20.8017578,10.0058594l0.234375-0.3300781c0.3349609,0.2519531,0.7070312,0.3955078,1.0732422,0.3955078
							c0.3710938,0,0.6416016-0.1914062,0.6416016-0.4912109V9.5673828c0-0.3115234-0.3662109-0.4316406-0.7734375-0.5449219
							c-0.4863281-0.1386719-1.0253906-0.3066406-1.0253906-0.8759766V8.1347656
							c0-0.5341797,0.4433594-0.8876953,1.0546875-0.8876953c0.3779297,0,0.7978516,0.1318359,1.1152344,0.3417969
							l-0.2089844,0.3476562C22.625,7.7509766,22.2949219,7.6367188,21.9951172,7.6367188
							c-0.3662109,0-0.5996094,0.1923828-0.5996094,0.4501953v0.0117188c0,0.2939453,0.3837891,0.4082031,0.7978516,0.5341797
							c0.4794922,0.1435547,0.9951172,0.3291016,0.9951172,0.8867188v0.0126953
							c0,0.5869141-0.4853516,0.9287109-1.1035156,0.9287109C21.6416016,10.4609375,21.1494141,10.2871094,20.8017578,10.0058594z"
							/>
						<path class="st0" d="M23.84375,9.7714844h0.5517578v0.6298828H23.84375V9.7714844z"/>
						<path class="st0" d="M26.9580078,6.2041016h3.0166016v0.4375h-2.5429688V8.140625h2.2724609v0.4316406h-2.2724609v1.8291016
							h-0.4736328V6.2041016z"/>
						<path class="st0" d="M30.390625,8.8662109V8.8544922c0-0.8759766,0.6835938-1.6191406,1.6191406-1.6191406
							c0.9287109,0,1.6123047,0.7314453,1.6123047,1.6064453v0.0126953c0,0.875-0.6894531,1.6191406-1.625,1.6191406
							C31.0673828,10.4736328,30.390625,9.7421875,30.390625,8.8662109z M33.1484375,8.8662109V8.8544922
							c0-0.6660156-0.4970703-1.2119141-1.1513672-1.2119141c-0.6708984,0-1.1328125,0.5458984-1.1328125,1.1992188v0.0126953
							c0,0.6650391,0.4912109,1.2050781,1.1455078,1.2050781C32.6806641,10.0595703,33.1484375,9.5195312,33.1484375,8.8662109z"/>
						<path class="st0" d="M34.3076172,7.3007812h0.4619141v0.8095703c0.2275391-0.515625,0.6777344-0.8876953,1.265625-0.8632812
							v0.4980469h-0.0361328c-0.6777344,0-1.2294922,0.4853516-1.2294922,1.4208984v1.2353516h-0.4619141V7.3007812z"/>
						<path class="st0" d="M38.3271484,6.2041016h3.0341797v0.4316406h-2.5605469v1.4326172h2.2910156V8.5h-2.2910156v1.4697266
							h2.5908203v0.4316406h-3.0644531V6.2041016z"/>
						<path class="st0" d="M42.1308594,8.6445312V6.2041016h0.4736328v2.4101562
							c0,0.9052734,0.4804688,1.4150391,1.2841797,1.4150391c0.7734375,0,1.2646484-0.4677734,1.2646484-1.3847656V6.2041016
							h0.4736328v2.4042969c0,1.2236328-0.7011719,1.859375-1.7509766,1.859375
							C42.8388672,10.4677734,42.1308594,9.8320312,42.1308594,8.6445312z"/>
						<path class="st0" d="M48.2636719,6.2041016h0.4736328v1.8642578h2.4228516V6.2041016h0.4736328v4.1972656h-0.4736328
							V8.5126953h-2.4228516v1.8886719h-0.4736328V6.2041016z"/>
						<path class="st0" d="M52.4101562,8.8603516V8.8486328c0-0.8935547,0.6289062-1.6132812,1.4863281-1.6132812
							c0.9179688,0,1.4453125,0.7314453,1.4453125,1.6367188c0,0.0605469,0,0.0957031-0.0058594,0.1503906h-2.4580078
							c0.0654297,0.6708984,0.5390625,1.0488281,1.0908203,1.0488281c0.4257812,0,0.7255859-0.1738281,0.9775391-0.4375
							l0.2880859,0.2578125c-0.3115234,0.3476562-0.6894531,0.5820312-1.2773438,0.5820312
							C53.1054688,10.4736328,52.4101562,9.8193359,52.4101562,8.8603516z M54.8740234,8.6806641
							C54.8261719,8.1162109,54.5029297,7.625,53.8847656,7.625c-0.5390625,0-0.9472656,0.4492188-1.0068359,1.0556641H54.8740234z"
							/>
						<path class="st0" d="M55.7695312,9.5019531V9.4902344c0-0.6542969,0.5390625-1.0019531,1.3251953-1.0019531
							c0.3955078,0,0.6777344,0.0537109,0.953125,0.1318359V8.5126953c0-0.5576172-0.3417969-0.8457031-0.9238281-0.8457031
							c-0.3652344,0-0.6533203,0.0957031-0.9414062,0.2275391l-0.1376953-0.3779297
							c0.3417969-0.1552734,0.6777344-0.2578125,1.1279297-0.2578125c0.4375,0,0.7734375,0.1142578,1.0009766,0.3417969
							c0.2099609,0.2099609,0.3173828,0.5097656,0.3173828,0.90625v1.8945312h-0.4433594V9.9335938
							c-0.2158203,0.2822266-0.5751953,0.5341797-1.1210938,0.5341797
							C56.3505859,10.4677734,55.7695312,10.1376953,55.7695312,9.5019531z M58.0537109,9.2617188V8.9619141
							c-0.2275391-0.0654297-0.5332031-0.1318359-0.9111328-0.1318359c-0.5820312,0-0.9052734,0.2519531-0.9052734,0.6416016
							v0.0117188c0,0.390625,0.359375,0.6181641,0.7792969,0.6181641
							C57.5859375,10.1015625,58.0537109,9.7539062,58.0537109,9.2617188z"/>
						<path class="st0" d="M59.375,6.0234375h0.4619141v4.3779297H59.375V6.0234375z"/>
						<path class="st0" d="M60.9296875,9.5800781V7.7089844h-0.4316406V7.3007812h0.4316406V6.3652344h0.4619141v0.9355469H62.375
							v0.4082031h-0.9833984v1.8105469c0,0.3779297,0.2099609,0.515625,0.5214844,0.515625
							c0.15625,0,0.2880859-0.0292969,0.4501953-0.1074219v0.3955078c-0.1621094,0.0839844-0.3359375,0.1318359-0.5585938,0.1318359
							C61.3076172,10.4550781,60.9296875,10.2099609,60.9296875,9.5800781z"/>
						<path class="st0" d="M63.046875,6.0234375h0.4619141v1.8173828c0.2041016-0.3359375,0.5273438-0.6054688,1.0615234-0.6054688
							c0.7490234,0,1.1875,0.5039062,1.1875,1.2412109v1.9248047h-0.4619141V8.5908203
							c0-0.5761719-0.3115234-0.9355469-0.8574219-0.9355469c-0.5341797,0-0.9296875,0.3896484-0.9296875,0.9707031v1.7753906
							H63.046875V6.0234375z"/>
						<path class="st0" d="M66.4013672,8.8662109V8.8544922c0-0.8759766,0.6835938-1.6191406,1.5888672-1.6191406
							c0.5878906,0,0.953125,0.2460938,1.2412109,0.5517578l-0.3056641,0.3232422
							c-0.2460938-0.2578125-0.5214844-0.4677734-0.9414062-0.4677734c-0.6298828,0-1.109375,0.5341797-1.109375,1.1992188
							v0.0126953c0,0.6708984,0.4912109,1.2050781,1.1386719,1.2050781c0.3964844,0,0.7021484-0.1982422,0.9482422-0.4619141
							l0.2939453,0.2763672c-0.3125,0.3476562-0.6835938,0.5996094-1.265625,0.5996094
							C67.0849609,10.4736328,66.4013672,9.7353516,66.4013672,8.8662109z"/>
						<path class="st0" d="M69.6416016,9.5019531V9.4902344c0-0.6542969,0.5390625-1.0019531,1.3251953-1.0019531
							c0.3955078,0,0.6777344,0.0537109,0.953125,0.1318359V8.5126953c0-0.5576172-0.3417969-0.8457031-0.9238281-0.8457031
							c-0.3652344,0-0.6533203,0.0957031-0.9414062,0.2275391l-0.1376953-0.3779297
							c0.3417969-0.1552734,0.6777344-0.2578125,1.1279297-0.2578125c0.4375,0,0.7734375,0.1142578,1.0009766,0.3417969
							c0.2099609,0.2099609,0.3173828,0.5097656,0.3173828,0.90625v1.8945312h-0.4433594V9.9335938
							c-0.2158203,0.2822266-0.5751953,0.5341797-1.1210938,0.5341797
							C70.2226562,10.4677734,69.6416016,10.1376953,69.6416016,9.5019531z M71.9257812,9.2617188V8.9619141
							c-0.2275391-0.0654297-0.5332031-0.1318359-0.9111328-0.1318359c-0.5820312,0-0.9052734,0.2519531-0.9052734,0.6416016
							v0.0117188c0,0.390625,0.359375,0.6181641,0.7792969,0.6181641
							C71.4580078,10.1015625,71.9257812,9.7539062,71.9257812,9.2617188z"/>
						<path class="st0" d="M73.1992188,7.3007812h0.4619141v0.8095703c0.2275391-0.515625,0.6777344-0.8876953,1.265625-0.8632812
							v0.4980469H74.890625c-0.6777344,0-1.2294922,0.4853516-1.2294922,1.4208984v1.2353516h-0.4619141V7.3007812z"/>
						<path class="st0" d="M75.1611328,8.8603516V8.8486328c0-0.8935547,0.6289062-1.6132812,1.4863281-1.6132812
							c0.9179688,0,1.4453125,0.7314453,1.4453125,1.6367188c0,0.0605469,0,0.0957031-0.0058594,0.1503906h-2.4580078
							c0.0654297,0.6708984,0.5390625,1.0488281,1.0908203,1.0488281c0.4257812,0,0.7255859-0.1738281,0.9775391-0.4375
							l0.2880859,0.2578125c-0.3115234,0.3476562-0.6894531,0.5820312-1.2773438,0.5820312
							C75.8564453,10.4736328,75.1611328,9.8193359,75.1611328,8.8603516z M77.625,8.6806641
							C77.5771484,8.1162109,77.2539062,7.625,76.6357422,7.625c-0.5390625,0-0.9472656,0.4492188-1.0068359,1.0556641H77.625z"/>
						<path class="st0" d="M80.4951172,6.2041016h1.5712891c0.9472656,0,1.5712891,0.5029297,1.5712891,1.3310547V7.546875
							c0,0.9052734-0.7558594,1.3730469-1.6494141,1.3730469H80.96875v1.4814453h-0.4736328V6.2041016z M82.0058594,8.4882812
							c0.6962891,0,1.1513672-0.3720703,1.1513672-0.9238281V7.5527344c0-0.5996094-0.4492188-0.9111328-1.1269531-0.9111328
							H80.96875v1.8466797H82.0058594z"/>
						<path class="st0" d="M84.2744141,7.3007812h0.4619141v0.8095703c0.2275391-0.515625,0.6777344-0.8876953,1.265625-0.8632812
							v0.4980469h-0.0361328c-0.6777344,0-1.2294922,0.4853516-1.2294922,1.4208984v1.2353516h-0.4619141V7.3007812z"/>
						<path class="st0" d="M86.2373047,8.8662109V8.8544922c0-0.8759766,0.6835938-1.6191406,1.6191406-1.6191406
							c0.9287109,0,1.6123047,0.7314453,1.6123047,1.6064453v0.0126953c0,0.875-0.6894531,1.6191406-1.625,1.6191406
							C86.9140625,10.4736328,86.2373047,9.7421875,86.2373047,8.8662109z M88.9951172,8.8662109V8.8544922
							c0-0.6660156-0.4970703-1.2119141-1.1513672-1.2119141c-0.6708984,0-1.1328125,0.5458984-1.1328125,1.1992188v0.0126953
							c0,0.6650391,0.4912109,1.2050781,1.1455078,1.2050781C88.5273438,10.0595703,88.9951172,9.5195312,88.9951172,8.8662109z"/>
						<path class="st0" d="M90.3349609,7.7089844h-0.4257812V7.3066406h0.4257812V7.0371094
							c0-0.3535156,0.0957031-0.6240234,0.2705078-0.7978516C90.7607422,6.0839844,90.9882812,6,91.2705078,6
							c0.2158203,0,0.3603516,0.0234375,0.5097656,0.078125v0.4013672c-0.1679688-0.0478516-0.2939453-0.078125-0.4492188-0.078125
							c-0.3603516,0-0.5400391,0.2158203-0.5400391,0.6601562v0.2519531h0.9833984v0.3955078H90.796875v2.6923828h-0.4619141
							V7.7089844z"/>
						<path class="st0" d="M91.9677734,8.8603516V8.8486328c0-0.8935547,0.6289062-1.6132812,1.4863281-1.6132812
							c0.9179688,0,1.4453125,0.7314453,1.4453125,1.6367188c0,0.0605469,0,0.0957031-0.0058594,0.1503906h-2.4580078
							c0.0654297,0.6708984,0.5390625,1.0488281,1.0908203,1.0488281c0.4257812,0,0.7255859-0.1738281,0.9775391-0.4375
							l0.2880859,0.2578125c-0.3115234,0.3476562-0.6894531,0.5820312-1.2773438,0.5820312
							C92.6630859,10.4736328,91.9677734,9.8193359,91.9677734,8.8603516z M94.4316406,8.6806641
							C94.3837891,8.1162109,94.0605469,7.625,93.4423828,7.625c-0.5390625,0-0.9472656,0.4492188-1.0068359,1.0556641H94.4316406z"
							/>
						<path class="st0" d="M95.3027344,10.0058594l0.234375-0.3300781c0.3349609,0.2519531,0.7070312,0.3955078,1.0732422,0.3955078
							c0.3710938,0,0.6416016-0.1914062,0.6416016-0.4912109V9.5673828c0-0.3115234-0.3662109-0.4316406-0.7734375-0.5449219
							c-0.4863281-0.1386719-1.0253906-0.3066406-1.0253906-0.8759766V8.1347656
							c0-0.5341797,0.4433594-0.8876953,1.0546875-0.8876953c0.3779297,0,0.7978516,0.1318359,1.1152344,0.3417969
							l-0.2089844,0.3476562c-0.2880859-0.1855469-0.6181641-0.2998047-0.9179688-0.2998047
							c-0.3662109,0-0.5996094,0.1923828-0.5996094,0.4501953v0.0117188c0,0.2939453,0.3837891,0.4082031,0.7978516,0.5341797
							c0.4794922,0.1435547,0.9951172,0.3291016,0.9951172,0.8867188v0.0126953
							c0,0.5869141-0.4853516,0.9287109-1.1035156,0.9287109C96.1425781,10.4609375,95.6503906,10.2871094,95.3027344,10.0058594z"
							/>
						<path class="st0" d="M98.0869141,10.0058594l0.234375-0.3300781c0.3349609,0.2519531,0.7070312,0.3955078,1.0732422,0.3955078
							c0.3710938,0,0.6416016-0.1914062,0.6416016-0.4912109V9.5673828c0-0.3115234-0.3662109-0.4316406-0.7734375-0.5449219
							c-0.4863281-0.1386719-1.0253906-0.3066406-1.0253906-0.8759766V8.1347656
							c0-0.5341797,0.4433594-0.8876953,1.0546875-0.8876953c0.3779297,0,0.7978516,0.1318359,1.1152344,0.3417969
							l-0.2089844,0.3476562c-0.2880859-0.1855469-0.6181641-0.2998047-0.9179688-0.2998047
							c-0.3662109,0-0.5996094,0.1923828-0.5996094,0.4501953v0.0117188c0,0.2939453,0.3837891,0.4082031,0.7978516,0.5341797
							c0.4794922,0.1435547,0.9951172,0.3291016,0.9951172,0.8867188v0.0126953
							c0,0.5869141-0.4853516,0.9287109-1.1035156,0.9287109C98.9267578,10.4609375,98.4345703,10.2871094,98.0869141,10.0058594z"
							/>
						<path class="st0" d="M101.2001953,6.1132812h0.5283203v0.5097656h-0.5283203V6.1132812z M101.2304688,7.3007812h0.4619141
							v3.1005859h-0.4619141V7.3007812z"/>
						<path class="st0" d="M102.4306641,8.8662109V8.8544922c0-0.8759766,0.6835938-1.6191406,1.6191406-1.6191406
							c0.9287109,0,1.6123047,0.7314453,1.6123047,1.6064453v0.0126953c0,0.875-0.6894531,1.6191406-1.625,1.6191406
							C103.1074219,10.4736328,102.4306641,9.7421875,102.4306641,8.8662109z M105.1884766,8.8662109V8.8544922
							c0-0.6660156-0.4970703-1.2119141-1.1513672-1.2119141c-0.6708984,0-1.1328125,0.5458984-1.1328125,1.1992188v0.0126953
							c0,0.6650391,0.4912109,1.2050781,1.1455078,1.2050781C104.7207031,10.0595703,105.1884766,9.5195312,105.1884766,8.8662109z"
							/>
						<path class="st0" d="M106.3486328,7.3007812h0.4619141v0.5400391
							c0.2041016-0.3359375,0.5273438-0.6054688,1.0615234-0.6054688c0.7490234,0,1.1875,0.5039062,1.1875,1.2412109v1.9248047
							h-0.4619141V8.5908203c0-0.5761719-0.3115234-0.9355469-0.8574219-0.9355469
							c-0.5341797,0-0.9296875,0.3896484-0.9296875,0.9707031v1.7753906h-0.4619141V7.3007812z"/>
						<path class="st0" d="M109.6611328,9.5019531V9.4902344c0-0.6542969,0.5390625-1.0019531,1.3251953-1.0019531
							c0.3955078,0,0.6777344,0.0537109,0.953125,0.1318359V8.5126953c0-0.5576172-0.3417969-0.8457031-0.9238281-0.8457031
							c-0.3652344,0-0.6533203,0.0957031-0.9414062,0.2275391l-0.1376953-0.3779297
							c0.3417969-0.1552734,0.6777344-0.2578125,1.1279297-0.2578125c0.4375,0,0.7734375,0.1142578,1.0009766,0.3417969
							c0.2099609,0.2099609,0.3173828,0.5097656,0.3173828,0.90625v1.8945312h-0.4433594V9.9335938
							c-0.2158203,0.2822266-0.5751953,0.5341797-1.1210938,0.5341797
							C110.2421875,10.4677734,109.6611328,10.1376953,109.6611328,9.5019531z M111.9453125,9.2617188V8.9619141
							c-0.2275391-0.0654297-0.5332031-0.1318359-0.9111328-0.1318359c-0.5820312,0-0.9052734,0.2519531-0.9052734,0.6416016
							v0.0117188c0,0.390625,0.359375,0.6181641,0.7792969,0.6181641
							C111.4775391,10.1015625,111.9453125,9.7539062,111.9453125,9.2617188z"/>
						<path class="st0" d="M113.2666016,6.0234375h0.4619141v4.3779297h-0.4619141V6.0234375z"/>
						<path class="st0" d="M114.4003906,10.0058594l0.234375-0.3300781
							c0.3349609,0.2519531,0.7070312,0.3955078,1.0732422,0.3955078c0.3710938,0,0.6416016-0.1914062,0.6416016-0.4912109
							V9.5673828c0-0.3115234-0.3662109-0.4316406-0.7734375-0.5449219
							c-0.4863281-0.1386719-1.0253906-0.3066406-1.0253906-0.8759766V8.1347656
							c0-0.5341797,0.4433594-0.8876953,1.0546875-0.8876953c0.3779297,0,0.7978516,0.1318359,1.1152344,0.3417969
							l-0.2089844,0.3476562c-0.2880859-0.1855469-0.6181641-0.2998047-0.9179688-0.2998047
							c-0.3662109,0-0.5996094,0.1923828-0.5996094,0.4501953v0.0117188c0,0.2939453,0.3837891,0.4082031,0.7978516,0.5341797
							c0.4794922,0.1435547,0.9951172,0.3291016,0.9951172,0.8867188v0.0126953
							c0,0.5869141-0.4853516,0.9287109-1.1035156,0.9287109C115.2402344,10.4609375,114.7480469,10.2871094,114.4003906,10.0058594
							z"/>
						<path class="st0" d="M118.9667969,8.8662109V8.8544922c0-0.8759766,0.6835938-1.6191406,1.6191406-1.6191406
							c0.9287109,0,1.6123047,0.7314453,1.6123047,1.6064453v0.0126953c0,0.875-0.6894531,1.6191406-1.625,1.6191406
							C119.6435547,10.4736328,118.9667969,9.7421875,118.9667969,8.8662109z M121.7246094,8.8662109V8.8544922
							c0-0.6660156-0.4970703-1.2119141-1.1513672-1.2119141c-0.6708984,0-1.1328125,0.5458984-1.1328125,1.1992188v0.0126953
							c0,0.6650391,0.4912109,1.2050781,1.1455078,1.2050781C121.2568359,10.0595703,121.7246094,9.5195312,121.7246094,8.8662109z"
							/>
						<path class="st0" d="M122.890625,7.3007812h0.4619141v0.5400391c0.2041016-0.3359375,0.5273438-0.6054688,1.0615234-0.6054688
							c0.7490234,0,1.1875,0.5039062,1.1875,1.2412109v1.9248047h-0.4619141V8.5908203
							c0-0.5761719-0.3115234-0.9355469-0.8574219-0.9355469c-0.5341797,0-0.9296875,0.3896484-0.9296875,0.9707031v1.7753906
							h-0.4619141V7.3007812z"/>
						<path class="st0" d="M126.484375,6.0234375h0.4619141v4.3779297h-0.4619141V6.0234375z"/>
						<path class="st0" d="M130.1972656,7.3007812h0.4912109l-1.3007812,3.2021484
							c-0.2646484,0.6416016-0.5644531,0.8759766-1.0322266,0.8759766c-0.2578125,0-0.4492188-0.0537109-0.6591797-0.15625
							l0.15625-0.3652344c0.1494141,0.078125,0.2871094,0.1132812,0.4853516,0.1132812
							c0.2753906,0,0.4492188-0.1435547,0.6357422-0.5810547l-1.4091797-3.0888672h0.5097656l1.1269531,2.5849609
							L130.1972656,7.3007812z"/>
						<path class="st0" d="M130.7080078,9.7714844h0.5517578v0.6298828h-0.5517578V9.7714844z"/>
						<path class="st0" d="M133.8222656,6.2041016h0.4794922l1.5292969,2.2900391l1.5292969-2.2900391h0.4794922v4.1972656
							h-0.4736328V7.0009766L135.8369141,9.25h-0.0234375l-1.5292969-2.2431641v3.3945312h-0.4619141V6.2041016z"/>
						<path class="st0" d="M138.5742188,9.5019531V9.4902344c0-0.6542969,0.5390625-1.0019531,1.3251953-1.0019531
							c0.3955078,0,0.6777344,0.0537109,0.953125,0.1318359V8.5126953c0-0.5576172-0.3417969-0.8457031-0.9238281-0.8457031
							c-0.3652344,0-0.6533203,0.0957031-0.9414062,0.2275391l-0.1376953-0.3779297
							c0.3417969-0.1552734,0.6777344-0.2578125,1.1279297-0.2578125c0.4375,0,0.7734375,0.1142578,1.0009766,0.3417969
							c0.2099609,0.2099609,0.3173828,0.5097656,0.3173828,0.90625v1.8945312h-0.4433594V9.9335938
							c-0.2158203,0.2822266-0.5751953,0.5341797-1.1210938,0.5341797
							C139.1552734,10.4677734,138.5742188,10.1376953,138.5742188,9.5019531z M140.8583984,9.2617188V8.9619141
							c-0.2275391-0.0654297-0.5332031-0.1318359-0.9111328-0.1318359c-0.5820312,0-0.9052734,0.2519531-0.9052734,0.6416016
							v0.0117188c0,0.390625,0.359375,0.6181641,0.7792969,0.6181641
							C140.390625,10.1015625,140.8583984,9.7539062,140.8583984,9.2617188z"/>
						<path class="st0" d="M144.3330078,7.3007812h0.4912109l-1.3007812,3.2021484
							c-0.2646484,0.6416016-0.5644531,0.8759766-1.0322266,0.8759766c-0.2578125,0-0.4492188-0.0537109-0.6591797-0.15625
							l0.15625-0.3652344c0.1494141,0.078125,0.2871094,0.1132812,0.4853516,0.1132812
							c0.2753906,0,0.4492188-0.1435547,0.6357422-0.5810547l-1.4091797-3.0888672h0.5097656l1.1269531,2.5849609
							L144.3330078,7.3007812z"/>
						<path class="st0" d="M146.8417969,10.0351562l1.5224609-1.3427734
							c0.6425781-0.5761719,0.8759766-0.8994141,0.8759766-1.3193359c0-0.4921875-0.3896484-0.8037109-0.8457031-0.8037109
							c-0.4794922,0-0.7910156,0.2519531-1.1269531,0.7197266l-0.3476562-0.2519531
							c0.3769531-0.5634766,0.7734375-0.8935547,1.5107422-0.8935547c0.7558594,0,1.3017578,0.5039062,1.3017578,1.1875v0.0117188
							c0,0.6123047-0.3242188,0.9892578-1.0615234,1.6318359l-1.1220703,0.9951172h2.2255859v0.4316406h-2.9326172V10.0351562z"/>
						<path class="st0" d="M150.3759766,8.3144531V8.3027344c0-1.1757812,0.7011719-2.1708984,1.7802734-2.1708984
							c1.0800781,0,1.7636719,0.9833984,1.7636719,2.1582031v0.0126953c0,1.1748047-0.6953125,2.1708984-1.7753906,2.1708984
							C151.0595703,10.4736328,150.3759766,9.4902344,150.3759766,8.3144531z M153.4277344,8.3144531V8.3027344
							c0-0.9179688-0.5039062-1.7392578-1.2832031-1.7392578c-0.7851562,0-1.2773438,0.8037109-1.2773438,1.7265625v0.0126953
							c0,0.9169922,0.5039062,1.7392578,1.2890625,1.7392578C152.9423828,10.0419922,153.4277344,9.2324219,153.4277344,8.3144531z"
							/>
						<path class="st0" d="M154.3779297,10.0351562l1.5224609-1.3427734
							c0.6425781-0.5761719,0.8759766-0.8994141,0.8759766-1.3193359c0-0.4921875-0.3896484-0.8037109-0.8457031-0.8037109
							c-0.4794922,0-0.7910156,0.2519531-1.1269531,0.7197266l-0.3476562-0.2519531
							c0.3769531-0.5634766,0.7734375-0.8935547,1.5107422-0.8935547c0.7558594,0,1.3017578,0.5039062,1.3017578,1.1875v0.0117188
							c0,0.6123047-0.3242188,0.9892578-1.0615234,1.6318359l-1.1220703,0.9951172h2.2255859v0.4316406h-2.9326172V10.0351562z"/>
						<path class="st0" d="M157.828125,10.0351562l1.5224609-1.3427734
							c0.6425781-0.5761719,0.8759766-0.8994141,0.8759766-1.3193359c0-0.4921875-0.3896484-0.8037109-0.8457031-0.8037109
							c-0.4794922,0-0.7910156,0.2519531-1.1269531,0.7197266L157.90625,7.0371094
							c0.3769531-0.5634766,0.7734375-0.8935547,1.5107422-0.8935547c0.7558594,0,1.3017578,0.5039062,1.3017578,1.1875v0.0117188
							c0,0.6123047-0.3242188,0.9892578-1.0615234,1.6318359l-1.1220703,0.9951172h2.2255859v0.4316406h-2.9326172V10.0351562z"/>
						<path class="st0" d="M163.2753906,6.2041016h0.4736328v4.1972656h-0.4736328V6.2041016z"/>
						<path class="st0" d="M164.8359375,6.2041016h0.4736328v1.8642578h2.4228516V6.2041016h0.4736328v4.1972656h-0.4736328
							V8.5126953h-2.4228516v1.8886719h-0.4736328V6.2041016z"/>
						<path class="st0" d="M173.0712891,10.5273438l-0.5576172-0.4980469
							c-0.3544922,0.2763672-0.8037109,0.4443359-1.3193359,0.4443359c-1.2773438,0-2.1347656-1.0019531-2.1347656-2.1591797
							V8.3027344c0-1.1572266,0.8691406-2.1708984,2.1464844-2.1708984s2.1347656,1.0009766,2.1347656,2.1582031v0.0126953
							c0,0.5214844-0.1855469,1.0195312-0.4980469,1.4033203l0.5517578,0.4677734L173.0712891,10.5273438z M172.1777344,9.7236328
							l-0.7861328-0.671875l0.3183594-0.3535156l0.7851562,0.7138672c0.2275391-0.2998047,0.3535156-0.6777344,0.3535156-1.0976562
							V8.3027344c0-0.9541016-0.6953125-1.7333984-1.6542969-1.7333984c-0.9599609,0-1.6435547,0.7675781-1.6435547,1.7207031
							v0.0126953c0,0.953125,0.6953125,1.7324219,1.6552734,1.7324219
							C171.578125,10.0351562,171.9140625,9.921875,172.1777344,9.7236328z"/>
						<path class="st0" d="M173.9970703,8.3564453h1.6669922v0.4853516h-1.6669922V8.3564453z"/>
						<path class="st0" d="M176.5058594,6.2041016h3.0341797v0.4316406h-2.5605469v1.4326172h2.2910156V8.5h-2.2910156v1.4697266
							h2.5908203v0.4316406h-3.0644531V6.2041016z"/>
						<path class="st0" d="M180.3818359,6.2041016h1.5712891c0.9472656,0,1.5712891,0.5029297,1.5712891,1.3310547V7.546875
							c0,0.9052734-0.7558594,1.3730469-1.6494141,1.3730469h-1.0195312v1.4814453h-0.4736328V6.2041016z M181.8925781,8.4882812
							c0.6962891,0,1.1513672-0.3720703,1.1513672-0.9238281V7.5527344c0-0.5996094-0.4492188-0.9111328-1.1269531-0.9111328
							h-1.0615234v1.8466797H181.8925781z"/>
						<path class="st0" d="M184.0595703,8.3144531V8.3027344c0-1.1875,0.8867188-2.1708984,2.1220703-2.1708984
							c0.7617188,0,1.2177734,0.2695312,1.6376953,0.6650391l-0.3242188,0.3486328
							c-0.3535156-0.3359375-0.7490234-0.5761719-1.3193359-0.5761719c-0.9296875,0-1.625,0.7558594-1.625,1.7207031v0.0126953
							c0,0.9716797,0.7021484,1.7324219,1.625,1.7324219c0.5761719,0,0.9541016-0.2216797,1.3554688-0.6054688l0.3115234,0.3056641
							c-0.4375,0.4443359-0.9169922,0.7382812-1.6787109,0.7382812
							C184.953125,10.4736328,184.0595703,9.5195312,184.0595703,8.3144531z"/>
						<path class="st0" d="M188.2890625,8.3564453h1.6669922v0.4853516h-1.6669922V8.3564453z"/>
						<path class="st0" d="M190.5751953,8.3144531V8.3027344c0-1.1757812,0.7011719-2.1708984,1.7802734-2.1708984
							c1.0800781,0,1.7636719,0.9833984,1.7636719,2.1582031v0.0126953c0,1.1748047-0.6953125,2.1708984-1.7753906,2.1708984
							C191.2587891,10.4736328,190.5751953,9.4902344,190.5751953,8.3144531z M193.6269531,8.3144531V8.3027344
							c0-0.9179688-0.5039062-1.7392578-1.2832031-1.7392578c-0.7851562,0-1.2773438,0.8037109-1.2773438,1.7265625v0.0126953
							c0,0.9169922,0.5039062,1.7392578,1.2890625,1.7392578C193.1416016,10.0419922,193.6269531,9.2324219,193.6269531,8.3144531z"
							/>
						<path class="st0" d="M194.7158203,8.3144531V8.3027344c0-1.1757812,0.7011719-2.1708984,1.7802734-2.1708984
							c1.0800781,0,1.7636719,0.9833984,1.7636719,2.1582031v0.0126953c0,1.1748047-0.6953125,2.1708984-1.7753906,2.1708984
							C195.3994141,10.4736328,194.7158203,9.4902344,194.7158203,8.3144531z M197.7675781,8.3144531V8.3027344
							c0-0.9179688-0.5039062-1.7392578-1.2832031-1.7392578c-0.7851562,0-1.2773438,0.8037109-1.2773438,1.7265625v0.0126953
							c0,0.9169922,0.5039062,1.7392578,1.2890625,1.7392578C197.2822266,10.0419922,197.7675781,9.2324219,197.7675781,8.3144531z"
							/>
						<path class="st0" d="M198.8066406,9.8076172l0.3125-0.3417969c0.3652344,0.3535156,0.7675781,0.5761719,1.1933594,0.5761719
							c0.5996094,0,1.0136719-0.3964844,1.0136719-0.9296875V9.0996094c0-0.5214844-0.4326172-0.8808594-1.0439453-0.8808594
							c-0.3535156,0-0.6357422,0.1074219-0.8818359,0.2392578l-0.3173828-0.2089844l0.1201172-2.0449219h2.4160156v0.4375
							h-2.0029297l-0.0898438,1.3427734c0.2460938-0.1074219,0.4804688-0.1855469,0.828125-0.1855469
							c0.8154297,0,1.4511719,0.4853516,1.4511719,1.2832031V9.09375c0,0.8222656-0.6240234,1.3798828-1.4990234,1.3798828
							C199.7070312,10.4736328,199.1845703,10.1855469,198.8066406,9.8076172z"/>
						<path class="st0" d="M202.2392578,10.0351562l1.5224609-1.3427734
							c0.6425781-0.5761719,0.8759766-0.8994141,0.8759766-1.3193359c0-0.4921875-0.3896484-0.8037109-0.8457031-0.8037109
							c-0.4794922,0-0.7910156,0.2519531-1.1269531,0.7197266l-0.3476562-0.2519531
							c0.3769531-0.5634766,0.7734375-0.8935547,1.5107422-0.8935547c0.7558594,0,1.3017578,0.5039062,1.3017578,1.1875v0.0117188
							c0,0.6123047-0.3242188,0.9892578-1.0615234,1.6318359l-1.1220703,0.9951172h2.2255859v0.4316406h-2.9326172V10.0351562z"/>
					</g>
				</g>
			</g>
		</g>
	</g>
</g>
</svg>
