<?xml version="1.0" encoding="utf-8"?>
<!-- Generator: Adobe Illustrator 26.3.1, SVG Export Plug-In . SVG Version: 6.00 Build 0)  -->
<svg version="1.1" id="Layer_1" xmlns="http://www.w3.org/2000/svg" xmlns:xlink="http://www.w3.org/1999/xlink" x="0px" y="0px"
	 viewBox="0 0 142 21.2750015" style="enable-background:new 0 0 142 21.2750015;" xml:space="preserve">
<style type="text/css">
	.st0{fill:#4F758B;}
	.st1{fill:#FFFFFF;}
	.st2{fill:none;stroke:#FFFFFF;stroke-width:0.75;stroke-linecap:round;}
</style>
<path class="st0" d="M9,0C4.0289917,0,0,4.029007,0,9v3.2750015c0,4.9710007,4.0289917,9,9,9h133V0H9z"/>
<g>
	<path class="st1" d="M8.53125,6.1044922V6.0859375c0-1.7910156,1.3413086-3.2587891,3.2407227-3.2587891
		c1.1704102,0,1.8725586,0.4052734,2.4760742,0.9814453l-0.7114258,0.8193359
		c-0.5131836-0.4677734-1.0444336-0.7744141-1.7734375-0.7744141c-1.1884766,0-2.0708008,0.9814453-2.0708008,2.2148438v0.0175781
		c0,1.2333984,0.8735352,2.2333984,2.0795898,2.2333984c0.7744141,0,1.2695312-0.3066406,1.8095703-0.8105469l0.7114258,0.7197266
		c-0.6572266,0.6845703-1.3774414,1.1171875-2.5566406,1.1171875C9.890625,9.3457031,8.53125,7.9140625,8.53125,6.1044922z"/>
	<path class="st1" d="M15.3891602,2.6650391h1.0981445v6.5722656h-1.0981445V2.6650391z"/>
	<path class="st1" d="M17.9272461,2.7197266h1.1704102v1.0351562h-1.1704102V2.7197266z M17.9633789,4.484375h1.0981445v4.7529297
		h-1.0981445V4.484375z"/>
	<path class="st1" d="M20.222168,6.8876953V6.8691406c0-1.3496094,1.0439453-2.484375,2.4755859-2.484375
		c0.8911133,0,1.4492188,0.3330078,1.8994141,0.8193359l-0.684082,0.7294922
		c-0.3330078-0.3427734-0.684082-0.5947266-1.2246094-0.5947266c-0.7919922,0-1.3769531,0.6845703-1.3769531,1.5126953v0.0175781
		c0,0.8466797,0.5849609,1.5214844,1.4223633,1.5214844c0.5131836,0,0.8823242-0.2333984,1.2333984-0.5849609l0.6567383,0.6484375
		c-0.4677734,0.5224609-1.0170898,0.8916016-1.9443359,0.8916016C21.2661133,9.3457031,20.222168,8.2382812,20.222168,6.8876953z"/>
	<path class="st1" d="M25.6132812,2.6650391h1.0981445v3.9257812l1.9716797-2.1064453h1.3232422l-1.890625,1.9355469
		l1.9536133,2.8173828h-1.2783203l-1.4042969-2.0615234l-0.675293,0.7021484v1.359375h-1.0981445V2.6650391z"/>
	<path class="st1" d="M33.784668,7.9228516V5.4199219h-0.6030273V4.484375h0.6030273V3.1787109h1.0893555V4.484375h1.2783203
		v0.9355469h-1.2783203v2.3320312c0,0.4228516,0.2163086,0.59375,0.5854492,0.59375
		c0.2426758,0,0.4589844-0.0537109,0.6748047-0.1621094v0.8916016c-0.2700195,0.1533203-0.5668945,0.2431641-0.980957,0.2431641
		C34.3520508,9.3183594,33.784668,8.9667969,33.784668,7.9228516z"/>
	<path class="st1" d="M36.8720703,6.8876953V6.8691406c0-1.359375,1.0800781-2.484375,2.5385742-2.484375
		s2.5297852,1.1074219,2.5297852,2.4667969v0.0175781c0,1.3505859-1.0805664,2.4765625-2.5478516,2.4765625
		C37.9433594,9.3457031,36.8720703,8.2382812,36.8720703,6.8876953z M40.8510742,6.8876953V6.8691406
		c0-0.8369141-0.6030273-1.5302734-1.4584961-1.5302734c-0.8730469,0-1.4316406,0.6845703-1.4316406,1.5126953v0.0175781
		c0,0.8291016,0.6035156,1.5214844,1.449707,1.5214844C40.2929688,8.390625,40.8510742,7.7070312,40.8510742,6.8876953z"/>
	<path class="st1" d="M45.421875,7.8691406V7.8505859c0-1.0263672,0.8100586-1.5302734,1.9711914-1.5302734
		c0.53125,0,0.909668,0.0810547,1.2783203,0.1982422V6.4013672c0-0.6748047-0.4140625-1.0351562-1.1791992-1.0351562
		c-0.53125,0-0.9272461,0.1171875-1.359375,0.296875l-0.296875-0.8554688
		c0.5307617-0.2333984,1.0439453-0.3867188,1.800293-0.3867188c0.7114258,0,1.2426758,0.1894531,1.5756836,0.53125
		c0.3510742,0.3417969,0.5131836,0.8457031,0.5131836,1.4677734v2.8173828h-1.0625v-0.59375
		c-0.3242188,0.3867188-0.8193359,0.6923828-1.5483398,0.6923828C46.2226562,9.3359375,45.421875,8.8232422,45.421875,7.8691406z
		 M48.6894531,7.5263672V7.203125c-0.2788086-0.1083984-0.6479492-0.1894531-1.0800781-0.1894531
		c-0.7021484,0-1.1162109,0.296875-1.1162109,0.7919922v0.0185547c0,0.4589844,0.4047852,0.7197266,0.9272461,0.7197266
		C48.140625,8.5439453,48.6894531,8.1298828,48.6894531,7.5263672z"/>
	<path class="st1" d="M50.7675781,6.8876953V6.8691406c0-1.3496094,1.0439453-2.484375,2.4755859-2.484375
		c0.8911133,0,1.4492188,0.3330078,1.8994141,0.8193359l-0.684082,0.7294922
		c-0.3330078-0.3427734-0.684082-0.5947266-1.2246094-0.5947266c-0.7919922,0-1.3774414,0.6845703-1.3774414,1.5126953v0.0175781
		c0,0.8466797,0.5854492,1.5214844,1.4228516,1.5214844c0.5131836,0,0.8818359-0.2333984,1.2333984-0.5849609l0.6572266,0.6484375
		c-0.4682617,0.5224609-1.0175781,0.8916016-1.9448242,0.8916016C51.8115234,9.3457031,50.7675781,8.2382812,50.7675781,6.8876953z"
		/>
	<path class="st1" d="M55.7719727,6.8876953V6.8691406c0-1.3496094,1.0439453-2.484375,2.4755859-2.484375
		c0.8911133,0,1.4492188,0.3330078,1.8994141,0.8193359l-0.684082,0.7294922
		c-0.3330078-0.3427734-0.684082-0.5947266-1.2246094-0.5947266c-0.7919922,0-1.3769531,0.6845703-1.3769531,1.5126953v0.0175781
		c0,0.8466797,0.5849609,1.5214844,1.4223633,1.5214844c0.5131836,0,0.8823242-0.2333984,1.2333984-0.5849609l0.6567383,0.6484375
		c-0.4677734,0.5224609-1.0170898,0.8916016-1.9443359,0.8916016C56.815918,9.3457031,55.7719727,8.2382812,55.7719727,6.8876953z"
		/>
	<path class="st1" d="M60.7758789,6.8789062V6.8603516c0-1.359375,0.9628906-2.4755859,2.3222656-2.4755859
		c1.5126953,0,2.277832,1.1884766,2.277832,2.5566406c0,0.0996094-0.0087891,0.1982422-0.0180664,0.3066406h-3.4926758
		c0.1166992,0.7734375,0.6660156,1.2060547,1.3681641,1.2060547c0.53125,0,0.9091797-0.1982422,1.2875977-0.5673828
		l0.6391602,0.5673828c-0.4501953,0.5400391-1.0712891,0.8916016-1.9448242,0.8916016
		C61.8378906,9.3457031,60.7758789,8.3457031,60.7758789,6.8789062z M64.2958984,6.5273438
		c-0.0722656-0.7021484-0.4863281-1.2509766-1.206543-1.2509766c-0.6660156,0-1.1342773,0.5126953-1.2333984,1.2509766H64.2958984z"
		/>
	<path class="st1" d="M66.0849609,8.6162109l0.4863281-0.7382812c0.5219727,0.3867188,1.0712891,0.5849609,1.5576172,0.5849609
		c0.4677734,0,0.7382812-0.1982422,0.7382812-0.5126953V7.9316406c0-0.3691406-0.5043945-0.4951172-1.0625-0.6660156
		c-0.7021484-0.1982422-1.4853516-0.4863281-1.4853516-1.3867188V5.8613281c0-0.9091797,0.7470703-1.4580078,1.6923828-1.4580078
		c0.5942383,0,1.2421875,0.2070312,1.746582,0.5400391l-0.4321289,0.7734375
		c-0.4589844-0.2783203-0.9453125-0.4492188-1.3413086-0.4492188c-0.4233398,0-0.6665039,0.2070312-0.6665039,0.4677734v0.0175781
		c0,0.3515625,0.5131836,0.4951172,1.0712891,0.6757812c0.6933594,0.2158203,1.4765625,0.53125,1.4765625,1.3857422v0.0185547
		c0,0.9990234-0.7739258,1.4941406-1.7646484,1.4941406C67.4267578,9.3271484,66.6791992,9.09375,66.0849609,8.6162109z"/>
	<path class="st1" d="M70.5131836,8.6162109l0.4863281-0.7382812c0.5219727,0.3867188,1.0708008,0.5849609,1.5571289,0.5849609
		c0.46875,0,0.7382812-0.1982422,0.7382812-0.5126953V7.9316406c0-0.3691406-0.5039062-0.4951172-1.0625-0.6660156
		c-0.7016602-0.1982422-1.4848633-0.4863281-1.4848633-1.3867188V5.8613281c0-0.9091797,0.7470703-1.4580078,1.6918945-1.4580078
		c0.5947266,0,1.2421875,0.2070312,1.7470703,0.5400391l-0.4326172,0.7734375
		c-0.4589844-0.2783203-0.9453125-0.4492188-1.3408203-0.4492188c-0.4233398,0-0.6665039,0.2070312-0.6665039,0.4677734v0.0175781
		c0,0.3515625,0.5131836,0.4951172,1.0717773,0.6757812c0.6933594,0.2158203,1.4765625,0.53125,1.4765625,1.3857422v0.0185547
		c0,0.9990234-0.7744141,1.4941406-1.765625,1.4941406C71.8549805,9.3271484,71.1074219,9.09375,70.5131836,8.6162109z"/>
	<path class="st1" d="M78.234375,2.9355469h4.6728516v0.9902344h-3.5654297v1.6386719h3.1601562v0.9990234h-3.1601562v1.6835938
		h3.6113281v0.9902344h-4.71875V2.9355469z"/>
	<path class="st1" d="M84.265625,2.9355469H86.75c1.4765625,0,2.3945312,0.8369141,2.3945312,2.1064453v0.0185547
		c0,1.4130859-1.1347656,2.1513672-2.5205078,2.1513672h-1.2509766v2.0253906H84.265625V2.9355469z M86.6601562,6.2128906
		c0.8369141,0,1.359375-0.46875,1.359375-1.1259766V5.0693359c0-0.7382812-0.53125-1.1259766-1.359375-1.1259766h-1.2871094
		v2.2695312H86.6601562z"/>
	<path class="st1" d="M89.9980469,6.1044922V6.0859375c0-1.7910156,1.3417969-3.2587891,3.2402344-3.2587891
		c1.1708984,0,1.8730469,0.4052734,2.4765625,0.9814453l-0.7109375,0.8193359
		c-0.5136719-0.4677734-1.0449219-0.7744141-1.7734375-0.7744141c-1.1894531,0-2.0712891,0.9814453-2.0712891,2.2148438v0.0175781
		c0,1.2333984,0.8740234,2.2333984,2.0791016,2.2333984c0.7753906,0,1.2695312-0.3066406,1.8105469-0.8105469l0.7109375,0.7197266
		c-0.6572266,0.6845703-1.3769531,1.1171875-2.5566406,1.1171875C91.3574219,9.3457031,89.9980469,7.9140625,89.9980469,6.1044922z"
		/>
	<path class="st1" d="M96.9277344,2.9355469h1.1083984v5.2929688h3.3125v1.0087891h-4.4208984V2.9355469z"/>
	<path class="st1" d="M102.2197266,6.5634766V2.9355469h1.1074219v3.5830078c0,1.1699219,0.6035156,1.7910156,1.59375,1.7910156
		c0.9814453,0,1.5839844-0.5849609,1.5839844-1.7460938V2.9355469h1.1074219v3.5742188
		c0,1.8808594-1.0615234,2.8261719-2.7099609,2.8261719C103.2646484,9.3359375,102.2197266,8.390625,102.2197266,6.5634766z"/>
	<path class="st1" d="M108.7089844,8.3193359l0.6669922-0.7929688c0.6025391,0.5224609,1.2148438,0.8193359,1.9892578,0.8193359
		c0.6845703,0,1.1162109-0.3242188,1.1162109-0.7919922V7.5361328c0-0.4501953-0.2519531-0.6933594-1.4228516-0.9638672
		c-1.3408203-0.3242188-2.0966797-0.7197266-2.0966797-1.8808594V4.6728516c0-1.0800781,0.8994141-1.8271484,2.1513672-1.8271484
		c0.9179688,0,1.6474609,0.2783203,2.2861328,0.7919922l-0.59375,0.8369141
		c-0.5673828-0.4228516-1.1347656-0.6474609-1.7109375-0.6474609c-0.6474609,0-1.0263672,0.3330078-1.0263672,0.7470703v0.0175781
		c0,0.4863281,0.2880859,0.7021484,1.5039062,0.9902344c1.3320312,0.3242188,2.0166016,0.8017578,2.0166016,1.8457031v0.0175781
		c0,1.1796875-0.9277344,1.8818359-2.2509766,1.8818359C110.375,9.3271484,109.4658203,8.9941406,108.7089844,8.3193359z"/>
	<path class="st1" d="M116.9990234,2.890625h1.0263672l2.7724609,6.3466797h-1.1699219l-0.6396484-1.5214844h-2.9794922
		l-0.6484375,1.5214844h-1.1337891L116.9990234,2.890625z M118.5830078,6.734375l-1.0888672-2.5205078l-1.0800781,2.5205078
		H118.5830078z"/>
</g>
<g>
	<path class="st1" d="M8.8100586,11.9360352h2.4848633c1.4765625,0,2.3945312,0.8359375,2.3945312,2.1054688v0.0195312
		c0,1.4121094-1.1342773,2.1503906-2.5205078,2.1503906H9.9174805v2.0253906H8.8100586V11.9360352z M11.2050781,15.2133789
		c0.8369141,0,1.359375-0.46875,1.359375-1.1269531v-0.0175781c0-0.7382812-0.53125-1.125-1.359375-1.125H9.9174805v2.2695312
		H11.2050781z"/>
	<path class="st1" d="M14.8852539,11.9360352h1.1074219v6.3007812h-1.1074219V11.9360352z"/>
	<path class="st1" d="M19.9248047,16.8696289v-0.0195312c0-1.0253906,0.8105469-1.5292969,1.9716797-1.5292969
		c0.53125,0,0.9091797,0.0800781,1.2783203,0.1972656v-0.1171875c0-0.6738281-0.4140625-1.0351562-1.1791992-1.0351562
		c-0.53125,0-0.9272461,0.1171875-1.359375,0.296875l-0.296875-0.8554688
		c0.5307617-0.2324219,1.0439453-0.3867188,1.800293-0.3867188c0.7114258,0,1.2421875,0.1894531,1.5756836,0.53125
		c0.3510742,0.3417969,0.5131836,0.8457031,0.5131836,1.46875v2.8164062h-1.0625v-0.59375
		c-0.3242188,0.3867188-0.8193359,0.6933594-1.5483398,0.6933594
		C20.7260742,18.3364258,19.9248047,17.8227539,19.9248047,16.8696289z M23.1928711,16.5258789v-0.3222656
		c-0.2788086-0.109375-0.6479492-0.1894531-1.0800781-0.1894531c-0.7021484,0-1.1162109,0.296875-1.1162109,0.7910156v0.0195312
		c0,0.4589844,0.4047852,0.71875,0.9272461,0.71875C22.644043,17.543457,23.1928711,17.1293945,23.1928711,16.5258789z"/>
	<path class="st1" d="M25.5229492,13.4848633h1.0981445v0.7285156c0.3061523-0.4414062,0.7470703-0.828125,1.4853516-0.828125
		c1.0712891,0,1.6928711,0.7207031,1.6928711,1.8183594v3.0332031h-1.0893555v-2.7011719
		c0-0.7382812-0.3691406-1.1601562-1.0175781-1.1601562c-0.6298828,0-1.0712891,0.4414062-1.0712891,1.1796875v2.6816406h-1.0981445
		V13.4848633z"/>
	<path class="st1" d="M30.8686523,15.8696289v-0.0175781c0-1.5761719,1.0717773-2.4667969,2.2060547-2.4667969
		c0.7832031,0,1.2783203,0.3867188,1.6201172,0.8359375v-2.5561523h1.0893555v6.5717773h-1.0893555v-0.7910156
		c-0.3510742,0.4941406-0.8461914,0.890625-1.6201172,0.890625C31.9580078,18.3364258,30.8686523,17.4458008,30.8686523,15.8696289z
		 M34.7128906,15.8696289v-0.0175781c0-0.9179688-0.6479492-1.5214844-1.3774414-1.5214844
		c-0.7470703,0-1.3681641,0.5839844-1.3681641,1.5214844v0.0175781c0,0.9179688,0.6298828,1.5214844,1.3681641,1.5214844
		C34.0649414,17.3911133,34.7128906,16.7797852,34.7128906,15.8696289z"/>
	<path class="st1" d="M42.2094727,11.8911133h1.0263672l2.7729492,6.3457031h-1.1704102l-0.6391602-1.5214844h-2.9799805
		l-0.6484375,1.5214844h-1.1342773L42.2094727,11.8911133z M43.7939453,15.7348633l-1.0893555-2.5214844l-1.0805664,2.5214844
		H43.7939453z"/>
	<path class="st1" d="M47.0864258,11.9360352h4.6723633v0.9902344h-3.5649414v1.6386719h3.1601562v0.9980469h-3.1601562v1.6835938
		h3.6103516v0.9902344h-4.7177734V11.9360352z"/>
	<path class="st1" d="M55.6816406,13.4848633h1.0981445v1.0703125c0.2973633-0.7109375,0.8461914-1.1972656,1.6835938-1.1621094
		v1.1523438h-0.0629883c-0.9541016,0-1.6206055,0.6210938-1.6206055,1.8828125v1.8085938h-1.0981445V13.4848633z"/>
	<path class="st1" d="M58.984375,15.8793945v-0.0195312c0-1.359375,0.9628906-2.4746094,2.3222656-2.4746094
		c1.5126953,0,2.277832,1.1875,2.277832,2.5566406c0,0.0996094-0.0087891,0.1972656-0.0180664,0.3066406h-3.4931641
		c0.1171875,0.7734375,0.6665039,1.2050781,1.3686523,1.2050781c0.53125,0,0.9091797-0.1972656,1.2875977-0.5664062
		l0.6391602,0.5664062c-0.4501953,0.5410156-1.0712891,0.8925781-1.9448242,0.8925781
		C60.0463867,18.3461914,58.984375,17.3461914,58.984375,15.8793945z M62.5043945,15.527832
		c-0.0722656-0.703125-0.4863281-1.2519531-1.206543-1.2519531c-0.6660156,0-1.1342773,0.5136719-1.2333984,1.2519531H62.5043945z"
		/>
	<path class="st1" d="M64.6723633,13.4848633h1.0981445v0.7910156c0.3510742-0.4941406,0.8461914-0.890625,1.6206055-0.890625
		c1.1162109,0,2.2055664,0.8828125,2.2055664,2.4667969v0.0175781c0,1.5761719-1.0800781,2.4667969-2.2055664,2.4667969
		c-0.7924805,0-1.2875977-0.3964844-1.6206055-0.8378906v2.1796875h-1.0981445V13.4848633z M68.4892578,15.8696289v-0.0175781
		c0-0.9179688-0.6298828-1.5214844-1.359375-1.5214844c-0.7382812,0-1.3862305,0.6113281-1.3862305,1.5214844v0.0175781
		c0,0.9101562,0.6479492,1.5214844,1.3862305,1.5214844C67.8774414,17.3911133,68.4892578,16.8051758,68.4892578,15.8696289z"/>
	<path class="st1" d="M70.4594727,15.887207v-0.0175781c0-1.359375,1.0800781-2.484375,2.5385742-2.484375
		c1.4589844,0,2.5292969,1.1074219,2.5292969,2.4667969v0.0175781c0,1.3496094-1.0800781,2.4765625-2.546875,2.4765625
		C71.5307617,18.3461914,70.4594727,17.2387695,70.4594727,15.887207z M74.4384766,15.887207v-0.0175781
		c0-0.8378906-0.6025391-1.53125-1.4580078-1.53125c-0.8730469,0-1.4316406,0.6855469-1.4316406,1.5136719v0.0175781
		c0,0.828125,0.6035156,1.5214844,1.4492188,1.5214844C73.8808594,17.3911133,74.4384766,16.7075195,74.4384766,15.887207z"/>
	<path class="st1" d="M76.625,13.4848633h1.0976562v1.0703125c0.296875-0.7109375,0.8457031-1.1972656,1.6835938-1.1621094
		v1.1523438h-0.0625c-0.9550781,0-1.6210938,0.6210938-1.6210938,1.8828125v1.8085938H76.625V13.4848633z"/>
	<path class="st1" d="M80.5751953,16.9223633v-2.5019531h-0.6025391v-0.9355469h0.6025391v-1.3066406h1.0888672v1.3066406h1.2792969
		v0.9355469h-1.2792969v2.3320312c0,0.421875,0.2167969,0.59375,0.5859375,0.59375
		c0.2421875,0,0.4589844-0.0546875,0.6748047-0.1621094v0.890625c-0.2705078,0.1542969-0.5673828,0.2441406-0.9814453,0.2441406
		C81.1425781,18.3188477,80.5751953,17.9672852,80.5751953,16.9223633z"/>
	<path class="st1" d="M84.0664062,11.7197266h1.1708984v1.034668h-1.1708984V11.7197266z M84.1035156,13.4848633h1.0976562
		v4.7519531h-1.0976562V13.4848633z"/>
	<path class="st1" d="M86.6142578,13.4848633h1.0986328v0.7285156c0.3056641-0.4414062,0.7470703-0.828125,1.484375-0.828125
		c1.0722656,0,1.6933594,0.7207031,1.6933594,1.8183594v3.0332031h-1.0898438v-2.7011719
		c0-0.7382812-0.3691406-1.1601562-1.0175781-1.1601562c-0.6289062,0-1.0703125,0.4414062-1.0703125,1.1796875v2.6816406h-1.0986328
		V13.4848633z"/>
	<path class="st1" d="M92.1933594,19.1293945l0.4052734-0.8203125c0.5126953,0.3144531,1.0439453,0.4960938,1.6923828,0.4960938
		c0.9726562,0,1.5039062-0.4960938,1.5039062-1.4492188v-0.3613281c-0.3964844,0.5039062-0.8916016,0.8652344-1.6748047,0.8652344
		c-1.125,0-2.1611328-0.828125-2.1611328-2.2246094v-0.0175781c0-1.4042969,1.0546875-2.2324219,2.1611328-2.2324219
		c0.8017578,0,1.2958984,0.3691406,1.6650391,0.8105469v-0.7109375H96.875v3.7792969
		c0,0.8027344-0.2070312,1.3964844-0.6035156,1.7929688c-0.4316406,0.4316406-1.0976562,0.6386719-1.953125,0.6386719
		C93.5351562,19.6958008,92.8066406,19.4985352,92.1933594,19.1293945z M95.8037109,15.6274414v-0.0195312
		c0-0.7734375-0.6396484-1.2949219-1.3955078-1.2949219s-1.3496094,0.5117188-1.3496094,1.2949219v0.0195312
		c0,0.7734375,0.6025391,1.3046875,1.3496094,1.3046875C95.1640625,16.9321289,95.8037109,16.4008789,95.8037109,15.6274414z"/>
</g>
<polyline class="st2" points="128.2269287,15.7426987 132.4699097,11.4997025 128.2269287,7.2577057 "/>
</svg>
