<?xml version="1.0" encoding="utf-8"?>
<!-- Generator: Adobe Illustrator 26.3.1, SVG Export Plug-In . SVG Version: 6.00 Build 0)  -->
<svg version="1.1" id="Layer_1" xmlns="http://www.w3.org/2000/svg" xmlns:xlink="http://www.w3.org/1999/xlink" x="0px" y="0px"
	 viewBox="0 0 132 24.0010071" style="enable-background:new 0 0 132 24.0010071;" xml:space="preserve">
<style type="text/css">
	.st0{fill:#35C4AF;}
	.st1{fill:#FFFFFF;}
	.st2{fill:none;stroke:#FFFFFF;stroke-width:0.75;stroke-linecap:round;}
</style>
<g>
	<path class="st0" d="M9,0C4.0289917,0,0,4.029007,0,9v6.0010071c0,4.9700012,4.0289917,9,9,9h123V0H9z"/>
</g>
<g>
	<path class="st1" d="M7.53125,7.9677887V7.949234c0-1.7910156,1.3413086-3.2587891,3.2407227-3.2587891
		c1.1704102,0,1.8725586,0.4052734,2.4760742,0.9814453l-0.7114258,0.8193359
		c-0.5131836-0.4677734-1.0444336-0.7744141-1.7734375-0.7744141c-1.1884766,0-2.0708008,0.9814453-2.0708008,2.2148438V7.949234
		c0,1.2333984,0.8735352,2.2333984,2.0795898,2.2333984c0.7744141,0,1.2695312-0.3066406,1.8095703-0.8105469l0.7114258,0.7197266
		c-0.6572266,0.6845703-1.3774414,1.1171875-2.5566406,1.1171875C8.890625,11.2089996,7.53125,9.777359,7.53125,7.9677887z"/>
	<path class="st1" d="M14.3891602,4.5283356h1.0981445v6.5722656h-1.0981445V4.5283356z"/>
	<path class="st1" d="M16.9272461,4.5830231h1.1704102v1.0351562h-1.1704102V4.5830231z M16.9633789,6.3476715h1.0981445v4.7529297
		h-1.0981445V6.3476715z"/>
	<path class="st1" d="M19.222168,8.7509918V8.7324371c0-1.3496094,1.0439453-2.484375,2.4755859-2.484375
		c0.8911133,0,1.4492188,0.3330078,1.8994141,0.8193359l-0.684082,0.7294922
		c-0.3330078-0.3427734-0.684082-0.5947266-1.2246094-0.5947266c-0.7919922,0-1.3769531,0.6845703-1.3769531,1.5126953v0.0175781
		c0,0.8466797,0.5849609,1.5214844,1.4223633,1.5214844c0.5131836,0,0.8823242-0.2333984,1.2333984-0.5849609l0.6567383,0.6484375
		c-0.4677734,0.5224609-1.0170898,0.8916016-1.9443359,0.8916016C20.2661133,11.2089996,19.222168,10.1015778,19.222168,8.7509918z"
		/>
	<path class="st1" d="M24.6132812,4.5283356h1.0981445v3.9257812l1.9716797-2.1064453h1.3232422l-1.890625,1.9355469
		l1.9536133,2.8173828h-1.2783203l-1.4042969-2.0615234l-0.675293,0.7021484v1.359375h-1.0981445V4.5283356z"/>
	<path class="st1" d="M32.784668,9.7861481V7.2832184h-0.6030273V6.3476715h0.6030273V5.0420074h1.0893555v1.3056641h1.2783203
		v0.9355469h-1.2783203v2.3320312c0,0.4228516,0.2163086,0.59375,0.5854492,0.59375
		c0.2426758,0,0.4589844-0.0537109,0.6748047-0.1621094v0.8916016c-0.2700195,0.1533203-0.5668945,0.2431641-0.980957,0.2431641
		C33.3520508,11.1816559,32.784668,10.8300934,32.784668,9.7861481z"/>
	<path class="st1" d="M35.8720703,8.7509918V8.7324371c0-1.359375,1.0800781-2.484375,2.5385742-2.484375
		s2.5297852,1.1074219,2.5297852,2.4667969v0.0175781c0,1.3505859-1.0805664,2.4765625-2.5478516,2.4765625
		C36.9433594,11.2089996,35.8720703,10.1015778,35.8720703,8.7509918z M39.8510742,8.7509918V8.7324371
		c0-0.8369141-0.6030273-1.5302734-1.4584961-1.5302734c-0.8730469,0-1.4316406,0.6845703-1.4316406,1.5126953v0.0175781
		c0,0.8291016,0.6035156,1.5214844,1.449707,1.5214844C39.2929688,10.2539215,39.8510742,9.5703278,39.8510742,8.7509918z"/>
	<path class="st1" d="M44.421875,9.7324371V9.7138824c0-1.0263672,0.8100586-1.5302734,1.9711914-1.5302734
		c0.53125,0,0.909668,0.0810547,1.2783203,0.1982422V8.2646637c0-0.6748047-0.4140625-1.0351562-1.1791992-1.0351562
		c-0.53125,0-0.9272461,0.1171875-1.359375,0.296875l-0.296875-0.8554688
		c0.5307617-0.2333984,1.0439453-0.3867188,1.800293-0.3867188c0.7114258,0,1.2426758,0.1894531,1.5756836,0.53125
		c0.3510742,0.3417969,0.5131836,0.8457031,0.5131836,1.4677734v2.8173828h-1.0625v-0.59375
		c-0.3242188,0.3867188-0.8193359,0.6923828-1.5483398,0.6923828C45.2226562,11.199234,44.421875,10.6865387,44.421875,9.7324371z
		 M47.6894531,9.3896637V9.0664215c-0.2788086-0.1083984-0.6479492-0.1894531-1.0800781-0.1894531
		c-0.7021484,0-1.1162109,0.296875-1.1162109,0.7919922v0.0185547c0,0.4589844,0.4047852,0.7197266,0.9272461,0.7197266
		C47.140625,10.4072418,47.6894531,9.9931793,47.6894531,9.3896637z"/>
	<path class="st1" d="M49.7675781,8.7509918V8.7324371c0-1.3496094,1.0439453-2.484375,2.4755859-2.484375
		c0.8911133,0,1.4492188,0.3330078,1.8994141,0.8193359l-0.684082,0.7294922
		c-0.3330078-0.3427734-0.684082-0.5947266-1.2246094-0.5947266c-0.7919922,0-1.3774414,0.6845703-1.3774414,1.5126953v0.0175781
		c0,0.8466797,0.5854492,1.5214844,1.4228516,1.5214844c0.5131836,0,0.8818359-0.2333984,1.2333984-0.5849609l0.6572266,0.6484375
		c-0.4682617,0.5224609-1.0175781,0.8916016-1.9448242,0.8916016C50.8115234,11.2089996,49.7675781,10.1015778,49.7675781,8.7509918
		z"/>
	<path class="st1" d="M54.7719727,8.7509918V8.7324371c0-1.3496094,1.0439453-2.484375,2.4755859-2.484375
		c0.8911133,0,1.4492188,0.3330078,1.8994141,0.8193359l-0.684082,0.7294922
		c-0.3330078-0.3427734-0.684082-0.5947266-1.2246094-0.5947266c-0.7919922,0-1.3769531,0.6845703-1.3769531,1.5126953v0.0175781
		c0,0.8466797,0.5849609,1.5214844,1.4223633,1.5214844c0.5131836,0,0.8823242-0.2333984,1.2333984-0.5849609l0.6567383,0.6484375
		c-0.4677734,0.5224609-1.0170898,0.8916016-1.9443359,0.8916016C55.815918,11.2089996,54.7719727,10.1015778,54.7719727,8.7509918z
		"/>
	<path class="st1" d="M59.7758789,8.7422028V8.7236481c0-1.359375,0.9628906-2.4755859,2.3222656-2.4755859
		c1.5126953,0,2.277832,1.1884766,2.277832,2.5566406c0,0.0996094-0.0087891,0.1982422-0.0180664,0.3066406h-3.4926758
		c0.1166992,0.7734375,0.6660156,1.2060547,1.3681641,1.2060547c0.53125,0,0.9091797-0.1982422,1.2875977-0.5673828
		l0.6391602,0.5673828c-0.4501953,0.5400391-1.0712891,0.8916016-1.9448242,0.8916016
		C60.8378906,11.2089996,59.7758789,10.2089996,59.7758789,8.7422028z M63.2958984,8.3906403
		c-0.0722656-0.7021484-0.4863281-1.2509766-1.206543-1.2509766c-0.6660156,0-1.1342773,0.5126953-1.2333984,1.2509766H63.2958984z"
		/>
	<path class="st1" d="M65.0849609,10.4795074l0.4863281-0.7382812c0.5219727,0.3867188,1.0712891,0.5849609,1.5576172,0.5849609
		c0.4677734,0,0.7382812-0.1982422,0.7382812-0.5126953V9.7949371c0-0.3691406-0.5039062-0.4951172-1.0625-0.6660156
		c-0.7021484-0.1982422-1.4853516-0.4863281-1.4853516-1.3867188V7.7246246c0-0.9091797,0.7470703-1.4580078,1.6923828-1.4580078
		c0.59375,0,1.2421875,0.2070312,1.7460938,0.5400391l-0.4316406,0.7734375
		c-0.4589844-0.2783203-0.9453125-0.4492188-1.3413086-0.4492188c-0.4233398,0-0.6665039,0.2070312-0.6665039,0.4677734v0.0175781
		c0,0.3515625,0.5131836,0.4951172,1.0712891,0.6757812c0.6933594,0.2158203,1.4765625,0.53125,1.4765625,1.3857422v0.0185547
		c0,0.9990234-0.7744141,1.4941406-1.7646484,1.4941406C66.4267578,11.1904449,65.6791992,10.9570465,65.0849609,10.4795074z"/>
	<path class="st1" d="M69.5136719,10.4795074L70,9.7412262c0.5214844,0.3867188,1.0703125,0.5849609,1.5566406,0.5849609
		c0.46875,0,0.7382812-0.1982422,0.7382812-0.5126953V9.7949371c0-0.3691406-0.5039062-0.4951172-1.0625-0.6660156
		c-0.7011719-0.1982422-1.484375-0.4863281-1.484375-1.3867188V7.7246246c0-0.9091797,0.7460938-1.4580078,1.6914062-1.4580078
		c0.5947266,0,1.2421875,0.2070312,1.7470703,0.5400391l-0.4326172,0.7734375
		c-0.4589844-0.2783203-0.9453125-0.4492188-1.3408203-0.4492188c-0.4228516,0-0.6669922,0.2070312-0.6669922,0.4677734v0.0175781
		c0,0.3515625,0.5136719,0.4951172,1.0722656,0.6757812c0.6933594,0.2158203,1.4765625,0.53125,1.4765625,1.3857422v0.0185547
		c0,0.9990234-0.7744141,1.4941406-1.765625,1.4941406C70.8554688,11.1904449,70.1074219,10.9570465,69.5136719,10.4795074z"/>
	<path class="st1" d="M77.234375,4.7988434h4.6728516v0.9902344h-3.5654297v1.6386719h3.1601562v0.9990234h-3.1601562v1.6835938
		h3.6113281v0.9902344h-4.71875V4.7988434z"/>
	<path class="st1" d="M83.265625,4.7988434H85.75c1.4765625,0,2.3945312,0.8369141,2.3945312,2.1064453v0.0185547
		c0,1.4130859-1.1347656,2.1513672-2.5205078,2.1513672h-1.2509766v2.0253906H83.265625V4.7988434z M85.6601562,8.0761871
		c0.8369141,0,1.359375-0.46875,1.359375-1.1259766V6.9326324c0-0.7382812-0.53125-1.1259766-1.359375-1.1259766h-1.2871094
		v2.2695312H85.6601562z"/>
	<path class="st1" d="M88.9980469,7.9677887V7.949234c0-1.7910156,1.3417969-3.2587891,3.2402344-3.2587891
		c1.1708984,0,1.8730469,0.4052734,2.4765625,0.9814453l-0.7109375,0.8193359
		c-0.5136719-0.4677734-1.0449219-0.7744141-1.7734375-0.7744141c-1.1894531,0-2.0712891,0.9814453-2.0712891,2.2148438V7.949234
		c0,1.2333984,0.8740234,2.2333984,2.0791016,2.2333984c0.7753906,0,1.2695312-0.3066406,1.8105469-0.8105469l0.7109375,0.7197266
		c-0.6572266,0.6845703-1.3769531,1.1171875-2.5566406,1.1171875C90.3574219,11.2089996,88.9980469,9.777359,88.9980469,7.9677887z"
		/>
	<path class="st1" d="M95.9277344,4.7988434h1.1074219v5.2929688h3.3134766v1.0087891h-4.4208984V4.7988434z"/>
	<path class="st1" d="M101.2207031,8.4267731V4.7988434h1.1064453v3.5830078c0,1.1699219,0.6035156,1.7910156,1.59375,1.7910156
		c0.9814453,0,1.5849609-0.5849609,1.5849609-1.7460938V4.7988434h1.1074219v3.5742188
		c0,1.8808594-1.0625,2.8261719-2.7109375,2.8261719C102.2636719,11.199234,101.2207031,10.2539215,101.2207031,8.4267731z"/>
	<path class="st1" d="M107.7089844,10.1826324L108.375,9.3896637c0.6035156,0.5224609,1.2148438,0.8193359,1.9902344,0.8193359
		c0.6835938,0,1.1152344-0.3242188,1.1152344-0.7919922V9.3994293c0-0.4501953-0.2519531-0.6933594-1.421875-0.9638672
		c-1.3417969-0.3242188-2.0976562-0.7197266-2.0976562-1.8808594V6.5361481c0-1.0800781,0.9003906-1.8271484,2.1523438-1.8271484
		c0.9179688,0,1.6464844,0.2783203,2.2861328,0.7919922l-0.5947266,0.8369141
		c-0.5664062-0.4228516-1.1337891-0.6474609-1.7099609-0.6474609c-0.6484375,0-1.0263672,0.3330078-1.0263672,0.7470703v0.0175781
		c0,0.4863281,0.2880859,0.7021484,1.5039062,0.9902344c1.3320312,0.3242188,2.015625,0.8017578,2.015625,1.8457031V9.308609
		c0,1.1796875-0.9267578,1.8818359-2.25,1.8818359C109.375,11.1904449,108.4648438,10.8574371,107.7089844,10.1826324z"/>
	<path class="st1" d="M115.9990234,4.7539215h1.0263672l2.7724609,6.3466797h-1.1699219l-0.6396484-1.5214844h-2.9794922
		l-0.6484375,1.5214844h-1.1337891L115.9990234,4.7539215z M117.5839844,8.5976715l-1.0898438-2.5205078l-1.0800781,2.5205078
		H117.5839844z"/>
</g>
<g>
	<path class="st1" d="M7.8100586,12.7998199h2.4848633c1.4765625,0,2.3945312,0.8364258,2.3945312,2.105957v0.0175781
		c0,1.4140625-1.1342773,2.1523438-2.5205078,2.1523438H8.9174805v2.0253906H7.8100586V12.7998199z M10.2050781,16.0756989
		c0.8369141,0,1.359375-0.4677734,1.359375-1.125v-0.0175781c0-0.7382812-0.53125-1.1259766-1.359375-1.1259766H8.9174805v2.2685547
		H10.2050781z"/>
	<path class="st1" d="M13.8852539,12.7998199h1.1074219v6.3012695h-1.1074219V12.7998199z"/>
	<path class="st1" d="M18.9248047,17.7329254v-0.0185547c0-1.0263672,0.8105469-1.5302734,1.9716797-1.5302734
		c0.53125,0,0.9091797,0.0810547,1.2783203,0.1982422V16.265152c0-0.6748047-0.4140625-1.0351562-1.1791992-1.0351562
		c-0.53125,0-0.9272461,0.1171875-1.359375,0.296875l-0.296875-0.8554688
		c0.5307617-0.2333984,1.0439453-0.3867188,1.800293-0.3867188c0.7114258,0,1.2421875,0.1894531,1.5756836,0.53125
		c0.3510742,0.3417969,0.5131836,0.8457031,0.5131836,1.4677734v2.8173828h-1.0625v-0.59375
		c-0.3242188,0.3867188-0.8193359,0.6923828-1.5483398,0.6923828C19.7260742,19.1997223,18.9248047,18.687027,18.9248047,17.7329254
		z M22.1928711,17.390152v-0.3232422c-0.2788086-0.1083984-0.6479492-0.1894531-1.0800781-0.1894531
		c-0.7021484,0-1.1162109,0.296875-1.1162109,0.7919922v0.0185547c0,0.4589844,0.4047852,0.7197266,0.9272461,0.7197266
		C21.644043,18.4077301,22.1928711,17.9936676,22.1928711,17.390152z"/>
	<path class="st1" d="M24.5229492,14.3471832h1.0981445v0.7294922c0.3061523-0.4404297,0.7470703-0.828125,1.4853516-0.828125
		c1.0712891,0,1.6928711,0.7207031,1.6928711,1.8183594v3.0341797h-1.0893555v-2.7011719
		c0-0.7382812-0.3691406-1.1611328-1.0175781-1.1611328c-0.6298828,0-1.0712891,0.4414062-1.0712891,1.1796875v2.6826172h-1.0981445
		V14.3471832z"/>
	<path class="st1" d="M29.8686523,16.7329254v-0.0175781c0-1.5751953,1.0717773-2.4667969,2.2060547-2.4667969
		c0.7832031,0,1.2783203,0.3876953,1.6201172,0.8369141v-2.5561523h1.0893555v6.5717773h-1.0893555v-0.7919922
		c-0.3510742,0.4951172-0.8461914,0.890625-1.6201172,0.890625C30.9580078,19.1997223,29.8686523,18.3090973,29.8686523,16.7329254z
		 M33.7128906,16.7329254v-0.0175781c0-0.9179688-0.6479492-1.5214844-1.3774414-1.5214844
		c-0.7470703,0-1.3681641,0.5849609-1.3681641,1.5214844v0.0175781c0,0.9189453,0.6298828,1.5214844,1.3681641,1.5214844
		C33.0649414,18.2544098,33.7128906,17.6430817,33.7128906,16.7329254z"/>
	<path class="st1" d="M41.2094727,12.7548981h1.0263672l2.7729492,6.3461914h-1.1704102l-0.6391602-1.5214844h-2.9799805
		l-0.6484375,1.5214844h-1.1342773L41.2094727,12.7548981z M42.7939453,16.5981598l-1.0893555-2.5205078l-1.0805664,2.5205078
		H42.7939453z"/>
	<path class="st1" d="M46.0864258,12.7998199h4.6723633v0.9897461h-3.5649414v1.6386719h3.1601562v0.9990234h-3.1601562v1.6835938
		h3.6103516v0.9902344h-4.7177734V12.7998199z"/>
	<path class="st1" d="M54.6816406,14.3471832h1.0981445v1.0722656c0.2973633-0.7119141,0.8461914-1.1982422,1.6835938-1.1621094
		v1.1523438h-0.0629883c-0.9541016,0-1.6206055,0.6210938-1.6206055,1.8818359v1.8095703h-1.0981445V14.3471832z"/>
	<path class="st1" d="M57.984375,16.742691v-0.0185547c0-1.359375,0.9628906-2.4755859,2.3222656-2.4755859
		c1.5126953,0,2.277832,1.1884766,2.277832,2.5566406c0,0.0996094-0.0087891,0.1982422-0.0180664,0.3066406h-3.4931641
		c0.1171875,0.7734375,0.6665039,1.2060547,1.3686523,1.2060547c0.53125,0,0.9091797-0.1982422,1.2875977-0.5673828
		l0.6391602,0.5673828c-0.4501953,0.5400391-1.0712891,0.8916016-1.9448242,0.8916016
		C59.0463867,19.2094879,57.984375,18.2094879,57.984375,16.742691z M61.5043945,16.3911285
		c-0.0722656-0.7021484-0.4863281-1.2509766-1.206543-1.2509766c-0.6660156,0-1.1342773,0.5126953-1.2333984,1.2509766H61.5043945z"
		/>
	<path class="st1" d="M63.6723633,14.3471832h1.0981445v0.7929688c0.3510742-0.4951172,0.8461914-0.8916016,1.6206055-0.8916016
		c1.1166992,0,2.2055664,0.8828125,2.2055664,2.4667969v0.0175781c0,1.5761719-1.0800781,2.4667969-2.2055664,2.4667969
		c-0.7924805,0-1.2875977-0.3955078-1.6206055-0.8369141v2.1787109h-1.0981445V14.3471832z M67.4892578,16.7329254v-0.0175781
		c0-0.9179688-0.6298828-1.5214844-1.359375-1.5214844c-0.7382812,0-1.3862305,0.6123047-1.3862305,1.5214844v0.0175781
		c0,0.9101562,0.6479492,1.5214844,1.3862305,1.5214844C66.8774414,18.2544098,67.4892578,17.6694489,67.4892578,16.7329254z"/>
	<path class="st1" d="M69.4589844,16.7514801v-0.0185547c0-1.359375,1.0800781-2.484375,2.5390625-2.484375
		s2.5292969,1.1074219,2.5292969,2.4667969v0.0175781c0,1.3505859-1.0800781,2.4765625-2.546875,2.4765625
		C70.53125,19.2094879,69.4589844,18.102066,69.4589844,16.7514801z M73.4384766,16.7514801v-0.0185547
		c0-0.8369141-0.6025391-1.5302734-1.4580078-1.5302734c-0.8730469,0-1.4316406,0.6845703-1.4316406,1.5126953v0.0175781
		c0,0.8291016,0.6035156,1.5214844,1.4492188,1.5214844C72.8808594,18.2544098,73.4384766,17.570816,73.4384766,16.7514801z"/>
	<path class="st1" d="M75.625,14.3471832h1.0976562v1.0722656c0.296875-0.7119141,0.8457031-1.1982422,1.6835938-1.1621094
		v1.1523438h-0.0625c-0.9550781,0-1.6210938,0.6210938-1.6210938,1.8818359v1.8095703H75.625V14.3471832z"/>
	<path class="st1" d="M79.5751953,17.7866364v-2.5029297h-0.6025391v-0.9365234h0.6025391v-1.3046875h1.0888672v1.3046875h1.2792969
		v0.9365234h-1.2792969v2.3320312c0,0.4228516,0.2167969,0.59375,0.5859375,0.59375
		c0.2421875,0,0.4589844-0.0537109,0.6748047-0.1621094v0.8916016c-0.2705078,0.1533203-0.5673828,0.2431641-0.9814453,0.2431641
		C80.1425781,19.1821442,79.5751953,18.8305817,79.5751953,17.7866364z"/>
	<path class="st1" d="M83.0664062,12.5839996h1.1708984v1.034668h-1.1708984V12.5839996z M83.1035156,14.3471832h1.0976562
		v4.7539062h-1.0976562V14.3471832z"/>
	<path class="st1" d="M85.6142578,14.3471832h1.0986328v0.7294922c0.3056641-0.4404297,0.7470703-0.828125,1.484375-0.828125
		c1.0722656,0,1.6933594,0.7207031,1.6933594,1.8183594v3.0341797h-1.0898438v-2.7011719
		c0-0.7382812-0.3691406-1.1611328-1.0175781-1.1611328c-0.6289062,0-1.0703125,0.4414062-1.0703125,1.1796875v2.6826172h-1.0986328
		V14.3471832z"/>
	<path class="st1" d="M91.1933594,19.992691l0.4052734-0.8193359c0.5126953,0.3144531,1.0439453,0.4951172,1.6923828,0.4951172
		c0.9726562,0,1.5039062-0.4951172,1.5039062-1.4492188V17.858902c-0.3964844,0.5039062-0.8916016,0.8642578-1.6748047,0.8642578
		c-1.125,0-2.1611328-0.828125-2.1611328-2.2236328v-0.0185547c0-1.4042969,1.0546875-2.2324219,2.1611328-2.2324219
		c0.8017578,0,1.2958984,0.3691406,1.6650391,0.8105469v-0.7119141H95.875v3.78125
		c0,0.8017578-0.2070312,1.3955078-0.6035156,1.7919922c-0.4316406,0.4316406-1.0976562,0.6386719-1.953125,0.6386719
		C92.5351562,20.5590973,91.8066406,20.3618317,91.1933594,19.992691z M94.8037109,16.4907379v-0.0185547
		c0-0.7744141-0.6396484-1.2958984-1.3955078-1.2958984s-1.3496094,0.5126953-1.3496094,1.2958984v0.0185547
		c0,0.7734375,0.6025391,1.3046875,1.3496094,1.3046875C94.1640625,17.7954254,94.8037109,17.2641754,94.8037109,16.4907379z"/>
</g>
<polyline class="st2" points="115.2269897,21.8605957 119.4699707,17.6175995 115.2269897,13.3756104 "/>
</svg>
