<?xml version="1.0" encoding="utf-8"?>
<!-- Generator: Adobe Illustrator 26.3.1, SVG Export Plug-In . SVG Version: 6.00 Build 0)  -->
<svg version="1.1" id="Layer_1" xmlns="http://www.w3.org/2000/svg" xmlns:xlink="http://www.w3.org/1999/xlink" x="0px" y="0px"
	 viewBox="0 0 143.9047852 15.2558594" style="enable-background:new 0 0 143.9047852 15.2558594;" xml:space="preserve">
<style type="text/css">
	.st0{fill:#FFFFFF;}
</style>
<g>
	<path class="st0" d="M0,0.2099609h3.5439453v0.5039062H0.5532227v1.6738281h2.675293v0.5048828h-2.675293v1.7158203h3.0258789
		v0.5039062H0V0.2099609z"/>
	<path class="st0" d="M4.6899414,0.2099609h1.8349609c1.1064453,0,1.8349609,0.5878906,1.8349609,1.5546875v0.0136719
		c0,1.0576172-0.8823242,1.6044922-1.9257812,1.6044922h-1.190918v1.7294922H4.6899414V0.2099609z M6.4550781,2.8779297
		c0.8125,0,1.3447266-0.4335938,1.3447266-1.078125V1.7851562c0-0.7001953-0.5253906-1.0644531-1.3168945-1.0644531H5.2431641
		v2.1572266H6.4550781z"/>
	<path class="st0" d="M9.1489258,2.6748047V2.6611328c0-1.3867188,1.0366211-2.5351562,2.4794922-2.5351562
		c0.8896484,0,1.421875,0.3144531,1.9121094,0.7773438l-0.378418,0.40625
		c-0.4130859-0.3925781-0.8754883-0.6728516-1.5405273-0.6728516c-1.0859375,0-1.8979492,0.8828125-1.8979492,2.0107422v0.0136719
		c0,1.1347656,0.8193359,2.0244141,1.8979492,2.0244141c0.6723633,0,1.1132812-0.2597656,1.5825195-0.7080078l0.3642578,0.3574219
		c-0.5112305,0.5185547-1.0712891,0.8613281-1.9609375,0.8613281C10.1928711,5.1962891,9.1489258,4.0830078,9.1489258,2.6748047z"/>
	<path class="st0" d="M14.5600586,0.2099609h0.5532227v4.390625h2.7597656v0.5117188h-3.3129883V0.2099609z"/>
	<path class="st0" d="M18.6826172,3.0605469V0.2099609h0.5532227v2.8154297c0,1.0576172,0.5605469,1.6523438,1.4990234,1.6523438
		c0.9033203,0,1.4780273-0.5458984,1.4780273-1.6171875V0.2099609h0.5532227v2.8085938
		c0,1.4287109-0.8198242,2.1708984-2.0454102,2.1708984C19.5092773,5.1894531,18.6826172,4.4472656,18.6826172,3.0605469z"/>
	<path class="st0" d="M23.7504883,4.3974609l0.3432617-0.40625c0.5112305,0.4628906,1.0014648,0.6943359,1.6811523,0.6943359
		c0.6582031,0,1.0922852-0.3505859,1.0922852-0.8339844V3.8378906c0-0.4550781-0.2451172-0.7148438-1.2744141-0.9316406
		c-1.1279297-0.2451172-1.6459961-0.609375-1.6459961-1.4150391V1.4775391c0-0.7705078,0.6791992-1.3378906,1.6108398-1.3378906
		c0.7143555,0,1.2255859,0.203125,1.7226562,0.6025391l-0.3217773,0.4267578
		c-0.4555664-0.3710938-0.9106445-0.5322266-1.4150391-0.5322266C24.90625,0.6367188,24.5,0.9873047,24.5,1.4287109v0.0136719
		c0,0.4619141,0.2519531,0.7216797,1.3305664,0.9521484c1.0927734,0.2382812,1.597168,0.6376953,1.597168,1.3867188v0.0146484
		c0,0.8398438-0.7006836,1.3867188-1.6738281,1.3867188C24.9760742,5.1826172,24.3388672,4.9228516,23.7504883,4.3974609z"/>
	<path class="st0" d="M30.2685547,0.1748047h0.5185547l2.2338867,4.9375h-0.5952148l-0.5742188-1.2958984h-2.668457
		l-0.581543,1.2958984h-0.5673828L30.2685547,0.1748047z M31.6342773,3.3193359l-1.1137695-2.5l-1.1206055,2.5H31.6342773z"/>
	<path class="st0" d="M35.9936523,1.4912109h0.5390625v0.609375c0.2382812-0.3574219,0.5605469-0.6865234,1.1694336-0.6865234
		c0.5883789,0,0.9667969,0.3154297,1.1630859,0.7216797c0.2587891-0.3994141,0.644043-0.7216797,1.2744141-0.7216797
		c0.8334961,0,1.3447266,0.5605469,1.3447266,1.4570312v2.2412109h-0.5390625V2.9970703
		c0-0.7001953-0.3505859-1.0927734-0.9384766-1.0927734c-0.5463867,0-1.0019531,0.40625-1.0019531,1.1210938v2.0869141h-0.5322266
		V2.9833984c0-0.6796875-0.3569336-1.0791016-0.9311523-1.0791016c-0.574707,0-1.0087891,0.4765625-1.0087891,1.1416016v2.0664062
		h-0.5390625V1.4912109z"/>
	<path class="st0" d="M42.3564453,4.0615234V4.0478516c0-0.7636719,0.6303711-1.1699219,1.5478516-1.1699219
		c0.4624023,0,0.7915039,0.0634766,1.1137695,0.1542969V2.90625c0-0.6513672-0.3994141-0.9873047-1.0786133-0.9873047
		c-0.4272461,0-0.7636719,0.1113281-1.0996094,0.265625l-0.1611328-0.4414062
		c0.3994141-0.1816406,0.7915039-0.3007812,1.3168945-0.3007812c0.5112305,0,0.9033203,0.1328125,1.1694336,0.3994141
		c0.2451172,0.2451172,0.3710938,0.5947266,0.3710938,1.0576172v2.2128906h-0.5180664V4.5664062
		c-0.2524414,0.3291016-0.6723633,0.6230469-1.3100586,0.6230469C43.0361328,5.1894531,42.3564453,4.8037109,42.3564453,4.0615234z
		 M45.0249023,3.78125V3.4316406c-0.2661133-0.0771484-0.6230469-0.1542969-1.0644531-0.1542969
		c-0.6791992,0-1.0576172,0.2939453-1.0576172,0.7490234v0.0146484c0,0.4550781,0.4204102,0.7207031,0.9106445,0.7207031
		C44.4785156,4.7617188,45.0249023,4.3554688,45.0249023,3.78125z"/>
	<path class="st0" d="M49.2602539,1.4912109h0.5742188l-1.5200195,3.7402344
		c-0.3081055,0.7490234-0.6582031,1.0224609-1.2045898,1.0224609c-0.3012695,0-0.5253906-0.0634766-0.7705078-0.1816406
		l0.1821289-0.4277344c0.175293,0.0908203,0.3364258,0.1328125,0.5673828,0.1328125
		c0.3222656,0,0.5253906-0.1679688,0.7421875-0.6787109l-1.6455078-3.6074219h0.5952148l1.3168945,3.0185547L49.2602539,1.4912109z"
		/>
	<path class="st0" d="M52.7866211,0h0.5390625v2.1220703c0.2382812-0.3925781,0.6162109-0.7080078,1.2397461-0.7080078
		c0.8754883,0,1.3867188,0.5888672,1.3867188,1.4501953v2.2480469h-0.5395508V2.9970703
		c0-0.671875-0.3637695-1.0927734-1.0014648-1.0927734c-0.6230469,0-1.0854492,0.4550781-1.0854492,1.1347656v2.0732422h-0.5390625
		V0z"/>
	<path class="st0" d="M56.8251953,4.0615234V4.0478516c0-0.7636719,0.6303711-1.1699219,1.5478516-1.1699219
		c0.4624023,0,0.7915039,0.0634766,1.1137695,0.1542969V2.90625c0-0.6513672-0.3994141-0.9873047-1.0786133-0.9873047
		c-0.4272461,0-0.7636719,0.1113281-1.0996094,0.265625l-0.1611328-0.4414062
		c0.3994141-0.1816406,0.7915039-0.3007812,1.3168945-0.3007812c0.5112305,0,0.9033203,0.1328125,1.1694336,0.3994141
		c0.2451172,0.2451172,0.3710938,0.5947266,0.3710938,1.0576172v2.2128906h-0.5180664V4.5664062
		c-0.2524414,0.3291016-0.6723633,0.6230469-1.3100586,0.6230469C57.5048828,5.1894531,56.8251953,4.8037109,56.8251953,4.0615234z
		 M59.4936523,3.78125V3.4316406c-0.2661133-0.0771484-0.6230469-0.1542969-1.0644531-0.1542969
		c-0.6791992,0-1.0576172,0.2939453-1.0576172,0.7490234v0.0146484c0,0.4550781,0.4204102,0.7207031,0.9106445,0.7207031
		C58.9472656,4.7617188,59.4936523,4.3554688,59.4936523,3.78125z"/>
	<path class="st0" d="M60.6542969,1.4912109h0.5952148l1.21875,3.0048828l1.2255859-3.0048828h0.581543L62.6992188,5.140625
		h-0.4760742L60.6542969,1.4912109z"/>
	<path class="st0" d="M64.6933594,3.3125V3.2978516c0-1.0429688,0.7353516-1.8837891,1.7368164-1.8837891
		c1.0712891,0,1.6875,0.8544922,1.6875,1.9121094c0,0.0703125,0,0.1123047-0.0068359,0.1748047h-2.871582
		c0.0771484,0.7851562,0.6303711,1.2265625,1.2749023,1.2265625c0.4970703,0,0.8476562-0.203125,1.1416016-0.5117188
		l0.3359375,0.3007812c-0.3642578,0.40625-0.8056641,0.6796875-1.4912109,0.6796875
		C65.5053711,5.1962891,64.6933594,4.4326172,64.6933594,3.3125z M67.5717773,3.1025391
		c-0.0556641-0.6582031-0.4345703-1.2333984-1.1552734-1.2333984c-0.6308594,0-1.1069336,0.5253906-1.1772461,1.2333984H67.5717773z
		"/>
	<path class="st0" d="M71.1606445,1.4912109h0.5390625v0.7285156c0.2949219-0.4345703,0.7216797-0.8056641,1.3867188-0.8056641
		c0.8691406,0,1.7304688,0.6865234,1.7304688,1.8769531v0.0146484c0,1.1835938-0.8544922,1.8837891-1.7304688,1.8837891
		c-0.671875,0-1.1054688-0.3642578-1.3867188-0.7705078v1.8144531h-0.5390625V1.4912109z M74.2641602,3.3125V3.2978516
		c0-0.8535156-0.5888672-1.4003906-1.2753906-1.4003906c-0.671875,0-1.3095703,0.5673828-1.3095703,1.3935547v0.0146484
		c0,0.8398438,0.6376953,1.4003906,1.3095703,1.4003906C73.6899414,4.7060547,74.2641602,4.1875,74.2641602,3.3125z"/>
	<path class="st0" d="M75.5844727,3.3193359V3.3056641c0-1.0224609,0.7988281-1.8916016,1.890625-1.8916016
		c1.0859375,0,1.8847656,0.8544922,1.8847656,1.8769531v0.0146484c0,1.0224609-0.8056641,1.890625-1.8984375,1.890625
		C76.3754883,5.1962891,75.5844727,4.3417969,75.5844727,3.3193359z M78.8071289,3.3193359V3.3056641
		c0-0.7773438-0.5820312-1.4150391-1.3457031-1.4150391c-0.7841797,0-1.3232422,0.6376953-1.3232422,1.4003906v0.0146484
		c0,0.7773438,0.5742188,1.4072266,1.3369141,1.4072266C78.2602539,4.7128906,78.8071289,4.0830078,78.8071289,3.3193359z"/>
	<path class="st0" d="M80.5200195,4.1523438V1.9677734h-0.5039062V1.4912109h0.5039062V0.3984375h0.5390625v1.0927734h1.1484375
		v0.4765625H81.059082v2.1152344c0,0.4414062,0.2451172,0.6025391,0.609375,0.6025391
		c0.1816406,0,0.3359375-0.0351562,0.5253906-0.1269531v0.4628906c-0.1894531,0.0976562-0.3925781,0.1542969-0.6513672,0.1542969
		C80.9614258,5.1757812,80.5200195,4.8876953,80.5200195,4.1523438z"/>
	<path class="st0" d="M82.8364258,3.3125V3.2978516c0-1.0429688,0.7363281-1.8837891,1.7373047-1.8837891
		c1.0712891,0,1.6884766,0.8544922,1.6884766,1.9121094c0,0.0703125,0,0.1123047-0.0078125,0.1748047h-2.8710938
		c0.0761719,0.7851562,0.6298828,1.2265625,1.2744141,1.2265625c0.4970703,0,0.8476562-0.203125,1.1416016-0.5117188
		l0.3359375,0.3007812c-0.3632812,0.40625-0.8046875,0.6796875-1.4921875,0.6796875
		C83.6489258,5.1962891,82.8364258,4.4326172,82.8364258,3.3125z M85.715332,3.1025391
		c-0.0566406-0.6582031-0.4335938-1.2333984-1.15625-1.2333984c-0.6298828,0-1.1054688,0.5253906-1.1757812,1.2333984H85.715332z"/>
	<path class="st0" d="M87.2055664,1.4912109h0.5390625v0.6308594c0.2382812-0.3925781,0.6152344-0.7080078,1.2392578-0.7080078
		c0.8759766,0,1.3867188,0.5888672,1.3867188,1.4501953v2.2480469h-0.5400391V2.9970703
		c0-0.671875-0.3632812-1.0927734-1.0009766-1.0927734c-0.6230469,0-1.0849609,0.4550781-1.0849609,1.1347656v2.0732422h-0.5390625
		V1.4912109z"/>
	<path class="st0" d="M91.7055664,4.1523438V1.9677734h-0.5039062V1.4912109h0.5039062V0.3984375h0.5390625v1.0927734h1.1494141
		v0.4765625h-1.1494141v2.1152344c0,0.4414062,0.2460938,0.6025391,0.609375,0.6025391
		c0.1826172,0,0.3369141-0.0351562,0.5253906-0.1269531v0.4628906c-0.1884766,0.0976562-0.3916016,0.1542969-0.6503906,0.1542969
		C92.1469727,5.1757812,91.7055664,4.8876953,91.7055664,4.1523438z"/>
	<path class="st0" d="M94.3588867,0.1044922h0.6162109v0.5957031h-0.6162109V0.1044922z M94.394043,1.4912109h0.5390625v3.6210938
		H94.394043V1.4912109z"/>
	<path class="st0" d="M95.9125977,4.0615234V4.0478516c0-0.7636719,0.6308594-1.1699219,1.5478516-1.1699219
		c0.4619141,0,0.7919922,0.0634766,1.1142578,0.1542969V2.90625c0-0.6513672-0.4003906-0.9873047-1.0791016-0.9873047
		c-0.4267578,0-0.7636719,0.1113281-1.0996094,0.265625l-0.1611328-0.4414062
		c0.3994141-0.1816406,0.7910156-0.3007812,1.3164062-0.3007812c0.5117188,0,0.9042969,0.1328125,1.1699219,0.3994141
		c0.2451172,0.2451172,0.3710938,0.5947266,0.3710938,1.0576172v2.2128906H98.574707V4.5664062
		c-0.2529297,0.3291016-0.6728516,0.6230469-1.3105469,0.6230469C96.5922852,5.1894531,95.9125977,4.8037109,95.9125977,4.0615234z
		 M98.5805664,3.78125V3.4316406c-0.265625-0.0771484-0.6230469-0.1542969-1.0644531-0.1542969
		c-0.6787109,0-1.0566406,0.2939453-1.0566406,0.7490234v0.0146484c0,0.4550781,0.4199219,0.7207031,0.9101562,0.7207031
		C98.034668,4.7617188,98.5805664,4.3554688,98.5805664,3.78125z"/>
	<path class="st0" d="M100.2875977,0h0.5390625v5.1123047h-0.5390625V0z"/>
	<path class="st0" d="M104.1938477,0.1044922h0.6152344v0.5957031h-0.6152344V0.1044922z M104.2290039,1.4912109h0.5390625
		v3.6210938h-0.5390625V1.4912109z"/>
	<path class="st0" d="M106.0200195,1.4912109h0.5390625v0.6308594c0.2382812-0.3925781,0.6171875-0.7080078,1.2402344-0.7080078
		c0.875,0,1.3867188,0.5888672,1.3867188,1.4501953v2.2480469h-0.5390625V2.9970703
		c0-0.671875-0.3642578-1.0927734-1.0019531-1.0927734c-0.6230469,0-1.0859375,0.4550781-1.0859375,1.1347656v2.0732422h-0.5390625
		V1.4912109z"/>
	<path class="st0" d="M110.5219727,4.1523438V1.9677734h-0.5039062V1.4912109h0.5039062V0.3984375h0.5390625v1.0927734h1.1484375
		v0.4765625h-1.1484375v2.1152344c0,0.4414062,0.2460938,0.6025391,0.609375,0.6025391
		c0.1816406,0,0.3359375-0.0351562,0.5253906-0.1269531v0.4628906c-0.1894531,0.0976562-0.3925781,0.1542969-0.6503906,0.1542969
		C110.9633789,5.1757812,110.5219727,4.8876953,110.5219727,4.1523438z"/>
	<path class="st0" d="M112.8305664,3.3125V3.2978516c0-1.0429688,0.7363281-1.8837891,1.7382812-1.8837891
		c1.0703125,0,1.6875,0.8544922,1.6875,1.9121094c0,0.0703125,0,0.1123047-0.0078125,0.1748047h-2.8710938
		c0.078125,0.7851562,0.6308594,1.2265625,1.2753906,1.2265625c0.4960938,0,0.8476562-0.203125,1.140625-0.5117188
		l0.3359375,0.3007812c-0.3632812,0.40625-0.8046875,0.6796875-1.4902344,0.6796875
		C113.6430664,5.1962891,112.8305664,4.4326172,112.8305664,3.3125z M115.7094727,3.1025391
		c-0.0546875-0.6582031-0.4335938-1.2333984-1.1542969-1.2333984c-0.6308594,0-1.1074219,0.5253906-1.1777344,1.2333984H115.7094727
		z"/>
	<path class="st0" d="M117.199707,1.4912109h0.5390625v0.9453125c0.265625-0.6015625,0.7910156-1.0361328,1.4765625-1.0078125
		v0.5810547h-0.0410156c-0.7910156,0-1.4355469,0.5673828-1.4355469,1.6601562v1.4423828h-0.5390625V1.4912109z"/>
	<path class="st0" d="M119.5922852,4.0615234V4.0478516c0-0.7636719,0.6308594-1.1699219,1.5488281-1.1699219
		c0.4609375,0,0.7910156,0.0634766,1.1132812,0.1542969V2.90625c0-0.6513672-0.3984375-0.9873047-1.078125-0.9873047
		c-0.4277344,0-0.7636719,0.1113281-1.0996094,0.265625l-0.1621094-0.4414062
		c0.4003906-0.1816406,0.7910156-0.3007812,1.3164062-0.3007812c0.5117188,0,0.9042969,0.1328125,1.1699219,0.3994141
		c0.2460938,0.2451172,0.3710938,0.5947266,0.3710938,1.0576172v2.2128906h-0.5175781V4.5664062
		c-0.2519531,0.3291016-0.671875,0.6230469-1.3105469,0.6230469C120.2719727,5.1894531,119.5922852,4.8037109,119.5922852,4.0615234
		z M122.262207,3.78125V3.4316406c-0.2675781-0.0771484-0.625-0.1542969-1.0664062-0.1542969
		c-0.6777344,0-1.0566406,0.2939453-1.0566406,0.7490234v0.0146484c0,0.4550781,0.4199219,0.7207031,0.9101562,0.7207031
		C121.715332,4.7617188,122.262207,4.3554688,122.262207,3.78125z"/>
	<path class="st0" d="M123.6958008,3.3193359V3.3056641c0-1.0224609,0.7988281-1.8916016,1.8554688-1.8916016
		c0.6875,0,1.1132812,0.2871094,1.4492188,0.6445312l-0.3554688,0.3779297
		c-0.2871094-0.3007812-0.609375-0.5458984-1.0996094-0.5458984c-0.7363281,0-1.296875,0.6230469-1.296875,1.4003906v0.0146484
		c0,0.7841797,0.5742188,1.4072266,1.3320312,1.4072266c0.4609375,0,0.8183594-0.2304688,1.1054688-0.5390625l0.34375,0.3222656
		c-0.3652344,0.40625-0.7988281,0.7001953-1.4785156,0.7001953C124.4946289,5.1962891,123.6958008,4.3349609,123.6958008,3.3193359z
		"/>
	<path class="st0" d="M128.1040039,4.1523438V1.9677734h-0.5039062V1.4912109h0.5039062V0.3984375h0.5410156v1.0927734h1.1484375
		v0.4765625h-1.1484375v2.1152344c0,0.4414062,0.2441406,0.6025391,0.609375,0.6025391
		c0.1816406,0,0.3359375-0.0351562,0.5234375-0.1269531v0.4628906c-0.1875,0.0976562-0.390625,0.1542969-0.6503906,0.1542969
		C128.5454102,5.1757812,128.1040039,4.8876953,128.1040039,4.1523438z"/>
	<path class="st0" d="M130.7583008,0.1044922h0.6152344v0.5957031h-0.6152344V0.1044922z M130.793457,1.4912109h0.5390625v3.6210938
		h-0.5390625V1.4912109z"/>
	<path class="st0" d="M132.3598633,3.3193359V3.3056641c0-1.0224609,0.7988281-1.8916016,1.8925781-1.8916016
		c1.0839844,0,1.8828125,0.8544922,1.8828125,1.8769531v0.0146484c0,1.0224609-0.8046875,1.890625-1.8984375,1.890625
		C133.152832,5.1962891,132.3598633,4.3417969,132.3598633,3.3193359z M135.5825195,3.3193359V3.3056641
		c0-0.7773438-0.5820312-1.4150391-1.3457031-1.4150391c-0.7832031,0-1.3222656,0.6376953-1.3222656,1.4003906v0.0146484
		c0,0.7773438,0.5742188,1.4072266,1.3378906,1.4072266C135.0356445,4.7128906,135.5825195,4.0830078,135.5825195,3.3193359z"/>
	<path class="st0" d="M137.1079102,1.4912109h0.5390625v0.6308594c0.2382812-0.3925781,0.6152344-0.7080078,1.2382812-0.7080078
		c0.8769531,0,1.3867188,0.5888672,1.3867188,1.4501953v2.2480469h-0.5390625V2.9970703c0-0.671875-0.3632812-1.0927734-1-1.0927734
		c-0.625,0-1.0859375,0.4550781-1.0859375,1.1347656v2.0732422h-0.5390625V1.4912109z"/>
	<path class="st0" d="M141.1176758,4.6503906l0.2734375-0.3857422c0.3925781,0.2939453,0.8261719,0.4628906,1.2539062,0.4628906
		c0.4335938,0,0.7480469-0.2246094,0.7480469-0.5751953V4.1386719c0-0.3642578-0.4257812-0.5039062-0.9023438-0.6376953
		c-0.5683594-0.1601562-1.1972656-0.3564453-1.1972656-1.0224609V2.4648438c0-0.6230469,0.5175781-1.0361328,1.2324219-1.0361328
		c0.4414062,0,0.9316406,0.1533203,1.3027344,0.3984375l-0.2460938,0.40625
		c-0.3359375-0.2167969-0.7207031-0.3496094-1.0703125-0.3496094c-0.4277344,0-0.7011719,0.2236328-0.7011719,0.5253906v0.0136719
		c0,0.3427734,0.4472656,0.4765625,0.9316406,0.6230469c0.5605469,0.1679688,1.1621094,0.3857422,1.1621094,1.0371094v0.0136719
		c0,0.6865234-0.5664062,1.0859375-1.2890625,1.0859375C142.0981445,5.1826172,141.5239258,4.9794922,141.1176758,4.6503906z"/>
</g>
<g>
	<path class="st0" d="M13.9926758,10.4931641h0.574707l0.9521484,2.90625l0.9736328-2.9199219h0.4482422l0.9804688,2.9199219
		l0.9526367-2.90625h0.5605469l-1.2749023,3.6494141H17.690918l-0.9736328-2.8574219l-0.9804688,2.8574219h-0.4760742
		L13.9926758,10.4931641z"/>
	<path class="st0" d="M20.3417969,9.1064453h0.6162109v0.5957031h-0.6162109V9.1064453z M20.3769531,10.4931641h0.5390625v3.6210938
		h-0.5390625V10.4931641z"/>
	<path class="st0" d="M22.3579102,13.1542969v-2.1845703h-0.5043945v-0.4765625h0.5043945V9.4003906h0.5390625v1.0927734h1.1489258
		v0.4765625h-1.1489258v2.1152344c0,0.4414062,0.2451172,0.6025391,0.609375,0.6025391
		c0.1821289,0,0.3364258-0.0351562,0.5253906-0.1269531v0.4628906c-0.1889648,0.0976562-0.3920898,0.1542969-0.6513672,0.1542969
		C22.7988281,14.1777344,22.3579102,13.8896484,22.3579102,13.1542969z"/>
	<path class="st0" d="M24.9970703,9.0019531h0.5390625v2.1220703c0.2382812-0.3925781,0.6162109-0.7080078,1.2397461-0.7080078
		c0.8754883,0,1.3867188,0.5888672,1.3867188,1.4501953v2.2480469h-0.5395508v-2.1152344
		c0-0.671875-0.3637695-1.0927734-1.0014648-1.0927734c-0.6230469,0-1.0854492,0.4550781-1.0854492,1.1347656v2.0732422h-0.5390625
		V9.0019531z"/>
	<path class="st0" d="M31.1079102,13.6523438l0.2729492-0.3857422c0.3920898,0.2939453,0.8266602,0.4628906,1.2539062,0.4628906
		c0.434082,0,0.7490234-0.2246094,0.7490234-0.5751953V13.140625c0-0.3642578-0.4267578-0.5039062-0.9033203-0.6376953
		c-0.5673828-0.1601562-1.1977539-0.3564453-1.1977539-1.0224609v-0.0136719c0-0.6230469,0.5185547-1.0361328,1.2329102-1.0361328
		c0.4414062,0,0.9316406,0.1533203,1.3027344,0.3984375l-0.2451172,0.40625
		c-0.3364258-0.2167969-0.7216797-0.3496094-1.0717773-0.3496094c-0.4272461,0-0.7001953,0.2236328-0.7001953,0.5253906v0.0136719
		c0,0.3427734,0.4482422,0.4765625,0.9316406,0.6230469c0.5600586,0.1679688,1.1625977,0.3857422,1.1625977,1.0371094v0.0136719
		c0,0.6865234-0.5673828,1.0859375-1.2890625,1.0859375C32.0883789,14.1845703,31.5141602,13.9814453,31.1079102,13.6523438z"/>
	<path class="st0" d="M34.6708984,12.3212891v-0.0136719c0-1.0224609,0.7983398-1.8916016,1.890625-1.8916016
		c1.0859375,0,1.8842773,0.8544922,1.8842773,1.8769531v0.0146484c0,1.0224609-0.8056641,1.890625-1.8979492,1.890625
		C35.4619141,14.1982422,34.6708984,13.34375,34.6708984,12.3212891z M37.8925781,12.3212891v-0.0136719
		c0-0.7773438-0.581543-1.4150391-1.3447266-1.4150391c-0.784668,0-1.3237305,0.6376953-1.3237305,1.4003906v0.0146484
		c0,0.7773438,0.5742188,1.4072266,1.3374023,1.4072266C37.3461914,13.7148438,37.8925781,13.0849609,37.8925781,12.3212891z"/>
	<path class="st0" d="M39.4169922,10.4931641h0.5390625v0.609375c0.2382812-0.3574219,0.5605469-0.6865234,1.1694336-0.6865234
		c0.5883789,0,0.9667969,0.3154297,1.1625977,0.7216797c0.2592773-0.3994141,0.6445312-0.7216797,1.2749023-0.7216797
		c0.8334961,0,1.3447266,0.5605469,1.3447266,1.4570312v2.2412109h-0.5390625v-2.1152344
		c0-0.7001953-0.3505859-1.0927734-0.9384766-1.0927734c-0.5463867,0-1.0019531,0.40625-1.0019531,1.1210938v2.0869141h-0.5322266
		v-2.1289062c0-0.6796875-0.3569336-1.0791016-0.9311523-1.0791016c-0.574707,0-1.0087891,0.4765625-1.0087891,1.1416016v2.0664062
		h-0.5390625V10.4931641z"/>
	<path class="st0" d="M45.8286133,12.3144531v-0.0146484c0-1.0429688,0.7353516-1.8837891,1.7368164-1.8837891
		c1.0712891,0,1.6879883,0.8544922,1.6879883,1.9121094c0,0.0703125,0,0.1123047-0.0073242,0.1748047h-2.871582
		c0.0771484,0.7851562,0.6303711,1.2265625,1.2749023,1.2265625c0.4970703,0,0.8476562-0.203125,1.1416016-0.5117188
		l0.3359375,0.3007812c-0.3637695,0.40625-0.8051758,0.6796875-1.4916992,0.6796875
		C46.640625,14.1982422,45.8286133,13.4345703,45.8286133,12.3144531z M48.7070312,12.1044922
		c-0.0561523-0.6582031-0.434082-1.2333984-1.1557617-1.2333984c-0.6303711,0-1.1064453,0.5253906-1.1767578,1.2333984H48.7070312z"
		/>
	<path class="st0" d="M52.0234375,13.0634766v-0.0136719c0-0.7636719,0.6303711-1.1699219,1.5478516-1.1699219
		c0.4624023,0,0.7915039,0.0634766,1.1137695,0.1542969v-0.1259766c0-0.6513672-0.3994141-0.9873047-1.0786133-0.9873047
		c-0.4272461,0-0.7636719,0.1113281-1.0996094,0.265625l-0.1611328-0.4414062
		c0.3994141-0.1816406,0.7915039-0.3007812,1.3168945-0.3007812c0.5112305,0,0.9033203,0.1328125,1.1694336,0.3994141
		c0.2451172,0.2451172,0.3710938,0.5947266,0.3710938,1.0576172v2.2128906h-0.5180664v-0.5458984
		c-0.2524414,0.3291016-0.6723633,0.6230469-1.3100586,0.6230469C52.703125,14.1914062,52.0234375,13.8056641,52.0234375,13.0634766
		z M54.6918945,12.7832031v-0.3496094c-0.2661133-0.0771484-0.6230469-0.1542969-1.0644531-0.1542969
		c-0.6791992,0-1.0576172,0.2939453-1.0576172,0.7490234v0.0146484c0,0.4550781,0.4204102,0.7207031,0.9106445,0.7207031
		C54.1455078,13.7636719,54.6918945,13.3574219,54.6918945,12.7832031z"/>
	<path class="st0" d="M56.3496094,10.4931641h0.5390625v0.6308594c0.2382812-0.3925781,0.6162109-0.7080078,1.2397461-0.7080078
		c0.8754883,0,1.3867188,0.5888672,1.3867188,1.4501953v2.2480469h-0.5395508v-2.1152344
		c0-0.671875-0.3637695-1.0927734-1.0014648-1.0927734c-0.6230469,0-1.0854492,0.4550781-1.0854492,1.1347656v2.0732422h-0.5390625
		V10.4931641z"/>
	<path class="st0" d="M60.8505859,13.1542969v-2.1845703h-0.5043945v-0.4765625h0.5043945V9.4003906h0.5390625v1.0927734h1.1489258
		v0.4765625h-1.1489258v2.1152344c0,0.4414062,0.2451172,0.6025391,0.609375,0.6025391
		c0.1821289,0,0.3364258-0.0351562,0.5253906-0.1269531v0.4628906c-0.1889648,0.0976562-0.3920898,0.1542969-0.6513672,0.1542969
		C61.2919922,14.1777344,60.8505859,13.8896484,60.8505859,13.1542969z"/>
	<path class="st0" d="M63.503418,9.1064453h0.6166992v0.5957031H63.503418V9.1064453z M63.5385742,10.4931641h0.5390625v3.6210938
		h-0.5390625V10.4931641z"/>
	<path class="st0" d="M65.3305664,10.4931641h0.5390625v0.7285156c0.2939453-0.4345703,0.7207031-0.8056641,1.3867188-0.8056641
		c0.8691406,0,1.7304688,0.6865234,1.7304688,1.8769531v0.0146484c0,1.1835938-0.8554688,1.8837891-1.7304688,1.8837891
		c-0.671875,0-1.1064453-0.3642578-1.3867188-0.7705078v1.8144531h-0.5390625V10.4931641z M68.4331055,12.3144531v-0.0146484
		c0-0.8535156-0.5888672-1.4003906-1.2744141-1.4003906c-0.6728516,0-1.3100586,0.5673828-1.3100586,1.3935547v0.0146484
		c0,0.8398438,0.637207,1.4003906,1.3100586,1.4003906C67.8588867,13.7080078,68.4331055,13.1894531,68.4331055,12.3144531z"/>
	<path class="st0" d="M69.6772461,13.6523438l0.2724609-0.3857422c0.3925781,0.2939453,0.8271484,0.4628906,1.2539062,0.4628906
		c0.4345703,0,0.75-0.2246094,0.75-0.5751953V13.140625c0-0.3642578-0.4277344-0.5039062-0.9042969-0.6376953
		c-0.5664062-0.1601562-1.1972656-0.3564453-1.1972656-1.0224609v-0.0136719c0-0.6230469,0.5185547-1.0361328,1.2324219-1.0361328
		c0.4414062,0,0.9316406,0.1533203,1.3027344,0.3984375l-0.2441406,0.40625
		c-0.3369141-0.2167969-0.7226562-0.3496094-1.0722656-0.3496094c-0.4277344,0-0.7001953,0.2236328-0.7001953,0.5253906v0.0136719
		c0,0.3427734,0.4482422,0.4765625,0.9316406,0.6230469c0.5595703,0.1679688,1.1630859,0.3857422,1.1630859,1.0371094v0.0136719
		c0,0.6865234-0.5683594,1.0859375-1.2890625,1.0859375C70.6577148,14.1845703,70.0834961,13.9814453,69.6772461,13.6523438z"/>
	<path class="st0" d="M76.0698242,10.4931641h0.5742188l-1.5205078,3.7402344
		c-0.3076172,0.7490234-0.6582031,1.0224609-1.2041016,1.0224609c-0.3017578,0-0.5253906-0.0634766-0.7705078-0.1816406
		l0.1816406-0.4277344c0.1757812,0.0908203,0.3369141,0.1328125,0.5683594,0.1328125
		c0.3222656,0,0.5253906-0.1679688,0.7421875-0.6787109l-1.6464844-3.6074219h0.5957031l1.3164062,3.0185547L76.0698242,10.4931641z
		"/>
	<path class="st0" d="M77.0688477,12.3212891v-0.0136719c0-1.0224609,0.7988281-1.8916016,1.8554688-1.8916016
		c0.6865234,0,1.1132812,0.2871094,1.4501953,0.6445312l-0.3574219,0.3779297
		c-0.2871094-0.3007812-0.609375-0.5458984-1.0996094-0.5458984c-0.7353516,0-1.2958984,0.6230469-1.2958984,1.4003906v0.0146484
		c0,0.7841797,0.5742188,1.4072266,1.3310547,1.4072266c0.4619141,0,0.8193359-0.2304688,1.1064453-0.5390625l0.34375,0.3222656
		c-0.3652344,0.40625-0.7988281,0.7001953-1.4785156,0.7001953C77.8676758,14.1982422,77.0688477,13.3369141,77.0688477,12.3212891z
		"/>
	<path class="st0" d="M81.2895508,9.0019531h0.5390625v2.1220703c0.2382812-0.3925781,0.6171875-0.7080078,1.2402344-0.7080078
		c0.875,0,1.3867188,0.5888672,1.3867188,1.4501953v2.2480469h-0.5390625v-2.1152344
		c0-0.671875-0.3642578-1.0927734-1.0019531-1.0927734c-0.6230469,0-1.0859375,0.4550781-1.0859375,1.1347656v2.0732422h-0.5390625
		V9.0019531z"/>
	<path class="st0" d="M85.3774414,12.3212891v-0.0136719c0-1.0224609,0.7988281-1.8916016,1.890625-1.8916016
		c1.0859375,0,1.8847656,0.8544922,1.8847656,1.8769531v0.0146484c0,1.0224609-0.8056641,1.890625-1.8984375,1.890625
		C86.168457,14.1982422,85.3774414,13.34375,85.3774414,12.3212891z M88.6000977,12.3212891v-0.0136719
		c0-0.7773438-0.5820312-1.4150391-1.3457031-1.4150391c-0.7841797,0-1.3232422,0.6376953-1.3232422,1.4003906v0.0146484
		c0,0.7773438,0.5742188,1.4072266,1.3369141,1.4072266C88.0532227,13.7148438,88.6000977,13.0849609,88.6000977,12.3212891z"/>
	<path class="st0" d="M90.3129883,13.1542969v-2.1845703H89.809082v-0.4765625h0.5039062V9.4003906h0.5390625v1.0927734h1.1484375
		v0.4765625h-1.1484375v2.1152344c0,0.4414062,0.2451172,0.6025391,0.609375,0.6025391
		c0.1816406,0,0.3359375-0.0351562,0.5253906-0.1269531v0.4628906c-0.1894531,0.0976562-0.3925781,0.1542969-0.6513672,0.1542969
		C90.7543945,14.1777344,90.3129883,13.8896484,90.3129883,13.1542969z"/>
	<path class="st0" d="M92.965332,9.1064453h0.6171875v0.5957031H92.965332V9.1064453z M93.0004883,10.4931641h0.5390625v3.6210938
		h-0.5390625V10.4931641z"/>
	<path class="st0" d="M94.5688477,12.3212891v-0.0136719c0-1.0224609,0.7988281-1.8916016,1.8554688-1.8916016
		c0.6865234,0,1.1132812,0.2871094,1.4501953,0.6445312l-0.3574219,0.3779297
		c-0.2871094-0.3007812-0.609375-0.5458984-1.0996094-0.5458984c-0.7353516,0-1.2958984,0.6230469-1.2958984,1.4003906v0.0146484
		c0,0.7841797,0.5742188,1.4072266,1.3310547,1.4072266c0.4619141,0,0.8193359-0.2304688,1.1064453-0.5390625l0.34375,0.3222656
		c-0.3652344,0.40625-0.7988281,0.7001953-1.4785156,0.7001953C95.3676758,14.1982422,94.5688477,13.3369141,94.5688477,12.3212891z
		"/>
	<path class="st0" d="M100.8891602,10.4931641h0.5390625v0.609375c0.2382812-0.3574219,0.5605469-0.6865234,1.1699219-0.6865234
		c0.5878906,0,0.9667969,0.3154297,1.1621094,0.7216797c0.2597656-0.3994141,0.6445312-0.7216797,1.2753906-0.7216797
		c0.8339844,0,1.3447266,0.5605469,1.3447266,1.4570312v2.2412109h-0.5390625v-2.1152344
		c0-0.7001953-0.3505859-1.0927734-0.9384766-1.0927734c-0.546875,0-1.0019531,0.40625-1.0019531,1.1210938v2.0869141h-0.5322266
		v-2.1289062c0-0.6796875-0.3564453-1.0791016-0.9306641-1.0791016c-0.5751953,0-1.0097656,0.4765625-1.0097656,1.1416016v2.0664062
		h-0.5390625V10.4931641z"/>
	<path class="st0" d="M107.3012695,12.3144531v-0.0146484c0-1.0429688,0.7363281-1.8837891,1.7373047-1.8837891
		c1.0712891,0,1.6884766,0.8544922,1.6884766,1.9121094c0,0.0703125,0,0.1123047-0.0078125,0.1748047h-2.8710938
		c0.0761719,0.7851562,0.6298828,1.2265625,1.2744141,1.2265625c0.4970703,0,0.8466797-0.203125,1.1416016-0.5117188
		l0.3359375,0.3007812c-0.3632812,0.40625-0.8046875,0.6796875-1.4921875,0.6796875
		C108.1137695,14.1982422,107.3012695,13.4345703,107.3012695,12.3144531z M110.1801758,12.1044922
		c-0.0566406-0.6582031-0.4335938-1.2333984-1.15625-1.2333984c-0.6298828,0-1.1054688,0.5253906-1.1757812,1.2333984H110.1801758z"
		/>
	<path class="st0" d="M111.4594727,12.3144531v-0.0146484c0-1.1835938,0.8613281-1.8837891,1.7304688-1.8837891
		c0.671875,0,1.1054688,0.3642578,1.3867188,0.7705078V9.0019531h0.5390625v5.1123047h-0.5390625v-0.7285156
		c-0.2949219,0.4345703-0.7226562,0.8056641-1.3867188,0.8056641
		C112.3208008,14.1914062,111.4594727,13.5048828,111.4594727,12.3144531z M114.5981445,12.3076172v-0.0146484
		c0-0.8330078-0.6386719-1.3935547-1.3105469-1.3935547c-0.7011719,0-1.2753906,0.5185547-1.2753906,1.3935547v0.0146484
		c0,0.8544922,0.5898438,1.4003906,1.2753906,1.4003906C113.9594727,13.7080078,114.5981445,13.140625,114.5981445,12.3076172z"/>
	<path class="st0" d="M116.3305664,9.1064453h0.6171875v0.5957031h-0.6171875V9.1064453z M116.3657227,10.4931641h0.5390625
		v3.6210938h-0.5390625V10.4931641z"/>
	<path class="st0" d="M117.934082,12.3212891v-0.0136719c0-1.0224609,0.7988281-1.8916016,1.8554688-1.8916016
		c0.6875,0,1.1132812,0.2871094,1.4492188,0.6445312l-0.3554688,0.3779297
		c-0.2871094-0.3007812-0.609375-0.5458984-1.0996094-0.5458984c-0.7363281,0-1.296875,0.6230469-1.296875,1.4003906v0.0146484
		c0,0.7841797,0.5742188,1.4072266,1.3320312,1.4072266c0.4609375,0,0.8183594-0.2304688,1.1054688-0.5390625l0.34375,0.3222656
		c-0.3652344,0.40625-0.7988281,0.7001953-1.4785156,0.7001953C118.7329102,14.1982422,117.934082,13.3369141,117.934082,12.3212891
		z"/>
	<path class="st0" d="M121.8813477,13.0634766v-0.0136719c0-0.7636719,0.6308594-1.1699219,1.5488281-1.1699219
		c0.4609375,0,0.7910156,0.0634766,1.1132812,0.1542969v-0.1259766c0-0.6513672-0.3984375-0.9873047-1.078125-0.9873047
		c-0.4277344,0-0.7636719,0.1113281-1.0996094,0.265625l-0.1621094-0.4414062
		c0.4003906-0.1816406,0.7910156-0.3007812,1.3164062-0.3007812c0.5117188,0,0.9042969,0.1328125,1.1699219,0.3994141
		c0.2460938,0.2451172,0.3710938,0.5947266,0.3710938,1.0576172v2.2128906h-0.5175781v-0.5458984
		c-0.2519531,0.3291016-0.671875,0.6230469-1.3105469,0.6230469
		C122.5610352,14.1914062,121.8813477,13.8056641,121.8813477,13.0634766z M124.5512695,12.7832031v-0.3496094
		c-0.2675781-0.0771484-0.625-0.1542969-1.0664062-0.1542969c-0.6777344,0-1.0566406,0.2939453-1.0566406,0.7490234v0.0146484
		c0,0.4550781,0.4199219,0.7207031,0.9101562,0.7207031C124.0043945,13.7636719,124.5512695,13.3574219,124.5512695,12.7832031z"/>
	<path class="st0" d="M126.3618164,13.1542969v-2.1845703h-0.5039062v-0.4765625h0.5039062V9.4003906h0.5410156v1.0927734h1.1484375
		v0.4765625h-1.1484375v2.1152344c0,0.4414062,0.2441406,0.6025391,0.609375,0.6025391
		c0.1816406,0,0.3359375-0.0351562,0.5234375-0.1269531v0.4628906c-0.1875,0.0976562-0.390625,0.1542969-0.6503906,0.1542969
		C126.8032227,14.1777344,126.3618164,13.8896484,126.3618164,13.1542969z"/>
	<path class="st0" d="M129.0161133,9.1064453h0.6152344v0.5957031h-0.6152344V9.1064453z M129.0512695,10.4931641h0.5390625
		v3.6210938h-0.5390625V10.4931641z"/>
	<path class="st0" d="M130.6176758,12.3212891v-0.0136719c0-1.0224609,0.7988281-1.8916016,1.8925781-1.8916016
		c1.0839844,0,1.8828125,0.8544922,1.8828125,1.8769531v0.0146484c0,1.0224609-0.8046875,1.890625-1.8984375,1.890625
		C131.4106445,14.1982422,130.6176758,13.34375,130.6176758,12.3212891z M133.840332,12.3212891v-0.0136719
		c0-0.7773438-0.5820312-1.4150391-1.3457031-1.4150391c-0.7832031,0-1.3222656,0.6376953-1.3222656,1.4003906v0.0146484
		c0,0.7773438,0.5742188,1.4072266,1.3378906,1.4072266C133.293457,13.7148438,133.840332,13.0849609,133.840332,12.3212891z"/>
	<path class="st0" d="M135.3637695,10.4931641h0.5390625v0.6308594c0.2382812-0.3925781,0.6171875-0.7080078,1.2402344-0.7080078
		c0.875,0,1.3867188,0.5888672,1.3867188,1.4501953v2.2480469h-0.5390625v-2.1152344
		c0-0.671875-0.3652344-1.0927734-1.0019531-1.0927734c-0.6230469,0-1.0859375,0.4550781-1.0859375,1.1347656v2.0732422h-0.5390625
		V10.4931641z"/>
	<path class="st0" d="M139.3754883,13.6523438l0.2734375-0.3857422c0.3925781,0.2939453,0.8261719,0.4628906,1.2539062,0.4628906
		c0.4335938,0,0.7480469-0.2246094,0.7480469-0.5751953V13.140625c0-0.3642578-0.4257812-0.5039062-0.9023438-0.6376953
		c-0.5683594-0.1601562-1.1972656-0.3564453-1.1972656-1.0224609v-0.0136719c0-0.6230469,0.5175781-1.0361328,1.2324219-1.0361328
		c0.4414062,0,0.9316406,0.1533203,1.3027344,0.3984375l-0.2460938,0.40625
		c-0.3359375-0.2167969-0.7207031-0.3496094-1.0703125-0.3496094c-0.4277344,0-0.7011719,0.2236328-0.7011719,0.5253906v0.0136719
		c0,0.3427734,0.4472656,0.4765625,0.9316406,0.6230469c0.5605469,0.1679688,1.1621094,0.3857422,1.1621094,1.0371094v0.0136719
		c0,0.6865234-0.5664062,1.0859375-1.2890625,1.0859375C140.355957,14.1845703,139.7817383,13.9814453,139.3754883,13.6523438z"/>
	<path class="st0" d="M143.0922852,13.3789062h0.6445312v0.7353516h-0.6445312V13.3789062z"/>
</g>
</svg>
