<?xml version="1.0" encoding="utf-8"?>
<!-- Generator: Adobe Illustrator 26.3.1, SVG Export Plug-In . SVG Version: 6.00 Build 0)  -->
<svg version="1.1" id="Layer_1" xmlns="http://www.w3.org/2000/svg" xmlns:xlink="http://www.w3.org/1999/xlink" x="0px" y="0px"
	 viewBox="0 0 163.8466797 42.2900391" style="enable-background:new 0 0 163.8466797 42.2900391;" xml:space="preserve">
<style type="text/css">
	.st0{fill:#FFFFFF;}
</style>
<g>
	<path class="st0" d="M76.8393555,36.2421875h0.5605469l1.7861328,2.6757812l1.7851562-2.6757812h0.5605469v4.9023438h-0.5527344
		v-3.9707031l-1.7861328,2.6269531h-0.0283203l-1.7861328-2.6191406v3.9628906h-0.5390625V36.2421875z"/>
	<path class="st0" d="M82.5512695,40.09375v-0.0136719c0-0.7636719,0.6308594-1.1699219,1.5478516-1.1699219
		c0.4619141,0,0.7910156,0.0644531,1.1132812,0.1542969v-0.125c0-0.6523438-0.3984375-0.9882812-1.078125-0.9882812
		c-0.4277344,0-0.7636719,0.1113281-1.0996094,0.265625l-0.1611328-0.4414062
		c0.3994141-0.1816406,0.7910156-0.3007812,1.3164062-0.3007812c0.5117188,0,0.9033203,0.1328125,1.1699219,0.4003906
		c0.2446289,0.2441406,0.371582,0.59375,0.371582,1.0566406v2.2128906h-0.519043v-0.5449219
		c-0.2519531,0.328125-0.671875,0.6230469-1.3095703,0.6230469C83.230957,41.2226562,82.5512695,40.8359375,82.5512695,40.09375z
		 M85.2202148,39.8144531v-0.3496094c-0.2666016-0.078125-0.6240234-0.1542969-1.0654297-0.1542969
		c-0.6787109,0-1.0576172,0.2929688-1.0576172,0.7480469v0.015625c0,0.4550781,0.4208984,0.7207031,0.9111328,0.7207031
		C84.6733398,40.7949219,85.2202148,40.3886719,85.2202148,39.8144531z"/>
	<path class="st0" d="M89.4541016,37.5234375h0.5742188l-1.5195312,3.7402344
		c-0.3066406,0.75-0.6582031,1.0234375-1.203125,1.0234375c-0.3027344,0-0.5253906-0.0644531-0.7714844-0.1816406
		l0.1816406-0.4277344c0.1757812,0.0898438,0.3359375,0.1328125,0.5683594,0.1328125
		c0.3222656,0,0.5253906-0.1679688,0.7421875-0.6796875l-1.6464844-3.6074219h0.5957031l1.3164062,3.0195312L89.4541016,37.5234375z
		"/>
	<path class="st0" d="M92.7138672,40.71875l1.7792969-1.5703125c0.75-0.671875,1.0234375-1.0507812,1.0234375-1.5410156
		c0-0.5742188-0.4550781-0.9375-0.9882812-0.9375c-0.5605469,0-0.9238281,0.2929688-1.3164062,0.8398438l-0.40625-0.2929688
		c0.4414062-0.6601562,0.9042969-1.0449219,1.765625-1.0449219c0.8808594,0,1.5195312,0.5878906,1.5195312,1.3867188v0.0136719
		c0,0.7148438-0.3789062,1.15625-1.2402344,1.90625l-1.3085938,1.1621094h2.5976562v0.5039062h-3.4257812V40.71875z"/>
	<path class="st0" d="M97.0068359,38.7070312v-0.0136719c0-1.3730469,0.8183594-2.5351562,2.0800781-2.5351562
		c1.2597656,0,2.0585938,1.1484375,2.0585938,2.5214844v0.0136719c0,1.3730469-0.8125,2.5351562-2.0742188,2.5351562
		C97.8037109,41.2285156,97.0068359,40.0800781,97.0068359,38.7070312z M100.5712891,38.7070312v-0.0136719
		c0-1.0703125-0.5878906-2.03125-1.5-2.03125c-0.9160156,0-1.4902344,0.9394531-1.4902344,2.0175781v0.0136719
		c0,1.0722656,0.5878906,2.03125,1.5058594,2.03125C100.0029297,40.7246094,100.5712891,39.7792969,100.5712891,38.7070312z"/>
	<path class="st0" d="M101.8427734,40.71875l1.7792969-1.5703125c0.7480469-0.671875,1.0214844-1.0507812,1.0214844-1.5410156
		c0-0.5742188-0.4550781-0.9375-0.9863281-0.9375c-0.5605469,0-0.9257812,0.2929688-1.3183594,0.8398438l-0.40625-0.2929688
		c0.4414062-0.6601562,0.9042969-1.0449219,1.765625-1.0449219c0.8828125,0,1.5195312,0.5878906,1.5195312,1.3867188v0.0136719
		c0,0.7148438-0.3769531,1.15625-1.2382812,1.90625l-1.3105469,1.1621094h2.5976562v0.5039062h-3.4238281V40.71875z"/>
	<path class="st0" d="M106.0361328,40.71875l1.7792969-1.5703125c0.7480469-0.671875,1.0214844-1.0507812,1.0214844-1.5410156
		c0-0.5742188-0.4550781-0.9375-0.9863281-0.9375c-0.5605469,0-0.9257812,0.2929688-1.3183594,0.8398438l-0.40625-0.2929688
		c0.4414062-0.6601562,0.9042969-1.0449219,1.765625-1.0449219c0.8828125,0,1.5195312,0.5878906,1.5195312,1.3867188v0.0136719
		c0,0.7148438-0.3769531,1.15625-1.2382812,1.90625l-1.3105469,1.1621094h2.5976562v0.5039062h-3.4238281V40.71875z"/>
	<path class="st0" d="M112.7353516,36.2421875h0.5527344v4.9023438h-0.5527344V36.2421875z"/>
	<path class="st0" d="M114.7236328,36.2421875h0.5527344v2.1777344h2.8300781v-2.1777344h0.5527344v4.9023438h-0.5527344v-2.2050781
		h-2.8300781v2.2050781h-0.5527344V36.2421875z"/>
	<path class="st0" d="M124.5107422,41.2929688l-0.6503906-0.5820312c-0.4140625,0.3222656-0.9394531,0.5175781-1.5410156,0.5175781
		c-1.4921875,0-2.4941406-1.1699219-2.4941406-2.5214844v-0.0136719c0-1.3515625,1.015625-2.5351562,2.5078125-2.5351562
		s2.4921875,1.1699219,2.4921875,2.5214844v0.0136719c0,0.609375-0.2167969,1.1914062-0.5800781,1.6386719l0.6445312,0.546875
		L124.5107422,41.2929688z M123.4677734,40.3535156l-0.9179688-0.7851562l0.3710938-0.4121094l0.9179688,0.8339844
		c0.265625-0.3515625,0.4121094-0.7929688,0.4121094-1.2832031v-0.0136719c0-1.1132812-0.8125-2.0234375-1.9316406-2.0234375
		c-1.1210938,0-1.9199219,0.8964844-1.9199219,2.0097656v0.0136719c0,1.1132812,0.8125,2.0253906,1.9335938,2.0253906
		C122.7666016,40.71875,123.1591797,40.5839844,123.4677734,40.3535156z"/>
	<path class="st0" d="M125.7548828,38.7558594h1.9472656v0.5683594h-1.9472656V38.7558594z"/>
	<path class="st0" d="M128.8486328,36.2421875h3.5449219v0.5039062h-2.9902344v1.6738281h2.6738281v0.5058594h-2.6738281v1.7148438
		h3.0253906v0.5039062h-3.5800781V36.2421875z"/>
	<path class="st0" d="M133.5380859,36.2421875h1.8359375c1.1054688,0,1.8339844,0.5878906,1.8339844,1.5546875v0.0136719
		c0,1.0585938-0.8828125,1.6054688-1.9257812,1.6054688h-1.1894531v1.7285156h-0.5546875V36.2421875z M135.3037109,38.9101562
		c0.8125,0,1.34375-0.4335938,1.34375-1.078125v-0.0136719c0-0.7011719-0.5253906-1.0644531-1.3164062-1.0644531h-1.2382812v2.15625
		H135.3037109z"/>
	<path class="st0" d="M137.9970703,38.7070312v-0.0136719c0-1.3867188,1.0371094-2.5351562,2.4804688-2.5351562
		c0.8886719,0,1.4199219,0.3144531,1.9101562,0.7773438l-0.3769531,0.40625c-0.4140625-0.3925781-0.875-0.671875-1.5410156-0.671875
		c-1.0859375,0-1.8984375,0.8828125-1.8984375,2.0097656v0.0136719c0,1.1347656,0.8203125,2.0253906,1.8984375,2.0253906
		c0.671875,0,1.1132812-0.2597656,1.5820312-0.7089844l0.3652344,0.3574219
		c-0.5117188,0.5195312-1.0722656,0.8613281-1.9609375,0.8613281
		C139.0400391,41.2285156,137.9970703,40.1152344,137.9970703,38.7070312z"/>
	<path class="st0" d="M143.1005859,38.7558594h1.9472656v0.5683594h-1.9472656V38.7558594z"/>
	<path class="st0" d="M145.9365234,38.7070312v-0.0136719c0-1.3730469,0.8183594-2.5351562,2.0800781-2.5351562
		c1.2597656,0,2.0585938,1.1484375,2.0585938,2.5214844v0.0136719c0,1.3730469-0.8125,2.5351562-2.0742188,2.5351562
		C146.7333984,41.2285156,145.9365234,40.0800781,145.9365234,38.7070312z M149.5009766,38.7070312v-0.0136719
		c0-1.0703125-0.5878906-2.03125-1.5-2.03125c-0.9160156,0-1.4902344,0.9394531-1.4902344,2.0175781v0.0136719
		c0,1.0722656,0.5878906,2.03125,1.5058594,2.03125C148.9326172,40.7246094,149.5009766,39.7792969,149.5009766,38.7070312z"/>
	<path class="st0" d="M150.9404297,38.7070312v-0.0136719c0-1.3730469,0.8203125-2.5351562,2.0800781-2.5351562
		c1.2617188,0,2.0585938,1.1484375,2.0585938,2.5214844v0.0136719c0,1.3730469-0.8125,2.5351562-2.0722656,2.5351562
		C151.7392578,41.2285156,150.9404297,40.0800781,150.9404297,38.7070312z M154.5048828,38.7070312v-0.0136719
		c0-1.0703125-0.5878906-2.03125-1.4980469-2.03125c-0.9179688,0-1.4921875,0.9394531-1.4921875,2.0175781v0.0136719
		c0,1.0722656,0.5878906,2.03125,1.5058594,2.03125S154.5048828,39.7792969,154.5048828,38.7070312z"/>
	<path class="st0" d="M155.8818359,40.4511719l0.3652344-0.3984375c0.4277344,0.4121094,0.8964844,0.671875,1.3925781,0.671875
		c0.7011719,0,1.1835938-0.4628906,1.1835938-1.0859375V39.625c0-0.609375-0.5039062-1.0292969-1.21875-1.0292969
		c-0.4121094,0-0.7421875,0.1269531-1.0292969,0.2792969l-0.3710938-0.2441406l0.140625-2.3886719h2.8222656v0.5117188h-2.3398438
		l-0.1035156,1.5683594c0.2871094-0.125,0.5585938-0.2167969,0.9648438-0.2167969
		c0.953125,0,1.6953125,0.5664062,1.6953125,1.4980469v0.015625c0,0.9589844-0.7285156,1.609375-1.75,1.609375
		C156.9326172,41.2285156,156.3232422,40.8925781,155.8818359,40.4511719z"/>
	<path class="st0" d="M160.0615234,40.71875l1.7792969-1.5703125c0.7480469-0.671875,1.0214844-1.0507812,1.0214844-1.5410156
		c0-0.5742188-0.4550781-0.9375-0.9863281-0.9375c-0.5605469,0-0.9257812,0.2929688-1.3183594,0.8398438l-0.40625-0.2929688
		c0.4414062-0.6601562,0.9042969-1.0449219,1.765625-1.0449219c0.8828125,0,1.5195312,0.5878906,1.5195312,1.3867188v0.0136719
		c0,0.7148438-0.3769531,1.15625-1.2382812,1.90625l-1.3105469,1.1621094h2.5976562v0.5039062h-3.4238281V40.71875z"/>
</g>
</svg>
