<?xml version="1.0" encoding="utf-8"?>
<!-- Generator: Adobe Illustrator 26.3.1, SVG Export Plug-In . SVG Version: 6.00 Build 0)  -->
<svg version="1.1" id="Layer_1" xmlns="http://www.w3.org/2000/svg" xmlns:xlink="http://www.w3.org/1999/xlink" x="0px" y="0px"
	 viewBox="0 0 164.5878906 39.6621094" style="enable-background:new 0 0 164.5878906 39.6621094;" xml:space="preserve">
<style type="text/css">
	.st0{fill:#FFFFFF;}
</style>
<g>
	<path class="st0" d="M0.6933594,1.0478516h3.5439453v0.5039062H1.2460938v1.6738281H3.921875v0.5048828H1.2460938v1.7158203
		h3.0263672v0.5039062H0.6933594V1.0478516z"/>
	<path class="st0" d="M5.3828125,1.0478516h1.8349609c1.1064453,0,1.8349609,0.5878906,1.8349609,1.5546875v0.0136719
		c0,1.0576172-0.8818359,1.6044922-1.9257812,1.6044922H5.9365234v1.7294922H5.3828125V1.0478516z M7.1484375,3.7158203
		c0.8125,0,1.3447266-0.4335938,1.3447266-1.078125V2.6230469c0-0.7001953-0.5253906-1.0644531-1.3173828-1.0644531H5.9365234
		v2.1572266H7.1484375z"/>
	<path class="st0" d="M9.8417969,3.5126953V3.4990234c0-1.3867188,1.0371094-2.5351562,2.4794922-2.5351562
		c0.8896484,0,1.421875,0.3144531,1.9121094,0.7773438l-0.3779297,0.40625
		c-0.4130859-0.3925781-0.8759766-0.6728516-1.5410156-0.6728516c-1.0859375,0-1.8974609,0.8828125-1.8974609,2.0107422v0.0136719
		c0,1.1347656,0.8193359,2.0244141,1.8974609,2.0244141c0.6728516,0,1.1132812-0.2597656,1.5830078-0.7080078l0.3642578,0.3574219
		C13.75,5.6914062,13.1904297,6.0341797,12.3007812,6.0341797C10.8857422,6.0341797,9.8417969,4.9208984,9.8417969,3.5126953z"/>
	<path class="st0" d="M15.2529297,1.0478516h0.5537109v4.390625h2.7597656v0.5117188h-3.3134766V1.0478516z"/>
	<path class="st0" d="M19.3759766,3.8984375V1.0478516h0.5527344v2.8154297c0,1.0576172,0.5605469,1.6523438,1.4990234,1.6523438
		c0.9033203,0,1.4785156-0.5458984,1.4785156-1.6171875V1.0478516h0.5527344v2.8085938
		c0,1.4287109-0.8193359,2.1708984-2.0449219,2.1708984C20.2021484,6.0273438,19.3759766,5.2851562,19.3759766,3.8984375z"/>
	<path class="st0" d="M24.4433594,5.2353516l0.34375-0.40625c0.5107422,0.4628906,1.0009766,0.6943359,1.6806641,0.6943359
		c0.6582031,0,1.0927734-0.3505859,1.0927734-0.8339844V4.6757812c0-0.4550781-0.2451172-0.7148438-1.2744141-0.9316406
		c-1.1279297-0.2451172-1.6464844-0.609375-1.6464844-1.4150391V2.3154297c0-0.7705078,0.6796875-1.3378906,1.6113281-1.3378906
		c0.7138672,0,1.2255859,0.203125,1.7226562,0.6025391l-0.3222656,0.4267578
		c-0.4550781-0.3710938-0.9101562-0.5322266-1.4150391-0.5322266c-0.6367188,0-1.0429688,0.3505859-1.0429688,0.7919922v0.0136719
		c0,0.4619141,0.2519531,0.7216797,1.3300781,0.9521484c1.0927734,0.2382812,1.5976562,0.6376953,1.5976562,1.3867188v0.0146484
		c0,0.8398438-0.7011719,1.3867188-1.6738281,1.3867188C25.6689453,6.0205078,25.0322266,5.7607422,24.4433594,5.2353516z"/>
	<path class="st0" d="M30.9550781,1.0126953h0.5185547l2.2333984,4.9375h-0.5947266l-0.5742188-1.2958984h-2.6689453
		l-0.5810547,1.2958984h-0.5673828L30.9550781,1.0126953z M32.3203125,4.1572266l-1.1132812-2.5l-1.1210938,2.5H32.3203125z"/>
	<path class="st0" d="M36.6933594,0.9423828h0.6171875v0.5957031h-0.6171875V0.9423828z M36.7285156,2.3291016h0.5390625v3.6210938
		h-0.5390625V2.3291016z"/>
	<path class="st0" d="M38.2197266,5.4882812l0.2724609-0.3857422c0.3925781,0.2939453,0.8271484,0.4628906,1.2539062,0.4628906
		c0.4345703,0,0.75-0.2246094,0.75-0.5751953V4.9765625c0-0.3642578-0.4277344-0.5039062-0.9042969-0.6376953
		c-0.5673828-0.1601562-1.1972656-0.3564453-1.1972656-1.0224609V3.3027344c0-0.6230469,0.5185547-1.0361328,1.2324219-1.0361328
		c0.4414062,0,0.9316406,0.1533203,1.3027344,0.3984375l-0.2451172,0.40625
		c-0.3359375-0.2167969-0.7216797-0.3496094-1.0712891-0.3496094c-0.4277344,0-0.7001953,0.2236328-0.7001953,0.5253906v0.0136719
		c0,0.3427734,0.4482422,0.4765625,0.9316406,0.6230469c0.5595703,0.1679688,1.1621094,0.3857422,1.1621094,1.0371094v0.0136719
		c0,0.6865234-0.5673828,1.0859375-1.2890625,1.0859375C39.2001953,6.0205078,38.6259766,5.8173828,38.2197266,5.4882812z"/>
	<path class="st0" d="M44.1201172,0.9423828h0.6171875v0.5957031h-0.6171875V0.9423828z M44.1552734,2.3291016h0.5390625v3.6210938
		h-0.5390625V2.3291016z"/>
	<path class="st0" d="M45.9472656,2.3291016h0.5390625v0.6308594c0.2382812-0.3925781,0.6162109-0.7080078,1.2402344-0.7080078
		c0.875,0,1.3867188,0.5888672,1.3867188,1.4501953v2.2480469h-0.5400391V3.8349609
		c0-0.671875-0.3632812-1.0927734-1.0009766-1.0927734c-0.6230469,0-1.0859375,0.4550781-1.0859375,1.1347656v2.0732422h-0.5390625
		V2.3291016z"/>
	<path class="st0" d="M50.0488281,4.1503906V4.1357422c0-1.1835938,0.8623047-1.8837891,1.7304688-1.8837891
		c0.671875,0,1.1064453,0.3642578,1.3867188,0.7705078V0.8378906h0.5390625v5.1123047h-0.5390625V5.2216797
		c-0.2939453,0.4345703-0.7216797,0.8056641-1.3867188,0.8056641C50.9111328,6.0273438,50.0488281,5.3408203,50.0488281,4.1503906z
		 M53.1865234,4.1435547V4.1289062c0-0.8330078-0.6367188-1.3935547-1.3095703-1.3935547
		c-0.7001953,0-1.2744141,0.5185547-1.2744141,1.3935547v0.0146484c0,0.8544922,0.5878906,1.4003906,1.2744141,1.4003906
		C52.5498047,5.5439453,53.1865234,4.9765625,53.1865234,4.1435547z"/>
	<path class="st0" d="M54.9208984,0.9423828h0.6171875v0.5957031h-0.6171875V0.9423828z M54.9560547,2.3291016h0.5390625v3.6210938
		h-0.5390625V2.3291016z"/>
	<path class="st0" d="M56.5244141,4.1572266V4.1435547c0-1.0224609,0.7978516-1.8916016,1.8554688-1.8916016
		c0.6865234,0,1.1132812,0.2871094,1.4501953,0.6445312l-0.3574219,0.3779297
		c-0.2871094-0.3007812-0.609375-0.5458984-1.0996094-0.5458984c-0.7353516,0-1.2958984,0.6230469-1.2958984,1.4003906v0.0146484
		c0,0.7841797,0.5742188,1.4072266,1.3310547,1.4072266c0.4619141,0,0.8193359-0.2304688,1.1064453-0.5390625l0.3427734,0.3222656
		c-0.3642578,0.40625-0.7978516,0.7001953-1.4775391,0.7001953C57.3222656,6.0341797,56.5244141,5.1728516,56.5244141,4.1572266z"/>
	<path class="st0" d="M60.4716797,4.8994141V4.8857422c0-0.7636719,0.6308594-1.1699219,1.5478516-1.1699219
		c0.4628906,0,0.7919922,0.0634766,1.1142578,0.1542969V3.7441406c0-0.6513672-0.3994141-0.9873047-1.0791016-0.9873047
		c-0.4267578,0-0.7636719,0.1113281-1.0996094,0.265625l-0.1611328-0.4414062
		c0.3994141-0.1816406,0.7919922-0.3007812,1.3173828-0.3007812c0.5107422,0,0.9033203,0.1328125,1.1689453,0.3994141
		c0.2451172,0.2451172,0.3710938,0.5947266,0.3710938,1.0576172v2.2128906h-0.5175781V5.4042969
		c-0.2529297,0.3291016-0.6728516,0.6230469-1.3095703,0.6230469C61.1513672,6.0273438,60.4716797,5.6416016,60.4716797,4.8994141z
		 M63.140625,4.6191406V4.2695312c-0.2666016-0.0771484-0.6230469-0.1542969-1.0644531-0.1542969
		c-0.6796875,0-1.0576172,0.2939453-1.0576172,0.7490234v0.0146484c0,0.4550781,0.4199219,0.7207031,0.9101562,0.7207031
		C62.59375,5.5996094,63.140625,5.1933594,63.140625,4.6191406z"/>
	<path class="st0" d="M64.9521484,4.9902344V2.8056641h-0.5039062V2.3291016h0.5039062V1.2363281h0.5390625v1.0927734h1.1494141
		v0.4765625h-1.1494141v2.1152344c0,0.4414062,0.2451172,0.6025391,0.609375,0.6025391
		c0.1826172,0,0.3369141-0.0351562,0.5253906-0.1269531V5.859375C66.4375,5.9570312,66.234375,6.0136719,65.9746094,6.0136719
		C65.3935547,6.0136719,64.9521484,5.7255859,64.9521484,4.9902344z"/>
	<path class="st0" d="M67.2695312,4.1503906V4.1357422c0-1.0429688,0.7353516-1.8837891,1.7363281-1.8837891
		c1.0712891,0,1.6884766,0.8544922,1.6884766,1.9121094c0,0.0703125,0,0.1123047-0.0078125,0.1748047h-2.8710938
		c0.0771484,0.7851562,0.6298828,1.2265625,1.2744141,1.2265625c0.4970703,0,0.8476562-0.203125,1.1416016-0.5117188
		l0.3359375,0.3007812c-0.3632812,0.40625-0.8046875,0.6796875-1.4912109,0.6796875
		C68.0810547,6.0341797,67.2695312,5.2705078,67.2695312,4.1503906z M70.1474609,3.9404297
		c-0.0556641-0.6582031-0.4335938-1.2333984-1.1552734-1.2333984c-0.6308594,0-1.1064453,0.5253906-1.1767578,1.2333984H70.1474609z
		"/>
	<path class="st0" d="M71.4267578,4.1503906V4.1357422c0-1.1835938,0.8613281-1.8837891,1.7294922-1.8837891
		c0.6728516,0,1.1064453,0.3642578,1.3867188,0.7705078V0.8378906h0.5400391v5.1123047h-0.5400391V5.2216797
		C74.2490234,5.65625,73.8222656,6.0273438,73.15625,6.0273438C72.2880859,6.0273438,71.4267578,5.3408203,71.4267578,4.1503906z
		 M74.5644531,4.1435547V4.1289062c0-0.8330078-0.6376953-1.3935547-1.3095703-1.3935547
		c-0.7001953,0-1.2753906,0.5185547-1.2753906,1.3935547v0.0146484c0,0.8544922,0.5888672,1.4003906,1.2753906,1.4003906
		C73.9267578,5.5439453,74.5644531,4.9765625,74.5644531,4.1435547z"/>
	<path class="st0" d="M78.5878906,2.8056641h-0.4970703V2.3359375h0.4970703V2.0214844
		c0-0.4140625,0.1123047-0.7285156,0.3154297-0.9316406c0.1816406-0.1826172,0.4482422-0.2802734,0.7773438-0.2802734
		c0.2519531,0,0.4199219,0.0283203,0.5947266,0.0908203v0.4697266c-0.1953125-0.0566406-0.3427734-0.0917969-0.5244141-0.0917969
		c-0.4208984,0-0.6308594,0.2529297-0.6308594,0.7705078v0.2939453h1.1484375v0.4628906h-1.1416016v3.1445312h-0.5390625V2.8056641z
		"/>
	<path class="st0" d="M80.6601562,4.1572266V4.1435547c0-1.0224609,0.7978516-1.8916016,1.890625-1.8916016
		c1.0859375,0,1.8837891,0.8544922,1.8837891,1.8769531v0.0146484c0,1.0224609-0.8056641,1.890625-1.8974609,1.890625
		C81.4511719,6.0341797,80.6601562,5.1796875,80.6601562,4.1572266z M83.8818359,4.1572266V4.1435547
		c0-0.7773438-0.5820312-1.4150391-1.3447266-1.4150391c-0.7851562,0-1.3242188,0.6376953-1.3242188,1.4003906v0.0146484
		c0,0.7773438,0.5742188,1.4072266,1.3378906,1.4072266C83.3349609,5.5507812,83.8818359,4.9208984,83.8818359,4.1572266z"/>
	<path class="st0" d="M85.40625,2.3291016h0.5390625v0.9453125c0.265625-0.6015625,0.7910156-1.0361328,1.4775391-1.0078125
		v0.5810547h-0.0419922c-0.7910156,0-1.4355469,0.5673828-1.4355469,1.6601562v1.4423828H85.40625V2.3291016z"/>
	<path class="st0" d="M90.5292969,4.9902344V2.8056641h-0.5039062V2.3291016h0.5039062V1.2363281h0.5390625v1.0927734h1.1494141
		v0.4765625h-1.1494141v2.1152344c0,0.4414062,0.2451172,0.6025391,0.609375,0.6025391
		c0.1826172,0,0.3369141-0.0351562,0.5253906-0.1269531V5.859375c-0.1884766,0.0976562-0.3916016,0.1542969-0.6513672,0.1542969
		C90.9707031,6.0136719,90.5292969,5.7255859,90.5292969,4.9902344z"/>
	<path class="st0" d="M93.1689453,0.8378906h0.5390625v2.1220703c0.2382812-0.3925781,0.6162109-0.7080078,1.2392578-0.7080078
		c0.8759766,0,1.3867188,0.5888672,1.3867188,1.4501953v2.2480469h-0.5390625V3.8349609
		c0-0.671875-0.3642578-1.0927734-1.0019531-1.0927734c-0.6230469,0-1.0849609,0.4550781-1.0849609,1.1347656v2.0732422h-0.5390625
		V0.8378906z"/>
	<path class="st0" d="M97.2568359,4.1503906V4.1357422c0-1.0429688,0.7353516-1.8837891,1.7363281-1.8837891
		c1.0712891,0,1.6884766,0.8544922,1.6884766,1.9121094c0,0.0703125,0,0.1123047-0.0078125,0.1748047h-2.8710938
		c0.0771484,0.7851562,0.6298828,1.2265625,1.2744141,1.2265625c0.4970703,0,0.8476562-0.203125,1.1416016-0.5117188
		l0.3359375,0.3007812c-0.3632812,0.40625-0.8046875,0.6796875-1.4912109,0.6796875
		C98.0683594,6.0341797,97.2568359,5.2705078,97.2568359,4.1503906z M100.1347656,3.9404297
		c-0.0556641-0.6582031-0.4335938-1.2333984-1.1552734-1.2333984c-0.6308594,0-1.1064453,0.5253906-1.1767578,1.2333984H100.1347656
		z"/>
	<path class="st0" d="M103.9130859,4.9902344V2.8056641h-0.5039062V2.3291016h0.5039062V1.2363281h0.5390625v1.0927734h1.1494141
		v0.4765625h-1.1494141v2.1152344c0,0.4414062,0.2451172,0.6025391,0.609375,0.6025391
		c0.1826172,0,0.3369141-0.0351562,0.5253906-0.1269531V5.859375c-0.1884766,0.0976562-0.3916016,0.1542969-0.6513672,0.1542969
		C104.3544922,6.0136719,103.9130859,5.7255859,103.9130859,4.9902344z"/>
	<path class="st0" d="M106.5527344,2.3291016h0.5390625v0.9453125c0.265625-0.6015625,0.7910156-1.0361328,1.4775391-1.0078125
		v0.5810547h-0.0419922c-0.7910156,0-1.4355469,0.5673828-1.4355469,1.6601562v1.4423828h-0.5390625V2.3291016z"/>
	<path class="st0" d="M109.0097656,4.1503906V4.1357422c0-1.0429688,0.7353516-1.8837891,1.7363281-1.8837891
		c1.0712891,0,1.6884766,0.8544922,1.6884766,1.9121094c0,0.0703125,0,0.1123047-0.0078125,0.1748047h-2.8710938
		c0.0771484,0.7851562,0.6298828,1.2265625,1.2744141,1.2265625c0.4970703,0,0.8476562-0.203125,1.1416016-0.5117188
		l0.3359375,0.3007812c-0.3632812,0.40625-0.8046875,0.6796875-1.4912109,0.6796875
		C109.8212891,6.0341797,109.0097656,5.2705078,109.0097656,4.1503906z M111.8876953,3.9404297
		c-0.0556641-0.6582031-0.4335938-1.2333984-1.1552734-1.2333984c-0.6308594,0-1.1064453,0.5253906-1.1767578,1.2333984H111.8876953
		z"/>
	<path class="st0" d="M113.1044922,4.8994141V4.8857422c0-0.7636719,0.6298828-1.1699219,1.5478516-1.1699219
		c0.4619141,0,0.7910156,0.0634766,1.1132812,0.1542969V3.7441406c0-0.6513672-0.3994141-0.9873047-1.078125-0.9873047
		c-0.4277344,0-0.7636719,0.1113281-1.0996094,0.265625l-0.1611328-0.4414062
		c0.3994141-0.1816406,0.7910156-0.3007812,1.3164062-0.3007812c0.5117188,0,0.9033203,0.1328125,1.1699219,0.3994141
		c0.2451172,0.2451172,0.3710938,0.5947266,0.3710938,1.0576172v2.2128906h-0.5185547V5.4042969
		c-0.2519531,0.3291016-0.671875,0.6230469-1.3095703,0.6230469C113.7841797,6.0273438,113.1044922,5.6416016,113.1044922,4.8994141
		z M115.7724609,4.6191406V4.2695312c-0.265625-0.0771484-0.6230469-0.1542969-1.0644531-0.1542969
		c-0.6787109,0-1.0576172,0.2939453-1.0576172,0.7490234v0.0146484c0,0.4550781,0.4208984,0.7207031,0.9111328,0.7207031
		C115.2265625,5.5996094,115.7724609,5.1933594,115.7724609,4.6191406z"/>
	<path class="st0" d="M117.5839844,4.9902344V2.8056641h-0.5039062V2.3291016h0.5039062V1.2363281h0.5390625v1.0927734h1.1494141
		v0.4765625h-1.1494141v2.1152344c0,0.4414062,0.2451172,0.6025391,0.609375,0.6025391
		c0.1826172,0,0.3369141-0.0351562,0.5253906-0.1269531V5.859375c-0.1884766,0.0976562-0.3916016,0.1542969-0.6513672,0.1542969
		C118.0253906,6.0136719,117.5839844,5.7255859,117.5839844,4.9902344z"/>
	<path class="st0" d="M120.2236328,2.3291016h0.5390625v0.609375c0.2382812-0.3574219,0.5605469-0.6865234,1.1689453-0.6865234
		c0.5888672,0,0.9667969,0.3154297,1.1630859,0.7216797c0.2587891-0.3994141,0.6445312-0.7216797,1.2744141-0.7216797
		c0.8339844,0,1.3447266,0.5605469,1.3447266,1.4570312v2.2412109h-0.5390625V3.8349609
		c0-0.7001953-0.3505859-1.0927734-0.9384766-1.0927734c-0.5458984,0-1.0019531,0.40625-1.0019531,1.1210938v2.0869141h-0.5322266
		V3.8212891c0-0.6796875-0.3564453-1.0791016-0.9306641-1.0791016c-0.5751953,0-1.0087891,0.4765625-1.0087891,1.1416016v2.0664062
		h-0.5390625V2.3291016z"/>
	<path class="st0" d="M126.6357422,4.1503906V4.1357422c0-1.0429688,0.7353516-1.8837891,1.7363281-1.8837891
		c1.0712891,0,1.6884766,0.8544922,1.6884766,1.9121094c0,0.0703125,0,0.1123047-0.0078125,0.1748047h-2.8710938
		c0.0771484,0.7851562,0.6298828,1.2265625,1.2744141,1.2265625c0.4970703,0,0.8476562-0.203125,1.1416016-0.5117188
		l0.3359375,0.3007812c-0.3632812,0.40625-0.8046875,0.6796875-1.4912109,0.6796875
		C127.4472656,6.0341797,126.6357422,5.2705078,126.6357422,4.1503906z M129.5136719,3.9404297
		c-0.0556641-0.6582031-0.4335938-1.2333984-1.1552734-1.2333984c-0.6308594,0-1.1064453,0.5253906-1.1767578,1.2333984H129.5136719
		z"/>
	<path class="st0" d="M131.0029297,2.3291016h0.5390625v0.6308594c0.2382812-0.3925781,0.6162109-0.7080078,1.2402344-0.7080078
		c0.875,0,1.3867188,0.5888672,1.3867188,1.4501953v2.2480469h-0.5400391V3.8349609
		c0-0.671875-0.3632812-1.0927734-1.0009766-1.0927734c-0.6230469,0-1.0859375,0.4550781-1.0859375,1.1347656v2.0732422h-0.5390625
		V2.3291016z"/>
	<path class="st0" d="M135.5039062,4.9902344V2.8056641H135V2.3291016h0.5039062V1.2363281h0.5390625v1.0927734h1.1494141v0.4765625
		h-1.1494141v2.1152344c0,0.4414062,0.2451172,0.6025391,0.609375,0.6025391c0.1826172,0,0.3369141-0.0351562,0.5253906-0.1269531
		V5.859375c-0.1884766,0.0976562-0.3916016,0.1542969-0.6513672,0.1542969
		C135.9453125,6.0136719,135.5039062,5.7255859,135.5039062,4.9902344z"/>
	<path class="st0" d="M140.0195312,4.1572266V4.1435547c0-1.0224609,0.7978516-1.8916016,1.890625-1.8916016
		c1.0859375,0,1.8837891,0.8544922,1.8837891,1.8769531v0.0146484c0,1.0224609-0.8056641,1.890625-1.8974609,1.890625
		C140.8105469,6.0341797,140.0195312,5.1796875,140.0195312,4.1572266z M143.2412109,4.1572266V4.1435547
		c0-0.7773438-0.5820312-1.4150391-1.3447266-1.4150391c-0.7851562,0-1.3242188,0.6376953-1.3242188,1.4003906v0.0146484
		c0,0.7773438,0.5742188,1.4072266,1.3378906,1.4072266C142.6943359,5.5507812,143.2412109,4.9208984,143.2412109,4.1572266z"/>
	<path class="st0" d="M144.96875,2.8056641h-0.4980469V2.3359375h0.4980469V2.0214844
		c0-0.4140625,0.1113281-0.7285156,0.3144531-0.9316406c0.1826172-0.1826172,0.4482422-0.2802734,0.7773438-0.2802734
		c0.2529297,0,0.4208984,0.0283203,0.5957031,0.0908203v0.4697266c-0.1962891-0.0566406-0.3427734-0.0917969-0.5253906-0.0917969
		c-0.4199219,0-0.6298828,0.2529297-0.6298828,0.7705078v0.2939453h1.1484375v0.4628906h-1.1416016v3.1445312H144.96875V2.8056641z"
		/>
</g>
<g>
	<path class="st0" d="M0.3779297,12.1582031v-0.0136719c0-1.0224609,0.7988281-1.8916016,1.8564453-1.8916016
		c0.6855469,0,1.1132812,0.2871094,1.4492188,0.6445312l-0.3574219,0.3779297
		c-0.2871094-0.3007812-0.609375-0.5458984-1.0996094-0.5458984c-0.7353516,0-1.2949219,0.6230469-1.2949219,1.4003906v0.0146484
		c0,0.7841797,0.5742188,1.4072266,1.3300781,1.4072266c0.4628906,0,0.8193359-0.2304688,1.1064453-0.5390625l0.34375,0.3222656
		c-0.3642578,0.40625-0.7988281,0.7001953-1.4775391,0.7001953C1.1767578,14.0351562,0.3779297,13.1738281,0.3779297,12.1582031z"/>
	<path class="st0" d="M4.4316406,8.8388672h0.5390625v2.1220703c0.2382812-0.3925781,0.6162109-0.7080078,1.2392578-0.7080078
		c0.8759766,0,1.3867188,0.5888672,1.3867188,1.4501953v2.2480469H7.0576172v-2.1152344
		c0-0.671875-0.3642578-1.0927734-1.0019531-1.0927734c-0.6230469,0-1.0849609,0.4550781-1.0849609,1.1347656v2.0732422H4.4316406
		V8.8388672z"/>
	<path class="st0" d="M8.5751953,10.3300781h0.5390625v0.9453125c0.2666016-0.6015625,0.7919922-1.0361328,1.4785156-1.0078125
		v0.5810547h-0.0419922c-0.7919922,0-1.4365234,0.5673828-1.4365234,1.6601562v1.4423828H8.5751953V10.3300781z"/>
	<path class="st0" d="M10.8574219,12.1582031v-0.0136719c0-1.0224609,0.7978516-1.8916016,1.890625-1.8916016
		c1.0859375,0,1.8837891,0.8544922,1.8837891,1.8769531v0.0146484c0,1.0224609-0.8056641,1.890625-1.8974609,1.890625
		C11.6484375,14.0351562,10.8574219,13.1806641,10.8574219,12.1582031z M14.0791016,12.1582031v-0.0136719
		c0-0.7773438-0.5820312-1.4150391-1.3447266-1.4150391c-0.7851562,0-1.3242188,0.6376953-1.3242188,1.4003906v0.0146484
		c0,0.7773438,0.5742188,1.4072266,1.3378906,1.4072266C13.5322266,13.5517578,14.0791016,12.921875,14.0791016,12.1582031z"/>
	<path class="st0" d="M15.4355469,10.3300781h0.5390625v0.6308594c0.2382812-0.3925781,0.6162109-0.7080078,1.2392578-0.7080078
		c0.8759766,0,1.3867188,0.5888672,1.3867188,1.4501953v2.2480469h-0.5390625v-2.1152344
		c0-0.671875-0.3642578-1.0927734-1.0019531-1.0927734c-0.6230469,0-1.0849609,0.4550781-1.0849609,1.1347656v2.0732422h-0.5390625
		V10.3300781z"/>
	<path class="st0" d="M19.5859375,8.9433594h0.6162109v0.5957031h-0.6162109V8.9433594z M19.6210938,10.3300781h0.5390625v3.6210938
		h-0.5390625V10.3300781z"/>
	<path class="st0" d="M21.0205078,12.1582031v-0.0136719c0-1.0224609,0.7988281-1.8916016,1.8564453-1.8916016
		c0.6855469,0,1.1132812,0.2871094,1.4492188,0.6445312L23.96875,11.2753906
		c-0.2871094-0.3007812-0.609375-0.5458984-1.0996094-0.5458984c-0.7353516,0-1.2949219,0.6230469-1.2949219,1.4003906v0.0146484
		c0,0.7841797,0.5742188,1.4072266,1.3300781,1.4072266c0.4628906,0,0.8193359-0.2304688,1.1064453-0.5390625l0.34375,0.3222656
		c-0.3642578,0.40625-0.7988281,0.7001953-1.4775391,0.7001953C21.8193359,14.0351562,21.0205078,13.1738281,21.0205078,12.1582031z
		"/>
	<path class="st0" d="M27.0058594,8.8388672h0.5390625v2.1220703c0.2382812-0.3925781,0.6162109-0.7080078,1.2402344-0.7080078
		c0.875,0,1.3867188,0.5888672,1.3867188,1.4501953v2.2480469h-0.5400391v-2.1152344
		c0-0.671875-0.3632812-1.0927734-1.0009766-1.0927734c-0.6230469,0-1.0859375,0.4550781-1.0859375,1.1347656v2.0732422h-0.5390625
		V8.8388672z"/>
	<path class="st0" d="M30.9189453,12.1513672v-0.0146484c0-1.0429688,0.7353516-1.8837891,1.7363281-1.8837891
		c1.0712891,0,1.6884766,0.8544922,1.6884766,1.9121094c0,0.0703125,0,0.1123047-0.0078125,0.1748047h-2.8710938
		c0.0771484,0.7851562,0.6298828,1.2265625,1.2744141,1.2265625c0.4970703,0,0.8476562-0.203125,1.1416016-0.5117188
		l0.3359375,0.3007812c-0.3632812,0.40625-0.8046875,0.6796875-1.4912109,0.6796875
		C31.7304688,14.0351562,30.9189453,13.2714844,30.9189453,12.1513672z M33.796875,11.9414062
		c-0.0556641-0.6582031-0.4335938-1.2333984-1.1552734-1.2333984c-0.6308594,0-1.1064453,0.5253906-1.1767578,1.2333984H33.796875z"
		/>
	<path class="st0" d="M35.1191406,10.3300781h0.5390625v0.7285156c0.2939453-0.4345703,0.7207031-0.8056641,1.3867188-0.8056641
		c0.8681641,0,1.7294922,0.6865234,1.7294922,1.8769531v0.0146484c0,1.1835938-0.8544922,1.8837891-1.7294922,1.8837891
		c-0.6728516,0-1.1064453-0.3642578-1.3867188-0.7705078v1.8134766h-0.5390625V10.3300781z M38.2216797,12.1513672v-0.0146484
		c0-0.8535156-0.5888672-1.4003906-1.2753906-1.4003906c-0.671875,0-1.3095703,0.5673828-1.3095703,1.3935547v0.0146484
		c0,0.8398438,0.6376953,1.4003906,1.3095703,1.4003906C37.6474609,13.5449219,38.2216797,13.0263672,38.2216797,12.1513672z"/>
	<path class="st0" d="M39.3251953,12.9003906v-0.0136719c0-0.7636719,0.6308594-1.1699219,1.5478516-1.1699219
		c0.4628906,0,0.7919922,0.0634766,1.1142578,0.1542969v-0.1259766c0-0.6513672-0.3994141-0.9873047-1.0791016-0.9873047
		c-0.4267578,0-0.7636719,0.1113281-1.0996094,0.265625l-0.1611328-0.4414062
		c0.3994141-0.1816406,0.7919922-0.3007812,1.3173828-0.3007812c0.5107422,0,0.9033203,0.1328125,1.1689453,0.3994141
		c0.2451172,0.2451172,0.3710938,0.5947266,0.3710938,1.0576172v2.2128906h-0.5175781v-0.5458984
		c-0.2529297,0.3291016-0.6728516,0.6230469-1.3095703,0.6230469
		C40.0048828,14.0283203,39.3251953,13.6425781,39.3251953,12.9003906z M41.9941406,12.6201172v-0.3496094
		c-0.2666016-0.0771484-0.6230469-0.1542969-1.0644531-0.1542969c-0.6796875,0-1.0576172,0.2939453-1.0576172,0.7490234v0.0146484
		c0,0.4550781,0.4199219,0.7207031,0.9101562,0.7207031C41.4472656,13.6005859,41.9941406,13.1943359,41.9941406,12.6201172z"/>
	<path class="st0" d="M43.6308594,12.9912109v-2.1845703h-0.5048828v-0.4765625h0.5048828V9.2373047h0.5390625v1.0927734h1.1484375
		v0.4765625h-1.1484375v2.1152344c0,0.4414062,0.2451172,0.6025391,0.609375,0.6025391
		c0.1816406,0,0.3359375-0.0351562,0.5253906-0.1269531v0.4628906c-0.1894531,0.0976562-0.3925781,0.1542969-0.6513672,0.1542969
		C44.0722656,14.0146484,43.6308594,13.7275391,43.6308594,12.9912109z"/>
	<path class="st0" d="M46.1152344,8.9433594h0.6171875v0.5957031h-0.6171875V8.9433594z M46.1503906,10.3300781h0.5390625v3.6210938
		h-0.5390625V10.3300781z"/>
	<path class="st0" d="M47.9638672,12.9912109v-2.1845703h-0.5048828v-0.4765625h0.5048828V9.2373047h0.5390625v1.0927734h1.1484375
		v0.4765625h-1.1484375v2.1152344c0,0.4414062,0.2451172,0.6025391,0.609375,0.6025391
		c0.1816406,0,0.3359375-0.0351562,0.5253906-0.1269531v0.4628906c-0.1894531,0.0976562-0.3925781,0.1542969-0.6513672,0.1542969
		C48.4052734,14.0146484,47.9638672,13.7275391,47.9638672,12.9912109z"/>
	<path class="st0" d="M50.4482422,8.9433594h0.6171875v0.5957031h-0.6171875V8.9433594z M50.4833984,10.3300781h0.5390625v3.6210938
		h-0.5390625V10.3300781z"/>
	<path class="st0" d="M51.8066406,13.4892578l0.2724609-0.3857422c0.3925781,0.2939453,0.8271484,0.4628906,1.2539062,0.4628906
		c0.4345703,0,0.75-0.2246094,0.75-0.5751953v-0.0136719c0-0.3642578-0.4277344-0.5039062-0.9042969-0.6376953
		c-0.5673828-0.1601562-1.1972656-0.3564453-1.1972656-1.0224609v-0.0136719c0-0.6230469,0.5185547-1.0361328,1.2324219-1.0361328
		c0.4414062,0,0.9316406,0.1533203,1.3027344,0.3984375l-0.2451172,0.40625
		c-0.3359375-0.2167969-0.7216797-0.3496094-1.0712891-0.3496094c-0.4277344,0-0.7001953,0.2236328-0.7001953,0.5253906v0.0136719
		c0,0.3427734,0.4482422,0.4765625,0.9316406,0.6230469c0.5595703,0.1679688,1.1621094,0.3857422,1.1621094,1.0371094v0.0136719
		c0,0.6865234-0.5673828,1.0859375-1.2890625,1.0859375C52.7871094,14.0214844,52.2128906,13.8183594,51.8066406,13.4892578z"/>
	<path class="st0" d="M57.2304688,11.5136719V11.5c0-1.3867188,1.0371094-2.5351562,2.4794922-2.5351562
		c0.8896484,0,1.421875,0.3144531,1.9121094,0.7773438l-0.3779297,0.40625
		c-0.4130859-0.3925781-0.8759766-0.6728516-1.5410156-0.6728516c-1.0859375,0-1.8974609,0.8828125-1.8974609,2.0097656V11.5
		c0,1.1347656,0.8193359,2.0244141,1.8974609,2.0244141c0.6728516,0,1.1132812-0.2597656,1.5830078-0.7080078l0.3642578,0.3574219
		c-0.5117188,0.5185547-1.0712891,0.8613281-1.9609375,0.8613281C58.2744141,14.0351562,57.2304688,12.921875,57.2304688,11.5136719
		z"/>
	<path class="st0" d="M63.9580078,10.3300781h0.5947266l1.21875,3.0048828l1.2255859-3.0048828h0.5820312l-1.5761719,3.6494141
		h-0.4765625L63.9580078,10.3300781z"/>
	<path class="st0" d="M68.2695312,8.9433594h0.6171875v0.5957031h-0.6171875V8.9433594z M68.3046875,10.3300781H68.84375v3.6210938
		h-0.5390625V10.3300781z"/>
	<path class="st0" d="M69.9287109,10.3300781h0.5390625v0.9453125c0.2666016-0.6015625,0.7919922-1.0361328,1.4785156-1.0078125
		v0.5810547h-0.0419922c-0.7919922,0-1.4365234,0.5673828-1.4365234,1.6601562v1.4423828h-0.5390625V10.3300781z"/>
	<path class="st0" d="M72.5400391,12.578125v-2.2480469h0.5390625v2.1152344c0,0.6728516,0.3642578,1.0927734,1.0009766,1.0927734
		c0.6171875,0,1.0859375-0.4550781,1.0859375-1.1347656v-2.0732422h0.5322266v3.6210938h-0.5322266v-0.6298828
		c-0.2451172,0.3916016-0.6162109,0.7070312-1.2392578,0.7070312C73.0507812,14.0283203,72.5400391,13.4394531,72.5400391,12.578125
		z"/>
	<path class="st0" d="M76.4384766,13.4892578l0.2734375-0.3857422c0.3916016,0.2939453,0.8261719,0.4628906,1.2539062,0.4628906
		c0.4335938,0,0.7490234-0.2246094,0.7490234-0.5751953v-0.0136719c0-0.3642578-0.4267578-0.5039062-0.9033203-0.6376953
		c-0.5673828-0.1601562-1.1982422-0.3564453-1.1982422-1.0224609v-0.0136719c0-0.6230469,0.5185547-1.0361328,1.2333984-1.0361328
		c0.4414062,0,0.9316406,0.1533203,1.3027344,0.3984375l-0.2451172,0.40625
		c-0.3369141-0.2167969-0.7216797-0.3496094-1.0722656-0.3496094c-0.4267578,0-0.7001953,0.2236328-0.7001953,0.5253906v0.0136719
		c0,0.3427734,0.4482422,0.4765625,0.9316406,0.6230469c0.5605469,0.1679688,1.1630859,0.3857422,1.1630859,1.0371094v0.0136719
		c0,0.6865234-0.5673828,1.0859375-1.2890625,1.0859375C77.4189453,14.0214844,76.8447266,13.8183594,76.4384766,13.4892578z"/>
	<path class="st0" d="M81.8632812,11.9414062c0-1.2890625,0.6933594-2.2978516,1.9404297-2.9980469l0.2314453,0.3574219
		c-1.0644531,0.6796875-1.625,1.5195312-1.625,2.640625c0,1.1201172,0.5605469,1.9609375,1.625,2.6396484l-0.2314453,0.3574219
		C82.5566406,14.2382812,81.8632812,13.2294922,81.8632812,11.9414062z"/>
	<path class="st0" d="M84.9501953,9.0488281h0.5537109v2.1777344h2.8291016V9.0488281h0.5537109v4.9023438h-0.5537109v-2.2060547
		h-2.8291016v2.2060547h-0.5537109V9.0488281z"/>
	<path class="st0" d="M89.8847656,11.5136719V11.5c0-1.3867188,1.0371094-2.5351562,2.4794922-2.5351562
		c0.8896484,0,1.421875,0.3144531,1.9121094,0.7773438l-0.3779297,0.40625
		c-0.4130859-0.3925781-0.8759766-0.6728516-1.5410156-0.6728516c-1.0859375,0-1.8974609,0.8828125-1.8974609,2.0097656V11.5
		c0,1.1347656,0.8193359,2.0244141,1.8974609,2.0244141c0.6728516,0,1.1132812-0.2597656,1.5830078-0.7080078l0.3642578,0.3574219
		c-0.5117188,0.5185547-1.0712891,0.8613281-1.9609375,0.8613281C90.9287109,14.0351562,89.8847656,12.921875,89.8847656,11.5136719
		z"/>
	<path class="st0" d="M94.6728516,9.0488281h0.6171875l1.7431641,4.2226562l1.7509766-4.2226562h0.5957031l-2.1083984,4.9375
		H96.78125L94.6728516,9.0488281z"/>
	<path class="st0" d="M99.8740234,14.5810547c1.0654297-0.6787109,1.625-1.5195312,1.625-2.6396484
		c0-1.1210938-0.5595703-1.9609375-1.625-2.640625l0.2314453-0.3574219
		c1.2470703,0.7001953,1.9404297,1.7089844,1.9404297,2.9980469c0,1.2880859-0.6933594,2.296875-1.9404297,2.9970703
		L99.8740234,14.5810547z"/>
	<path class="st0" d="M104.9003906,8.9433594h0.6162109v0.5957031h-0.6162109V8.9433594z M104.9355469,10.3300781h0.5390625
		v3.6210938h-0.5390625V10.3300781z"/>
	<path class="st0" d="M106.5595703,10.3300781h0.5390625v0.6308594c0.2382812-0.3925781,0.6162109-0.7080078,1.2392578-0.7080078
		c0.8759766,0,1.3867188,0.5888672,1.3867188,1.4501953v2.2480469h-0.5390625v-2.1152344
		c0-0.671875-0.3642578-1.0927734-1.0019531-1.0927734c-0.6230469,0-1.0849609,0.4550781-1.0849609,1.1347656v2.0732422h-0.5390625
		V10.3300781z"/>
	<path class="st0" d="M110.90625,10.8066406h-0.4970703v-0.4697266h0.4970703v-0.3144531
		c0-0.4140625,0.1123047-0.7285156,0.3154297-0.9316406c0.1816406-0.1826172,0.4482422-0.2802734,0.7773438-0.2802734
		c0.2519531,0,0.4199219,0.0283203,0.5947266,0.0908203v0.4697266c-0.1953125-0.0566406-0.3427734-0.0917969-0.5244141-0.0917969
		c-0.4208984,0-0.6308594,0.2529297-0.6308594,0.7705078V10.34375h1.1484375v0.4628906h-1.1416016v3.1445312H110.90625V10.8066406z"
		/>
	<path class="st0" d="M112.8105469,12.1513672v-0.0146484c0-1.0429688,0.7353516-1.8837891,1.7363281-1.8837891
		c1.0712891,0,1.6884766,0.8544922,1.6884766,1.9121094c0,0.0703125,0,0.1123047-0.0078125,0.1748047h-2.8710938
		c0.0771484,0.7851562,0.6298828,1.2265625,1.2744141,1.2265625c0.4970703,0,0.8476562-0.203125,1.1416016-0.5117188
		l0.3359375,0.3007812c-0.3632812,0.40625-0.8046875,0.6796875-1.4912109,0.6796875
		C113.6220703,14.0351562,112.8105469,13.2714844,112.8105469,12.1513672z M115.6884766,11.9414062
		c-0.0556641-0.6582031-0.4335938-1.2333984-1.1552734-1.2333984c-0.6308594,0-1.1064453,0.5253906-1.1767578,1.2333984H115.6884766
		z"/>
	<path class="st0" d="M116.7792969,12.1582031v-0.0136719c0-1.0224609,0.7978516-1.8916016,1.8554688-1.8916016
		c0.6865234,0,1.1132812,0.2871094,1.4501953,0.6445312l-0.3574219,0.3779297
		c-0.2871094-0.3007812-0.609375-0.5458984-1.0996094-0.5458984c-0.7353516,0-1.2958984,0.6230469-1.2958984,1.4003906v0.0146484
		c0,0.7841797,0.5742188,1.4072266,1.3310547,1.4072266c0.4619141,0,0.8193359-0.2304688,1.1064453-0.5390625l0.3427734,0.3222656
		c-0.3642578,0.40625-0.7978516,0.7001953-1.4775391,0.7001953
		C117.5771484,14.0351562,116.7792969,13.1738281,116.7792969,12.1582031z"/>
	<path class="st0" d="M121.0214844,12.9912109v-2.1845703h-0.5048828v-0.4765625h0.5048828V9.2373047h0.5390625v1.0927734h1.1484375
		v0.4765625h-1.1484375v2.1152344c0,0.4414062,0.2451172,0.6025391,0.609375,0.6025391
		c0.1816406,0,0.3359375-0.0351562,0.5253906-0.1269531v0.4628906c-0.1894531,0.0976562-0.3925781,0.1542969-0.6513672,0.1542969
		C121.4628906,14.0146484,121.0214844,13.7275391,121.0214844,12.9912109z"/>
	<path class="st0" d="M123.5058594,8.9433594h0.6162109v0.5957031h-0.6162109V8.9433594z M123.5410156,10.3300781h0.5390625
		v3.6210938h-0.5390625V10.3300781z"/>
	<path class="st0" d="M124.9414062,12.1582031v-0.0136719c0-1.0224609,0.7978516-1.8916016,1.890625-1.8916016
		c1.0859375,0,1.8837891,0.8544922,1.8837891,1.8769531v0.0146484c0,1.0224609-0.8056641,1.890625-1.8974609,1.890625
		C125.7324219,14.0351562,124.9414062,13.1806641,124.9414062,12.1582031z M128.1630859,12.1582031v-0.0136719
		c0-0.7773438-0.5820312-1.4150391-1.3447266-1.4150391c-0.7851562,0-1.3242188,0.6376953-1.3242188,1.4003906v0.0146484
		c0,0.7773438,0.5742188,1.4072266,1.3378906,1.4072266C127.6162109,13.5517578,128.1630859,12.921875,128.1630859,12.1582031z"/>
	<path class="st0" d="M129.5117188,10.3300781h0.5390625v0.6308594c0.2382812-0.3925781,0.6162109-0.7080078,1.2402344-0.7080078
		c0.875,0,1.3867188,0.5888672,1.3867188,1.4501953v2.2480469h-0.5400391v-2.1152344
		c0-0.671875-0.3632812-1.0927734-1.0009766-1.0927734c-0.6230469,0-1.0859375,0.4550781-1.0859375,1.1347656v2.0732422h-0.5390625
		V10.3300781z"/>
	<path class="st0" d="M135.6015625,8.9433594h0.6171875v0.5957031h-0.6171875V8.9433594z M135.6367188,10.3300781h0.5390625
		v3.6210938h-0.5390625V10.3300781z"/>
	<path class="st0" d="M137.2607422,10.3300781h0.5390625v0.6308594c0.2382812-0.3925781,0.6162109-0.7080078,1.2402344-0.7080078
		c0.875,0,1.3867188,0.5888672,1.3867188,1.4501953v2.2480469h-0.5400391v-2.1152344
		c0-0.671875-0.3632812-1.0927734-1.0009766-1.0927734c-0.6230469,0-1.0859375,0.4550781-1.0859375,1.1347656v2.0732422h-0.5390625
		V10.3300781z"/>
	<path class="st0" d="M143.0634766,12.9003906v-0.0136719c0-0.7636719,0.6298828-1.1699219,1.5478516-1.1699219
		c0.4619141,0,0.7910156,0.0634766,1.1132812,0.1542969v-0.1259766c0-0.6513672-0.3994141-0.9873047-1.078125-0.9873047
		c-0.4277344,0-0.7636719,0.1113281-1.0996094,0.265625l-0.1611328-0.4414062
		c0.3994141-0.1816406,0.7910156-0.3007812,1.3164062-0.3007812c0.5117188,0,0.9033203,0.1328125,1.1699219,0.3994141
		c0.2451172,0.2451172,0.3710938,0.5947266,0.3710938,1.0576172v2.2128906h-0.5185547v-0.5458984
		c-0.2519531,0.3291016-0.671875,0.6230469-1.3095703,0.6230469
		C143.7431641,14.0283203,143.0634766,13.6425781,143.0634766,12.9003906z M145.7314453,12.6201172v-0.3496094
		c-0.265625-0.0771484-0.6230469-0.1542969-1.0644531-0.1542969c-0.6787109,0-1.0576172,0.2939453-1.0576172,0.7490234v0.0146484
		c0,0.4550781,0.4208984,0.7207031,0.9111328,0.7207031C145.1855469,13.6005859,145.7314453,13.1943359,145.7314453,12.6201172z"/>
	<path class="st0" d="M147.0039062,12.1513672v-0.0146484c0-1.1835938,0.8623047-1.8837891,1.7304688-1.8837891
		c0.671875,0,1.1064453,0.3642578,1.3867188,0.7705078V8.8388672h0.5390625v5.1123047h-0.5390625v-0.7285156
		c-0.2939453,0.4345703-0.7216797,0.8056641-1.3867188,0.8056641
		C147.8662109,14.0283203,147.0039062,13.3417969,147.0039062,12.1513672z M150.1416016,12.1445312v-0.0146484
		c0-0.8330078-0.6367188-1.3935547-1.3095703-1.3935547c-0.7001953,0-1.2744141,0.5185547-1.2744141,1.3935547v0.0146484
		c0,0.8544922,0.5878906,1.4003906,1.2744141,1.4003906C149.5048828,13.5449219,150.1416016,12.9775391,150.1416016,12.1445312z"/>
	<path class="st0" d="M151.6386719,12.578125v-2.2480469h0.5390625v2.1152344c0,0.6728516,0.3642578,1.0927734,1.0009766,1.0927734
		c0.6171875,0,1.0859375-0.4550781,1.0859375-1.1347656v-2.0732422h0.5322266v3.6210938h-0.5322266v-0.6298828
		c-0.2451172,0.3916016-0.6162109,0.7070312-1.2392578,0.7070312
		C152.1494141,14.0283203,151.6386719,13.4394531,151.6386719,12.578125z"/>
	<path class="st0" d="M155.8808594,8.8388672h0.5390625v5.1123047h-0.5390625V8.8388672z"/>
	<path class="st0" d="M157.6933594,12.9912109v-2.1845703h-0.5039062v-0.4765625h0.5039062V9.2373047h0.5390625v1.0927734h1.1494141
		v0.4765625h-1.1494141v2.1152344c0,0.4414062,0.2451172,0.6025391,0.609375,0.6025391
		c0.1826172,0,0.3369141-0.0351562,0.5253906-0.1269531v0.4628906c-0.1884766,0.0976562-0.3916016,0.1542969-0.6513672,0.1542969
		C158.1347656,14.0146484,157.6933594,13.7275391,157.6933594,12.9912109z"/>
	<path class="st0" d="M159.8632812,13.4892578l0.2724609-0.3857422c0.3925781,0.2939453,0.8271484,0.4628906,1.2539062,0.4628906
		c0.4345703,0,0.75-0.2246094,0.75-0.5751953v-0.0136719c0-0.3642578-0.4277344-0.5039062-0.9042969-0.6376953
		c-0.5673828-0.1601562-1.1972656-0.3564453-1.1972656-1.0224609v-0.0136719c0-0.6230469,0.5185547-1.0361328,1.2324219-1.0361328
		c0.4414062,0,0.9316406,0.1533203,1.3027344,0.3984375l-0.2451172,0.40625
		c-0.3359375-0.2167969-0.7216797-0.3496094-1.0712891-0.3496094c-0.4277344,0-0.7001953,0.2236328-0.7001953,0.5253906v0.0136719
		c0,0.3427734,0.4482422,0.4765625,0.9316406,0.6230469c0.5595703,0.1679688,1.1621094,0.3857422,1.1621094,1.0371094v0.0136719
		c0,0.6865234-0.5673828,1.0859375-1.2890625,1.0859375C160.84375,14.0214844,160.2695312,13.8183594,159.8632812,13.4892578z"/>
	<path class="st0" d="M163.4121094,13.2158203h0.6445312v0.7353516h-0.6445312V13.2158203z"/>
</g>
<g>
	<path class="st0" d="M0.6933594,17.0498047h3.5224609v0.5107422H1.2460938v1.7509766h2.6542969v0.5048828H1.2460938v2.1357422
		H0.6933594V17.0498047z"/>
	<path class="st0" d="M4.8720703,20.1591797v-0.0136719c0-1.0224609,0.7988281-1.8916016,1.890625-1.8916016
		c1.0859375,0,1.8847656,0.8544922,1.8847656,1.8769531v0.0146484c0,1.0224609-0.8056641,1.890625-1.8984375,1.890625
		C5.6630859,22.0361328,4.8720703,21.1816406,4.8720703,20.1591797z M8.09375,20.1591797v-0.0136719
		c0-0.7773438-0.5810547-1.4150391-1.3447266-1.4150391c-0.7841797,0-1.3232422,0.6376953-1.3232422,1.4003906v0.0146484
		c0,0.7773438,0.5742188,1.4072266,1.3369141,1.4072266C7.5478516,21.5527344,8.09375,20.9228516,8.09375,20.1591797z"/>
	<path class="st0" d="M9.6181641,18.3310547h0.5390625v0.9453125c0.2666016-0.6015625,0.7919922-1.0361328,1.4785156-1.0078125
		v0.5810547H11.59375c-0.7919922,0-1.4365234,0.5673828-1.4365234,1.6601562v1.4423828H9.6181641V18.3310547z"/>
	<path class="st0" d="M14.6435547,17.0498047H18.1875v0.5039062h-2.9902344v1.6738281h2.6757812v0.5048828h-2.6757812v1.7158203
		h3.0253906v0.5039062h-3.5791016V17.0498047z"/>
	<path class="st0" d="M19.2568359,19.9003906v-2.8505859h0.5527344v2.8154297c0,1.0576172,0.5605469,1.6523438,1.4990234,1.6523438
		c0.9033203,0,1.4785156-0.5458984,1.4785156-1.6171875v-2.8505859h0.5527344v2.8085938
		c0,1.4287109-0.8193359,2.1708984-2.0449219,2.1708984C20.0830078,22.0292969,19.2568359,21.2871094,19.2568359,19.9003906z"/>
	<path class="st0" d="M26.7470703,17.0498047h0.5527344v2.1777344h2.8300781v-2.1777344h0.5527344v4.9023438h-0.5527344v-2.2060547
		h-2.8300781v2.2060547h-0.5527344V17.0498047z"/>
	<path class="st0" d="M31.7519531,20.1523438v-0.0146484c0-1.0429688,0.7353516-1.8837891,1.7363281-1.8837891
		c1.0712891,0,1.6884766,0.8544922,1.6884766,1.9121094c0,0.0703125,0,0.1123047-0.0078125,0.1748047h-2.8710938
		c0.0771484,0.7851562,0.6298828,1.2265625,1.2744141,1.2265625c0.4970703,0,0.8476562-0.203125,1.1416016-0.5117188
		l0.3359375,0.3007812c-0.3632812,0.40625-0.8046875,0.6796875-1.4912109,0.6796875
		C32.5634766,22.0361328,31.7519531,21.2724609,31.7519531,20.1523438z M34.6298828,19.9423828
		c-0.0556641-0.6582031-0.4335938-1.2333984-1.1552734-1.2333984c-0.6308594,0-1.1064453,0.5253906-1.1767578,1.2333984H34.6298828z
		"/>
	<path class="st0" d="M35.8466797,20.9013672v-0.0136719c0-0.7636719,0.6298828-1.1699219,1.5478516-1.1699219
		c0.4619141,0,0.7910156,0.0634766,1.1132812,0.1542969v-0.1259766c0-0.6513672-0.3994141-0.9873047-1.078125-0.9873047
		c-0.4277344,0-0.7636719,0.1113281-1.0996094,0.265625l-0.1611328-0.4414062
		c0.3994141-0.1816406,0.7910156-0.3007812,1.3164062-0.3007812c0.5117188,0,0.9033203,0.1328125,1.1699219,0.3994141
		c0.2451172,0.2451172,0.3710938,0.5947266,0.3710938,1.0576172v2.2128906h-0.5185547V21.40625
		c-0.2519531,0.3291016-0.671875,0.6230469-1.3095703,0.6230469C36.5263672,22.0292969,35.8466797,21.6435547,35.8466797,20.9013672
		z M38.5146484,20.6210938v-0.3496094c-0.265625-0.0771484-0.6230469-0.1542969-1.0644531-0.1542969
		c-0.6787109,0-1.0576172,0.2939453-1.0576172,0.7490234v0.0146484c0,0.4550781,0.4208984,0.7207031,0.9111328,0.7207031
		C37.96875,21.6015625,38.5146484,21.1953125,38.5146484,20.6210938z"/>
	<path class="st0" d="M40.2216797,16.8398438h0.5390625v5.1123047h-0.5390625V16.8398438z"/>
	<path class="st0" d="M42.203125,20.9921875v-2.1845703h-0.5048828v-0.4765625h0.5048828v-1.0927734h0.5390625v1.0927734h1.1484375
		v0.4765625h-1.1484375v2.1152344c0,0.4414062,0.2451172,0.6025391,0.609375,0.6025391
		c0.1816406,0,0.3359375-0.0351562,0.5253906-0.1269531v0.4628906C43.6875,21.9589844,43.484375,22.015625,43.2255859,22.015625
		C42.6445312,22.015625,42.203125,21.7275391,42.203125,20.9921875z"/>
	<path class="st0" d="M44.8417969,16.8398438h0.5390625v2.1220703c0.2382812-0.3925781,0.6162109-0.7080078,1.2392578-0.7080078
		c0.8759766,0,1.3867188,0.5888672,1.3867188,1.4501953v2.2480469h-0.5390625v-2.1152344
		c0-0.671875-0.3642578-1.0927734-1.0019531-1.0927734c-0.6230469,0-1.0849609,0.4550781-1.0849609,1.1347656v2.0732422h-0.5390625
		V16.8398438z"/>
	<path class="st0" d="M48.9296875,20.1591797v-0.0136719c0-1.0224609,0.7978516-1.8916016,1.8554688-1.8916016
		c0.6865234,0,1.1132812,0.2871094,1.4501953,0.6445312l-0.3574219,0.3779297
		c-0.2871094-0.3007812-0.609375-0.5458984-1.0996094-0.5458984c-0.7353516,0-1.2958984,0.6230469-1.2958984,1.4003906v0.0146484
		c0,0.7841797,0.5742188,1.4072266,1.3310547,1.4072266c0.4619141,0,0.8193359-0.2304688,1.1064453-0.5390625l0.3427734,0.3222656
		c-0.3642578,0.40625-0.7978516,0.7001953-1.4775391,0.7001953C49.7275391,22.0361328,48.9296875,21.1748047,48.9296875,20.1591797z
		"/>
	<path class="st0" d="M52.8769531,20.9013672v-0.0136719c0-0.7636719,0.6308594-1.1699219,1.5478516-1.1699219
		c0.4628906,0,0.7919922,0.0634766,1.1142578,0.1542969v-0.1259766c0-0.6513672-0.3994141-0.9873047-1.0791016-0.9873047
		c-0.4267578,0-0.7636719,0.1113281-1.0996094,0.265625l-0.1611328-0.4414062
		c0.3994141-0.1816406,0.7919922-0.3007812,1.3173828-0.3007812c0.5107422,0,0.9033203,0.1328125,1.1689453,0.3994141
		c0.2451172,0.2451172,0.3710938,0.5947266,0.3710938,1.0576172v2.2128906h-0.5175781V21.40625
		c-0.2529297,0.3291016-0.6728516,0.6230469-1.3095703,0.6230469
		C53.5566406,22.0292969,52.8769531,21.6435547,52.8769531,20.9013672z M55.5458984,20.6210938v-0.3496094
		c-0.2666016-0.0771484-0.6230469-0.1542969-1.0644531-0.1542969c-0.6796875,0-1.0576172,0.2939453-1.0576172,0.7490234v0.0146484
		c0,0.4550781,0.4199219,0.7207031,0.9101562,0.7207031C54.9990234,21.6015625,55.5458984,21.1953125,55.5458984,20.6210938z"/>
	<path class="st0" d="M57.203125,18.3310547h0.5390625v0.9453125c0.2666016-0.6015625,0.7919922-1.0361328,1.4785156-1.0078125
		v0.5810547h-0.0419922c-0.7919922,0-1.4365234,0.5673828-1.4365234,1.6601562v1.4423828H57.203125V18.3310547z"/>
	<path class="st0" d="M59.6601562,20.1523438v-0.0146484c0-1.0429688,0.7353516-1.8837891,1.7373047-1.8837891
		c1.0712891,0,1.6875,0.8544922,1.6875,1.9121094c0,0.0703125,0,0.1123047-0.0068359,0.1748047h-2.8720703
		c0.0771484,0.7851562,0.6308594,1.2265625,1.2753906,1.2265625c0.4970703,0,0.8476562-0.203125,1.1416016-0.5117188
		l0.3359375,0.3007812c-0.3642578,0.40625-0.8056641,0.6796875-1.4921875,0.6796875
		C60.4726562,22.0361328,59.6601562,21.2724609,59.6601562,20.1523438z M62.5390625,19.9423828
		c-0.0566406-0.6582031-0.4345703-1.2333984-1.15625-1.2333984c-0.6298828,0-1.1064453,0.5253906-1.1767578,1.2333984H62.5390625z"
		/>
	<path class="st0" d="M66.2197266,17.0498047h1.8349609c1.1064453,0,1.8349609,0.5878906,1.8349609,1.5546875v0.0136719
		c0,1.0576172-0.8828125,1.6044922-1.9257812,1.6044922h-1.1914062v1.7294922h-0.5527344V17.0498047z M67.984375,19.7177734
		c0.8125,0,1.3447266-0.4335938,1.3447266-1.078125V18.625c0-0.7001953-0.5253906-1.0644531-1.3164062-1.0644531h-1.2402344
		v2.1572266H67.984375z"/>
	<path class="st0" d="M70.8046875,18.3310547H71.34375v0.9453125c0.265625-0.6015625,0.7910156-1.0361328,1.4775391-1.0078125
		v0.5810547h-0.0419922c-0.7910156,0-1.4355469,0.5673828-1.4355469,1.6601562v1.4423828h-0.5390625V18.3310547z"/>
	<path class="st0" d="M73.2617188,20.1591797v-0.0136719c0-1.0224609,0.7978516-1.8916016,1.890625-1.8916016
		c1.0859375,0,1.8837891,0.8544922,1.8837891,1.8769531v0.0146484c0,1.0224609-0.8056641,1.890625-1.8974609,1.890625
		C74.0527344,22.0361328,73.2617188,21.1816406,73.2617188,20.1591797z M76.4833984,20.1591797v-0.0136719
		c0-0.7773438-0.5820312-1.4150391-1.3447266-1.4150391c-0.7851562,0-1.3242188,0.6376953-1.3242188,1.4003906v0.0146484
		c0,0.7773438,0.5742188,1.4072266,1.3378906,1.4072266C75.9365234,21.5527344,76.4833984,20.9228516,76.4833984,20.1591797z"/>
	<path class="st0" d="M78.2109375,18.8076172h-0.4980469v-0.4697266h0.4980469v-0.3144531
		c0-0.4140625,0.1113281-0.7285156,0.3144531-0.9316406c0.1826172-0.1826172,0.4482422-0.2802734,0.7773438-0.2802734
		c0.2529297,0,0.4208984,0.0283203,0.5957031,0.0908203v0.4697266c-0.1962891-0.0566406-0.3427734-0.0917969-0.5253906-0.0917969
		c-0.4199219,0-0.6298828,0.2529297-0.6298828,0.7705078v0.2939453h1.1484375v0.4628906H78.75v3.1445312h-0.5390625V18.8076172z"/>
	<path class="st0" d="M80.2890625,20.1523438v-0.0146484c0-1.0429688,0.7353516-1.8837891,1.7373047-1.8837891
		c1.0712891,0,1.6875,0.8544922,1.6875,1.9121094c0,0.0703125,0,0.1123047-0.0068359,0.1748047h-2.8720703
		c0.0771484,0.7851562,0.6308594,1.2265625,1.2753906,1.2265625c0.4970703,0,0.8476562-0.203125,1.1416016-0.5117188
		l0.3359375,0.3007812c-0.3642578,0.40625-0.8056641,0.6796875-1.4921875,0.6796875
		C81.1015625,22.0361328,80.2890625,21.2724609,80.2890625,20.1523438z M83.1679688,19.9423828
		c-0.0566406-0.6582031-0.4345703-1.2333984-1.15625-1.2333984c-0.6298828,0-1.1064453,0.5253906-1.1767578,1.2333984H83.1679688z"
		/>
	<path class="st0" d="M84.3564453,21.4902344l0.2724609-0.3857422c0.3925781,0.2939453,0.8271484,0.4628906,1.2539062,0.4628906
		c0.4345703,0,0.75-0.2246094,0.75-0.5751953v-0.0136719c0-0.3642578-0.4277344-0.5039062-0.9042969-0.6376953
		c-0.5673828-0.1601562-1.1972656-0.3564453-1.1972656-1.0224609v-0.0136719c0-0.6230469,0.5185547-1.0361328,1.2324219-1.0361328
		c0.4414062,0,0.9316406,0.1533203,1.3027344,0.3984375l-0.2451172,0.40625
		c-0.3359375-0.2167969-0.7216797-0.3496094-1.0712891-0.3496094c-0.4277344,0-0.7001953,0.2236328-0.7001953,0.5253906v0.0136719
		c0,0.3427734,0.4482422,0.4765625,0.9316406,0.6230469c0.5595703,0.1679688,1.1621094,0.3857422,1.1621094,1.0371094v0.0136719
		c0,0.6865234-0.5673828,1.0859375-1.2890625,1.0859375C85.3369141,22.0224609,84.7626953,21.8193359,84.3564453,21.4902344z"/>
	<path class="st0" d="M87.7792969,21.4902344l0.2724609-0.3857422c0.3925781,0.2939453,0.8271484,0.4628906,1.2539062,0.4628906
		c0.4345703,0,0.75-0.2246094,0.75-0.5751953v-0.0136719c0-0.3642578-0.4277344-0.5039062-0.9042969-0.6376953
		c-0.5673828-0.1601562-1.1972656-0.3564453-1.1972656-1.0224609v-0.0136719c0-0.6230469,0.5185547-1.0361328,1.2324219-1.0361328
		c0.4414062,0,0.9316406,0.1533203,1.3027344,0.3984375l-0.2451172,0.40625
		c-0.3359375-0.2167969-0.7216797-0.3496094-1.0712891-0.3496094c-0.4277344,0-0.7001953,0.2236328-0.7001953,0.5253906v0.0136719
		c0,0.3427734,0.4482422,0.4765625,0.9316406,0.6230469c0.5595703,0.1679688,1.1621094,0.3857422,1.1621094,1.0371094v0.0136719
		c0,0.6865234-0.5673828,1.0859375-1.2890625,1.0859375C88.7597656,22.0224609,88.1855469,21.8193359,87.7792969,21.4902344z"/>
	<path class="st0" d="M91.5800781,16.9443359h0.6162109v0.5957031h-0.6162109V16.9443359z M91.6152344,18.3310547h0.5390625
		v3.6210938h-0.5390625V18.3310547z"/>
	<path class="st0" d="M93.1826172,20.1591797v-0.0136719c0-1.0224609,0.7988281-1.8916016,1.890625-1.8916016
		c1.0859375,0,1.8847656,0.8544922,1.8847656,1.8769531v0.0146484c0,1.0224609-0.8056641,1.890625-1.8984375,1.890625
		C93.9736328,22.0361328,93.1826172,21.1816406,93.1826172,20.1591797z M96.4042969,20.1591797v-0.0136719
		c0-0.7773438-0.5810547-1.4150391-1.3447266-1.4150391c-0.7841797,0-1.3232422,0.6376953-1.3232422,1.4003906v0.0146484
		c0,0.7773438,0.5742188,1.4072266,1.3369141,1.4072266C95.8583984,21.5527344,96.4042969,20.9228516,96.4042969,20.1591797z"/>
	<path class="st0" d="M97.9287109,18.3310547h0.5390625v0.6308594c0.2382812-0.3925781,0.6162109-0.7080078,1.2402344-0.7080078
		c0.875,0,1.3867188,0.5888672,1.3867188,1.4501953v2.2480469h-0.5400391v-2.1152344
		c0-0.671875-0.3632812-1.0927734-1.0009766-1.0927734c-0.6230469,0-1.0859375,0.4550781-1.0859375,1.1347656v2.0732422h-0.5390625
		V18.3310547z"/>
	<path class="st0" d="M101.9677734,20.9013672v-0.0136719c0-0.7636719,0.6298828-1.1699219,1.5478516-1.1699219
		c0.4619141,0,0.7910156,0.0634766,1.1132812,0.1542969v-0.1259766c0-0.6513672-0.3994141-0.9873047-1.078125-0.9873047
		c-0.4277344,0-0.7636719,0.1113281-1.0996094,0.265625l-0.1611328-0.4414062
		c0.3994141-0.1816406,0.7910156-0.3007812,1.3164062-0.3007812c0.5117188,0,0.9033203,0.1328125,1.1699219,0.3994141
		c0.2451172,0.2451172,0.3710938,0.5947266,0.3710938,1.0576172v2.2128906h-0.5185547V21.40625
		c-0.2519531,0.3291016-0.671875,0.6230469-1.3095703,0.6230469
		C102.6474609,22.0292969,101.9677734,21.6435547,101.9677734,20.9013672z M104.6357422,20.6210938v-0.3496094
		c-0.265625-0.0771484-0.6230469-0.1542969-1.0644531-0.1542969c-0.6787109,0-1.0576172,0.2939453-1.0576172,0.7490234v0.0146484
		c0,0.4550781,0.4208984,0.7207031,0.9111328,0.7207031C104.0898438,21.6015625,104.6357422,21.1953125,104.6357422,20.6210938z"/>
	<path class="st0" d="M106.3427734,16.8398438h0.5390625v5.1123047h-0.5390625V16.8398438z"/>
	<path class="st0" d="M107.8339844,21.4902344l0.2724609-0.3857422c0.3925781,0.2939453,0.8271484,0.4628906,1.2539062,0.4628906
		c0.4345703,0,0.75-0.2246094,0.75-0.5751953v-0.0136719c0-0.3642578-0.4277344-0.5039062-0.9042969-0.6376953
		c-0.5673828-0.1601562-1.1972656-0.3564453-1.1972656-1.0224609v-0.0136719c0-0.6230469,0.5185547-1.0361328,1.2324219-1.0361328
		c0.4414062,0,0.9316406,0.1533203,1.3027344,0.3984375l-0.2451172,0.40625
		c-0.3359375-0.2167969-0.7216797-0.3496094-1.0712891-0.3496094c-0.4277344,0-0.7001953,0.2236328-0.7001953,0.5253906v0.0136719
		c0,0.3427734,0.4482422,0.4765625,0.9316406,0.6230469c0.5595703,0.1679688,1.1621094,0.3857422,1.1621094,1.0371094v0.0136719
		c0,0.6865234-0.5673828,1.0859375-1.2890625,1.0859375C108.8144531,22.0224609,108.2402344,21.8193359,107.8339844,21.4902344z"/>
	<path class="st0" d="M113.4960938,20.1591797v-0.0136719c0-1.0224609,0.7988281-1.8916016,1.890625-1.8916016
		c1.0859375,0,1.8847656,0.8544922,1.8847656,1.8769531v0.0146484c0,1.0224609-0.8056641,1.890625-1.8984375,1.890625
		C114.2871094,22.0361328,113.4960938,21.1816406,113.4960938,20.1591797z M116.7177734,20.1591797v-0.0136719
		c0-0.7773438-0.5810547-1.4150391-1.3447266-1.4150391c-0.7841797,0-1.3232422,0.6376953-1.3232422,1.4003906v0.0146484
		c0,0.7773438,0.5742188,1.4072266,1.3369141,1.4072266C116.171875,21.5527344,116.7177734,20.9228516,116.7177734,20.1591797z"/>
	<path class="st0" d="M118.2421875,18.3310547h0.5390625v0.6308594c0.2382812-0.3925781,0.6162109-0.7080078,1.2402344-0.7080078
		c0.875,0,1.3867188,0.5888672,1.3867188,1.4501953v2.2480469h-0.5400391v-2.1152344
		c0-0.671875-0.3632812-1.0927734-1.0009766-1.0927734c-0.6230469,0-1.0859375,0.4550781-1.0859375,1.1347656v2.0732422h-0.5390625
		V18.3310547z"/>
	<path class="st0" d="M122.6035156,16.8398438h0.5390625v5.1123047h-0.5390625V16.8398438z"/>
	<path class="st0" d="M127.1054688,18.3310547h0.5742188l-1.5195312,3.7402344
		c-0.3085938,0.7490234-0.6582031,1.0224609-1.2050781,1.0224609c-0.3007812,0-0.5253906-0.0634766-0.7705078-0.1816406
		l0.1826172-0.4277344c0.1748047,0.0908203,0.3359375,0.1328125,0.5673828,0.1328125
		c0.3222656,0,0.5253906-0.1679688,0.7421875-0.6787109l-1.6455078-3.6074219h0.5947266l1.3173828,3.0185547L127.1054688,18.3310547
		z"/>
	<path class="st0" d="M127.8671875,21.2167969h0.6445312v0.7353516h-0.6445312V21.2167969z"/>
</g>
<g>
	<path class="st0" d="M0.6933594,25.0507812h3.5439453v0.5039062H1.2460938v1.6738281H3.921875v0.5048828H1.2460938v1.7158203
		h3.0263672v0.5039062H0.6933594V25.0507812z"/>
	<path class="st0" d="M5.3828125,25.0507812h1.8349609c1.1064453,0,1.8349609,0.5878906,1.8349609,1.5546875v0.0136719
		c0,1.0576172-0.8818359,1.6044922-1.9257812,1.6044922H5.9365234v1.7294922H5.3828125V25.0507812z M7.1484375,27.71875
		c0.8125,0,1.3447266-0.4335938,1.3447266-1.078125v-0.0146484c0-0.7001953-0.5253906-1.0644531-1.3173828-1.0644531H5.9365234
		V27.71875H7.1484375z"/>
	<path class="st0" d="M9.8417969,27.515625v-0.0136719c0-1.3867188,1.0371094-2.5351562,2.4794922-2.5351562
		c0.8896484,0,1.421875,0.3144531,1.9121094,0.7773438l-0.3779297,0.40625
		c-0.4130859-0.3925781-0.8759766-0.6728516-1.5410156-0.6728516c-1.0859375,0-1.8974609,0.8828125-1.8974609,2.0097656v0.0146484
		c0,1.1347656,0.8193359,2.0244141,1.8974609,2.0244141c0.6728516,0,1.1132812-0.2597656,1.5830078-0.7080078l0.3642578,0.3574219
		c-0.5117188,0.5185547-1.0712891,0.8613281-1.9609375,0.8613281C10.8857422,30.0371094,9.8417969,28.9238281,9.8417969,27.515625z"
		/>
	<path class="st0" d="M15.2529297,25.0507812h0.5537109v4.390625h2.7597656v0.5117188h-3.3134766V25.0507812z"/>
	<path class="st0" d="M19.3759766,27.9013672v-2.8505859h0.5527344v2.8154297c0,1.0576172,0.5605469,1.6523438,1.4990234,1.6523438
		c0.9033203,0,1.4785156-0.5458984,1.4785156-1.6171875v-2.8505859h0.5527344v2.8085938
		c0,1.4287109-0.8193359,2.1708984-2.0449219,2.1708984C20.2021484,30.0302734,19.3759766,29.2880859,19.3759766,27.9013672z"/>
	<path class="st0" d="M24.4433594,29.2382812l0.34375-0.4052734c0.5107422,0.4619141,1.0009766,0.6933594,1.6806641,0.6933594
		c0.6582031,0,1.0927734-0.3505859,1.0927734-0.8339844v-0.0136719c0-0.4550781-0.2451172-0.7148438-1.2744141-0.9316406
		c-1.1279297-0.2451172-1.6464844-0.609375-1.6464844-1.4150391v-0.0136719c0-0.7705078,0.6796875-1.3378906,1.6113281-1.3378906
		c0.7138672,0,1.2255859,0.203125,1.7226562,0.6025391l-0.3222656,0.4267578
		c-0.4550781-0.3710938-0.9101562-0.5322266-1.4150391-0.5322266c-0.6367188,0-1.0429688,0.3505859-1.0429688,0.7919922v0.0136719
		c0,0.4619141,0.2519531,0.7216797,1.3300781,0.9521484c1.0927734,0.2382812,1.5976562,0.6376953,1.5976562,1.3867188v0.0146484
		c0,0.8398438-0.7011719,1.3867188-1.6738281,1.3867188C25.6689453,30.0234375,25.0322266,29.7636719,24.4433594,29.2382812z"/>
	<path class="st0" d="M30.9550781,25.015625h0.5185547l2.2333984,4.9375h-0.5947266l-0.5742188-1.2958984h-2.6689453
		l-0.5810547,1.2958984h-0.5673828L30.9550781,25.015625z M32.3203125,28.1601562l-1.1132812-2.5l-1.1210938,2.5H32.3203125z"/>
	<path class="st0" d="M36.6796875,26.3320312H37.21875v0.609375c0.2382812-0.3574219,0.5605469-0.6865234,1.1699219-0.6865234
		c0.5878906,0,0.9667969,0.3154297,1.1630859,0.7216797c0.2587891-0.3994141,0.6435547-0.7216797,1.2744141-0.7216797
		c0.8330078,0,1.3447266,0.5605469,1.3447266,1.4570312v2.2412109h-0.5390625v-2.1152344
		c0-0.7001953-0.3505859-1.0927734-0.9384766-1.0927734c-0.546875,0-1.0019531,0.40625-1.0019531,1.1210938v2.0869141h-0.5322266
		v-2.1289062c0-0.6796875-0.3574219-1.0791016-0.9316406-1.0791016S37.21875,27.2216797,37.21875,27.8867188v2.0664062h-0.5390625
		V26.3320312z"/>
	<path class="st0" d="M43.0419922,28.9023438v-0.0136719c0-0.7636719,0.6308594-1.1699219,1.5478516-1.1699219
		c0.4628906,0,0.7919922,0.0634766,1.1142578,0.1542969v-0.1259766c0-0.6513672-0.3994141-0.9873047-1.0791016-0.9873047
		c-0.4267578,0-0.7636719,0.1113281-1.0996094,0.265625l-0.1611328-0.4414062
		c0.3994141-0.1816406,0.7919922-0.3007812,1.3173828-0.3007812c0.5107422,0,0.9033203,0.1328125,1.1689453,0.3994141
		c0.2451172,0.2451172,0.3710938,0.5947266,0.3710938,1.0576172v2.2128906h-0.5175781v-0.5458984
		c-0.2529297,0.3291016-0.6728516,0.6230469-1.3095703,0.6230469
		C43.7216797,30.0302734,43.0419922,29.6445312,43.0419922,28.9023438z M45.7109375,28.6220703v-0.3496094
		c-0.2666016-0.0771484-0.6230469-0.1542969-1.0644531-0.1542969c-0.6796875,0-1.0576172,0.2939453-1.0576172,0.7490234v0.0146484
		c0,0.4550781,0.4199219,0.7207031,0.9101562,0.7207031C45.1640625,29.6025391,45.7109375,29.1962891,45.7109375,28.6220703z"/>
	<path class="st0" d="M49.9462891,26.3320312h0.5742188l-1.5195312,3.7402344
		c-0.3085938,0.7490234-0.6582031,1.0224609-1.2050781,1.0224609c-0.3007812,0-0.5253906-0.0634766-0.7705078-0.1816406
		l0.1826172-0.4277344c0.1748047,0.0908203,0.3359375,0.1328125,0.5673828,0.1328125
		c0.3222656,0,0.5253906-0.1679688,0.7421875-0.6787109l-1.6455078-3.6074219h0.5947266l1.3173828,3.0185547L49.9462891,26.3320312z
		"/>
	<path class="st0" d="M53.4726562,24.8408203h0.5390625v2.1220703c0.2382812-0.3925781,0.6162109-0.7080078,1.2402344-0.7080078
		c0.875,0,1.3867188,0.5888672,1.3867188,1.4501953v2.2480469h-0.5400391v-2.1152344
		c0-0.671875-0.3632812-1.0927734-1.0009766-1.0927734c-0.6230469,0-1.0859375,0.4550781-1.0859375,1.1347656v2.0732422h-0.5390625
		V24.8408203z"/>
	<path class="st0" d="M57.5117188,28.9023438v-0.0136719c0-0.7636719,0.6298828-1.1699219,1.5478516-1.1699219
		c0.4619141,0,0.7910156,0.0634766,1.1132812,0.1542969v-0.1259766c0-0.6513672-0.3994141-0.9873047-1.078125-0.9873047
		c-0.4277344,0-0.7636719,0.1113281-1.0996094,0.265625l-0.1611328-0.4414062
		c0.3994141-0.1816406,0.7910156-0.3007812,1.3164062-0.3007812c0.5117188,0,0.9033203,0.1328125,1.1699219,0.3994141
		c0.2451172,0.2451172,0.3710938,0.5947266,0.3710938,1.0576172v2.2128906h-0.5185547v-0.5458984
		c-0.2519531,0.3291016-0.671875,0.6230469-1.3095703,0.6230469C58.1914062,30.0302734,57.5117188,29.6445312,57.5117188,28.9023438
		z M60.1796875,28.6220703v-0.3496094c-0.265625-0.0771484-0.6230469-0.1542969-1.0644531-0.1542969
		c-0.6787109,0-1.0576172,0.2939453-1.0576172,0.7490234v0.0146484c0,0.4550781,0.4208984,0.7207031,0.9111328,0.7207031
		C59.6337891,29.6025391,60.1796875,29.1962891,60.1796875,28.6220703z"/>
	<path class="st0" d="M61.3398438,26.3320312h0.5957031l1.21875,3.0048828l1.2255859-3.0048828h0.5810547l-1.5761719,3.6494141
		h-0.4755859L61.3398438,26.3320312z"/>
	<path class="st0" d="M65.3798828,28.1533203v-0.0146484c0-1.0429688,0.7353516-1.8837891,1.7363281-1.8837891
		c1.0712891,0,1.6884766,0.8544922,1.6884766,1.9121094c0,0.0703125,0,0.1123047-0.0078125,0.1748047h-2.8710938
		c0.0771484,0.7851562,0.6298828,1.2265625,1.2744141,1.2265625c0.4970703,0,0.8476562-0.203125,1.1416016-0.5117188
		l0.3359375,0.3007812c-0.3632812,0.40625-0.8046875,0.6796875-1.4912109,0.6796875
		C66.1914062,30.0371094,65.3798828,29.2734375,65.3798828,28.1533203z M68.2578125,27.9433594
		c-0.0556641-0.6582031-0.4335938-1.2333984-1.1552734-1.2333984c-0.6308594,0-1.1064453,0.5253906-1.1767578,1.2333984H68.2578125z
		"/>
	<path class="st0" d="M71.8476562,26.3320312h0.5390625v0.7285156c0.2939453-0.4345703,0.7207031-0.8056641,1.3867188-0.8056641
		c0.8681641,0,1.7294922,0.6865234,1.7294922,1.8769531v0.0146484c0,1.1835938-0.8544922,1.8837891-1.7294922,1.8837891
		c-0.6728516,0-1.1064453-0.3642578-1.3867188-0.7705078v1.8134766h-0.5390625V26.3320312z M74.9501953,28.1533203v-0.0146484
		c0-0.8535156-0.5888672-1.4003906-1.2753906-1.4003906c-0.671875,0-1.3095703,0.5673828-1.3095703,1.3935547v0.0146484
		c0,0.8398438,0.6376953,1.4003906,1.3095703,1.4003906C74.3759766,29.546875,74.9501953,29.0283203,74.9501953,28.1533203z"/>
	<path class="st0" d="M76.2714844,28.1601562v-0.0136719c0-1.0224609,0.7978516-1.8916016,1.890625-1.8916016
		c1.0859375,0,1.8837891,0.8544922,1.8837891,1.8769531v0.0146484c0,1.0224609-0.8056641,1.890625-1.8974609,1.890625
		C77.0625,30.0371094,76.2714844,29.1826172,76.2714844,28.1601562z M79.4931641,28.1601562v-0.0136719
		c0-0.7773438-0.5820312-1.4150391-1.3447266-1.4150391c-0.7851562,0-1.3242188,0.6376953-1.3242188,1.4003906v0.0146484
		c0,0.7773438,0.5742188,1.4072266,1.3378906,1.4072266C78.9462891,29.5537109,79.4931641,28.9238281,79.4931641,28.1601562z"/>
	<path class="st0" d="M81.2060547,28.9931641v-2.1845703h-0.5039062v-0.4765625h0.5039062v-1.0927734h0.5390625v1.0927734h1.1494141
		v0.4765625h-1.1494141v2.1152344c0,0.4414062,0.2451172,0.6025391,0.609375,0.6025391
		c0.1826172,0,0.3369141-0.0351562,0.5253906-0.1269531v0.4628906c-0.1884766,0.0976562-0.3916016,0.1542969-0.6513672,0.1542969
		C81.6474609,30.0166016,81.2060547,29.7294922,81.2060547,28.9931641z"/>
	<path class="st0" d="M83.5234375,28.1533203v-0.0146484c0-1.0429688,0.7353516-1.8837891,1.7363281-1.8837891
		c1.0712891,0,1.6884766,0.8544922,1.6884766,1.9121094c0,0.0703125,0,0.1123047-0.0078125,0.1748047h-2.8710938
		c0.0771484,0.7851562,0.6298828,1.2265625,1.2744141,1.2265625c0.4970703,0,0.8476562-0.203125,1.1416016-0.5117188
		l0.3359375,0.3007812c-0.3632812,0.40625-0.8046875,0.6796875-1.4912109,0.6796875
		C84.3349609,30.0371094,83.5234375,29.2734375,83.5234375,28.1533203z M86.4013672,27.9433594
		c-0.0556641-0.6582031-0.4335938-1.2333984-1.1552734-1.2333984c-0.6308594,0-1.1064453,0.5253906-1.1767578,1.2333984H86.4013672z
		"/>
	<path class="st0" d="M87.8916016,26.3320312h0.5390625v0.6308594c0.2382812-0.3925781,0.6162109-0.7080078,1.2392578-0.7080078
		c0.8759766,0,1.3867188,0.5888672,1.3867188,1.4501953v2.2480469h-0.5390625v-2.1152344
		c0-0.671875-0.3642578-1.0927734-1.0019531-1.0927734c-0.6230469,0-1.0849609,0.4550781-1.0849609,1.1347656v2.0732422h-0.5390625
		V26.3320312z"/>
	<path class="st0" d="M92.3925781,28.9931641v-2.1845703h-0.5048828v-0.4765625h0.5048828v-1.0927734h0.5390625v1.0927734h1.1484375
		v0.4765625h-1.1484375v2.1152344c0,0.4414062,0.2451172,0.6025391,0.609375,0.6025391
		c0.1816406,0,0.3359375-0.0351562,0.5253906-0.1269531v0.4628906c-0.1894531,0.0976562-0.3925781,0.1542969-0.6513672,0.1542969
		C92.8339844,30.0166016,92.3925781,29.7294922,92.3925781,28.9931641z"/>
	<path class="st0" d="M95.0449219,24.9453125h0.6162109v0.5957031h-0.6162109V24.9453125z M95.0800781,26.3320312h0.5390625
		v3.6210938h-0.5390625V26.3320312z"/>
	<path class="st0" d="M96.5986328,28.9023438v-0.0136719c0-0.7636719,0.6298828-1.1699219,1.5478516-1.1699219
		c0.4619141,0,0.7910156,0.0634766,1.1132812,0.1542969v-0.1259766c0-0.6513672-0.3994141-0.9873047-1.078125-0.9873047
		c-0.4277344,0-0.7636719,0.1113281-1.0996094,0.265625l-0.1611328-0.4414062
		c0.3994141-0.1816406,0.7910156-0.3007812,1.3164062-0.3007812c0.5117188,0,0.9033203,0.1328125,1.1699219,0.3994141
		c0.2451172,0.2451172,0.3710938,0.5947266,0.3710938,1.0576172v2.2128906h-0.5185547v-0.5458984
		c-0.2519531,0.3291016-0.671875,0.6230469-1.3095703,0.6230469C97.2783203,30.0302734,96.5986328,29.6445312,96.5986328,28.9023438
		z M99.2666016,28.6220703v-0.3496094c-0.265625-0.0771484-0.6230469-0.1542969-1.0644531-0.1542969
		c-0.6787109,0-1.0576172,0.2939453-1.0576172,0.7490234v0.0146484c0,0.4550781,0.4208984,0.7207031,0.9111328,0.7207031
		C98.7207031,29.6025391,99.2666016,29.1962891,99.2666016,28.6220703z"/>
	<path class="st0" d="M100.9736328,24.8408203h0.5390625v5.1123047h-0.5390625V24.8408203z"/>
	<path class="st0" d="M104.8798828,24.9453125h0.6162109v0.5957031h-0.6162109V24.9453125z M104.9150391,26.3320312h0.5390625
		v3.6210938h-0.5390625V26.3320312z"/>
	<path class="st0" d="M106.7070312,26.3320312h0.5390625v0.6308594c0.2382812-0.3925781,0.6162109-0.7080078,1.2392578-0.7080078
		c0.8759766,0,1.3867188,0.5888672,1.3867188,1.4501953v2.2480469h-0.5390625v-2.1152344
		c0-0.671875-0.3642578-1.0927734-1.0019531-1.0927734c-0.6230469,0-1.0849609,0.4550781-1.0849609,1.1347656v2.0732422h-0.5390625
		V26.3320312z"/>
	<path class="st0" d="M111.2080078,28.9931641v-2.1845703h-0.5048828v-0.4765625h0.5048828v-1.0927734h0.5390625v1.0927734
		h1.1484375v0.4765625h-1.1484375v2.1152344c0,0.4414062,0.2451172,0.6025391,0.609375,0.6025391
		c0.1816406,0,0.3359375-0.0351562,0.5253906-0.1269531v0.4628906c-0.1894531,0.0976562-0.3925781,0.1542969-0.6513672,0.1542969
		C111.6494141,30.0166016,111.2080078,29.7294922,111.2080078,28.9931641z"/>
	<path class="st0" d="M113.5175781,28.1533203v-0.0146484c0-1.0429688,0.7353516-1.8837891,1.7363281-1.8837891
		c1.0712891,0,1.6884766,0.8544922,1.6884766,1.9121094c0,0.0703125,0,0.1123047-0.0078125,0.1748047h-2.8710938
		c0.0771484,0.7851562,0.6298828,1.2265625,1.2744141,1.2265625c0.4970703,0,0.8476562-0.203125,1.1416016-0.5117188
		l0.3359375,0.3007812c-0.3632812,0.40625-0.8046875,0.6796875-1.4912109,0.6796875
		C114.3291016,30.0371094,113.5175781,29.2734375,113.5175781,28.1533203z M116.3955078,27.9433594
		c-0.0556641-0.6582031-0.4335938-1.2333984-1.1552734-1.2333984c-0.6308594,0-1.1064453,0.5253906-1.1767578,1.2333984H116.3955078
		z"/>
	<path class="st0" d="M117.8857422,26.3320312h0.5390625v0.9453125c0.265625-0.6015625,0.7910156-1.0361328,1.4775391-1.0078125
		v0.5810547h-0.0419922c-0.7910156,0-1.4355469,0.5673828-1.4355469,1.6601562v1.4423828h-0.5390625V26.3320312z"/>
	<path class="st0" d="M120.2792969,28.9023438v-0.0136719c0-0.7636719,0.6298828-1.1699219,1.5478516-1.1699219
		c0.4619141,0,0.7910156,0.0634766,1.1132812,0.1542969v-0.1259766c0-0.6513672-0.3994141-0.9873047-1.078125-0.9873047
		c-0.4277344,0-0.7636719,0.1113281-1.0996094,0.265625l-0.1611328-0.4414062
		c0.3994141-0.1816406,0.7910156-0.3007812,1.3164062-0.3007812c0.5117188,0,0.9033203,0.1328125,1.1699219,0.3994141
		c0.2451172,0.2451172,0.3710938,0.5947266,0.3710938,1.0576172v2.2128906h-0.5185547v-0.5458984
		c-0.2519531,0.3291016-0.671875,0.6230469-1.3095703,0.6230469
		C120.9589844,30.0302734,120.2792969,29.6445312,120.2792969,28.9023438z M122.9472656,28.6220703v-0.3496094
		c-0.265625-0.0771484-0.6230469-0.1542969-1.0644531-0.1542969c-0.6787109,0-1.0576172,0.2939453-1.0576172,0.7490234v0.0146484
		c0,0.4550781,0.4208984,0.7207031,0.9111328,0.7207031C122.4013672,29.6025391,122.9472656,29.1962891,122.9472656,28.6220703z"/>
	<path class="st0" d="M124.3818359,28.1601562v-0.0136719c0-1.0224609,0.7978516-1.8916016,1.8554688-1.8916016
		c0.6865234,0,1.1132812,0.2871094,1.4501953,0.6445312l-0.3574219,0.3779297
		c-0.2871094-0.3007812-0.609375-0.5458984-1.0996094-0.5458984c-0.7353516,0-1.2958984,0.6230469-1.2958984,1.4003906v0.0146484
		c0,0.7841797,0.5742188,1.4072266,1.3310547,1.4072266c0.4619141,0,0.8193359-0.2304688,1.1064453-0.5390625l0.3427734,0.3222656
		c-0.3642578,0.40625-0.7978516,0.7001953-1.4775391,0.7001953
		C125.1796875,30.0371094,124.3818359,29.1757812,124.3818359,28.1601562z"/>
	<path class="st0" d="M128.7919922,28.9931641v-2.1845703h-0.5048828v-0.4765625h0.5048828v-1.0927734h0.5390625v1.0927734
		h1.1484375v0.4765625h-1.1484375v2.1152344c0,0.4414062,0.2451172,0.6025391,0.609375,0.6025391
		c0.1816406,0,0.3359375-0.0351562,0.5253906-0.1269531v0.4628906c-0.1894531,0.0976562-0.3925781,0.1542969-0.6513672,0.1542969
		C129.2333984,30.0166016,128.7919922,29.7294922,128.7919922,28.9931641z"/>
	<path class="st0" d="M131.4443359,24.9453125h0.6162109v0.5957031h-0.6162109V24.9453125z M131.4794922,26.3320312h0.5390625
		v3.6210938h-0.5390625V26.3320312z"/>
	<path class="st0" d="M133.046875,28.1601562v-0.0136719c0-1.0224609,0.7988281-1.8916016,1.890625-1.8916016
		c1.0859375,0,1.8847656,0.8544922,1.8847656,1.8769531v0.0146484c0,1.0224609-0.8056641,1.890625-1.8984375,1.890625
		C133.8378906,30.0371094,133.046875,29.1826172,133.046875,28.1601562z M136.2685547,28.1601562v-0.0136719
		c0-0.7773438-0.5810547-1.4150391-1.3447266-1.4150391c-0.7841797,0-1.3232422,0.6376953-1.3232422,1.4003906v0.0146484
		c0,0.7773438,0.5742188,1.4072266,1.3369141,1.4072266C135.7226562,29.5537109,136.2685547,28.9238281,136.2685547,28.1601562z"/>
	<path class="st0" d="M137.7929688,26.3320312h0.5390625v0.6308594c0.2382812-0.3925781,0.6162109-0.7080078,1.2402344-0.7080078
		c0.875,0,1.3867188,0.5888672,1.3867188,1.4501953v2.2480469h-0.5400391v-2.1152344
		c0-0.671875-0.3632812-1.0927734-1.0009766-1.0927734c-0.6230469,0-1.0859375,0.4550781-1.0859375,1.1347656v2.0732422h-0.5390625
		V26.3320312z"/>
	<path class="st0" d="M141.8037109,29.4912109l0.2734375-0.3857422c0.3916016,0.2939453,0.8261719,0.4628906,1.2539062,0.4628906
		c0.4335938,0,0.7490234-0.2246094,0.7490234-0.5751953v-0.0136719c0-0.3642578-0.4267578-0.5039062-0.9033203-0.6376953
		c-0.5673828-0.1601562-1.1982422-0.3564453-1.1982422-1.0224609v-0.0136719c0-0.6230469,0.5185547-1.0361328,1.2333984-1.0361328
		c0.4414062,0,0.9316406,0.1533203,1.3027344,0.3984375l-0.2451172,0.40625
		c-0.3369141-0.2167969-0.7216797-0.3496094-1.0722656-0.3496094c-0.4267578,0-0.7001953,0.2236328-0.7001953,0.5253906v0.0136719
		c0,0.3427734,0.4482422,0.4765625,0.9316406,0.6230469c0.5605469,0.1679688,1.1630859,0.3857422,1.1630859,1.0371094V28.9375
		c0,0.6865234-0.5673828,1.0859375-1.2890625,1.0859375C142.7841797,30.0234375,142.2099609,29.8203125,141.8037109,29.4912109z"/>
	<path class="st0" d="M147.3828125,26.3320312h0.5742188l0.9521484,2.90625l0.9736328-2.9199219h0.4482422l0.9804688,2.9199219
		l0.953125-2.90625h0.5605469l-1.2753906,3.6494141h-0.46875l-0.9736328-2.8574219l-0.9804688,2.8574219h-0.4765625
		L147.3828125,26.3320312z"/>
	<path class="st0" d="M153.7314453,24.9453125h0.6171875v0.5957031h-0.6171875V24.9453125z M153.7666016,26.3320312h0.5390625
		v3.6210938h-0.5390625V26.3320312z"/>
	<path class="st0" d="M155.7480469,28.9931641v-2.1845703h-0.5048828v-0.4765625h0.5048828v-1.0927734h0.5390625v1.0927734
		h1.1484375v0.4765625h-1.1484375v2.1152344c0,0.4414062,0.2451172,0.6025391,0.609375,0.6025391
		c0.1816406,0,0.3359375-0.0351562,0.5253906-0.1269531v0.4628906c-0.1894531,0.0976562-0.3925781,0.1542969-0.6513672,0.1542969
		C156.1894531,30.0166016,155.7480469,29.7294922,155.7480469,28.9931641z"/>
	<path class="st0" d="M158.3867188,24.8408203h0.5390625v2.1220703c0.2382812-0.3925781,0.6162109-0.7080078,1.2402344-0.7080078
		c0.875,0,1.3867188,0.5888672,1.3867188,1.4501953v2.2480469h-0.5400391v-2.1152344
		c0-0.671875-0.3632812-1.0927734-1.0009766-1.0927734c-0.6230469,0-1.0859375,0.4550781-1.0859375,1.1347656v2.0732422h-0.5390625
		V24.8408203z"/>
</g>
<g>
	<path class="st0" d="M0.3007812,37.4921875l0.2734375-0.3857422c0.3916016,0.2939453,0.8261719,0.4628906,1.2539062,0.4628906
		c0.4335938,0,0.7490234-0.2246094,0.7490234-0.5751953v-0.0136719c0-0.3642578-0.4267578-0.5039062-0.9033203-0.6376953
		c-0.5673828-0.1601562-1.1982422-0.3564453-1.1982422-1.0224609v-0.0136719c0-0.6230469,0.5185547-1.0361328,1.2333984-1.0361328
		c0.4414062,0,0.9316406,0.1533203,1.3027344,0.3984375l-0.2451172,0.40625
		c-0.3369141-0.2167969-0.7216797-0.3496094-1.0722656-0.3496094c-0.4267578,0-0.7001953,0.2236328-0.7001953,0.5253906v0.0136719
		c0,0.3427734,0.4482422,0.4765625,0.9316406,0.6230469c0.5605469,0.1679688,1.1630859,0.3857422,1.1630859,1.0371094v0.0136719
		c0,0.6865234-0.5673828,1.0859375-1.2890625,1.0859375C1.28125,38.0244141,0.7070312,37.8212891,0.3007812,37.4921875z"/>
	<path class="st0" d="M3.8642578,36.1611328v-0.0136719c0-1.0224609,0.7978516-1.8916016,1.890625-1.8916016
		c1.0859375,0,1.8837891,0.8544922,1.8837891,1.8769531v0.0146484c0,1.0224609-0.8056641,1.890625-1.8974609,1.890625
		C4.6552734,38.0380859,3.8642578,37.1835938,3.8642578,36.1611328z M7.0859375,36.1611328v-0.0136719
		c0-0.7773438-0.5820312-1.4150391-1.3447266-1.4150391c-0.7851562,0-1.3242188,0.6376953-1.3242188,1.4003906v0.0146484
		c0,0.7773438,0.5742188,1.4072266,1.3378906,1.4072266C6.5390625,37.5546875,7.0859375,36.9248047,7.0859375,36.1611328z"/>
	<path class="st0" d="M8.6103516,34.3330078h0.5390625v0.609375c0.2382812-0.3574219,0.5605469-0.6865234,1.1689453-0.6865234
		c0.5888672,0,0.9667969,0.3154297,1.1630859,0.7216797c0.2587891-0.3994141,0.6445312-0.7216797,1.2744141-0.7216797
		c0.8339844,0,1.3447266,0.5605469,1.3447266,1.4570312v2.2412109h-0.5390625v-2.1152344
		c0-0.7001953-0.3505859-1.0927734-0.9384766-1.0927734c-0.5458984,0-1.0019531,0.40625-1.0019531,1.1210938v2.0869141h-0.5322266
		v-2.1289062c0-0.6796875-0.3564453-1.0791016-0.9306641-1.0791016c-0.5751953,0-1.0087891,0.4765625-1.0087891,1.1416016v2.0664062
		H8.6103516V34.3330078z"/>
	<path class="st0" d="M15.0224609,36.1542969v-0.0146484c0-1.0429688,0.7353516-1.8837891,1.7363281-1.8837891
		c1.0712891,0,1.6884766,0.8544922,1.6884766,1.9121094c0,0.0703125,0,0.1123047-0.0078125,0.1748047h-2.8710938
		c0.0771484,0.7851562,0.6298828,1.2265625,1.2744141,1.2265625c0.4970703,0,0.8476562-0.203125,1.1416016-0.5117188
		l0.3359375,0.3007812c-0.3632812,0.40625-0.8046875,0.6796875-1.4912109,0.6796875
		C15.8339844,38.0380859,15.0224609,37.2744141,15.0224609,36.1542969z M17.9003906,35.9443359
		c-0.0556641-0.6582031-0.4335938-1.2333984-1.1552734-1.2333984c-0.6308594,0-1.1064453,0.5253906-1.1767578,1.2333984H17.9003906z
		"/>
	<path class="st0" d="M21.2167969,36.9033203v-0.0136719c0-0.7636719,0.6298828-1.1699219,1.5478516-1.1699219
		c0.4619141,0,0.7910156,0.0634766,1.1132812,0.1542969v-0.1259766c0-0.6513672-0.3994141-0.9873047-1.078125-0.9873047
		c-0.4277344,0-0.7636719,0.1113281-1.0996094,0.265625l-0.1611328-0.4414062
		c0.3994141-0.1816406,0.7910156-0.3007812,1.3164062-0.3007812c0.5117188,0,0.9033203,0.1328125,1.1699219,0.3994141
		c0.2451172,0.2451172,0.3710938,0.5947266,0.3710938,1.0576172v2.2128906h-0.5185547v-0.5458984
		c-0.2519531,0.3291016-0.671875,0.6230469-1.3095703,0.6230469C21.8964844,38.03125,21.2167969,37.6455078,21.2167969,36.9033203z
		 M23.8847656,36.6230469v-0.3496094c-0.265625-0.0771484-0.6230469-0.1542969-1.0644531-0.1542969
		c-0.6787109,0-1.0576172,0.2939453-1.0576172,0.7490234v0.0146484c0,0.4550781,0.4208984,0.7207031,0.9111328,0.7207031
		C23.3388672,37.6035156,23.8847656,37.1972656,23.8847656,36.6230469z"/>
	<path class="st0" d="M25.5429688,34.3330078h0.5390625v0.6308594c0.2382812-0.3925781,0.6162109-0.7080078,1.2402344-0.7080078
		c0.875,0,1.3867188,0.5888672,1.3867188,1.4501953v2.2480469h-0.5400391v-2.1152344
		c0-0.671875-0.3632812-1.0927734-1.0009766-1.0927734c-0.6230469,0-1.0859375,0.4550781-1.0859375,1.1347656v2.0732422h-0.5390625
		V34.3330078z"/>
	<path class="st0" d="M30.0439453,36.9941406v-2.1845703h-0.5039062v-0.4765625h0.5039062v-1.0927734h0.5390625v1.0927734h1.1494141
		v0.4765625h-1.1494141v2.1152344c0,0.4414062,0.2451172,0.6025391,0.609375,0.6025391
		c0.1826172,0,0.3369141-0.0351562,0.5253906-0.1269531v0.4628906c-0.1884766,0.0976562-0.3916016,0.1542969-0.6513672,0.1542969
		C30.4853516,38.0175781,30.0439453,37.7294922,30.0439453,36.9941406z"/>
	<path class="st0" d="M32.6962891,32.9462891h0.6171875v0.5957031h-0.6171875V32.9462891z M32.7314453,34.3330078h0.5390625
		v3.6210938h-0.5390625V34.3330078z"/>
	<path class="st0" d="M34.5234375,34.3330078H35.0625v0.7285156c0.2939453-0.4345703,0.7216797-0.8056641,1.3867188-0.8056641
		c0.8691406,0,1.7304688,0.6865234,1.7304688,1.8769531v0.0146484c0,1.1835938-0.8544922,1.8837891-1.7304688,1.8837891
		c-0.671875,0-1.1064453-0.3642578-1.3867188-0.7705078v1.8144531h-0.5390625V34.3330078z M37.6259766,36.1542969v-0.0146484
		c0-0.8535156-0.5878906-1.4003906-1.2744141-1.4003906c-0.6728516,0-1.3095703,0.5673828-1.3095703,1.3935547v0.0146484
		c0,0.8398438,0.6367188,1.4003906,1.3095703,1.4003906C37.0517578,37.5478516,37.6259766,37.0292969,37.6259766,36.1542969z"/>
	<path class="st0" d="M38.8701172,37.4921875l0.2734375-0.3857422c0.3916016,0.2939453,0.8261719,0.4628906,1.2539062,0.4628906
		c0.4335938,0,0.7490234-0.2246094,0.7490234-0.5751953v-0.0136719c0-0.3642578-0.4267578-0.5039062-0.9033203-0.6376953
		c-0.5673828-0.1601562-1.1982422-0.3564453-1.1982422-1.0224609v-0.0136719c0-0.6230469,0.5185547-1.0361328,1.2333984-1.0361328
		c0.4414062,0,0.9316406,0.1533203,1.3027344,0.3984375l-0.2451172,0.40625
		c-0.3369141-0.2167969-0.7216797-0.3496094-1.0722656-0.3496094c-0.4267578,0-0.7001953,0.2236328-0.7001953,0.5253906v0.0136719
		c0,0.3427734,0.4482422,0.4765625,0.9316406,0.6230469c0.5605469,0.1679688,1.1630859,0.3857422,1.1630859,1.0371094v0.0136719
		c0,0.6865234-0.5673828,1.0859375-1.2890625,1.0859375C39.8505859,38.0244141,39.2763672,37.8212891,38.8701172,37.4921875z"/>
	<path class="st0" d="M45.2626953,34.3330078h0.5742188l-1.5195312,3.7402344
		c-0.3085938,0.7490234-0.6582031,1.0224609-1.2050781,1.0224609c-0.3007812,0-0.5253906-0.0634766-0.7705078-0.1816406
		l0.1826172-0.4277344c0.1748047,0.0908203,0.3359375,0.1328125,0.5673828,0.1328125
		c0.3222656,0,0.5253906-0.1679688,0.7421875-0.6787109l-1.6455078-3.6074219h0.5947266l1.3173828,3.0185547L45.2626953,34.3330078z
		"/>
	<path class="st0" d="M46.2626953,36.1611328v-0.0136719c0-1.0224609,0.7978516-1.8916016,1.8554688-1.8916016
		c0.6865234,0,1.1132812,0.2871094,1.4501953,0.6445312l-0.3574219,0.3779297
		c-0.2871094-0.3007812-0.609375-0.5458984-1.0996094-0.5458984c-0.7353516,0-1.2958984,0.6230469-1.2958984,1.4003906v0.0146484
		c0,0.7841797,0.5742188,1.4072266,1.3310547,1.4072266c0.4619141,0,0.8193359-0.2304688,1.1064453-0.5390625l0.3427734,0.3222656
		c-0.3642578,0.40625-0.7978516,0.7001953-1.4775391,0.7001953C47.0605469,38.0380859,46.2626953,37.1767578,46.2626953,36.1611328z
		"/>
	<path class="st0" d="M50.4833984,32.8417969h0.5390625v2.1220703c0.2382812-0.3925781,0.6162109-0.7080078,1.2402344-0.7080078
		c0.875,0,1.3867188,0.5888672,1.3867188,1.4501953v2.2480469H53.109375v-2.1152344
		c0-0.671875-0.3632812-1.0927734-1.0009766-1.0927734c-0.6230469,0-1.0859375,0.4550781-1.0859375,1.1347656v2.0732422h-0.5390625
		V32.8417969z"/>
	<path class="st0" d="M54.5712891,36.1611328v-0.0136719c0-1.0224609,0.7988281-1.8916016,1.890625-1.8916016
		c1.0859375,0,1.8847656,0.8544922,1.8847656,1.8769531v0.0146484c0,1.0224609-0.8056641,1.890625-1.8984375,1.890625
		C55.3623047,38.0380859,54.5712891,37.1835938,54.5712891,36.1611328z M57.7929688,36.1611328v-0.0136719
		c0-0.7773438-0.5810547-1.4150391-1.3447266-1.4150391c-0.7841797,0-1.3232422,0.6376953-1.3232422,1.4003906v0.0146484
		c0,0.7773438,0.5742188,1.4072266,1.3369141,1.4072266C57.2470703,37.5546875,57.7929688,36.9248047,57.7929688,36.1611328z"/>
	<path class="st0" d="M59.5068359,36.9941406v-2.1845703h-0.5048828v-0.4765625h0.5048828v-1.0927734h0.5390625v1.0927734h1.1484375
		v0.4765625h-1.1484375v2.1152344c0,0.4414062,0.2451172,0.6025391,0.609375,0.6025391
		c0.1816406,0,0.3359375-0.0351562,0.5253906-0.1269531v0.4628906c-0.1894531,0.0976562-0.3925781,0.1542969-0.6513672,0.1542969
		C59.9482422,38.0175781,59.5068359,37.7294922,59.5068359,36.9941406z"/>
	<path class="st0" d="M62.1591797,32.9462891h0.6162109v0.5957031h-0.6162109V32.9462891z M62.1943359,34.3330078h0.5390625
		v3.6210938h-0.5390625V34.3330078z"/>
	<path class="st0" d="M63.7617188,36.1611328v-0.0136719c0-1.0224609,0.7988281-1.8916016,1.8564453-1.8916016
		c0.6855469,0,1.1132812,0.2871094,1.4492188,0.6445312l-0.3574219,0.3779297
		c-0.2871094-0.3007812-0.609375-0.5458984-1.0996094-0.5458984c-0.7353516,0-1.2949219,0.6230469-1.2949219,1.4003906v0.0146484
		c0,0.7841797,0.5742188,1.4072266,1.3300781,1.4072266c0.4628906,0,0.8193359-0.2304688,1.1064453-0.5390625l0.34375,0.3222656
		c-0.3642578,0.40625-0.7988281,0.7001953-1.4775391,0.7001953C64.5605469,38.0380859,63.7617188,37.1767578,63.7617188,36.1611328z
		"/>
	<path class="st0" d="M70.0830078,34.3330078h0.5390625v0.609375c0.2382812-0.3574219,0.5605469-0.6865234,1.1699219-0.6865234
		c0.5878906,0,0.9667969,0.3154297,1.1630859,0.7216797c0.2587891-0.3994141,0.6435547-0.7216797,1.2744141-0.7216797
		c0.8330078,0,1.3447266,0.5605469,1.3447266,1.4570312v2.2412109h-0.5390625v-2.1152344
		c0-0.7001953-0.3505859-1.0927734-0.9384766-1.0927734c-0.546875,0-1.0019531,0.40625-1.0019531,1.1210938v2.0869141H72.5625
		v-2.1289062c0-0.6796875-0.3574219-1.0791016-0.9316406-1.0791016s-1.0087891,0.4765625-1.0087891,1.1416016v2.0664062h-0.5390625
		V34.3330078z"/>
	<path class="st0" d="M76.4951172,36.1542969v-0.0146484c0-1.0429688,0.7353516-1.8837891,1.7363281-1.8837891
		c1.0712891,0,1.6884766,0.8544922,1.6884766,1.9121094c0,0.0703125,0,0.1123047-0.0078125,0.1748047h-2.8710938
		c0.0771484,0.7851562,0.6298828,1.2265625,1.2744141,1.2265625c0.4970703,0,0.8476562-0.203125,1.1416016-0.5117188
		l0.3359375,0.3007812c-0.3632812,0.40625-0.8046875,0.6796875-1.4912109,0.6796875
		C77.3066406,38.0380859,76.4951172,37.2744141,76.4951172,36.1542969z M79.3730469,35.9443359
		c-0.0556641-0.6582031-0.4335938-1.2333984-1.1552734-1.2333984c-0.6308594,0-1.1064453,0.5253906-1.1767578,1.2333984H79.3730469z
		"/>
	<path class="st0" d="M80.6523438,36.1542969v-0.0146484c0-1.1835938,0.8623047-1.8837891,1.7304688-1.8837891
		c0.671875,0,1.1064453,0.3642578,1.3867188,0.7705078v-2.1845703h0.5390625v5.1123047h-0.5390625v-0.7285156
		c-0.2939453,0.4345703-0.7216797,0.8056641-1.3867188,0.8056641C81.5146484,38.03125,80.6523438,37.3447266,80.6523438,36.1542969z
		 M83.7900391,36.1474609v-0.0146484c0-0.8330078-0.6367188-1.3935547-1.3095703-1.3935547
		c-0.7001953,0-1.2744141,0.5185547-1.2744141,1.3935547v0.0146484c0,0.8544922,0.5878906,1.4003906,1.2744141,1.4003906
		C83.1533203,37.5478516,83.7900391,36.9804688,83.7900391,36.1474609z"/>
	<path class="st0" d="M85.5244141,32.9462891h0.6171875v0.5957031h-0.6171875V32.9462891z M85.5595703,34.3330078h0.5390625
		v3.6210938h-0.5390625V34.3330078z"/>
	<path class="st0" d="M87.1279297,36.1611328v-0.0136719c0-1.0224609,0.7978516-1.8916016,1.8554688-1.8916016
		c0.6865234,0,1.1132812,0.2871094,1.4501953,0.6445312l-0.3574219,0.3779297
		c-0.2871094-0.3007812-0.609375-0.5458984-1.0996094-0.5458984c-0.7353516,0-1.2958984,0.6230469-1.2958984,1.4003906v0.0146484
		c0,0.7841797,0.5742188,1.4072266,1.3310547,1.4072266c0.4619141,0,0.8193359-0.2304688,1.1064453-0.5390625l0.3427734,0.3222656
		c-0.3642578,0.40625-0.7978516,0.7001953-1.4775391,0.7001953C87.9257812,38.0380859,87.1279297,37.1767578,87.1279297,36.1611328z
		"/>
	<path class="st0" d="M91.0751953,36.9033203v-0.0136719c0-0.7636719,0.6308594-1.1699219,1.5478516-1.1699219
		c0.4628906,0,0.7919922,0.0634766,1.1142578,0.1542969v-0.1259766c0-0.6513672-0.3994141-0.9873047-1.0791016-0.9873047
		c-0.4267578,0-0.7636719,0.1113281-1.0996094,0.265625l-0.1611328-0.4414062
		c0.3994141-0.1816406,0.7919922-0.3007812,1.3173828-0.3007812c0.5107422,0,0.9033203,0.1328125,1.1689453,0.3994141
		c0.2451172,0.2451172,0.3710938,0.5947266,0.3710938,1.0576172v2.2128906h-0.5175781v-0.5458984
		c-0.2529297,0.3291016-0.6728516,0.6230469-1.3095703,0.6230469C91.7548828,38.03125,91.0751953,37.6455078,91.0751953,36.9033203z
		 M93.7441406,36.6230469v-0.3496094c-0.2666016-0.0771484-0.6230469-0.1542969-1.0644531-0.1542969
		c-0.6796875,0-1.0576172,0.2939453-1.0576172,0.7490234v0.0146484c0,0.4550781,0.4199219,0.7207031,0.9101562,0.7207031
		C93.1972656,37.6035156,93.7441406,37.1972656,93.7441406,36.6230469z"/>
	<path class="st0" d="M95.5556641,36.9941406v-2.1845703h-0.5039062v-0.4765625h0.5039062v-1.0927734h0.5390625v1.0927734h1.1494141
		v0.4765625h-1.1494141v2.1152344c0,0.4414062,0.2451172,0.6025391,0.609375,0.6025391
		c0.1826172,0,0.3369141-0.0351562,0.5253906-0.1269531v0.4628906c-0.1884766,0.0976562-0.3916016,0.1542969-0.6513672,0.1542969
		C95.9970703,38.0175781,95.5556641,37.7294922,95.5556641,36.9941406z"/>
	<path class="st0" d="M98.2089844,32.9462891h0.6162109v0.5957031h-0.6162109V32.9462891z M98.2441406,34.3330078h0.5390625
		v3.6210938h-0.5390625V34.3330078z"/>
	<path class="st0" d="M99.8115234,36.1611328v-0.0136719c0-1.0224609,0.7988281-1.8916016,1.890625-1.8916016
		c1.0859375,0,1.8847656,0.8544922,1.8847656,1.8769531v0.0146484c0,1.0224609-0.8056641,1.890625-1.8984375,1.890625
		C100.6025391,38.0380859,99.8115234,37.1835938,99.8115234,36.1611328z M103.0332031,36.1611328v-0.0136719
		c0-0.7773438-0.5810547-1.4150391-1.3447266-1.4150391c-0.7841797,0-1.3232422,0.6376953-1.3232422,1.4003906v0.0146484
		c0,0.7773438,0.5742188,1.4072266,1.3369141,1.4072266C102.4873047,37.5546875,103.0332031,36.9248047,103.0332031,36.1611328z"/>
	<path class="st0" d="M104.5576172,34.3330078h0.5390625v0.6308594c0.2382812-0.3925781,0.6162109-0.7080078,1.2402344-0.7080078
		c0.875,0,1.3867188,0.5888672,1.3867188,1.4501953v2.2480469h-0.5400391v-2.1152344
		c0-0.671875-0.3632812-1.0927734-1.0009766-1.0927734c-0.6230469,0-1.0859375,0.4550781-1.0859375,1.1347656v2.0732422h-0.5390625
		V34.3330078z"/>
	<path class="st0" d="M108.5683594,37.4921875l0.2734375-0.3857422c0.3916016,0.2939453,0.8261719,0.4628906,1.2539062,0.4628906
		c0.4335938,0,0.7490234-0.2246094,0.7490234-0.5751953v-0.0136719c0-0.3642578-0.4267578-0.5039062-0.9033203-0.6376953
		c-0.5673828-0.1601562-1.1982422-0.3564453-1.1982422-1.0224609v-0.0136719c0-0.6230469,0.5185547-1.0361328,1.2333984-1.0361328
		c0.4414062,0,0.9316406,0.1533203,1.3027344,0.3984375l-0.2451172,0.40625
		c-0.3369141-0.2167969-0.7216797-0.3496094-1.0722656-0.3496094c-0.4267578,0-0.7001953,0.2236328-0.7001953,0.5253906v0.0136719
		c0,0.3427734,0.4482422,0.4765625,0.9316406,0.6230469c0.5605469,0.1679688,1.1630859,0.3857422,1.1630859,1.0371094v0.0136719
		c0,0.6865234-0.5673828,1.0859375-1.2890625,1.0859375C109.5488281,38.0244141,108.9746094,37.8212891,108.5683594,37.4921875z"/>
	<path class="st0" d="M112.2851562,37.21875h0.6445312v0.7353516h-0.6445312V37.21875z"/>
</g>
</svg>
