<?xml version="1.0" encoding="UTF-8"?><svg id="a" xmlns="http://www.w3.org/2000/svg" viewBox="0 0 165.79 14.59"><defs><style>.b{fill:#fff;}</style></defs><g><path class="b" d="M76.19,13.64l.4-.34c.3,.46,.61,.7,1.12,.7,.55,0,.96-.4,.96-1.18v-3.28h.56v3.28c0,.57-.17,1.01-.45,1.29-.27,.27-.64,.41-1.08,.41-.74,0-1.2-.36-1.51-.87Z"/><path class="b" d="M80.39,13.07v-2.25h.54v2.12c0,.67,.36,1.09,1,1.09s1.09-.46,1.09-1.13v-2.07h.53v3.62h-.53v-.63c-.25,.39-.62,.71-1.24,.71-.88,0-1.39-.59-1.39-1.45Z"/><path class="b" d="M84.76,10.82h.54v.63c.24-.39,.62-.71,1.24-.71,.88,0,1.39,.59,1.39,1.45v2.25h-.54v-2.12c0-.67-.36-1.09-1-1.09s-1.09,.46-1.09,1.13v2.07h-.54v-3.62Z"/><path class="b" d="M88.85,12.64h0c0-1.06,.74-1.9,1.74-1.9,1.07,0,1.69,.85,1.69,1.91,0,.07,0,.11,0,.17h-2.87c.08,.79,.63,1.23,1.27,1.23,.5,0,.85-.2,1.14-.51l.34,.3c-.36,.41-.81,.68-1.49,.68-1,0-1.81-.76-1.81-1.88Zm2.88-.21c-.06-.66-.43-1.23-1.16-1.23-.63,0-1.11,.53-1.18,1.23h2.33Z"/><path class="b" d="M95.05,14.02l1.78-1.57c.75-.67,1.02-1.05,1.02-1.54,0-.57-.46-.94-.99-.94-.56,0-.92,.29-1.32,.84l-.41-.29c.44-.66,.9-1.04,1.77-1.04s1.52,.59,1.52,1.39h0c0,.73-.38,1.17-1.24,1.92l-1.31,1.16h2.6v.5h-3.42v-.43Z"/><path class="b" d="M99.34,12.01h0c0-1.39,.82-2.55,2.08-2.55s2.06,1.15,2.06,2.52h0c0,1.39-.81,2.55-2.07,2.55s-2.07-1.15-2.07-2.52Zm3.56,0h0c0-1.08-.59-2.04-1.5-2.04s-1.49,.94-1.49,2.02h0c0,1.09,.59,2.05,1.51,2.05s1.48-.95,1.48-2.02Z"/><path class="b" d="M104.18,14.02l1.78-1.57c.75-.67,1.02-1.05,1.02-1.54,0-.57-.46-.94-.99-.94-.56,0-.92,.29-1.32,.84l-.41-.29c.44-.66,.9-1.04,1.77-1.04s1.52,.59,1.52,1.39h0c0,.73-.38,1.17-1.24,1.92l-1.31,1.16h2.6v.5h-3.42v-.43Z"/><path class="b" d="M108.37,14.02l1.78-1.57c.75-.67,1.02-1.05,1.02-1.54,0-.57-.46-.94-.99-.94-.56,0-.92,.29-1.32,.84l-.41-.29c.44-.66,.9-1.04,1.77-1.04s1.52,.59,1.52,1.39h0c0,.73-.38,1.17-1.24,1.92l-1.31,1.16h2.6v.5h-3.42v-.43Z"/><path class="b" d="M115.07,9.54h.55v4.9h-.55v-4.9Z"/><path class="b" d="M117.06,9.54h.55v2.18h2.83v-2.18h.55v4.9h-.55v-2.21h-2.83v2.21h-.55v-4.9Z"/><path class="b" d="M126.85,14.59l-.65-.58c-.41,.32-.94,.52-1.54,.52-1.49,0-2.49-1.17-2.49-2.52h0c0-1.37,1.02-2.55,2.51-2.55s2.49,1.17,2.49,2.52h0c0,.62-.22,1.21-.58,1.65l.64,.55-.38,.41Zm-1.04-.94l-.92-.79,.37-.41,.92,.83c.27-.35,.41-.79,.41-1.28h0c0-1.13-.81-2.04-1.93-2.04s-1.92,.9-1.92,2.01h0c0,1.13,.81,2.04,1.93,2.04,.43,0,.83-.13,1.13-.36Z"/><path class="b" d="M128.09,12.05h1.95v.57h-1.95v-.57Z"/><path class="b" d="M131.18,9.54h3.54v.5h-2.99v1.67h2.67v.5h-2.67v1.72h3.03v.5h-3.58v-4.9Z"/><path class="b" d="M135.87,9.54h1.83c1.11,0,1.83,.59,1.83,1.55h0c0,1.07-.88,1.62-1.93,1.62h-1.19v1.73h-.55v-4.9Zm1.76,2.67c.81,0,1.34-.43,1.34-1.08h0c0-.71-.53-1.08-1.32-1.08h-1.24v2.16h1.21Z"/><path class="b" d="M140.33,12.01h0c0-1.4,1.04-2.55,2.48-2.55,.89,0,1.42,.31,1.91,.78l-.38,.41c-.41-.39-.88-.67-1.54-.67-1.08,0-1.9,.88-1.9,2.01h0c0,1.15,.82,2.04,1.9,2.04,.67,0,1.11-.26,1.58-.71l.36,.36c-.51,.52-1.07,.86-1.96,.86-1.42,0-2.46-1.11-2.46-2.52Z"/><path class="b" d="M145.41,12.05h1.95v.57h-1.95v-.57Z"/><path class="b" d="M148.24,12.01h0c0-1.39,.82-2.55,2.08-2.55s2.06,1.15,2.06,2.52h0c0,1.39-.81,2.55-2.07,2.55s-2.07-1.15-2.07-2.52Zm3.56,0h0c0-1.08-.59-2.04-1.5-2.04s-1.49,.94-1.49,2.02h0c0,1.09,.59,2.05,1.51,2.05s1.48-.95,1.48-2.02Z"/><path class="b" d="M153.25,12.01h0c0-1.39,.82-2.55,2.08-2.55s2.06,1.15,2.06,2.52h0c0,1.39-.81,2.55-2.07,2.55s-2.07-1.15-2.07-2.52Zm3.56,0h0c0-1.08-.59-2.04-1.5-2.04s-1.49,.94-1.49,2.02h0c0,1.09,.59,2.05,1.51,2.05s1.48-.95,1.48-2.02Z"/><path class="b" d="M158.19,13.75l.36-.4c.43,.41,.9,.67,1.39,.67,.7,0,1.18-.47,1.18-1.09h0c0-.62-.5-1.04-1.22-1.04-.41,0-.74,.13-1.03,.28l-.37-.25,.14-2.39h2.82v.51h-2.34l-.1,1.57c.29-.13,.56-.22,.97-.22,.95,0,1.7,.56,1.7,1.5h0c0,.97-.73,1.62-1.75,1.62-.7,0-1.31-.34-1.75-.78Z"/><path class="b" d="M162.37,14.02l1.78-1.57c.75-.67,1.02-1.05,1.02-1.54,0-.57-.46-.94-.99-.94-.56,0-.92,.29-1.32,.84l-.41-.29c.44-.66,.9-1.04,1.77-1.04s1.52,.59,1.52,1.39h0c0,.73-.38,1.17-1.24,1.92l-1.31,1.16h2.6v.5h-3.42v-.43Z"/></g><g><path class="b" d="M44.18,.84h.52l2.23,4.94h-.6l-.57-1.3h-2.67l-.58,1.3h-.57l2.23-4.94Zm1.37,3.14l-1.11-2.49-1.12,2.49h2.23Z"/><path class="b" d="M47.6,3.98h0c0-1.2,.86-1.9,1.73-1.9,.67,0,1.11,.36,1.39,.77V.67h.54V5.78h-.54v-.73c-.29,.43-.72,.81-1.39,.81-.87,0-1.73-.69-1.73-1.88Zm3.14,0h0c0-.85-.64-1.41-1.31-1.41s-1.27,.52-1.27,1.39h0c0,.87,.6,1.42,1.27,1.42s1.31-.57,1.31-1.4Z"/><path class="b" d="M52.1,2.16h.6l1.22,3,1.23-3h.58l-1.58,3.65h-.48l-1.57-3.65Z"/><path class="b" d="M56.34,3.98h0c0-1.06,.74-1.9,1.74-1.9,1.07,0,1.69,.85,1.69,1.91,0,.07,0,.11,0,.17h-2.87c.08,.79,.63,1.23,1.27,1.23,.5,0,.85-.2,1.14-.51l.34,.3c-.36,.41-.81,.68-1.49,.68-1,0-1.81-.76-1.81-1.88Zm2.88-.21c-.06-.66-.43-1.23-1.16-1.23-.63,0-1.11,.53-1.18,1.23h2.33Z"/><path class="b" d="M60.71,2.16h.54v.95c.27-.6,.79-1.04,1.48-1.01v.58h-.04c-.79,0-1.44,.57-1.44,1.66v1.44h-.54V2.16Z"/><path class="b" d="M63.24,5.32l.27-.39c.39,.29,.83,.46,1.25,.46s.75-.22,.75-.58h0c0-.38-.43-.52-.9-.65-.57-.16-1.2-.36-1.2-1.02h0c0-.64,.52-1.05,1.23-1.05,.44,0,.93,.15,1.3,.4l-.25,.41c-.34-.22-.72-.35-1.07-.35-.43,0-.7,.22-.7,.53h0c0,.36,.45,.49,.93,.64,.56,.17,1.16,.39,1.16,1.04h0c0,.7-.57,1.1-1.29,1.1-.52,0-1.09-.2-1.5-.53Z"/><path class="b" d="M66.81,3.98h0c0-1.06,.74-1.9,1.74-1.9,1.07,0,1.69,.85,1.69,1.91,0,.07,0,.11,0,.17h-2.87c.08,.79,.63,1.23,1.27,1.23,.5,0,.85-.2,1.14-.51l.34,.3c-.36,.41-.81,.68-1.49,.68-1,0-1.81-.76-1.81-1.88Zm2.88-.21c-.06-.66-.43-1.23-1.16-1.23-.63,0-1.11,.53-1.18,1.23h2.33Z"/><path class="b" d="M73.05,3.98h0c0-1.06,.74-1.9,1.74-1.9,1.07,0,1.69,.85,1.69,1.91,0,.07,0,.11,0,.17h-2.87c.08,.79,.63,1.23,1.27,1.23,.5,0,.85-.2,1.14-.51l.34,.3c-.36,.41-.81,.68-1.49,.68-1,0-1.81-.76-1.81-1.88Zm2.88-.21c-.06-.66-.43-1.23-1.16-1.23-.63,0-1.11,.53-1.18,1.23h2.33Z"/><path class="b" d="M77.06,2.16h.6l1.22,3,1.23-3h.58l-1.58,3.65h-.48l-1.57-3.65Z"/><path class="b" d="M81.3,3.98h0c0-1.06,.74-1.9,1.74-1.9,1.07,0,1.69,.85,1.69,1.91,0,.07,0,.11,0,.17h-2.87c.08,.79,.63,1.23,1.27,1.23,.5,0,.85-.2,1.14-.51l.34,.3c-.36,.41-.81,.68-1.49,.68-1,0-1.81-.76-1.81-1.88Zm2.88-.21c-.06-.66-.43-1.23-1.16-1.23-.63,0-1.11,.53-1.18,1.23h2.33Z"/><path class="b" d="M85.67,2.16h.54v.63c.24-.39,.62-.71,1.24-.71,.88,0,1.39,.59,1.39,1.45v2.25h-.54V3.66c0-.67-.36-1.09-1-1.09s-1.09,.46-1.09,1.13v2.07h-.54V2.16Z"/><path class="b" d="M90.17,4.82V2.63h-.5v-.48h.5V1.06h.54v1.09h1.15v.48h-1.15v2.12c0,.44,.25,.6,.61,.6,.18,0,.34-.04,.53-.13v.46c-.19,.1-.39,.15-.65,.15-.58,0-1.02-.29-1.02-1.02Z"/><path class="b" d="M92.51,5.32l.27-.39c.39,.29,.83,.46,1.25,.46s.75-.22,.75-.58h0c0-.38-.43-.52-.9-.65-.57-.16-1.2-.36-1.2-1.02h0c0-.64,.52-1.05,1.23-1.05,.44,0,.93,.15,1.3,.4l-.25,.41c-.34-.22-.72-.35-1.07-.35-.43,0-.7,.22-.7,.53h0c0,.36,.45,.49,.93,.64,.56,.17,1.16,.39,1.16,1.04h0c0,.7-.57,1.1-1.29,1.1-.52,0-1.09-.2-1.5-.53Z"/><path class="b" d="M98.1,5.32l.27-.39c.39,.29,.83,.46,1.25,.46s.75-.22,.75-.58h0c0-.38-.43-.52-.9-.65-.57-.16-1.2-.36-1.2-1.02h0c0-.64,.52-1.05,1.23-1.05,.44,0,.93,.15,1.3,.4l-.25,.41c-.34-.22-.72-.35-1.07-.35-.43,0-.7,.22-.7,.53h0c0,.36,.45,.49,.93,.64,.56,.17,1.16,.39,1.16,1.04h0c0,.7-.57,1.1-1.29,1.1-.52,0-1.09-.2-1.5-.53Z"/><path class="b" d="M101.88,.67h.54V2.79c.24-.39,.62-.71,1.24-.71,.88,0,1.39,.59,1.39,1.45v2.25h-.54V3.66c0-.67-.36-1.09-1-1.09s-1.09,.46-1.09,1.13v2.07h-.54V.67Z"/><path class="b" d="M105.97,3.98h0c0-1.04,.8-1.91,1.89-1.91s1.88,.85,1.88,1.88h0c0,1.04-.81,1.91-1.9,1.91s-1.88-.85-1.88-1.88Zm3.22,0h0c0-.79-.58-1.43-1.34-1.43s-1.32,.64-1.32,1.4h0c0,.79,.57,1.42,1.34,1.42s1.33-.63,1.33-1.39Z"/><path class="b" d="M110.66,4.4V2.16h.54v2.12c0,.67,.36,1.09,1,1.09s1.09-.46,1.09-1.13V2.16h.53v3.62h-.53v-.63c-.25,.39-.62,.71-1.24,.71-.88,0-1.39-.59-1.39-1.45Z"/><path class="b" d="M115.08,.67h.54V5.78h-.54V.67Z"/><path class="b" d="M116.66,3.98h0c0-1.2,.86-1.9,1.73-1.9,.67,0,1.11,.36,1.39,.77V.67h.54V5.78h-.54v-.73c-.29,.43-.72,.81-1.39,.81-.87,0-1.73-.69-1.73-1.88Zm3.14,0h0c0-.85-.64-1.41-1.31-1.41s-1.27,.52-1.27,1.39h0c0,.87,.6,1.42,1.27,1.42s1.31-.57,1.31-1.4Z"/><path class="b" d="M124.16,5.08v.69h-.54V.67h.54V2.89c.29-.43,.72-.81,1.39-.81,.87,0,1.73,.69,1.73,1.88h0c0,1.2-.85,1.9-1.73,1.9-.67,0-1.11-.36-1.39-.77Zm2.56-1.11h0c0-.87-.59-1.42-1.27-1.42s-1.31,.57-1.31,1.39h0c0,.85,.64,1.42,1.31,1.42s1.27-.52,1.27-1.39Z"/><path class="b" d="M128.04,3.98h0c0-1.06,.74-1.9,1.74-1.9,1.07,0,1.69,.85,1.69,1.91,0,.07,0,.11,0,.17h-2.87c.08,.79,.63,1.23,1.27,1.23,.5,0,.85-.2,1.14-.51l.34,.3c-.36,.41-.81,.68-1.49,.68-1,0-1.81-.76-1.81-1.88Zm2.88-.21c-.06-.66-.43-1.23-1.16-1.23-.63,0-1.11,.53-1.18,1.23h2.33Z"/><path class="b" d="M134.51,2.16h.54v.95c.27-.6,.79-1.04,1.48-1.01v.58h-.04c-.79,0-1.44,.57-1.44,1.66v1.44h-.54V2.16Z"/><path class="b" d="M137.12,3.98h0c0-1.06,.74-1.9,1.74-1.9,1.07,0,1.69,.85,1.69,1.91,0,.07,0,.11,0,.17h-2.87c.08,.79,.63,1.23,1.27,1.23,.5,0,.85-.2,1.14-.51l.34,.3c-.36,.41-.81,.68-1.49,.68-1,0-1.81-.76-1.81-1.88Zm2.88-.21c-.06-.66-.43-1.23-1.16-1.23-.63,0-1.11,.53-1.18,1.23h2.33Z"/><path class="b" d="M141.49,2.16h.54v.73c.29-.43,.72-.81,1.39-.81,.87,0,1.73,.69,1.73,1.88h0c0,1.2-.85,1.9-1.73,1.9-.67,0-1.11-.36-1.39-.77v1.81h-.54V2.16Zm3.1,1.82h0c0-.87-.59-1.42-1.27-1.42s-1.31,.57-1.31,1.39h0c0,.85,.64,1.42,1.31,1.42s1.27-.52,1.27-1.39Z"/><path class="b" d="M145.91,3.98h0c0-1.04,.8-1.91,1.89-1.91s1.88,.85,1.88,1.88h0c0,1.04-.81,1.91-1.9,1.91s-1.88-.85-1.88-1.88Zm3.22,0h0c0-.79-.58-1.43-1.34-1.43s-1.32,.64-1.32,1.4h0c0,.79,.57,1.42,1.34,1.42s1.33-.63,1.33-1.39Z"/><path class="b" d="M150.66,2.16h.54v.95c.27-.6,.79-1.04,1.48-1.01v.58h-.04c-.79,0-1.44,.57-1.44,1.66v1.44h-.54V2.16Z"/><path class="b" d="M153.68,4.82V2.63h-.5v-.48h.5V1.06h.54v1.09h1.15v.48h-1.15v2.12c0,.44,.25,.6,.61,.6,.18,0,.34-.04,.53-.13v.46c-.19,.1-.39,.15-.65,.15-.58,0-1.02-.29-1.02-1.02Z"/><path class="b" d="M156.1,3.98h0c0-1.06,.74-1.9,1.74-1.9,1.07,0,1.69,.85,1.69,1.91,0,.07,0,.11,0,.17h-2.87c.08,.79,.63,1.23,1.27,1.23,.5,0,.85-.2,1.14-.51l.34,.3c-.36,.41-.81,.68-1.49,.68-1,0-1.81-.76-1.81-1.88Zm2.88-.21c-.06-.66-.43-1.23-1.16-1.23-.63,0-1.11,.53-1.18,1.23h2.33Z"/><path class="b" d="M160.26,3.98h0c0-1.2,.86-1.9,1.73-1.9,.67,0,1.11,.36,1.39,.77V.67h.54V5.78h-.54v-.73c-.29,.43-.72,.81-1.39,.81-.87,0-1.73-.69-1.73-1.88Zm3.14,0h0c0-.85-.64-1.41-1.31-1.41s-1.27,.52-1.27,1.39h0c0,.87,.6,1.42,1.27,1.42s1.31-.57,1.31-1.4Z"/><path class="b" d="M165.05,5.04h.64v.74h-.64v-.74Z"/></g></svg>