<?xml version="1.0" encoding="utf-8"?>
<!-- Generator: Adobe Illustrator 26.3.1, SVG Export Plug-In . SVG Version: 6.00 Build 0)  -->
<svg version="1.1" id="Layer_1" xmlns="http://www.w3.org/2000/svg" xmlns:xlink="http://www.w3.org/1999/xlink" x="0px" y="0px"
	 viewBox="0 0 345.7825928 90" style="enable-background:new 0 0 345.7825928 90;" xml:space="preserve">
<style type="text/css">
	.st0{fill:#35C4AF;}
	.st1{fill:#FFFFFF;}
</style>
<path class="st0" d="M27.9181519,18.6112061l6.3809814,5.3170166C43.5151367,12.5852051,54.3271484,5.6732178,68.5061035,5.6732178
	c18.0770264,0,29.4200439,15.7739868,29.4200439,30.3070068v0.3549805c0,17.0150146-13.4689941,31.3720093-36.8650513,31.9030151
	l-0.8859863,0.8859863L60.7561035,90h8.3668213l0.62323-14.3178101c20.55896-2.4819946,37.572998-17.7229614,37.572998-39.7019653
	v-0.3540039c0-14.8760376-9.2710571-29.8562622-24.559021-35.6262207h-30.026001
	C42.5608521,3.3945923,34.7856445,10.0563965,27.9181519,18.6112061z"/>
<g>
	<path class="st1" d="M0,32.647522h2.3105469c2.0908203,0,3.5361328,1.4355469,3.5361328,3.3076172v0.0195312
		c0,1.8730469-1.4453125,3.3271484-3.5361328,3.3271484H0V32.647522z M0.7509766,33.3418579v5.265625h1.5595703
		c1.6826172,0,2.7568359-1.140625,2.7568359-2.6142578v-0.0185547c0-1.4736328-1.0742188-2.6328125-2.7568359-2.6328125H0.7509766z"
		/>
	<path class="st1" d="M7.1347656,35.9932251v-0.0185547c0-1.8349609,1.3789062-3.4414062,3.4033203-3.4414062
		c2.0253906,0,3.3847656,1.5878906,3.3847656,3.421875v0.0195312c0,1.8349609-1.3789062,3.4414062-3.4033203,3.4414062
		C8.4941406,39.4160767,7.1347656,37.828186,7.1347656,35.9932251z M13.1425781,35.9932251v-0.0185547
		c0-1.5117188-1.1025391-2.7470703-2.6230469-2.7470703c-1.5214844,0-2.6054688,1.2167969-2.6054688,2.7275391v0.0195312
		c0,1.5117188,1.1035156,2.7470703,2.6240234,2.7470703C12.0595703,38.7217407,13.1425781,37.5049438,13.1425781,35.9932251z"/>
	<path class="st1" d="M15.5039062,32.647522h4.8105469v0.6845703h-4.0595703v2.2714844h3.6318359v0.6845703h-3.6318359v2.3291016
		h4.1074219v0.6845703h-4.8583984V32.647522z"/>
	<path class="st1" d="M21.4316406,38.3320923l0.4658203-0.5507812c0.6943359,0.6269531,1.359375,0.9404297,2.28125,0.9404297
		c0.8935547,0,1.4833984-0.4755859,1.4833984-1.1308594v-0.0195312c0-0.6171875-0.3330078-0.9697266-1.7304688-1.2636719
		c-1.5302734-0.3330078-2.2333984-0.8271484-2.2333984-1.9208984v-0.0185547c0-1.0458984,0.921875-1.8154297,2.1865234-1.8154297
		c0.9697266,0,1.6630859,0.2753906,2.3378906,0.8173828l-0.4365234,0.5800781
		c-0.6181641-0.5039062-1.2363281-0.7226562-1.9208984-0.7226562c-0.8652344,0-1.4160156,0.4746094-1.4160156,1.0742188v0.0185547
		c0,0.6279297,0.3417969,0.9794922,1.8056641,1.2929688c1.4833984,0.3232422,2.1679688,0.8652344,2.1679688,1.8818359v0.0195312
		c0,1.140625-0.9511719,1.8818359-2.2724609,1.8818359C23.0957031,39.3965454,22.2304688,39.0449829,21.4316406,38.3320923z"/>
	<path class="st1" d="M30.3623047,38.3320923l0.4658203-0.5507812c0.6933594,0.6269531,1.359375,0.9404297,2.28125,0.9404297
		c0.8935547,0,1.4824219-0.4755859,1.4824219-1.1308594v-0.0195312c0-0.6171875-0.3320312-0.9697266-1.7294922-1.2636719
		c-1.5302734-0.3330078-2.234375-0.8271484-2.234375-1.9208984v-0.0185547c0-1.0458984,0.921875-1.8154297,2.1865234-1.8154297
		c0.9697266,0,1.6640625,0.2753906,2.3388672,0.8173828l-0.4375,0.5800781
		c-0.6181641-0.5039062-1.2353516-0.7226562-1.9199219-0.7226562c-0.8652344,0-1.4169922,0.4746094-1.4169922,1.0742188v0.0185547
		c0,0.6279297,0.3427734,0.9794922,1.8066406,1.2929688c1.4824219,0.3232422,2.1669922,0.8652344,2.1669922,1.8818359v0.0195312
		c0,1.140625-0.9501953,1.8818359-2.2714844,1.8818359C32.0253906,39.3965454,31.1601562,39.0449829,30.3623047,38.3320923z"/>
	<path class="st1" d="M36.8789062,32.647522h0.7509766v2.9560547h3.8408203V32.647522h0.7509766v6.6542969h-0.7509766v-2.9941406
		h-3.8408203v2.9941406h-0.7509766V32.647522z"/>
	<path class="st1" d="M44.0986328,32.647522h4.8105469v0.6845703h-4.0595703v2.2714844h3.6318359v0.6845703h-3.6318359v2.3291016
		h4.1074219v0.6845703h-4.8583984V32.647522z"/>
	<path class="st1" d="M53.3134766,32.647522h0.7509766v3.9736328l3.8222656-3.9736328h0.9785156l-2.8613281,2.9091797
		l2.9755859,3.7451172h-0.9414062l-2.5566406-3.2226562l-1.4169922,1.4355469v1.7871094h-0.7509766V32.647522z"/>
	<path class="st1" d="M60.1445312,32.647522h0.703125l4.1923828,5.3330078V32.647522h0.7324219v6.6542969h-0.5996094
		l-4.2958984-5.4570312v5.4570312h-0.7324219V32.647522z"/>
	<path class="st1" d="M67.3544922,35.9932251v-0.0185547c0-1.8349609,1.3789062-3.4414062,3.4033203-3.4414062
		c2.0253906,0,3.3847656,1.5878906,3.3847656,3.421875v0.0195312c0,1.8349609-1.3789062,3.4414062-3.4033203,3.4414062
		C68.7138672,39.4160767,67.3544922,37.828186,67.3544922,35.9932251z M73.3623047,35.9932251v-0.0185547
		c0-1.5117188-1.1025391-2.7470703-2.6230469-2.7470703c-1.5214844,0-2.6054688,1.2167969-2.6054688,2.7275391v0.0195312
		c0,1.5117188,1.1035156,2.7470703,2.6240234,2.7470703C72.2792969,38.7217407,73.3623047,37.5049438,73.3623047,35.9932251z"/>
	<path class="st1" d="M74.8779297,32.647522h0.8173828l1.9013672,5.5419922l1.8251953-5.5615234h0.6181641l1.8251953,5.5615234
		l1.9013672-5.5419922h0.7890625l-2.3769531,6.7021484h-0.6367188l-1.8251953-5.3994141l-1.8349609,5.3994141h-0.6269531
		L74.8779297,32.647522z"/>
</g>
<g>
	<path class="st1" d="M0.6464844,42.147522h0.8173828l1.9013672,5.5419922l1.8251953-5.5615234h0.6181641l1.8251953,5.5615234
		l1.9003906-5.5419922h0.7890625l-2.3759766,6.7021484H7.3105469l-1.8251953-5.3994141l-1.8349609,5.3994141H3.0224609
		L0.6464844,42.147522z"/>
	<path class="st1" d="M11.6757812,42.147522h0.7509766v2.9560547h3.8408203V42.147522h0.7509766v6.6542969h-0.7509766v-2.9941406
		h-3.8408203v2.9941406h-0.7509766V42.147522z"/>
	<path class="st1" d="M18.8955078,42.147522h4.8105469v0.6845703h-4.0595703v2.2714844h3.6318359v0.6845703h-3.6318359v2.3291016
		h4.1074219v0.6845703h-4.8583984V42.147522z"/>
	<path class="st1" d="M25.2607422,42.147522h0.7041016l4.1923828,5.3330078V42.147522h0.7314453v6.6542969h-0.5986328
		l-4.296875-5.4570312v5.4570312h-0.7324219V42.147522z"/>
</g>
<g>
	<path class="st1" d="M35.4736328,42.147522H36.9375v2.6328125h2.7001953V42.147522h1.4638672v6.6542969h-1.4638672v-2.6708984
		H36.9375v2.6708984h-1.4638672V42.147522z"/>
	<path class="st1" d="M42.6933594,42.147522h5.0195312v1.3027344h-3.5654297v1.3496094h3.1376953v1.3017578h-3.1376953v1.3974609
		h3.6123047v1.3027344h-5.0664062V42.147522z"/>
	<path class="st1" d="M49.0585938,42.147522h3.0419922c0.8457031,0,1.5019531,0.2373047,1.9394531,0.6748047
		c0.3701172,0.3710938,0.5703125,0.8935547,0.5703125,1.5214844v0.0185547c0,1.0742188-0.5800781,1.7490234-1.4257812,2.0625
		l1.625,2.3769531h-1.7109375l-1.4257812-2.1298828h-1.1503906v2.1298828h-1.4638672V42.147522z M52.0058594,45.3799438
		c0.7128906,0,1.1210938-0.3808594,1.1210938-0.9414062v-0.0195312c0-0.6269531-0.4375-0.9501953-1.1503906-0.9501953h-1.4541016
		v1.9111328H52.0058594z"/>
	<path class="st1" d="M58.7763672,42.147522h1.3505859l3.1181641,4.0966797V42.147522h1.4443359v6.6542969h-1.2451172
		l-3.2226562-4.2304688v4.2304688h-1.4453125V42.147522z"/>
	<path class="st1" d="M66.28125,42.147522h5.0195312v1.3027344h-3.5644531v1.3496094h3.1367188v1.3017578h-3.1367188v1.3974609
		h3.6123047v1.3027344H66.28125V42.147522z"/>
	<path class="st1" d="M78.4169922,42.147522l-2.2246094,3.2509766l2.3203125,3.4033203h-1.7119141l-1.4921875-2.28125
		l-1.5019531,2.28125h-1.6630859l2.3193359-3.3837891l-2.2246094-3.2705078h1.7109375l1.3876953,2.1582031l1.4169922-2.1582031
		H78.4169922z"/>
	<path class="st1" d="M81.1503906,43.4971313H79.125V42.147522h5.5136719v1.3496094h-2.0244141v5.3046875h-1.4638672V43.4971313z"/>
</g>
<g>
	<path class="st1" d="M13.8701172,51.647522h1.578125l1.7490234,2.8134766l1.75-2.8134766h1.578125v6.6542969h-1.4550781v-4.3447266
		l-1.8730469,2.8427734h-0.0371094l-1.8544922-2.8134766v4.3154297h-1.4355469V51.647522z"/>
	<path class="st1" d="M22.1162109,51.647522h5.0195312v1.3027344h-3.5644531v1.3496094h3.1367188v1.3017578h-3.1367188v1.3974609
		h3.6123047v1.3027344h-5.0673828V51.647522z"/>
	<path class="st1" d="M30.7626953,51.5996704h1.3496094l2.8525391,6.7021484h-1.5302734l-0.6083984-1.4921875h-2.8144531
		l-0.6083984,1.4921875h-1.4921875L30.7626953,51.5996704z M32.3027344,55.5166626l-0.8837891-2.1582031l-0.8837891,2.1582031
		H32.3027344z"/>
	<path class="st1" d="M35.9863281,51.647522h1.4638672v5.3232422h3.3173828v1.3310547h-4.78125V51.647522z"/>
</g>
<g>
	<path class="st1" d="M44.3466797,51.647522h0.8173828l1.9013672,5.5419922l1.8251953-5.5615234h0.6181641l1.8251953,5.5615234
		l1.9003906-5.5419922h0.7890625l-2.3759766,6.7021484h-0.6367188l-1.8251953-5.3994141l-1.8349609,5.3994141h-0.6279297
		L44.3466797,51.647522z"/>
	<path class="st1" d="M55.4423828,51.647522h0.7509766v6.6542969h-0.7509766V51.647522z"/>
	<path class="st1" d="M58.140625,51.647522h0.7509766v5.9599609h3.7451172v0.6943359H58.140625V51.647522z"/>
	<path class="st1" d="M63.9824219,51.647522h0.7509766v5.9599609h3.7460938v0.6943359h-4.4970703V51.647522z"/>
	<path class="st1" d="M72.6748047,51.647522h2.8330078c0.7607422,0,1.359375,0.21875,1.7402344,0.5888672
		c0.2753906,0.2851562,0.4277344,0.6376953,0.4277344,1.0654297v0.0185547c0,0.8652344-0.5322266,1.3125-1.0556641,1.5400391
		c0.7890625,0.2382812,1.4257812,0.6943359,1.4257812,1.6064453v0.0195312c0,1.140625-0.9599609,1.8154297-2.4140625,1.8154297
		h-2.9570312V51.647522z M76.9150391,53.406311c0-0.65625-0.5224609-1.0839844-1.4736328-1.0839844h-2.0244141v2.2910156h1.9677734
		c0.9033203,0,1.5302734-0.4091797,1.5302734-1.1884766V53.406311z M75.5175781,55.2783813h-2.1005859v2.3486328h2.2333984
		c1.0078125,0,1.6357422-0.4472656,1.6357422-1.1884766v-0.0185547
		C77.2861328,55.6973267,76.6777344,55.2783813,75.5175781,55.2783813z"/>
	<path class="st1" d="M79.5341797,51.647522h4.8105469v0.6845703h-4.0595703v2.2714844h3.6318359v0.6845703h-3.6318359v2.3291016
		h4.1064453v0.6845703h-4.8574219V51.647522z"/>
</g>
</svg>
