<?xml version="1.0" encoding="utf-8"?>
<!-- Generator: Adobe Illustrator 26.3.1, SVG Export Plug-In . SVG Version: 6.00 Build 0)  -->
<svg version="1.1" id="Layer_1" xmlns="http://www.w3.org/2000/svg" xmlns:xlink="http://www.w3.org/1999/xlink" x="0px" y="0px"
	 viewBox="0 0 345.7825928 90" style="enable-background:new 0 0 345.7825928 90;" xml:space="preserve">
<style type="text/css">
	.st0{fill:#35C4AF;}
	.st1{fill:#FFFFFF;}
</style>
<path class="st0" d="M205.4671173,50.7204247l0.4509888-0.4509964c11.8970032-0.2700005,18.7460022-7.5700035,18.7460022-16.2230034
	v-0.1800003c0-7.3900013-5.7680054-15.4119968-14.9609985-15.4119968c-7.210022,0-12.7080078,3.5149994-17.3940125,9.2829971
	l-3.2449951-2.7040024c5.1369934-6.3989944,11.2650146-10.7249975,20.8190002-10.7249975
	c11.8970032,0,19.5580139,9.7340002,19.5580139,19.3779984v0.1800003c0,11.1760025-8.6520081,18.927002-19.1070251,20.189003
	l-0.5489807,12.6169968h-3.8740234L205.4671173,50.7204247z"/>
<path class="st0" d="M210.6101227,72.9582214c0,1.5100021-1.2240295,2.7330017-2.7340088,2.7330017
	c-1.5090027,0-2.7330017-1.2229996-2.7330017-2.7330017c0-1.5099945,1.223999-2.7330017,2.7330017-2.7330017
	C209.3860931,70.2252197,210.6101227,71.4482269,210.6101227,72.9582214"/>
<g>
	<path class="st1" d="M141.7792969,29.6455688h0.7509766v6.6542969h-0.7509766V29.6455688z"/>
	<path class="st1" d="M144.0390625,35.3301392l0.4658203-0.5507812c0.6943359,0.6269531,1.359375,0.9404297,2.28125,0.9404297
		c0.8935547,0,1.4833984-0.4755859,1.4833984-1.1308594V34.569397c0-0.6171875-0.3330078-0.9697266-1.7304688-1.2636719
		c-1.5302734-0.3330078-2.2333984-0.8271484-2.2333984-1.9208984V31.366272c0-1.0458984,0.921875-1.8154297,2.1865234-1.8154297
		c0.9697266,0,1.6630859,0.2753906,2.3378906,0.8173828l-0.4365234,0.5800781
		c-0.6181641-0.5039062-1.2363281-0.7226562-1.9208984-0.7226562c-0.8652344,0-1.4160156,0.4746094-1.4160156,1.0742188v0.0185547
		c0,0.6279297,0.3417969,0.9794922,1.8056641,1.2929688c1.4833984,0.3232422,2.1679688,0.8652344,2.1679688,1.8818359v0.0195312
		c0,1.140625-0.9511719,1.8818359-2.2724609,1.8818359C145.703125,36.3945923,144.8378906,36.0430298,144.0390625,35.3301392z"/>
	<path class="st1" d="M153.40625,29.6455688h0.7509766v2.9560547h3.8408203v-2.9560547h0.7509766v6.6542969h-0.7509766v-2.9941406
		h-3.8408203v2.9941406H153.40625V29.6455688z"/>
	<path class="st1" d="M160.6259766,29.6455688h4.8105469v0.6845703h-4.0595703v2.2714844h3.6318359v0.6845703h-3.6318359v2.3291016
		h4.1074219v0.6845703h-4.8583984V29.6455688z"/>
	<path class="st1" d="M169.546875,32.991272v-0.0185547c0-1.8349609,1.3779297-3.4414062,3.4033203-3.4414062
		c2.0244141,0,3.3837891,1.5878906,3.3837891,3.421875v0.0195312c0,1.8349609-1.3779297,3.4414062-3.4033203,3.4414062
		C170.90625,36.4141235,169.546875,34.8262329,169.546875,32.991272z M175.5546875,32.991272v-0.0185547
		c0-1.5117188-1.1025391-2.7470703-2.6240234-2.7470703c-1.5205078,0-2.6044922,1.2167969-2.6044922,2.7275391v0.0195312
		c0,1.5117188,1.1025391,2.7470703,2.6240234,2.7470703C174.4707031,35.7197876,175.5546875,34.5029907,175.5546875,32.991272z"/>
	<path class="st1" d="M177.9160156,29.6455688h0.7041016l4.1923828,5.3330078v-5.3330078h0.7314453v6.6542969h-0.5986328
		l-4.296875-5.4570312v5.4570312h-0.7324219V29.6455688z"/>
	<path class="st1" d="M190.7333984,29.5977173h0.703125l3.0322266,6.7021484h-0.8076172l-0.7792969-1.7587891h-3.6220703
		l-0.7890625,1.7587891h-0.7705078L190.7333984,29.5977173z M192.5869141,33.866272l-1.5117188-3.3935547l-1.5205078,3.3935547
		H192.5869141z"/>
	<path class="st1" d="M195.7753906,29.6455688h0.7041016l4.1923828,5.3330078v-5.3330078h0.7314453v6.6542969h-0.5986328
		l-4.296875-5.4570312v5.4570312h-0.7324219V29.6455688z"/>
</g>
<g>
	<path class="st1" d="M124.3095703,39.0977173h1.3496094l2.8525391,6.7021484h-1.5302734l-0.6083984-1.4921875h-2.8144531
		l-0.6083984,1.4921875h-1.4921875L124.3095703,39.0977173z M125.8496094,43.0147095l-0.8837891-2.1582031l-0.8837891,2.1582031
		H125.8496094z"/>
	<path class="st1" d="M129.5332031,39.1455688h1.3496094l3.1181641,4.0966797v-4.0966797h1.4453125v6.6542969h-1.2451172
		l-3.2226562-4.2304688v4.2304688h-1.4453125V39.1455688z"/>
	<path class="st1" d="M138.5878906,40.4951782H136.5625v-1.3496094h5.5136719v1.3496094h-2.0244141v5.3046875h-1.4638672V40.4951782
		z"/>
	<path class="st1" d="M143.2607422,39.1455688h1.4638672v6.6542969h-1.4638672V39.1455688z"/>
	<path class="st1" d="M146.3857422,39.1455688h2.71875c1.5878906,0,2.5478516,0.9414062,2.5478516,2.3007812v0.0185547
		c0,1.5400391-1.1972656,2.3388672-2.6904297,2.3388672h-1.1113281v1.9960938h-1.4648438V39.1455688z M149.0097656,42.5010376
		c0.7324219,0,1.1601562-0.4375,1.1601562-1.0078125v-0.0185547c0-0.65625-0.4570312-1.0078125-1.1884766-1.0078125h-1.1308594
		v2.0341797H149.0097656z"/>
	<path class="st1" d="M152.2753906,44.8301392l0.8652344-1.0361328c0.5986328,0.4941406,1.2265625,0.8076172,1.9873047,0.8076172
		c0.5986328,0,0.9599609-0.2373047,0.9599609-0.6269531v-0.0185547c0-0.3710938-0.2285156-0.5615234-1.3408203-0.8466797
		c-1.3398438-0.3417969-2.2050781-0.7128906-2.2050781-2.0341797v-0.0185547c0-1.2080078,0.9697266-2.0058594,2.3291016-2.0058594
		c0.9697266,0,1.7958984,0.3037109,2.4716797,0.8457031l-0.7607422,1.1025391
		c-0.5898438-0.4082031-1.1689453-0.65625-1.7304688-0.65625c-0.5605469,0-0.8554688,0.2568359-0.8554688,0.5800781v0.0195312
		c0,0.4375,0.2851562,0.5800781,1.4355469,0.8740234c1.3496094,0.3515625,2.1103516,0.8369141,2.1103516,1.9970703v0.0185547
		c0,1.3212891-1.0078125,2.0625-2.4433594,2.0625C154.0908203,45.8945923,153.0742188,45.5430298,152.2753906,44.8301392z"/>
	<path class="st1" d="M160.4091797,43.1758423l-2.5566406-4.0302734h1.7109375l1.5869141,2.6708984l1.6162109-2.6708984h1.6640625
		l-2.5576172,4.0019531v2.6523438h-1.4638672V43.1758423z"/>
	<path class="st1" d="M164.4833984,42.491272v-0.0185547c0-1.8916016,1.4257812-3.4414062,3.4697266-3.4414062
		c1.2548828,0,2.0058594,0.4179688,2.6230469,1.0263672l-0.9316406,1.0742188
		c-0.5126953-0.4658203-1.0361328-0.7509766-1.7011719-0.7509766c-1.1220703,0-1.9296875,0.9316406-1.9296875,2.0722656v0.0195312
		c0,1.140625,0.7890625,2.0917969,1.9296875,2.0917969c0.7607422,0,1.2265625-0.3046875,1.7490234-0.7802734l0.9316406,0.9414062
		c-0.6845703,0.7324219-1.4453125,1.1884766-2.7285156,1.1884766C165.9375,45.9141235,164.4833984,44.4024048,164.4833984,42.491272
		z"/>
	<path class="st1" d="M171.7890625,39.1455688h1.4638672v2.6328125h2.7001953v-2.6328125h1.4638672v6.6542969h-1.4638672v-2.6708984
		h-2.7001953v2.6708984h-1.4638672V39.1455688z"/>
	<path class="st1" d="M178.7138672,42.491272v-0.0185547c0-1.8916016,1.4921875-3.4414062,3.5458984-3.4414062
		s3.5273438,1.5302734,3.5273438,3.421875v0.0195312c0,1.8916016-1.4931641,3.4414062-3.5458984,3.4414062
		C180.1875,45.9141235,178.7138672,44.3838501,178.7138672,42.491272z M184.2558594,42.491272v-0.0185547
		c0-1.140625-0.8359375-2.0917969-2.0146484-2.0917969s-1.9970703,0.9316406-1.9970703,2.0722656v0.0195312
		c0,1.140625,0.8369141,2.0917969,2.015625,2.0917969S184.2558594,43.6328735,184.2558594,42.491272z"/>
	<path class="st1" d="M188.3574219,40.4951782h-2.0244141v-1.3496094h5.5136719v1.3496094h-2.0253906v5.3046875h-1.4638672
		V40.4951782z"/>
	<path class="st1" d="M193.03125,39.1455688h1.4638672v6.6542969H193.03125V39.1455688z"/>
	<path class="st1" d="M195.8613281,42.491272v-0.0185547c0-1.8916016,1.4257812-3.4414062,3.4697266-3.4414062
		c1.2548828,0,2.0058594,0.4179688,2.6240234,1.0263672l-0.9316406,1.0742188
		c-0.5136719-0.4658203-1.0361328-0.7509766-1.7021484-0.7509766c-1.1210938,0-1.9296875,0.9316406-1.9296875,2.0722656v0.0195312
		c0,1.140625,0.7890625,2.0917969,1.9296875,2.0917969c0.7607422,0,1.2265625-0.3046875,1.75-0.7802734l0.9316406,0.9414062
		c-0.6845703,0.7324219-1.4453125,1.1884766-2.7285156,1.1884766
		C197.3164062,45.9141235,195.8613281,44.4024048,195.8613281,42.491272z"/>
</g>
<g>
	<path class="st1" d="M157.1494141,48.6455688h3.0419922c0.8457031,0,1.5019531,0.2373047,1.9394531,0.6748047
		c0.3701172,0.3710938,0.5703125,0.8935547,0.5703125,1.5214844v0.0185547c0,1.0742188-0.5800781,1.7490234-1.4257812,2.0625
		l1.625,2.3769531h-1.7109375l-1.4257812-2.1298828h-1.1503906v2.1298828h-1.4638672V48.6455688z M160.0966797,51.8779907
		c0.7128906,0,1.1210938-0.3808594,1.1210938-0.9414062v-0.0195312c0-0.6269531-0.4375-0.9501953-1.1503906-0.9501953h-1.4541016
		v1.9111328H160.0966797z"/>
	<path class="st1" d="M164.0175781,48.6455688h5.0195312v1.3027344h-3.5644531v1.3496094h3.1367188v1.3017578h-3.1367188v1.3974609
		h3.6123047v1.3027344h-5.0673828V48.6455688z"/>
	<path class="st1" d="M170.0878906,51.991272v-0.0185547c0-1.8916016,1.4736328-3.4414062,3.4892578-3.4414062
		c1.1972656,0,1.9199219,0.3232422,2.6142578,0.9130859l-0.9228516,1.1123047
		c-0.5126953-0.4277344-0.96875-0.6757812-1.7392578-0.6757812c-1.0644531,0-1.9111328,0.9414062-1.9111328,2.0722656v0.0195312
		c0,1.2167969,0.8369141,2.1103516,2.015625,2.1103516c0.5322266,0,1.0078125-0.1328125,1.3789062-0.3994141v-0.9501953h-1.4736328
		V51.468811h2.8896484v2.8896484c-0.6845703,0.5800781-1.6259766,1.0556641-2.8427734,1.0556641
		C171.5136719,55.4141235,170.0878906,53.9590454,170.0878906,51.991272z"/>
	<path class="st1" d="M177.8974609,48.6455688h1.4638672v6.6542969h-1.4638672V48.6455688z"/>
	<path class="st1" d="M181.0224609,48.6455688h1.578125l1.7490234,2.8134766l1.75-2.8134766h1.578125v6.6542969h-1.4550781
		v-4.3447266l-1.8730469,2.8427734H184.3125l-1.8544922-2.8134766v4.3154297h-1.4355469V48.6455688z"/>
	<path class="st1" d="M189.2685547,48.6455688h5.0195312v1.3027344h-3.5654297v1.3496094h3.1376953v1.3017578h-3.1376953v1.3974609
		h3.6123047v1.3027344h-5.0664062V48.6455688z"/>
	<path class="st1" d="M195.6337891,48.6455688h1.3496094l3.1181641,4.0966797v-4.0966797h1.4453125v6.6542969h-1.2451172
		l-3.2226562-4.2304688v4.2304688h-1.4453125V48.6455688z"/>
</g>
</svg>
