<?xml version="1.0" encoding="utf-8"?>
<!-- Generator: Adobe Illustrator 26.3.1, SVG Export Plug-In . SVG Version: 6.00 Build 0)  -->
<svg version="1.1" id="Layer_1" xmlns="http://www.w3.org/2000/svg" xmlns:xlink="http://www.w3.org/1999/xlink" x="0px" y="0px"
	 viewBox="0 0 345.7825928 90" style="enable-background:new 0 0 345.7825928 90;" xml:space="preserve">
<style type="text/css">
	.st0{fill:#35C4AF;}
	.st1{fill:#FFFFFF;}
</style>
<path class="st0" d="M266.3815918,18.6112061l6.3810425,5.3170166
	c9.2160034-11.3430176,20.0279541-18.2550049,34.2069702-18.2550049c18.0770264,0,29.4199829,15.7739868,29.4199829,30.3070068
	v0.3549805c0,17.0150146-13.4689941,31.3720093-36.8649902,31.9030151l-0.8859863,0.8859863L299.2196045,90h8.3667603
	l0.62323-14.3178101c20.559021-2.4819946,37.572998-17.7229614,37.572998-39.7019653v-0.3540039
	c0-14.8760376-9.2709961-29.8562622-24.55896-35.6262207h-30.026001
	C281.024353,3.3945923,273.2490845,10.0563965,266.3815918,18.6112061z"/>
<g>
	<path class="st1" d="M257.2890625,28.2207642h0.8173828l1.9013672,5.5419922l1.8251953-5.5615234h0.6181641l1.8251953,5.5615234
		l1.9003906-5.5419922h0.7890625l-2.3759766,6.7021484h-0.6367188l-1.8251953-5.3994141l-1.8349609,5.3994141h-0.6279297
		L257.2890625,28.2207642z"/>
	<path class="st1" d="M268.3857422,28.2207642h0.7509766v6.6542969h-0.7509766V28.2207642z"/>
	<path class="st1" d="M271.0830078,28.2207642h0.7509766v5.9599609h3.7451172v0.6943359h-4.4960938V28.2207642z"/>
	<path class="st1" d="M276.9248047,28.2207642h0.7509766v5.9599609h3.7460938v0.6943359h-4.4970703V28.2207642z"/>
	<path class="st1" d="M285.6171875,28.2207642h0.7509766v2.9560547h3.8408203v-2.9560547h0.7509766v6.6542969h-0.7509766v-2.9941406
		h-3.8408203v2.9941406h-0.7509766V28.2207642z"/>
	<path class="st1" d="M292.8378906,28.2207642h4.8105469v0.6845703h-4.0595703v2.2714844h3.6318359v0.6845703h-3.6318359v2.3291016
		h4.1064453v0.6845703h-4.8574219V28.2207642z"/>
	<path class="st1" d="M302.0527344,28.2207642h2.8330078c0.7607422,0,1.359375,0.21875,1.7392578,0.5888672
		c0.2753906,0.2861328,0.4277344,0.6376953,0.4277344,1.0654297v0.0185547c0,0.8652344-0.5322266,1.3125-1.0546875,1.5400391
		c0.7890625,0.2382812,1.4257812,0.6943359,1.4257812,1.6064453v0.0195312c0,1.140625-0.9599609,1.8154297-2.4150391,1.8154297
		h-2.9560547V28.2207642z M306.2919922,29.9795532c0-0.65625-0.5224609-1.0839844-1.4726562-1.0839844h-2.0253906v2.2910156
		h1.9677734c0.9033203,0,1.5302734-0.4091797,1.5302734-1.1884766V29.9795532z M304.8955078,31.8516235h-2.1015625v2.3486328
		h2.234375c1.0078125,0,1.6347656-0.4472656,1.6347656-1.1884766v-0.0185547
		C306.6630859,32.2705688,306.0546875,31.8516235,304.8955078,31.8516235z"/>
	<path class="st1" d="M308.9111328,28.2207642h4.8105469v0.6845703h-4.0595703v2.2714844h3.6318359v0.6845703h-3.6318359v2.3291016
		h4.1074219v0.6845703h-4.8583984V28.2207642z"/>
</g>
<g>
	<path class="st1" d="M244.7294922,37.7207642H247.5625c0.7607422,0,1.359375,0.21875,1.7402344,0.5888672
		c0.2753906,0.2861328,0.4277344,0.6376953,0.4277344,1.0654297v0.0185547c0,0.8652344-0.5322266,1.3125-1.0556641,1.5400391
		c0.7890625,0.2382812,1.4257812,0.6943359,1.4257812,1.6064453v0.0195312c0,1.140625-0.9599609,1.8154297-2.4140625,1.8154297
		h-2.9570312V37.7207642z M248.9697266,39.4795532c0-0.65625-0.5224609-1.0839844-1.4736328-1.0839844h-2.0244141v2.2910156
		h1.9677734c0.9033203,0,1.5302734-0.4091797,1.5302734-1.1884766V39.4795532z M247.5722656,41.3516235h-2.1005859v2.3486328
		h2.2333984c1.0078125,0,1.6357422-0.4472656,1.6357422-1.1884766v-0.0185547
		C249.3408203,41.7705688,248.7324219,41.3516235,247.5722656,41.3516235z"/>
	<path class="st1" d="M253.9560547,37.6729126h0.703125l3.0322266,6.7021484h-0.8076172l-0.7792969-1.7587891h-3.6220703
		l-0.7890625,1.7587891h-0.7705078L253.9560547,37.6729126z M255.8095703,41.9414673l-1.5117188-3.3935547l-1.5205078,3.3935547
		H255.8095703z"/>
	<path class="st1" d="M258.3242188,41.0664673v-0.0185547c0-1.8818359,1.40625-3.4414062,3.3652344-3.4414062
		c1.2070312,0,1.9296875,0.4277344,2.5947266,1.0556641l-0.5136719,0.5507812
		c-0.5605469-0.5322266-1.1875-0.9121094-2.0908203-0.9121094c-1.4736328,0-2.5761719,1.1972656-2.5761719,2.7285156v0.0185547
		c0,1.5400391,1.1123047,2.7470703,2.5761719,2.7470703c0.9121094,0,1.5117188-0.3515625,2.1484375-0.9599609l0.4941406,0.484375
		c-0.6943359,0.7041016-1.4541016,1.1699219-2.6621094,1.1699219
		C259.7402344,44.4893188,258.3242188,42.9776001,258.3242188,41.0664673z"/>
	<path class="st1" d="M265.6669922,37.7207642h0.7509766v3.9736328l3.8222656-3.9736328h0.9785156l-2.8613281,2.9091797
		l2.9755859,3.7451172h-0.9414062l-2.5566406-3.2226562l-1.4169922,1.4355469v1.7871094h-0.7509766V37.7207642z"/>
	<path class="st1" d="M275.3476562,37.7207642h4.7822266v0.6943359h-4.03125v2.3759766h3.6035156v0.6845703h-3.6035156v2.8994141
		h-0.7509766V37.7207642z"/>
	<path class="st1" d="M281.1523438,41.0664673v-0.0185547c0-1.8349609,1.3779297-3.4414062,3.4033203-3.4414062
		c2.0244141,0,3.3837891,1.5878906,3.3837891,3.4228516v0.0185547c0,1.8349609-1.3779297,3.4414062-3.4033203,3.4414062
		C282.5117188,44.4893188,281.1523438,42.9014282,281.1523438,41.0664673z M287.1601562,41.0664673v-0.0185547
		c0-1.5117188-1.1025391-2.7470703-2.6240234-2.7470703c-1.5205078,0-2.6044922,1.2167969-2.6044922,2.7285156v0.0185547
		c0,1.5117188,1.1025391,2.7470703,2.6240234,2.7470703C286.0761719,43.7949829,287.1601562,42.578186,287.1601562,41.0664673z"/>
	<path class="st1" d="M289.5214844,37.7207642h2.8623047c0.8173828,0,1.4726562,0.2470703,1.8916016,0.6650391
		c0.3232422,0.3232422,0.5126953,0.7890625,0.5126953,1.3125v0.0185547c0,1.1025391-0.7597656,1.7490234-1.8056641,1.9394531
		l2.0439453,2.71875h-0.9228516l-1.9296875-2.5859375h-1.9013672v2.5859375h-0.7509766V37.7207642z M292.3164062,41.1143188
		c0.9980469,0,1.7119141-0.5136719,1.7119141-1.3691406v-0.0185547c0-0.8173828-0.6279297-1.3115234-1.7021484-1.3115234h-2.0537109
		v2.6992188H292.3164062z"/>
	<path class="st1" d="M299.2402344,37.7207642h0.7509766v2.9560547h3.8408203v-2.9560547h0.7509766v6.6542969h-0.7509766v-2.9941406
		h-3.8408203v2.9941406h-0.7509766V37.7207642z"/>
	<path class="st1" d="M306.5263672,37.7207642h0.7509766v6.6542969h-0.7509766V37.7207642z"/>
	<path class="st1" d="M308.7871094,43.4053345l0.4658203-0.5517578c0.6943359,0.6279297,1.359375,0.9414062,2.28125,0.9414062
		c0.8935547,0,1.4833984-0.4755859,1.4833984-1.1308594v-0.0195312c0-0.6171875-0.3330078-0.9697266-1.7304688-1.2636719
		c-1.5302734-0.3330078-2.2333984-0.8271484-2.2333984-1.9208984v-0.0185547c0-1.0458984,0.921875-1.8154297,2.1865234-1.8154297
		c0.9697266,0,1.6630859,0.2753906,2.3378906,0.8173828l-0.4365234,0.5800781
		c-0.6181641-0.5039062-1.2363281-0.7226562-1.9208984-0.7226562c-0.8652344,0-1.4160156,0.4746094-1.4160156,1.0742188v0.0185547
		c0,0.6279297,0.3417969,0.9794922,1.8056641,1.2929688c1.4833984,0.3232422,2.1679688,0.8652344,2.1679688,1.8818359v0.0195312
		c0,1.140625-0.9511719,1.8818359-2.2724609,1.8818359C310.4511719,44.4697876,309.5859375,44.1182251,308.7871094,43.4053345z"/>
</g>
<g>
	<path class="st1" d="M254.0205078,47.2207642h5.0673828v1.3310547h-3.6025391v1.4160156h3.1748047v1.3310547h-3.1748047v2.5761719
		h-1.4648438V47.2207642z"/>
	<path class="st1" d="M259.9580078,50.5664673v-0.0185547c0-1.8916016,1.4921875-3.4414062,3.5458984-3.4414062
		s3.5273438,1.5302734,3.5273438,3.4228516v0.0185547c0,1.8916016-1.4931641,3.4414062-3.5458984,3.4414062
		C261.4316406,53.9893188,259.9580078,52.4590454,259.9580078,50.5664673z M265.5,50.5664673v-0.0185547
		c0-1.140625-0.8359375-2.0917969-2.0146484-2.0917969s-1.9970703,0.9316406-1.9970703,2.0732422v0.0185547
		c0,1.140625,0.8369141,2.0917969,2.015625,2.0917969S265.5,51.7080688,265.5,50.5664673z"/>
	<path class="st1" d="M268.3271484,47.2207642h1.4648438v5.3232422h3.3173828v1.3310547h-4.7822266V47.2207642z"/>
	<path class="st1" d="M274.2080078,47.2207642h1.4638672v5.3232422h3.3173828v1.3310547h-4.78125V47.2207642z"/>
	<path class="st1" d="M279.4238281,50.5664673v-0.0185547c0-1.8916016,1.4921875-3.4414062,3.5458984-3.4414062
		c2.0527344,0,3.5263672,1.5302734,3.5263672,3.4228516v0.0185547c0,1.8916016-1.4921875,3.4414062-3.5458984,3.4414062
		C280.8974609,53.9893188,279.4238281,52.4590454,279.4238281,50.5664673z M284.9658203,50.5664673v-0.0185547
		c0-1.140625-0.8369141-2.0917969-2.015625-2.0917969s-1.9960938,0.9316406-1.9960938,2.0732422v0.0185547
		c0,1.140625,0.8369141,2.0917969,2.015625,2.0917969S284.9658203,51.7080688,284.9658203,50.5664673z"/>
	<path class="st1" d="M286.9091797,47.2207642h1.5683594l1.3779297,4.5058594l1.4931641-4.5253906h1.2548828l1.4921875,4.5253906
		l1.3779297-4.5058594h1.53125l-2.2724609,6.7021484h-1.2734375l-1.5019531-4.3544922l-1.5019531,4.3544922h-1.2744141
		L286.9091797,47.2207642z"/>
	<path class="st1" d="M297.4345703,50.234436h2.9287109v1.3876953h-2.9287109V50.234436z"/>
	<path class="st1" d="M301.5292969,51.0234985v-3.8027344h1.4638672v3.7646484c0,1.0830078,0.5419922,1.6445312,1.4355469,1.6445312
		s1.4355469-0.5419922,1.4355469-1.5976562v-3.8115234h1.4638672v3.7548828c0,2.015625-1.1308594,3.0039062-2.9179688,3.0039062
		S301.5292969,52.9815063,301.5292969,51.0234985z"/>
	<path class="st1" d="M308.8164062,47.2207642h2.71875c1.5878906,0,2.5478516,0.9414062,2.5478516,2.3007812v0.0185547
		c0,1.5400391-1.1982422,2.3388672-2.6904297,2.3388672h-1.1123047v1.9960938h-1.4638672V47.2207642z M311.4404297,50.5762329
		c0.7314453,0,1.1591797-0.4375,1.1591797-1.0078125v-0.0185547c0-0.65625-0.4560547-1.0078125-1.1884766-1.0078125h-1.1308594
		v2.0341797H311.4404297z"/>
</g>
<g>
	<path class="st1" d="M244.0195312,56.6729126h1.3496094l2.8515625,6.7021484h-1.5302734l-0.6083984-1.4921875h-2.8134766
		l-0.6083984,1.4921875h-1.4931641L244.0195312,56.6729126z M245.5595703,60.5899048l-0.8847656-2.1582031l-0.8837891,2.1582031
		H245.5595703z"/>
	<path class="st1" d="M249.2421875,56.7207642h2.71875c1.5878906,0,2.5478516,0.9414062,2.5478516,2.3007812v0.0185547
		c0,1.5400391-1.1972656,2.3388672-2.6904297,2.3388672h-1.1113281v1.9960938h-1.4648438V56.7207642z M251.8662109,60.0762329
		c0.7324219,0,1.1601562-0.4375,1.1601562-1.0078125v-0.0185547c0-0.65625-0.4570312-1.0078125-1.1884766-1.0078125h-1.1308594
		v2.0341797H251.8662109z"/>
	<path class="st1" d="M255.5888672,56.7207642h2.71875c1.5878906,0,2.5478516,0.9414062,2.5478516,2.3007812v0.0185547
		c0,1.5400391-1.1982422,2.3388672-2.6904297,2.3388672h-1.1123047v1.9960938h-1.4638672V56.7207642z M258.2128906,60.0762329
		c0.7314453,0,1.1591797-0.4375,1.1591797-1.0078125v-0.0185547c0-0.65625-0.4560547-1.0078125-1.1884766-1.0078125h-1.1308594
		v2.0341797H258.2128906z"/>
	<path class="st1" d="M261.6396484,60.0664673v-0.0185547c0-1.8916016,1.4921875-3.4414062,3.5458984-3.4414062
		s3.5273438,1.5302734,3.5273438,3.4228516v0.0185547c0,1.8916016-1.4931641,3.4414062-3.5458984,3.4414062
		C263.1132812,63.4893188,261.6396484,61.9590454,261.6396484,60.0664673z M267.1816406,60.0664673v-0.0185547
		c0-1.140625-0.8359375-2.0917969-2.0146484-2.0917969s-1.9970703,0.9316406-1.9970703,2.0732422v0.0185547
		c0,1.140625,0.8369141,2.0917969,2.015625,2.0917969S267.1816406,61.2080688,267.1816406,60.0664673z"/>
	<path class="st1" d="M270.0761719,56.7207642h1.4638672v6.6542969h-1.4638672V56.7207642z"/>
	<path class="st1" d="M273.2011719,56.7207642h1.3505859l3.1181641,4.0966797v-4.0966797h1.4443359v6.6542969h-1.2451172
		l-3.2226562-4.2304688v4.2304688h-1.4453125V56.7207642z"/>
	<path class="st1" d="M282.2558594,58.0703735h-2.0244141v-1.3496094h5.5136719v1.3496094h-2.0253906v5.3046875h-1.4638672
		V58.0703735z"/>
	<path class="st1" d="M286.8623047,56.7207642h1.578125l1.7490234,2.8134766l1.7490234-2.8134766h1.578125v6.6542969H292.0625
		v-4.3447266l-1.8730469,2.8427734h-0.0380859l-1.8535156-2.8134766v4.3154297h-1.4355469V56.7207642z"/>
	<path class="st1" d="M295.1083984,56.7207642h5.0195312v1.3027344H296.5625v1.3496094h3.1376953v1.3017578H296.5625v1.3974609
		h3.6123047v1.3027344h-5.0664062V56.7207642z"/>
	<path class="st1" d="M301.4736328,56.7207642h1.3496094l3.1181641,4.0966797v-4.0966797h1.4453125v6.6542969h-1.2451172
		l-3.2226562-4.2304688v4.2304688h-1.4453125V56.7207642z"/>
	<path class="st1" d="M310.5283203,58.0703735h-2.0253906v-1.3496094h5.5136719v1.3496094h-2.0244141v5.3046875h-1.4638672
		V58.0703735z"/>
</g>
</svg>
