<?xml version="1.0" encoding="utf-8"?>
<!-- Generator: Adobe Illustrator 26.3.1, SVG Export Plug-In . SVG Version: 6.00 Build 0)  -->
<svg version="1.1" id="Layer_1" xmlns="http://www.w3.org/2000/svg" xmlns:xlink="http://www.w3.org/1999/xlink" x="0px" y="0px"
	 viewBox="0 0 345.7825928 90" style="enable-background:new 0 0 345.7825928 90;" xml:space="preserve">
<style type="text/css">
	.st0{fill:#FFFFFF;}
	.st1{fill:#35C4AF;}
</style>
<g>
	<path class="st0" d="M2.2294922,30.4023438H8.0625c5.2802734,0,8.9287109,3.625,8.9287109,8.3525391v0.0488281
		c0,4.7285156-3.6484375,8.4003906-8.9287109,8.4003906H2.2294922V30.4023438z M4.1259766,32.1552734v13.296875H8.0625
		c4.2480469,0,6.9599609-2.8808594,6.9599609-6.6005859v-0.0478516c0-3.7207031-2.7119141-6.6484375-6.9599609-6.6484375H4.1259766z
		"/>
	<path class="st0" d="M21.1650391,30.4023438h1.8964844v16.8017578h-1.8964844V30.4023438z"/>
	<path class="st0" d="M27.9814453,30.4023438h12.0732422v1.7529297H29.8779297v6h9.0966797v1.7285156h-9.0966797v7.3203125
		h-1.8964844V30.4023438z"/>
	<path class="st0" d="M43.7246094,30.4023438h12.0732422v1.7529297H45.6210938v6h9.0966797v1.7285156h-9.0966797v7.3203125
		h-1.8964844V30.4023438z"/>
	<path class="st0" d="M59.46875,30.4023438h12.1455078v1.7285156H61.3652344v5.7363281h9.1689453v1.7285156h-9.1689453v5.8798828
		H71.734375v1.7285156H59.46875V30.4023438z"/>
	<path class="st0" d="M75.5488281,30.4023438h7.2246094c2.0644531,0,3.7207031,0.6240234,4.7763672,1.6806641
		c0.8164062,0.8154297,1.296875,1.9921875,1.296875,3.3125v0.0478516c0,2.7841797-1.9208984,4.4160156-4.5605469,4.8964844
		l5.1601562,6.8642578h-2.328125l-4.8720703-6.5283203h-4.8007812v6.5283203h-1.8964844V30.4023438z M82.6054688,38.9716797
		c2.5205078,0,4.3203125-1.296875,4.3203125-3.4570312v-0.0478516c0-2.0634766-1.5839844-3.3115234-4.2958984-3.3115234h-5.1845703
		v6.8164062H82.6054688z"/>
	<path class="st0" d="M92.9003906,30.4023438h12.1455078v1.7285156H94.796875v5.7363281h9.1689453v1.7285156H94.796875v5.8798828
		h10.3691406v1.7285156h-12.265625V30.4023438z"/>
	<path class="st0" d="M108.9804688,30.4023438h1.7763672l10.5849609,13.4658203V30.4023438h1.8476562v16.8017578h-1.5117188
		l-10.8486328-13.7773438v13.7773438h-1.8486328V30.4023438z"/>
	<path class="st0" d="M132.3085938,32.1552734h-5.6640625v-1.7529297h13.2255859v1.7529297h-5.6650391v15.0488281h-1.8964844
		V32.1552734z"/>
	<path class="st0" d="M165.1416016,47.7080078l-2.2324219-1.9921875c-1.4160156,1.1044922-3.2158203,1.7763672-5.2802734,1.7763672
		c-5.1123047,0-8.5449219-4.0087891-8.5449219-8.640625v-0.0478516c0-4.6328125,3.4804688-8.6894531,8.5927734-8.6894531
		s8.5449219,4.0087891,8.5449219,8.640625v0.0488281c0,2.0878906-0.7441406,4.0800781-1.9921875,5.6162109l2.2080078,1.8720703
		L165.1416016,47.7080078z M161.5654297,44.4921875l-3.1445312-2.6884766l1.2724609-1.4160156l3.1445312,2.8564453
		c0.9121094-1.2001953,1.4160156-2.7128906,1.4160156-4.3925781v-0.0478516c0-3.8164062-2.7841797-6.9365234-6.625-6.9365234
		c-3.8398438,0-6.5761719,3.0722656-6.5761719,6.8876953v0.0488281c0,3.8164062,2.7841797,6.9365234,6.6240234,6.9365234
		C159.1650391,45.7402344,160.5097656,45.2841797,161.5654297,44.4921875z"/>
	<path class="st0" d="M169.9638672,40.171875v-9.7695312h1.8964844v9.6494141c0,3.6240234,1.9199219,5.6640625,5.1357422,5.6640625
		c3.0966797,0,5.0644531-1.8720703,5.0644531-5.5439453v-9.7695312h1.8964844v9.625
		c0,4.8964844-2.8085938,7.4404297-7.0087891,7.4404297C172.7958984,47.4677734,169.9638672,44.9238281,169.9638672,40.171875z"/>
	<path class="st0" d="M188.4433594,30.4023438h12.1455078v1.7285156h-10.2490234v5.7363281h9.1689453v1.7285156h-9.1689453
		v5.8798828h10.3691406v1.7285156h-12.265625V30.4023438z"/>
	<path class="st0" d="M203.4199219,44.7558594l1.1757812-1.3916016c1.7519531,1.5839844,3.4326172,2.3759766,5.7607422,2.3759766
		c2.2558594,0,3.7441406-1.2001953,3.7441406-2.8564453v-0.0478516c0-1.5605469-0.8398438-2.4482422-4.3681641-3.1923828
		c-3.8642578-0.8398438-5.640625-2.0878906-5.640625-4.8486328v-0.0478516c0-2.640625,2.328125-4.5839844,5.5205078-4.5839844
		c2.4482422,0,4.2001953,0.6953125,5.9042969,2.0634766l-1.1044922,1.4648438
		c-1.5595703-1.2724609-3.1201172-1.8242188-4.8476562-1.8242188c-2.1845703,0-3.5761719,1.1992188-3.5761719,2.7119141v0.0478516
		c0,1.5839844,0.8632812,2.4726562,4.5595703,3.2646484c3.7451172,0.8154297,5.4726562,2.1835938,5.4726562,4.7519531v0.0478516
		c0,2.8808594-2.4003906,4.7529297-5.7363281,4.7529297C207.6201172,47.4443359,205.4355469,46.5556641,203.4199219,44.7558594z"/>
	<path class="st0" d="M223.9873047,32.1552734h-5.6640625v-1.7529297h13.2255859v1.7529297h-5.6650391v15.0488281h-1.8964844
		V32.1552734z"/>
	<path class="st0" d="M235.1708984,30.4023438h1.8964844v16.8017578h-1.8964844V30.4023438z"/>
	<path class="st0" d="M241.2421875,38.8515625v-0.0478516c0-4.6328125,3.4804688-8.6894531,8.5927734-8.6894531
		s8.5449219,4.0087891,8.5449219,8.640625v0.0488281c0,4.6318359-3.4804688,8.6884766-8.5927734,8.6884766
		S241.2421875,43.4833984,241.2421875,38.8515625z M256.4121094,38.8515625v-0.0478516
		c0-3.8164062-2.7841797-6.9365234-6.625-6.9365234c-3.8398438,0-6.5761719,3.0722656-6.5761719,6.8876953v0.0488281
		c0,3.8164062,2.7841797,6.9365234,6.6240234,6.9365234C253.6757812,45.7402344,256.4121094,42.6679688,256.4121094,38.8515625z"/>
	<path class="st0" d="M262.3867188,30.4023438h1.7763672l10.5849609,13.4658203V30.4023438h1.8476562v16.8017578h-1.5117188
		l-10.8486328-13.7773438v13.7773438h-1.8486328V30.4023438z"/>
	<path class="st0" d="M280.2421875,44.7558594l1.1757812-1.3916016c1.7519531,1.5839844,3.4326172,2.3759766,5.7607422,2.3759766
		c2.2558594,0,3.7441406-1.2001953,3.7441406-2.8564453v-0.0478516c0-1.5605469-0.8398438-2.4482422-4.3681641-3.1923828
		c-3.8642578-0.8398438-5.640625-2.0878906-5.640625-4.8486328v-0.0478516c0-2.640625,2.328125-4.5839844,5.5205078-4.5839844
		c2.4482422,0,4.2001953,0.6953125,5.9042969,2.0634766l-1.1044922,1.4648438
		c-1.5595703-1.2724609-3.1201172-1.8242188-4.8476562-1.8242188c-2.1845703,0-3.5761719,1.1992188-3.5761719,2.7119141v0.0478516
		c0,1.5839844,0.8632812,2.4726562,4.5595703,3.2646484c3.7451172,0.8154297,5.4726562,2.1835938,5.4726562,4.7519531v0.0478516
		c0,2.8808594-2.4003906,4.7529297-5.7363281,4.7529297C284.4423828,47.4443359,282.2578125,46.5556641,280.2421875,44.7558594z"/>
	<path class="st0" d="M296.1542969,44.6835938h2.2080078v2.5205078h-2.2080078V44.6835938z"/>
</g>
<g>
	<path class="st1" d="M0.7177734,68.7558594l2.1835938-2.6162109c1.5126953,1.2480469,3.0966797,2.0400391,5.0166016,2.0400391
		c1.5126953,0,2.4248047-0.5996094,2.4248047-1.5839844v-0.0478516c0-0.9365234-0.5761719-1.4160156-3.3847656-2.1367188
		c-3.3837891-0.8632812-5.5683594-1.7998047-5.5683594-5.1357422v-0.0478516c0-3.0488281,2.4482422-5.0644531,5.8808594-5.0644531
		c2.4482422,0,4.5361328,0.7675781,6.2402344,2.1357422l-1.9199219,2.7841797
		c-1.4882812-1.0322266-2.9521484-1.65625-4.3691406-1.65625c-1.4160156,0-2.1601562,0.6484375-2.1601562,1.4638672v0.0488281
		c0,1.1035156,0.7207031,1.4638672,3.625,2.2080078c3.4082031,0.8876953,5.328125,2.1123047,5.328125,5.0400391v0.0478516
		c0,3.3369141-2.5439453,5.2089844-6.1679688,5.2089844C5.3017578,71.4443359,2.7333984,70.5556641,0.7177734,68.7558594z"/>
	<path class="st1" d="M22.6298828,54.2822266h3.4082031l7.2011719,16.921875H29.375l-1.5361328-3.7685547H20.734375
		l-1.5361328,3.7685547h-3.7685547L22.6298828,54.2822266z M26.5185547,64.171875l-2.2324219-5.4492188l-2.2324219,5.4492188
		H26.5185547z"/>
	<path class="st1" d="M35.8300781,54.4023438h3.984375l4.4160156,7.1044922l4.4160156-7.1044922h3.984375v16.8017578h-3.671875
		v-10.96875l-4.7285156,7.1767578h-0.0957031l-4.6806641-7.1044922v10.8964844h-3.6240234V54.4023438z"/>
	<path class="st1" d="M56.6621094,54.4023438h12.6728516v3.2890625h-9.0009766v3.4082031h7.9208984v3.2880859h-7.9208984v3.5283203
		h9.1210938v3.2880859H56.6621094V54.4023438z"/>
	<path class="st1" d="M85.7011719,54.2822266h3.4082031l7.2011719,16.921875h-3.8642578l-1.5361328-3.7685547h-7.1044922
		l-1.5361328,3.7685547h-3.7685547L85.7011719,54.2822266z M89.5898438,64.171875l-2.2324219-5.4492188L85.125,64.171875H89.5898438
		z"/>
	<path class="st1" d="M98.9013672,54.4023438h3.4082031l7.8720703,10.3447266V54.4023438h3.6484375v16.8017578h-3.1445312
		l-8.1367188-10.6806641v10.6806641h-3.6474609V54.4023438z"/>
	<path class="st1" d="M116.7089844,68.7558594l2.1835938-2.6162109c1.5126953,1.2480469,3.0966797,2.0400391,5.0166016,2.0400391
		c1.5126953,0,2.4248047-0.5996094,2.4248047-1.5839844v-0.0478516c0-0.9365234-0.5761719-1.4160156-3.3847656-2.1367188
		c-3.3837891-0.8632812-5.5683594-1.7998047-5.5683594-5.1357422v-0.0478516c0-3.0488281,2.4482422-5.0644531,5.8808594-5.0644531
		c2.4482422,0,4.5361328,0.7675781,6.2402344,2.1357422l-1.9199219,2.7841797
		c-1.4882812-1.0322266-2.9521484-1.65625-4.3691406-1.65625c-1.4160156,0-2.1601562,0.6484375-2.1601562,1.4638672v0.0488281
		c0,1.1035156,0.7207031,1.4638672,3.625,2.2080078c3.4082031,0.8876953,5.328125,2.1123047,5.328125,5.0400391v0.0478516
		c0,3.3369141-2.5439453,5.2089844-6.1679688,5.2089844C121.2929688,71.4443359,118.7246094,70.5556641,116.7089844,68.7558594z"/>
	<path class="st1" d="M131.3486328,54.4023438h3.9609375l3.4804688,11.3769531l3.7675781-11.4248047h3.1689453l3.7675781,11.4248047
		l3.4804688-11.3769531h3.8642578l-5.7363281,16.921875h-3.2158203L144.09375,60.3310547l-3.7919922,10.9931641h-3.2158203
		L131.3486328,54.4023438z"/>
	<path class="st1" d="M159.5732422,54.4023438h12.6728516v3.2890625h-9.0009766v3.4082031h7.9208984v3.2880859h-7.9208984v3.5283203
		h9.1210938v3.2880859h-12.7929688V54.4023438z"/>
	<path class="st1" d="M175.6533203,54.4023438h7.6806641c2.1357422,0,3.7919922,0.6005859,4.8964844,1.7041016
		c0.9355469,0.9365234,1.4394531,2.2568359,1.4394531,3.8408203v0.0478516c0,2.7119141-1.4638672,4.4160156-3.6005859,5.2080078
		l4.1044922,6.0009766h-4.3203125l-3.5996094-5.3769531h-2.9042969v5.3769531h-3.6962891V54.4023438z M183.09375,62.5634766
		c1.7998047,0,2.8320312-0.9599609,2.8320312-2.3759766v-0.0488281c0-1.5839844-1.1044922-2.3994141-2.9042969-2.3994141h-3.671875
		v4.8242188H183.09375z"/>
	<path class="st1" d="M192.4765625,67.3642578h3.8886719v3.8398438h-3.8886719V67.3642578z"/>
</g>
<g>
	<path class="st0" d="M3.0410156,13.8027344h0.8691406v7.7011719H3.0410156V13.8027344z"/>
	<path class="st0" d="M6.1650391,13.8027344h0.8144531l4.8515625,6.171875v-6.171875h0.8476562v7.7011719h-0.6933594
		l-4.9726562-6.3144531v6.3144531H6.1650391V13.8027344z"/>
	<path class="st0" d="M20.1572266,14.6054688h-2.5966797v-0.8027344h6.0615234v0.8027344h-2.5957031v6.8984375h-0.8691406
		V14.6054688z"/>
	<path class="st0" d="M25.2050781,13.8027344h3.3115234c0.9462891,0,1.7050781,0.2861328,2.1894531,0.7705078
		c0.3740234,0.3740234,0.59375,0.9130859,0.59375,1.5175781v0.0224609c0,1.2763672-0.8798828,2.0244141-2.0898438,2.2441406
		l2.3652344,3.1464844h-1.0673828l-2.2333984-2.9921875h-2.2001953v2.9921875h-0.8691406V13.8027344z M28.4394531,17.7304688
		c1.1552734,0,1.9804688-0.59375,1.9804688-1.5839844v-0.0224609c0-0.9462891-0.7255859-1.5185547-1.96875-1.5185547h-2.3769531
		v3.125H28.4394531z"/>
	<path class="st0" d="M33.1582031,13.8027344h5.5673828v0.7919922h-4.6982422v2.6298828h4.203125v0.7919922h-4.203125v2.6953125
		h4.7529297v0.7919922h-5.6220703V13.8027344z"/>
	<path class="st0" d="M43.3779297,13.7480469h0.8144531l3.5087891,7.7558594h-0.9345703L45.8642578,19.46875h-4.1914062
		l-0.9130859,2.0351562h-0.8916016L43.3779297,13.7480469z M45.5234375,18.6875l-1.7490234-3.9277344L42.0136719,18.6875H45.5234375
		z"/>
	<path class="st0" d="M50.2753906,14.6054688h-2.5966797v-0.8027344h6.0615234v0.8027344h-2.5957031v6.8984375h-0.8691406
		V14.6054688z"/>
	<path class="st0" d="M55.3232422,13.8027344h0.8808594l2.8046875,4.203125l2.8056641-4.203125h0.8798828v7.7011719h-0.8691406
		V15.265625l-2.8046875,4.1259766h-0.0449219l-2.8046875-4.1142578v6.2265625h-0.8476562V13.8027344z"/>
	<path class="st0" d="M64.8710938,13.8027344h5.5673828v0.7919922h-4.6982422v2.6298828h4.203125v0.7919922h-4.203125v2.6953125
		h4.7529297v0.7919922h-5.6220703V13.8027344z"/>
	<path class="st0" d="M72.2412109,13.8027344h0.8144531l4.8515625,6.171875v-6.171875h0.8476562v7.7011719h-0.6933594
		l-4.9726562-6.3144531v6.3144531h-0.8476562V13.8027344z"/>
	<path class="st0" d="M82.9335938,14.6054688h-2.5966797v-0.8027344h6.0615234v0.8027344h-2.5957031v6.8984375h-0.8691406
		V14.6054688z"/>
	<path class="st0" d="M90.9414062,17.6757812v-0.0224609c0-2.1230469,1.5957031-3.9824219,3.9384766-3.9824219
		c2.34375,0,3.9169922,1.8369141,3.9169922,3.9609375v0.0214844c0,2.1230469-1.5957031,3.9824219-3.9384766,3.9824219
		C92.5146484,21.6357422,90.9414062,19.7988281,90.9414062,17.6757812z M97.8945312,17.6757812v-0.0224609
		c0-1.7490234-1.2763672-3.1796875-3.0361328-3.1796875c-1.7607422,0-3.0146484,1.4082031-3.0146484,3.1582031v0.0214844
		c0,1.7490234,1.2763672,3.1796875,3.0361328,3.1796875C96.640625,20.8330078,97.8945312,19.4248047,97.8945312,17.6757812z"/>
	<path class="st0" d="M100.6318359,13.8027344h5.5341797v0.8027344h-4.6650391v2.7509766h4.1699219v0.7919922h-4.1699219v3.3554688
		h-0.8691406V13.8027344z"/>
	<path class="st0" d="M110.8066406,17.6757812v-0.0224609c0-2.1787109,1.6279297-3.9824219,3.8945312-3.9824219
		c1.3974609,0,2.2333984,0.4951172,3.0039062,1.2207031l-0.5947266,0.6386719
		c-0.6484375-0.6162109-1.375-1.0566406-2.4199219-1.0566406c-1.7050781,0-2.9814453,1.3867188-2.9814453,3.1582031v0.0214844
		c0,1.7822266,1.2871094,3.1796875,2.9814453,3.1796875c1.0556641,0,1.7490234-0.4072266,2.4863281-1.1113281l0.5722656,0.5615234
		c-0.8037109,0.8134766-1.6835938,1.3525391-3.0810547,1.3525391
		C112.4462891,21.6357422,110.8066406,19.8867188,110.8066406,17.6757812z"/>
	<path class="st0" d="M119.3095703,13.8027344h0.8691406v3.421875h4.4453125v-3.421875h0.8691406v7.7011719h-0.8691406v-3.4658203
		h-4.4453125v3.4658203h-0.8691406V13.8027344z"/>
	<path class="st0" d="M127.6689453,13.8027344h3.3115234c0.9462891,0,1.7050781,0.2861328,2.1894531,0.7705078
		c0.3740234,0.3740234,0.59375,0.9130859,0.59375,1.5175781v0.0224609c0,1.2763672-0.8798828,2.0244141-2.0898438,2.2441406
		l2.3652344,3.1464844h-1.0673828l-2.2333984-2.9921875h-2.2001953v2.9921875h-0.8691406V13.8027344z M130.9033203,17.7304688
		c1.1552734,0,1.9804688-0.59375,1.9804688-1.5839844v-0.0224609c0-0.9462891-0.7255859-1.5185547-1.96875-1.5185547h-2.3769531
		v3.125H130.9033203z"/>
	<path class="st0" d="M135.28125,17.6757812v-0.0224609c0-2.1230469,1.5957031-3.9824219,3.9384766-3.9824219
		c2.34375,0,3.9169922,1.8369141,3.9169922,3.9609375v0.0214844c0,2.1230469-1.5957031,3.9824219-3.9384766,3.9824219
		C136.8544922,21.6357422,135.28125,19.7988281,135.28125,17.6757812z M142.234375,17.6757812v-0.0224609
		c0-1.7490234-1.2763672-3.1796875-3.0361328-3.1796875c-1.7607422,0-3.0146484,1.4082031-3.0146484,3.1582031v0.0214844
		c0,1.7490234,1.2763672,3.1796875,3.0361328,3.1796875C140.9804688,20.8330078,142.234375,19.4248047,142.234375,17.6757812z"/>
	<path class="st0" d="M144.9716797,13.8027344h0.8144531l4.8515625,6.171875v-6.171875h0.8476562v7.7011719h-0.6933594
		l-4.9726562-6.3144531v6.3144531h-0.8476562V13.8027344z"/>
	<path class="st0" d="M153.7392578,13.8027344h0.8691406v7.7011719h-0.8691406V13.8027344z"/>
	<path class="st0" d="M156.5224609,17.6757812v-0.0224609c0-2.1787109,1.6279297-3.9824219,3.8945312-3.9824219
		c1.3974609,0,2.2333984,0.4951172,3.0039062,1.2207031l-0.5947266,0.6386719
		c-0.6484375-0.6162109-1.375-1.0566406-2.4199219-1.0566406c-1.7050781,0-2.9814453,1.3867188-2.9814453,3.1582031v0.0214844
		c0,1.7822266,1.2871094,3.1796875,2.9814453,3.1796875c1.0556641,0,1.7490234-0.4072266,2.4863281-1.1113281l0.5722656,0.5615234
		c-0.8037109,0.8134766-1.6835938,1.3525391-3.0810547,1.3525391
		C158.1621094,21.6357422,156.5224609,19.8867188,156.5224609,17.6757812z"/>
	<path class="st0" d="M168.3242188,13.8027344h0.8691406v3.421875h4.4453125v-3.421875h0.8691406v7.7011719h-0.8691406v-3.4658203
		h-4.4453125v3.4658203h-0.8691406V13.8027344z"/>
	<path class="st0" d="M176.6845703,13.8027344h5.5673828v0.7919922h-4.6982422v2.6298828h4.203125v0.7919922h-4.203125v2.6953125
		h4.7529297v0.7919922h-5.6220703V13.8027344z"/>
	<path class="st0" d="M184.0546875,13.8027344H186.9375c1.7382812,0,2.8818359,0.9238281,2.8818359,2.4423828v0.0224609
		c0,1.6611328-1.3857422,2.5185547-3.0253906,2.5185547h-1.8701172v2.7177734h-0.8691406V13.8027344z M186.8271484,17.9941406
		c1.2763672,0,2.1123047-0.6816406,2.1123047-1.6943359v-0.0214844c0-1.1005859-0.8251953-1.6728516-2.0683594-1.6728516h-1.9472656
		v3.3886719H186.8271484z"/>
	<path class="st0" d="M193.4824219,13.7480469h0.8144531l3.5087891,7.7558594h-0.9345703L195.96875,19.46875h-4.1914062
		l-0.9130859,2.0351562h-0.8916016L193.4824219,13.7480469z M195.6279297,18.6875l-1.7490234-3.9277344L192.1181641,18.6875
		H195.6279297z"/>
	<path class="st0" d="M200.390625,14.6054688h-2.5966797v-0.8027344h6.0615234v0.8027344h-2.5957031v6.8984375h-0.8691406
		V14.6054688z"/>
	<path class="st0" d="M205.515625,13.8027344h0.8691406v7.7011719h-0.8691406V13.8027344z"/>
	<path class="st0" d="M210.6416016,14.6054688h-2.5966797v-0.8027344h6.0615234v0.8027344h-2.5957031v6.8984375h-0.8691406
		V14.6054688z"/>
	<path class="st0" d="M215.7675781,13.8027344h0.8691406v7.7011719h-0.8691406V13.8027344z"/>
	<path class="st0" d="M218.3847656,20.3818359l0.5390625-0.6386719c0.8027344,0.7265625,1.5732422,1.0898438,2.640625,1.0898438
		c1.0341797,0,1.7158203-0.5498047,1.7158203-1.3095703v-0.0214844c0-0.7158203-0.3847656-1.1220703-2.0019531-1.4638672
		c-1.7714844-0.3847656-2.5849609-0.9570312-2.5849609-2.2216797v-0.0224609c0-1.2099609,1.0664062-2.1015625,2.5302734-2.1015625
		c1.1220703,0,1.9248047,0.3193359,2.7060547,0.9462891l-0.5058594,0.6708984
		c-0.7158203-0.5830078-1.4306641-0.8359375-2.2226562-0.8359375c-1.0009766,0-1.6386719,0.5507812-1.6386719,1.2431641v0.0224609
		c0,0.7255859,0.3955078,1.1328125,2.0898438,1.4960938c1.7158203,0.3740234,2.5087891,1.0009766,2.5087891,2.1787109v0.0214844
		c0,1.3203125-1.1005859,2.1787109-2.6298828,2.1787109C220.3105469,21.6142578,219.3085938,21.2070312,218.3847656,20.3818359z"/>
	<path class="st0" d="M228.8896484,17.6757812v-0.0224609c0-2.1787109,1.6279297-3.9824219,3.8945312-3.9824219
		c1.3974609,0,2.2333984,0.4951172,3.0039062,1.2207031l-0.5947266,0.6386719
		c-0.6484375-0.6162109-1.375-1.0566406-2.4199219-1.0566406c-1.7050781,0-2.9814453,1.3867188-2.9814453,3.1582031v0.0214844
		c0,1.7822266,1.2871094,3.1796875,2.9814453,3.1796875c1.0556641,0,1.7490234-0.4072266,2.4863281-1.1113281l0.5722656,0.5615234
		c-0.8037109,0.8134766-1.6835938,1.3525391-3.0810547,1.3525391
		C230.5292969,21.6357422,228.8896484,19.8867188,228.8896484,17.6757812z"/>
	<path class="st0" d="M237.1953125,15.8164062h1.0117188v1.1552734h-1.0117188V15.8164062z M237.1953125,20.3486328h1.0117188
		v1.1552734h-1.0117188V20.3486328z"/>
</g>
</svg>
