<?xml version="1.0" encoding="utf-8"?>
<!-- Generator: Adobe Illustrator 26.3.1, SVG Export Plug-In . SVG Version: 6.00 Build 0)  -->
<svg version="1.1" id="Layer_1" xmlns="http://www.w3.org/2000/svg" xmlns:xlink="http://www.w3.org/1999/xlink" x="0px" y="0px"
	 viewBox="0 0 345.7825928 90" style="enable-background:new 0 0 345.7825928 90;" xml:space="preserve">
<style type="text/css">
	.st0{fill:#FFFFFF;}
</style>
<g>
	<path class="st0" d="M261.1255493,27.1234016c-1.230011,0-2.2310181,1.007-2.2310181,2.2449989v0.0139999
		c0,1.2290001,1.0010071,2.2310028,2.2310181,2.2310028c1.2309875,0,2.2319946-1.007,2.2319946-2.2579994
		C263.3575439,28.1244011,262.3565369,27.1234016,261.1255493,27.1234016 M261.1255493,31.2714005
		c-1.0540161,0-1.8790283-0.829998-1.8790283-1.8889999v-0.0139999c0-1.0489998,0.8440247-1.9029999,1.8790283-1.9029999
		c1.0529785,0,1.8779907,0.8300018,1.8779907,1.9029999C263.00354,30.4184036,262.1605225,31.2714005,261.1255493,31.2714005"/>
	<path class="st0" d="M261.7009277,29.6441002c0.3010254-0.0999985,0.5010071-0.336998,0.5010071-0.7019997
		c0-0.5130005-0.3859863-0.7509995-0.9129944-0.7509995h-1.0650024v2.2669983h0.5509949v-0.7140007h0.3500061l0.4890137,0.7140007
		h0.664978L261.7009277,29.6441002z M261.2519531,29.2930984h-0.4770203v-0.6269989h0.4770203
		c0.2359924,0,0.3869934,0.1140022,0.3869934,0.3160019C261.6389465,29.1691017,261.5019531,29.2930984,261.2519531,29.2930984"/>
	<path class="st0" d="M121.6954575,61.7666016l0.5369873-0.7509995c0.7690125,0.5740013,1.6230011,0.901001,2.4609985,0.901001
		c0.8530121,0,1.4720001-0.4370003,1.4720001-1.1190033v-0.0269966c0-0.7090034-0.8389893-0.9830017-1.7739868-1.2420006
		c-1.1140137-0.314003-2.3530121-0.6970024-2.3530121-1.9920006v-0.0289993c0-1.2140007,1.0190125-2.019001,2.4210052-2.019001
		c0.8670044,0,1.8309937,0.3009987,2.5599976,0.7770004l-0.4819946,0.7929993
		c-0.6609955-0.4239998-1.4170074-0.6829987-2.1049957-0.6829987c-0.8390045,0-1.375,0.4370003-1.375,1.0239983v0.0270004
		c0,0.6689987,0.8799896,0.9280014,1.8289948,1.2150002c1.1009979,0.3279991,2.2830048,0.75,2.2830048,2.019001v0.0270004
		c0,1.3389969-1.1130066,2.1169968-2.530014,2.1169968C123.6214523,62.8045998,122.4934464,62.4076004,121.6954575,61.7666016"/>
	<path class="st0" d="M134.4436646,59.1734009v-0.0269966c0-1.5160027-1.1410217-2.757-2.6410217-2.757
		c-1.539978,0-2.598999,1.2409973-2.598999,2.7299995v0.0270004c0,1.5139999,1.1280212,2.743,2.6260071,2.743
		C133.3716431,61.8894043,134.4436646,60.6604042,134.4436646,59.1734009 M128.1166687,59.1734009v-0.0269966
		c0-1.993,1.5689697-3.6850014,3.7129822-3.6850014c2.1329956,0,3.7009888,1.6650009,3.7009888,3.6580009v0.0270004
		c0,1.9919968-1.5820007,3.6849976-3.7279968,3.6849976C129.6706543,62.8314018,128.1166687,61.1664009,128.1166687,59.1734009"/>
	<path class="st0" d="M137.1575623,56.5388985h-0.9760132v-0.9139977h0.9760132v-0.6150017
		c0-0.803997,0.2199707-1.4179993,0.618988-1.8149986c0.3569946-0.3549995,0.881012-0.545002,1.5270081-0.545002
		c0.4949951,0,0.8249817,0.0540009,1.1679993,0.177002v0.9150009c-0.3840027-0.1100006-0.6730042-0.1780014-1.0299988-0.1780014
		c-0.8260193,0-1.2390137,0.4920006-1.2390137,1.5009995v0.5740013h2.256012v0.8999977h-2.2420044v6.1290016h-1.0589905V56.5388985z
		"/>
	<path class="st0" d="M147.022644,59.1734009v-0.0269966c0-1.5160027-1.1409912-2.757-2.6409912-2.757
		c-1.5400085,0-2.598999,1.2409973-2.598999,2.7299995v0.0270004c0,1.5139999,1.1279907,2.743,2.6260071,2.743
		C145.9506531,61.8894043,147.022644,60.6604042,147.022644,59.1734009 M140.6956482,59.1734009v-0.0269966
		c0-1.993,1.5690002-3.6850014,3.7130127-3.6850014c2.1329956,0,3.7009888,1.6650009,3.7009888,3.6580009v0.0270004
		c0,1.9919968-1.5820007,3.6849976-3.7279968,3.6849976C142.2496338,62.8314018,140.6956482,61.1664009,140.6956482,59.1734009"/>
	<path class="st0" d="M148.8395691,61.7666016l0.5369873-0.7509995c0.7690125,0.5740013,1.6229858,0.901001,2.4609985,0.901001
		c0.8529968,0,1.4719849-0.4370003,1.4719849-1.1190033v-0.0269966c0-0.7090034-0.8389893-0.9830017-1.7739868-1.2420006
		c-1.1140137-0.314003-2.3519897-0.6970024-2.3519897-1.9920006v-0.0289993c0-1.2140007,1.0180054-2.019001,2.42099-2.019001
		c0.8659973,0,1.8299866,0.3009987,2.5589905,0.7770004l-0.4819946,0.7929993
		c-0.6609802-0.4239998-1.4169922-0.6829987-2.1049805-0.6829987c-0.8380127,0-1.375,0.4370003-1.375,1.0239983v0.0270004
		c0,0.6689987,0.8799744,0.9280014,1.8289795,1.2150002c1.1010132,0.3279991,2.28302,0.75,2.28302,2.019001v0.0270004
		c0,1.3389969-1.1130066,2.1169968-2.5300293,2.1169968C150.765564,62.8045998,149.6375427,62.4076004,148.8395691,61.7666016"/>
	<path class="st0" d="M161.8245544,59.1595001v-0.0270004c0-1.6659966-1.1549988-2.7299995-2.5030212-2.7299995
		c-1.3209839,0-2.572998,1.1060028-2.572998,2.7159996v0.0270004c0,1.6380005,1.2520142,2.7299995,2.572998,2.7299995
		C160.6975403,61.8754997,161.8245544,60.8655014,161.8245544,59.1595001 M156.7905579,61.3165016v1.3510017h-1.059021v-9.9630013
		h1.059021v4.3260002c0.5769958-0.8460007,1.4169922-1.5699997,2.7229919-1.5699997
		c1.7059937,0,3.3970032,1.3379974,3.3970032,3.6579971v0.0270004c0,2.3059998-1.677002,3.6720009-3.3970032,3.6720009
		C158.1945496,62.8175011,157.3405457,62.1065025,156.7905579,61.3165016"/>
	<path class="st0" d="M164.3017578,59.9923019v-4.382h1.0589905v4.1230011c0,1.3099976,0.7149963,2.1289978,1.96698,2.1289978
		c1.2110291,0,2.1330261-0.8880005,2.1330261-2.2109985V55.610302h1.0449829v7.0569992h-1.0449829v-1.2280006
		c-0.4820251,0.7639999-1.2120056,1.3770027-2.4360046,1.3770027
		C165.3047485,62.8163033,164.3017578,61.6703033,164.3017578,59.9923019"/>
	<polygon class="st0" points="171.5970764,55.6109009 172.7670593,55.6109009 175.1590576,61.4669037 177.5670471,55.6109009 
		178.7080688,55.6109009 175.6130676,62.7219009 174.677063,62.7219009 	"/>
	<path class="st0" d="M179.8413696,55.6110001h1.0589905v7.0559998h-1.0589905V55.6110001z M179.7723694,52.9090004h1.2099915
		v1.1599998h-1.2099915V52.9090004z"/>
	<path class="st0" d="M182.8067627,55.6109009h1.0589905v1.8430023c0.5229797-1.1730003,1.5549927-2.0200005,2.9029846-1.9650002
		v1.1329994h-0.0829773c-1.5550232,0-2.8200073,1.1040001-2.8200073,3.2340012v2.8110008h-1.0589905V55.6109009z"/>
	<polygon class="st0" points="194.8794556,55.6109009 196.0494385,55.6109009 198.4414368,61.4669037 200.8494263,55.6109009 
		201.990448,55.6109009 198.8954468,62.7219009 197.9594421,62.7219009 	"/>
	<path class="st0" d="M207.9811401,58.7504044c-0.1109924-1.2840004-0.8540039-2.4020004-2.2709961-2.4020004
		c-1.2369995,0-2.1730042,1.0229988-2.3110046,2.4020004H207.9811401z M202.3271484,59.1594009v-0.0269966
		c0-2.0340004,1.4439697-3.6720009,3.4119873-3.6720009c2.1040039,0,3.3139954,1.6660004,3.3139954,3.7270012
		c0,0.1359978,0,0.2179985-0.0140076,0.3409996h-5.6399841c0.1520081,1.5279999,1.2389832,2.3889999,2.5050049,2.3889999
		c0.9759827,0,1.6640015-0.3970032,2.2419739-0.9970016l0.6600037,0.5870018
		c-0.7160034,0.7919998-1.5829773,1.322998-2.9309998,1.322998
		C203.9231262,62.8304024,202.3271484,61.3434029,202.3271484,59.1594009"/>
	<rect x="210.530365" y="52.7039986" class="st0" width="1.0589905" height="9.9630013"/>
	<path class="st0" d="M219.5771484,59.1589012v-0.0270004c0-1.6639977-1.1560059-2.7289963-2.5039978-2.7289963
		c-1.3210144,0-2.5720215,1.1049995-2.5720215,2.7159996v0.0270004c0,1.6379967,1.2510071,2.7289963,2.5720215,2.7289963
		C218.4481506,61.8749008,219.5771484,60.8659019,219.5771484,59.1589012 M213.4831543,55.6109009h1.0589905v1.420002
		c0.5780029-0.8460007,1.4169922-1.5699997,2.723999-1.5699997c1.7059937,0,3.3970032,1.3380013,3.3970032,3.6580009v0.0270004
		c0,2.3069992-1.678009,3.6709976-3.3970032,3.6709976c-1.3210144,0-2.1740112-0.7099991-2.723999-1.5009995v3.534996h-1.0589905
		V55.6109009z"/>
	<path class="st0" d="M226.8170471,60.0751038v-0.6840019c-0.5230103-0.1489983-1.2250061-0.2999992-2.0900269-0.2999992
		c-1.3349915,0-2.0769958,0.5739975-2.0769958,1.4609985v0.0270004c0,0.887001,0.8240051,1.4049988,1.7870178,1.4049988
		C225.7440491,61.9841003,226.8170471,61.1941032,226.8170471,60.0751038 M221.5760498,60.6201019v-0.0270004
		c0-1.4889984,1.2389832-2.2789993,3.039978-2.2789993c0.90802,0,1.5549927,0.1219978,2.1880188,0.2989998V58.368103
		c0-1.269001-0.7850037-1.9239998-2.1190186-1.9239998c-0.8389893,0-1.5,0.2179985-2.1600037,0.5179977l-0.315979-0.8600006
		c0.7839966-0.3540001,1.5549927-0.586998,2.5869751-0.586998c1.0030212,0,1.7740173,0.2589989,2.2960205,0.7789993
		c0.4809875,0.4770012,0.7299805,1.1590004,0.7299805,2.0610008v4.3120003h-1.0179749v-1.0650024
		c-0.4970093,0.6420021-1.3210144,1.2140007-2.5740051,1.2140007
		C222.9110413,62.8161011,221.5760498,62.0671005,221.5760498,60.6201019"/>
	<path class="st0" d="M229.8102722,60.7973022v-4.2589989h-0.9900208V55.610302h0.9900208v-2.1290016h1.0589905v2.1290016h2.2550049
		v0.9280014h-2.2550049v4.1240005c0,0.8589973,0.4809875,1.1729965,1.196991,1.1729965
		c0.3569946,0,0.6589966-0.0689964,1.0310059-0.2459984v0.901001c-0.3720093,0.1909981-0.769989,0.2999992-1.2789917,0.2999992
		C230.6772461,62.7903023,229.8102722,62.2303009,229.8102722,60.7973022"/>
	<path class="st0" d="M239.1824646,60.0751038v-0.6840019c-0.5220032-0.1489983-1.223999-0.2999992-2.0910034-0.2999992
		c-1.3330078,0-2.0769958,0.5739975-2.0769958,1.4609985v0.0270004c0,0.887001,0.8249817,1.4049988,1.7890015,1.4049988
		C238.1104736,61.9841003,239.1824646,61.1941032,239.1824646,60.0751038 M233.9424744,60.6201019v-0.0270004
		c0-1.4889984,1.2369995-2.2789993,3.039978-2.2789993c0.9070129,0,1.5540161,0.1219978,2.1860046,0.2989998V58.368103
		c0-1.269001-0.7839966-1.9239998-2.1180115-1.9239998c-0.8389893,0-1.4989929,0.2179985-2.1589966,0.5179977l-0.3169861-0.8600006
		c0.7839966-0.3540001,1.5549927-0.586998,2.5859985-0.586998c1.0039978,0,1.7739868,0.2589989,2.2980042,0.7789993
		c0.4809875,0.4770012,0.7290039,1.1590004,0.7290039,2.0610008v4.3120003h-1.0190125v-1.0650024
		c-0.4949951,0.6420021-1.3190002,1.2140007-2.571991,1.2140007
		C235.2754517,62.8161011,233.9424744,62.0671005,233.9424744,60.6201019"/>
	<path class="st0" d="M241.338562,61.7666016l0.5369873-0.7509995c0.769989,0.5740013,1.6220093,0.901001,2.4620056,0.901001
		c0.8519897,0,1.4709778-0.4370003,1.4709778-1.1190033v-0.0269966c0-0.7090034-0.8389893-0.9830017-1.7739868-1.2420006
		c-1.1140137-0.314003-2.3510132-0.6970024-2.3510132-1.9920006v-0.0289993c0-1.2140007,1.0170288-2.019001,2.4200134-2.019001
		c0.8659973,0,1.8299866,0.3009987,2.5589905,0.7770004l-0.4819946,0.7929993
		c-0.6609802-0.4239998-1.4169922-0.6829987-2.1049805-0.6829987c-0.8390198,0-1.375,0.4370003-1.375,1.0239983v0.0270004
		c0,0.6689987,0.8799744,0.9280014,1.8289795,1.2150002c1.1010132,0.3279991,2.2839966,0.75,2.2839966,2.019001v0.0270004
		c0,1.3389969-1.1139832,2.1169968-2.5310059,2.1169968C243.2645569,62.8045998,242.1365356,62.4076004,241.338562,61.7666016"/>
	<polygon class="st0" points="247.5331726,55.6109009 248.7031555,55.6109009 251.0961609,61.4669037 253.5031433,55.6109009 
		254.644165,55.6109009 251.5491638,62.7219009 250.6131592,62.7219009 	"/>
	<path class="st0" d="M255.7773743,55.6110001h1.0599976v7.0559998h-1.0599976V55.6110001z M255.7093506,52.9090004h1.2099915
		v1.1599998h-1.2099915V52.9090004z"/>
	<path class="st0" d="M258.7487488,55.6109009h1.0589905v1.8430023c0.5229797-1.1730003,1.5549927-2.0200005,2.9029846-1.9650002
		v1.1329994h-0.0829773c-1.5550232,0-2.8200073,1.1040001-2.8200073,3.2340012v2.8110008h-1.0589905V55.6109009z"/>
	<path class="st0" d="M94.5317459,19.3261032l-0.3639984-0.4860001l-0.2960052-0.3050003
		c-1.4759979-1.6679993-3.2509918-3.0060043-5.276001-3.9810028c-2.2809906-1.0950012-4.7169952-1.6500015-7.2409973-1.6500015
		c-6.3959961,0-12.3190002,3.7260056-15.0919952,9.4950027c-1.9340057,4.0309982-2.1829987,8.572998-0.7019958,12.7869987
		c1.4819946,4.2190018,4.519989,7.6090012,8.552002,9.5429993c2.2009888,1.0550003,4.5519867,1.6090012,6.9879913,1.6450005
		l35.1210022,0.007L94.5317459,19.3261032z M76.3067551,40.1540985c-2.8100128-1.3469963-4.9250031-3.7079964-5.9580078-6.6499977
		c-1.0330048-2.9370003-0.8589935-6.1010017,0.4889984-8.9099998c1.9320068-4.0199966,6.0599976-6.6159973,10.5169983-6.6159973
		c1.7580109,0,3.4550018,0.385994,5.0440063,1.1500015c1.4440002,0.6949997,2.7039948,1.6539993,3.7449951,2.8509979
		l0.1589966,0.1650009l0.2210083,0.2929993l15.1259918,18.8679962l-24.473999-0.0049973
		C79.479744,41.2761002,77.8407516,40.8900986,76.3067551,40.1540985"/>
	<path class="st0" d="M88.5187607,23.9924011l-0.1480103-0.1969986l-0.0979919-0.1009979
		c-0.822998-0.9589996-1.8220062-1.7259979-2.9720001-2.2789993c-1.2440033-0.5970001-2.5709991-0.901001-3.9459991-0.901001
		c-3.4880066,0-6.7180023,2.0329971-8.230011,5.177002c-1.0540009,2.197998-1.1899872,4.673996-0.3829956,6.9719963
		c0.8079987,2.3009987,2.4640045,4.1479988,4.6620026,5.2029991c1.201004,0.5750008,2.4830017,0.8780022,3.8099976,0.8980026
		l19.1490021,0.0019989L88.5187607,23.9924011z"/>
	<polygon class="st0" points="121.8296585,27.0783997 136.0656433,27.0783997 136.0656433,30.0964012 125.2026443,30.0964012 
		125.2026443,35.0874023 134.830658,35.0874023 134.830658,38.1054001 125.2026443,38.1054001 125.2026443,43.2624016 
		136.2026367,43.2624016 136.2026367,46.2784004 121.8296585,46.2784004 	"/>
	<path class="st0" d="M142.4969482,27.0779037h7.5710144c4.4979858,0,7.29599,2.5509987,7.29599,6.4189987v0.0550003
		c0,4.3059998-3.4559937,6.5559998-7.6809998,6.5559998h-3.8129883v6.1720009h-3.3730164V27.0779037z M149.7929688,37.0629005
		c2.5509949,0,4.1419983-1.4269981,4.1419983-3.428997v-0.0540009c0-2.2490005-1.6180115-3.4290009-4.1419983-3.4290009h-3.9230042
		v6.9119987H149.7929688z"/>
	<path class="st0" d="M161.8668518,36.733799v-0.0549965c0-5.4580002,4.0879822-9.9300003,9.9019775-9.9300003
		c3.5390015,0,5.677002,1.2349968,7.5160217,2.9909973l-2.1670227,2.4950027
		c-1.5359802-1.4250031-3.1819763-2.3860016-5.3769836-2.3860016c-3.6480103,0-6.3359985,3.0169983-6.3359985,6.7750015v0.0550003
		c0,3.7579994,2.6609802,6.8029976,6.3359985,6.8029976c2.3589783,0,3.868988-0.9329987,5.5149841-2.4700012l2.1670227,2.196003
		c-2.0040283,2.0839996-4.1980286,3.3999977-7.7910156,3.3999977
		C166.0358276,46.6077995,161.8668518,42.2467995,161.8668518,36.733799"/>
	<polygon class="st0" points="185.2487488,27.0783997 188.6217346,27.0783997 188.6217346,43.2074013 198.7167358,43.2074013 
		198.7167358,46.2784004 185.2487488,46.2784004 	"/>
	<path class="st0" d="M202.8838501,38.1325989v-11.053997h3.3729858v10.9169998
		c0,3.5659981,1.8389893,5.4580002,4.8559875,5.4580002c2.9900208,0,4.8280029-1.7830009,4.8280029-5.321003v-11.053997h3.3730164
		v10.8889999c0,5.7339973-3.2369995,8.612999-8.256012,8.612999
		C206.0648499,46.5806007,202.8838501,43.7015991,202.8838501,38.1325989"/>
	<path class="st0" d="M224.9494629,43.4814987l2.0299988-2.4139977c1.8379822,1.5900002,3.7019958,2.4959984,6.0609741,2.4959984
		c2.085022,0,3.4020081-0.9869995,3.4020081-2.4139977v-0.0540009c0-1.3720016-0.7680054-2.112999-4.3339844-2.9350014
		c-4.0870056-0.987999-6.3910217-2.1940002-6.3910217-5.7340012v-0.053997c0-3.2919998,2.7430115-5.5690002,6.5559998-5.5690002
		c2.7980042,0,5.0200195,0.8509979,6.9660034,2.4150009l-1.8089905,2.5509987
		c-1.7290039-1.2890015-3.4559937-1.9750023-5.2120056-1.9750023c-1.9750061,0-3.1269836,1.0139999-3.1269836,2.276001v0.0540009
		c0,1.4819984,0.8779907,2.1399994,4.5809937,3.0180016c4.0589905,0.987999,6.1439819,2.4419975,6.1439819,5.6229973v0.0550003
		c0,3.5930023-2.8249817,5.7330017-6.8580017,5.7330017C230.0244446,46.5535011,227.2534485,45.5385017,224.9494629,43.4814987"/>
	<path class="st0" d="M251.2998657,26.9417038h3.1269836l8.4490051,19.3380013h-3.5669861l-1.9470215-4.637001h-9.0789795
		l-1.9750061,4.637001h-3.4559937L251.2998657,26.9417038z M256.1278687,38.6537018l-3.3190002-7.6799965l-3.2910156,7.6799965
		H256.1278687z"/>
	<path class="st0" d="M165.3324585,70.0234985h0.8029785v0.9060059c0.3529968-0.5299988,0.8320007-1.0210037,1.7380066-1.0210037
		c0.8760071,0,1.4370117,0.4680023,1.730011,1.0740051c0.3840027-0.5950012,0.9579773-1.0740051,1.894989-1.0740051
		c1.2399902,0,1.9989929,0.8339996,1.9989929,2.1669998v3.3330002h-0.802002V72.263504
		c0-1.0419998-0.519989-1.6240005-1.394989-1.6240005c-0.8129883,0-1.4790039,0.6029968-1.4790039,1.6650009v3.1039963h-0.803009
		v-3.1660004c0-1.0110016-0.5299988-1.6029968-1.3840027-1.6029968c-0.8539734,0-1.4989929,0.7060013-1.4989929,1.6959991v3.072998
		h-0.8029785V70.0234985z"/>
	<path class="st0" d="M174.7498474,76.3465042l0.3640137-0.6259995c0.6159973,0.447998,1.3029785,0.6869965,2.072998,0.6869965
		c1.1869812,0,1.9579773-0.6549988,1.9579773-1.9169998v-0.6339951c-0.4679871,0.6259918-1.1239929,1.1339951-2.1139832,1.1339951
		c-1.2910156,0-2.5310059-0.9680023-2.5310059-2.5189972v-0.0210037c0-1.5719986,1.2489929-2.5410004,2.5310059-2.5410004
		c1.0109863,0,1.6669922,0.4990005,2.1040039,1.0820007v-0.9679947h0.802002v4.447998
		c0,0.8330002-0.25,1.4679947-0.6870117,1.9049988c-0.4790039,0.4789963-1.197998,0.7190018-2.0509949,0.7190018
		C176.3018494,77.0955048,175.4688416,76.8465042,174.7498474,76.3465042 M179.165863,72.4605026v-0.0210037
		c0-1.1029968-0.9580078-1.8219986-1.9790039-1.8219986c-1.0200195,0-1.8640137,0.7080002-1.8640137,1.8120041v0.0209961
		c0,1.0839996,0.8649902,1.8330002,1.8640137,1.8330002C178.2078552,74.2835007,179.165863,73.5435028,179.165863,72.4605026"/>
	<path class="st0" d="M146.3992615,73.6797028h-3.8440247l-0.2079773-0.6040039l4.125-5.0110016h0.7279968v4.927002h1.1259766
		v0.6880035h-1.1259766v1.7289963h-0.8009949V73.6797028z M146.3992615,72.9916992v-3.7599945l-3.0620117,3.7599945H146.3992615z"/>
	<path class="st0" d="M149.1096497,71.7844009v-0.0219955c0-2.0410004,1.2170105-3.7700043,3.0920105-3.7700043
		c1.8739929,0,3.0619812,1.7080002,3.0619812,3.75v0.0200043c0,2.0419998-1.2070007,3.7709961-3.0820007,3.7709961
		C150.2966614,75.5334015,149.1096497,73.8244019,149.1096497,71.7844009 M154.409668,71.7844009v-0.0219955
		c0-1.5930023-0.8740234-3.0190048-2.2280273-3.0190048c-1.3649902,0-2.2189941,1.3940048-2.2189941,2.9990005v0.0200043
		c0,1.5939941,0.875,3.0209961,2.2390137,3.0209961C153.5666504,74.7834015,154.409668,73.3774033,154.409668,71.7844009"/>
	<path class="st0" d="M156.1297607,71.7844009v-0.0219955c0-2.0410004,1.2179871-3.7700043,3.0929871-3.7700043
		s3.0620117,1.7080002,3.0620117,3.75v0.0200043c0,2.0419998-1.2080078,3.7709961-3.0810242,3.7709961
		C157.3167419,75.5334015,156.1297607,73.8244019,156.1297607,71.7844009 M161.4317627,71.7844009v-0.0219955
		c0-1.5930023-0.875-3.0190048-2.2280273-3.0190048c-1.3659973,0-2.2189941,1.3940048-2.2189941,2.9990005v0.0200043
		c0,1.5939941,0.8739929,3.0209961,2.2380066,3.0209961S161.4317627,73.3774033,161.4317627,71.7844009"/>
	<polygon class="st0" points="193.5568542,51.7761002 194.4578247,51.7761002 188.1248474,64.4131012 187.2248535,64.4131012 	"/>
	<polygon class="st0" points="189.8728638,68.9325027 188.5048523,69.3575058 188.3078613,68.6935043 190.079834,68.0825043 
		190.6818542,68.0825043 190.6818542,75.3915024 189.8728638,75.3915024 	"/>
	<path class="st0" d="M192.2463684,71.7834015v-0.0210037c0-2.0309982,1.2129822-3.7529984,3.0789795-3.7529984
		c1.8660278,0,3.0480042,1.701004,3.0480042,3.7320023v0.0209961c0,2.0320053-1.2019958,3.753006-3.0690002,3.753006
		C193.4283752,75.5154037,192.2463684,73.8143997,192.2463684,71.7834015 M197.5233765,71.7834015v-0.0210037
		c0-1.5859985-0.8700256-3.0069962-2.2190247-3.0069962c-1.3580017,0-2.2079773,1.3909988-2.2079773,2.9860001v0.0209961
		c0,1.5860062,0.8709717,3.0070038,2.2289734,3.0070038S197.5233765,73.3694,197.5233765,71.7834015"/>
	<path class="st0" d="M199.3669434,71.7834015v-0.0210037c0-2.0309982,1.2129822-3.7529984,3.0789795-3.7529984
		c1.8660278,0,3.0480042,1.701004,3.0480042,3.7320023v0.0209961c0,2.0320053-1.2019958,3.753006-3.0690002,3.753006
		C200.5489502,75.5154037,199.3669434,73.8143997,199.3669434,71.7834015 M204.6439514,71.7834015v-0.0210037
		c0-1.5859985-0.8700256-3.0069962-2.2190247-3.0069962c-1.3580017,0-2.2079773,1.3909988-2.2079773,2.9860001v0.0209961
		c0,1.5860062,0.8709717,3.0070038,2.2289734,3.0070038S204.6439514,73.3694,204.6439514,71.7834015"/>
	<path class="st0" d="M208.7057495,70.0313034h0.7979736v0.9020004c0.3529968-0.5289993,0.8300171-1.0149994,1.7320251-1.0149994
		c0.8709717,0,1.4309998,0.4649963,1.7200012,1.0669937c0.3839722-0.5909958,0.9539795-1.0669937,1.88797-1.0669937
		c1.2330017,0,1.9900208,0.8279953,1.9900208,2.1559982v3.3159943h-0.7990112v-3.1289978
		c0-1.0379944-0.5180054-1.6179962-1.3880005-1.6179962c-0.8089905,0-1.4729919,0.6009979-1.4729919,1.6579971v3.0889969h-0.7980042
		V72.240303c0-1.0060043-0.5289917-1.5970001-1.3789978-1.5970001c-0.848999,0-1.4930115,0.7039948-1.4930115,1.6899948v3.0569992
		h-0.7979736V70.0313034z"/>
	<path class="st0" d="M218.2110291,76.3243027l0.3619995-0.6220016c0.6109924,0.4459991,1.29599,0.6839981,2.0630188,0.6839981
		c1.1819763,0,1.9489746-0.6529999,1.9489746-1.9069977v-0.6329956c-0.46698,0.621994-1.118988,1.1299973-2.1039734,1.1299973
		c-1.2850037,0-2.5190125-0.9640045-2.5190125-2.5090027v-0.0199966c0-1.5660019,1.2430115-2.5299988,2.5190125-2.5299988
		c1.0059814,0,1.6579895,0.496994,2.0939941,1.0789948v-0.9639969h0.7980042v4.4259949
		c0,0.8300018-0.2490234,1.4610062-0.6850281,1.8970032c-0.4759827,0.4779968-1.190979,0.7149963-2.0409851,0.7149963
		C219.7550354,77.0702972,218.9260254,76.8223038,218.2110291,76.3243027 M222.6060486,72.4572983v-0.0209961
		c0-1.0979996-0.95401-1.8130035-1.9700012-1.8130035c-1.0160217,0-1.855011,0.7040024-1.855011,1.8030014v0.0210037
		c0,1.0769958,0.8599854,1.8249969,1.855011,1.8249969C221.6520386,74.2723007,222.6060486,73.5363007,222.6060486,72.4572983"/>
	<path class="st0" d="M227.8393555,73.9710007v-3.2340012h-0.7460022v-0.7059937h0.7460022v-1.6160049h0.7979736v1.6160049
		h1.7000122v0.7059937h-1.7000122v3.1310043c0,0.6520004,0.3630066,0.8909988,0.9020081,0.8909988
		c0.269989,0,0.4980164-0.052002,0.7780151-0.1870041v0.6840057c-0.2799988,0.1459961-0.5810242,0.2279968-0.9650269,0.2279968
		C228.4933472,75.4840012,227.8393555,75.0589981,227.8393555,73.9710007"/>
	<path class="st0" d="M231.2903442,73.8363037V73.8153c0-1.1299973,0.9339905-1.7309952,2.2919922-1.7309952
		c0.6839905,0,1.1700134,0.0939941,1.6480103,0.2279968v-0.185997c0-0.9640045-0.5910034-1.4630051-1.5970154-1.4630051
		c-0.6329956,0-1.1300049,0.1660004-1.6269836,0.3940048l-0.2390137-0.6520004
		c0.5910034-0.2700043,1.1719971-0.4459991,1.9490051-0.4459991c0.7569885,0,1.3380127,0.1969986,1.7309875,0.5909958
		c0.3630066,0.3619995,0.5500183,0.8800049,0.5500183,1.5650024v3.276001h-0.7669983v-0.8090057
		c-0.3730164,0.4880066-0.9960022,0.9230042-1.9389954,0.9230042
		C232.2963562,75.5053024,231.2903442,74.9343033,231.2903442,73.8363037 M235.2403564,73.4213028v-0.5179977
		c-0.3940125-0.114006-0.9220276-0.2280045-1.5760193-0.2280045c-1.0059814,0-1.5650024,0.4350052-1.5650024,1.1090012v0.0200043
		c0,0.6749954,0.6220093,1.0689926,1.3470154,1.0689926C234.4313354,74.8732986,235.2403564,74.2723007,235.2403564,73.4213028"/>
	<path class="st0" d="M238.4423523,74.3638992v1.0270004h-0.7969971v-7.5680008h0.7969971v3.2860031
		c0.4360046-0.6419983,1.0679932-1.1920013,2.053009-1.1920013c1.2850037,0,2.5609741,1.0159988,2.5609741,2.7789993v0.0210037
		c0,1.7509995-1.2649841,2.7889938-2.5609741,2.7889938C239.5003357,75.5058975,238.8573608,74.9669037,238.4423523,74.3638992
		 M242.2373657,72.7268982v-0.0209961c0-1.2639999-0.8700256-2.072998-1.8870239-2.072998
		c-0.9949951,0-1.9379883,0.8389969-1.9379883,2.0629959v0.0210037c0,1.2439957,0.9429932,2.072998,1.9379883,2.072998
		C241.3863525,74.7899017,242.2373657,74.021904,242.2373657,72.7268982"/>
	<rect x="244.5473633" y="67.822998" class="st0" width="0.7980042" height="7.5679998"/>
	<path class="st0" d="M246.8172302,72.727005v-0.0200043c0-1.5459976,1.0880127-2.7890015,2.5710144-2.7890015
		c1.5869751,0,2.4989929,1.2639999,2.4989929,2.8290024c0,0.1050034,0,0.1660004-0.0110168,0.2600021h-4.25
		c0.1130066,1.1609955,0.9330139,1.8139954,1.8860168,1.8139954c0.7359924,0,1.2550049-0.3009949,1.6900024-0.7559967
		l0.4979858,0.4449997c-0.5400085,0.6009979-1.1919861,1.0059967-2.2080078,1.0059967
		C248.0202332,75.5159988,246.8172302,74.3860016,246.8172302,72.727005 M251.0782471,72.4160004
		c-0.0820007-0.9749985-0.6430054-1.8249969-1.7110291-1.8249969c-0.9319763,0-1.6380005,0.7770004-1.7409973,1.8249969H251.0782471
		z"/>
	<path class="st0" d="M253.5133667,73.9710007v-3.2340012h-0.7460022v-0.7059937h0.7460022v-1.6160049h0.7979736v1.6160049
		h1.7000122v0.7059937h-1.7000122v3.1310043c0,0.6520004,0.3630066,0.8909988,0.9020081,0.8909988
		c0.269989,0,0.4980164-0.052002,0.7780151-0.1870041v0.6840057c-0.2799988,0.1459961-0.5810242,0.2279968-0.9650269,0.2279968
		C254.1673584,75.4840012,253.5133667,75.0589981,253.5133667,73.9710007"/>
	<path class="st0" d="M256.9232483,74.7070007l0.4039917-0.5699997c0.5809937,0.4349976,1.223999,0.6829987,1.8549805,0.6829987
		c0.6440125,0,1.1100159-0.3310013,1.1100159-0.848999v-0.0209961c0-0.5390015-0.6319885-0.7460022-1.3380127-0.9430008
		c-0.8389893-0.2389984-1.7720032-0.5299988-1.7720032-1.5130005v-0.0210037c0-0.923996,0.7680054-1.5339966,1.8240051-1.5339966
		c0.6540222,0,1.3789978,0.2269974,1.928009,0.5909958l-0.3619995,0.6000061
		c-0.4970093-0.3210068-1.0670166-0.5180054-1.5859985-0.5180054c-0.6319885,0-1.0360107,0.3310013-1.0360107,0.7779999v0.0200043
		c0,0.5079956,0.6629944,0.7049942,1.3780212,0.9229965c0.8289795,0.2490005,1.7209778,0.5699997,1.7209778,1.5340042v0.0209961
		c0,1.0159988-0.8399963,1.6070023-1.9069824,1.6070023C258.3752441,75.4950027,257.524231,75.1949997,256.9232483,74.7070007"/>
	<polygon class="st0" points="186.519165,67.1884003 187.2581482,67.1884003 182.4251404,76.8334045 181.6851501,76.8334045 	"/>
</g>
<polygon points="265.9952698,26.8506012 273.8282471,40.463604 273.8302612,40.463604 281.70224,26.8546028 281.70224,26.8506012 
	"/>
</svg>
