<?xml version="1.0" encoding="utf-8"?>
<!-- Generator: Adobe Illustrator 26.3.1, SVG Export Plug-In . SVG Version: 6.00 Build 0)  -->
<svg version="1.1" id="Layer_1" xmlns="http://www.w3.org/2000/svg" xmlns:xlink="http://www.w3.org/1999/xlink" x="0px" y="0px"
	 viewBox="0 0 122.6077881 36.2750015" style="enable-background:new 0 0 122.6077881 36.2750015;" xml:space="preserve">
<style type="text/css">
	.st0{fill:#FFFFFF;}
</style>
<g>
	<path class="st0" d="M111.3509979,8.0355034c-0.6950073,0-1.2610016,0.5690002-1.2610016,1.2680016v0.0089989
		c0,0.6940002,0.5659943,1.2599983,1.2610016,1.2599983c0.6959991,0,1.260994-0.5690002,1.260994-1.2759972
		C112.6119919,8.6015015,112.0469971,8.0355034,111.3509979,8.0355034 M111.3509979,10.3795013
		c-0.5960007,0-1.0620041-0.468998-1.0620041-1.0669975V9.3035049c0-0.5920029,0.4769974-1.0750008,1.0620041-1.0750008
		c0.5949936,0,1.060997,0.468998,1.060997,1.0750008C112.4119949,9.8975029,111.935997,10.3795013,111.3509979,10.3795013"/>
	<path class="st0" d="M111.6763,9.4595032c0.1699982-0.0559998,0.2829971-0.1899986,0.2829971-0.3959999
		c0-0.2900009-0.2180023-0.4249992-0.5159988-0.4249992h-0.6019974v1.2809982h0.3119965V9.5165024h0.1969986l0.2770004,0.4029999
		h0.375L111.6763,9.4595032z M111.4223022,9.2615013h-0.2690048V8.907505h0.2690048
		c0.1339951,0,0.2179947,0.0639992,0.2179947,0.1779976C111.6402969,9.1915016,111.5633011,9.2615013,111.4223022,9.2615013"/>
	<path class="st0" d="M32.5587006,27.612402l0.3029976-0.4239998c0.4350014,0.3240013,0.9169998,0.5090008,1.3909988,0.5090008
		c0.4820023,0,0.8320007-0.2469997,0.8320007-0.6329994v-0.0150013c0-0.4009991-0.473999-0.5550003-1.0019989-0.7019997
		c-0.6300011-0.177-1.3300018-0.3939991-1.3300018-1.1259995v-0.0160007c0-0.6859989,0.5760002-1.1409988,1.368-1.1409988
		c0.4900017,0,1.0349998,0.1700001,1.446003,0.4389992l-0.2719994,0.448
		c-0.3730011-0.2390003-0.8000031-0.3859997-1.189003-0.3859997c-0.473999,0-0.7770004,0.2469997-0.7770004,0.5790005v0.0149994
		c0,0.3780003,0.4970016,0.5249996,1.0330009,0.6870003c0.6220016,0.1849995,1.2900009,0.4239998,1.2900009,1.1409988v0.0160007
		c0,0.7560005-0.6290016,1.1960011-1.4290009,1.1960011C33.646698,28.1994038,33.009697,27.9744034,32.5587006,27.612402"/>
	<path class="st0" d="M39.7622986,26.1470013v-0.0149994c0-0.8570004-0.6450005-1.5580006-1.4920006-1.5580006
		c-0.8699989,0-1.468998,0.7010002-1.468998,1.5420017v0.0159988c0,0.8549995,0.6380005,1.5500011,1.4840012,1.5500011
		C39.1562996,27.682003,39.7622986,26.9870014,39.7622986,26.1470013 M36.1873016,26.1470013v-0.0149994
		c0-1.1269989,0.8859978-2.0830002,2.0979996-2.0830002c1.204998,0,2.0919991,0.941,2.0919991,2.0670013v0.0159988
		c0,1.125-0.894001,2.0820007-2.1070023,2.0820007C37.0653,28.2140026,36.1873016,27.2730026,36.1873016,26.1470013"/>
	<path class="st0" d="M41.2963982,24.6582012h-0.552002v-0.5159988h0.552002v-0.3479996c0-0.4540005,0.125-0.802,0.3499985-1.026001
		c0.2019997-0.1999989,0.4969978-0.3080006,0.862999-0.3080006c0.2789993,0,0.4659996,0.0310001,0.6599998,0.1000004v0.5170002
		c-0.2169991-0.0620003-0.3810005-0.1000004-0.5820007-0.1000004c-0.4669991,0-0.6999969,0.2779999-0.6999969,0.8480015v0.3239994
		h1.2739983v0.5089989h-1.2669983v3.4630013h-0.5979996V24.6582012z"/>
	<path class="st0" d="M46.870697,26.1470013v-0.0149994c0-0.8570004-0.6450005-1.5580006-1.4920006-1.5580006
		c-0.8699989,0-1.468998,0.7010002-1.468998,1.5420017v0.0159988c0,0.8549995,0.6380005,1.5500011,1.4840012,1.5500011
		C46.264698,27.682003,46.870697,26.9870014,46.870697,26.1470013 M43.2957001,26.1470013v-0.0149994
		c0-1.1269989,0.8859978-2.0830002,2.0979996-2.0830002c1.204998,0,2.0919991,0.941,2.0919991,2.0670013v0.0159988
		c0,1.125-0.894001,2.0820007-2.1070023,2.0820007C44.1736984,28.2140026,43.2957001,27.2730026,43.2957001,26.1470013"/>
	<path class="st0" d="M47.8978996,27.612402l0.3029976-0.4239998c0.4350014,0.3240013,0.9169998,0.5090008,1.3909988,0.5090008
		c0.4820023,0,0.8320007-0.2469997,0.8320007-0.6329994v-0.0150013c0-0.4009991-0.473999-0.5550003-1.0019989-0.7019997
		c-0.6300011-0.177-1.3300018-0.3939991-1.3300018-1.1259995v-0.0160007c0-0.6859989,0.5760002-1.1409988,1.3690033-1.1409988
		c0.4889984,0,1.0339966,0.1700001,1.4449997,0.4389992l-0.2719994,0.448
		c-0.3730011-0.2390003-0.8000031-0.3859997-1.189003-0.3859997c-0.473999,0-0.7770004,0.2469997-0.7770004,0.5790005v0.0149994
		c0,0.3780003,0.4970016,0.5249996,1.0330009,0.6870003c0.6220016,0.1849995,1.2900009,0.4239998,1.2900009,1.1409988v0.0160007
		c0,0.7560005-0.6290016,1.1960011-1.4290009,1.1960011C48.9858971,28.1994038,48.348896,27.9744034,47.8978996,27.612402"/>
	<path class="st0" d="M55.2359924,26.1390018v-0.0149994c0-0.9419994-0.6529999-1.5429993-1.4149971-1.5429993
		c-0.7459984,0-1.4539986,0.625-1.4539986,1.5349998v0.0149994c0,0.9260006,0.7080002,1.5430012,1.4539986,1.5430012
		C54.5989914,27.6740036,55.2359924,27.1030025,55.2359924,26.1390018 M52.3909988,27.3580017v0.7630005h-0.5980034V22.491003
		h0.5980034v2.4449997c0.3259964-0.4780006,0.8009987-0.887001,1.5389977-0.887001
		c0.9640007,0,1.920002,0.7560005,1.920002,2.0670013v0.0149994c0,1.3040009-0.9480057,2.0750008-1.920002,2.0750008
		C53.1839981,28.2060032,52.7019958,27.8050022,52.3909988,27.3580017"/>
	<path class="st0" d="M56.6355972,26.6097012v-2.4759998h0.5979996v2.3299999c0,0.7400017,0.4049988,1.203001,1.1119995,1.203001
		c0.6839981,0,1.2049942-0.5020008,1.2049942-1.25v-2.2830009h0.5910034v3.9880009h-0.5910034V27.427702
		c-0.2719955,0.4319992-0.6839981,0.7779999-1.3759995,0.7779999C57.2025909,28.2057018,56.6355972,27.557703,56.6355972,26.6097012
		"/>
	<polygon class="st0" points="60.7582016,24.1337013 61.4191971,24.1337013 62.7711945,27.4427013 64.1321945,24.1337013 
		64.7771988,24.1337013 63.0281982,28.1527023 62.4991989,28.1527023 	"/>
	<path class="st0" d="M65.4169998,24.1340008h0.5979996v3.9869995h-0.5979996V24.1340008z M65.3779984,22.6070023h0.6839981
		v0.6550007h-0.6839981V22.6070023z"/>
	<path class="st0" d="M67.0927963,24.1337013h0.5979996v1.0420017c0.2959976-0.6640015,0.8789978-1.1420002,1.6409988-1.1110001
		v0.6399994H69.28479c-0.8779984,0-1.5939941,0.6240005-1.5939941,1.8279991v1.5880013h-0.5979996V24.1337013z"/>
	<polygon class="st0" points="73.9151001,24.1337013 74.5760956,24.1337013 75.928093,27.4427013 77.289093,24.1337013 
		77.9340973,24.1337013 76.1850967,28.1527023 75.6560974,28.1527023 	"/>
	<path class="st0" d="M81.3188019,25.9080029c-0.0630035-0.7259998-0.4820023-1.3570004-1.2830048-1.3570004
		c-0.6989975,0-1.2279968,0.578001-1.3059998,1.3570004H81.3188019z M78.1238022,26.1390018v-0.0149994
		c0-1.1499996,0.8159943-2.0749989,1.9279938-2.0749989c1.189003,0,1.8730011,0.941,1.8730011,2.105999
		c0,0.0769997,0,0.1230011-0.0079956,0.1930008h-3.1870041c0.0859985,0.862999,0.7000046,1.348999,1.4150009,1.348999
		c0.552002,0,0.9410019-0.223999,1.2669983-0.5629997l0.3730011,0.3320007
		c-0.4039993,0.4469986-0.8939972,0.7479992-1.6559982,0.7479992C79.025795,28.2140026,78.1238022,27.373003,78.1238022,26.1390018"
		/>
	<rect x="82.7590027" y="22.4910011" class="st0" width="0.5979996" height="5.6300011"/>
	<path class="st0" d="M87.8720932,26.1387024V26.123703c0-0.941-0.6529999-1.5430012-1.4149933-1.5430012
		c-0.7470016,0-1.4540024,0.625-1.4540024,1.5349998v0.0150013c0,0.927,0.7070007,1.5429993,1.4540024,1.5429993
		C87.2341003,27.6737022,87.8720932,27.1027031,87.8720932,26.1387024 M84.4281006,24.1337013h0.5979996v0.802
		c0.3269958-0.4779987,0.8009949-0.8869991,1.5399933-0.8869991c0.9640045,0,1.9200058,0.7560005,1.9200058,2.0669994v0.0150013
		c0,1.3039989-0.9490051,2.0749989-1.9200058,2.0749989c-0.7459946,0-1.2289963-0.4009991-1.5399933-0.8479996v1.9979992h-0.5979996
		V24.1337013z"/>
	<path class="st0" d="M91.9634018,26.6565037V26.270504c-0.2960052-0.085001-0.6920013-0.1700001-1.1819992-0.1700001
		c-0.7540054,0-1.1730042,0.3239994-1.1730042,0.8260002v0.0149994c0,0.5009995,0.4660034,0.7940006,1.0100021,0.7940006
		C91.3563995,27.7355042,91.9634018,27.2885036,91.9634018,26.6565037 M89.0014038,26.9645023v-0.0149994
		c0-0.8409996,0.6999969-1.2880001,1.7179947-1.2880001c0.5130005,0,0.8789978,0.0690002,1.2360001,0.1690006v-0.1389999
		c0-0.717001-0.4430008-1.0869999-1.1969986-1.0869999c-0.473999,0-0.8479996,0.1229992-1.2210007,0.2929993l-0.1780014-0.4860001
		c0.4430008-0.1999989,0.8779984-0.3319988,1.4609985-0.3319988c0.5670013,0,1.003006,0.1469994,1.2980042,0.4399986
		c0.2720032,0.2700005,0.413002,0.6560001,0.413002,1.1650009v2.4370003h-0.576004v-0.6020012
		c-0.2799988,0.3630009-0.7460022,0.6860008-1.4539948,0.6860008
		C89.7554016,28.2055035,89.0014038,27.7825031,89.0014038,26.9645023"/>
	<path class="st0" d="M93.6546021,27.0646019v-2.4069996h-0.5590057v-0.5240002h0.5590057V22.930603h0.5979996v1.2029991h1.2749939
		v0.5240002h-1.2749939v2.3299999c0,0.4860001,0.2719955,0.6640015,0.6769943,0.6640015
		c0.201004,0,0.3730011-0.0390015,0.5830002-0.1400013v0.5100002c-0.2099991,0.1070004-0.435997,0.1690006-0.7229996,0.1690006
		C94.1445999,28.1906033,93.6546021,27.8746033,93.6546021,27.0646019"/>
	<path class="st0" d="M98.9506989,26.6565037V26.270504c-0.2950058-0.085001-0.6910019-0.1700001-1.1809998-0.1700001
		c-0.7540054,0-1.1740036,0.3239994-1.1740036,0.8260002v0.0149994c0,0.5009995,0.4660034,0.7940006,1.0110016,0.7940006
		C98.344696,27.7355042,98.9506989,27.2885036,98.9506989,26.6565037 M95.9897003,26.9645023v-0.0149994
		c0-0.8409996,0.6989975-1.2880001,1.7179947-1.2880001c0.5130005,0,0.8779984,0.0690002,1.2350006,0.1690006v-0.1389999
		c0-0.717001-0.4430008-1.0869999-1.1969986-1.0869999c-0.473999,0-0.8470001,0.1229992-1.2200012,0.2929993l-0.1790009-0.4860001
		c0.4430008-0.1999989,0.8789978-0.3319988,1.461998-0.3319988c0.5670013,0,1.0020065,0.1469994,1.2980042,0.4399986
		c0.2720032,0.2700005,0.4120026,0.6560001,0.4120026,1.1650009v2.4370003h-0.576004v-0.6020012
		c-0.2789993,0.3630009-0.7450027,0.6860008-1.4529953,0.6860008
		C96.7426987,28.2055035,95.9897003,27.7825031,95.9897003,26.9645023"/>
	<path class="st0" d="M100.1692963,27.612402l0.3029938-0.4239998c0.4360046,0.3240013,0.9169998,0.5090008,1.3920059,0.5090008
		c0.4809952,0,0.8309937-0.2469997,0.8309937-0.6329994v-0.0150013c0-0.4009991-0.473999-0.5550003-1.0019989-0.7019997
		c-0.6299973-0.177-1.3289948-0.3939991-1.3289948-1.1259995v-0.0160007c0-0.6859989,0.5739975-1.1409988,1.3679962-1.1409988
		c0.4889984,0,1.0339966,0.1700001,1.4449997,0.4389992l-0.2719955,0.448
		c-0.3730011-0.2390003-0.8000031-0.3859997-1.189003-0.3859997c-0.473999,0-0.7779999,0.2469997-0.7779999,0.5790005v0.0149994
		c0,0.3780003,0.4980011,0.5249996,1.0339966,0.6870003c0.6220016,0.1849995,1.2910004,0.4239998,1.2910004,1.1409988v0.0160007
		c0,0.7560005-0.6299973,1.1960011-1.4300003,1.1960011C101.2572937,28.1994038,100.6202927,27.9744034,100.1692963,27.612402"/>
	<polygon class="st0" points="103.669899,24.1337013 104.3308945,24.1337013 105.6838989,27.4427013 107.0438919,24.1337013 
		107.6888962,24.1337013 105.9398956,28.1527023 105.4108963,28.1527023 	"/>
	<path class="st0" d="M108.3290024,24.1340008h0.598999v3.9869995h-0.598999V24.1340008z M108.2900009,22.6070023h0.6839981
		v0.6550007h-0.6839981V22.6070023z"/>
	<path class="st0" d="M110.0077972,24.1337013h0.5979996v1.0420017c0.2959976-0.6640015,0.8789978-1.1420002,1.6409988-1.1110001
		v0.6399994h-0.0470047c-0.8779984,0-1.5939941,0.6240005-1.5939941,1.8279991v1.5880013h-0.5979996V24.1337013z"/>
	<path class="st0" d="M17.2084999,3.6291008l-0.2059994-0.2749977l-0.1670017-0.1720009
		c-0.8339996-0.9420013-1.8369999-1.6990013-2.9820004-2.25c-1.2879982-0.618-2.664999-0.9319992-4.0909996-0.9319992
		c-3.6149998,0-6.9619989,2.1049995-8.5289993,5.3660011c-1.0929995,2.2770004-1.2339993,4.843998-0.3969994,7.2259979
		c0.8379993,2.3840008,2.5549994,4.2989998,4.8329992,5.3920002c1.2440004,0.5970001,2.5719995,0.9099998,3.9490004,0.9300003
		l19.8470001,0.0039997L17.2084999,3.6291008z M6.9095001,15.3991013c-1.5880003-0.7609997-2.783-2.0959969-3.3670006-3.7579994
		c-0.5830002-1.6599998-0.4849997-3.447998,0.276-5.0349998c1.092-2.2719994,3.4250002-3.7389984,5.9439993-3.7389984
		c0.993,0,1.9519997,0.218998,2.8500004,0.6499977c0.816,0.3930016,1.5279999,0.9350014,2.1170006,1.6110001l0.0889988,0.0940018
		l0.1250019,0.1650009l8.5480003,10.6629982L9.661499,16.047102C8.7024994,16.033102,7.7764988,15.8151016,6.9095001,15.3991013"/>
	<path class="st0" d="M13.8104992,6.2661018L13.727499,6.1551056l-0.0560017-0.057003
		c-0.4649982-0.5419998-1.0299988-0.9759979-1.6799984-1.2879982c-0.7019997-0.3380013-1.4519997-0.5089989-2.2299995-0.5089989
		c-1.9710007,0-3.7960005,1.1479988-4.6500006,2.9249992c-0.5959997,1.2420006-0.6729994,2.6409988-0.2159996,3.9399986
		c0.4560003,1.3009987,1.3919992,2.3440018,2.6339998,2.9399986c0.6789989,0.3250008,1.4029999,0.4960003,2.1529999,0.5079994
		l10.8209991,0.0010014L13.8104992,6.2661018z"/>
	<polygon class="st0" points="32.6346016,8.0100021 40.6795998,8.0100021 40.6795998,9.715004 34.5405998,9.715004 
		34.5405998,12.5360031 39.9816017,12.5360031 39.9816017,14.2410049 34.5405998,14.2410049 34.5405998,17.156002 
		40.7565994,17.156002 40.7565994,18.8600025 32.6346016,18.8600025 	"/>
	<path class="st0" d="M44.3135986,8.009304h4.2779999c2.5419998,0,4.1230011,1.4419975,4.1230011,3.6279984v0.031002
		c0,2.4329987-1.9530029,3.704998-4.3400002,3.704998h-2.1550026v3.4869995h-1.9059982V8.009304z M48.4365997,13.6523018
		c1.4419975,0,2.3409996-0.8059998,2.3409996-1.9379997v-0.0299988c0-1.2709999-0.9150009-1.9379997-2.3409996-1.9379997h-2.2170029
		v3.9059982H48.4365997z"/>
	<path class="st0" d="M55.259697,13.466301v-0.0309982c0-3.0849991,2.3099976-5.6119995,5.595993-5.6119995
		c1.9990005,0,3.2080002,0.697998,4.2470016,1.6899986l-1.2249985,1.4109993
		c-0.8669968-0.8059998-1.7979965-1.348999-3.038002-1.348999c-2.0619965,0-3.5799942,1.7050018-3.5799942,3.8290024v0.0309982
		c0,2.1239986,1.5029984,3.8439999,3.5799942,3.8439999c1.3330002,0,2.1860046-0.5270004,3.1160049-1.3950005l1.2249985,1.2399998
		c-1.1320038,1.1779995-2.3720016,1.921999-4.4029999,1.921999C57.6156921,19.0463009,55.259697,16.5823021,55.259697,13.466301"/>
	<polygon class="st0" points="68.4728012,8.0100021 70.3787994,8.0100021 70.3787994,17.1240025 76.0838013,17.1240025 
		76.0838013,18.8600025 68.4728012,18.8600025 	"/>
	<path class="st0" d="M78.4384003,14.2567024V8.010704h1.9059982v6.1689987c0,2.0150013,1.0390015,3.0839996,2.7439957,3.0839996
		c1.6900024,0,2.7280045-1.007,2.7280045-3.007V8.010704h1.9069977v6.1529999c0,3.2399998-1.8290024,4.8669987-4.6660004,4.8669987
		C80.2363968,19.0307026,78.4384003,17.4037037,78.4384003,14.2567024"/>
	<path class="st0" d="M90.9076996,17.2794018l1.1469955-1.3639984c1.0390015,0.8990002,2.0920029,1.4109993,3.4250031,1.4109993
		c1.1780014,0,1.9229965-0.5580006,1.9229965-1.3649998v-0.0300007c0-0.7749996-0.4339981-1.1940002-2.4489975-1.6589985
		c-2.3100052-0.5579987-3.6119995-1.2400017-3.6119995-3.2400017v-0.0309982c0-1.8600006,1.5499954-3.1469994,3.7050018-3.1469994
		c1.5809937,0,2.836998,0.480999,3.9369965,1.3649979l-1.0230026,1.4410019
		c-0.9769974-0.7280006-1.9529953-1.1160011-2.9449997-1.1160011c-1.1159973,0-1.7679977,0.5740013-1.7679977,1.2869987v0.0300026
		c0,0.836998,0.4970016,1.2099991,2.5889969,1.7059975c2.2940063,0.5580025,3.4720001,1.3790016,3.4720001,3.177v0.0310001
		c0,2.0310001-1.5960007,3.2399998-3.875,3.2399998C93.7756958,19.0154018,92.2096939,18.4424019,90.9076996,17.2794018"/>
	<path class="st0" d="M105.7987976,7.9323044h1.7659988l4.7750015,10.9279976h-2.0149994l-1.1009979-2.6199989h-5.1300049
		l-1.1159973,2.6199989h-1.9530029L105.7987976,7.9323044z M108.5268021,14.551302l-1.8760071-4.3399982l-1.8589935,4.3399982
		H108.5268021z"/>
	<path class="st0" d="M57.2180023,32.2783012h0.4539948v0.512001c0.1990051-0.2999992,0.4700012-0.5769997,0.9820023-0.5769997
		c0.4950027,0,0.8119965,0.2649994,0.9779968,0.6069984c0.2170029-0.3359985,0.5410004-0.6069984,1.0699997-0.6069984
		c0.701004,0,1.1300049,0.4710007,1.1300049,1.2249985v1.8829994h-0.4530029v-1.7769966
		c0-0.5890045-0.2939987-0.9180031-0.7890015-0.9180031c-0.4589996,0-0.8349991,0.3409996-0.8349991,0.9410019v1.7539978h-0.4540024
		v-1.7889977c0-0.5709991-0.2999954-0.906002-0.7819977-0.906002c-0.4830017,0-0.8470001,0.3990021-0.8470001,0.9589996v1.7360001
		h-0.4539948V32.2783012z"/>
	<path class="st0" d="M62.5393982,35.8515015l0.2060013-0.3540001c0.3479996,0.2540016,0.7360001,0.3889999,1.1719971,0.3889999
		c0.6709976,0,1.1060028-0.3709984,1.1060028-1.0839996v-0.3579979c-0.2639999,0.3529968-0.6350021,0.6409988-1.1940002,0.6409988
		c-0.7300034,0-1.4309998-0.5470009-1.4309998-1.4239998v-0.012001c0-0.8880005,0.7059937-1.4360008,1.4309998-1.4360008
		c0.5709991,0,0.9419937,0.2820015,1.1889954,0.6119995v-0.5469971h0.4530029v2.5130005
		c0,0.4709969-0.1419983,0.829998-0.3889999,1.0769958c-0.2700043,0.2710037-0.677002,0.406002-1.1590042,0.406002
		C63.4173965,36.2745018,62.9463959,36.133503,62.5393982,35.8515015 M65.0354004,33.6555023v-0.012001
		c0-0.6230011-0.5410004-1.0299988-1.1180038-1.0299988s-1.0530014,0.401001-1.0530014,1.0250015v0.0109978
		c0,0.612999,0.487999,1.0359993,1.0530014,1.0359993C64.4944,34.6855011,65.0354004,34.2675018,65.0354004,33.6555023"/>
	<path class="st0" d="M46.5189018,34.3447037h-2.1720009l-0.118-0.3420029l2.3309975-2.8309975h0.4120026v2.7840004h0.6359978
		v0.3889999h-0.6359978v0.9769974h-0.4529991V34.3447037z M46.5189018,33.9557037v-2.1250019l-1.7300034,2.1250019H46.5189018z"/>
	<path class="st0" d="M48.0505981,33.2735023v-0.0130005c0-1.1529999,0.6879997-2.1300011,1.7480011-2.1300011
		c1.0579987,0,1.7299995,0.9650002,1.7299995,2.1190033v0.0109978c0,1.1549988-0.6829987,2.132-1.7420006,2.132
		C48.7206001,35.3925018,48.0505981,34.4265022,48.0505981,33.2735023 M51.0456009,33.2735023v-0.0130005
		c0-0.8999977-0.4940033-1.7060013-1.2590027-1.7060013c-0.7709999,0-1.2539978,0.788002-1.2539978,1.6950035v0.0109978
		c0,0.901001,0.4949989,1.7080002,1.2659988,1.7080002C50.5685997,34.968502,51.0456009,34.1735001,51.0456009,33.2735023"/>
	<path class="st0" d="M52.0177994,33.2735023v-0.0130005c0-1.1529999,0.6879997-2.1300011,1.7480011-2.1300011
		c1.0589981,0,1.7299957,0.9650002,1.7299957,2.1190033v0.0109978c0,1.1549988-0.6819992,2.132-1.7409973,2.132
		C52.6888008,35.3925018,52.0177994,34.4265022,52.0177994,33.2735023 M55.0138016,33.2735023v-0.0130005
		c0-0.8999977-0.4950027-1.7060013-1.2590027-1.7060013c-0.7719994,0-1.2539978,0.788002-1.2539978,1.6950035v0.0109978
		c0,0.901001,0.4939995,1.7080002,1.2649994,1.7080002C54.5367966,34.968502,55.0138016,34.1735001,55.0138016,33.2735023"/>
	<polygon class="st0" points="73.1677017,21.9667015 73.6766968,21.9667015 70.0976944,29.1077023 69.5896988,29.1077023 	"/>
	<polygon class="st0" points="71.0858994,31.6618004 70.3128967,31.9018021 70.2018967,31.5268021 71.2028961,31.1818008 
		71.5428925,31.1818008 71.5428925,35.3118019 71.0858994,35.3118019 	"/>
	<path class="st0" d="M72.4272003,33.2729034v-0.012001c0-1.1480026,0.6849976-2.1200008,1.7399979-2.1200008
		c1.0540009,0,1.7220001,0.960001,1.7220001,2.1079998v0.012001c0,1.1479988-0.6790009,2.1209984-1.7340012,2.1209984
		C73.0951996,35.3819008,72.4272003,34.4209023,72.4272003,33.2729034 M75.4092026,33.2729034v-0.012001
		c0-0.8959999-0.4920044-1.6990013-1.2540054-1.6990013c-0.7669983,0-1.2480011,0.7859993-1.2480011,1.6870003v0.012001
		c0,0.8959999,0.4930038,1.6989975,1.2600021,1.6989975S75.4092026,34.1689034,75.4092026,33.2729034"/>
	<path class="st0" d="M76.4510956,33.2729034v-0.012001c0-1.1480026,0.6849976-2.1200008,1.7399979-2.1200008
		c1.0540009,0,1.7220001,0.960001,1.7220001,2.1079998v0.012001c0,1.1479988-0.6790009,2.1209984-1.7340012,2.1209984
		C77.1190948,35.3819008,76.4510956,34.4209023,76.4510956,33.2729034 M79.4330978,33.2729034v-0.012001
		c0-0.8959999-0.4920044-1.6990013-1.2540054-1.6990013c-0.7669983,0-1.2480011,0.7859993-1.2480011,1.6870003v0.012001
		c0,0.8959999,0.4930038,1.6989975,1.2600021,1.6989975S79.4330978,34.1689034,79.4330978,33.2729034"/>
	<path class="st0" d="M81.7284012,32.2828026h0.4509964v0.5099983c0.1999969-0.2989998,0.4690018-0.5739975,0.9789963-0.5739975
		c0.4920044,0,0.8080063,0.2630005,0.9720001,0.6029968c0.2170029-0.3339996,0.5390015-0.6029968,1.0660019-0.6029968
		c0.6969986,0,1.125,0.4679985,1.125,1.2179985v1.875h-0.4509964v-1.769001c0-0.586998-0.2929993-0.9139977-0.7850037-0.9139977
		c-0.4570007,0-0.8320007,0.3390007-0.8320007,0.9370003v1.7459984h-0.4509964v-1.781002
		c0-0.567997-0.2990036-0.9019966-0.7789993-0.9019966c-0.4800034,0-0.8440018,0.3979988-0.8440018,0.954998v1.7280006h-0.4509964
		V32.2828026z"/>
	<path class="st0" d="M87.0995026,35.8387032l0.2049942-0.3510017c0.3450012,0.2519989,0.7320023,0.3860016,1.1660004,0.3860016
		c0.6679993,0,1.1010056-0.3689995,1.1010056-1.0780029v-0.3569984c-0.2639999,0.3510017-0.6320038,0.6389999-1.189003,0.6389999
		c-0.7259979,0-1.4229965-0.5449982-1.4229965-1.4179993v-0.012001c0-0.8849983,0.7019958-1.428997,1.4229965-1.428997
		c0.5690002,0,0.9369965,0.2809982,1.1839981,0.6089973v-0.5449982h0.4500046v2.5019989
		c0,0.468998-0.1399994,0.8250008-0.3860016,1.0719986c-0.2700043,0.2700005-0.6740036,0.4040031-1.1539993,0.4040031
		C87.9725037,36.260704,87.5035019,36.1197014,87.0995026,35.8387032 M89.5835037,33.6537018v-0.012001
		c0-0.6199989-0.5390015-1.0249977-1.1130066-1.0249977c-0.5739975,0-1.048996,0.3979988-1.048996,1.0200005v0.0109978
		c0,0.6090012,0.4869995,1.0320015,1.048996,1.0320015C89.0445023,34.6797028,89.5835037,34.2627029,89.5835037,33.6537018"/>
	<path class="st0" d="M92.5409012,34.5091019v-1.8279991h-0.4220047v-0.3979988h0.4220047v-0.9140015h0.4509964v0.9140015h0.9609985
		v0.3979988h-0.9609985v1.7700005c0,0.368,0.2050018,0.5029984,0.5100021,0.5029984
		c0.1520004,0,0.2809982-0.0289993,0.4399948-0.1049995v0.3860016c-0.1589966,0.0819969-0.3289948,0.1289978-0.5459976,0.1289978
		C92.9098969,35.3641014,92.5409012,35.1241035,92.5409012,34.5091019"/>
	<path class="st0" d="M94.4910965,34.4325027v-0.0110016c0-0.6389999,0.5270004-0.9790001,1.2949982-0.9790001
		c0.387001,0,0.6610031,0.0530014,0.9309998,0.1290016v-0.1049995c0-0.545002-0.3339996-0.8260002-0.9020004-0.8260002
		c-0.3580017,0-0.6389999,0.0929985-0.9199982,0.2220001l-0.1350021-0.3690033
		c0.3339996-0.1519966,0.663002-0.2509995,1.102005-0.2509995c0.4279938,0,0.7559967,0.1110001,0.9779968,0.3339996
		c0.2050018,0.2040024,0.310997,0.4970016,0.310997,0.8840027v1.8509979h-0.4339981v-0.4570007
		c-0.2099991,0.276001-0.5619965,0.5220032-1.0950012,0.5220032C95.0590973,35.376503,94.4910965,35.0535011,94.4910965,34.4325027
		 M96.7230988,34.1985016v-0.2929993c-0.2230072-0.0639992-0.5210037-0.1290016-0.8910065-0.1290016
		c-0.5680008,0-0.8839951,0.2460022-0.8839951,0.6270027v0.0109978c0,0.382,0.3509979,0.6040001,0.760994,0.6040001
		C96.266098,35.0185013,96.7230988,34.6795044,96.7230988,34.1985016"/>
	<path class="st0" d="M98.5331955,34.731102v0.5810013h-0.4509964v-4.2770004h0.4509964v1.8569984
		c0.2460022-0.362999,0.6030045-0.6739998,1.1600037-0.6739998c0.7259979,0,1.4469986,0.5740013,1.4469986,1.5709991v0.0110016
		c0,0.9899979-0.715004,1.5760002-1.4469986,1.5760002C99.1301956,35.3761024,98.7671967,35.0721016,98.5331955,34.731102
		 M100.6772003,33.8061028v-0.012001c0-0.7140007-0.4920044-1.1710014-1.0670013-1.1710014
		c-0.5620041,0-1.0950012,0.4740028-1.0950012,1.1660004v0.0110016c0,0.7029991,0.5329971,1.1720009,1.0950012,1.1720009
		C100.1961975,34.9721031,100.6772003,34.5381012,100.6772003,33.8061028"/>
	<rect x="101.9830017" y="31.0350018" class="st0" width="0.4509964" height="4.2770004"/>
	<path class="st0" d="M103.2651978,33.8064041v-0.012001c0-0.8730011,0.6149979-1.5760002,1.4530029-1.5760002
		c0.8969955,0,1.4119949,0.7150002,1.4119949,1.598999c0,0.0590019,0,0.093998-0.0059967,0.1469994h-2.4020004
		c0.064003,0.656002,0.5270004,1.0250015,1.0660019,1.0250015c0.4160004,0,0.7089996-0.170002,0.9550018-0.427002
		l0.2809982,0.2509995c-0.3040009,0.340004-0.6730042,0.5690002-1.2470016,0.5690002
		C103.9451981,35.3824005,103.2651978,34.7434006,103.2651978,33.8064041 M105.6732025,33.6304016
		c-0.0470047-0.5509987-0.3630066-1.0309982-0.9670029-1.0309982c-0.5270004,0-0.9250031,0.4389992-0.9840012,1.0309982H105.6732025
		z"/>
	<path class="st0" d="M107.0493011,34.5091019v-1.8279991h-0.4220047v-0.3979988h0.4220047v-0.9140015h0.4509964v0.9140015
		h0.9609985v0.3979988h-0.9609985v1.7700005c0,0.368,0.2050018,0.5029984,0.5100021,0.5029984
		c0.1520004,0,0.2809982-0.0289993,0.4399948-0.1049995v0.3860016c-0.1589966,0.0819969-0.3289948,0.1289978-0.5459976,0.1289978
		C107.4182968,35.3641014,107.0493011,35.1241035,107.0493011,34.5091019"/>
	<path class="st0" d="M108.9761963,34.9250031l0.2279968-0.3220024c0.3290024,0.2449989,0.6920013,0.3860016,1.048996,0.3860016
		c0.364006,0,0.6270065-0.1870003,0.6270065-0.4799995v-0.012001c0-0.3050003-0.3570023-0.4220009-0.7560043-0.5330009
		c-0.4749985-0.1349983-1.0019989-0.2989998-1.0019989-0.8549995v-0.012001c0-0.5219994,0.4339981-0.8669968,1.0309982-0.8669968
		c0.3700027,0,0.7789993,0.1289978,1.090004,0.3339996l-0.2050018,0.3399963
		c-0.2809982-0.1819992-0.6029968-0.2929993-0.8960037-0.2929993c-0.3579941,0-0.5859985,0.1870003-0.5859985,0.4400024v0.0109978
		c0,0.2870026,0.375,0.3980026,0.7789993,0.5219994c0.4690018,0.1400032,0.9720001,0.3220024,0.9720001,0.8660011v0.012001
		c0,0.5740013-0.473999,0.9080009-1.0769958,0.9080009C109.796196,35.3700027,109.3161926,35.2010002,108.9761963,34.9250031"/>
	<polygon class="st0" points="69.1906967,30.6762009 69.6076965,30.6762009 66.8776932,36.1272011 66.4586945,36.1272011 	"/>
</g>
<polygon points="114.1027985,7.8810005 118.3447876,15.2530022 122.6077881,7.8840027 122.6077881,7.8810005 "/>
</svg>
