<?xml version="1.0" encoding="utf-8"?>
<!-- Generator: Adobe Illustrator 26.3.1, SVG Export Plug-In . SVG Version: 6.00 Build 0)  -->
<svg version="1.1" id="Layer_1" xmlns="http://www.w3.org/2000/svg" xmlns:xlink="http://www.w3.org/1999/xlink" x="0px" y="0px"
	 viewBox="0 0 78.3000031 21.4499969" style="enable-background:new 0 0 78.3000031 21.4499969;" xml:space="preserve">
<style type="text/css">
	.st0{clip-path:url(#SVGID_00000169522206591289902480000010097583369823190923_);fill:#FFFFFF;}
</style>
<g>
	<defs>
		<rect id="SVGID_1_" width="78.3000031" height="21.4499969"/>
	</defs>
	<clipPath id="SVGID_00000165934083975448936010000017971387582615968183_">
		<use xlink:href="#SVGID_1_"  style="overflow:visible;"/>
	</clipPath>
	<path style="clip-path:url(#SVGID_00000165934083975448936010000017971387582615968183_);fill:#FFFFFF;" d="M29.7041016,10.156601
		l-0.0030022,3.7800064c-0.257,0.098999-0.8019981,0.2409973-1.8120003,0.2409973
		c-2.4839973,0-4.0890007-1.4759979-4.0890007-3.7600021c0-2.2630005,1.6580009-3.7259979,4.2220001-3.7259979
		c0.9700012,0,1.7250023,0.1429977,2.446003,0.4649963l0.2279968,0.1010056l0.4770012-1.4889984l-0.1790009-0.0820007
		c-0.5239983-0.2470016-1.605999-0.5340042-2.9239998-0.5340042c-4.204998,0-6.1209984,2.7580032-6.1209984,5.3199997
		c0,1.4860001,0.5529976,2.8540039,1.5130005,3.7509995c1.060997,0.9990005,2.4720001,1.4850006,4.3079987,1.4850006
		c1.598999,0,2.9109993-0.3929977,3.552002-0.625l0.1469994-0.0540009v-4.8689957L29.7041016,10.156601z"/>
	
		<rect x="34.5690002" y="5.2539978" style="clip-path:url(#SVGID_00000165934083975448936010000017971387582615968183_);fill:#FFFFFF;" width="1.7849998" height="10.3499985"/>
	<polygon style="clip-path:url(#SVGID_00000165934083975448936010000017971387582615968183_);fill:#FFFFFF;" points="
		41.5360985,14.0396957 41.5360985,5.2537003 39.7510948,5.2537003 39.7510948,15.6046982 46.254097,15.6046982 
		46.254097,14.0396957 	"/>
	<polygon style="clip-path:url(#SVGID_00000165934083975448936010000017971387582615968183_);fill:#FFFFFF;" points="
		50.274601,14.0656967 50.274601,10.9827042 54.5675964,10.9827042 54.5675964,9.4447021 50.274601,9.4447021 50.274601,6.7937012 
		54.8175964,6.7937012 54.8175964,5.2556992 48.4906006,5.2556992 48.4906006,15.6036987 55.0585938,15.6036987 
		55.0585938,14.0656967 	"/>
	<path style="clip-path:url(#SVGID_00000165934083975448936010000017971387582615968183_);fill:#FFFFFF;" d="M62.7100983,5.2551041
		h-1.7680054l-3.9029999,10.348999h1.802002l1.1460037-3.1600037h3.6379929l1.1970062,3.1600037h1.8349991L62.7100983,5.2551041z
		 M61.792099,7.2910995c0.098999,0.3150024,1.0819931,2.9230042,1.3699951,3.6760025h-2.7159958
		C60.4460983,10.9671021,61.6950989,7.6031036,61.792099,7.2910995"/>
	<path style="clip-path:url(#SVGID_00000165934083975448936010000017971387582615968183_);fill:#FFFFFF;" d="M76.8022003,6.6179962
		c-1.0220032-0.9629974-2.6130066-1.4509964-4.7260056-1.4509964l-3.3299942,0.0019989v1.487999l3.3699951,0.0090027
		c1.5470047,0,2.7080002,0.3769989,3.4459991,1.1220016c0.5960007,0.6019974,0.8950043,1.4269943,0.8850021,2.4519958
		c0,1.137001-0.3570023,2.0920029-1.0309982,2.7649994c-0.7830048,0.7820053-2.0130005,1.1940002-3.5530014,1.189003
		c-0.4670029,0-0.973999-0.0070038-1.3479996-0.0449982V9.4629974h-1.7689972v6.1030045l0.1999969,0.0199966
		c0.7730026,0.0800018,1.6169968,0.1159973,2.6900024,0.1159973c2.1929932,0,4.0029984-0.5709991,5.0919952-1.6089935
		c1.012001-0.9960022,1.5719986-2.3810043,1.5719986-3.9070053C78.3001938,8.7289963,77.7971954,7.5289993,76.8022003,6.6179962"/>
	<path style="clip-path:url(#SVGID_00000165934083975448936010000017971387582615968183_);fill:#FFFFFF;" d="M16.1203995,0.0600967
		c0-0.0319977-0.026001-0.0579987-0.0570011-0.0579987V0.0010986h-0.0009995h-0.0009995
		c-0.0030003,0-0.0050011,0.0009995-0.0060005,0.0009995C2.6713991,1.2751007,0.9663992,10.504097,5.3423996,13.4511032
		c-0.7550001,3.3319931-0.052,3.2549934-0.052,3.2549934c0.1330004-0.993,0.3319998-1.9790001,0.5869999-2.9459953
		C7.5843983,7.2650986,11.8093987,1.5980988,16.0693989,0.1191025L16.0683994,0.118103
		C16.0973988,0.115097,16.1203995,0.0901031,16.1203995,0.0600967"/>
	<path style="clip-path:url(#SVGID_00000165934083975448936010000017971387582615968183_);fill:#FFFFFF;" d="M15.4134998,2.1800003
		c0-0.0329971-0.026001-0.0589981-0.059-0.0589981c-0.0270004,0-0.0480003,0.0169983-0.0560017,0.0400009
		c-1.105999,2.1679993-1.4249992,5.2740021-2.2689991,7.6490021c-0.9629993,2.7190018-2.677,4.5499954-5.323,4.3759995v6.6079979
		c0,0-7.0669994-3.1959991-7.0669994-8.3360023V2.8270035l5.7749996-0.5270004h0.0020008
		c0.032999,0,0.0609989-0.026001,0.0609989-0.0589981c0-0.0319977-0.0259991-0.0569992-0.0569992-0.0599976V2.1800003H0.0004997
		v10.2779999c0,5.7820015,7.7049999,8.993,7.7049999,8.993s7.7089996-3.2639999,7.7089996-8.993V2.1800003H15.4134998z"/>
</g>
</svg>
