<?xml version="1.0" encoding="utf-8"?>
<!-- Generator: Adobe Illustrator 26.3.1, SVG Export Plug-In . SVG Version: 6.00 Build 0)  -->
<svg version="1.1" id="Layer_1" xmlns="http://www.w3.org/2000/svg" xmlns:xlink="http://www.w3.org/1999/xlink" x="0px" y="0px"
	 viewBox="0 0 17.7839966 27.0353985" style="enable-background:new 0 0 17.7839966 27.0353985;" xml:space="preserve">
<style type="text/css">
	.st0{fill:#35C4AF;}
</style>
<g>
	<g>
		<path class="st0" d="M7.2250061,16.0369987l0.197998-0.198c5.2409973-0.1189995,8.2569885-3.3349972,8.2569885-7.145998V8.6140022
			c0-3.2550011-2.5399933-6.788002-6.5889893-6.788002c-3.1760101,0-5.5970001,1.5480003-7.6610107,4.0880013L0,4.723999
			C2.2630005,1.9049988,4.9620056,0,9.1699982,0c5.2400055,0,8.6139984,4.2869987,8.6139984,8.5340004v0.0800018
			c0,4.9219971-3.8110046,8.3359966-8.4149933,8.8919983l-0.2420044,5.5569992H7.4210052L7.2250061,16.0369987z"/>
	</g>
	<g>
		<path class="st0" d="M9.4902039,25.831398c0,0.6650009-0.5390015,1.2040005-1.20401,1.2040005
			c-0.6649933,0-1.2039948-0.5389996-1.2039948-1.2040005c0-0.664999,0.5390015-1.2039986,1.2039948-1.2039986
			C8.9512024,24.6273994,9.4902039,25.166399,9.4902039,25.831398"/>
	</g>
</g>
</svg>
