<?xml version="1.0" encoding="utf-8"?>
<!-- Generator: Adobe Illustrator 26.3.1, SVG Export Plug-In . SVG Version: 6.00 Build 0)  -->
<svg version="1.1" id="Layer_1" xmlns="http://www.w3.org/2000/svg" xmlns:xlink="http://www.w3.org/1999/xlink" x="0px" y="0px"
	 viewBox="0 0 163.8466797 42.2900391" style="enable-background:new 0 0 163.8466797 42.2900391;" xml:space="preserve">
<style type="text/css">
	.st0{fill:#FFFFFF;}
</style>
<g>
	<path class="st0" d="M17.8847656,0.2382812h3.5439453v0.5039062h-2.9907227v1.6738281h2.6757812v0.5048828h-2.6757812v1.7158203
		h3.0258789V5.140625h-3.5791016V0.2382812z"/>
	<path class="st0" d="M22.574707,0.2382812h1.8349609c1.1064453,0,1.8349609,0.5878906,1.8349609,1.5546875v0.0136719
		c0,1.0576172-0.8823242,1.6044922-1.9257812,1.6044922h-1.190918V5.140625H22.574707V0.2382812z M24.3398438,2.90625
		c0.8125,0,1.3447266-0.4335938,1.3447266-1.078125V1.8134766c0-0.7001953-0.5253906-1.0644531-1.3168945-1.0644531h-1.2397461
		V2.90625H24.3398438z"/>
	<path class="st0" d="M27.0336914,2.703125V2.6894531c0-1.3867188,1.0366211-2.5351562,2.4794922-2.5351562
		c0.8896484,0,1.421875,0.3144531,1.9121094,0.7773438l-0.378418,0.40625
		c-0.4130859-0.3925781-0.8754883-0.6728516-1.5405273-0.6728516c-1.0859375,0-1.8979492,0.8828125-1.8979492,2.0107422v0.0136719
		c0,1.1347656,0.8193359,2.0244141,1.8979492,2.0244141c0.6723633,0,1.1132812-0.2597656,1.5825195-0.7080078l0.3642578,0.3574219
		c-0.5112305,0.5185547-1.0712891,0.8613281-1.9609375,0.8613281C28.0776367,5.2246094,27.0336914,4.1113281,27.0336914,2.703125z"
		/>
	<path class="st0" d="M32.4448242,0.2382812h0.5532227v4.390625h2.7597656V5.140625h-3.3129883V0.2382812z"/>
	<path class="st0" d="M36.5673828,3.0888672V0.2382812h0.5532227v2.8154297c0,1.0576172,0.5605469,1.6523438,1.4990234,1.6523438
		c0.9033203,0,1.4775391-0.5458984,1.4775391-1.6171875V0.2382812h0.5537109V3.046875
		c0,1.4287109-0.8198242,2.1708984-2.0454102,2.1708984C37.394043,5.2177734,36.5673828,4.4755859,36.5673828,3.0888672z"/>
	<path class="st0" d="M41.6352539,4.4257812l0.3432617-0.40625c0.5112305,0.4628906,1.0014648,0.6943359,1.6811523,0.6943359
		c0.6582031,0,1.0922852-0.3505859,1.0922852-0.8339844V3.8662109c0-0.4550781-0.2451172-0.7148438-1.2744141-0.9316406
		c-1.1279297-0.2451172-1.6459961-0.609375-1.6459961-1.4150391V1.5058594c0-0.7705078,0.6791992-1.3378906,1.6108398-1.3378906
		c0.7143555,0,1.2255859,0.203125,1.7226562,0.6025391l-0.3217773,0.4267578
		c-0.4555664-0.3710938-0.9106445-0.5322266-1.4150391-0.5322266c-0.637207,0-1.043457,0.3505859-1.043457,0.7919922v0.0136719
		c0,0.4619141,0.2519531,0.7216797,1.3305664,0.9521484C44.8081055,2.6611328,45.3125,3.0605469,45.3125,3.8095703v0.0146484
		c0,0.8398438-0.7006836,1.3867188-1.6738281,1.3867188C42.8608398,5.2109375,42.2236328,4.9511719,41.6352539,4.4257812z"/>
	<path class="st0" d="M48.1464844,0.203125h0.5180664l2.234375,4.9375h-0.5952148l-0.5742188-1.2958984h-2.668457
		l-0.581543,1.2958984h-0.5673828L48.1464844,0.203125z M49.512207,3.3476562l-1.1137695-2.5l-1.1206055,2.5H49.512207z"/>
	<path class="st0" d="M53.8852539,0.1328125h0.6162109v0.5957031h-0.6162109V0.1328125z M53.9204102,1.5195312h0.5390625V5.140625
		h-0.5390625V1.5195312z"/>
	<path class="st0" d="M55.4111328,4.6787109l0.2729492-0.3857422c0.3920898,0.2939453,0.8266602,0.4628906,1.2539062,0.4628906
		c0.434082,0,0.7490234-0.2246094,0.7490234-0.5751953V4.1669922c0-0.3642578-0.4267578-0.5039062-0.9033203-0.6376953
		c-0.5673828-0.1601562-1.1977539-0.3564453-1.1977539-1.0224609V2.4931641c0-0.6230469,0.5185547-1.0361328,1.2329102-1.0361328
		c0.4414062,0,0.9316406,0.1533203,1.3027344,0.3984375l-0.2451172,0.40625
		c-0.3364258-0.2167969-0.7216797-0.3496094-1.0717773-0.3496094c-0.4272461,0-0.7001953,0.2236328-0.7001953,0.5253906v0.0136719
		c0,0.3427734,0.4482422,0.4765625,0.9316406,0.6230469c0.5600586,0.1679688,1.1625977,0.3857422,1.1625977,1.0371094V4.125
		c0,0.6865234-0.5673828,1.0859375-1.2890625,1.0859375C56.3916016,5.2109375,55.8173828,5.0078125,55.4111328,4.6787109z"/>
	<path class="st0" d="M61.3120117,0.1328125h0.6162109v0.5957031h-0.6162109V0.1328125z M61.347168,1.5195312h0.5390625V5.140625
		H61.347168V1.5195312z"/>
	<path class="st0" d="M63.1391602,1.5195312h0.5390625v0.6308594c0.2382812-0.3925781,0.6162109-0.7080078,1.2397461-0.7080078
		c0.8754883,0,1.3867188,0.5888672,1.3867188,1.4501953V5.140625h-0.5395508V3.0253906
		c0-0.671875-0.3637695-1.0927734-1.0014648-1.0927734c-0.6230469,0-1.0854492,0.4550781-1.0854492,1.1347656V5.140625h-0.5390625
		V1.5195312z"/>
	<path class="st0" d="M67.2407227,3.3408203V3.3261719c0-1.1835938,0.8618164-1.8837891,1.7299805-1.8837891
		c0.6723633,0,1.1064453,0.3642578,1.3867188,0.7705078V0.0283203h0.5395508V5.140625h-0.5395508V4.4121094
		c-0.2939453,0.4345703-0.7211914,0.8056641-1.3867188,0.8056641C68.1025391,5.2177734,67.2407227,4.53125,67.2407227,3.3408203z
		 M70.378418,3.3339844V3.3193359c0-0.8330078-0.637207-1.3935547-1.3095703-1.3935547
		c-0.7001953,0-1.2749023,0.5185547-1.2749023,1.3935547v0.0146484c0,0.8544922,0.5883789,1.4003906,1.2749023,1.4003906
		C69.7412109,4.734375,70.378418,4.1669922,70.378418,3.3339844z"/>
	<path class="st0" d="M72.112793,0.1328125h0.6162109v0.5957031H72.112793V0.1328125z M72.1479492,1.5195312h0.5390625V5.140625
		h-0.5390625V1.5195312z"/>
	<path class="st0" d="M73.7158203,3.3476562V3.3339844c0-1.0224609,0.7983398-1.8916016,1.855957-1.8916016
		c0.6860352,0,1.1132812,0.2871094,1.449707,0.6445312l-0.3574219,0.3779297
		c-0.2871094-0.3007812-0.609375-0.5458984-1.0996094-0.5458984c-0.7353516,0-1.2954102,0.6230469-1.2954102,1.4003906v0.0146484
		c0,0.7841797,0.5742188,1.4072266,1.3305664,1.4072266c0.4624023,0,0.8193359-0.2304688,1.1064453-0.5390625l0.3432617,0.3222656
		c-0.3642578,0.40625-0.7983398,0.7001953-1.4775391,0.7001953C74.5141602,5.2246094,73.7158203,4.3632812,73.7158203,3.3476562z"/>
	<path class="st0" d="M77.6635742,4.0898438V4.0761719c0-0.7636719,0.6303711-1.1699219,1.5478516-1.1699219
		c0.4624023,0,0.7915039,0.0634766,1.1137695,0.1542969V2.9345703c0-0.6513672-0.3994141-0.9873047-1.0786133-0.9873047
		c-0.4272461,0-0.7636719,0.1113281-1.0996094,0.265625l-0.1611328-0.4414062
		c0.3994141-0.1816406,0.7915039-0.3007812,1.3168945-0.3007812c0.5112305,0,0.9033203,0.1328125,1.1694336,0.3994141
		c0.2451172,0.2451172,0.3710938,0.5947266,0.3710938,1.0576172V5.140625h-0.5180664V4.5947266
		c-0.2524414,0.3291016-0.6723633,0.6230469-1.3100586,0.6230469C78.3432617,5.2177734,77.6635742,4.8320312,77.6635742,4.0898438z
		 M80.3320312,3.8095703V3.4599609c-0.2661133-0.0771484-0.6230469-0.1542969-1.0644531-0.1542969
		c-0.6791992,0-1.0576172,0.2939453-1.0576172,0.7490234v0.0146484c0,0.4550781,0.4204102,0.7207031,0.9106445,0.7207031
		C79.7856445,4.7900391,80.3320312,4.3837891,80.3320312,3.8095703z"/>
	<path class="st0" d="M82.144043,4.1806641V1.9960938h-0.5043945V1.5195312h0.5043945V0.4267578h0.5390625v1.0927734h1.1489258
		v0.4765625h-1.1489258v2.1152344c0,0.4414062,0.2451172,0.6025391,0.609375,0.6025391
		c0.1821289,0,0.3364258-0.0351562,0.5253906-0.1269531v0.4628906c-0.1889648,0.0976562-0.3920898,0.1542969-0.6513672,0.1542969
		C82.5854492,5.2041016,82.144043,4.9160156,82.144043,4.1806641z"/>
	<path class="st0" d="M84.4609375,3.3408203V3.3261719c0-1.0429688,0.7353516-1.8837891,1.7373047-1.8837891
		c1.0703125,0,1.6875,0.8544922,1.6875,1.9121094c0,0.0703125,0,0.1123047-0.0078125,0.1748047h-2.8710938
		c0.0771484,0.7851562,0.6308594,1.2265625,1.2753906,1.2265625c0.4960938,0,0.8476562-0.203125,1.140625-0.5117188
		l0.3359375,0.3007812c-0.3632812,0.40625-0.8046875,0.6796875-1.4912109,0.6796875
		C85.2729492,5.2246094,84.4609375,4.4609375,84.4609375,3.3408203z M87.3388672,3.1308594
		c-0.0556641-0.6582031-0.4335938-1.2333984-1.1552734-1.2333984c-0.6303711,0-1.1064453,0.5253906-1.1767578,1.2333984H87.3388672z
		"/>
	<path class="st0" d="M88.6181641,3.3408203V3.3261719c0-1.1835938,0.8613281-1.8837891,1.7304688-1.8837891
		c0.671875,0,1.1054688,0.3642578,1.3867188,0.7705078V0.0283203h0.5390625V5.140625h-0.5390625V4.4121094
		c-0.2949219,0.4345703-0.7216797,0.8056641-1.3867188,0.8056641C89.4794922,5.2177734,88.6181641,4.53125,88.6181641,3.3408203z
		 M91.7558594,3.3339844V3.3193359c0-0.8330078-0.6376953-1.3935547-1.3095703-1.3935547
		c-0.7001953,0-1.2753906,0.5185547-1.2753906,1.3935547v0.0146484c0,0.8544922,0.5888672,1.4003906,1.2753906,1.4003906
		C91.1181641,4.734375,91.7558594,4.1669922,91.7558594,3.3339844z"/>
	<path class="st0" d="M95.7802734,1.9960938h-0.4980469V1.5263672h0.4980469V1.2119141
		c0-0.4140625,0.1113281-0.7285156,0.3144531-0.9316406C96.2763672,0.0976562,96.5429688,0,96.8720703,0
		c0.2519531,0,0.4199219,0.0283203,0.5957031,0.0908203v0.4697266c-0.1962891-0.0566406-0.34375-0.0917969-0.5253906-0.0917969
		c-0.4199219,0-0.6308594,0.2529297-0.6308594,0.7705078v0.2939453h1.1484375v0.4628906h-1.140625V5.140625h-0.5390625V1.9960938z"
		/>
	<path class="st0" d="M97.8515625,3.3476562V3.3339844c0-1.0224609,0.7978516-1.8916016,1.890625-1.8916016
		c1.0859375,0,1.8837891,0.8544922,1.8837891,1.8769531v0.0146484c0,1.0224609-0.8046875,1.890625-1.8974609,1.890625
		C98.6425781,5.2246094,97.8515625,4.3701172,97.8515625,3.3476562z M101.0732422,3.3476562V3.3339844
		c0-0.7773438-0.5820312-1.4150391-1.3447266-1.4150391c-0.7841797,0-1.3232422,0.6376953-1.3232422,1.4003906v0.0146484
		c0,0.7773438,0.5742188,1.4072266,1.3369141,1.4072266C100.5263672,4.7412109,101.0732422,4.1113281,101.0732422,3.3476562z"/>
	<path class="st0" d="M102.5976562,1.5195312h0.5390625v0.9453125c0.2666016-0.6015625,0.7919922-1.0361328,1.4775391-1.0078125
		v0.5810547h-0.0410156c-0.7919922,0-1.4365234,0.5673828-1.4365234,1.6601562V5.140625h-0.5390625V1.5195312z"/>
	<path class="st0" d="M107.7216797,4.1806641V1.9960938h-0.5048828V1.5195312h0.5048828V0.4267578h0.5390625v1.0927734h1.1484375
		v0.4765625h-1.1484375v2.1152344c0,0.4414062,0.2441406,0.6025391,0.609375,0.6025391
		c0.1816406,0,0.3359375-0.0351562,0.5253906-0.1269531v0.4628906c-0.1894531,0.0976562-0.3925781,0.1542969-0.6523438,0.1542969
		C108.1630859,5.2041016,107.7216797,4.9160156,107.7216797,4.1806641z"/>
	<path class="st0" d="M110.3603516,0.0283203h0.5390625v2.1220703c0.2382812-0.3925781,0.6162109-0.7080078,1.2402344-0.7080078
		c0.875,0,1.3867188,0.5888672,1.3867188,1.4501953V5.140625h-0.5400391V3.0253906
		c0-0.671875-0.3642578-1.0927734-1.0009766-1.0927734c-0.6230469,0-1.0859375,0.4550781-1.0859375,1.1347656V5.140625h-0.5390625
		V0.0283203z"/>
	<path class="st0" d="M114.4482422,3.3408203V3.3261719c0-1.0429688,0.7353516-1.8837891,1.7363281-1.8837891
		c1.0722656,0,1.6884766,0.8544922,1.6884766,1.9121094c0,0.0703125,0,0.1123047-0.0068359,0.1748047h-2.8720703
		c0.0771484,0.7851562,0.6298828,1.2265625,1.2744141,1.2265625c0.4980469,0,0.8476562-0.203125,1.1425781-0.5117188
		l0.3359375,0.3007812c-0.3642578,0.40625-0.8056641,0.6796875-1.4921875,0.6796875
		C115.2607422,5.2246094,114.4482422,4.4609375,114.4482422,3.3408203z M117.3271484,3.1308594
		c-0.0566406-0.6582031-0.4345703-1.2333984-1.15625-1.2333984c-0.6308594,0-1.1064453,0.5253906-1.1767578,1.2333984H117.3271484z"
		/>
	<path class="st0" d="M121.1044922,4.1806641V1.9960938h-0.5039062V1.5195312h0.5039062V0.4267578h0.5390625v1.0927734h1.1494141
		v0.4765625h-1.1494141v2.1152344c0,0.4414062,0.2460938,0.6025391,0.609375,0.6025391
		c0.1826172,0,0.3369141-0.0351562,0.5253906-0.1269531v0.4628906c-0.1884766,0.0976562-0.3916016,0.1542969-0.6503906,0.1542969
		C121.5458984,5.2041016,121.1044922,4.9160156,121.1044922,4.1806641z"/>
	<path class="st0" d="M123.7441406,1.5195312h0.5390625v0.9453125c0.2666016-0.6015625,0.7919922-1.0361328,1.4775391-1.0078125
		v0.5810547h-0.0410156c-0.7919922,0-1.4365234,0.5673828-1.4365234,1.6601562V5.140625h-0.5390625V1.5195312z"/>
	<path class="st0" d="M126.2011719,3.3408203V3.3261719c0-1.0429688,0.7353516-1.8837891,1.7373047-1.8837891
		c1.0703125,0,1.6875,0.8544922,1.6875,1.9121094c0,0.0703125,0,0.1123047-0.0078125,0.1748047h-2.8710938
		c0.0771484,0.7851562,0.6308594,1.2265625,1.2753906,1.2265625c0.4960938,0,0.8476562-0.203125,1.140625-0.5117188
		l0.3359375,0.3007812c-0.3632812,0.40625-0.8046875,0.6796875-1.4912109,0.6796875
		C127.0126953,5.2246094,126.2011719,4.4609375,126.2011719,3.3408203z M129.0791016,3.1308594
		c-0.0546875-0.6582031-0.4335938-1.2333984-1.1552734-1.2333984c-0.6298828,0-1.1064453,0.5253906-1.1767578,1.2333984H129.0791016
		z"/>
	<path class="st0" d="M130.2958984,4.0898438V4.0761719c0-0.7636719,0.6308594-1.1699219,1.546875-1.1699219
		c0.4628906,0,0.7910156,0.0634766,1.1132812,0.1542969V2.9345703c0-0.6513672-0.3984375-0.9873047-1.078125-0.9873047
		c-0.4277344,0-0.7636719,0.1113281-1.0996094,0.265625l-0.1601562-0.4414062
		c0.3984375-0.1816406,0.7910156-0.3007812,1.3164062-0.3007812c0.5117188,0,0.9023438,0.1328125,1.1699219,0.3994141
		c0.2441406,0.2451172,0.3710938,0.5947266,0.3710938,1.0576172V5.140625h-0.5195312V4.5947266
		c-0.2519531,0.3291016-0.671875,0.6230469-1.3085938,0.6230469C130.9755859,5.2177734,130.2958984,4.8320312,130.2958984,4.0898438
		z M132.9638672,3.8095703V3.4599609c-0.265625-0.0771484-0.6230469-0.1542969-1.0644531-0.1542969
		c-0.6796875,0-1.0585938,0.2939453-1.0585938,0.7490234v0.0146484c0,0.4550781,0.421875,0.7207031,0.9121094,0.7207031
		C132.4169922,4.7900391,132.9638672,4.3837891,132.9638672,3.8095703z"/>
	<path class="st0" d="M134.7763672,4.1806641V1.9960938h-0.5039062V1.5195312h0.5039062V0.4267578h0.5390625v1.0927734h1.1484375
		v0.4765625h-1.1484375v2.1152344c0,0.4414062,0.2460938,0.6025391,0.609375,0.6025391
		c0.1816406,0,0.3359375-0.0351562,0.5253906-0.1269531v0.4628906c-0.1894531,0.0976562-0.3925781,0.1542969-0.6503906,0.1542969
		C135.2177734,5.2041016,134.7763672,4.9160156,134.7763672,4.1806641z"/>
	<path class="st0" d="M137.4150391,1.5195312h0.5390625v0.609375c0.2382812-0.3574219,0.5605469-0.6865234,1.1699219-0.6865234
		c0.5878906,0,0.9667969,0.3154297,1.1621094,0.7216797c0.2597656-0.3994141,0.6445312-0.7216797,1.2753906-0.7216797
		c0.8339844,0,1.3457031,0.5605469,1.3457031,1.4570312V5.140625h-0.5410156V3.0253906
		c0-0.7001953-0.3496094-1.0927734-0.9375-1.0927734c-0.546875,0-1.0019531,0.40625-1.0019531,1.1210938V5.140625h-0.53125
		V3.0117188c0-0.6796875-0.3574219-1.0791016-0.9316406-1.0791016s-1.0097656,0.4765625-1.0097656,1.1416016V5.140625h-0.5390625
		V1.5195312z"/>
	<path class="st0" d="M143.8271484,3.3408203V3.3261719c0-1.0429688,0.734375-1.8837891,1.7363281-1.8837891
		c1.0722656,0,1.6875,0.8544922,1.6875,1.9121094c0,0.0703125,0,0.1123047-0.0058594,0.1748047h-2.8710938
		c0.0761719,0.7851562,0.6289062,1.2265625,1.2734375,1.2265625c0.4980469,0,0.8476562-0.203125,1.1425781-0.5117188
		l0.3359375,0.3007812c-0.3652344,0.40625-0.8066406,0.6796875-1.4921875,0.6796875
		C144.6396484,5.2246094,143.8271484,4.4609375,143.8271484,3.3408203z M146.7060547,3.1308594
		c-0.0566406-0.6582031-0.4355469-1.2333984-1.15625-1.2333984c-0.6308594,0-1.1074219,0.5253906-1.1757812,1.2333984H146.7060547z"
		/>
	<path class="st0" d="M148.1943359,1.5195312h0.5390625v0.6308594c0.2382812-0.3925781,0.6171875-0.7080078,1.2402344-0.7080078
		c0.875,0,1.3867188,0.5888672,1.3867188,1.4501953V5.140625h-0.5390625V3.0253906
		c0-0.671875-0.3652344-1.0927734-1.0019531-1.0927734c-0.6230469,0-1.0859375,0.4550781-1.0859375,1.1347656V5.140625h-0.5390625
		V1.5195312z"/>
	<path class="st0" d="M152.6962891,4.1806641V1.9960938h-0.5039062V1.5195312h0.5039062V0.4267578h0.5390625v1.0927734h1.1484375
		v0.4765625h-1.1484375v2.1152344c0,0.4414062,0.2460938,0.6025391,0.609375,0.6025391
		c0.1816406,0,0.3359375-0.0351562,0.5253906-0.1269531v0.4628906c-0.1894531,0.0976562-0.3925781,0.1542969-0.6503906,0.1542969
		C153.1376953,5.2041016,152.6962891,4.9160156,152.6962891,4.1806641z"/>
	<path class="st0" d="M157.2099609,3.3476562V3.3339844c0-1.0224609,0.7988281-1.8916016,1.8925781-1.8916016
		c1.0839844,0,1.8828125,0.8544922,1.8828125,1.8769531v0.0146484c0,1.0224609-0.8046875,1.890625-1.8984375,1.890625
		C158.0029297,5.2246094,157.2099609,4.3701172,157.2099609,3.3476562z M160.4326172,3.3476562V3.3339844
		c0-0.7773438-0.5820312-1.4150391-1.3457031-1.4150391c-0.7832031,0-1.3222656,0.6376953-1.3222656,1.4003906v0.0146484
		c0,0.7773438,0.5742188,1.4072266,1.3378906,1.4072266C159.8857422,4.7412109,160.4326172,4.1113281,160.4326172,3.3476562z"/>
	<path class="st0" d="M162.1591797,1.9960938h-0.4960938V1.5263672h0.4960938V1.2119141
		c0-0.4140625,0.1132812-0.7285156,0.3144531-0.9316406C162.6572266,0.0976562,162.9228516,0,163.2529297,0
		c0.2519531,0,0.4199219,0.0283203,0.59375,0.0908203v0.4697266c-0.1953125-0.0566406-0.3417969-0.0917969-0.5253906-0.0917969
		c-0.4199219,0-0.6289062,0.2529297-0.6289062,0.7705078v0.2939453h1.1484375v0.4628906h-1.1425781V5.140625h-0.5390625V1.9960938z"
		/>
</g>
<g>
	<path class="st0" d="M0,12.3496094v-0.0136719c0-1.0224609,0.7983398-1.8916016,1.855957-1.8916016
		c0.6860352,0,1.1132812,0.2871094,1.449707,0.6445312l-0.3574219,0.3779297
		c-0.2871094-0.3007812-0.609375-0.5458984-1.0996094-0.5458984c-0.7353516,0-1.2954102,0.6230469-1.2954102,1.4003906v0.0146484
		c0,0.7841797,0.5742188,1.4072266,1.3305664,1.4072266c0.4624023,0,0.8193359-0.2304688,1.1064453-0.5390625l0.3432617,0.3222656
		c-0.3642578,0.40625-0.7983398,0.7001953-1.4775391,0.7001953C0.7983398,14.2265625,0,13.3652344,0,12.3496094z"/>
	<path class="st0" d="M4.0532227,9.0302734h0.5390625v2.1220703c0.2382812-0.3925781,0.6162109-0.7080078,1.2397461-0.7080078
		c0.8754883,0,1.3867188,0.5888672,1.3867188,1.4501953v2.2480469H6.6791992v-2.1152344
		c0-0.671875-0.3637695-1.0927734-1.0014648-1.0927734c-0.6230469,0-1.0854492,0.4550781-1.0854492,1.1347656v2.0732422H4.0532227
		V9.0302734z"/>
	<path class="st0" d="M8.1899414,10.5214844h0.5390625v0.9453125c0.2661133-0.6015625,0.7915039-1.0361328,1.4780273-1.0078125
		v0.5810547h-0.0424805c-0.7910156,0-1.4355469,0.5673828-1.4355469,1.6601562v1.4423828H8.1899414V10.5214844z"/>
	<path class="st0" d="M10.472168,12.3496094v-0.0136719c0-1.0224609,0.7983398-1.8916016,1.890625-1.8916016
		c1.0859375,0,1.8842773,0.8544922,1.8842773,1.8769531v0.0146484c0,1.0224609-0.8056641,1.890625-1.8979492,1.890625
		C11.2631836,14.2265625,10.472168,13.3720703,10.472168,12.3496094z M13.6938477,12.3496094v-0.0136719
		c0-0.7773438-0.581543-1.4150391-1.3447266-1.4150391c-0.784668,0-1.3237305,0.6376953-1.3237305,1.4003906v0.0146484
		c0,0.7773438,0.5742188,1.4072266,1.3374023,1.4072266C13.1474609,13.7431641,13.6938477,13.1132812,13.6938477,12.3496094z"/>
	<path class="st0" d="M15.050293,10.5214844h0.5390625v0.6308594c0.2382812-0.3925781,0.6162109-0.7080078,1.2397461-0.7080078
		c0.8754883,0,1.3867188,0.5888672,1.3867188,1.4501953v2.2480469h-0.5395508v-2.1152344
		c0-0.671875-0.3637695-1.0927734-1.0014648-1.0927734c-0.6230469,0-1.0854492,0.4550781-1.0854492,1.1347656v2.0732422H15.050293
		V10.5214844z"/>
	<path class="st0" d="M19.2006836,9.1347656h0.6162109v0.5957031h-0.6162109V9.1347656z M19.2358398,10.5214844h0.5390625v3.6210938
		h-0.5390625V10.5214844z"/>
	<path class="st0" d="M20.6357422,12.3496094v-0.0136719c0-1.0224609,0.7983398-1.8916016,1.855957-1.8916016
		c0.6860352,0,1.1132812,0.2871094,1.449707,0.6445312l-0.3574219,0.3779297
		c-0.2871094-0.3007812-0.609375-0.5458984-1.0996094-0.5458984c-0.7353516,0-1.2954102,0.6230469-1.2954102,1.4003906v0.0146484
		c0,0.7841797,0.5742188,1.4072266,1.3305664,1.4072266c0.4624023,0,0.8193359-0.2304688,1.1064453-0.5390625l0.3432617,0.3222656
		c-0.3642578,0.40625-0.7983398,0.7001953-1.4775391,0.7001953C21.434082,14.2265625,20.6357422,13.3652344,20.6357422,12.3496094z"
		/>
	<path class="st0" d="M26.6137695,9.0302734h0.5390625v2.1220703c0.2382812-0.3925781,0.6162109-0.7080078,1.2397461-0.7080078
		c0.8754883,0,1.3867188,0.5888672,1.3867188,1.4501953v2.2480469h-0.5395508v-2.1152344
		c0-0.671875-0.3637695-1.0927734-1.0014648-1.0927734c-0.6230469,0-1.0854492,0.4550781-1.0854492,1.1347656v2.0732422h-0.5390625
		V9.0302734z"/>
	<path class="st0" d="M30.5268555,12.3427734V12.328125c0-1.0429688,0.7353516-1.8837891,1.7368164-1.8837891
		c1.0712891,0,1.6879883,0.8544922,1.6879883,1.9121094c0,0.0703125,0,0.1123047-0.0073242,0.1748047h-2.871582
		c0.0771484,0.7851562,0.6303711,1.2265625,1.2749023,1.2265625c0.4970703,0,0.8476562-0.203125,1.1416016-0.5117188
		l0.3359375,0.3007812c-0.3637695,0.40625-0.8051758,0.6796875-1.4916992,0.6796875
		C31.3388672,14.2265625,30.5268555,13.4628906,30.5268555,12.3427734z M33.4052734,12.1328125
		c-0.0561523-0.6582031-0.434082-1.2333984-1.1557617-1.2333984c-0.6303711,0-1.1064453,0.5253906-1.1767578,1.2333984H33.4052734z"
		/>
	<path class="st0" d="M34.7265625,10.5214844h0.5390625V11.25c0.2939453-0.4345703,0.7211914-0.8056641,1.3867188-0.8056641
		c0.8686523,0,1.7299805,0.6865234,1.7299805,1.8769531v0.0146484c0,1.1835938-0.8544922,1.8837891-1.7299805,1.8837891
		c-0.6723633,0-1.1064453-0.3642578-1.3867188-0.7705078v1.8144531h-0.5390625V10.5214844z M37.8291016,12.3427734V12.328125
		c0-0.8535156-0.5883789-1.4003906-1.2749023-1.4003906c-0.6723633,0-1.3095703,0.5673828-1.3095703,1.3935547v0.0146484
		c0,0.8398438,0.637207,1.4003906,1.3095703,1.4003906C37.2548828,13.7363281,37.8291016,13.2177734,37.8291016,12.3427734z"/>
	<path class="st0" d="M38.9331055,13.0917969V13.078125c0-0.7636719,0.6303711-1.1699219,1.5478516-1.1699219
		c0.4624023,0,0.7915039,0.0634766,1.1137695,0.1542969v-0.1259766c0-0.6513672-0.3994141-0.9873047-1.0786133-0.9873047
		c-0.4272461,0-0.7636719,0.1113281-1.0996094,0.265625l-0.1611328-0.4414062
		c0.3994141-0.1816406,0.7915039-0.3007812,1.3168945-0.3007812c0.5112305,0,0.9033203,0.1328125,1.1694336,0.3994141
		c0.2451172,0.2451172,0.3710938,0.5947266,0.3710938,1.0576172v2.2128906h-0.5180664v-0.5458984
		c-0.2524414,0.3291016-0.6723633,0.6230469-1.3100586,0.6230469C39.612793,14.2197266,38.9331055,13.8339844,38.9331055,13.0917969
		z M41.6015625,12.8115234v-0.3496094c-0.2661133-0.0771484-0.6230469-0.1542969-1.0644531-0.1542969
		c-0.6791992,0-1.0576172,0.2939453-1.0576172,0.7490234v0.0146484c0,0.4550781,0.4204102,0.7207031,0.9106445,0.7207031
		C41.0551758,13.7919922,41.6015625,13.3857422,41.6015625,12.8115234z"/>
	<path class="st0" d="M43.2387695,13.1826172v-2.1845703H42.734375v-0.4765625h0.5043945V9.4287109h0.5390625v1.0927734h1.1489258
		v0.4765625H43.777832v2.1152344c0,0.4414062,0.2451172,0.6025391,0.609375,0.6025391
		c0.1821289,0,0.3364258-0.0351562,0.5253906-0.1269531v0.4628906c-0.1889648,0.0976562-0.3920898,0.1542969-0.6513672,0.1542969
		C43.6801758,14.2060547,43.2387695,13.9179688,43.2387695,13.1826172z"/>
	<path class="st0" d="M45.7231445,9.1347656h0.6162109v0.5957031h-0.6162109V9.1347656z M45.7583008,10.5214844h0.5390625v3.6210938
		h-0.5390625V10.5214844z"/>
	<path class="st0" d="M47.5712891,13.1826172v-2.1845703h-0.5043945v-0.4765625h0.5043945V9.4287109h0.5390625v1.0927734h1.1489258
		v0.4765625h-1.1489258v2.1152344c0,0.4414062,0.2451172,0.6025391,0.609375,0.6025391
		c0.1821289,0,0.3364258-0.0351562,0.5253906-0.1269531v0.4628906c-0.1889648,0.0976562-0.3920898,0.1542969-0.6513672,0.1542969
		C48.012207,14.2060547,47.5712891,13.9179688,47.5712891,13.1826172z"/>
	<path class="st0" d="M50.0561523,9.1347656h0.6162109v0.5957031h-0.6162109V9.1347656z M50.0913086,10.5214844h0.5390625v3.6210938
		h-0.5390625V10.5214844z"/>
	<path class="st0" d="M51.4140625,13.6806641l0.2729492-0.3857422c0.3920898,0.2939453,0.8266602,0.4628906,1.2539062,0.4628906
		c0.434082,0,0.7490234-0.2246094,0.7490234-0.5751953v-0.0136719c0-0.3642578-0.4267578-0.5039062-0.9033203-0.6376953
		c-0.5673828-0.1601562-1.1977539-0.3564453-1.1977539-1.0224609v-0.0136719c0-0.6230469,0.5185547-1.0361328,1.2329102-1.0361328
		c0.4414062,0,0.9316406,0.1533203,1.3027344,0.3984375l-0.2451172,0.40625
		c-0.3364258-0.2167969-0.7216797-0.3496094-1.0717773-0.3496094c-0.4272461,0-0.7001953,0.2236328-0.7001953,0.5253906v0.0136719
		c0,0.3427734,0.4482422,0.4765625,0.9316406,0.6230469c0.5600586,0.1679688,1.1625977,0.3857422,1.1625977,1.0371094v0.0136719
		c0,0.6865234-0.5673828,1.0859375-1.2890625,1.0859375C52.3945312,14.2128906,51.8203125,14.0097656,51.4140625,13.6806641z"/>
	<path class="st0" d="M56.8388672,11.7050781v-0.0136719c0-1.3867188,1.0366211-2.5351562,2.4794922-2.5351562
		c0.8896484,0,1.421875,0.3144531,1.9121094,0.7773438l-0.378418,0.40625
		c-0.4130859-0.3925781-0.8754883-0.6728516-1.5405273-0.6728516c-1.0859375,0-1.8979492,0.8828125-1.8979492,2.0107422v0.0136719
		c0,1.1347656,0.8193359,2.0244141,1.8979492,2.0244141c0.6723633,0,1.1132812-0.2597656,1.5825195-0.7080078l0.3642578,0.3574219
		c-0.5112305,0.5185547-1.0712891,0.8613281-1.9609375,0.8613281
		C57.8828125,14.2265625,56.8388672,13.1132812,56.8388672,11.7050781z"/>
	<path class="st0" d="M63.5654297,10.5214844h0.5952148l1.21875,3.0048828l1.2255859-3.0048828h0.581543l-1.5761719,3.6494141
		h-0.4760742L63.5654297,10.5214844z"/>
	<path class="st0" d="M67.8774414,9.1347656h0.6162109v0.5957031h-0.6162109V9.1347656z M67.9125977,10.5214844h0.5390625v3.6210938
		h-0.5390625V10.5214844z"/>
	<path class="st0" d="M69.5366211,10.5214844h0.5390625v0.9453125c0.2661133-0.6015625,0.7915039-1.0361328,1.4780273-1.0078125
		v0.5810547h-0.0424805c-0.7910156,0-1.4355469,0.5673828-1.4355469,1.6601562v1.4423828h-0.5390625V10.5214844z"/>
	<path class="st0" d="M72.140625,12.7695312v-2.2480469h0.5390625v2.1152344c0,0.6728516,0.3642578,1.0927734,1.0014648,1.0927734
		c0.6166992,0,1.0859375-0.4550781,1.0859375-1.1347656v-2.0732422h0.5322266v3.6210938h-0.5322266v-0.6298828
		c-0.2451172,0.3916016-0.6166992,0.7070312-1.2397461,0.7070312C72.6518555,14.2197266,72.140625,13.6308594,72.140625,12.7695312z
		"/>
	<path class="st0" d="M76.0395508,13.6806641L76.3125,13.2949219c0.3920898,0.2939453,0.8266602,0.4628906,1.2539062,0.4628906
		c0.434082,0,0.7495117-0.2246094,0.7495117-0.5751953v-0.0136719c0-0.3642578-0.4272461-0.5039062-0.9038086-0.6376953
		c-0.5673828-0.1601562-1.1977539-0.3564453-1.1977539-1.0224609v-0.0136719c0-0.6230469,0.5185547-1.0361328,1.2329102-1.0361328
		c0.4414062,0,0.9316406,0.1533203,1.3027344,0.3984375l-0.2451172,0.40625
		c-0.3364258-0.2167969-0.7216797-0.3496094-1.0717773-0.3496094c-0.4272461,0-0.7001953,0.2236328-0.7001953,0.5253906v0.0136719
		c0,0.3427734,0.4482422,0.4765625,0.9316406,0.6230469c0.5600586,0.1679688,1.1625977,0.3857422,1.1625977,1.0371094v0.0136719
		c0,0.6865234-0.5673828,1.0859375-1.2890625,1.0859375C77.0200195,14.2128906,76.4458008,14.0097656,76.0395508,13.6806641z"/>
	<path class="st0" d="M81.4643555,12.1328125c0-1.2890625,0.6933594-2.2978516,1.9404297-2.9980469l0.230957,0.3574219
		c-1.0644531,0.6796875-1.625,1.5195312-1.625,2.640625c0,1.1201172,0.5605469,1.9609375,1.625,2.6396484l-0.230957,0.3574219
		C82.1577148,14.4296875,81.4643555,13.4208984,81.4643555,12.1328125z"/>
	<path class="st0" d="M84.5512695,9.2402344h0.5532227v2.1777344h2.8300781V9.2402344h0.5527344v4.9023438h-0.5527344v-2.2060547
		h-2.8300781v2.2060547h-0.5532227V9.2402344z"/>
	<path class="st0" d="M89.4794922,11.7050781v-0.0136719c0-1.3867188,1.0361328-2.5351562,2.4785156-2.5351562
		c0.890625,0,1.421875,0.3144531,1.9121094,0.7773438l-0.3779297,0.40625
		c-0.4130859-0.3925781-0.8759766-0.6728516-1.5400391-0.6728516c-1.0859375,0-1.8984375,0.8828125-1.8984375,2.0107422v0.0136719
		c0,1.1347656,0.8193359,2.0244141,1.8984375,2.0244141c0.671875,0,1.1132812-0.2597656,1.5820312-0.7080078l0.3642578,0.3574219
		c-0.5107422,0.5185547-1.0712891,0.8613281-1.9609375,0.8613281
		C90.5224609,14.2265625,89.4794922,13.1132812,89.4794922,11.7050781z"/>
	<path class="st0" d="M94.2666016,9.2402344h0.6171875l1.7431641,4.2226562l1.7509766-4.2226562h0.5957031l-2.1083984,4.9375H96.375
		L94.2666016,9.2402344z"/>
	<path class="st0" d="M99.4609375,14.7724609c1.0654297-0.6787109,1.625-1.5195312,1.625-2.6396484
		c0-1.1210938-0.5595703-1.9609375-1.625-2.640625l0.2314453-0.3574219
		c1.2460938,0.7001953,1.9394531,1.7089844,1.9394531,2.9980469c0,1.2880859-0.6933594,2.296875-1.9394531,2.9970703
		L99.4609375,14.7724609z"/>
	<path class="st0" d="M104.4873047,9.1347656h0.6152344v0.5957031h-0.6152344V9.1347656z M104.5224609,10.5214844h0.5390625
		v3.6210938h-0.5390625V10.5214844z"/>
	<path class="st0" d="M106.1455078,10.5214844h0.5390625v0.6308594c0.2382812-0.3925781,0.6171875-0.7080078,1.2402344-0.7080078
		c0.875,0,1.3867188,0.5888672,1.3867188,1.4501953v2.2480469h-0.5390625v-2.1152344
		c0-0.671875-0.3642578-1.0927734-1.0019531-1.0927734c-0.6230469,0-1.0859375,0.4550781-1.0859375,1.1347656v2.0732422h-0.5390625
		V10.5214844z"/>
	<path class="st0" d="M110.4863281,10.9980469h-0.4970703v-0.4697266h0.4970703v-0.3144531
		c0-0.4140625,0.1123047-0.7285156,0.3154297-0.9316406c0.1816406-0.1826172,0.4472656-0.2802734,0.7773438-0.2802734
		c0.2519531,0,0.4199219,0.0283203,0.5947266,0.0908203V9.5625c-0.1962891-0.0566406-0.3427734-0.0917969-0.5244141-0.0917969
		c-0.4208984,0-0.6308594,0.2529297-0.6308594,0.7705078v0.2939453h1.1484375v0.4628906h-1.1416016v3.1445312h-0.5390625V10.9980469
		z"/>
	<path class="st0" d="M112.3828125,12.3427734V12.328125c0-1.0429688,0.7353516-1.8837891,1.7373047-1.8837891
		c1.0703125,0,1.6875,0.8544922,1.6875,1.9121094c0,0.0703125,0,0.1123047-0.0078125,0.1748047h-2.8710938
		c0.0771484,0.7851562,0.6308594,1.2265625,1.2753906,1.2265625c0.4960938,0,0.8476562-0.203125,1.140625-0.5117188
		l0.3359375,0.3007812c-0.3632812,0.40625-0.8046875,0.6796875-1.4912109,0.6796875
		C113.1943359,14.2265625,112.3828125,13.4628906,112.3828125,12.3427734z M115.2607422,12.1328125
		c-0.0556641-0.6582031-0.4335938-1.2333984-1.1552734-1.2333984c-0.6298828,0-1.1064453,0.5253906-1.1767578,1.2333984H115.2607422
		z"/>
	<path class="st0" d="M116.3525391,12.3496094v-0.0136719c0-1.0224609,0.7978516-1.8916016,1.8554688-1.8916016
		c0.6855469,0,1.1132812,0.2871094,1.4492188,0.6445312l-0.3574219,0.3779297
		c-0.2871094-0.3007812-0.609375-0.5458984-1.0996094-0.5458984c-0.734375,0-1.2949219,0.6230469-1.2949219,1.4003906v0.0146484
		c0,0.7841797,0.5742188,1.4072266,1.3300781,1.4072266c0.4628906,0,0.8203125-0.2304688,1.1074219-0.5390625l0.3427734,0.3222656
		c-0.3642578,0.40625-0.7978516,0.7001953-1.4775391,0.7001953
		C117.1503906,14.2265625,116.3525391,13.3652344,116.3525391,12.3496094z"/>
	<path class="st0" d="M120.5947266,13.1826172v-2.1845703h-0.5048828v-0.4765625h0.5048828V9.4287109h0.5390625v1.0927734h1.1484375
		v0.4765625h-1.1484375v2.1152344c0,0.4414062,0.2441406,0.6025391,0.609375,0.6025391
		c0.1816406,0,0.3359375-0.0351562,0.5253906-0.1269531v0.4628906c-0.1894531,0.0976562-0.3925781,0.1542969-0.6523438,0.1542969
		C121.0361328,14.2060547,120.5947266,13.9179688,120.5947266,13.1826172z"/>
	<path class="st0" d="M123.0791016,9.1347656h0.6152344v0.5957031h-0.6152344V9.1347656z M123.1142578,10.5214844h0.5390625
		v3.6210938h-0.5390625V10.5214844z"/>
	<path class="st0" d="M124.5136719,12.3496094v-0.0136719c0-1.0224609,0.7978516-1.8916016,1.890625-1.8916016
		c1.0859375,0,1.8837891,0.8544922,1.8837891,1.8769531v0.0146484c0,1.0224609-0.8046875,1.890625-1.8974609,1.890625
		C125.3046875,14.2265625,124.5136719,13.3720703,124.5136719,12.3496094z M127.7353516,12.3496094v-0.0136719
		c0-0.7773438-0.5820312-1.4150391-1.3447266-1.4150391c-0.7841797,0-1.3232422,0.6376953-1.3232422,1.4003906v0.0146484
		c0,0.7773438,0.5742188,1.4072266,1.3369141,1.4072266C127.1884766,13.7431641,127.7353516,13.1132812,127.7353516,12.3496094z"/>
	<path class="st0" d="M129.0908203,10.5214844h0.5410156v0.6308594c0.2363281-0.3925781,0.6152344-0.7080078,1.2382812-0.7080078
		c0.875,0,1.3867188,0.5888672,1.3867188,1.4501953v2.2480469h-0.5390625v-2.1152344
		c0-0.671875-0.3632812-1.0927734-1.0019531-1.0927734c-0.6230469,0-1.0839844,0.4550781-1.0839844,1.1347656v2.0732422h-0.5410156
		V10.5214844z"/>
	<path class="st0" d="M135.1806641,9.1347656h0.6171875v0.5957031h-0.6171875V9.1347656z M135.2158203,10.5214844h0.5390625
		v3.6210938h-0.5390625V10.5214844z"/>
	<path class="st0" d="M136.8408203,10.5214844h0.5390625v0.6308594c0.2382812-0.3925781,0.6152344-0.7080078,1.2382812-0.7080078
		c0.8769531,0,1.3867188,0.5888672,1.3867188,1.4501953v2.2480469h-0.5390625v-2.1152344
		c0-0.671875-0.3632812-1.0927734-1-1.0927734c-0.625,0-1.0859375,0.4550781-1.0859375,1.1347656v2.0732422h-0.5390625V10.5214844z"
		/>
	<path class="st0" d="M142.6357422,13.0917969V13.078125c0-0.7636719,0.6308594-1.1699219,1.5488281-1.1699219
		c0.4609375,0,0.7910156,0.0634766,1.1132812,0.1542969v-0.1259766c0-0.6513672-0.3984375-0.9873047-1.078125-0.9873047
		c-0.4277344,0-0.7636719,0.1113281-1.0996094,0.265625l-0.1621094-0.4414062
		c0.4003906-0.1816406,0.7910156-0.3007812,1.3164062-0.3007812c0.5117188,0,0.9042969,0.1328125,1.1699219,0.3994141
		c0.2460938,0.2451172,0.3710938,0.5947266,0.3710938,1.0576172v2.2128906h-0.5175781v-0.5458984
		c-0.2519531,0.3291016-0.671875,0.6230469-1.3105469,0.6230469
		C143.3154297,14.2197266,142.6357422,13.8339844,142.6357422,13.0917969z M145.3056641,12.8115234v-0.3496094
		c-0.2675781-0.0771484-0.625-0.1542969-1.0664062-0.1542969c-0.6777344,0-1.0566406,0.2939453-1.0566406,0.7490234v0.0146484
		c0,0.4550781,0.4199219,0.7207031,0.9101562,0.7207031C144.7587891,13.7919922,145.3056641,13.3857422,145.3056641,12.8115234z"/>
	<path class="st0" d="M146.5849609,12.3427734V12.328125c0-1.1835938,0.8613281-1.8837891,1.7285156-1.8837891
		c0.6738281,0,1.1074219,0.3642578,1.3867188,0.7705078V9.0302734h0.5390625v5.1123047h-0.5390625v-0.7285156
		c-0.2929688,0.4345703-0.7207031,0.8056641-1.3867188,0.8056641
		C147.4462891,14.2197266,146.5849609,13.5332031,146.5849609,12.3427734z M149.7216797,12.3359375v-0.0146484
		c0-0.8330078-0.6367188-1.3935547-1.3105469-1.3935547c-0.6992188,0-1.2734375,0.5185547-1.2734375,1.3935547v0.0146484
		c0,0.8544922,0.5878906,1.4003906,1.2734375,1.4003906C149.0849609,13.7363281,149.7216797,13.1689453,149.7216797,12.3359375z"/>
	<path class="st0" d="M151.2177734,12.7695312v-2.2480469h0.5390625v2.1152344c0,0.6728516,0.3652344,1.0927734,1.0019531,1.0927734
		c0.6152344,0,1.0859375-0.4550781,1.0859375-1.1347656v-2.0732422h0.53125v3.6210938h-0.53125v-0.6298828
		c-0.2460938,0.3916016-0.6171875,0.7070312-1.2402344,0.7070312
		C151.7294922,14.2197266,151.2177734,13.6308594,151.2177734,12.7695312z"/>
	<path class="st0" d="M155.4677734,9.0302734h0.5390625v5.1123047h-0.5390625V9.0302734z"/>
	<path class="st0" d="M157.2802734,13.1826172v-2.1845703h-0.5039062v-0.4765625h0.5039062V9.4287109h0.5390625v1.0927734h1.1484375
		v0.4765625h-1.1484375v2.1152344c0,0.4414062,0.2460938,0.6025391,0.609375,0.6025391
		c0.1816406,0,0.3359375-0.0351562,0.5253906-0.1269531v0.4628906c-0.1894531,0.0976562-0.3925781,0.1542969-0.6503906,0.1542969
		C157.7216797,14.2060547,157.2802734,13.9179688,157.2802734,13.1826172z"/>
	<path class="st0" d="M159.4501953,13.6806641l0.2734375-0.3857422c0.3925781,0.2939453,0.8261719,0.4628906,1.2539062,0.4628906
		c0.4335938,0,0.7480469-0.2246094,0.7480469-0.5751953v-0.0136719c0-0.3642578-0.4257812-0.5039062-0.9023438-0.6376953
		c-0.5683594-0.1601562-1.1972656-0.3564453-1.1972656-1.0224609v-0.0136719c0-0.6230469,0.5175781-1.0361328,1.2324219-1.0361328
		c0.4414062,0,0.9316406,0.1533203,1.3027344,0.3984375l-0.2460938,0.40625
		c-0.3359375-0.2167969-0.7207031-0.3496094-1.0703125-0.3496094c-0.4277344,0-0.7011719,0.2236328-0.7011719,0.5253906v0.0136719
		c0,0.3427734,0.4472656,0.4765625,0.9316406,0.6230469c0.5605469,0.1679688,1.1621094,0.3857422,1.1621094,1.0371094v0.0136719
		c0,0.6865234-0.5664062,1.0859375-1.2890625,1.0859375C160.4306641,14.2128906,159.8564453,14.0097656,159.4501953,13.6806641z"/>
	<path class="st0" d="M162.9990234,13.4072266h0.6445312v0.7353516h-0.6445312V13.4072266z"/>
</g>
<g>
	<path class="st0" d="M35.5810547,18.2421875h3.5229492v0.5107422h-2.9697266v1.7509766h2.6542969v0.5048828h-2.6542969v2.1357422
		h-0.5532227V18.2421875z"/>
	<path class="st0" d="M39.7602539,21.3515625v-0.0136719c0-1.0224609,0.7983398-1.8916016,1.890625-1.8916016
		c1.0859375,0,1.8842773,0.8544922,1.8842773,1.8769531v0.0146484c0,1.0224609-0.8056641,1.890625-1.8979492,1.890625
		C40.5512695,23.2285156,39.7602539,22.3740234,39.7602539,21.3515625z M42.9819336,21.3515625v-0.0136719
		c0-0.7773438-0.581543-1.4150391-1.3447266-1.4150391c-0.784668,0-1.3237305,0.6376953-1.3237305,1.4003906v0.0146484
		c0,0.7773438,0.5742188,1.4072266,1.3374023,1.4072266C42.4355469,22.7451172,42.9819336,22.1152344,42.9819336,21.3515625z"/>
	<path class="st0" d="M44.5063477,19.5234375h0.5390625V20.46875c0.2661133-0.6015625,0.7915039-1.0361328,1.4780273-1.0078125
		v0.5810547H46.480957c-0.7910156,0-1.4355469,0.5673828-1.4355469,1.6601562v1.4423828h-0.5390625V19.5234375z"/>
	<path class="st0" d="M49.5317383,18.2421875h3.5439453v0.5039062h-2.9907227v1.6738281h2.675293v0.5048828h-2.675293v1.7158203
		h3.0258789v0.5039062h-3.5791016V18.2421875z"/>
	<path class="st0" d="M54.1445312,21.0927734v-2.8505859h0.5532227v2.8154297c0,1.0576172,0.5605469,1.6523438,1.4990234,1.6523438
		c0.9033203,0,1.4775391-0.5458984,1.4775391-1.6171875v-2.8505859h0.5537109v2.8085938
		c0,1.4287109-0.8198242,2.1708984-2.0454102,2.1708984C54.9711914,23.2216797,54.1445312,22.4794922,54.1445312,21.0927734z"/>
	<path class="st0" d="M61.6347656,18.2421875h0.5532227v2.1777344h2.8295898v-2.1777344h0.5532227v4.9023438h-0.5532227v-2.2060547
		h-2.8295898v2.2060547h-0.5532227V18.2421875z"/>
	<path class="st0" d="M66.6396484,21.3447266v-0.0146484c0-1.0429688,0.7353516-1.8837891,1.7368164-1.8837891
		c1.0712891,0,1.6879883,0.8544922,1.6879883,1.9121094c0,0.0703125,0,0.1123047-0.0073242,0.1748047h-2.871582
		c0.0771484,0.7851562,0.6303711,1.2265625,1.2749023,1.2265625c0.4970703,0,0.8476562-0.203125,1.1416016-0.5117188
		l0.3359375,0.3007812c-0.3637695,0.40625-0.8051758,0.6796875-1.4916992,0.6796875
		C67.4516602,23.2285156,66.6396484,22.4648438,66.6396484,21.3447266z M69.5180664,21.1347656
		c-0.0561523-0.6582031-0.434082-1.2333984-1.1557617-1.2333984c-0.6303711,0-1.1064453,0.5253906-1.1767578,1.2333984H69.5180664z"
		/>
	<path class="st0" d="M70.734375,22.09375v-0.0136719c0-0.7636719,0.6303711-1.1699219,1.5478516-1.1699219
		c0.4624023,0,0.7915039,0.0634766,1.1137695,0.1542969v-0.1259766c0-0.6513672-0.3994141-0.9873047-1.0786133-0.9873047
		c-0.4272461,0-0.7636719,0.1113281-1.0996094,0.265625l-0.1611328-0.4414062
		c0.3994141-0.1816406,0.7915039-0.3007812,1.3168945-0.3007812c0.5112305,0,0.9033203,0.1328125,1.1694336,0.3994141
		c0.2451172,0.2451172,0.3710938,0.5947266,0.3710938,1.0576172v2.2128906h-0.5180664v-0.5458984
		c-0.2524414,0.3291016-0.6723633,0.6230469-1.3095703,0.6230469C71.4135742,23.2216797,70.734375,22.8359375,70.734375,22.09375z
		 M73.402832,21.8134766v-0.3496094c-0.2661133-0.0771484-0.6230469-0.1542969-1.0644531-0.1542969
		c-0.6791992,0-1.0576172,0.2939453-1.0576172,0.7490234v0.0146484c0,0.4550781,0.4204102,0.7207031,0.9106445,0.7207031
		C72.8564453,22.7939453,73.402832,22.3876953,73.402832,21.8134766z"/>
	<path class="st0" d="M75.109375,18.0322266h0.5390625v5.1123047H75.109375V18.0322266z"/>
	<path class="st0" d="M77.0908203,22.1845703V20h-0.5043945v-0.4765625h0.5043945v-1.0927734h0.5390625v1.0927734h1.1489258V20
		h-1.1489258v2.1152344c0,0.4414062,0.2451172,0.6025391,0.609375,0.6025391c0.1821289,0,0.3364258-0.0351562,0.5253906-0.1269531
		v0.4628906c-0.1889648,0.0976562-0.3920898,0.1542969-0.6513672,0.1542969
		C77.5317383,23.2080078,77.0908203,22.9199219,77.0908203,22.1845703z"/>
	<path class="st0" d="M79.7294922,18.0322266h0.5390625v2.1220703c0.2382812-0.3925781,0.6162109-0.7080078,1.2397461-0.7080078
		c0.8754883,0,1.3867188,0.5888672,1.3867188,1.4501953v2.2480469h-0.5395508v-2.1152344
		c0-0.671875-0.3637695-1.0927734-1.0014648-1.0927734c-0.6230469,0-1.0854492,0.4550781-1.0854492,1.1347656v2.0732422h-0.5390625
		V18.0322266z"/>
	<path class="st0" d="M83.8173828,21.3515625v-0.0136719c0-1.0224609,0.7983398-1.8916016,1.8554688-1.8916016
		c0.6865234,0,1.1132812,0.2871094,1.4501953,0.6445312L86.765625,20.46875
		c-0.2871094-0.3007812-0.609375-0.5458984-1.0996094-0.5458984c-0.7353516,0-1.2954102,0.6230469-1.2954102,1.4003906v0.0146484
		c0,0.7841797,0.5742188,1.4072266,1.3305664,1.4072266c0.4619141,0,0.8193359-0.2304688,1.1064453-0.5390625l0.34375,0.3222656
		c-0.3652344,0.40625-0.7988281,0.7001953-1.4785156,0.7001953C84.6157227,23.2285156,83.8173828,22.3671875,83.8173828,21.3515625z
		"/>
	<path class="st0" d="M87.7646484,22.09375v-0.0136719c0-0.7636719,0.6308594-1.1699219,1.5488281-1.1699219
		c0.4619141,0,0.7910156,0.0634766,1.1132812,0.1542969v-0.1259766c0-0.6513672-0.3994141-0.9873047-1.078125-0.9873047
		c-0.4277344,0-0.7636719,0.1113281-1.0996094,0.265625l-0.1621094-0.4414062
		c0.4003906-0.1816406,0.7919922-0.3007812,1.3173828-0.3007812c0.5107422,0,0.9033203,0.1328125,1.1689453,0.3994141
		c0.2460938,0.2451172,0.3710938,0.5947266,0.3710938,1.0576172v2.2128906h-0.5175781v-0.5458984
		c-0.2519531,0.3291016-0.671875,0.6230469-1.3105469,0.6230469C88.4443359,23.2216797,87.7646484,22.8359375,87.7646484,22.09375z
		 M90.4335938,21.8134766v-0.3496094c-0.2666016-0.0771484-0.6230469-0.1542969-1.0644531-0.1542969
		c-0.6787109,0-1.0576172,0.2939453-1.0576172,0.7490234v0.0146484c0,0.4550781,0.4199219,0.7207031,0.9101562,0.7207031
		C89.8876953,22.7939453,90.4335938,22.3876953,90.4335938,21.8134766z"/>
	<path class="st0" d="M92.0908203,19.5234375h0.5390625V20.46875c0.2666016-0.6015625,0.7919922-1.0361328,1.4785156-1.0078125
		v0.5810547h-0.0429688c-0.7910156,0-1.4355469,0.5673828-1.4355469,1.6601562v1.4423828h-0.5390625V19.5234375z"/>
	<path class="st0" d="M94.5478516,21.3447266v-0.0146484c0-1.0429688,0.7363281-1.8837891,1.7373047-1.8837891
		c1.0712891,0,1.6884766,0.8544922,1.6884766,1.9121094c0,0.0703125,0,0.1123047-0.0078125,0.1748047h-2.8710938
		c0.0761719,0.7851562,0.6298828,1.2265625,1.2744141,1.2265625c0.4970703,0,0.8476562-0.203125,1.1416016-0.5117188
		l0.3359375,0.3007812c-0.3632812,0.40625-0.8046875,0.6796875-1.4921875,0.6796875
		C95.3603516,23.2285156,94.5478516,22.4648438,94.5478516,21.3447266z M97.4267578,21.1347656
		c-0.0566406-0.6582031-0.4335938-1.2333984-1.15625-1.2333984c-0.6298828,0-1.1054688,0.5253906-1.1757812,1.2333984H97.4267578z"
		/>
	<path class="st0" d="M101.1074219,18.2421875h1.8349609c1.1064453,0,1.8349609,0.5878906,1.8349609,1.5546875v0.0136719
		c0,1.0576172-0.8818359,1.6044922-1.9257812,1.6044922h-1.1904297v1.7294922h-0.5537109V18.2421875z M102.8720703,20.9101562
		c0.8125,0,1.3457031-0.4335938,1.3457031-1.078125v-0.0146484c0-0.7001953-0.5253906-1.0644531-1.3173828-1.0644531h-1.2392578
		v2.1572266H102.8720703z"/>
	<path class="st0" d="M105.6923828,19.5234375h0.5390625V20.46875c0.265625-0.6015625,0.7910156-1.0361328,1.4785156-1.0078125
		v0.5810547h-0.0429688c-0.7910156,0-1.4355469,0.5673828-1.4355469,1.6601562v1.4423828h-0.5390625V19.5234375z"/>
	<path class="st0" d="M108.15625,21.3515625v-0.0136719c0-1.0224609,0.7978516-1.8916016,1.890625-1.8916016
		c1.0859375,0,1.8837891,0.8544922,1.8837891,1.8769531v0.0146484c0,1.0224609-0.8046875,1.890625-1.8974609,1.890625
		C108.9472656,23.2285156,108.15625,22.3740234,108.15625,21.3515625z M111.3779297,21.3515625v-0.0136719
		c0-0.7773438-0.5820312-1.4150391-1.3447266-1.4150391c-0.7841797,0-1.3232422,0.6376953-1.3232422,1.4003906v0.0146484
		c0,0.7773438,0.5742188,1.4072266,1.3369141,1.4072266C110.8310547,22.7451172,111.3779297,22.1152344,111.3779297,21.3515625z"/>
	<path class="st0" d="M113.1054688,20h-0.4970703v-0.4697266h0.4970703v-0.3144531
		c0-0.4140625,0.1123047-0.7285156,0.3154297-0.9316406c0.1816406-0.1826172,0.4472656-0.2802734,0.7773438-0.2802734
		c0.2519531,0,0.4199219,0.0283203,0.5947266,0.0908203v0.4697266c-0.1962891-0.0566406-0.3427734-0.0917969-0.5244141-0.0917969
		c-0.4208984,0-0.6308594,0.2529297-0.6308594,0.7705078v0.2939453h1.1484375V20h-1.1416016v3.1445312h-0.5390625V20z"/>
	<path class="st0" d="M115.1845703,21.3447266v-0.0146484c0-1.0429688,0.734375-1.8837891,1.7363281-1.8837891
		c1.0712891,0,1.6875,0.8544922,1.6875,1.9121094c0,0.0703125,0,0.1123047-0.0068359,0.1748047h-2.8720703
		c0.078125,0.7851562,0.6308594,1.2265625,1.2753906,1.2265625c0.4970703,0,0.8476562-0.203125,1.1416016-0.5117188
		l0.3359375,0.3007812c-0.3642578,0.40625-0.8056641,0.6796875-1.4912109,0.6796875
		C115.9960938,23.2285156,115.1845703,22.4648438,115.1845703,21.3447266z M118.0625,21.1347656
		c-0.0556641-0.6582031-0.4345703-1.2333984-1.1552734-1.2333984c-0.6308594,0-1.1074219,0.5253906-1.1777344,1.2333984H118.0625z"
		/>
	<path class="st0" d="M119.2509766,22.6826172l0.2734375-0.3857422c0.3916016,0.2939453,0.8261719,0.4628906,1.2539062,0.4628906
		c0.4335938,0,0.7480469-0.2246094,0.7480469-0.5751953v-0.0136719c0-0.3642578-0.4257812-0.5039062-0.9023438-0.6376953
		c-0.5683594-0.1601562-1.1982422-0.3564453-1.1982422-1.0224609v-0.0136719c0-0.6230469,0.5185547-1.0361328,1.2333984-1.0361328
		c0.4414062,0,0.9316406,0.1533203,1.3027344,0.3984375l-0.2460938,0.40625
		c-0.3359375-0.2167969-0.7207031-0.3496094-1.0712891-0.3496094c-0.4267578,0-0.7001953,0.2236328-0.7001953,0.5253906v0.0136719
		c0,0.3427734,0.4482422,0.4765625,0.9316406,0.6230469c0.5605469,0.1679688,1.1621094,0.3857422,1.1621094,1.0371094v0.0136719
		c0,0.6865234-0.5664062,1.0859375-1.2890625,1.0859375C120.2314453,23.2148438,119.6572266,23.0117188,119.2509766,22.6826172z"/>
	<path class="st0" d="M122.6738281,22.6826172l0.2724609-0.3857422c0.3925781,0.2939453,0.8271484,0.4628906,1.2539062,0.4628906
		c0.4345703,0,0.75-0.2246094,0.75-0.5751953v-0.0136719c0-0.3642578-0.4277344-0.5039062-0.9042969-0.6376953
		c-0.5664062-0.1601562-1.1972656-0.3564453-1.1972656-1.0224609v-0.0136719c0-0.6230469,0.5185547-1.0361328,1.2324219-1.0361328
		c0.4414062,0,0.9316406,0.1533203,1.3027344,0.3984375l-0.2441406,0.40625
		c-0.3369141-0.2167969-0.7226562-0.3496094-1.0722656-0.3496094c-0.4277344,0-0.7001953,0.2236328-0.7001953,0.5253906v0.0136719
		c0,0.3427734,0.4482422,0.4765625,0.9316406,0.6230469c0.5595703,0.1679688,1.1630859,0.3857422,1.1630859,1.0371094v0.0136719
		c0,0.6865234-0.5683594,1.0859375-1.2890625,1.0859375C123.6542969,23.2148438,123.0800781,23.0117188,122.6738281,22.6826172z"/>
	<path class="st0" d="M126.4746094,18.1367188h0.6162109v0.5957031h-0.6162109V18.1367188z M126.5097656,19.5234375h0.5390625
		v3.6210938h-0.5390625V19.5234375z"/>
	<path class="st0" d="M128.0771484,21.3515625v-0.0136719c0-1.0224609,0.7988281-1.8916016,1.890625-1.8916016
		c1.0859375,0,1.8847656,0.8544922,1.8847656,1.8769531v0.0146484c0,1.0224609-0.8046875,1.890625-1.8984375,1.890625
		C128.8681641,23.2285156,128.0771484,22.3740234,128.0771484,21.3515625z M131.2998047,21.3515625v-0.0136719
		c0-0.7773438-0.5820312-1.4150391-1.3457031-1.4150391c-0.7832031,0-1.3232422,0.6376953-1.3232422,1.4003906v0.0146484
		c0,0.7773438,0.5732422,1.4072266,1.3369141,1.4072266C130.7529297,22.7451172,131.2998047,22.1152344,131.2998047,21.3515625z"/>
	<path class="st0" d="M132.8232422,19.5234375h0.5390625v0.6308594c0.2382812-0.3925781,0.6171875-0.7080078,1.2402344-0.7080078
		c0.875,0,1.3867188,0.5888672,1.3867188,1.4501953v2.2480469h-0.5390625v-2.1152344
		c0-0.671875-0.3652344-1.0927734-1.0019531-1.0927734c-0.6230469,0-1.0859375,0.4550781-1.0859375,1.1347656v2.0732422h-0.5390625
		V19.5234375z"/>
	<path class="st0" d="M136.8623047,22.09375v-0.0136719c0-0.7636719,0.6308594-1.1699219,1.5488281-1.1699219
		c0.4609375,0,0.7910156,0.0634766,1.1132812,0.1542969v-0.1259766c0-0.6513672-0.3984375-0.9873047-1.078125-0.9873047
		c-0.4277344,0-0.7636719,0.1113281-1.0996094,0.265625l-0.1621094-0.4414062
		c0.4003906-0.1816406,0.7910156-0.3007812,1.3164062-0.3007812c0.5117188,0,0.9042969,0.1328125,1.1699219,0.3994141
		c0.2460938,0.2451172,0.3710938,0.5947266,0.3710938,1.0576172v2.2128906h-0.5175781v-0.5458984
		c-0.2519531,0.3291016-0.671875,0.6230469-1.3105469,0.6230469
		C137.5419922,23.2216797,136.8623047,22.8359375,136.8623047,22.09375z M139.5322266,21.8134766v-0.3496094
		c-0.2675781-0.0771484-0.625-0.1542969-1.0664062-0.1542969c-0.6777344,0-1.0566406,0.2939453-1.0566406,0.7490234v0.0146484
		c0,0.4550781,0.4199219,0.7207031,0.9101562,0.7207031C138.9853516,22.7939453,139.5322266,22.3876953,139.5322266,21.8134766z"/>
	<path class="st0" d="M141.2373047,18.0322266h0.5390625v5.1123047h-0.5390625V18.0322266z"/>
	<path class="st0" d="M142.7275391,22.6826172l0.2734375-0.3857422c0.3925781,0.2939453,0.8261719,0.4628906,1.2539062,0.4628906
		c0.4355469,0,0.75-0.2246094,0.75-0.5751953v-0.0136719c0-0.3642578-0.4277344-0.5039062-0.9042969-0.6376953
		c-0.5664062-0.1601562-1.1972656-0.3564453-1.1972656-1.0224609v-0.0136719c0-0.6230469,0.5175781-1.0361328,1.2324219-1.0361328
		c0.4414062,0,0.9316406,0.1533203,1.3027344,0.3984375l-0.2441406,0.40625
		c-0.3359375-0.2167969-0.7226562-0.3496094-1.0722656-0.3496094c-0.4277344,0-0.7011719,0.2236328-0.7011719,0.5253906v0.0136719
		c0,0.3427734,0.4492188,0.4765625,0.9316406,0.6230469c0.5605469,0.1679688,1.1640625,0.3857422,1.1640625,1.0371094v0.0136719
		c0,0.6865234-0.5683594,1.0859375-1.2890625,1.0859375C143.7080078,23.2148438,143.1337891,23.0117188,142.7275391,22.6826172z"/>
	<path class="st0" d="M148.3916016,21.3515625v-0.0136719c0-1.0224609,0.7988281-1.8916016,1.890625-1.8916016
		c1.0859375,0,1.8847656,0.8544922,1.8847656,1.8769531v0.0146484c0,1.0224609-0.8066406,1.890625-1.8984375,1.890625
		C149.1826172,23.2285156,148.3916016,22.3740234,148.3916016,21.3515625z M151.6123047,21.3515625v-0.0136719
		c0-0.7773438-0.5800781-1.4150391-1.34375-1.4150391c-0.7851562,0-1.3242188,0.6376953-1.3242188,1.4003906v0.0146484
		c0,0.7773438,0.5742188,1.4072266,1.3378906,1.4072266C151.0673828,22.7451172,151.6123047,22.1152344,151.6123047,21.3515625z"/>
	<path class="st0" d="M153.1376953,19.5234375h0.5390625v0.6308594c0.2382812-0.3925781,0.6152344-0.7080078,1.2382812-0.7080078
		c0.8769531,0,1.3867188,0.5888672,1.3867188,1.4501953v2.2480469h-0.5390625v-2.1152344
		c0-0.671875-0.3632812-1.0927734-1-1.0927734c-0.625,0-1.0859375,0.4550781-1.0859375,1.1347656v2.0732422h-0.5390625V19.5234375z"
		/>
	<path class="st0" d="M157.4990234,18.0322266h0.5390625v5.1123047h-0.5390625V18.0322266z"/>
	<path class="st0" d="M162.0009766,19.5234375h0.5742188l-1.5195312,3.7402344
		c-0.3085938,0.7490234-0.6582031,1.0224609-1.2050781,1.0224609c-0.3007812,0-0.5253906-0.0634766-0.7695312-0.1816406
		l0.1816406-0.4277344c0.1738281,0.0908203,0.3359375,0.1328125,0.5664062,0.1328125
		c0.3222656,0,0.5253906-0.1679688,0.7421875-0.6787109l-1.6445312-3.6074219h0.59375l1.3183594,3.0185547L162.0009766,19.5234375z"
		/>
	<path class="st0" d="M162.7626953,22.4091797h0.6445312v0.7353516h-0.6445312V22.4091797z"/>
</g>
</svg>
