<?xml version="1.0" encoding="utf-8"?>
<!-- Generator: Adobe Illustrator 26.3.0, SVG Export Plug-In . SVG Version: 6.00 Build 0)  -->
<svg version="1.1" id="Layer_1" xmlns="http://www.w3.org/2000/svg" xmlns:xlink="http://www.w3.org/1999/xlink" x="0px" y="0px"
	 viewBox="0 0 86.9999847 15.9449997" style="enable-background:new 0 0 86.9999847 15.9449997;" xml:space="preserve">
<style type="text/css">
	.st0{fill:#35C4AF;}
	.st1{fill:#FFFFFF;}
	.st2{fill:none;stroke:#FFFFFF;stroke-width:0.501;stroke-linecap:round;}
</style>
<g>
	<path class="st0" d="M3.9560089,0C1.7709961,0,0,1.7710037,0,3.9560013v8.0330009
		c0,2.1849976,1.7709961,3.9559975,3.9560089,3.9559975h83.0439758V0H3.9560089z"/>
</g>
<g>
	<path class="st1" d="M2.9912262,5.0654297V5.0537109c0-1.1933594,0.8935547-2.1708984,2.1586914-2.1708984
		c0.7792969,0,1.2470703,0.2695312,1.6489258,0.6533203L6.3252106,4.0820312
		c-0.3417969-0.3115234-0.6958008-0.515625-1.1811523-0.515625c-0.7919922,0-1.3793945,0.6533203-1.3793945,1.4746094v0.0126953
		c0,0.8212891,0.581543,1.4873047,1.3852539,1.4873047c0.515625,0,0.8452148-0.2041016,1.2050781-0.5400391l0.4741211,0.4794922
		c-0.4379883,0.4560547-0.9174805,0.7441406-1.703125,0.7441406C3.8964996,7.2246094,2.9912262,6.2705078,2.9912262,5.0654297z"/>
	<path class="st1" d="M7.5630035,2.7744141h0.7314453v4.3779297H7.5630035V2.7744141z"/>
	<path class="st1" d="M9.2548981,2.8105469h0.7792969V3.5H9.2548981V2.8105469z M9.2788239,3.9863281h0.7314453v3.1660156H9.2788239
		V3.9863281z"/>
	<path class="st1" d="M10.7846832,5.5869141V5.5751953c0-0.8994141,0.6958008-1.6552734,1.6494141-1.6552734
		c0.5932617,0,0.965332,0.2216797,1.2651367,0.5458984l-0.4555664,0.4853516
		c-0.222168-0.2275391-0.4560547-0.3955078-0.815918-0.3955078c-0.5273438,0-0.9174805,0.4560547-0.9174805,1.0078125v0.0117188
		c0,0.5634766,0.3901367,1.0136719,0.9477539,1.0136719c0.3417969,0,0.5874023-0.15625,0.8212891-0.3896484l0.4379883,0.4316406
		c-0.3120117,0.3476562-0.6777344,0.59375-1.2954102,0.59375C11.480484,7.2246094,10.7846832,6.4863281,10.7846832,5.5869141z"/>
	<path class="st1" d="M14.3789215,2.7744141h0.7314453v2.6152344l1.3134766-1.4033203h0.8813477l-1.2592773,1.2890625
		l1.3012695,1.8769531h-0.8515625l-0.9350586-1.3730469l-0.4501953,0.4677734v0.9052734h-0.7314453V2.7744141z"/>
	<path class="st1" d="M19.8266754,6.2763672V4.609375h-0.4013672V3.9863281h0.4013672V3.1162109h0.7255859v0.8701172h0.8515625
		V4.609375h-0.8515625v1.5537109c0,0.28125,0.144043,0.3955078,0.3901367,0.3955078
		c0.1616211,0,0.3056641-0.0361328,0.449707-0.1074219v0.5927734c-0.1801758,0.1025391-0.3779297,0.1621094-0.6538086,0.1621094
		C20.2046051,7.2060547,19.8266754,6.9726562,19.8266754,6.2763672z"/>
	<path class="st1" d="M21.8847809,5.5869141V5.5751953c0-0.9052734,0.7197266-1.6552734,1.6914062-1.6552734
		c0.9711914,0,1.6850586,0.7382812,1.6850586,1.6435547v0.0117188c0,0.8994141-0.7197266,1.6494141-1.6972656,1.6494141
		C22.5986481,7.2246094,21.8847809,6.4863281,21.8847809,5.5869141z M24.5356598,5.5869141V5.5751953
		c0-0.5576172-0.4018555-1.0195312-0.9716797-1.0195312c-0.581543,0-0.9536133,0.4560547-0.9536133,1.0078125v0.0117188
		c0,0.5517578,0.4018555,1.0136719,0.9658203,1.0136719C24.1635895,6.5888672,24.5356598,6.1328125,24.5356598,5.5869141z"/>
	<path class="st1" d="M27.5844879,6.2412109V6.2285156c0-0.6835938,0.5400391-1.0195312,1.3134766-1.0195312
		c0.3535156,0,0.6054688,0.0546875,0.8515625,0.1328125v-0.078125c0-0.4501953-0.2758789-0.6894531-0.7856445-0.6894531
		c-0.3540039,0-0.6176758,0.0771484-0.9057617,0.1972656l-0.1977539-0.5693359
		c0.3540039-0.15625,0.6958008-0.2578125,1.1992188-0.2578125c0.4741211,0,0.8276367,0.1259766,1.0498047,0.3535156
		c0.2338867,0.2275391,0.3417969,0.5634766,0.3417969,0.9775391v1.8769531h-0.7080078V6.7568359
		C29.527359,7.0146484,29.1977692,7.21875,28.7119293,7.21875C28.1181793,7.21875,27.5844879,6.8769531,27.5844879,6.2412109z
		 M29.7612457,6.0126953V5.796875c-0.1855469-0.0712891-0.4316406-0.1259766-0.7192383-0.1259766
		c-0.4677734,0-0.7436523,0.1982422-0.7436523,0.5283203v0.0117188c0,0.3056641,0.2695312,0.4794922,0.6176758,0.4794922
		C29.3955231,6.6904297,29.7612457,6.4150391,29.7612457,6.0126953z"/>
	<path class="st1" d="M31.1484528,5.5869141V5.5751953c0-0.8994141,0.6958008-1.6552734,1.6494141-1.6552734
		c0.5932617,0,0.965332,0.2216797,1.2651367,0.5458984l-0.4555664,0.4853516
		c-0.222168-0.2275391-0.4560547-0.3955078-0.815918-0.3955078c-0.5273438,0-0.9174805,0.4560547-0.9174805,1.0078125v0.0117188
		c0,0.5634766,0.3901367,1.0136719,0.9477539,1.0136719c0.3417969,0,0.5874023-0.15625,0.8212891-0.3896484l0.4379883,0.4316406
		c-0.3120117,0.3476562-0.6777344,0.59375-1.2954102,0.59375C31.8442535,7.2246094,31.1484528,6.4863281,31.1484528,5.5869141z"/>
	<path class="st1" d="M34.4843903,5.5869141V5.5751953c0-0.8994141,0.6958008-1.6552734,1.6494141-1.6552734
		c0.5932617,0,0.965332,0.2216797,1.2651367,0.5458984l-0.4555664,0.4853516
		c-0.222168-0.2275391-0.4560547-0.3955078-0.815918-0.3955078c-0.5273438,0-0.9174805,0.4560547-0.9174805,1.0078125v0.0117188
		c0,0.5634766,0.3901367,1.0136719,0.9477539,1.0136719c0.3417969,0,0.5874023-0.15625,0.8212891-0.3896484l0.4379883,0.4316406
		c-0.3120117,0.3476562-0.6777344,0.59375-1.2954102,0.59375C35.180191,7.2246094,34.4843903,6.4863281,34.4843903,5.5869141z"/>
	<path class="st1" d="M37.8266754,5.5810547V5.5693359c0-0.9052734,0.6416016-1.6494141,1.5473633-1.6494141
		c1.0073242,0,1.5170898,0.7919922,1.5170898,1.703125c0,0.0664062-0.0058594,0.1318359-0.012207,0.2041016h-2.3266602
		c0.078125,0.515625,0.4438477,0.8037109,0.9116211,0.8037109c0.3540039,0,0.6054688-0.1318359,0.8574219-0.3779297
		l0.4257812,0.3779297c-0.2998047,0.359375-0.7133789,0.59375-1.2954102,0.59375
		C38.5341949,7.2246094,37.8266754,6.5585938,37.8266754,5.5810547z M40.171402,5.3476562
		c-0.0478516-0.4677734-0.3237305-0.8339844-0.8032227-0.8339844c-0.4438477,0-0.7558594,0.3417969-0.8217773,0.8339844H40.171402z"
		/>
	<path class="st1" d="M41.3667145,6.7382812l0.3237305-0.4912109c0.3481445,0.2578125,0.7138672,0.3896484,1.0375977,0.3896484
		c0.3120117,0,0.4916992-0.1318359,0.4916992-0.3417969V6.2832031c0-0.2460938-0.3359375-0.3300781-0.7075195-0.4443359
		c-0.4677734-0.1318359-0.9892578-0.3232422-0.9892578-0.9228516V4.9033203c0-0.6054688,0.4975586-0.9716797,1.1269531-0.9716797
		c0.3959961,0,0.8276367,0.1386719,1.1635742,0.3603516l-0.2875977,0.515625
		c-0.3061523-0.1855469-0.6298828-0.2998047-0.8935547-0.2998047c-0.2822266,0-0.4438477,0.1376953-0.4438477,0.3115234v0.0126953
		c0,0.2333984,0.3417969,0.3291016,0.7133789,0.4492188c0.4619141,0.1445312,0.9833984,0.3535156,0.9833984,0.9238281v0.0117188
		c0,0.6660156-0.515625,0.9951172-1.175293,0.9951172C42.2602692,7.2119141,41.7627106,7.0566406,41.3667145,6.7382812z"/>
	<path class="st1" d="M44.3183746,6.7382812l0.3237305-0.4912109c0.3481445,0.2578125,0.7138672,0.3896484,1.0375977,0.3896484
		c0.3120117,0,0.4916992-0.1318359,0.4916992-0.3417969V6.2832031c0-0.2460938-0.3359375-0.3300781-0.7075195-0.4443359
		c-0.4677734-0.1318359-0.9892578-0.3232422-0.9892578-0.9228516V4.9033203c0-0.6054688,0.4975586-0.9716797,1.1269531-0.9716797
		c0.3959961,0,0.8276367,0.1386719,1.1635742,0.3603516l-0.2875977,0.515625
		c-0.3061523-0.1855469-0.6298828-0.2998047-0.8935547-0.2998047c-0.2822266,0-0.4438477,0.1376953-0.4438477,0.3115234v0.0126953
		c0,0.2333984,0.3417969,0.3291016,0.7133789,0.4492188c0.4619141,0.1445312,0.9833984,0.3535156,0.9833984,0.9238281v0.0117188
		c0,0.6660156-0.515625,0.9951172-1.175293,0.9951172C45.2119293,7.2119141,44.7143707,7.0566406,44.3183746,6.7382812z"/>
	<path class="st1" d="M49.4663239,2.9550781h3.1123047v0.6591797h-2.3745117v1.0917969h2.1049805v0.6650391h-2.1049805v1.1220703
		h2.4047852v0.6591797h-3.1425781V2.9550781z"/>
	<path class="st1" d="M53.4863434,2.9550781h1.6552734c0.9833984,0,1.5952148,0.5576172,1.5952148,1.4023438v0.0126953
		c0,0.9414062-0.7558594,1.4326172-1.6791992,1.4326172h-0.8334961v1.3496094h-0.737793V2.9550781z M55.0815582,5.1376953
		c0.5576172,0,0.9057617-0.3125,0.9057617-0.75V4.3759766c0-0.4921875-0.3540039-0.75-0.9057617-0.75h-0.8574219v1.5117188
		H55.0815582z"/>
	<path class="st1" d="M57.308609,5.0654297V5.0537109c0-1.1933594,0.8935547-2.1708984,2.1586914-2.1708984
		c0.7792969,0,1.2470703,0.2695312,1.6489258,0.6533203l-0.4736328,0.5458984
		c-0.3417969-0.3115234-0.6958008-0.515625-1.1811523-0.515625c-0.7919922,0-1.3793945,0.6533203-1.3793945,1.4746094v0.0126953
		c0,0.8212891,0.581543,1.4873047,1.3852539,1.4873047c0.515625,0,0.8452148-0.2041016,1.2050781-0.5400391l0.4741211,0.4794922
		c-0.4379883,0.4560547-0.9174805,0.7441406-1.703125,0.7441406C58.2138824,7.2246094,57.308609,6.2705078,57.308609,5.0654297z"/>
	<path class="st1" d="M61.9282379,2.9550781h0.737793v3.5253906h2.206543v0.671875h-2.9443359V2.9550781z"/>
	<path class="st1" d="M65.4619293,5.3710938V2.9550781h0.737793v2.3867188c0,0.7792969,0.4018555,1.1933594,1.0615234,1.1933594
		c0.6533203,0,1.0551758-0.390625,1.0551758-1.1640625V2.9550781h0.737793v2.3798828
		c0,1.2539062-0.7075195,1.8837891-1.8051758,1.8837891C66.1577301,7.21875,65.4619293,6.5888672,65.4619293,5.3710938z"/>
	<path class="st1" d="M69.7881012,6.5410156l0.4438477-0.5283203c0.4018555,0.3476562,0.8095703,0.5458984,1.3251953,0.5458984
		c0.4555664,0,0.7436523-0.2158203,0.7436523-0.5273438V6.0185547c0-0.2998047-0.1679688-0.4609375-0.9472656-0.6416016
		c-0.8935547-0.2158203-1.3974609-0.4794922-1.3974609-1.2529297V4.1123047c0-0.7197266,0.5996094-1.2177734,1.4331055-1.2177734
		c0.6118164,0,1.0976562,0.1865234,1.5234375,0.5283203l-0.3959961,0.5576172
		c-0.3779297-0.2822266-0.7553711-0.4326172-1.1391602-0.4326172c-0.4321289,0-0.6835938,0.2226562-0.6835938,0.4980469v0.0117188
		c0,0.3242188,0.1918945,0.4677734,1.0014648,0.6601562c0.887207,0.2158203,1.3432617,0.5332031,1.3432617,1.2294922v0.0117188
		c0,0.7851562-0.6176758,1.2529297-1.4995117,1.2529297C70.8974762,7.2119141,70.2920074,6.9902344,69.7881012,6.5410156z"/>
	<path class="st1" d="M75.3134918,2.9248047h0.6835938l1.847168,4.2275391h-0.7797852l-0.4257812-1.0136719h-1.9848633
		l-0.4316406,1.0136719h-0.7558594L75.3134918,2.9248047z M76.3691559,5.4853516l-0.7255859-1.6787109l-0.7197266,1.6787109
		H76.3691559z"/>
</g>
<g>
	<path class="st1" d="M3.1767731,8.9550781h1.6552734c0.9833984,0,1.5952148,0.5576172,1.5952148,1.4023438v0.0126953
		c0,0.9414062-0.7558594,1.4326172-1.6791992,1.4326172H3.914566v1.3496094h-0.737793V8.9550781z M4.7719879,11.1376953
		c0.5576172,0,0.9057617-0.3125,0.9057617-0.75v-0.0117188c0-0.4921875-0.3540039-0.75-0.9057617-0.75H3.914566v1.5117188H4.7719879
		z"/>
	<path class="st1" d="M7.2265778,8.9550781h0.737793v4.1972656h-0.737793V8.9550781z"/>
	<path class="st1" d="M10.5869293,12.2412109v-0.0126953c0-0.6835938,0.5400391-1.0195312,1.3134766-1.0195312
		c0.3535156,0,0.6054688,0.0546875,0.8515625,0.1328125v-0.078125c0-0.4501953-0.2758789-0.6894531-0.7856445-0.6894531
		c-0.3540039,0-0.6176758,0.0771484-0.9057617,0.1972656l-0.1977539-0.5693359
		c0.3540039-0.15625,0.6958008-0.2578125,1.1992188-0.2578125c0.4741211,0,0.8276367,0.1259766,1.0498047,0.3535156
		c0.2338867,0.2275391,0.3417969,0.5634766,0.3417969,0.9775391v1.8769531H12.746109v-0.3955078
		c-0.2163086,0.2578125-0.5458984,0.4619141-1.0317383,0.4619141C11.1206207,13.21875,10.5869293,12.8769531,10.5869293,12.2412109z
		 M12.7636871,12.0126953V11.796875c-0.1855469-0.0712891-0.4316406-0.1259766-0.7192383-0.1259766
		c-0.4677734,0-0.7436523,0.1982422-0.7436523,0.5283203v0.0117188c0,0.3056641,0.2695312,0.4794922,0.6176758,0.4794922
		C12.3979645,12.6904297,12.7636871,12.4150391,12.7636871,12.0126953z"/>
	<path class="st1" d="M14.3188629,9.9863281h0.7314453v0.4853516c0.2041016-0.2939453,0.4980469-0.5517578,0.9897461-0.5517578
		c0.7133789,0,1.1274414,0.4794922,1.1274414,1.2119141v2.0205078h-0.7255859v-1.7988281
		c0-0.4921875-0.2460938-0.7734375-0.6777344-0.7734375c-0.4199219,0-0.7138672,0.2939453-0.7138672,0.7851562v1.7871094h-0.7314453
		V9.9863281z"/>
	<path class="st1" d="M17.8828278,11.5751953v-0.0117188c0-1.0498047,0.7133789-1.6435547,1.4692383-1.6435547
		c0.5214844,0,0.8515625,0.2578125,1.0791016,0.5576172v-1.703125h0.7255859v4.3779297h-0.7255859V12.625
		c-0.2338867,0.3291016-0.5634766,0.59375-1.0791016,0.59375C18.6084137,13.21875,17.8828278,12.625,17.8828278,11.5751953z
		 M20.4433746,11.5751953v-0.0117188c0-0.6123047-0.4316406-1.0136719-0.9174805-1.0136719
		c-0.4975586,0-0.9116211,0.3896484-0.9116211,1.0136719v0.0117188c0,0.6113281,0.4199219,1.0136719,0.9116211,1.0136719
		C20.011734,12.5888672,20.4433746,12.1806641,20.4433746,11.5751953z"/>
	<path class="st1" d="M25.4419098,8.9248047h0.6835938l1.847168,4.2275391h-0.7797852l-0.4257812-1.0136719h-1.9848633
		l-0.4316406,1.0136719h-0.7558594L25.4419098,8.9248047z M26.4975739,11.4853516l-0.7255859-1.6787109l-0.7197266,1.6787109
		H26.4975739z"/>
	<path class="st1" d="M28.6943512,8.9550781h3.1123047v0.6591797h-2.3745117v1.0917969h2.1049805v0.6650391h-2.1049805v1.1220703
		h2.4047852v0.6591797h-3.1425781V8.9550781z"/>
	<path class="st1" d="M34.4243317,9.9863281h0.7314453v0.7128906c0.1982422-0.4736328,0.5639648-0.796875,1.121582-0.7734375
		v0.7675781h-0.0419922c-0.6357422,0-1.0795898,0.4140625-1.0795898,1.2539062v1.2050781h-0.7314453V9.9863281z"/>
	<path class="st1" d="M36.6264801,11.5810547v-0.0117188c0-0.9052734,0.6416016-1.6494141,1.5473633-1.6494141
		c1.0073242,0,1.5170898,0.7919922,1.5170898,1.703125c0,0.0664062-0.0058594,0.1318359-0.012207,0.2041016H37.352066
		c0.078125,0.515625,0.4438477,0.8037109,0.9116211,0.8037109c0.3540039,0,0.6054688-0.1318359,0.8574219-0.3779297
		l0.4257812,0.3779297c-0.2998047,0.359375-0.7133789,0.59375-1.2954102,0.59375
		C37.3339996,13.2246094,36.6264801,12.5585938,36.6264801,11.5810547z M38.9712067,11.3476562
		c-0.0478516-0.4677734-0.3237305-0.8339844-0.8032227-0.8339844c-0.4438477,0-0.7558594,0.3417969-0.8217773,0.8339844H38.9712067z
		"/>
	<path class="st1" d="M40.4184723,9.9863281h0.7314453v0.5273438c0.2338867-0.3300781,0.5639648-0.59375,1.0795898-0.59375
		c0.7436523,0,1.4692383,0.5878906,1.4692383,1.6435547v0.0117188c0,1.0498047-0.7197266,1.6435547-1.4692383,1.6435547
		c-0.527832,0-0.8574219-0.2646484-1.0795898-0.5585938v1.4511719h-0.7314453V9.9863281z M42.9609528,11.5751953v-0.0117188
		c0-0.6123047-0.4194336-1.0136719-0.9052734-1.0136719c-0.4916992,0-0.9233398,0.4082031-0.9233398,1.0136719v0.0117188
		c0,0.6054688,0.4316406,1.0136719,0.9233398,1.0136719C42.5532379,12.5888672,42.9609528,12.1992188,42.9609528,11.5751953z"/>
	<path class="st1" d="M44.2763824,11.5869141v-0.0117188c0-0.9052734,0.7197266-1.6552734,1.6914062-1.6552734
		c0.9711914,0,1.6850586,0.7382812,1.6850586,1.6435547v0.0117188c0,0.8994141-0.7197266,1.6494141-1.6972656,1.6494141
		C44.9902496,13.2246094,44.2763824,12.4863281,44.2763824,11.5869141z M46.9272614,11.5869141v-0.0117188
		c0-0.5576172-0.4018555-1.0195312-0.9716797-1.0195312c-0.581543,0-0.9536133,0.4560547-0.9536133,1.0078125v0.0117188
		c0,0.5517578,0.4018555,1.0136719,0.9658203,1.0136719C46.555191,12.5888672,46.9272614,12.1328125,46.9272614,11.5869141z"/>
	<path class="st1" d="M48.3862457,9.9863281h0.7314453v0.7128906c0.1982422-0.4736328,0.5639648-0.796875,1.121582-0.7734375
		v0.7675781h-0.0419922c-0.6357422,0-1.0795898,0.4140625-1.0795898,1.2539062v1.2050781h-0.7314453V9.9863281z"/>
	<path class="st1" d="M51.0200348,12.2763672V10.609375h-0.4013672V9.9863281h0.4013672V9.1162109h0.7255859v0.8701172h0.8515625
		v0.6230469h-0.8515625v1.5537109c0,0.28125,0.144043,0.3955078,0.3901367,0.3955078
		c0.1616211,0,0.3056641-0.0361328,0.449707-0.1074219v0.5927734c-0.1801758,0.1025391-0.3779297,0.1621094-0.6538086,0.1621094
		C51.3979645,13.2060547,51.0200348,12.9726562,51.0200348,12.2763672z"/>
	<path class="st1" d="M53.3481598,8.8105469h0.7797852V9.5h-0.7797852V8.8105469z M53.3720856,9.9863281h0.7314453v3.1660156
		h-0.7314453V9.9863281z"/>
	<path class="st1" d="M55.046402,9.9863281h0.7314453v0.4853516c0.2041016-0.2939453,0.4980469-0.5517578,0.9897461-0.5517578
		c0.7133789,0,1.1274414,0.4794922,1.1274414,1.2119141v2.0205078h-0.7255859v-1.7988281
		c0-0.4921875-0.2460938-0.7734375-0.6777344-0.7734375c-0.4199219,0-0.7138672,0.2939453-0.7138672,0.7851562v1.7871094H55.046402
		V9.9863281z"/>
	<path class="st1" d="M58.7661285,13.7460938l0.2700195-0.5458984c0.3417969,0.2099609,0.6953125,0.3300781,1.1274414,0.3300781
		c0.6474609,0,1.0014648-0.3300781,1.0014648-0.9658203v-0.2392578c-0.2641602,0.3349609-0.59375,0.5751953-1.1157227,0.5751953
		c-0.7495117,0-1.4389648-0.5517578-1.4389648-1.4814453v-0.0117188c0-0.9355469,0.7016602-1.4873047,1.4389648-1.4873047
		c0.5336914,0,0.8637695,0.2460938,1.109375,0.5400391V9.9863281h0.7255859v2.5185547
		c0,0.5332031-0.1376953,0.9296875-0.4018555,1.1933594c-0.2875977,0.2880859-0.7314453,0.4257812-1.3012695,0.4257812
		C59.6596832,14.1240234,59.1738434,13.9921875,58.7661285,13.7460938z M61.1709137,11.4130859v-0.0117188
		c0-0.515625-0.4257812-0.8632812-0.9296875-0.8632812c-0.503418,0-0.8994141,0.3417969-0.8994141,0.8632812v0.0117188
		c0,0.515625,0.4018555,0.8701172,0.8994141,0.8701172C60.7451324,12.2832031,61.1709137,11.9287109,61.1709137,11.4130859z"/>
</g>
<g>
	<polyline class="st2" points="79.9460297,10.8070984 82.7810211,7.9720993 79.9460297,5.1380997 	"/>
</g>
</svg>
