<?xml version="1.0" encoding="utf-8"?>
<!-- Generator: Adobe Illustrator 26.3.0, SVG Export Plug-In . SVG Version: 6.00 Build 0)  -->
<svg version="1.1" id="Layer_1" xmlns="http://www.w3.org/2000/svg" xmlns:xlink="http://www.w3.org/1999/xlink" x="0px" y="0px"
	 viewBox="0 0 226.2021484 43.9950371" style="enable-background:new 0 0 226.2021484 43.9950371;" xml:space="preserve">
<style type="text/css">
	.st0{fill:#FFFFFF;}
	.st1{fill:#35C4AF;}
</style>
<g>
	<path class="st0" d="M0.1860352,26.8202324h3.0341797v0.4316406H0.659668v1.4326172h2.2910156v0.4316406H0.659668v1.4697266
		h2.5908203v0.4316406H0.1860352V26.8202324z"/>
	<path class="st0" d="M4.0620117,26.8202324h1.5712891c0.9472656,0,1.5708008,0.5029297,1.5708008,1.3310547v0.0117188
		c0,0.9052734-0.7553711,1.3730469-1.6489258,1.3730469H4.5356445v1.4814453H4.0620117V26.8202324z M5.5732422,29.1044121
		c0.6953125,0,1.1513672-0.3720703,1.1513672-0.9238281v-0.0117188c0-0.5996094-0.449707-0.9111328-1.1274414-0.9111328H4.5356445
		v1.8466797H5.5732422z"/>
	<path class="st0" d="M7.7397461,28.930584v-0.0117188c0-1.1875,0.8876953-2.1708984,2.1230469-2.1708984
		c0.7612305,0,1.2172852,0.2695312,1.6367188,0.6650391l-0.3237305,0.3486328
		c-0.3535156-0.3359375-0.7495117-0.5761719-1.3193359-0.5761719c-0.9291992,0-1.625,0.7558594-1.625,1.7207031v0.0126953
		c0,0.9716797,0.7016602,1.7324219,1.625,1.7324219c0.5756836,0,0.9536133-0.2216797,1.3554688-0.6054688l0.3120117,0.3056641
		c-0.4379883,0.4443359-0.9174805,0.7382812-1.6791992,0.7382812C8.6333008,31.0897636,7.7397461,30.1356621,7.7397461,28.930584z"
		/>
	<path class="st0" d="M12.2338867,26.8202324h0.4736328v3.7597656h2.362793v0.4375h-2.8364258V26.8202324z"/>
	<path class="st0" d="M15.6181641,29.2606621v-2.4404297h0.4736328v2.4101562c0,0.9052734,0.4794922,1.4150391,1.2832031,1.4150391
		c0.7734375,0,1.2651367-0.4677734,1.2651367-1.3847656v-2.4404297h0.4741211v2.4042969
		c0,1.2236328-0.7016602,1.859375-1.7509766,1.859375C16.3256836,31.0839043,15.6181641,30.4481621,15.6181641,29.2606621z"/>
	<path class="st0" d="M19.8178711,30.4061699l0.2939453-0.3476562c0.4375,0.3955078,0.8574219,0.5927734,1.4389648,0.5927734
		c0.5639648,0,0.9355469-0.2998047,0.9355469-0.7128906v-0.0126953c0-0.3896484-0.2099609-0.6113281-1.0913086-0.796875
		c-0.965332-0.2099609-1.4091797-0.5224609-1.4091797-1.2119141v-0.0117188c0-0.6591797,0.581543-1.1455078,1.3789062-1.1455078
		c0.6118164,0,1.0498047,0.1738281,1.4755859,0.515625l-0.2758789,0.3662109
		c-0.3901367-0.3183594-0.7797852-0.4560547-1.2114258-0.4560547c-0.5458984,0-0.8935547,0.2998047-0.8935547,0.6777344v0.0117188
		c0,0.3964844,0.2158203,0.6181641,1.1391602,0.8154297c0.9355469,0.2041016,1.3676758,0.5458984,1.3676758,1.1875v0.0126953
		c0,0.71875-0.6000977,1.1865234-1.4335938,1.1865234C20.8671875,31.0770683,20.3217773,30.8553886,19.8178711,30.4061699z"/>
	<path class="st0" d="M25.2529297,26.789959h0.4438477l1.9125977,4.2275391h-0.5097656l-0.4916992-1.109375h-2.284668
		l-0.4975586,1.109375h-0.4858398L25.2529297,26.789959z M26.4223633,29.4823418l-0.9536133-2.140625l-0.9594727,2.140625
		H26.4223633z"/>
	<path class="st0" d="M29.8798828,26.7294121h0.527832v0.5097656h-0.527832V26.7294121z M29.909668,27.9169121h0.4619141v3.1005859
		H29.909668V27.9169121z"/>
	<path class="st0" d="M31.043457,30.6219902l0.2338867-0.3300781c0.3359375,0.2519531,0.7075195,0.3955078,1.0732422,0.3955078
		c0.3720703,0,0.6420898-0.1914062,0.6420898-0.4912109v-0.0126953c0-0.3115234-0.3662109-0.4316406-0.7739258-0.5449219
		c-0.4858398-0.1386719-1.0253906-0.3066406-1.0253906-0.8759766v-0.0117188c0-0.5341797,0.4438477-0.8876953,1.0556641-0.8876953
		c0.3774414,0,0.7973633,0.1318359,1.1152344,0.3417969l-0.2099609,0.3476562
		c-0.2875977-0.1855469-0.6176758-0.2998047-0.9174805-0.2998047c-0.3657227,0-0.5996094,0.1923828-0.5996094,0.4501953v0.0117188
		c0,0.2939453,0.3837891,0.4082031,0.7973633,0.5341797c0.4799805,0.1435547,0.9956055,0.3291016,0.9956055,0.8867188v0.0126953
		c0,0.5869141-0.4858398,0.9287109-1.1035156,0.9287109C31.8828125,31.0770683,31.3911133,30.9032402,31.043457,30.6219902z"/>
	<path class="st0" d="M35.8134766,26.7294121h0.527832v0.5097656h-0.527832V26.7294121z M35.8432617,27.9169121h0.4619141v3.1005859
		h-0.4619141V27.9169121z"/>
	<path class="st0" d="M37.2353516,27.9169121h0.4619141v0.5400391c0.2036133-0.3359375,0.527832-0.6054688,1.0615234-0.6054688
		c0.7495117,0,1.1870117,0.5039062,1.1870117,1.2412109v1.9248047H39.484375v-1.8105469
		c0-0.5761719-0.3120117-0.9355469-0.8579102-0.9355469c-0.5336914,0-0.9291992,0.3896484-0.9291992,0.9707031v1.7753906h-0.4619141
		V27.9169121z"/>
	<path class="st0" d="M40.6015625,29.4764824v-0.0117188c0-1.0136719,0.7373047-1.6132812,1.480957-1.6132812
		c0.5756836,0,0.9477539,0.3115234,1.1875,0.6591797v-1.8710938h0.4619141v4.3779297h-0.4619141v-0.6240234
		c-0.2519531,0.3720703-0.6176758,0.6904297-1.1875,0.6904297C41.3388672,31.0839043,40.6015625,30.4960136,40.6015625,29.4764824z
		 M43.2880859,29.470623v-0.0126953c0-0.7128906-0.5458984-1.1933594-1.121582-1.1933594
		c-0.5996094,0-1.0913086,0.4443359-1.0913086,1.1933594v0.0126953c0,0.7314453,0.5039062,1.1992188,1.0913086,1.1992188
		C42.7421875,30.6698418,43.2880859,30.1835136,43.2880859,29.470623z"/>
	<path class="st0" d="M44.6333008,26.7294121h0.5273438v0.5097656h-0.5273438V26.7294121z M44.6630859,27.9169121H45.125v3.1005859
		h-0.4619141V27.9169121z"/>
	<path class="st0" d="M45.8632812,29.4823418V29.470623c0-0.8759766,0.6835938-1.6191406,1.5893555-1.6191406
		c0.5874023,0,0.953125,0.2460938,1.2412109,0.5517578l-0.3056641,0.3232422
		c-0.2460938-0.2578125-0.5219727-0.4677734-0.9418945-0.4677734c-0.6293945,0-1.109375,0.5341797-1.109375,1.1992188v0.0126953
		c0,0.6708984,0.4916992,1.2050781,1.1396484,1.2050781c0.3955078,0,0.7016602-0.1982422,0.9472656-0.4619141l0.2939453,0.2763672
		c-0.3120117,0.3476562-0.6835938,0.5996094-1.2651367,0.5996094C46.546875,31.0897636,45.8632812,30.3514824,45.8632812,29.4823418
		z"/>
	<path class="st0" d="M49.097168,30.118084v-0.0117188c0-0.6542969,0.5400391-1.0019531,1.3251953-1.0019531
		c0.3959961,0,0.6777344,0.0537109,0.9536133,0.1318359v-0.1074219c0-0.5576172-0.3417969-0.8457031-0.9233398-0.8457031
		c-0.3657227,0-0.6538086,0.0957031-0.9414062,0.2275391l-0.1381836-0.3779297
		c0.3417969-0.1552734,0.6777344-0.2578125,1.1274414-0.2578125c0.4379883,0,0.7734375,0.1142578,1.0014648,0.3417969
		c0.2099609,0.2099609,0.3178711,0.5097656,0.3178711,0.90625v1.8945312h-0.4438477v-0.4677734
		c-0.2158203,0.2822266-0.5756836,0.5341797-1.121582,0.5341797C49.6791992,31.0839043,49.097168,30.7538261,49.097168,30.118084z
		 M51.3818359,29.8778496v-0.2998047c-0.2275391-0.0654297-0.5336914-0.1318359-0.9111328-0.1318359
		c-0.5820312,0-0.9057617,0.2519531-0.9057617,0.6416016v0.0117188c0,0.390625,0.3598633,0.6181641,0.7797852,0.6181641
		C50.9140625,30.7176933,51.3818359,30.3700371,51.3818359,29.8778496z"/>
	<path class="st0" d="M52.7929688,30.196209v-1.8710938h-0.4316406v-0.4082031h0.4316406v-0.9355469h0.4614258v0.9355469h0.9838867
		v0.4082031h-0.9838867v1.8105469c0,0.3779297,0.2099609,0.515625,0.5219727,0.515625
		c0.1557617,0,0.2875977-0.0292969,0.449707-0.1074219v0.3955078c-0.1621094,0.0839844-0.3359375,0.1318359-0.5576172,0.1318359
		C53.1704102,31.071209,52.7929688,30.8260918,52.7929688,30.196209z"/>
	<path class="st0" d="M54.6230469,29.4764824v-0.0117188c0-0.8935547,0.6298828-1.6132812,1.4873047-1.6132812
		c0.9174805,0,1.4453125,0.7314453,1.4453125,1.6367188c0,0.0605469,0,0.0957031-0.0063477,0.1503906h-2.4584961
		c0.065918,0.6708984,0.5395508,1.0488281,1.0913086,1.0488281c0.4257812,0,0.7255859-0.1738281,0.9775391-0.4375
		l0.2880859,0.2578125c-0.3120117,0.3476562-0.6899414,0.5820312-1.2773438,0.5820312
		C55.3188477,31.0897636,54.6230469,30.4354668,54.6230469,29.4764824z M57.0878906,29.2967949
		c-0.0478516-0.5644531-0.3720703-1.0556641-0.9897461-1.0556641c-0.5395508,0-0.9472656,0.4492188-1.0073242,1.0556641H57.0878906z
		"/>
	<path class="st0" d="M58.043457,29.4764824v-0.0117188c0-1.0136719,0.7373047-1.6132812,1.480957-1.6132812
		c0.5756836,0,0.9477539,0.3115234,1.1875,0.6591797v-1.8710938h0.4619141v4.3779297h-0.4619141v-0.6240234
		c-0.2519531,0.3720703-0.6176758,0.6904297-1.1875,0.6904297C58.7807617,31.0839043,58.043457,30.4960136,58.043457,29.4764824z
		 M60.7299805,29.470623v-0.0126953c0-0.7128906-0.5458984-1.1933594-1.121582-1.1933594
		c-0.5996094,0-1.0913086,0.4443359-1.0913086,1.1933594v0.0126953c0,0.7314453,0.5039062,1.1992188,1.0913086,1.1992188
		C60.184082,30.6698418,60.7299805,30.1835136,60.7299805,29.470623z"/>
	<path class="st0" d="M63.8925781,28.3251152h-0.4257812v-0.4023438h0.4257812v-0.2695312
		c0-0.3535156,0.0961914-0.6240234,0.2700195-0.7978516c0.1557617-0.1552734,0.3837891-0.2392578,0.6655273-0.2392578
		c0.2158203,0,0.3598633,0.0234375,0.5097656,0.078125v0.4013672c-0.1679688-0.0478516-0.2939453-0.078125-0.449707-0.078125
		c-0.3598633,0-0.5395508,0.2158203-0.5395508,0.6601562v0.2519531h0.9833984v0.3955078h-0.9775391v2.6923828h-0.4619141V28.3251152
		z"/>
	<path class="st0" d="M65.5249023,29.4823418V29.470623c0-0.8759766,0.6835938-1.6191406,1.6191406-1.6191406
		c0.9296875,0,1.6132812,0.7314453,1.6132812,1.6064453v0.0126953c0,0.875-0.6899414,1.6191406-1.625,1.6191406
		C66.2026367,31.0897636,65.5249023,30.3583183,65.5249023,29.4823418z M68.2836914,29.4823418V29.470623
		c0-0.6660156-0.4980469-1.2119141-1.1513672-1.2119141c-0.671875,0-1.1337891,0.5458984-1.1337891,1.1992188v0.0126953
		c0,0.6650391,0.4916992,1.2050781,1.1455078,1.2050781C67.815918,30.6757011,68.2836914,30.1356621,68.2836914,29.4823418z"/>
	<path class="st0" d="M69.4487305,27.9169121h0.4619141v0.8095703c0.2280273-0.515625,0.6777344-0.8876953,1.2651367-0.8632812
		v0.4980469h-0.0356445c-0.6777344,0-1.2294922,0.4853516-1.2294922,1.4208984v1.2353516h-0.4619141V27.9169121z"/>
	<path class="st0" d="M73.546875,30.196209v-1.8710938h-0.4316406v-0.4082031h0.4316406v-0.9355469h0.4614258v0.9355469h0.9838867
		v0.4082031h-0.9838867v1.8105469c0,0.3779297,0.2099609,0.515625,0.5219727,0.515625
		c0.1557617,0,0.2875977-0.0292969,0.449707-0.1074219v0.3955078c-0.1621094,0.0839844-0.3359375,0.1318359-0.5576172,0.1318359
		C73.9243164,31.071209,73.546875,30.8260918,73.546875,30.196209z"/>
	<path class="st0" d="M75.6645508,26.6395683h0.4619141v1.8173828c0.2036133-0.3359375,0.527832-0.6054688,1.0615234-0.6054688
		c0.7495117,0,1.1870117,0.5039062,1.1870117,1.2412109v1.9248047h-0.4614258v-1.8105469
		c0-0.5761719-0.3120117-0.9355469-0.8579102-0.9355469c-0.5336914,0-0.9291992,0.3896484-0.9291992,0.9707031v1.7753906h-0.4619141
		V26.6395683z"/>
	<path class="st0" d="M79.0244141,29.4764824v-0.0117188c0-0.8935547,0.6298828-1.6132812,1.4873047-1.6132812
		c0.9174805,0,1.4453125,0.7314453,1.4453125,1.6367188c0,0.0605469,0,0.0957031-0.0063477,0.1503906h-2.4584961
		c0.065918,0.6708984,0.5395508,1.0488281,1.0913086,1.0488281c0.4257812,0,0.7255859-0.1738281,0.9775391-0.4375
		l0.2880859,0.2578125c-0.3120117,0.3476562-0.6899414,0.5820312-1.2773438,0.5820312
		C79.7202148,31.0897636,79.0244141,30.4354668,79.0244141,29.4764824z M81.4892578,29.2967949
		c-0.0478516-0.5644531-0.3720703-1.0556641-0.9897461-1.0556641c-0.5395508,0-0.9472656,0.4492188-1.0073242,1.0556641H81.4892578z
		"/>
	<path class="st0" d="M84.4365234,30.196209v-1.8710938h-0.4316406v-0.4082031h0.4316406v-0.9355469h0.4614258v0.9355469h0.9838867
		v0.4082031h-0.9838867v1.8105469c0,0.3779297,0.2099609,0.515625,0.5219727,0.515625
		c0.1557617,0,0.2875977-0.0292969,0.449707-0.1074219v0.3955078c-0.1621094,0.0839844-0.3359375,0.1318359-0.5576172,0.1318359
		C84.8139648,31.071209,84.4365234,30.8260918,84.4365234,30.196209z"/>
	<path class="st0" d="M86.5541992,27.9169121h0.4619141v0.8095703c0.2280273-0.515625,0.6777344-0.8876953,1.2651367-0.8632812
		v0.4980469h-0.0356445c-0.6777344,0-1.2294922,0.4853516-1.2294922,1.4208984v1.2353516h-0.4619141V27.9169121z"/>
	<path class="st0" d="M88.5166016,29.4764824v-0.0117188c0-0.8935547,0.6298828-1.6132812,1.4873047-1.6132812
		c0.9174805,0,1.4453125,0.7314453,1.4453125,1.6367188c0,0.0605469,0,0.0957031-0.0063477,0.1503906H88.984375
		c0.065918,0.6708984,0.5395508,1.0488281,1.0913086,1.0488281c0.4257812,0,0.7255859-0.1738281,0.9775391-0.4375
		l0.2880859,0.2578125c-0.3120117,0.3476562-0.6899414,0.5820312-1.2773438,0.5820312
		C89.2124023,31.0897636,88.5166016,30.4354668,88.5166016,29.4764824z M90.9814453,29.2967949
		c-0.0478516-0.5644531-0.3720703-1.0556641-0.9897461-1.0556641c-0.5395508,0-0.9472656,0.4492188-1.0073242,1.0556641H90.9814453z
		"/>
	<path class="st0" d="M91.8764648,30.118084v-0.0117188c0-0.6542969,0.5400391-1.0019531,1.3251953-1.0019531
		c0.3959961,0,0.6777344,0.0537109,0.9536133,0.1318359v-0.1074219c0-0.5576172-0.3417969-0.8457031-0.9233398-0.8457031
		c-0.3657227,0-0.6538086,0.0957031-0.9414062,0.2275391l-0.1381836-0.3779297
		c0.3417969-0.1552734,0.6777344-0.2578125,1.1274414-0.2578125c0.4379883,0,0.7734375,0.1142578,1.0014648,0.3417969
		c0.2099609,0.2099609,0.3178711,0.5097656,0.3178711,0.90625v1.8945312h-0.4438477v-0.4677734
		c-0.2158203,0.2822266-0.5756836,0.5341797-1.121582,0.5341797C92.4584961,31.0839043,91.8764648,30.7538261,91.8764648,30.118084z
		 M94.1611328,29.8778496v-0.2998047C93.9335938,29.5126152,93.6274414,29.446209,93.25,29.446209
		c-0.5820312,0-0.9057617,0.2519531-0.9057617,0.6416016v0.0117188c0,0.390625,0.3598633,0.6181641,0.7797852,0.6181641
		C93.6933594,30.7176933,94.1611328,30.3700371,94.1611328,29.8778496z"/>
	<path class="st0" d="M95.5664062,30.196209v-1.8710938h-0.4316406v-0.4082031h0.4316406v-0.9355469h0.4614258v0.9355469h0.9838867
		v0.4082031H96.027832v1.8105469c0,0.3779297,0.2099609,0.515625,0.5219727,0.515625
		c0.1557617,0,0.2875977-0.0292969,0.449707-0.1074219v0.3955078c-0.1621094,0.0839844-0.3359375,0.1318359-0.5576172,0.1318359
		C95.9438477,31.071209,95.5664062,30.8260918,95.5664062,30.196209z"/>
	<path class="st0" d="M97.684082,27.9169121h0.4619141v0.5224609c0.2036133-0.3066406,0.4794922-0.5878906,1.0014648-0.5878906
		c0.503418,0,0.8276367,0.2695312,0.9956055,0.6171875c0.2216797-0.3417969,0.5512695-0.6171875,1.0913086-0.6171875
		c0.7133789,0,1.1513672,0.4794922,1.1513672,1.2470703v1.9189453h-0.4619141v-1.8105469
		c0-0.6005859-0.2998047-0.9355469-0.8037109-0.9355469c-0.4677734,0-0.8574219,0.3476562-0.8574219,0.9589844v1.7871094h-0.4555664
		v-1.8232422c0-0.5810547-0.3061523-0.9228516-0.7978516-0.9228516s-0.8632812,0.4072266-0.8632812,0.9775391v1.7685547H97.684082
		V27.9169121z"/>
	<path class="st0" d="M103.0361328,29.4764824v-0.0117188c0-0.8935547,0.6298828-1.6132812,1.4873047-1.6132812
		c0.9174805,0,1.4453125,0.7314453,1.4453125,1.6367188c0,0.0605469,0,0.0957031-0.0063477,0.1503906h-2.4584961
		c0.065918,0.6708984,0.5395508,1.0488281,1.0913086,1.0488281c0.4257812,0,0.7255859-0.1738281,0.9775391-0.4375
		l0.2880859,0.2578125c-0.3120117,0.3476562-0.6899414,0.5820312-1.2773438,0.5820312
		C103.7319336,31.0897636,103.0361328,30.4354668,103.0361328,29.4764824z M105.5009766,29.2967949
		c-0.0478516-0.5644531-0.3720703-1.0556641-0.9897461-1.0556641c-0.5395508,0-0.9472656,0.4492188-1.0073242,1.0556641H105.5009766
		z"/>
	<path class="st0" d="M106.6303711,27.9169121h0.4619141v0.5400391c0.2036133-0.3359375,0.527832-0.6054688,1.0615234-0.6054688
		c0.7495117,0,1.1870117,0.5039062,1.1870117,1.2412109v1.9248047h-0.4614258v-1.8105469
		c0-0.5761719-0.3120117-0.9355469-0.8579102-0.9355469c-0.5336914,0-0.9291992,0.3896484-0.9291992,0.9707031v1.7753906h-0.4619141
		V27.9169121z"/>
	<path class="st0" d="M110.3383789,30.196209v-1.8710938h-0.4316406v-0.4082031h0.4316406v-0.9355469h0.4614258v0.9355469h0.9838867
		v0.4082031h-0.9838867v1.8105469c0,0.3779297,0.2099609,0.515625,0.5219727,0.515625
		c0.1557617,0,0.2875977-0.0292969,0.449707-0.1074219v0.3955078c-0.1621094,0.0839844-0.3359375,0.1318359-0.5576172,0.1318359
		C110.7163086,31.071209,110.3383789,30.8260918,110.3383789,30.196209z"/>
	<path class="st0" d="M113.9204102,29.4823418V29.470623c0-0.8759766,0.6835938-1.6191406,1.6191406-1.6191406
		c0.9296875,0,1.6132812,0.7314453,1.6132812,1.6064453v0.0126953c0,0.875-0.6899414,1.6191406-1.625,1.6191406
		C114.5981445,31.0897636,113.9204102,30.3583183,113.9204102,29.4823418z M116.6791992,29.4823418V29.470623
		c0-0.6660156-0.4980469-1.2119141-1.1513672-1.2119141c-0.671875,0-1.1337891,0.5458984-1.1337891,1.1992188v0.0126953
		c0,0.6650391,0.4916992,1.2050781,1.1455078,1.2050781C116.2114258,30.6757011,116.6791992,30.1356621,116.6791992,29.4823418z"/>
	<path class="st0" d="M118.0117188,28.3251152h-0.4257812v-0.4023438h0.4257812v-0.2695312
		c0-0.3535156,0.0961914-0.6240234,0.2700195-0.7978516c0.1557617-0.1552734,0.3837891-0.2392578,0.6655273-0.2392578
		c0.2158203,0,0.3598633,0.0234375,0.5097656,0.078125v0.4013672c-0.1679688-0.0478516-0.2939453-0.078125-0.449707-0.078125
		c-0.3598633,0-0.5395508,0.2158203-0.5395508,0.6601562v0.2519531h0.9833984v0.3955078h-0.9775391v2.6923828h-0.4619141V28.3251152
		z"/>
	<path class="st0" d="M121.3598633,29.4823418V29.470623c0-0.8759766,0.6835938-1.6191406,1.5893555-1.6191406
		c0.5874023,0,0.953125,0.2460938,1.2412109,0.5517578l-0.3056641,0.3232422
		c-0.2460938-0.2578125-0.5219727-0.4677734-0.9418945-0.4677734c-0.6293945,0-1.109375,0.5341797-1.109375,1.1992188v0.0126953
		c0,0.6708984,0.4916992,1.2050781,1.1396484,1.2050781c0.3955078,0,0.7016602-0.1982422,0.9472656-0.4619141l0.2939453,0.2763672
		c-0.3120117,0.3476562-0.6835938,0.5996094-1.2651367,0.5996094
		C122.043457,31.0897636,121.3598633,30.3514824,121.3598633,29.4823418z"/>
	<path class="st0" d="M124.8339844,26.6395683h0.4619141v1.8173828c0.2036133-0.3359375,0.527832-0.6054688,1.0615234-0.6054688
		c0.7495117,0,1.1870117,0.5039062,1.1870117,1.2412109v1.9248047h-0.4614258v-1.8105469
		c0-0.5761719-0.3120117-0.9355469-0.8579102-0.9355469c-0.5336914,0-0.9291992,0.3896484-0.9291992,0.9707031v1.7753906h-0.4619141
		V26.6395683z"/>
	<path class="st0" d="M128.3857422,27.9169121h0.4619141v0.8095703c0.2280273-0.515625,0.6777344-0.8876953,1.2651367-0.8632812
		v0.4980469h-0.0361328c-0.6772461,0-1.2290039,0.4853516-1.2290039,1.4208984v1.2353516h-0.4619141V27.9169121z"/>
	<path class="st0" d="M130.3417969,29.4823418V29.470623c0-0.8759766,0.6835938-1.6191406,1.6191406-1.6191406
		c0.9296875,0,1.6132812,0.7314453,1.6132812,1.6064453v0.0126953c0,0.875-0.6899414,1.6191406-1.625,1.6191406
		C131.0195312,31.0897636,130.3417969,30.3583183,130.3417969,29.4823418z M133.1005859,29.4823418V29.470623
		c0-0.6660156-0.4980469-1.2119141-1.1513672-1.2119141c-0.671875,0-1.1337891,0.5458984-1.1337891,1.1992188v0.0126953
		c0,0.6650391,0.4916992,1.2050781,1.1455078,1.2050781C132.6328125,30.6757011,133.1005859,30.1356621,133.1005859,29.4823418z"/>
	<path class="st0" d="M134.2661133,27.9169121h0.4619141v0.5400391c0.2036133-0.3359375,0.527832-0.6054688,1.0615234-0.6054688
		c0.7495117,0,1.1870117,0.5039062,1.1870117,1.2412109v1.9248047h-0.4614258v-1.8105469
		c0-0.5761719-0.3120117-0.9355469-0.8579102-0.9355469c-0.5336914,0-0.9291992,0.3896484-0.9291992,0.9707031v1.7753906h-0.4619141
		V27.9169121z"/>
	<path class="st0" d="M137.8300781,26.7294121h0.527832v0.5097656h-0.527832V26.7294121z M137.8598633,27.9169121h0.4619141
		v3.1005859h-0.4619141V27.9169121z"/>
	<path class="st0" d="M139.0600586,29.4823418V29.470623c0-0.8759766,0.6835938-1.6191406,1.5893555-1.6191406
		c0.5874023,0,0.953125,0.2460938,1.2412109,0.5517578l-0.3056641,0.3232422
		c-0.2460938-0.2578125-0.5219727-0.4677734-0.9418945-0.4677734c-0.6293945,0-1.109375,0.5341797-1.109375,1.1992188v0.0126953
		c0,0.6708984,0.4916992,1.2050781,1.1396484,1.2050781c0.3955078,0,0.7016602-0.1982422,0.9472656-0.4619141l0.2939453,0.2763672
		c-0.3120117,0.3476562-0.6835938,0.5996094-1.2651367,0.5996094
		C139.7436523,31.0897636,139.0600586,30.3514824,139.0600586,29.4823418z"/>
	<path class="st0" d="M144.1899414,26.6395683h0.4619141v1.8173828c0.2036133-0.3359375,0.527832-0.6054688,1.0615234-0.6054688
		c0.7495117,0,1.1870117,0.5039062,1.1870117,1.2412109v1.9248047h-0.4614258v-1.8105469
		c0-0.5761719-0.3120117-0.9355469-0.8579102-0.9355469c-0.5336914,0-0.9291992,0.3896484-0.9291992,0.9707031v1.7753906h-0.4619141
		V26.6395683z"/>
	<path class="st0" d="M147.5439453,29.4764824v-0.0117188c0-0.8935547,0.6298828-1.6132812,1.4873047-1.6132812
		c0.9174805,0,1.4453125,0.7314453,1.4453125,1.6367188c0,0.0605469,0,0.0957031-0.0063477,0.1503906h-2.4584961
		c0.065918,0.6708984,0.5395508,1.0488281,1.0913086,1.0488281c0.4257812,0,0.7255859-0.1738281,0.9775391-0.4375
		l0.2880859,0.2578125c-0.3120117,0.3476562-0.6899414,0.5820312-1.2773438,0.5820312
		C148.2397461,31.0897636,147.5439453,30.4354668,147.5439453,29.4764824z M150.0087891,29.2967949
		c-0.0478516-0.5644531-0.3720703-1.0556641-0.9897461-1.0556641c-0.5395508,0-0.9472656,0.4492188-1.0073242,1.0556641H150.0087891
		z"/>
	<path class="st0" d="M151.1435547,27.9169121h0.4619141v0.6240234c0.2519531-0.3720703,0.6176758-0.6894531,1.1875-0.6894531
		c0.7431641,0,1.480957,0.5878906,1.480957,1.6064453v0.0126953c0,1.0126953-0.7314453,1.6132812-1.480957,1.6132812
		c-0.5756836,0-0.9477539-0.3125-1.1875-0.6601562v1.5527344h-0.4619141V27.9169121z M153.800293,29.4764824v-0.0117188
		c0-0.7324219-0.5039062-1.2001953-1.0913086-1.2001953c-0.5756836,0-1.121582,0.4863281-1.121582,1.1933594v0.0126953
		c0,0.7197266,0.5458984,1.1992188,1.121582,1.1992188C153.3085938,30.6698418,153.800293,30.2255058,153.800293,29.4764824z"/>
	<path class="st0" d="M154.7495117,30.118084v-0.0117188c0-0.6542969,0.5400391-1.0019531,1.3251953-1.0019531
		c0.3959961,0,0.6777344,0.0537109,0.9536133,0.1318359v-0.1074219c0-0.5576172-0.3417969-0.8457031-0.9233398-0.8457031
		c-0.3657227,0-0.6538086,0.0957031-0.9414062,0.2275391l-0.1381836-0.3779297
		c0.3417969-0.1552734,0.6777344-0.2578125,1.1274414-0.2578125c0.4379883,0,0.7734375,0.1142578,1.0014648,0.3417969
		c0.2099609,0.2099609,0.3178711,0.5097656,0.3178711,0.90625v1.8945312h-0.4438477v-0.4677734
		c-0.2158203,0.2822266-0.5756836,0.5341797-1.121582,0.5341797
		C155.331543,31.0839043,154.7495117,30.7538261,154.7495117,30.118084z M157.0341797,29.8778496v-0.2998047
		c-0.2275391-0.0654297-0.5336914-0.1318359-0.9111328-0.1318359c-0.5820312,0-0.9057617,0.2519531-0.9057617,0.6416016v0.0117188
		c0,0.390625,0.3598633,0.6181641,0.7797852,0.6181641C156.5664062,30.7176933,157.0341797,30.3700371,157.0341797,29.8778496z"/>
	<path class="st0" d="M158.4394531,30.196209v-1.8710938h-0.4316406v-0.4082031h0.4316406v-0.9355469h0.4614258v0.9355469h0.9838867
		v0.4082031h-0.9838867v1.8105469c0,0.3779297,0.2099609,0.515625,0.5219727,0.515625
		c0.1557617,0,0.2875977-0.0292969,0.449707-0.1074219v0.3955078c-0.1621094,0.0839844-0.3359375,0.1318359-0.5576172,0.1318359
		C158.8168945,31.071209,158.4394531,30.8260918,158.4394531,30.196209z"/>
	<path class="st0" d="M160.5698242,26.7294121h0.5273438v0.5097656h-0.5273438V26.7294121z M160.5996094,27.9169121h0.4619141
		v3.1005859h-0.4619141V27.9169121z"/>
	<path class="st0" d="M162.1533203,30.196209v-1.8710938h-0.4316406v-0.4082031h0.4316406v-0.9355469h0.4614258v0.9355469h0.9838867
		v0.4082031h-0.9838867v1.8105469c0,0.3779297,0.2099609,0.515625,0.5219727,0.515625
		c0.1557617,0,0.2875977-0.0292969,0.449707-0.1074219v0.3955078c-0.1621094,0.0839844-0.3359375,0.1318359-0.5576172,0.1318359
		C162.5307617,31.071209,162.1533203,30.8260918,162.1533203,30.196209z"/>
	<path class="st0" d="M164.2836914,26.7294121h0.5273438v0.5097656h-0.5273438V26.7294121z M164.3134766,27.9169121h0.4619141
		v3.1005859h-0.4619141V27.9169121z"/>
	<path class="st0" d="M165.4472656,30.6219902l0.2338867-0.3300781c0.3359375,0.2519531,0.7075195,0.3955078,1.0732422,0.3955078
		c0.3720703,0,0.6416016-0.1914062,0.6416016-0.4912109v-0.0126953c0-0.3115234-0.3657227-0.4316406-0.7734375-0.5449219
		c-0.4858398-0.1386719-1.0253906-0.3066406-1.0253906-0.8759766v-0.0117188c0-0.5341797,0.4438477-0.8876953,1.0556641-0.8876953
		c0.3774414,0,0.7973633,0.1318359,1.1152344,0.3417969l-0.2099609,0.3476562
		c-0.2875977-0.1855469-0.6176758-0.2998047-0.9174805-0.2998047c-0.3657227,0-0.5996094,0.1923828-0.5996094,0.4501953v0.0117188
		c0,0.2939453,0.3837891,0.4082031,0.7973633,0.5341797c0.4799805,0.1435547,0.9956055,0.3291016,0.9956055,0.8867188v0.0126953
		c0,0.5869141-0.4858398,0.9287109-1.1035156,0.9287109C166.2866211,31.0770683,165.7949219,30.9032402,165.4472656,30.6219902z"/>
	<path class="st0" d="M170.097168,28.930584v-0.0117188c0-1.1875,0.8876953-2.1708984,2.1230469-2.1708984
		c0.7612305,0,1.2172852,0.2695312,1.6367188,0.6650391l-0.3237305,0.3486328
		c-0.3535156-0.3359375-0.7495117-0.5761719-1.3193359-0.5761719c-0.9291992,0-1.625,0.7558594-1.625,1.7207031v0.0126953
		c0,0.9716797,0.7016602,1.7324219,1.625,1.7324219c0.5756836,0,0.9536133-0.2216797,1.3554688-0.6054688l0.3120117,0.3056641
		c-0.4379883,0.4443359-0.9174805,0.7382812-1.6791992,0.7382812
		C170.9907227,31.0897636,170.097168,30.1356621,170.097168,28.930584z"/>
	<path class="st0" d="M175.8632812,27.9169121h0.5097656l1.043457,2.5732422l1.0493164-2.5732422h0.4975586l-1.3491211,3.125
		h-0.4077148L175.8632812,27.9169121z"/>
	<path class="st0" d="M179.559082,26.7294121h0.5273438v0.5097656h-0.5273438V26.7294121z M179.5888672,27.9169121h0.4619141
		v3.1005859h-0.4619141V27.9169121z"/>
	<path class="st0" d="M180.980957,27.9169121h0.4619141v0.8095703c0.2280273-0.515625,0.6777344-0.8876953,1.2651367-0.8632812
		v0.4980469h-0.0356445c-0.6777344,0-1.2294922,0.4853516-1.2294922,1.4208984v1.2353516h-0.4619141V27.9169121z"/>
	<path class="st0" d="M183.21875,29.8417168v-1.9248047h0.4619141v1.8115234c0,0.5751953,0.3115234,0.9355469,0.8574219,0.9355469
		c0.527832,0,0.9291992-0.3896484,0.9291992-0.9716797v-1.7753906h0.4560547v3.1005859h-0.4560547V30.477459
		c-0.2094727,0.3359375-0.5273438,0.6064453-1.0610352,0.6064453C183.65625,31.0839043,183.21875,30.579998,183.21875,29.8417168z"
		/>
	<path class="st0" d="M186.5551758,30.6219902l0.2338867-0.3300781c0.3359375,0.2519531,0.7075195,0.3955078,1.0732422,0.3955078
		c0.3720703,0,0.6420898-0.1914062,0.6420898-0.4912109v-0.0126953c0-0.3115234-0.3662109-0.4316406-0.7739258-0.5449219
		c-0.4858398-0.1386719-1.0253906-0.3066406-1.0253906-0.8759766v-0.0117188c0-0.5341797,0.4438477-0.8876953,1.0556641-0.8876953
		c0.3774414,0,0.7973633,0.1318359,1.1152344,0.3417969l-0.2099609,0.3476562
		c-0.2875977-0.1855469-0.6176758-0.2998047-0.9174805-0.2998047c-0.3657227,0-0.5996094,0.1923828-0.5996094,0.4501953v0.0117188
		c0,0.2939453,0.3837891,0.4082031,0.7973633,0.5341797c0.4799805,0.1435547,0.9956055,0.3291016,0.9956055,0.8867188v0.0126953
		c0,0.5869141-0.4858398,0.9287109-1.1035156,0.9287109C187.3945312,31.0770683,186.902832,30.9032402,186.5551758,30.6219902z"/>
</g>
<g>
	<path class="st0" d="M0,35.2967949c0-1.1035156,0.59375-1.9667969,1.6611328-2.5673828l0.1977539,0.3066406
		c-0.9111328,0.5810547-1.3911133,1.3007812-1.3911133,2.2607422c0,0.9589844,0.4799805,1.6787109,1.3911133,2.2607422
		l-0.1977539,0.3056641C0.59375,37.2635918,0,36.4003105,0,35.2967949z"/>
	<path class="st0" d="M2.6459961,32.8202324h0.4736328v1.8642578h2.4228516v-1.8642578h0.4736328v4.1972656H5.5424805v-1.8886719
		H3.1196289v1.8886719H2.6459961V32.8202324z"/>
	<path class="st0" d="M6.8759766,34.930584v-0.0117188c0-1.1875,0.8876953-2.1708984,2.1230469-2.1708984
		c0.7612305,0,1.2172852,0.2695312,1.6367188,0.6650391l-0.3237305,0.3486328
		C9.9584961,33.4257011,9.5625,33.1854668,8.9926758,33.1854668c-0.9291992,0-1.625,0.7558594-1.625,1.7207031v0.0126953
		c0,0.9716797,0.7016602,1.7324219,1.625,1.7324219c0.5756836,0,0.9536133-0.2216797,1.3554688-0.6054688l0.3120117,0.3056641
		c-0.4379883,0.4443359-0.9174805,0.7382812-1.6791992,0.7382812C7.7695312,37.0897636,6.8759766,36.1356621,6.8759766,34.930584z"
		/>
	<path class="st0" d="M10.9799805,32.8202324h0.527832l1.4931641,3.6152344L14.5,32.8202324h0.5097656l-1.8051758,4.2275391
		h-0.4194336L10.9799805,32.8202324z"/>
	<path class="st0" d="M15.4321289,37.5575371c0.9111328-0.5820312,1.3911133-1.3017578,1.3911133-2.2607422
		c0-0.9599609-0.4799805-1.6796875-1.3911133-2.2607422l0.1977539-0.3066406
		c1.0673828,0.6005859,1.6611328,1.4638672,1.6611328,2.5673828s-0.59375,1.9667969-1.6611328,2.5664062L15.4321289,37.5575371z"/>
	<path class="st0" d="M19.7397461,32.7294121h0.5273438v0.5097656h-0.5273438V32.7294121z M19.7695312,33.9169121h0.4619141
		v3.1005859h-0.4619141V33.9169121z"/>
	<path class="st0" d="M21.1616211,33.9169121h0.4619141v0.5400391c0.2036133-0.3359375,0.527832-0.6054688,1.0615234-0.6054688
		c0.7495117,0,1.1870117,0.5039062,1.1870117,1.2412109v1.9248047h-0.4614258v-1.8105469
		c0-0.5761719-0.3120117-0.9355469-0.8579102-0.9355469c-0.5336914,0-0.9291992,0.3896484-0.9291992,0.9707031v1.7753906h-0.4619141
		V33.9169121z"/>
	<path class="st0" d="M24.8813477,34.3251152h-0.4257812v-0.4023438h0.4257812v-0.2695312
		c0-0.3535156,0.0961914-0.6240234,0.2700195-0.7978516c0.1557617-0.1552734,0.3837891-0.2392578,0.6655273-0.2392578
		c0.2158203,0,0.3598633,0.0234375,0.5097656,0.078125v0.4013672c-0.1679688-0.0478516-0.2939453-0.078125-0.449707-0.078125
		c-0.3598633,0-0.5395508,0.2158203-0.5395508,0.6601562v0.2519531h0.9833984v0.3955078h-0.9775391v2.6923828h-0.4619141V34.3251152
		z"/>
	<path class="st0" d="M26.5136719,35.4764824v-0.0117188c0-0.8935547,0.6298828-1.6132812,1.4873047-1.6132812
		c0.9174805,0,1.4453125,0.7314453,1.4453125,1.6367188c0,0.0605469,0,0.0957031-0.0063477,0.1503906h-2.4584961
		c0.065918,0.6708984,0.5395508,1.0488281,1.0913086,1.0488281c0.4257812,0,0.7255859-0.1738281,0.9775391-0.4375
		l0.2880859,0.2578125c-0.3120117,0.3476562-0.6899414,0.5820312-1.2773438,0.5820312
		C27.2094727,37.0897636,26.5136719,36.4354668,26.5136719,35.4764824z M28.9785156,35.2967949
		c-0.0478516-0.5644531-0.3720703-1.0556641-0.9897461-1.0556641c-0.5395508,0-0.9472656,0.4492188-1.0073242,1.0556641H28.9785156z
		"/>
	<path class="st0" d="M29.9155273,35.4823418V35.470623c0-0.8759766,0.6835938-1.6191406,1.5893555-1.6191406
		c0.5874023,0,0.953125,0.2460938,1.2412109,0.5517578l-0.3056641,0.3232422
		c-0.2460938-0.2578125-0.5219727-0.4677734-0.9418945-0.4677734c-0.6293945,0-1.109375,0.5341797-1.109375,1.1992188v0.0126953
		c0,0.6708984,0.4916992,1.2050781,1.1396484,1.2050781c0.3955078,0,0.7016602-0.1982422,0.9472656-0.4619141l0.2939453,0.2763672
		c-0.3120117,0.3476562-0.6835938,0.5996094-1.2651367,0.5996094
		C30.5991211,37.0897636,29.9155273,36.3514824,29.9155273,35.4823418z"/>
	<path class="st0" d="M33.5517578,36.196209v-1.8710938h-0.4316406v-0.4082031h0.4316406v-0.9355469h0.4614258v0.9355469h0.9838867
		v0.4082031h-0.9838867v1.8105469c0,0.3779297,0.2099609,0.515625,0.5219727,0.515625
		c0.1557617,0,0.2875977-0.0292969,0.449707-0.1074219v0.3955078c-0.1621094,0.0839844-0.3359375,0.1318359-0.5576172,0.1318359
		C33.9291992,37.071209,33.5517578,36.8260918,33.5517578,36.196209z"/>
	<path class="st0" d="M35.6816406,32.7294121h0.527832v0.5097656h-0.527832V32.7294121z M35.7114258,33.9169121h0.4619141v3.1005859
		h-0.4619141V33.9169121z"/>
	<path class="st0" d="M36.9116211,35.4823418V35.470623c0-0.8759766,0.6835938-1.6191406,1.6191406-1.6191406
		c0.9296875,0,1.6132812,0.7314453,1.6132812,1.6064453v0.0126953c0,0.875-0.6899414,1.6191406-1.625,1.6191406
		C37.5893555,37.0897636,36.9116211,36.3583183,36.9116211,35.4823418z M39.6704102,35.4823418V35.470623
		c0-0.6660156-0.4980469-1.2119141-1.1513672-1.2119141c-0.671875,0-1.1337891,0.5458984-1.1337891,1.1992188v0.0126953
		c0,0.6650391,0.4916992,1.2050781,1.1455078,1.2050781C39.2026367,36.6757011,39.6704102,36.1356621,39.6704102,35.4823418z"/>
	<path class="st0" d="M40.8354492,33.9169121h0.4619141v0.5400391c0.2036133-0.3359375,0.527832-0.6054688,1.0615234-0.6054688
		c0.7495117,0,1.1870117,0.5039062,1.1870117,1.2412109v1.9248047h-0.4614258v-1.8105469
		c0-0.5761719-0.3120117-0.9355469-0.8579102-0.9355469c-0.5336914,0-0.9291992,0.3896484-0.9291992,0.9707031v1.7753906h-0.4619141
		V33.9169121z"/>
	<path class="st0" d="M46.0493164,32.7294121h0.5273438v0.5097656h-0.5273438V32.7294121z M46.0791016,33.9169121h0.4619141
		v3.1005859h-0.4619141V33.9169121z"/>
	<path class="st0" d="M47.4711914,33.9169121h0.4619141v0.5400391c0.2036133-0.3359375,0.527832-0.6054688,1.0615234-0.6054688
		c0.7495117,0,1.1870117,0.5039062,1.1870117,1.2412109v1.9248047h-0.4614258v-1.8105469
		c0-0.5761719-0.3120117-0.9355469-0.8579102-0.9355469c-0.5336914,0-0.9291992,0.3896484-0.9291992,0.9707031v1.7753906h-0.4619141
		V33.9169121z"/>
	<path class="st0" d="M52.4389648,36.118084v-0.0117188c0-0.6542969,0.5400391-1.0019531,1.3251953-1.0019531
		c0.3959961,0,0.6777344,0.0537109,0.9536133,0.1318359v-0.1074219c0-0.5576172-0.3417969-0.8457031-0.9233398-0.8457031
		c-0.3657227,0-0.6538086,0.0957031-0.9414062,0.2275391l-0.1381836-0.3779297
		c0.3417969-0.1552734,0.6777344-0.2578125,1.1274414-0.2578125c0.4379883,0,0.7734375,0.1142578,1.0014648,0.3417969
		c0.2099609,0.2099609,0.3178711,0.5097656,0.3178711,0.90625v1.8945312h-0.4438477v-0.4677734
		c-0.2158203,0.2822266-0.5756836,0.5341797-1.121582,0.5341797C53.0209961,37.0839043,52.4389648,36.7538261,52.4389648,36.118084z
		 M54.7236328,35.8778496v-0.2998047c-0.2275391-0.0654297-0.5336914-0.1318359-0.9111328-0.1318359
		c-0.5820312,0-0.9057617,0.2519531-0.9057617,0.6416016v0.0117188c0,0.390625,0.3598633,0.6181641,0.7797852,0.6181641
		C54.2558594,36.7176933,54.7236328,36.3700371,54.7236328,35.8778496z"/>
	<path class="st0" d="M55.8173828,35.4764824v-0.0117188c0-1.0136719,0.7373047-1.6132812,1.480957-1.6132812
		c0.5756836,0,0.9477539,0.3115234,1.1875,0.6591797v-1.8710938h0.4619141v4.3779297h-0.4619141v-0.6240234
		c-0.2519531,0.3720703-0.6176758,0.6904297-1.1875,0.6904297C56.5546875,37.0839043,55.8173828,36.4960136,55.8173828,35.4764824z
		 M58.5039062,35.470623v-0.0126953c0-0.7128906-0.5458984-1.1933594-1.121582-1.1933594
		c-0.5996094,0-1.0913086,0.4443359-1.0913086,1.1933594v0.0126953c0,0.7314453,0.5039062,1.1992188,1.0913086,1.1992188
		C57.9580078,36.6698418,58.5039062,36.1835136,58.5039062,35.470623z"/>
	<path class="st0" d="M59.7890625,35.8417168v-1.9248047h0.4619141v1.8115234c0,0.5751953,0.3115234,0.9355469,0.8574219,0.9355469
		c0.527832,0,0.9291992-0.3896484,0.9291992-0.9716797v-1.7753906h0.4560547v3.1005859h-0.4560547V36.477459
		c-0.2094727,0.3359375-0.5273438,0.6064453-1.0610352,0.6064453C60.2265625,37.0839043,59.7890625,36.579998,59.7890625,35.8417168
		z"/>
	<path class="st0" d="M63.4248047,32.6395683h0.4619141v4.3779297h-0.4619141V32.6395683z"/>
	<path class="st0" d="M64.9790039,36.196209v-1.8710938h-0.4316406v-0.4082031h0.4316406v-0.9355469h0.4614258v0.9355469h0.9838867
		v0.4082031h-0.9838867v1.8105469c0,0.3779297,0.2099609,0.515625,0.5219727,0.515625
		c0.1557617,0,0.2875977-0.0292969,0.449707-0.1074219v0.3955078C66.25,37.0233574,66.0761719,37.071209,65.8544922,37.071209
		C65.3569336,37.071209,64.9790039,36.8260918,64.9790039,36.196209z"/>
	<path class="st0" d="M66.8388672,36.6219902l0.2338867-0.3300781c0.3359375,0.2519531,0.7075195,0.3955078,1.0732422,0.3955078
		c0.3720703,0,0.6416016-0.1914062,0.6416016-0.4912109v-0.0126953c0-0.3115234-0.3657227-0.4316406-0.7734375-0.5449219
		c-0.4858398-0.1386719-1.0253906-0.3066406-1.0253906-0.8759766v-0.0117188c0-0.5341797,0.4438477-0.8876953,1.0556641-0.8876953
		c0.3774414,0,0.7973633,0.1318359,1.1152344,0.3417969l-0.2099609,0.3476562
		c-0.2875977-0.1855469-0.6176758-0.2998047-0.9174805-0.2998047c-0.3657227,0-0.5996094,0.1923828-0.5996094,0.4501953v0.0117188
		c0,0.2939453,0.3837891,0.4082031,0.7973633,0.5341797c0.4799805,0.1435547,0.9956055,0.3291016,0.9956055,0.8867188v0.0126953
		c0,0.5869141-0.4858398,0.9287109-1.1035156,0.9287109C67.6782227,37.0770683,67.1865234,36.9032402,66.8388672,36.6219902z"/>
	<path class="st0" d="M69.8803711,36.3876152h0.5517578v0.6298828h-0.5517578V36.3876152z"/>
	<path class="st0" d="M72.9946289,32.8202324h3.0161133v0.4375h-2.5424805v1.4990234h2.2729492v0.4316406h-2.2729492v1.8291016
		h-0.4736328V32.8202324z"/>
	<path class="st0" d="M76.4267578,35.4823418V35.470623c0-0.8759766,0.6835938-1.6191406,1.6191406-1.6191406
		c0.9296875,0,1.6132812,0.7314453,1.6132812,1.6064453v0.0126953c0,0.875-0.6899414,1.6191406-1.625,1.6191406
		C77.1044922,37.0897636,76.4267578,36.3583183,76.4267578,35.4823418z M79.1855469,35.4823418V35.470623
		c0-0.6660156-0.4980469-1.2119141-1.1513672-1.2119141c-0.671875,0-1.1337891,0.5458984-1.1337891,1.1992188v0.0126953
		c0,0.6650391,0.4916992,1.2050781,1.1455078,1.2050781C78.7177734,36.6757011,79.1855469,36.1356621,79.1855469,35.4823418z"/>
	<path class="st0" d="M80.3505859,33.9169121H80.8125v0.8095703c0.2280273-0.515625,0.6777344-0.8876953,1.2651367-0.8632812
		v0.4980469h-0.0361328c-0.6772461,0-1.2290039,0.4853516-1.2290039,1.4208984v1.2353516h-0.4619141V33.9169121z"/>
	<path class="st0" d="M84.3706055,32.8202324h3.0341797v0.4316406h-2.5605469v1.4326172h2.2910156v0.4316406h-2.2910156v1.4697266
		h2.5908203v0.4316406h-3.0644531V32.8202324z"/>
	<path class="st0" d="M88.1743164,35.2606621v-2.4404297h0.4736328v2.4101562c0,0.9052734,0.4794922,1.4150391,1.2832031,1.4150391
		c0.7734375,0,1.265625-0.4677734,1.265625-1.3847656v-2.4404297h0.4736328v2.4042969
		c0,1.2236328-0.7016602,1.859375-1.7509766,1.859375C88.8818359,37.0839043,88.1743164,36.4481621,88.1743164,35.2606621z"/>
	<path class="st0" d="M94.3061523,32.8202324h0.4736328v1.8642578h2.4228516v-1.8642578h0.4736328v4.1972656h-0.4736328v-1.8886719
		h-2.4228516v1.8886719h-0.4736328V32.8202324z"/>
	<path class="st0" d="M98.4462891,35.4764824v-0.0117188c0-0.8935547,0.6298828-1.6132812,1.4873047-1.6132812
		c0.9174805,0,1.4453125,0.7314453,1.4453125,1.6367188c0,0.0605469,0,0.0957031-0.0063477,0.1503906h-2.4584961
		c0.065918,0.6708984,0.5395508,1.0488281,1.0913086,1.0488281c0.4257812,0,0.7255859-0.1738281,0.9775391-0.4375
		l0.2880859,0.2578125c-0.3120117,0.3476562-0.6899414,0.5820312-1.2773438,0.5820312
		C99.1420898,37.0897636,98.4462891,36.4354668,98.4462891,35.4764824z M100.9111328,35.2967949
		c-0.0478516-0.5644531-0.3720703-1.0556641-0.9897461-1.0556641c-0.5395508,0-0.9472656,0.4492188-1.0073242,1.0556641H100.9111328
		z"/>
	<path class="st0" d="M101.8061523,36.118084v-0.0117188c0-0.6542969,0.5400391-1.0019531,1.3251953-1.0019531
		c0.3959961,0,0.6777344,0.0537109,0.9536133,0.1318359v-0.1074219c0-0.5576172-0.3417969-0.8457031-0.9233398-0.8457031
		c-0.3657227,0-0.6538086,0.0957031-0.9414062,0.2275391l-0.1381836-0.3779297
		c0.3417969-0.1552734,0.6777344-0.2578125,1.1274414-0.2578125c0.4379883,0,0.7734375,0.1142578,1.0014648,0.3417969
		c0.2099609,0.2099609,0.3178711,0.5097656,0.3178711,0.90625v1.8945312h-0.4438477v-0.4677734
		c-0.2158203,0.2822266-0.5756836,0.5341797-1.121582,0.5341797
		C102.3881836,37.0839043,101.8061523,36.7538261,101.8061523,36.118084z M104.0908203,35.8778496v-0.2998047
		c-0.2275391-0.0654297-0.5336914-0.1318359-0.9111328-0.1318359c-0.5820312,0-0.9057617,0.2519531-0.9057617,0.6416016v0.0117188
		c0,0.390625,0.3598633,0.6181641,0.7797852,0.6181641C103.6230469,36.7176933,104.0908203,36.3700371,104.0908203,35.8778496z"/>
	<path class="st0" d="M105.4121094,32.6395683h0.4619141v4.3779297h-0.4619141V32.6395683z"/>
	<path class="st0" d="M106.9663086,36.196209v-1.8710938h-0.4316406v-0.4082031h0.4316406v-0.9355469h0.4614258v0.9355469h0.9838867
		v0.4082031h-0.9838867v1.8105469c0,0.3779297,0.2099609,0.515625,0.5219727,0.515625
		c0.1557617,0,0.2875977-0.0292969,0.449707-0.1074219v0.3955078c-0.1621094,0.0839844-0.3359375,0.1318359-0.5576172,0.1318359
		C107.3442383,37.071209,106.9663086,36.8260918,106.9663086,36.196209z"/>
	<path class="st0" d="M109.0839844,32.6395683h0.4619141v1.8173828c0.2036133-0.3359375,0.527832-0.6054688,1.0615234-0.6054688
		c0.7495117,0,1.1870117,0.5039062,1.1870117,1.2412109v1.9248047h-0.4614258v-1.8105469
		c0-0.5761719-0.3120117-0.9355469-0.8579102-0.9355469c-0.5336914,0-0.9291992,0.3896484-0.9291992,0.9707031v1.7753906h-0.4619141
		V32.6395683z"/>
	<path class="st0" d="M112.4379883,35.4823418V35.470623c0-0.8759766,0.6835938-1.6191406,1.5893555-1.6191406
		c0.5874023,0,0.953125,0.2460938,1.2412109,0.5517578l-0.3056641,0.3232422
		c-0.2460938-0.2578125-0.5219727-0.4677734-0.9418945-0.4677734c-0.6293945,0-1.109375,0.5341797-1.109375,1.1992188v0.0126953
		c0,0.6708984,0.4916992,1.2050781,1.1396484,1.2050781c0.3955078,0,0.7016602-0.1982422,0.9472656-0.4619141l0.2939453,0.2763672
		c-0.3120117,0.3476562-0.6835938,0.5996094-1.2651367,0.5996094
		C113.121582,37.0897636,112.4379883,36.3514824,112.4379883,35.4823418z"/>
	<path class="st0" d="M115.6782227,36.118084v-0.0117188c0-0.6542969,0.5400391-1.0019531,1.3251953-1.0019531
		c0.3959961,0,0.6777344,0.0537109,0.9536133,0.1318359v-0.1074219c0-0.5576172-0.3417969-0.8457031-0.9233398-0.8457031
		c-0.3657227,0-0.6538086,0.0957031-0.9414062,0.2275391l-0.1381836-0.3779297
		c0.3417969-0.1552734,0.6777344-0.2578125,1.1274414-0.2578125c0.4379883,0,0.7734375,0.1142578,1.0014648,0.3417969
		c0.2099609,0.2099609,0.3178711,0.5097656,0.3178711,0.90625v1.8945312h-0.4438477v-0.4677734
		c-0.2158203,0.2822266-0.5756836,0.5341797-1.121582,0.5341797
		C116.2602539,37.0839043,115.6782227,36.7538261,115.6782227,36.118084z M117.9628906,35.8778496v-0.2998047
		c-0.2275391-0.0654297-0.5336914-0.1318359-0.9111328-0.1318359c-0.5820312,0-0.9057617,0.2519531-0.9057617,0.6416016v0.0117188
		c0,0.390625,0.3598633,0.6181641,0.7797852,0.6181641C117.4951172,36.7176933,117.9628906,36.3700371,117.9628906,35.8778496z"/>
	<path class="st0" d="M119.2416992,33.9169121h0.4619141v0.8095703c0.2280273-0.515625,0.6777344-0.8876953,1.2651367-0.8632812
		v0.4980469h-0.0356445c-0.6777344,0-1.2294922,0.4853516-1.2294922,1.4208984v1.2353516h-0.4619141V33.9169121z"/>
	<path class="st0" d="M121.1977539,35.4764824v-0.0117188c0-0.8935547,0.6298828-1.6132812,1.4873047-1.6132812
		c0.9174805,0,1.4453125,0.7314453,1.4453125,1.6367188c0,0.0605469,0,0.0957031-0.0063477,0.1503906h-2.4584961
		c0.065918,0.6708984,0.5395508,1.0488281,1.0913086,1.0488281c0.4257812,0,0.7255859-0.1738281,0.9775391-0.4375
		l0.2880859,0.2578125c-0.3120117,0.3476562-0.6899414,0.5820312-1.2773438,0.5820312
		C121.8935547,37.0897636,121.1977539,36.4354668,121.1977539,35.4764824z M123.6625977,35.2967949
		c-0.0478516-0.5644531-0.3720703-1.0556641-0.9897461-1.0556641c-0.5395508,0-0.9472656,0.4492188-1.0073242,1.0556641H123.6625977
		z"/>
	<path class="st0" d="M126.5317383,32.8202324h1.5712891c0.9472656,0,1.5708008,0.5029297,1.5708008,1.3310547v0.0117188
		c0,0.9052734-0.7553711,1.3730469-1.6489258,1.3730469h-1.0195312v1.4814453h-0.4736328V32.8202324z M128.0429688,35.1044121
		c0.6953125,0,1.1513672-0.3720703,1.1513672-0.9238281v-0.0117188c0-0.5996094-0.449707-0.9111328-1.1274414-0.9111328h-1.0615234
		v1.8466797H128.0429688z"/>
	<path class="st0" d="M130.3178711,33.9169121h0.4619141v0.8095703c0.2280273-0.515625,0.6777344-0.8876953,1.2651367-0.8632812
		v0.4980469h-0.0356445c-0.6777344,0-1.2294922,0.4853516-1.2294922,1.4208984v1.2353516h-0.4619141V33.9169121z"/>
	<path class="st0" d="M132.2739258,35.4823418V35.470623c0-0.8759766,0.6835938-1.6191406,1.6191406-1.6191406
		c0.9296875,0,1.6132812,0.7314453,1.6132812,1.6064453v0.0126953c0,0.875-0.6899414,1.6191406-1.625,1.6191406
		C132.9516602,37.0897636,132.2739258,36.3583183,132.2739258,35.4823418z M135.0327148,35.4823418V35.470623
		c0-0.6660156-0.4980469-1.2119141-1.1513672-1.2119141c-0.671875,0-1.1337891,0.5458984-1.1337891,1.1992188v0.0126953
		c0,0.6650391,0.4916992,1.2050781,1.1455078,1.2050781C134.5649414,36.6757011,135.0327148,36.1356621,135.0327148,35.4823418z"/>
	<path class="st0" d="M136.371582,34.3251152h-0.4257812v-0.4023438h0.4257812v-0.2695312
		c0-0.3535156,0.0961914-0.6240234,0.2700195-0.7978516c0.1557617-0.1552734,0.3837891-0.2392578,0.6655273-0.2392578
		c0.2158203,0,0.3598633,0.0234375,0.5097656,0.078125v0.4013672c-0.1679688-0.0478516-0.2939453-0.078125-0.449707-0.078125
		c-0.3598633,0-0.5395508,0.2158203-0.5395508,0.6601562v0.2519531h0.9833984v0.3955078h-0.9775391v2.6923828h-0.4619141V34.3251152
		z"/>
	<path class="st0" d="M138.0039062,35.4764824v-0.0117188c0-0.8935547,0.6298828-1.6132812,1.4873047-1.6132812
		c0.9174805,0,1.4453125,0.7314453,1.4453125,1.6367188c0,0.0605469,0,0.0957031-0.0063477,0.1503906h-2.4584961
		c0.065918,0.6708984,0.5395508,1.0488281,1.0913086,1.0488281c0.4257812,0,0.7255859-0.1738281,0.9775391-0.4375
		l0.2880859,0.2578125c-0.3120117,0.3476562-0.6899414,0.5820312-1.2773438,0.5820312
		C138.699707,37.0897636,138.0039062,36.4354668,138.0039062,35.4764824z M140.46875,35.2967949
		c-0.0478516-0.5644531-0.3720703-1.0556641-0.9897461-1.0556641c-0.5395508,0-0.9472656,0.4492188-1.0073242,1.0556641H140.46875z"
		/>
	<path class="st0" d="M141.3457031,36.6219902l0.2338867-0.3300781c0.3359375,0.2519531,0.7075195,0.3955078,1.0732422,0.3955078
		c0.3720703,0,0.6416016-0.1914062,0.6416016-0.4912109v-0.0126953c0-0.3115234-0.3657227-0.4316406-0.7734375-0.5449219
		c-0.4858398-0.1386719-1.0253906-0.3066406-1.0253906-0.8759766v-0.0117188c0-0.5341797,0.4438477-0.8876953,1.0556641-0.8876953
		c0.3774414,0,0.7973633,0.1318359,1.1152344,0.3417969l-0.2099609,0.3476562
		c-0.2875977-0.1855469-0.6176758-0.2998047-0.9174805-0.2998047c-0.3657227,0-0.5996094,0.1923828-0.5996094,0.4501953v0.0117188
		c0,0.2939453,0.3837891,0.4082031,0.7973633,0.5341797c0.4799805,0.1435547,0.9956055,0.3291016,0.9956055,0.8867188v0.0126953
		c0,0.5869141-0.4858398,0.9287109-1.1035156,0.9287109C142.1850586,37.0770683,141.6933594,36.9032402,141.3457031,36.6219902z"/>
	<path class="st0" d="M144.1298828,36.6219902l0.2338867-0.3300781c0.3359375,0.2519531,0.7075195,0.3955078,1.0732422,0.3955078
		c0.3720703,0,0.6416016-0.1914062,0.6416016-0.4912109v-0.0126953c0-0.3115234-0.3657227-0.4316406-0.7734375-0.5449219
		c-0.4858398-0.1386719-1.0253906-0.3066406-1.0253906-0.8759766v-0.0117188c0-0.5341797,0.4438477-0.8876953,1.0556641-0.8876953
		c0.3774414,0,0.7973633,0.1318359,1.1152344,0.3417969l-0.2099609,0.3476562
		c-0.2875977-0.1855469-0.6176758-0.2998047-0.9174805-0.2998047c-0.3657227,0-0.5996094,0.1923828-0.5996094,0.4501953v0.0117188
		c0,0.2939453,0.3837891,0.4082031,0.7973633,0.5341797c0.4799805,0.1435547,0.9956055,0.3291016,0.9956055,0.8867188v0.0126953
		c0,0.5869141-0.4858398,0.9287109-1.1035156,0.9287109C144.9692383,37.0770683,144.4775391,36.9032402,144.1298828,36.6219902z"/>
	<path class="st0" d="M147.2436523,32.7294121h0.5273438v0.5097656h-0.5273438V32.7294121z M147.2734375,33.9169121h0.4619141
		v3.1005859h-0.4619141V33.9169121z"/>
	<path class="st0" d="M148.4736328,35.4823418V35.470623c0-0.8759766,0.6835938-1.6191406,1.6191406-1.6191406
		c0.9296875,0,1.6132812,0.7314453,1.6132812,1.6064453v0.0126953c0,0.875-0.6899414,1.6191406-1.625,1.6191406
		C149.1513672,37.0897636,148.4736328,36.3583183,148.4736328,35.4823418z M151.2324219,35.4823418V35.470623
		c0-0.6660156-0.4980469-1.2119141-1.1513672-1.2119141c-0.671875,0-1.1337891,0.5458984-1.1337891,1.1992188v0.0126953
		c0,0.6650391,0.4916992,1.2050781,1.1455078,1.2050781C150.7646484,36.6757011,151.2324219,36.1356621,151.2324219,35.4823418z"/>
	<path class="st0" d="M152.3974609,33.9169121h0.4619141v0.5400391c0.2036133-0.3359375,0.527832-0.6054688,1.0615234-0.6054688
		c0.7495117,0,1.1870117,0.5039062,1.1870117,1.2412109v1.9248047h-0.4614258v-1.8105469
		c0-0.5761719-0.3120117-0.9355469-0.8579102-0.9355469c-0.5336914,0-0.9291992,0.3896484-0.9291992,0.9707031v1.7753906h-0.4619141
		V33.9169121z"/>
	<path class="st0" d="M155.715332,36.118084v-0.0117188c0-0.6542969,0.5400391-1.0019531,1.3251953-1.0019531
		c0.3959961,0,0.6777344,0.0537109,0.9536133,0.1318359v-0.1074219c0-0.5576172-0.3417969-0.8457031-0.9233398-0.8457031
		c-0.3657227,0-0.6538086,0.0957031-0.9414062,0.2275391l-0.1381836-0.3779297
		c0.3417969-0.1552734,0.6777344-0.2578125,1.1274414-0.2578125c0.4379883,0,0.7734375,0.1142578,1.0014648,0.3417969
		c0.2099609,0.2099609,0.3178711,0.5097656,0.3178711,0.90625v1.8945312h-0.4438477v-0.4677734
		c-0.2158203,0.2822266-0.5756836,0.5341797-1.121582,0.5341797C156.2973633,37.0839043,155.715332,36.7538261,155.715332,36.118084
		z M158,35.8778496v-0.2998047c-0.2275391-0.0654297-0.5336914-0.1318359-0.9111328-0.1318359
		c-0.5820312,0-0.9057617,0.2519531-0.9057617,0.6416016v0.0117188c0,0.390625,0.3598633,0.6181641,0.7797852,0.6181641
		C157.5322266,36.7176933,158,36.3700371,158,35.8778496z"/>
	<path class="st0" d="M159.3154297,32.6395683h0.4619141v4.3779297h-0.4619141V32.6395683z"/>
	<path class="st0" d="M160.4492188,36.6219902l0.2338867-0.3300781c0.3359375,0.2519531,0.7075195,0.3955078,1.0732422,0.3955078
		c0.3720703,0,0.6416016-0.1914062,0.6416016-0.4912109v-0.0126953c0-0.3115234-0.3657227-0.4316406-0.7734375-0.5449219
		c-0.4858398-0.1386719-1.0253906-0.3066406-1.0253906-0.8759766v-0.0117188c0-0.5341797,0.4438477-0.8876953,1.0556641-0.8876953
		c0.3774414,0,0.7973633,0.1318359,1.1152344,0.3417969l-0.2099609,0.3476562
		c-0.2875977-0.1855469-0.6176758-0.2998047-0.9174805-0.2998047c-0.3657227,0-0.5996094,0.1923828-0.5996094,0.4501953v0.0117188
		c0,0.2939453,0.3837891,0.4082031,0.7973633,0.5341797c0.4799805,0.1435547,0.9956055,0.3291016,0.9956055,0.8867188v0.0126953
		c0,0.5869141-0.4858398,0.9287109-1.1035156,0.9287109C161.2885742,37.0770683,160.796875,36.9032402,160.4492188,36.6219902z"/>
	<path class="st0" d="M165.0151367,35.4823418V35.470623c0-0.8759766,0.6835938-1.6191406,1.6191406-1.6191406
		c0.9296875,0,1.6132812,0.7314453,1.6132812,1.6064453v0.0126953c0,0.875-0.6899414,1.6191406-1.625,1.6191406
		C165.6928711,37.0897636,165.0151367,36.3583183,165.0151367,35.4823418z M167.7739258,35.4823418V35.470623
		c0-0.6660156-0.4980469-1.2119141-1.1513672-1.2119141c-0.671875,0-1.1337891,0.5458984-1.1337891,1.1992188v0.0126953
		c0,0.6650391,0.4916992,1.2050781,1.1455078,1.2050781C167.3061523,36.6757011,167.7739258,36.1356621,167.7739258,35.4823418z"/>
	<path class="st0" d="M168.9389648,33.9169121h0.4619141v0.5400391c0.2036133-0.3359375,0.527832-0.6054688,1.0615234-0.6054688
		c0.7495117,0,1.1870117,0.5039062,1.1870117,1.2412109v1.9248047h-0.4614258v-1.8105469
		c0-0.5761719-0.3120117-0.9355469-0.8579102-0.9355469c-0.5336914,0-0.9291992,0.3896484-0.9291992,0.9707031v1.7753906h-0.4619141
		V33.9169121z"/>
	<path class="st0" d="M172.5332031,32.6395683h0.4619141v4.3779297h-0.4619141V32.6395683z"/>
	<path class="st0" d="M176.2456055,33.9169121h0.4916992l-1.3012695,3.2021484
		c-0.2636719,0.6416016-0.5634766,0.8759766-1.03125,0.8759766c-0.2578125,0-0.449707-0.0537109-0.659668-0.15625
		l0.1557617-0.3652344c0.1499023,0.078125,0.2880859,0.1132812,0.4858398,0.1132812
		c0.2758789,0,0.449707-0.1435547,0.6357422-0.5810547l-1.4091797-3.0888672h0.5092773L175.25,36.501873L176.2456055,33.9169121z"/>
	<path class="st0" d="M176.7568359,36.3876152h0.5517578v0.6298828h-0.5517578V36.3876152z"/>
</g>
<g>
	<path class="st0" d="M0.1860352,38.8202324h3.0341797v0.4316406H0.659668v1.4326172h2.2910156v0.4316406H0.659668v1.4697266
		h2.5908203v0.4316406H0.1860352V38.8202324z"/>
	<path class="st0" d="M4.0620117,38.8202324h1.5712891c0.9472656,0,1.5708008,0.5029297,1.5708008,1.3310547v0.0117188
		c0,0.9052734-0.7553711,1.3730469-1.6489258,1.3730469H4.5356445v1.4814453H4.0620117V38.8202324z M5.5732422,41.1044121
		c0.6953125,0,1.1513672-0.3720703,1.1513672-0.9238281v-0.0117188c0-0.5996094-0.449707-0.9111328-1.1274414-0.9111328H4.5356445
		v1.8466797H5.5732422z"/>
	<path class="st0" d="M7.7397461,40.930584v-0.0117188c0-1.1875,0.8876953-2.1708984,2.1230469-2.1708984
		c0.7612305,0,1.2172852,0.2695312,1.6367188,0.6650391l-0.3237305,0.3486328
		c-0.3535156-0.3359375-0.7495117-0.5761719-1.3193359-0.5761719c-0.9291992,0-1.625,0.7558594-1.625,1.7207031v0.0126953
		c0,0.9716797,0.7016602,1.7324219,1.625,1.7324219c0.5756836,0,0.9536133-0.2216797,1.3554688-0.6054688l0.3120117,0.3056641
		c-0.4379883,0.4443359-0.9174805,0.7382812-1.6791992,0.7382812C8.6333008,43.0897636,7.7397461,42.1356621,7.7397461,40.930584z"
		/>
	<path class="st0" d="M12.2338867,38.8202324h0.4736328v3.7597656h2.362793v0.4375h-2.8364258V38.8202324z"/>
	<path class="st0" d="M15.6181641,41.2606621v-2.4404297h0.4736328v2.4101562c0,0.9052734,0.4794922,1.4150391,1.2832031,1.4150391
		c0.7734375,0,1.2651367-0.4677734,1.2651367-1.3847656v-2.4404297h0.4741211v2.4042969
		c0,1.2236328-0.7016602,1.859375-1.7509766,1.859375C16.3256836,43.0839043,15.6181641,42.4481621,15.6181641,41.2606621z"/>
	<path class="st0" d="M19.8178711,42.4061699l0.2939453-0.3476562c0.4375,0.3955078,0.8574219,0.5927734,1.4389648,0.5927734
		c0.5639648,0,0.9355469-0.2998047,0.9355469-0.7128906v-0.0126953c0-0.3896484-0.2099609-0.6113281-1.0913086-0.796875
		c-0.965332-0.2099609-1.4091797-0.5224609-1.4091797-1.2119141v-0.0117188c0-0.6591797,0.581543-1.1455078,1.3789062-1.1455078
		c0.6118164,0,1.0498047,0.1738281,1.4755859,0.515625l-0.2758789,0.3662109
		c-0.3901367-0.3183594-0.7797852-0.4560547-1.2114258-0.4560547c-0.5458984,0-0.8935547,0.2998047-0.8935547,0.6777344v0.0117188
		c0,0.3964844,0.2158203,0.6181641,1.1391602,0.8154297c0.9355469,0.2041016,1.3676758,0.5458984,1.3676758,1.1875v0.0126953
		c0,0.71875-0.6000977,1.1865234-1.4335938,1.1865234C20.8671875,43.0770683,20.3217773,42.8553886,19.8178711,42.4061699z"/>
	<path class="st0" d="M25.2529297,38.789959h0.4438477l1.9125977,4.2275391h-0.5097656l-0.4916992-1.109375h-2.284668
		l-0.4975586,1.109375h-0.4858398L25.2529297,38.789959z M26.4223633,41.4823418l-0.9536133-2.140625l-0.9594727,2.140625
		H26.4223633z"/>
	<path class="st0" d="M29.8676758,39.9169121h0.4619141v0.5224609c0.2036133-0.3066406,0.4794922-0.5878906,1.0014648-0.5878906
		c0.503418,0,0.8276367,0.2695312,0.9956055,0.6171875c0.2216797-0.3417969,0.5512695-0.6171875,1.0913086-0.6171875
		c0.7133789,0,1.1513672,0.4794922,1.1513672,1.2470703v1.9189453h-0.4619141v-1.8105469
		c0-0.6005859-0.2998047-0.9355469-0.8037109-0.9355469c-0.4677734,0-0.8574219,0.3476562-0.8574219,0.9589844v1.7871094h-0.4555664
		v-1.8232422c0-0.5810547-0.3061523-0.9228516-0.7978516-0.9228516s-0.8632812,0.4072266-0.8632812,0.9775391v1.7685547h-0.4619141
		V39.9169121z"/>
	<path class="st0" d="M35.1777344,42.118084v-0.0117188c0-0.6542969,0.5400391-1.0019531,1.3251953-1.0019531
		c0.3959961,0,0.6777344,0.0537109,0.9536133,0.1318359v-0.1074219c0-0.5576172-0.3417969-0.8457031-0.9233398-0.8457031
		c-0.3657227,0-0.6538086,0.0957031-0.9414062,0.2275391l-0.1381836-0.3779297
		c0.3417969-0.1552734,0.6777344-0.2578125,1.1274414-0.2578125c0.4379883,0,0.7734375,0.1142578,1.0014648,0.3417969
		c0.2099609,0.2099609,0.3178711,0.5097656,0.3178711,0.90625v1.8945312H37.456543v-0.4677734
		c-0.2158203,0.2822266-0.5756836,0.5341797-1.1210938,0.5341797C35.7592773,43.0839043,35.1777344,42.7538261,35.1777344,42.118084
		z M37.4624023,41.8778496v-0.2998047c-0.2275391-0.0654297-0.5336914-0.1318359-0.9111328-0.1318359
		c-0.5820312,0-0.9057617,0.2519531-0.9057617,0.6416016v0.0117188c0,0.390625,0.3598633,0.6181641,0.7797852,0.6181641
		C36.9946289,42.7176933,37.4624023,42.3700371,37.4624023,41.8778496z"/>
	<path class="st0" d="M40.9365234,39.9169121h0.4916992l-1.3012695,3.2021484
		c-0.2636719,0.6416016-0.5634766,0.8759766-1.03125,0.8759766c-0.2578125,0-0.449707-0.0537109-0.659668-0.15625
		l0.1557617-0.3652344c0.1499023,0.078125,0.2880859,0.1132812,0.4858398,0.1132812
		c0.2758789,0,0.449707-0.1435547,0.6357422-0.5810547l-1.4091797-3.0888672h0.5092773l1.1274414,2.5849609L40.9365234,39.9169121z"
		/>
	<path class="st0" d="M43.6733398,38.6395683h0.4619141v1.8173828c0.2036133-0.3359375,0.527832-0.6054688,1.0615234-0.6054688
		c0.7495117,0,1.1870117,0.5039062,1.1870117,1.2412109v1.9248047h-0.4614258v-1.8105469
		c0-0.5761719-0.3120117-0.9355469-0.8579102-0.9355469c-0.5336914,0-0.9291992,0.3896484-0.9291992,0.9707031v1.7753906h-0.4619141
		V38.6395683z"/>
	<path class="st0" d="M46.9853516,42.118084v-0.0117188c0-0.6542969,0.5400391-1.0019531,1.3251953-1.0019531
		c0.3959961,0,0.6777344,0.0537109,0.9536133,0.1318359v-0.1074219c0-0.5576172-0.3417969-0.8457031-0.9233398-0.8457031
		c-0.3657227,0-0.6538086,0.0957031-0.9414062,0.2275391l-0.1381836-0.3779297
		c0.3417969-0.1552734,0.6777344-0.2578125,1.1274414-0.2578125c0.4379883,0,0.7734375,0.1142578,1.0014648,0.3417969
		c0.2099609,0.2099609,0.3178711,0.5097656,0.3178711,0.90625v1.8945312h-0.4438477v-0.4677734
		c-0.2158203,0.2822266-0.5756836,0.5341797-1.1210938,0.5341797C47.5668945,43.0839043,46.9853516,42.7538261,46.9853516,42.118084
		z M49.2700195,41.8778496v-0.2998047c-0.2275391-0.0654297-0.5336914-0.1318359-0.9111328-0.1318359
		c-0.5820312,0-0.9057617,0.2519531-0.9057617,0.6416016v0.0117188c0,0.390625,0.3598633,0.6181641,0.7797852,0.6181641
		C48.8022461,42.7176933,49.2700195,42.3700371,49.2700195,41.8778496z"/>
	<path class="st0" d="M50.1235352,39.9169121h0.5097656l1.043457,2.5732422l1.0493164-2.5732422h0.4975586l-1.3491211,3.125
		h-0.4077148L50.1235352,39.9169121z"/>
	<path class="st0" d="M53.4291992,41.4764824v-0.0117188c0-0.8935547,0.6298828-1.6132812,1.4873047-1.6132812
		c0.9174805,0,1.4453125,0.7314453,1.4453125,1.6367188c0,0.0605469,0,0.0957031-0.0063477,0.1503906h-2.4584961
		c0.065918,0.6708984,0.5395508,1.0488281,1.0913086,1.0488281c0.4257812,0,0.7255859-0.1738281,0.9775391-0.4375
		l0.2880859,0.2578125c-0.3120117,0.3476562-0.6899414,0.5820312-1.2773438,0.5820312
		C54.125,43.0897636,53.4291992,42.4354668,53.4291992,41.4764824z M55.894043,41.2967949
		c-0.0478516-0.5644531-0.3720703-1.0556641-0.9897461-1.0556641c-0.5395508,0-0.9472656,0.4492188-1.0073242,1.0556641H55.894043z"
		/>
	<path class="st0" d="M58.6850586,39.9169121h0.4619141v0.6240234c0.2519531-0.3720703,0.6176758-0.6894531,1.1875-0.6894531
		c0.7431641,0,1.480957,0.5878906,1.480957,1.6064453v0.0126953c0,1.0126953-0.7314453,1.6132812-1.480957,1.6132812
		c-0.5756836,0-0.9477539-0.3125-1.1875-0.6601562v1.5527344h-0.4619141V39.9169121z M61.3417969,41.4764824v-0.0117188
		c0-0.7324219-0.5039062-1.2001953-1.0913086-1.2001953c-0.5756836,0-1.121582,0.4863281-1.121582,1.1933594v0.0126953
		c0,0.7197266,0.5458984,1.1992188,1.121582,1.1992188C60.8500977,42.6698418,61.3417969,42.2255058,61.3417969,41.4764824z"/>
	<path class="st0" d="M62.3330078,41.4823418V41.470623c0-0.8759766,0.6835938-1.6191406,1.6191406-1.6191406
		c0.9296875,0,1.6132812,0.7314453,1.6132812,1.6064453v0.0126953c0,0.875-0.6899414,1.6191406-1.625,1.6191406
		C63.0107422,43.0897636,62.3330078,42.3583183,62.3330078,41.4823418z M65.0917969,41.4823418V41.470623
		c0-0.6660156-0.4980469-1.2119141-1.1513672-1.2119141c-0.671875,0-1.1337891,0.5458984-1.1337891,1.1992188v0.0126953
		c0,0.6650391,0.4916992,1.2050781,1.1455078,1.2050781C64.6240234,42.6757011,65.0917969,42.1356621,65.0917969,41.4823418z"/>
	<path class="st0" d="M66.4130859,42.196209v-1.8710938h-0.4316406v-0.4082031h0.4316406v-0.9355469h0.4614258v0.9355469h0.9838867
		v0.4082031h-0.9838867v1.8105469c0,0.3779297,0.2099609,0.515625,0.5219727,0.515625
		c0.1557617,0,0.2875977-0.0292969,0.449707-0.1074219v0.3955078c-0.1621094,0.0839844-0.3359375,0.1318359-0.5576172,0.1318359
		C66.7905273,43.071209,66.4130859,42.8260918,66.4130859,42.196209z"/>
	<path class="st0" d="M68.2490234,41.4764824v-0.0117188c0-0.8935547,0.6298828-1.6132812,1.4873047-1.6132812
		c0.9174805,0,1.4453125,0.7314453,1.4453125,1.6367188c0,0.0605469,0,0.0957031-0.0063477,0.1503906h-2.4584961
		c0.065918,0.6708984,0.5395508,1.0488281,1.0913086,1.0488281c0.4257812,0,0.7255859-0.1738281,0.9775391-0.4375
		l0.2880859,0.2578125c-0.3120117,0.3476562-0.6899414,0.5820312-1.2773438,0.5820312
		C68.9448242,43.0897636,68.2490234,42.4354668,68.2490234,41.4764824z M70.7138672,41.2967949
		c-0.0478516-0.5644531-0.3720703-1.0556641-0.9897461-1.0556641c-0.5395508,0-0.9472656,0.4492188-1.0073242,1.0556641H70.7138672z
		"/>
	<path class="st0" d="M71.8491211,39.9169121h0.4619141v0.5400391c0.2036133-0.3359375,0.527832-0.6054688,1.0615234-0.6054688
		c0.7495117,0,1.1870117,0.5039062,1.1870117,1.2412109v1.9248047h-0.4614258v-1.8105469
		c0-0.5761719-0.3120117-0.9355469-0.8579102-0.9355469c-0.5336914,0-0.9291992,0.3896484-0.9291992,0.9707031v1.7753906h-0.4619141
		V39.9169121z"/>
	<path class="st0" d="M75.5571289,42.196209v-1.8710938h-0.4316406v-0.4082031h0.4316406v-0.9355469h0.4614258v0.9355469h0.9838867
		v0.4082031h-0.9838867v1.8105469c0,0.3779297,0.2099609,0.515625,0.5219727,0.515625
		c0.1557617,0,0.2875977-0.0292969,0.449707-0.1074219v0.3955078c-0.1621094,0.0839844-0.3359375,0.1318359-0.5576172,0.1318359
		C75.9350586,43.071209,75.5571289,42.8260918,75.5571289,42.196209z"/>
	<path class="st0" d="M77.6870117,38.7294121h0.5273438v0.5097656h-0.5273438V38.7294121z M77.7167969,39.9169121h0.4619141
		v3.1005859h-0.4619141V39.9169121z"/>
	<path class="st0" d="M78.875,42.118084v-0.0117188c0-0.6542969,0.5400391-1.0019531,1.3251953-1.0019531
		c0.3959961,0,0.6777344,0.0537109,0.9536133,0.1318359v-0.1074219c0-0.5576172-0.3417969-0.8457031-0.9233398-0.8457031
		c-0.3657227,0-0.6538086,0.0957031-0.9414062,0.2275391l-0.1381836-0.3779297
		c0.3417969-0.1552734,0.6777344-0.2578125,1.1274414-0.2578125c0.4379883,0,0.7734375,0.1142578,1.0014648,0.3417969
		c0.2099609,0.2099609,0.3178711,0.5097656,0.3178711,0.90625v1.8945312h-0.4438477v-0.4677734
		c-0.2158203,0.2822266-0.5756836,0.5341797-1.1210938,0.5341797C79.456543,43.0839043,78.875,42.7538261,78.875,42.118084z
		 M81.159668,41.8778496v-0.2998047c-0.2275391-0.0654297-0.5336914-0.1318359-0.9111328-0.1318359
		c-0.5820312,0-0.9057617,0.2519531-0.9057617,0.6416016v0.0117188c0,0.390625,0.3598633,0.6181641,0.7797852,0.6181641
		C80.6918945,42.7176933,81.159668,42.3700371,81.159668,41.8778496z"/>
	<path class="st0" d="M82.480957,38.6395683h0.4619141v4.3779297H82.480957V38.6395683z"/>
	<path class="st0" d="M85.5410156,38.7294121h0.527832v0.5097656h-0.527832V38.7294121z M85.5708008,39.9169121h0.4619141v3.1005859
		h-0.4619141V39.9169121z"/>
	<path class="st0" d="M86.9624023,39.9169121h0.4619141v0.5400391c0.2036133-0.3359375,0.527832-0.6054688,1.0615234-0.6054688
		c0.7495117,0,1.1870117,0.5039062,1.1870117,1.2412109v1.9248047h-0.4614258v-1.8105469
		c0-0.5761719-0.3120117-0.9355469-0.8579102-0.9355469c-0.5336914,0-0.9291992,0.3896484-0.9291992,0.9707031v1.7753906h-0.4619141
		V39.9169121z"/>
	<path class="st0" d="M90.6767578,42.196209v-1.8710938h-0.4316406v-0.4082031h0.4316406v-0.9355469h0.4614258v0.9355469h0.9838867
		v0.4082031h-0.9838867v1.8105469c0,0.3779297,0.2099609,0.515625,0.5219727,0.515625
		c0.1557617,0,0.2875977-0.0292969,0.449707-0.1074219v0.3955078c-0.1621094,0.0839844-0.3359375,0.1318359-0.5576172,0.1318359
		C91.0541992,43.071209,90.6767578,42.8260918,90.6767578,42.196209z"/>
	<path class="st0" d="M92.5126953,41.4764824v-0.0117188c0-0.8935547,0.6298828-1.6132812,1.4873047-1.6132812
		c0.9174805,0,1.4453125,0.7314453,1.4453125,1.6367188c0,0.0605469,0,0.0957031-0.0063477,0.1503906h-2.4584961
		c0.065918,0.6708984,0.5395508,1.0488281,1.0913086,1.0488281c0.4257812,0,0.7255859-0.1738281,0.9775391-0.4375
		l0.2880859,0.2578125c-0.3120117,0.3476562-0.6899414,0.5820312-1.2773438,0.5820312
		C93.2084961,43.0897636,92.5126953,42.4354668,92.5126953,41.4764824z M94.9775391,41.2967949
		c-0.0478516-0.5644531-0.3720703-1.0556641-0.9897461-1.0556641c-0.5395508,0-0.9472656,0.4492188-1.0073242,1.0556641H94.9775391z
		"/>
	<path class="st0" d="M96.1064453,39.9169121h0.4619141v0.8095703c0.2280273-0.515625,0.6777344-0.8876953,1.2651367-0.8632812
		v0.4980469h-0.0361328c-0.6772461,0-1.2290039,0.4853516-1.2290039,1.4208984v1.2353516h-0.4619141V39.9169121z"/>
	<path class="st0" d="M98.0087891,42.118084v-0.0117188c0-0.6542969,0.5400391-1.0019531,1.3251953-1.0019531
		c0.3959961,0,0.6777344,0.0537109,0.9536133,0.1318359v-0.1074219c0-0.5576172-0.3417969-0.8457031-0.9233398-0.8457031
		c-0.3657227,0-0.6538086,0.0957031-0.9414062,0.2275391l-0.1381836-0.3779297
		c0.3417969-0.1552734,0.6777344-0.2578125,1.1274414-0.2578125c0.4379883,0,0.7734375,0.1142578,1.0014648,0.3417969
		c0.2099609,0.2099609,0.3178711,0.5097656,0.3178711,0.90625v1.8945312h-0.4438477v-0.4677734
		c-0.2158203,0.2822266-0.5756836,0.5341797-1.1210938,0.5341797C98.590332,43.0839043,98.0087891,42.7538261,98.0087891,42.118084z
		 M100.293457,41.8778496v-0.2998047c-0.2275391-0.0654297-0.5336914-0.1318359-0.9111328-0.1318359
		c-0.5820312,0-0.9057617,0.2519531-0.9057617,0.6416016v0.0117188c0,0.390625,0.3598633,0.6181641,0.7797852,0.6181641
		C99.8256836,42.7176933,100.293457,42.3700371,100.293457,41.8778496z"/>
	<path class="st0" d="M101.3803711,41.4823418V41.470623c0-0.8759766,0.6835938-1.6191406,1.5893555-1.6191406
		c0.5874023,0,0.953125,0.2460938,1.2412109,0.5517578l-0.3056641,0.3232422
		c-0.2460938-0.2578125-0.5219727-0.4677734-0.9418945-0.4677734c-0.6293945,0-1.109375,0.5341797-1.109375,1.1992188v0.0126953
		c0,0.6708984,0.4916992,1.2050781,1.1396484,1.2050781c0.3955078,0,0.7016602-0.1982422,0.9472656-0.4619141l0.2939453,0.2763672
		c-0.3120117,0.3476562-0.6835938,0.5996094-1.2651367,0.5996094
		C102.0639648,43.0897636,101.3803711,42.3514824,101.3803711,41.4823418z"/>
	<path class="st0" d="M105.0107422,42.196209v-1.8710938h-0.4316406v-0.4082031h0.4316406v-0.9355469h0.4614258v0.9355469h0.9838867
		v0.4082031h-0.9838867v1.8105469c0,0.3779297,0.2099609,0.515625,0.5219727,0.515625
		c0.1557617,0,0.2875977-0.0292969,0.449707-0.1074219v0.3955078c-0.1621094,0.0839844-0.3359375,0.1318359-0.5576172,0.1318359
		C105.3881836,43.071209,105.0107422,42.8260918,105.0107422,42.196209z"/>
	<path class="st0" d="M107.140625,38.7294121h0.527832v0.5097656h-0.527832V38.7294121z M107.1704102,39.9169121h0.4619141
		v3.1005859h-0.4619141V39.9169121z"/>
	<path class="st0" d="M108.3706055,41.4823418V41.470623c0-0.8759766,0.6835938-1.6191406,1.6191406-1.6191406
		c0.9296875,0,1.6132812,0.7314453,1.6132812,1.6064453v0.0126953c0,0.875-0.6899414,1.6191406-1.625,1.6191406
		C109.0483398,43.0897636,108.3706055,42.3583183,108.3706055,41.4823418z M111.1293945,41.4823418V41.470623
		c0-0.6660156-0.4980469-1.2119141-1.1513672-1.2119141c-0.671875,0-1.1337891,0.5458984-1.1337891,1.1992188v0.0126953
		c0,0.6650391,0.4916992,1.2050781,1.1455078,1.2050781C110.6616211,42.6757011,111.1293945,42.1356621,111.1293945,41.4823418z"/>
	<path class="st0" d="M112.2944336,39.9169121h0.4619141v0.5400391c0.2036133-0.3359375,0.527832-0.6054688,1.0615234-0.6054688
		c0.7495117,0,1.1870117,0.5039062,1.1870117,1.2412109v1.9248047h-0.4614258v-1.8105469
		c0-0.5761719-0.3120117-0.9355469-0.8579102-0.9355469c-0.5336914,0-0.9291992,0.3896484-0.9291992,0.9707031v1.7753906h-0.4619141
		V39.9169121z"/>
	<path class="st0" d="M115.5825195,42.6219902l0.2338867-0.3300781c0.3359375,0.2519531,0.7075195,0.3955078,1.0732422,0.3955078
		c0.3720703,0,0.6420898-0.1914062,0.6420898-0.4912109v-0.0126953c0-0.3115234-0.3662109-0.4316406-0.7739258-0.5449219
		c-0.4858398-0.1386719-1.0253906-0.3066406-1.0253906-0.8759766v-0.0117188c0-0.5341797,0.4438477-0.8876953,1.0556641-0.8876953
		c0.3774414,0,0.7973633,0.1318359,1.1152344,0.3417969l-0.2099609,0.3476562
		c-0.2875977-0.1855469-0.6176758-0.2998047-0.9174805-0.2998047c-0.3657227,0-0.5996094,0.1923828-0.5996094,0.4501953v0.0117188
		c0,0.2939453,0.3837891,0.4082031,0.7973633,0.5341797c0.4799805,0.1435547,0.9956055,0.3291016,0.9956055,0.8867188v0.0126953
		c0,0.5869141-0.4858398,0.9287109-1.1035156,0.9287109C116.421875,43.0770683,115.9301758,42.9032402,115.5825195,42.6219902z"/>
	<path class="st0" d="M120.0766602,39.9169121h0.4916992l0.8154297,2.4892578l0.8334961-2.5009766h0.3837891l0.8398438,2.5009766
		l0.8154297-2.4892578h0.4794922l-1.0913086,3.125h-0.4018555l-0.8334961-2.4472656l-0.8393555,2.4472656h-0.4077148
		L120.0766602,39.9169121z"/>
	<path class="st0" d="M125.3740234,38.7294121h0.527832v0.5097656h-0.527832V38.7294121z M125.4038086,39.9169121h0.4619141
		v3.1005859h-0.4619141V39.9169121z"/>
	<path class="st0" d="M126.9580078,42.196209v-1.8710938h-0.4316406v-0.4082031h0.4316406v-0.9355469h0.4614258v0.9355469h0.9838867
		v0.4082031h-0.9838867v1.8105469c0,0.3779297,0.2099609,0.515625,0.5219727,0.515625
		c0.1557617,0,0.2875977-0.0292969,0.449707-0.1074219v0.3955078c-0.1621094,0.0839844-0.3359375,0.1318359-0.5576172,0.1318359
		C127.3354492,43.071209,126.9580078,42.8260918,126.9580078,42.196209z"/>
	<path class="st0" d="M129.0756836,38.6395683h0.4619141v1.8173828c0.2036133-0.3359375,0.527832-0.6054688,1.0615234-0.6054688
		c0.7495117,0,1.1870117,0.5039062,1.1870117,1.2412109v1.9248047h-0.4614258v-1.8105469
		c0-0.5761719-0.3120117-0.9355469-0.8579102-0.9355469c-0.5336914,0-0.9291992,0.3896484-0.9291992,0.9707031v1.7753906h-0.4619141
		V38.6395683z"/>
	<path class="st0" d="M134.0258789,42.6219902l0.2338867-0.3300781c0.3359375,0.2519531,0.7075195,0.3955078,1.0732422,0.3955078
		c0.3720703,0,0.6420898-0.1914062,0.6420898-0.4912109v-0.0126953c0-0.3115234-0.3662109-0.4316406-0.7739258-0.5449219
		c-0.4858398-0.1386719-1.0253906-0.3066406-1.0253906-0.8759766v-0.0117188c0-0.5341797,0.4438477-0.8876953,1.0556641-0.8876953
		c0.3774414,0,0.7973633,0.1318359,1.1152344,0.3417969l-0.2099609,0.3476562
		c-0.2875977-0.1855469-0.6176758-0.2998047-0.9174805-0.2998047c-0.3657227,0-0.5996094,0.1923828-0.5996094,0.4501953v0.0117188
		c0,0.2939453,0.3837891,0.4082031,0.7973633,0.5341797c0.4799805,0.1435547,0.9956055,0.3291016,0.9956055,0.8867188v0.0126953
		c0,0.5869141-0.4858398,0.9287109-1.1035156,0.9287109C134.8652344,43.0770683,134.3735352,42.9032402,134.0258789,42.6219902z"/>
	<path class="st0" d="M136.9360352,41.4823418V41.470623c0-0.8759766,0.6835938-1.6191406,1.6191406-1.6191406
		c0.9296875,0,1.6132812,0.7314453,1.6132812,1.6064453v0.0126953c0,0.875-0.6899414,1.6191406-1.625,1.6191406
		C137.6137695,43.0897636,136.9360352,42.3583183,136.9360352,41.4823418z M139.6948242,41.4823418V41.470623
		c0-0.6660156-0.4980469-1.2119141-1.1513672-1.2119141c-0.671875,0-1.1337891,0.5458984-1.1337891,1.1992188v0.0126953
		c0,0.6650391,0.4916992,1.2050781,1.1455078,1.2050781C139.2270508,42.6757011,139.6948242,42.1356621,139.6948242,41.4823418z"/>
	<path class="st0" d="M140.8598633,39.9169121h0.4619141v0.5224609c0.2036133-0.3066406,0.4794922-0.5878906,1.0014648-0.5878906
		c0.503418,0,0.8276367,0.2695312,0.9956055,0.6171875c0.2216797-0.3417969,0.5512695-0.6171875,1.0913086-0.6171875
		c0.7133789,0,1.1513672,0.4794922,1.1513672,1.2470703v1.9189453h-0.4619141v-1.8105469
		c0-0.6005859-0.2998047-0.9355469-0.8037109-0.9355469c-0.4677734,0-0.8574219,0.3476562-0.8574219,0.9589844v1.7871094h-0.4555664
		v-1.8232422c0-0.5810547-0.3061523-0.9228516-0.7978516-0.9228516s-0.8632812,0.4072266-0.8632812,0.9775391v1.7685547h-0.4619141
		V39.9169121z"/>
	<path class="st0" d="M146.2119141,41.4764824v-0.0117188c0-0.8935547,0.6298828-1.6132812,1.4873047-1.6132812
		c0.9174805,0,1.4453125,0.7314453,1.4453125,1.6367188c0,0.0605469,0,0.0957031-0.0063477,0.1503906h-2.4584961
		c0.065918,0.6708984,0.5395508,1.0488281,1.0913086,1.0488281c0.4257812,0,0.7255859-0.1738281,0.9775391-0.4375
		l0.2880859,0.2578125c-0.3120117,0.3476562-0.6899414,0.5820312-1.2773438,0.5820312
		C146.9077148,43.0897636,146.2119141,42.4354668,146.2119141,41.4764824z M148.6767578,41.2967949
		c-0.0478516-0.5644531-0.3720703-1.0556641-0.9897461-1.0556641c-0.5395508,0-0.9472656,0.4492188-1.0073242,1.0556641H148.6767578
		z"/>
	<path class="st0" d="M151.2338867,42.118084v-0.0117188c0-0.6542969,0.5400391-1.0019531,1.3251953-1.0019531
		c0.3959961,0,0.6777344,0.0537109,0.9536133,0.1318359v-0.1074219c0-0.5576172-0.3417969-0.8457031-0.9233398-0.8457031
		c-0.3657227,0-0.6538086,0.0957031-0.9414062,0.2275391l-0.1381836-0.3779297
		c0.3417969-0.1552734,0.6777344-0.2578125,1.1274414-0.2578125c0.4379883,0,0.7734375,0.1142578,1.0014648,0.3417969
		c0.2099609,0.2099609,0.3178711,0.5097656,0.3178711,0.90625v1.8945312h-0.4438477v-0.4677734
		c-0.2158203,0.2822266-0.5756836,0.5341797-1.121582,0.5341797
		C151.815918,43.0839043,151.2338867,42.7538261,151.2338867,42.118084z M153.5185547,41.8778496v-0.2998047
		c-0.2275391-0.0654297-0.5336914-0.1318359-0.9111328-0.1318359c-0.5820312,0-0.9057617,0.2519531-0.9057617,0.6416016v0.0117188
		c0,0.390625,0.3598633,0.6181641,0.7797852,0.6181641C153.0507812,42.7176933,153.5185547,42.3700371,153.5185547,41.8778496z"/>
	<path class="st0" d="M154.7915039,39.9169121h0.4619141v0.5400391c0.2036133-0.3359375,0.527832-0.6054688,1.0615234-0.6054688
		c0.7495117,0,1.1870117,0.5039062,1.1870117,1.2412109v1.9248047h-0.4614258v-1.8105469
		c0-0.5761719-0.3120117-0.9355469-0.8579102-0.9355469c-0.5336914,0-0.9291992,0.3896484-0.9291992,0.9707031v1.7753906h-0.4619141
		V39.9169121z"/>
	<path class="st0" d="M158.5058594,42.196209v-1.8710938h-0.4316406v-0.4082031h0.4316406v-0.9355469h0.4614258v0.9355469h0.9838867
		v0.4082031h-0.9838867v1.8105469c0,0.3779297,0.2099609,0.515625,0.5219727,0.515625
		c0.1557617,0,0.2875977-0.0292969,0.449707-0.1074219v0.3955078c-0.1621094,0.0839844-0.3359375,0.1318359-0.5576172,0.1318359
		C158.8833008,43.071209,158.5058594,42.8260918,158.5058594,42.196209z"/>
	<path class="st0" d="M160.6357422,38.7294121h0.527832v0.5097656h-0.527832V38.7294121z M160.6655273,39.9169121h0.4619141
		v3.1005859h-0.4619141V39.9169121z"/>
	<path class="st0" d="M162.0576172,39.9169121h0.4619141v0.6240234c0.2519531-0.3720703,0.6176758-0.6894531,1.1875-0.6894531
		c0.7431641,0,1.480957,0.5878906,1.480957,1.6064453v0.0126953c0,1.0126953-0.7314453,1.6132812-1.480957,1.6132812
		c-0.5756836,0-0.9477539-0.3125-1.1875-0.6601562v1.5527344h-0.4619141V39.9169121z M164.7143555,41.4764824v-0.0117188
		c0-0.7324219-0.5039062-1.2001953-1.0913086-1.2001953c-0.5756836,0-1.121582,0.4863281-1.121582,1.1933594v0.0126953
		c0,0.7197266,0.5458984,1.1992188,1.121582,1.1992188C164.2226562,42.6698418,164.7143555,42.2255058,164.7143555,41.4764824z"/>
	<path class="st0" d="M165.6396484,42.6219902l0.2338867-0.3300781c0.3359375,0.2519531,0.7075195,0.3955078,1.0732422,0.3955078
		c0.3720703,0,0.6416016-0.1914062,0.6416016-0.4912109v-0.0126953c0-0.3115234-0.3657227-0.4316406-0.7734375-0.5449219
		c-0.4858398-0.1386719-1.0253906-0.3066406-1.0253906-0.8759766v-0.0117188c0-0.5341797,0.4438477-0.8876953,1.0556641-0.8876953
		c0.3774414,0,0.7973633,0.1318359,1.1152344,0.3417969l-0.2099609,0.3476562
		c-0.2875977-0.1855469-0.6176758-0.2998047-0.9174805-0.2998047c-0.3657227,0-0.5996094,0.1923828-0.5996094,0.4501953v0.0117188
		c0,0.2939453,0.3837891,0.4082031,0.7973633,0.5341797c0.4799805,0.1435547,0.9956055,0.3291016,0.9956055,0.8867188v0.0126953
		c0,0.5869141-0.4858398,0.9287109-1.1035156,0.9287109C166.4790039,43.0770683,165.9873047,42.9032402,165.6396484,42.6219902z"/>
	<path class="st0" d="M170.972168,39.9169121h0.4916992l-1.3012695,3.2021484
		c-0.2636719,0.6416016-0.5634766,0.8759766-1.03125,0.8759766c-0.2578125,0-0.449707-0.0537109-0.659668-0.15625
		l0.1557617-0.3652344c0.1499023,0.078125,0.2880859,0.1132812,0.4858398,0.1132812
		c0.2758789,0,0.449707-0.1435547,0.6357422-0.5810547l-1.4091797-3.0888672h0.5092773l1.1274414,2.5849609L170.972168,39.9169121z"
		/>
	<path class="st0" d="M171.675293,41.4823418V41.470623c0-0.8759766,0.6835938-1.6191406,1.5893555-1.6191406
		c0.5874023,0,0.953125,0.2460938,1.2412109,0.5517578l-0.3056641,0.3232422
		c-0.2460938-0.2578125-0.5219727-0.4677734-0.9418945-0.4677734c-0.6293945,0-1.109375,0.5341797-1.109375,1.1992188v0.0126953
		c0,0.6708984,0.4916992,1.2050781,1.1396484,1.2050781c0.3955078,0,0.7016602-0.1982422,0.9472656-0.4619141l0.2939453,0.2763672
		c-0.3120117,0.3476562-0.6835938,0.5996094-1.2651367,0.5996094
		C172.3588867,43.0897636,171.675293,42.3514824,171.675293,41.4823418z"/>
	<path class="st0" d="M175.1489258,38.6395683h0.4619141v1.8173828c0.2036133-0.3359375,0.527832-0.6054688,1.0615234-0.6054688
		c0.7495117,0,1.1870117,0.5039062,1.1870117,1.2412109v1.9248047h-0.4614258v-1.8105469
		c0-0.5761719-0.3120117-0.9355469-0.8579102-0.9355469c-0.5336914,0-0.9291992,0.3896484-0.9291992,0.9707031v1.7753906h-0.4619141
		V38.6395683z"/>
	<path class="st0" d="M178.5092773,41.4823418V41.470623c0-0.8759766,0.6835938-1.6191406,1.6191406-1.6191406
		c0.9296875,0,1.6132812,0.7314453,1.6132812,1.6064453v0.0126953c0,0.875-0.6899414,1.6191406-1.625,1.6191406
		C179.1870117,43.0897636,178.5092773,42.3583183,178.5092773,41.4823418z M181.2680664,41.4823418V41.470623
		c0-0.6660156-0.4980469-1.2119141-1.1513672-1.2119141c-0.671875,0-1.1337891,0.5458984-1.1337891,1.1992188v0.0126953
		c0,0.6650391,0.4916992,1.2050781,1.1455078,1.2050781C180.800293,42.6757011,181.2680664,42.1356621,181.2680664,41.4823418z"/>
	<path class="st0" d="M182.5893555,42.196209v-1.8710938h-0.4316406v-0.4082031h0.4316406v-0.9355469h0.4614258v0.9355469h0.9838867
		v0.4082031h-0.9838867v1.8105469c0,0.3779297,0.2099609,0.515625,0.5219727,0.515625
		c0.1557617,0,0.2875977-0.0292969,0.449707-0.1074219v0.3955078c-0.1621094,0.0839844-0.3359375,0.1318359-0.5576172,0.1318359
		C182.9672852,43.071209,182.5893555,42.8260918,182.5893555,42.196209z"/>
	<path class="st0" d="M184.7192383,38.7294121h0.5273438v0.5097656h-0.5273438V38.7294121z M184.7490234,39.9169121h0.4619141
		v3.1005859h-0.4619141V39.9169121z"/>
	<path class="st0" d="M185.9492188,41.4823418V41.470623c0-0.8759766,0.6835938-1.6191406,1.5893555-1.6191406
		c0.5874023,0,0.953125,0.2460938,1.2412109,0.5517578l-0.3056641,0.3232422
		c-0.2460938-0.2578125-0.5219727-0.4677734-0.9418945-0.4677734c-0.6293945,0-1.109375,0.5341797-1.109375,1.1992188v0.0126953
		c0,0.6708984,0.4916992,1.2050781,1.1396484,1.2050781c0.3955078,0,0.7016602-0.1982422,0.9472656-0.4619141l0.2939453,0.2763672
		c-0.3120117,0.3476562-0.6835938,0.5996094-1.2651367,0.5996094
		C186.6328125,43.0897636,185.9492188,42.3514824,185.9492188,41.4823418z"/>
	<path class="st0" d="M191.0791016,39.9169121h0.4619141v0.5224609c0.2036133-0.3066406,0.4794922-0.5878906,1.0014648-0.5878906
		c0.503418,0,0.8276367,0.2695312,0.9951172,0.6171875c0.222168-0.3417969,0.5517578-0.6171875,1.0917969-0.6171875
		c0.7133789,0,1.1513672,0.4794922,1.1513672,1.2470703v1.9189453h-0.4619141v-1.8105469
		c0-0.6005859-0.2998047-0.9355469-0.8037109-0.9355469c-0.4677734,0-0.8574219,0.3476562-0.8574219,0.9589844v1.7871094h-0.4555664
		v-1.8232422c0-0.5810547-0.3061523-0.9228516-0.7978516-0.9228516s-0.8632812,0.4072266-0.8632812,0.9775391v1.7685547h-0.4619141
		V39.9169121z"/>
	<path class="st0" d="M196.4248047,41.4764824v-0.0117188c0-0.8935547,0.6298828-1.6132812,1.4873047-1.6132812
		c0.9174805,0,1.4453125,0.7314453,1.4453125,1.6367188c0,0.0605469,0,0.0957031-0.0063477,0.1503906h-2.4584961
		c0.065918,0.6708984,0.5395508,1.0488281,1.0913086,1.0488281c0.4257812,0,0.7255859-0.1738281,0.9775391-0.4375
		l0.2880859,0.2578125c-0.3120117,0.3476562-0.6899414,0.5820312-1.2773438,0.5820312
		C197.1206055,43.0897636,196.4248047,42.4354668,196.4248047,41.4764824z M198.8896484,41.2967949
		c-0.0478516-0.5644531-0.3720703-1.0556641-0.9897461-1.0556641c-0.5395508,0-0.9472656,0.4492188-1.0073242,1.0556641H198.8896484
		z"/>
	<path class="st0" d="M199.8452148,41.4764824v-0.0117188c0-1.0136719,0.7373047-1.6132812,1.480957-1.6132812
		c0.5756836,0,0.9477539,0.3115234,1.1875,0.6591797v-1.8710938h0.4619141v4.3779297h-0.4619141v-0.6240234
		c-0.2519531,0.3720703-0.6176758,0.6904297-1.1875,0.6904297
		C200.5825195,43.0839043,199.8452148,42.4960136,199.8452148,41.4764824z M202.5317383,41.470623v-0.0126953
		c0-0.7128906-0.5458984-1.1933594-1.121582-1.1933594c-0.5996094,0-1.0913086,0.4443359-1.0913086,1.1933594v0.0126953
		c0,0.7314453,0.5039062,1.1992188,1.0913086,1.1992188C201.9858398,42.6698418,202.5317383,42.1835136,202.5317383,41.470623z"/>
	<path class="st0" d="M203.8769531,38.7294121h0.527832v0.5097656h-0.527832V38.7294121z M203.9067383,39.9169121h0.4619141
		v3.1005859h-0.4619141V39.9169121z"/>
	<path class="st0" d="M205.1069336,41.4823418V41.470623c0-0.8759766,0.6835938-1.6191406,1.5893555-1.6191406
		c0.5874023,0,0.953125,0.2460938,1.2412109,0.5517578l-0.3056641,0.3232422
		c-0.2460938-0.2578125-0.5219727-0.4677734-0.9418945-0.4677734c-0.6293945,0-1.109375,0.5341797-1.109375,1.1992188v0.0126953
		c0,0.6708984,0.4916992,1.2050781,1.1396484,1.2050781c0.3955078,0,0.7016602-0.1982422,0.9472656-0.4619141l0.2939453,0.2763672
		c-0.3120117,0.3476562-0.6835938,0.5996094-1.2651367,0.5996094
		C205.7905273,43.0897636,205.1069336,42.3514824,205.1069336,41.4823418z"/>
	<path class="st0" d="M208.3408203,42.118084v-0.0117188c0-0.6542969,0.5400391-1.0019531,1.3251953-1.0019531
		c0.3959961,0,0.6777344,0.0537109,0.9536133,0.1318359v-0.1074219c0-0.5576172-0.3417969-0.8457031-0.9233398-0.8457031
		c-0.3657227,0-0.6538086,0.0957031-0.9414062,0.2275391l-0.1381836-0.3779297
		c0.3417969-0.1552734,0.6777344-0.2578125,1.1274414-0.2578125c0.4379883,0,0.7734375,0.1142578,1.0014648,0.3417969
		c0.2099609,0.2099609,0.3178711,0.5097656,0.3178711,0.90625v1.8945312h-0.4438477v-0.4677734
		c-0.2158203,0.2822266-0.5756836,0.5341797-1.1210938,0.5341797
		C208.9223633,43.0839043,208.3408203,42.7538261,208.3408203,42.118084z M210.6254883,41.8778496v-0.2998047
		c-0.2275391-0.0654297-0.5336914-0.1318359-0.9111328-0.1318359c-0.5820312,0-0.9057617,0.2519531-0.9057617,0.6416016v0.0117188
		c0,0.390625,0.3598633,0.6181641,0.7797852,0.6181641C210.1577148,42.7176933,210.6254883,42.3700371,210.6254883,41.8778496z"/>
	<path class="st0" d="M212.0366211,42.196209v-1.8710938h-0.4316406v-0.4082031h0.4316406v-0.9355469h0.4614258v0.9355469h0.9838867
		v0.4082031h-0.9838867v1.8105469c0,0.3779297,0.2099609,0.515625,0.5219727,0.515625
		c0.1557617,0,0.2875977-0.0292969,0.449707-0.1074219v0.3955078c-0.1621094,0.0839844-0.3359375,0.1318359-0.5576172,0.1318359
		C212.4145508,43.071209,212.0366211,42.8260918,212.0366211,42.196209z"/>
	<path class="st0" d="M214.1669922,38.7294121h0.527832v0.5097656h-0.527832V38.7294121z M214.1967773,39.9169121h0.4619141
		v3.1005859h-0.4619141V39.9169121z"/>
	<path class="st0" d="M215.3964844,41.4823418V41.470623c0-0.8759766,0.6835938-1.6191406,1.6191406-1.6191406
		c0.9296875,0,1.6132812,0.7314453,1.6132812,1.6064453v0.0126953c0,0.875-0.6899414,1.6191406-1.625,1.6191406
		C216.0742188,43.0897636,215.3964844,42.3583183,215.3964844,41.4823418z M218.1552734,41.4823418V41.470623
		c0-0.6660156-0.4980469-1.2119141-1.1513672-1.2119141c-0.671875,0-1.1337891,0.5458984-1.1337891,1.1992188v0.0126953
		c0,0.6650391,0.4916992,1.2050781,1.1455078,1.2050781C217.6875,42.6757011,218.1552734,42.1356621,218.1552734,41.4823418z"/>
	<path class="st0" d="M219.3203125,39.9169121h0.4619141v0.5400391c0.2036133-0.3359375,0.527832-0.6054688,1.0615234-0.6054688
		c0.7495117,0,1.1870117,0.5039062,1.1870117,1.2412109v1.9248047h-0.4614258v-1.8105469
		c0-0.5761719-0.3120117-0.9355469-0.8579102-0.9355469c-0.5336914,0-0.9291992,0.3896484-0.9291992,0.9707031v1.7753906h-0.4619141
		V39.9169121z"/>
	<path class="st0" d="M222.6088867,42.6219902l0.2338867-0.3300781c0.3359375,0.2519531,0.7075195,0.3955078,1.0732422,0.3955078
		c0.3720703,0,0.6420898-0.1914062,0.6420898-0.4912109v-0.0126953c0-0.3115234-0.3662109-0.4316406-0.7739258-0.5449219
		c-0.4858398-0.1386719-1.0253906-0.3066406-1.0253906-0.8759766v-0.0117188c0-0.5341797,0.4438477-0.8876953,1.0556641-0.8876953
		c0.3774414,0,0.7973633,0.1318359,1.1152344,0.3417969l-0.2099609,0.3476562
		c-0.2875977-0.1855469-0.6176758-0.2998047-0.9174805-0.2998047c-0.3657227,0-0.5996094,0.1923828-0.5996094,0.4501953v0.0117188
		c0,0.2939453,0.3837891,0.4082031,0.7973633,0.5341797c0.4799805,0.1435547,0.9956055,0.3291016,0.9956055,0.8867188v0.0126953
		c0,0.5869141-0.4858398,0.9287109-1.1035156,0.9287109C223.4482422,43.0770683,222.956543,42.9032402,222.6088867,42.6219902z"/>
	<path class="st0" d="M225.6503906,42.3876152h0.5517578v0.6298828h-0.5517578V42.3876152z"/>
</g>
<g>
	<path class="st0" d="M126.9936523,6.0214043h0.7895508v6.9960938h-0.7895508V6.0214043z"/>
	<path class="st0" d="M129.3735352,11.9979668l0.4897461-0.5800781c0.7294922,0.6601562,1.4291992,0.9902344,2.3984375,0.9902344
		c0.9394531,0,1.559082-0.5,1.559082-1.1894531v-0.0205078c0-0.6494141-0.3496094-1.0195312-1.8188477-1.3291016
		c-1.6088867-0.3496094-2.3486328-0.8691406-2.3486328-2.0185547V7.829998c0-1.0986328,0.9692383-1.9082031,2.2988281-1.9082031
		c1.0195312,0,1.7490234,0.2890625,2.4584961,0.859375l-0.4594727,0.609375
		c-0.6499023-0.5292969-1.2993164-0.7597656-2.019043-0.7597656c-0.909668,0-1.4892578,0.5-1.4892578,1.1298828v0.0195312
		c0,0.6601562,0.3598633,1.0292969,1.8989258,1.359375c1.559082,0.3398438,2.2788086,0.9091797,2.2788086,1.9785156v0.0205078
		c0,1.1992188-0.9995117,1.9785156-2.3886719,1.9785156C131.1225586,13.1171074,130.2128906,12.7479668,129.3735352,11.9979668z"/>
	<path class="st0" d="M139.2329102,6.0214043h0.7895508v3.1083984h4.0380859V6.0214043h0.7895508v6.9960938h-0.7895508V9.8690605
		h-4.0380859v3.1484375h-0.7895508V6.0214043z"/>
	<path class="st0" d="M146.8330078,6.0214043h5.0576172v0.7197266h-4.2680664v2.3886719h3.8183594v0.7197266h-3.8183594v2.4482422
		h4.3178711v0.7197266h-5.1074219V6.0214043z"/>
	<path class="st0" d="M156.2231445,9.5389824V9.5194511c0-1.9287109,1.4492188-3.6181641,3.578125-3.6181641
		s3.5581055,1.6689453,3.5581055,3.5986328v0.0195312c0,1.9287109-1.4492188,3.6181641-3.578125,3.6181641
		S156.2231445,11.4686699,156.2231445,9.5389824z M162.5395508,9.5389824V9.5194511
		c0-1.5888672-1.1591797-2.8886719-2.7583008-2.8886719s-2.7387695,1.2792969-2.7387695,2.8691406v0.0195312
		c0,1.5888672,1.159668,2.8886719,2.7587891,2.8886719S162.5395508,11.1288261,162.5395508,9.5389824z"/>
	<path class="st0" d="M165.0327148,6.0214043h0.7397461l4.4077148,5.6064453V6.0214043h0.7695312v6.9960938h-0.6298828
		l-4.5175781-5.7373047v5.7373047h-0.7695312V6.0214043z"/>
	<path class="st0" d="M178.5214844,5.9715996h0.7397461l3.1879883,7.0458984h-0.8496094l-0.8193359-1.8486328h-3.8081055
		l-0.8295898,1.8486328h-0.8095703L178.5214844,5.9715996z M180.4702148,10.4589043l-1.5888672-3.5683594l-1.5991211,3.5683594
		H180.4702148z"/>
	<path class="st0" d="M183.8325195,6.0214043h0.7397461l4.4077148,5.6064453V6.0214043h0.7695312v6.9960938h-0.6298828
		l-4.5175781-5.7373047v5.7373047h-0.7695312V6.0214043z"/>
</g>
<g>
	<path class="st0" d="M57.1923828,15.9715996h1.4189453l2.9985352,7.0458984h-1.6088867l-0.6396484-1.5693359H56.402832
		l-0.6396484,1.5693359h-1.5693359L57.1923828,15.9715996z M58.8115234,20.0887871l-0.9296875-2.2685547l-0.9291992,2.2685547
		H58.8115234z"/>
	<path class="st0" d="M62.6933594,16.0214043h1.4194336l3.2783203,4.3076172v-4.3076172h1.519043v6.9960938h-1.309082
		l-3.3881836-4.4472656v4.4472656h-1.5195312V16.0214043z"/>
	<path class="st0" d="M72.2226562,17.4403496H70.09375v-1.4189453h5.796875v1.4189453h-2.1289062v5.5771484h-1.5390625V17.4403496z"
		/>
	<path class="st0" d="M77.1435547,16.0214043h1.5390625v6.9960938h-1.5390625V16.0214043z"/>
	<path class="st0" d="M80.4331055,16.0214043h2.8583984c1.6694336,0,2.6787109,0.9892578,2.6787109,2.4189453v0.0195312
		c0,1.6191406-1.2592773,2.4589844-2.8286133,2.4589844h-1.1689453v2.0986328h-1.5395508V16.0214043z M83.1918945,19.5497246
		c0.7695312,0,1.2192383-0.4599609,1.2192383-1.0595703v-0.0205078c0-0.6894531-0.4799805-1.0585938-1.2495117-1.0585938h-1.1889648
		v2.1386719H83.1918945z"/>
	<path class="st0" d="M86.6337891,21.9979668l0.909668-1.0888672c0.6293945,0.5195312,1.2890625,0.8486328,2.0888672,0.8486328
		c0.6293945,0,1.0092773-0.2490234,1.0092773-0.6591797v-0.0195312c0-0.390625-0.2397461-0.5898438-1.4091797-0.8896484
		c-1.4091797-0.3603516-2.3188477-0.75-2.3188477-2.1386719v-0.0205078c0-1.2695312,1.0195312-2.1083984,2.4487305-2.1083984
		c1.0195312,0,1.8886719,0.3193359,2.5986328,0.8886719l-0.7998047,1.1601562
		c-0.6196289-0.4296875-1.2290039-0.6904297-1.8188477-0.6904297s-0.8994141,0.2705078-0.8994141,0.6103516v0.0195312
		c0,0.4599609,0.2998047,0.6103516,1.5087891,0.9199219c1.4194336,0.3691406,2.2192383,0.8789062,2.2192383,2.0986328v0.0195312
		c0,1.3896484-1.0595703,2.1689453-2.5688477,2.1689453C88.5424805,23.1171074,87.4731445,22.7479668,86.6337891,21.9979668z"/>
	<path class="st0" d="M95.1826172,20.258709l-2.6884766-4.2373047h1.7988281l1.6689453,2.8085938l1.6992188-2.8085938h1.7490234
		l-2.6884766,4.2080078v2.7880859h-1.5390625V20.258709z"/>
	<path class="st0" d="M99.4736328,19.5389824v-0.0195312c0-1.9892578,1.4990234-3.6181641,3.6479492-3.6181641
		c1.3193359,0,2.1088867,0.4394531,2.7583008,1.0791016l-0.9794922,1.1298828
		c-0.5395508-0.4902344-1.0893555-0.7900391-1.7890625-0.7900391c-1.1791992,0-2.0288086,0.9794922-2.0288086,2.1796875v0.0195312
		c0,1.1992188,0.8295898,2.1992188,2.0288086,2.1992188c0.7998047,0,1.2895508-0.3203125,1.8393555-0.8203125l0.9794922,0.9902344
		c-0.7197266,0.7695312-1.5195312,1.2490234-2.8686523,1.2490234
		C101.0029297,23.1376152,99.4736328,21.548748,99.4736328,19.5389824z"/>
	<path class="st0" d="M107.1630859,16.0214043h1.5395508v2.7685547h2.8383789v-2.7685547h1.5390625v6.9960938h-1.5390625v-2.8085938
		h-2.8383789v2.8085938h-1.5395508V16.0214043z"/>
	<path class="st0" d="M114.4536133,19.5389824v-0.0195312c0-1.9892578,1.5688477-3.6181641,3.7280273-3.6181641
		c2.1586914,0,3.7080078,1.609375,3.7080078,3.5986328v0.0195312c0,1.9892578-1.5693359,3.6181641-3.7280273,3.6181641
		C116.0024414,23.1376152,114.4536133,21.5282402,114.4536133,19.5389824z M120.2802734,19.5389824v-0.0195312
		c0-1.1992188-0.8793945-2.1992188-2.1186523-2.1992188S116.0625,18.2997246,116.0625,19.4999199v0.0195312
		c0,1.1992188,0.8798828,2.1992188,2.1191406,2.1992188S120.2802734,20.7391777,120.2802734,19.5389824z"/>
	<path class="st0" d="M124.5922852,17.4403496h-2.1289062v-1.4189453h5.796875v1.4189453h-2.1289062v5.5771484h-1.5390625
		V17.4403496z"/>
	<path class="st0" d="M129.5131836,16.0214043h1.5390625v6.9960938h-1.5390625V16.0214043z"/>
	<path class="st0" d="M132.4931641,19.5389824v-0.0195312c0-1.9892578,1.4990234-3.6181641,3.6479492-3.6181641
		c1.3193359,0,2.1088867,0.4394531,2.7583008,1.0791016l-0.9794922,1.1298828
		c-0.5395508-0.4902344-1.0893555-0.7900391-1.7890625-0.7900391c-1.1791992,0-2.0288086,0.9794922-2.0288086,2.1796875v0.0195312
		c0,1.1992188,0.8295898,2.1992188,2.0288086,2.1992188c0.7998047,0,1.2895508-0.3203125,1.8393555-0.8203125l0.9794922,0.9902344
		c-0.7197266,0.7695312-1.5195312,1.2490234-2.8686523,1.2490234
		C134.0224609,23.1376152,132.4931641,21.548748,132.4931641,19.5389824z"/>
	<path class="st0" d="M143.1826172,16.0214043h3.1982422c0.8896484,0,1.5791016,0.25,2.0390625,0.7099609
		c0.3896484,0.3896484,0.5996094,0.9394531,0.5996094,1.5986328v0.0205078c0,1.1289062-0.609375,1.8388672-1.4990234,2.1679688
		l1.7089844,2.4990234h-1.7988281l-1.4995117-2.2382812h-1.2089844v2.2382812h-1.5395508V16.0214043z M146.28125,19.4198418
		c0.7495117,0,1.1791992-0.4003906,1.1791992-0.9902344v-0.0195312c0-0.6601562-0.4599609-0.9990234-1.2094727-0.9990234h-1.5288086
		v2.0087891H146.28125z"/>
	<path class="st0" d="M150.4125977,16.0214043h5.2773438v1.3691406h-3.7480469v1.4189453h3.2983398v1.3691406h-3.2983398v1.4697266
		h3.7978516v1.3691406h-5.3271484V16.0214043z"/>
	<path class="st0" d="M156.8027344,19.5389824v-0.0195312c0-1.9892578,1.5493164-3.6181641,3.6679688-3.6181641
		c1.2592773,0,2.019043,0.3398438,2.7485352,0.9599609l-0.9697266,1.1689453
		c-0.5395508-0.4501953-1.0195312-0.7099609-1.8286133-0.7099609c-1.1196289,0-2.0092773,0.9902344-2.0092773,2.1796875v0.0195312
		c0,1.2792969,0.8798828,2.21875,2.1191406,2.21875c0.5595703,0,1.059082-0.1396484,1.4492188-0.4199219v-0.9990234h-1.5493164
		v-1.3291016h3.0385742v3.0380859c-0.7197266,0.609375-1.7094727,1.109375-2.9887695,1.109375
		C158.3017578,23.1376152,156.8027344,21.6083183,156.8027344,19.5389824z"/>
	<path class="st0" d="M165.0229492,16.0214043h1.5390625v6.9960938h-1.5390625V16.0214043z"/>
	<path class="st0" d="M168.3125,16.0214043h1.6591797l1.8388672,2.9580078l1.8393555-2.9580078h1.6591797v6.9960938h-1.5292969
		v-4.5673828l-1.9692383,2.9882812h-0.0395508l-1.9492188-2.9580078v4.5371094H168.3125V16.0214043z"/>
	<path class="st0" d="M176.9921875,16.0214043h5.2773438v1.3691406h-3.7480469v1.4189453h3.2983398v1.3691406h-3.2983398v1.4697266
		h3.7978516v1.3691406h-5.3271484V16.0214043z"/>
	<path class="st0" d="M183.6923828,16.0214043h1.4194336l3.2783203,4.3076172v-4.3076172h1.519043v6.9960938h-1.309082
		l-3.3881836-4.4472656v4.4472656h-1.5195312V16.0214043z"/>
</g>
<g>
	<g>
		<path class="st1" d="M202.6826172,16.0369987l0.197998-0.198c5.2409668-0.1189995,8.256958-3.3349972,8.256958-7.145998V8.6140022
			c0-3.2550011-2.539978-6.788002-6.5889893-6.788002c-3.1760254,0-5.5969849,1.5480003-7.6610107,4.0880013l-1.4299927-1.1900024
			C197.7205811,1.9049988,200.4195557,0,204.6275635,0c5.2399902,0,8.6140137,4.2869987,8.6140137,8.5340004v0.0800018
			c0,4.9219971-3.8110352,8.3359966-8.414978,8.8919983l-0.2420044,5.5569992h-1.7059937L202.6826172,16.0369987z"/>
	</g>
	<g>
		<path class="st1" d="M204.9477539,25.831398c0,0.6650009-0.5389404,1.2040005-1.2039795,1.2040005
			c-0.664978,0-1.2039795-0.5389996-1.2039795-1.2040005c0-0.664999,0.5390015-1.2039986,1.2039795-1.2039986
			C204.4088135,24.6273994,204.9477539,25.166399,204.9477539,25.831398"/>
	</g>
</g>
</svg>
