<?xml version="1.0" encoding="utf-8"?>
<!-- Generator: Adobe Illustrator 26.2.1, SVG Export Plug-In . SVG Version: 6.00 Build 0)  -->
<svg version="1.1" id="Layer_1" xmlns="http://www.w3.org/2000/svg" xmlns:xlink="http://www.w3.org/1999/xlink" x="0px" y="0px"
	 viewBox="0 0 234.6 44" style="enable-background:new 0 0 234.6 44;" xml:space="preserve">
<style type="text/css">
	.st0{fill:#FFFFFF;}
</style>
<g>
	<path class="st0" d="M64.9,6h2.4c2.2,0,3.7,1.5,3.7,3.5v0c0,2-1.5,3.5-3.7,3.5h-2.4V6z M65.7,6.8v5.5h1.6c1.8,0,2.9-1.2,2.9-2.7v0
		c0-1.5-1.1-2.8-2.9-2.8H65.7z"/>
	<path class="st0" d="M72.4,9.5L72.4,9.5c0-1.9,1.4-3.6,3.6-3.6s3.6,1.7,3.6,3.6v0c0,1.9-1.4,3.6-3.6,3.6S72.4,11.5,72.4,9.5z
		 M78.8,9.5L78.8,9.5c0-1.6-1.2-2.9-2.8-2.9s-2.7,1.3-2.7,2.9v0c0,1.6,1.2,2.9,2.8,2.9S78.8,11.1,78.8,9.5z"/>
	<path class="st0" d="M81.2,6h5.1v0.7H82v2.4h3.8v0.7H82v2.4h4.3V13h-5.1V6z"/>
	<path class="st0" d="M87.5,12l0.5-0.6c0.7,0.7,1.4,1,2.4,1c0.9,0,1.6-0.5,1.6-1.2v0c0-0.6-0.3-1-1.8-1.3c-1.6-0.3-2.3-0.9-2.3-2v0
		c0-1.1,1-1.9,2.3-1.9c1,0,1.7,0.3,2.5,0.9l-0.5,0.6c-0.6-0.5-1.3-0.8-2-0.8c-0.9,0-1.5,0.5-1.5,1.1v0c0,0.7,0.4,1,1.9,1.4
		c1.6,0.3,2.3,0.9,2.3,2v0c0,1.2-1,2-2.4,2C89.2,13.1,88.3,12.7,87.5,12z"/>
	<path class="st0" d="M96.9,12l0.5-0.6c0.7,0.7,1.4,1,2.4,1c0.9,0,1.6-0.5,1.6-1.2v0c0-0.6-0.3-1-1.8-1.3c-1.6-0.3-2.3-0.9-2.3-2v0
		c0-1.1,1-1.9,2.3-1.9c1,0,1.7,0.3,2.5,0.9l-0.5,0.6c-0.6-0.5-1.3-0.8-2-0.8c-0.9,0-1.5,0.5-1.5,1.1v0c0,0.7,0.4,1,1.9,1.4
		c1.6,0.3,2.3,0.9,2.3,2v0c0,1.2-1,2-2.4,2C98.6,13.1,97.7,12.7,96.9,12z"/>
	<path class="st0" d="M103.7,6h0.8v3.1h4V6h0.8v7h-0.8V9.9h-4V13h-0.8V6z"/>
	<path class="st0" d="M111.3,6h5.1v0.7h-4.3v2.4h3.8v0.7h-3.8v2.4h4.3V13h-5.1V6z"/>
	<path class="st0" d="M121,6h0.8v4.2l4-4.2h1l-3,3.1L127,13h-1l-2.7-3.4l-1.5,1.5V13H121V6z"/>
	<path class="st0" d="M128.2,6h0.7l4.4,5.6V6h0.8v7h-0.6L129,7.3V13h-0.8V6z"/>
	<path class="st0" d="M135.8,9.5L135.8,9.5c0-1.9,1.4-3.6,3.6-3.6s3.6,1.7,3.6,3.6v0c0,1.9-1.4,3.6-3.6,3.6S135.8,11.5,135.8,9.5z
		 M142.1,9.5L142.1,9.5c0-1.6-1.2-2.9-2.8-2.9s-2.7,1.3-2.7,2.9v0c0,1.6,1.2,2.9,2.8,2.9S142.1,11.1,142.1,9.5z"/>
	<path class="st0" d="M143.7,6h0.9l2,5.8l1.9-5.8h0.6l1.9,5.8l2-5.8h0.8l-2.5,7h-0.7l-1.9-5.7l-1.9,5.7h-0.7L143.7,6z"/>
	<path class="st0" d="M157.8,6h0.9l2,5.8l1.9-5.8h0.6l1.9,5.8l2-5.8h0.8l-2.5,7h-0.7l-1.9-5.7l-1.9,5.7h-0.7L157.8,6z"/>
	<path class="st0" d="M169.4,6h0.8v3.1h4V6h0.8v7h-0.8V9.9h-4V13h-0.8V6z"/>
	<path class="st0" d="M177,6h5.1v0.7h-4.3v2.4h3.8v0.7h-3.8v2.4h4.3V13H177V6z"/>
	<path class="st0" d="M183.7,6h0.7l4.4,5.6V6h0.8v7H189l-4.5-5.7V13h-0.8V6z"/>
</g>
<g>
	<path class="st0" d="M59.9,16h1.5v2.8h2.8V16h1.5v7h-1.5v-2.8h-2.8V23h-1.5V16z"/>
	<path class="st0" d="M67.5,16h5.3v1.4H69v1.4h3.3v1.4H69v1.5h3.8V23h-5.3V16z"/>
	<path class="st0" d="M74.2,16h3.2c0.9,0,1.6,0.2,2,0.7c0.4,0.4,0.6,0.9,0.6,1.6v0c0,1.1-0.6,1.8-1.5,2.2l1.7,2.5h-1.8l-1.5-2.2
		h-1.2V23h-1.5V16z M77.3,19.4c0.7,0,1.2-0.4,1.2-1v0c0-0.7-0.5-1-1.2-1h-1.5v2H77.3z"/>
	<path class="st0" d="M84.4,16h1.4l3.3,4.3V16h1.5v7h-1.3l-3.4-4.4V23h-1.5V16z"/>
	<path class="st0" d="M92.3,16h5.3v1.4h-3.7v1.4h3.3v1.4h-3.3v1.5h3.8V23h-5.3V16z"/>
	<path class="st0" d="M105.1,16l-2.3,3.4l2.4,3.6h-1.8l-1.6-2.4l-1.6,2.4h-1.7l2.4-3.6L98.6,16h1.8l1.5,2.3l1.5-2.3H105.1z"/>
	<path class="st0" d="M107.9,17.4h-2.1V16h5.8v1.4h-2.1V23h-1.5V17.4z"/>
	<path class="st0" d="M115.8,16h1.7l1.8,3l1.8-3h1.7v7h-1.5v-4.6l-2,3h0l-1.9-3V23h-1.5V16z"/>
	<path class="st0" d="M124.5,16h5.3v1.4H126v1.4h3.3v1.4H126v1.5h3.8V23h-5.3V16z"/>
	<path class="st0" d="M133.6,16h1.4l3,7h-1.6l-0.6-1.6h-3l-0.6,1.6h-1.6L133.6,16z M135.2,20.1l-0.9-2.3l-0.9,2.3H135.2z"/>
	<path class="st0" d="M139.1,16h1.5v5.6h3.5V23h-5V16z"/>
</g>
<g>
	<path class="st0" d="M147.9,16h0.9l2,5.8l1.9-5.8h0.6l1.9,5.8l2-5.8h0.8l-2.5,7h-0.7l-1.9-5.7l-1.9,5.7h-0.7L147.9,16z"/>
	<path class="st0" d="M159.6,16h0.8v7h-0.8V16z"/>
	<path class="st0" d="M162.4,16h0.8v6.3h3.9V23h-4.7V16z"/>
	<path class="st0" d="M168.5,16h0.8v6.3h3.9V23h-4.7V16z"/>
	<path class="st0" d="M177.7,16h3c0.8,0,1.4,0.2,1.8,0.6c0.3,0.3,0.4,0.7,0.4,1.1v0c0,0.9-0.6,1.4-1.1,1.6c0.8,0.2,1.5,0.7,1.5,1.7
		v0c0,1.2-1,1.9-2.5,1.9h-3.1V16z M182.1,17.9c0-0.7-0.5-1.1-1.5-1.1h-2.1v2.4h2.1C181.5,19.1,182.1,18.7,182.1,17.9L182.1,17.9z
		 M180.7,19.8h-2.2v2.5h2.3c1.1,0,1.7-0.5,1.7-1.2v0C182.5,20.3,181.9,19.8,180.7,19.8z"/>
	<path class="st0" d="M184.9,16h5.1v0.7h-4.3v2.4h3.8v0.7h-3.8v2.4h4.3V23h-5.1V16z"/>
</g>
</svg>
