<?xml version="1.0" encoding="utf-8"?>
<!-- Generator: Adobe Illustrator 26.3.0, SVG Export Plug-In . SVG Version: 6.00 Build 0)  -->
<svg version="1.1" id="Layer_1" xmlns="http://www.w3.org/2000/svg" xmlns:xlink="http://www.w3.org/1999/xlink" x="0px" y="0px"
	 viewBox="0 0 234.6191406 42.2949219" style="enable-background:new 0 0 234.6191406 42.2949219;" xml:space="preserve">
<style type="text/css">
	.st0{fill:#FFFFFF;}
	.st1{fill:#35C4AF;}
</style>
<g>
	<g>
		<g>
			<g>
				<g>
					<g>
						<path class="st0" d="M0.0664062,31.1201172h3.0341797v0.4316406H0.5400391v1.4326172h2.2910156v0.4316406H0.5400391v1.4697266
							h2.5908203v0.4316406H0.0664062V31.1201172z"/>
						<path class="st0" d="M3.9423828,31.1201172h1.5712891c0.9472656,0,1.5712891,0.5029297,1.5712891,1.3310547v0.0117188
							c0,0.9052734-0.7558594,1.3730469-1.6494141,1.3730469H4.4160156v1.4814453H3.9423828V31.1201172z M5.453125,33.4042969
							c0.6962891,0,1.1513672-0.3720703,1.1513672-0.9238281V32.46875c0-0.5996094-0.4492188-0.9111328-1.1269531-0.9111328
							H4.4160156v1.8466797H5.453125z"/>
						<path class="st0" d="M7.6210938,33.2304688V33.21875c0-1.1875,0.8867188-2.1708984,2.1220703-2.1708984
							c0.7617188,0,1.2177734,0.2695312,1.6376953,0.6650391l-0.3242188,0.3486328
							c-0.3535156-0.3359375-0.7490234-0.5761719-1.3193359-0.5761719c-0.9296875,0-1.625,0.7558594-1.625,1.7207031V33.21875
							c0,0.9716797,0.7021484,1.7324219,1.625,1.7324219c0.5761719,0,0.9541016-0.2216797,1.3554688-0.6054688l0.3115234,0.3056641
							c-0.4375,0.4443359-0.9169922,0.7382812-1.6787109,0.7382812C8.5146484,35.3896484,7.6210938,34.4355469,7.6210938,33.2304688
							z"/>
						<path class="st0" d="M12.1142578,31.1201172h0.4736328v3.7597656h2.3623047v0.4375h-2.8359375V31.1201172z"/>
						<path class="st0" d="M15.4980469,33.5605469v-2.4404297h0.4736328v2.4101562
							c0,0.9052734,0.4804688,1.4150391,1.2841797,1.4150391c0.7734375,0,1.2646484-0.4677734,1.2646484-1.3847656v-2.4404297
							h0.4736328v2.4042969c0,1.2236328-0.7011719,1.859375-1.7509766,1.859375
							C16.2060547,35.3837891,15.4980469,34.7480469,15.4980469,33.5605469z"/>
						<path class="st0" d="M19.6982422,34.7060547l0.2939453-0.3476562
							c0.4384766,0.3955078,0.8574219,0.5927734,1.4394531,0.5927734c0.5634766,0,0.9355469-0.2998047,0.9355469-0.7128906
							v-0.0126953c0-0.3896484-0.2099609-0.6113281-1.0917969-0.796875
							c-0.9648438-0.2099609-1.4091797-0.5224609-1.4091797-1.2119141v-0.0117188
							c0-0.6591797,0.5820312-1.1455078,1.3798828-1.1455078c0.6113281,0,1.0488281,0.1738281,1.4746094,0.515625
							l-0.2753906,0.3662109c-0.3896484-0.3183594-0.7792969-0.4560547-1.2119141-0.4560547
							c-0.5449219,0-0.8935547,0.2998047-0.8935547,0.6777344v0.0117188c0,0.3964844,0.2167969,0.6181641,1.1396484,0.8154297
							c0.9355469,0.2041016,1.3671875,0.5458984,1.3671875,1.1875v0.0126953c0,0.71875-0.5996094,1.1865234-1.4326172,1.1865234
							C20.7480469,35.3769531,20.2021484,35.1552734,19.6982422,34.7060547z"/>
						<path class="st0" d="M25.1328125,31.0898438h0.4443359l1.9130859,4.2275391h-0.5097656l-0.4921875-1.109375h-2.2841797
							l-0.4980469,1.109375h-0.4863281L25.1328125,31.0898438z M26.3027344,33.7822266l-0.9541016-2.140625l-0.9589844,2.140625
							H26.3027344z"/>
						<path class="st0" d="M29.7597656,31.0292969h0.5283203v0.5097656h-0.5283203V31.0292969z M29.7900391,32.2167969h0.4619141
							v3.1005859h-0.4619141V32.2167969z"/>
						<path class="st0" d="M30.9238281,34.921875l0.234375-0.3300781c0.3349609,0.2519531,0.7070312,0.3955078,1.0732422,0.3955078
							c0.3710938,0,0.6416016-0.1914062,0.6416016-0.4912109v-0.0126953c0-0.3115234-0.3662109-0.4316406-0.7734375-0.5449219
							c-0.4863281-0.1386719-1.0253906-0.3066406-1.0253906-0.8759766v-0.0117188
							c0-0.5341797,0.4433594-0.8876953,1.0546875-0.8876953c0.3779297,0,0.7978516,0.1318359,1.1152344,0.3417969
							l-0.2089844,0.3476562c-0.2880859-0.1855469-0.6181641-0.2998047-0.9179688-0.2998047
							c-0.3662109,0-0.5996094,0.1923828-0.5996094,0.4501953v0.0117188c0,0.2939453,0.3837891,0.4082031,0.7978516,0.5341797
							c0.4794922,0.1435547,0.9951172,0.3291016,0.9951172,0.8867188v0.0126953
							c0,0.5869141-0.4853516,0.9287109-1.1035156,0.9287109C31.7636719,35.3769531,31.2714844,35.203125,30.9238281,34.921875z"/>
						<path class="st0" d="M35.6933594,31.0292969h0.5283203v0.5097656h-0.5283203V31.0292969z M35.7236328,32.2167969h0.4619141
							v3.1005859h-0.4619141V32.2167969z"/>
						<path class="st0" d="M37.1152344,32.2167969h0.4619141v0.5400391
							c0.2041016-0.3359375,0.5273438-0.6054688,1.0615234-0.6054688c0.7490234,0,1.1875,0.5039062,1.1875,1.2412109v1.9248047
							h-0.4619141v-1.8105469c0-0.5761719-0.3115234-0.9355469-0.8574219-0.9355469
							c-0.5341797,0-0.9296875,0.3896484-0.9296875,0.9707031v1.7753906h-0.4619141V32.2167969z"/>
						<path class="st0" d="M40.4814453,33.7763672v-0.0117188c0-1.0136719,0.7373047-1.6132812,1.4814453-1.6132812
							c0.5751953,0,0.9472656,0.3115234,1.1865234,0.6591797v-1.8710938h0.4619141v4.3779297h-0.4619141v-0.6240234
							c-0.2509766,0.3720703-0.6171875,0.6904297-1.1865234,0.6904297
							C41.21875,35.3837891,40.4814453,34.7958984,40.4814453,33.7763672z M43.1679688,33.7705078v-0.0126953
							c0-0.7128906-0.5458984-1.1933594-1.1210938-1.1933594c-0.5996094,0-1.0917969,0.4443359-1.0917969,1.1933594v0.0126953
							c0,0.7314453,0.5039062,1.1992188,1.0917969,1.1992188C42.6220703,34.9697266,43.1679688,34.4833984,43.1679688,33.7705078z"
							/>
						<path class="st0" d="M44.5136719,31.0292969h0.5283203v0.5097656h-0.5283203V31.0292969z M44.5439453,32.2167969h0.4619141
							v3.1005859h-0.4619141V32.2167969z"/>
						<path class="st0" d="M45.7441406,33.7822266v-0.0117188c0-0.8759766,0.6835938-1.6191406,1.5888672-1.6191406
							c0.5878906,0,0.953125,0.2460938,1.2412109,0.5517578l-0.3056641,0.3232422
							c-0.2460938-0.2578125-0.5214844-0.4677734-0.9414062-0.4677734c-0.6298828,0-1.109375,0.5341797-1.109375,1.1992188
							v0.0126953c0,0.6708984,0.4912109,1.2050781,1.1386719,1.2050781c0.3964844,0,0.7021484-0.1982422,0.9482422-0.4619141
							l0.2939453,0.2763672c-0.3125,0.3476562-0.6845703,0.5996094-1.265625,0.5996094
							C46.4277344,35.3896484,45.7441406,34.6513672,45.7441406,33.7822266z"/>
						<path class="st0" d="M48.9775391,34.4179688V34.40625c0-0.6542969,0.5390625-1.0019531,1.3251953-1.0019531
							c0.3955078,0,0.6777344,0.0537109,0.953125,0.1318359v-0.1074219c0-0.5576172-0.3417969-0.8457031-0.9238281-0.8457031
							c-0.3652344,0-0.6533203,0.0957031-0.9414062,0.2275391l-0.1376953-0.3779297
							c0.3417969-0.1552734,0.6777344-0.2578125,1.1279297-0.2578125c0.4375,0,0.7734375,0.1142578,1.0009766,0.3417969
							c0.2099609,0.2099609,0.3173828,0.5097656,0.3173828,0.90625v1.8945312h-0.4433594v-0.4677734
							c-0.2158203,0.2822266-0.5751953,0.5341797-1.1210938,0.5341797
							C49.5585938,35.3837891,48.9775391,35.0537109,48.9775391,34.4179688z M51.2617188,34.1777344v-0.2998047
							c-0.2275391-0.0654297-0.5332031-0.1318359-0.9111328-0.1318359c-0.5820312,0-0.9052734,0.2519531-0.9052734,0.6416016
							v0.0117188c0,0.390625,0.359375,0.6181641,0.7792969,0.6181641
							C50.7939453,35.0175781,51.2617188,34.6699219,51.2617188,34.1777344z"/>
						<path class="st0" d="M52.6738281,34.4960938V32.625h-0.4316406v-0.4082031h0.4316406V31.28125h0.4619141v0.9355469h0.9833984
							V32.625h-0.9833984v1.8105469c0,0.3779297,0.2099609,0.515625,0.5214844,0.515625
							c0.15625,0,0.2880859-0.0292969,0.4501953-0.1074219v0.3955078c-0.1621094,0.0839844-0.3359375,0.1318359-0.5585938,0.1318359
							C53.0517578,35.3710938,52.6738281,35.1259766,52.6738281,34.4960938z"/>
						<path class="st0" d="M54.5039062,33.7763672v-0.0117188c0-0.8935547,0.6289062-1.6132812,1.4863281-1.6132812
							c0.9179688,0,1.4453125,0.7314453,1.4453125,1.6367188c0,0.0605469,0,0.0957031-0.0058594,0.1503906h-2.4580078
							c0.0654297,0.6708984,0.5390625,1.0488281,1.0908203,1.0488281c0.4257812,0,0.7255859-0.1738281,0.9775391-0.4375
							l0.2880859,0.2578125c-0.3115234,0.3476562-0.6894531,0.5820312-1.2773438,0.5820312
							C55.1992188,35.3896484,54.5039062,34.7353516,54.5039062,33.7763672z M56.9677734,33.5966797
							c-0.0478516-0.5644531-0.3710938-1.0556641-0.9892578-1.0556641c-0.5390625,0-0.9472656,0.4492188-1.0068359,1.0556641
							H56.9677734z"/>
						<path class="st0" d="M57.9238281,33.7763672v-0.0117188c0-1.0136719,0.7373047-1.6132812,1.4814453-1.6132812
							c0.5751953,0,0.9472656,0.3115234,1.1865234,0.6591797v-1.8710938h0.4619141v4.3779297h-0.4619141v-0.6240234
							c-0.2509766,0.3720703-0.6171875,0.6904297-1.1865234,0.6904297
							C58.6611328,35.3837891,57.9238281,34.7958984,57.9238281,33.7763672z M60.6103516,33.7705078v-0.0126953
							c0-0.7128906-0.5458984-1.1933594-1.1210938-1.1933594c-0.5996094,0-1.0917969,0.4443359-1.0917969,1.1933594v0.0126953
							c0,0.7314453,0.5039062,1.1992188,1.0917969,1.1992188C60.0644531,34.9697266,60.6103516,34.4833984,60.6103516,33.7705078z"
							/>
						<path class="st0" d="M63.7734375,32.625h-0.4257812v-0.4023438h0.4257812V31.953125
							c0-0.3535156,0.0957031-0.6240234,0.2695312-0.7978516c0.15625-0.1552734,0.3847656-0.2392578,0.6660156-0.2392578
							c0.2158203,0,0.3603516,0.0234375,0.5097656,0.078125v0.4013672c-0.1679688-0.0478516-0.2939453-0.078125-0.4492188-0.078125
							c-0.3603516,0-0.5400391,0.2158203-0.5400391,0.6601562v0.2519531h0.9833984V32.625h-0.9775391v2.6923828h-0.4619141V32.625z"
							/>
						<path class="st0" d="M65.4052734,33.7822266v-0.0117188c0-0.8759766,0.6835938-1.6191406,1.6191406-1.6191406
							c0.9287109,0,1.6123047,0.7314453,1.6123047,1.6064453v0.0126953c0,0.875-0.6894531,1.6191406-1.625,1.6191406
							C66.0820312,35.3896484,65.4052734,34.6582031,65.4052734,33.7822266z M68.1630859,33.7822266v-0.0117188
							c0-0.6660156-0.4970703-1.2119141-1.1513672-1.2119141c-0.6708984,0-1.1328125,0.5458984-1.1328125,1.1992188v0.0126953
							c0,0.6650391,0.4912109,1.2050781,1.1455078,1.2050781C67.6953125,34.9755859,68.1630859,34.4355469,68.1630859,33.7822266z"
							/>
						<path class="st0" d="M69.3291016,32.2167969h0.4619141v0.8095703c0.2275391-0.515625,0.6777344-0.8876953,1.265625-0.8632812
							v0.4980469h-0.0361328c-0.6777344,0-1.2294922,0.4853516-1.2294922,1.4208984v1.2353516h-0.4619141V32.2167969z"/>
						<path class="st0" d="M73.4267578,34.4960938V32.625h-0.4316406v-0.4082031h0.4316406V31.28125h0.4619141v0.9355469h0.9833984
							V32.625h-0.9833984v1.8105469c0,0.3779297,0.2099609,0.515625,0.5214844,0.515625
							c0.15625,0,0.2880859-0.0292969,0.4492188-0.1074219v0.3955078c-0.1611328,0.0839844-0.3349609,0.1318359-0.5576172,0.1318359
							C73.8046875,35.3710938,73.4267578,35.1259766,73.4267578,34.4960938z"/>
						<path class="st0" d="M75.5449219,30.9394531h0.4619141v1.8173828
							c0.2041016-0.3359375,0.5273438-0.6054688,1.0615234-0.6054688c0.7490234,0,1.1875,0.5039062,1.1875,1.2412109v1.9248047
							h-0.4619141v-1.8105469c0-0.5761719-0.3115234-0.9355469-0.8574219-0.9355469
							c-0.5341797,0-0.9296875,0.3896484-0.9296875,0.9707031v1.7753906h-0.4619141V30.9394531z"/>
						<path class="st0" d="M78.9052734,33.7763672v-0.0117188c0-0.8935547,0.6289062-1.6132812,1.4863281-1.6132812
							c0.9179688,0,1.4453125,0.7314453,1.4453125,1.6367188c0,0.0605469,0,0.0957031-0.0058594,0.1503906h-2.4580078
							c0.0654297,0.6708984,0.5390625,1.0488281,1.0908203,1.0488281c0.4257812,0,0.7255859-0.1738281,0.9775391-0.4375
							l0.2880859,0.2578125c-0.3115234,0.3476562-0.6894531,0.5820312-1.2773438,0.5820312
							C79.6005859,35.3896484,78.9052734,34.7353516,78.9052734,33.7763672z M81.3691406,33.5966797
							c-0.0478516-0.5644531-0.3710938-1.0556641-0.9892578-1.0556641c-0.5390625,0-0.9472656,0.4492188-1.0068359,1.0556641
							H81.3691406z"/>
						<path class="st0" d="M84.3173828,34.4960938V32.625h-0.4316406v-0.4082031h0.4316406V31.28125h0.4619141v0.9355469h0.9833984
							V32.625h-0.9833984v1.8105469c0,0.3779297,0.2099609,0.515625,0.5214844,0.515625
							c0.15625,0,0.2880859-0.0292969,0.4492188-0.1074219v0.3955078c-0.1611328,0.0839844-0.3349609,0.1318359-0.5576172,0.1318359
							C84.6953125,35.3710938,84.3173828,35.1259766,84.3173828,34.4960938z"/>
						<path class="st0" d="M86.4345703,32.2167969h0.4619141v0.8095703c0.2275391-0.515625,0.6777344-0.8876953,1.265625-0.8632812
							v0.4980469h-0.0361328c-0.6777344,0-1.2294922,0.4853516-1.2294922,1.4208984v1.2353516h-0.4619141V32.2167969z"/>
						<path class="st0" d="M88.3974609,33.7763672v-0.0117188c0-0.8935547,0.6289062-1.6132812,1.4863281-1.6132812
							c0.9179688,0,1.4453125,0.7314453,1.4453125,1.6367188c0,0.0605469,0,0.0957031-0.0058594,0.1503906h-2.4580078
							c0.0654297,0.6708984,0.5390625,1.0488281,1.0908203,1.0488281c0.4257812,0,0.7255859-0.1738281,0.9775391-0.4375
							l0.2880859,0.2578125c-0.3115234,0.3476562-0.6894531,0.5820312-1.2773438,0.5820312
							C89.0927734,35.3896484,88.3974609,34.7353516,88.3974609,33.7763672z M90.8613281,33.5966797
							c-0.0478516-0.5644531-0.3710938-1.0556641-0.9892578-1.0556641c-0.5390625,0-0.9472656,0.4492188-1.0068359,1.0556641
							H90.8613281z"/>
						<path class="st0" d="M91.7578125,34.4179688V34.40625c0-0.6542969,0.5390625-1.0019531,1.3251953-1.0019531
							c0.3955078,0,0.6777344,0.0537109,0.953125,0.1318359v-0.1074219c0-0.5576172-0.3417969-0.8457031-0.9238281-0.8457031
							c-0.3652344,0-0.6533203,0.0957031-0.9414062,0.2275391l-0.1376953-0.3779297
							c0.3417969-0.1552734,0.6777344-0.2578125,1.1279297-0.2578125c0.4375,0,0.7734375,0.1142578,1.0009766,0.3417969
							c0.2099609,0.2099609,0.3173828,0.5097656,0.3173828,0.90625v1.8945312h-0.4433594v-0.4677734
							c-0.2158203,0.2822266-0.5751953,0.5341797-1.1210938,0.5341797
							C92.3388672,35.3837891,91.7578125,35.0537109,91.7578125,34.4179688z M94.0419922,34.1777344v-0.2998047
							c-0.2275391-0.0654297-0.5332031-0.1318359-0.9111328-0.1318359c-0.5820312,0-0.9052734,0.2519531-0.9052734,0.6416016
							v0.0117188c0,0.390625,0.359375,0.6181641,0.7792969,0.6181641
							C93.5742188,35.0175781,94.0419922,34.6699219,94.0419922,34.1777344z"/>
						<path class="st0" d="M95.4472656,34.4960938V32.625H95.015625v-0.4082031h0.4316406V31.28125h0.4619141v0.9355469h0.9833984
							V32.625h-0.9833984v1.8105469c0,0.3779297,0.2099609,0.515625,0.5214844,0.515625
							c0.15625,0,0.2880859-0.0292969,0.4501953-0.1074219v0.3955078c-0.1621094,0.0839844-0.3359375,0.1318359-0.5585938,0.1318359
							C95.8251953,35.3710938,95.4472656,35.1259766,95.4472656,34.4960938z"/>
						<path class="st0" d="M97.5644531,32.2167969h0.4619141v0.5224609
							c0.2041016-0.3066406,0.4794922-0.5878906,1.0009766-0.5878906c0.5039062,0,0.828125,0.2695312,0.9960938,0.6171875
							c0.2216797-0.3417969,0.5517578-0.6171875,1.0908203-0.6171875c0.7138672,0,1.1513672,0.4794922,1.1513672,1.2470703
							v1.9189453h-0.4609375v-1.8105469c0-0.6005859-0.3007812-0.9355469-0.8037109-0.9355469
							c-0.4677734,0-0.8574219,0.3476562-0.8574219,0.9589844v1.7871094H99.6875v-1.8232422
							c0-0.5810547-0.3056641-0.9228516-0.7978516-0.9228516c-0.4912109,0-0.8632812,0.4072266-0.8632812,0.9775391v1.7685547
							h-0.4619141V32.2167969z"/>
						<path class="st0" d="M102.9169922,33.7763672v-0.0117188c0-0.8935547,0.6289062-1.6132812,1.4863281-1.6132812
							c0.9179688,0,1.4453125,0.7314453,1.4453125,1.6367188c0,0.0605469,0,0.0957031-0.0058594,0.1503906h-2.4580078
							c0.0654297,0.6708984,0.5390625,1.0488281,1.0908203,1.0488281c0.4257812,0,0.7255859-0.1738281,0.9775391-0.4375
							l0.2880859,0.2578125c-0.3115234,0.3476562-0.6894531,0.5820312-1.2773438,0.5820312
							C103.6123047,35.3896484,102.9169922,34.7353516,102.9169922,33.7763672z M105.3808594,33.5966797
							c-0.0478516-0.5644531-0.3710938-1.0556641-0.9892578-1.0556641c-0.5390625,0-0.9472656,0.4492188-1.0068359,1.0556641
							H105.3808594z"/>
						<path class="st0" d="M106.5107422,32.2167969h0.4619141v0.5400391
							c0.2041016-0.3359375,0.5273438-0.6054688,1.0615234-0.6054688c0.7490234,0,1.1875,0.5039062,1.1875,1.2412109v1.9248047
							h-0.4619141v-1.8105469c0-0.5761719-0.3115234-0.9355469-0.8574219-0.9355469
							c-0.5341797,0-0.9296875,0.3896484-0.9296875,0.9707031v1.7753906h-0.4619141V32.2167969z"/>
						<path class="st0" d="M110.21875,34.4960938V32.625h-0.4316406v-0.4082031h0.4316406V31.28125h0.4619141v0.9355469h0.9833984
							V32.625h-0.9833984v1.8105469c0,0.3779297,0.2099609,0.515625,0.5214844,0.515625
							c0.15625,0,0.2880859-0.0292969,0.4501953-0.1074219v0.3955078c-0.1621094,0.0839844-0.3359375,0.1318359-0.5585938,0.1318359
							C110.5966797,35.3710938,110.21875,35.1259766,110.21875,34.4960938z"/>
						<path class="st0" d="M113.8007812,33.7822266v-0.0117188c0-0.8759766,0.6835938-1.6191406,1.6191406-1.6191406
							c0.9287109,0,1.6123047,0.7314453,1.6123047,1.6064453v0.0126953c0,0.875-0.6894531,1.6191406-1.625,1.6191406
							C114.4775391,35.3896484,113.8007812,34.6582031,113.8007812,33.7822266z M116.5585938,33.7822266v-0.0117188
							c0-0.6660156-0.4970703-1.2119141-1.1513672-1.2119141c-0.6708984,0-1.1328125,0.5458984-1.1328125,1.1992188v0.0126953
							c0,0.6650391,0.4912109,1.2050781,1.1455078,1.2050781C116.0908203,34.9755859,116.5585938,34.4355469,116.5585938,33.7822266
							z"/>
						<path class="st0" d="M117.8925781,32.625h-0.4257812v-0.4023438h0.4257812V31.953125
							c0-0.3535156,0.0957031-0.6240234,0.2695312-0.7978516c0.15625-0.1552734,0.3847656-0.2392578,0.6660156-0.2392578
							c0.2158203,0,0.3603516,0.0234375,0.5097656,0.078125v0.4013672c-0.1679688-0.0478516-0.2939453-0.078125-0.4492188-0.078125
							c-0.3603516,0-0.5400391,0.2158203-0.5400391,0.6601562v0.2519531h0.9833984V32.625h-0.9775391v2.6923828h-0.4619141V32.625z"
							/>
						<path class="st0" d="M121.2412109,33.7822266v-0.0117188c0-0.8759766,0.6835938-1.6191406,1.5888672-1.6191406
							c0.5878906,0,0.953125,0.2460938,1.2412109,0.5517578l-0.3056641,0.3232422
							c-0.2460938-0.2578125-0.5214844-0.4677734-0.9414062-0.4677734c-0.6298828,0-1.109375,0.5341797-1.109375,1.1992188
							v0.0126953c0,0.6708984,0.4912109,1.2050781,1.1386719,1.2050781c0.3964844,0,0.7021484-0.1982422,0.9482422-0.4619141
							l0.2939453,0.2763672c-0.3125,0.3476562-0.6835938,0.5996094-1.265625,0.5996094
							C121.9248047,35.3896484,121.2412109,34.6513672,121.2412109,33.7822266z"/>
						<path class="st0" d="M124.7138672,30.9394531h0.4619141v1.8173828
							c0.2041016-0.3359375,0.5273438-0.6054688,1.0615234-0.6054688c0.7490234,0,1.1875,0.5039062,1.1875,1.2412109v1.9248047
							h-0.4619141v-1.8105469c0-0.5761719-0.3115234-0.9355469-0.8574219-0.9355469
							c-0.5341797,0-0.9296875,0.3896484-0.9296875,0.9707031v1.7753906h-0.4619141V30.9394531z"/>
						<path class="st0" d="M128.2666016,32.2167969h0.4619141v0.8095703c0.2275391-0.515625,0.6777344-0.8876953,1.265625-0.8632812
							v0.4980469h-0.0361328c-0.6777344,0-1.2294922,0.4853516-1.2294922,1.4208984v1.2353516h-0.4619141V32.2167969z"/>
						<path class="st0" d="M130.2226562,33.7822266v-0.0117188c0-0.8759766,0.6835938-1.6191406,1.6191406-1.6191406
							c0.9287109,0,1.6123047,0.7314453,1.6123047,1.6064453v0.0126953c0,0.875-0.6894531,1.6191406-1.625,1.6191406
							C130.8994141,35.3896484,130.2226562,34.6582031,130.2226562,33.7822266z M132.9804688,33.7822266v-0.0117188
							c0-0.6660156-0.4970703-1.2119141-1.1513672-1.2119141c-0.6708984,0-1.1328125,0.5458984-1.1328125,1.1992188v0.0126953
							c0,0.6650391,0.4912109,1.2050781,1.1455078,1.2050781C132.5126953,34.9755859,132.9804688,34.4355469,132.9804688,33.7822266
							z"/>
						<path class="st0" d="M134.1464844,32.2167969h0.4619141v0.5400391
							c0.2041016-0.3359375,0.5273438-0.6054688,1.0615234-0.6054688c0.7490234,0,1.1875,0.5039062,1.1875,1.2412109v1.9248047
							h-0.4619141v-1.8105469c0-0.5761719-0.3115234-0.9355469-0.8574219-0.9355469
							c-0.5341797,0-0.9296875,0.3896484-0.9296875,0.9707031v1.7753906h-0.4619141V32.2167969z"/>
						<path class="st0" d="M137.7099609,31.0292969h0.5283203v0.5097656h-0.5283203V31.0292969z M137.7402344,32.2167969h0.4619141
							v3.1005859h-0.4619141V32.2167969z"/>
						<path class="st0" d="M138.9404297,33.7822266v-0.0117188c0-0.8759766,0.6835938-1.6191406,1.5888672-1.6191406
							c0.5878906,0,0.953125,0.2460938,1.2412109,0.5517578l-0.3056641,0.3232422
							c-0.2460938-0.2578125-0.5214844-0.4677734-0.9414062-0.4677734c-0.6298828,0-1.109375,0.5341797-1.109375,1.1992188
							v0.0126953c0,0.6708984,0.4912109,1.2050781,1.1386719,1.2050781c0.3964844,0,0.7021484-0.1982422,0.9482422-0.4619141
							l0.2939453,0.2763672c-0.3125,0.3476562-0.6835938,0.5996094-1.265625,0.5996094
							C139.6240234,35.3896484,138.9404297,34.6513672,138.9404297,33.7822266z"/>
						<path class="st0" d="M144.0703125,30.9394531h0.4619141v1.8173828
							c0.2041016-0.3359375,0.5273438-0.6054688,1.0615234-0.6054688c0.7490234,0,1.1875,0.5039062,1.1875,1.2412109v1.9248047
							h-0.4619141v-1.8105469c0-0.5761719-0.3115234-0.9355469-0.8574219-0.9355469
							c-0.5341797,0-0.9296875,0.3896484-0.9296875,0.9707031v1.7753906h-0.4619141V30.9394531z"/>
						<path class="st0" d="M147.4248047,33.7763672v-0.0117188c0-0.8935547,0.6289062-1.6132812,1.4863281-1.6132812
							c0.9179688,0,1.4453125,0.7314453,1.4453125,1.6367188c0,0.0605469,0,0.0957031-0.0058594,0.1503906h-2.4580078
							c0.0654297,0.6708984,0.5390625,1.0488281,1.0908203,1.0488281c0.4257812,0,0.7255859-0.1738281,0.9775391-0.4375
							l0.2880859,0.2578125c-0.3115234,0.3476562-0.6894531,0.5820312-1.2773438,0.5820312
							C148.1201172,35.3896484,147.4248047,34.7353516,147.4248047,33.7763672z M149.8886719,33.5966797
							c-0.0478516-0.5644531-0.3710938-1.0556641-0.9892578-1.0556641c-0.5390625,0-0.9472656,0.4492188-1.0068359,1.0556641
							H149.8886719z"/>
						<path class="st0" d="M151.0244141,32.2167969h0.4619141v0.6240234c0.2519531-0.3720703,0.6171875-0.6894531,1.1875-0.6894531
							c0.7431641,0,1.4804688,0.5878906,1.4804688,1.6064453v0.0126953c0,1.0126953-0.7314453,1.6132812-1.4804688,1.6132812
							c-0.5761719,0-0.9472656-0.3125-1.1875-0.6601562v1.5527344h-0.4619141V32.2167969z M153.6806641,33.7763672v-0.0117188
							c0-0.7324219-0.5029297-1.2001953-1.0908203-1.2001953c-0.5761719,0-1.1210938,0.4863281-1.1210938,1.1933594v0.0126953
							c0,0.7197266,0.5449219,1.1992188,1.1210938,1.1992188C153.1894531,34.9697266,153.6806641,34.5253906,153.6806641,33.7763672
							z"/>
						<path class="st0" d="M154.6308594,34.4179688V34.40625c0-0.6542969,0.5390625-1.0019531,1.3251953-1.0019531
							c0.3955078,0,0.6777344,0.0537109,0.953125,0.1318359v-0.1074219c0-0.5576172-0.3417969-0.8457031-0.9238281-0.8457031
							c-0.3652344,0-0.6533203,0.0957031-0.9414062,0.2275391l-0.1376953-0.3779297
							c0.3417969-0.1552734,0.6777344-0.2578125,1.1279297-0.2578125c0.4375,0,0.7734375,0.1142578,1.0009766,0.3417969
							c0.2099609,0.2099609,0.3173828,0.5097656,0.3173828,0.90625v1.8945312h-0.4433594v-0.4677734
							c-0.2158203,0.2822266-0.5751953,0.5341797-1.1210938,0.5341797
							C155.2119141,35.3837891,154.6308594,35.0537109,154.6308594,34.4179688z M156.9150391,34.1777344v-0.2998047
							c-0.2275391-0.0654297-0.5332031-0.1318359-0.9111328-0.1318359c-0.5820312,0-0.9052734,0.2519531-0.9052734,0.6416016
							v0.0117188c0,0.390625,0.359375,0.6181641,0.7792969,0.6181641
							C156.4472656,35.0175781,156.9150391,34.6699219,156.9150391,34.1777344z"/>
						<path class="st0" d="M158.3203125,34.4960938V32.625h-0.4316406v-0.4082031h0.4316406V31.28125h0.4619141v0.9355469h0.9833984
							V32.625h-0.9833984v1.8105469c0,0.3779297,0.2099609,0.515625,0.5214844,0.515625
							c0.15625,0,0.2880859-0.0292969,0.4501953-0.1074219v0.3955078c-0.1621094,0.0839844-0.3359375,0.1318359-0.5585938,0.1318359
							C158.6982422,35.3710938,158.3203125,35.1259766,158.3203125,34.4960938z"/>
						<path class="st0" d="M160.4492188,31.0292969h0.5283203v0.5097656h-0.5283203V31.0292969z M160.4794922,32.2167969h0.4619141
							v3.1005859h-0.4619141V32.2167969z"/>
						<path class="st0" d="M162.0341797,34.4960938V32.625h-0.4316406v-0.4082031h0.4316406V31.28125h0.4619141v0.9355469h0.9833984
							V32.625h-0.9833984v1.8105469c0,0.3779297,0.2099609,0.515625,0.5214844,0.515625
							c0.15625,0,0.2880859-0.0292969,0.4492188-0.1074219v0.3955078c-0.1611328,0.0839844-0.3349609,0.1318359-0.5576172,0.1318359
							C162.4121094,35.3710938,162.0341797,35.1259766,162.0341797,34.4960938z"/>
						<path class="st0" d="M164.1630859,31.0292969h0.5283203v0.5097656h-0.5283203V31.0292969z M164.1933594,32.2167969h0.4619141
							v3.1005859h-0.4619141V32.2167969z"/>
						<path class="st0" d="M165.328125,34.921875l0.234375-0.3300781c0.3349609,0.2519531,0.7070312,0.3955078,1.0732422,0.3955078
							c0.3710938,0,0.6416016-0.1914062,0.6416016-0.4912109v-0.0126953c0-0.3115234-0.3662109-0.4316406-0.7734375-0.5449219
							c-0.4863281-0.1386719-1.0253906-0.3066406-1.0253906-0.8759766v-0.0117188
							c0-0.5341797,0.4433594-0.8876953,1.0546875-0.8876953c0.3779297,0,0.7978516,0.1318359,1.1152344,0.3417969
							l-0.2089844,0.3476562c-0.2880859-0.1855469-0.6181641-0.2998047-0.9179688-0.2998047
							c-0.3662109,0-0.5996094,0.1923828-0.5996094,0.4501953v0.0117188c0,0.2939453,0.3837891,0.4082031,0.7978516,0.5341797
							c0.4794922,0.1435547,0.9951172,0.3291016,0.9951172,0.8867188v0.0126953
							c0,0.5869141-0.4853516,0.9287109-1.1035156,0.9287109C166.1679688,35.3769531,165.6757812,35.203125,165.328125,34.921875z"
							/>
						<path class="st0" d="M169.9785156,33.2304688V33.21875c0-1.1875,0.8867188-2.1708984,2.1220703-2.1708984
							c0.7617188,0,1.2177734,0.2695312,1.6376953,0.6650391l-0.3242188,0.3486328
							c-0.3535156-0.3359375-0.7490234-0.5761719-1.3193359-0.5761719c-0.9296875,0-1.625,0.7558594-1.625,1.7207031V33.21875
							c0,0.9716797,0.7021484,1.7324219,1.625,1.7324219c0.5761719,0,0.9541016-0.2216797,1.3554688-0.6054688l0.3115234,0.3056641
							c-0.4375,0.4443359-0.9169922,0.7382812-1.6787109,0.7382812
							C170.8720703,35.3896484,169.9785156,34.4355469,169.9785156,33.2304688z"/>
						<path class="st0" d="M175.7441406,32.2167969h0.5097656l1.0429688,2.5732422l1.0498047-2.5732422h0.4980469l-1.3496094,3.125
							h-0.4082031L175.7441406,32.2167969z"/>
						<path class="st0" d="M179.4394531,31.0292969h0.5283203v0.5097656h-0.5283203V31.0292969z M179.4697266,32.2167969h0.4619141
							v3.1005859h-0.4619141V32.2167969z"/>
						<path class="st0" d="M180.8613281,32.2167969h0.4619141v0.8095703c0.2275391-0.515625,0.6777344-0.8876953,1.265625-0.8632812
							v0.4980469h-0.0361328c-0.6777344,0-1.2294922,0.4853516-1.2294922,1.4208984v1.2353516h-0.4619141V32.2167969z"/>
						<path class="st0" d="M183.0996094,34.1416016v-1.9248047h0.4619141v1.8115234
							c0,0.5751953,0.3115234,0.9355469,0.8574219,0.9355469c0.5273438,0,0.9296875-0.3896484,0.9296875-0.9716797v-1.7753906
							h0.4550781v3.1005859h-0.4550781v-0.5400391c-0.2099609,0.3359375-0.5283203,0.6064453-1.0615234,0.6064453
							C183.5371094,35.3837891,183.0996094,34.8798828,183.0996094,34.1416016z"/>
						<path class="st0" d="M186.4355469,34.921875l0.234375-0.3300781c0.3349609,0.2519531,0.7070312,0.3955078,1.0732422,0.3955078
							c0.3710938,0,0.6416016-0.1914062,0.6416016-0.4912109v-0.0126953c0-0.3115234-0.3662109-0.4316406-0.7734375-0.5449219
							c-0.4863281-0.1386719-1.0253906-0.3066406-1.0253906-0.8759766v-0.0117188
							c0-0.5341797,0.4433594-0.8876953,1.0546875-0.8876953c0.3779297,0,0.7978516,0.1318359,1.1152344,0.3417969
							l-0.2089844,0.3476562c-0.2880859-0.1855469-0.6181641-0.2998047-0.9179688-0.2998047
							c-0.3662109,0-0.5996094,0.1923828-0.5996094,0.4501953v0.0117188c0,0.2939453,0.3837891,0.4082031,0.7978516,0.5341797
							c0.4794922,0.1435547,0.9951172,0.3291016,0.9951172,0.8867188v0.0126953
							c0,0.5869141-0.4853516,0.9287109-1.1035156,0.9287109C187.2753906,35.3769531,186.7832031,35.203125,186.4355469,34.921875z"
							/>
						<path class="st0" d="M191.0859375,33.5966797c0-1.1035156,0.5927734-1.9667969,1.6611328-2.5673828l0.1972656,0.3066406
							c-0.9111328,0.5810547-1.390625,1.3007812-1.390625,2.2607422c0,0.9589844,0.4794922,1.6787109,1.390625,2.2607422
							l-0.1972656,0.3056641C191.6787109,35.5634766,191.0859375,34.7001953,191.0859375,33.5966797z"/>
						<path class="st0" d="M193.7314453,31.1201172h0.4736328v1.8642578h2.4228516v-1.8642578h0.4736328v4.1972656h-0.4736328
							v-1.8886719h-2.4228516v1.8886719h-0.4736328V31.1201172z"/>
						<path class="st0" d="M197.9619141,33.2304688V33.21875c0-1.1875,0.8867188-2.1708984,2.1220703-2.1708984
							c0.7617188,0,1.2177734,0.2695312,1.6376953,0.6650391l-0.3242188,0.3486328
							c-0.3535156-0.3359375-0.7490234-0.5761719-1.3193359-0.5761719c-0.9296875,0-1.625,0.7558594-1.625,1.7207031V33.21875
							c0,0.9716797,0.7021484,1.7324219,1.625,1.7324219c0.5761719,0,0.9541016-0.2216797,1.3554688-0.6054688l0.3115234,0.3056641
							c-0.4375,0.4443359-0.9169922,0.7382812-1.6787109,0.7382812
							C198.8554688,35.3896484,197.9619141,34.4355469,197.9619141,33.2304688z"/>
						<path class="st0" d="M202.0644531,31.1201172h0.5283203l1.4931641,3.6152344l1.4990234-3.6152344h0.5097656
							l-1.8046875,4.2275391h-0.4199219L202.0644531,31.1201172z"/>
						<path class="st0" d="M206.5175781,35.8574219c0.9111328-0.5820312,1.390625-1.3017578,1.390625-2.2607422
							c0-0.9599609-0.4794922-1.6796875-1.390625-2.2607422l0.1982422-0.3066406
							c1.0673828,0.6005859,1.6601562,1.4638672,1.6601562,2.5673828s-0.5927734,1.9667969-1.6601562,2.5664062
							L206.5175781,35.8574219z"/>
						<path class="st0" d="M210.8242188,31.0292969h0.5283203v0.5097656h-0.5283203V31.0292969z M210.8544922,32.2167969h0.4619141
							v3.1005859h-0.4619141V32.2167969z"/>
						<path class="st0" d="M212.2470703,32.2167969h0.4619141v0.5400391
							c0.2041016-0.3359375,0.5273438-0.6054688,1.0615234-0.6054688c0.7490234,0,1.1875,0.5039062,1.1875,1.2412109v1.9248047
							h-0.4619141v-1.8105469c0-0.5761719-0.3115234-0.9355469-0.8574219-0.9355469
							c-0.5341797,0-0.9296875,0.3896484-0.9296875,0.9707031v1.7753906h-0.4619141V32.2167969z"/>
						<path class="st0" d="M215.9667969,32.625h-0.4257812v-0.4023438h0.4257812V31.953125
							c0-0.3535156,0.0957031-0.6240234,0.2695312-0.7978516c0.15625-0.1552734,0.3847656-0.2392578,0.6660156-0.2392578
							c0.2158203,0,0.3603516,0.0234375,0.5097656,0.078125v0.4013672c-0.1679688-0.0478516-0.2939453-0.078125-0.4492188-0.078125
							c-0.3603516,0-0.5400391,0.2158203-0.5400391,0.6601562v0.2519531h0.9833984V32.625h-0.9775391v2.6923828h-0.4619141V32.625z"
							/>
						<path class="st0" d="M217.5996094,33.7763672v-0.0117188c0-0.8935547,0.6289062-1.6132812,1.4863281-1.6132812
							c0.9179688,0,1.4453125,0.7314453,1.4453125,1.6367188c0,0.0605469,0,0.0957031-0.0058594,0.1503906h-2.4580078
							c0.0654297,0.6708984,0.5390625,1.0488281,1.0908203,1.0488281c0.4257812,0,0.7255859-0.1738281,0.9775391-0.4375
							l0.2880859,0.2578125c-0.3115234,0.3476562-0.6894531,0.5820312-1.2773438,0.5820312
							C218.2949219,35.3896484,217.5996094,34.7353516,217.5996094,33.7763672z M220.0634766,33.5966797
							c-0.0478516-0.5644531-0.3710938-1.0556641-0.9892578-1.0556641c-0.5390625,0-0.9472656,0.4492188-1.0068359,1.0556641
							H220.0634766z"/>
						<path class="st0" d="M221.0009766,33.7822266v-0.0117188c0-0.8759766,0.6835938-1.6191406,1.5888672-1.6191406
							c0.5878906,0,0.953125,0.2460938,1.2412109,0.5517578l-0.3056641,0.3232422
							c-0.2460938-0.2578125-0.5214844-0.4677734-0.9414062-0.4677734c-0.6298828,0-1.109375,0.5341797-1.109375,1.1992188
							v0.0126953c0,0.6708984,0.4912109,1.2050781,1.1386719,1.2050781c0.3964844,0,0.7021484-0.1982422,0.9482422-0.4619141
							l0.2939453,0.2763672c-0.3125,0.3476562-0.6835938,0.5996094-1.265625,0.5996094
							C221.6845703,35.3896484,221.0009766,34.6513672,221.0009766,33.7822266z"/>
						<path class="st0" d="M224.6308594,34.4960938V32.625h-0.4316406v-0.4082031h0.4316406V31.28125h0.4619141v0.9355469h0.9833984
							V32.625h-0.9833984v1.8105469c0,0.3779297,0.2099609,0.515625,0.5214844,0.515625
							c0.15625,0,0.2880859-0.0292969,0.4501953-0.1074219v0.3955078c-0.1621094,0.0839844-0.3359375,0.1318359-0.5585938,0.1318359
							C225.0087891,35.3710938,224.6308594,35.1259766,224.6308594,34.4960938z"/>
						<path class="st0" d="M226.7597656,31.0292969h0.5283203v0.5097656h-0.5283203V31.0292969z M226.7900391,32.2167969h0.4619141
							v3.1005859h-0.4619141V32.2167969z"/>
						<path class="st0" d="M227.9912109,33.7822266v-0.0117188c0-0.8759766,0.6835938-1.6191406,1.6191406-1.6191406
							c0.9287109,0,1.6123047,0.7314453,1.6123047,1.6064453v0.0126953c0,0.875-0.6894531,1.6191406-1.625,1.6191406
							C228.6679688,35.3896484,227.9912109,34.6582031,227.9912109,33.7822266z M230.7490234,33.7822266v-0.0117188
							c0-0.6660156-0.4970703-1.2119141-1.1513672-1.2119141c-0.6708984,0-1.1328125,0.5458984-1.1328125,1.1992188v0.0126953
							c0,0.6650391,0.4912109,1.2050781,1.1455078,1.2050781C230.28125,34.9755859,230.7490234,34.4355469,230.7490234,33.7822266z"
							/>
						<path class="st0" d="M231.9082031,32.2167969h0.4619141v0.5400391
							c0.2041016-0.3359375,0.5273438-0.6054688,1.0615234-0.6054688c0.7490234,0,1.1875,0.5039062,1.1875,1.2412109v1.9248047
							h-0.4619141v-1.8105469c0-0.5761719-0.3115234-0.9355469-0.8574219-0.9355469
							c-0.5341797,0-0.9296875,0.3896484-0.9296875,0.9707031v1.7753906h-0.4619141V32.2167969z"/>
					</g>
				</g>
				<g>
					<g>
						<path class="st0" d="M0,37.0292969h0.5283203v0.5097656H0V37.0292969z M0.0302734,38.2167969h0.4619141v3.1005859H0.0302734
							V38.2167969z"/>
						<path class="st0" d="M1.421875,38.2167969h0.4619141v0.5400391c0.2041016-0.3359375,0.5273438-0.6054688,1.0615234-0.6054688
							c0.7490234,0,1.1875,0.5039062,1.1875,1.2412109v1.9248047H3.6708984v-1.8105469
							c0-0.5761719-0.3115234-0.9355469-0.8574219-0.9355469c-0.5341797,0-0.9296875,0.3896484-0.9296875,0.9707031v1.7753906
							H1.421875V38.2167969z"/>
						<path class="st0" d="M6.3964844,40.4179688V40.40625c0-0.6542969,0.5390625-1.0019531,1.3251953-1.0019531
							c0.3955078,0,0.6777344,0.0537109,0.953125,0.1318359v-0.1074219c0-0.5576172-0.3417969-0.8457031-0.9238281-0.8457031
							c-0.3652344,0-0.6533203,0.0957031-0.9414062,0.2275391L6.671875,38.4326172
							c0.3417969-0.1552734,0.6777344-0.2578125,1.1279297-0.2578125c0.4375,0,0.7734375,0.1142578,1.0009766,0.3417969
							c0.2099609,0.2099609,0.3173828,0.5097656,0.3173828,0.90625v1.8945312H8.6748047v-0.4677734
							c-0.2158203,0.2822266-0.5751953,0.5341797-1.1210938,0.5341797
							C6.9775391,41.3837891,6.3964844,41.0537109,6.3964844,40.4179688z M8.6806641,40.1777344v-0.2998047
							C8.453125,39.8125,8.1474609,39.7460938,7.7695312,39.7460938c-0.5820312,0-0.9052734,0.2519531-0.9052734,0.6416016
							v0.0117188c0,0.390625,0.359375,0.6181641,0.7792969,0.6181641
							C8.2128906,41.0175781,8.6806641,40.6699219,8.6806641,40.1777344z"/>
						<path class="st0" d="M9.7802734,39.7763672v-0.0117188c0-1.0136719,0.7373047-1.6132812,1.4814453-1.6132812
							c0.5751953,0,0.9472656,0.3115234,1.1865234,0.6591797v-1.8710938h0.4619141v4.3779297h-0.4619141v-0.6240234
							c-0.2509766,0.3720703-0.6171875,0.6904297-1.1865234,0.6904297
							C10.5175781,41.3837891,9.7802734,40.7958984,9.7802734,39.7763672z M12.4667969,39.7705078v-0.0126953
							c0-0.7128906-0.5458984-1.1933594-1.1210938-1.1933594c-0.5996094,0-1.0917969,0.4443359-1.0917969,1.1933594v0.0126953
							c0,0.7314453,0.5039062,1.1992188,1.0917969,1.1992188C11.9208984,40.9697266,12.4667969,40.4833984,12.4667969,39.7705078z"
							/>
						<path class="st0" d="M13.7519531,40.1416016v-1.9248047h0.4619141v1.8115234
							c0,0.5751953,0.3115234,0.9355469,0.8574219,0.9355469c0.5273438,0,0.9296875-0.3896484,0.9296875-0.9716797v-1.7753906
							h0.4550781v3.1005859h-0.4550781v-0.5400391c-0.2099609,0.3359375-0.5283203,0.6064453-1.0615234,0.6064453
							C14.1894531,41.3837891,13.7519531,40.8798828,13.7519531,40.1416016z"/>
						<path class="st0" d="M17.3876953,36.9394531h0.4619141v4.3779297h-0.4619141V36.9394531z"/>
						<path class="st0" d="M18.9423828,40.4960938V38.625h-0.4316406v-0.4082031h0.4316406V37.28125h0.4619141v0.9355469h0.9833984
							V38.625h-0.9833984v1.8105469c0,0.3779297,0.2099609,0.515625,0.5214844,0.515625
							c0.15625,0,0.2880859-0.0292969,0.4492188-0.1074219v0.3955078c-0.1611328,0.0839844-0.3349609,0.1318359-0.5576172,0.1318359
							C19.3203125,41.3710938,18.9423828,41.1259766,18.9423828,40.4960938z"/>
						<path class="st0" d="M20.8017578,40.921875l0.234375-0.3300781c0.3349609,0.2519531,0.7070312,0.3955078,1.0732422,0.3955078
							c0.3710938,0,0.6416016-0.1914062,0.6416016-0.4912109v-0.0126953c0-0.3115234-0.3662109-0.4316406-0.7734375-0.5449219
							c-0.4863281-0.1386719-1.0253906-0.3066406-1.0253906-0.8759766v-0.0117188
							c0-0.5341797,0.4433594-0.8876953,1.0546875-0.8876953c0.3779297,0,0.7978516,0.1318359,1.1152344,0.3417969
							l-0.2089844,0.3476562c-0.2880859-0.1855469-0.6181641-0.2998047-0.9179688-0.2998047
							c-0.3662109,0-0.5996094,0.1923828-0.5996094,0.4501953v0.0117188c0,0.2939453,0.3837891,0.4082031,0.7978516,0.5341797
							c0.4794922,0.1435547,0.9951172,0.3291016,0.9951172,0.8867188v0.0126953
							c0,0.5869141-0.4853516,0.9287109-1.1035156,0.9287109C21.6416016,41.3769531,21.1494141,41.203125,20.8017578,40.921875z"/>
						<path class="st0" d="M23.84375,40.6875h0.5517578v0.6298828H23.84375V40.6875z"/>
						<path class="st0" d="M26.9580078,37.1201172h3.0166016v0.4375h-2.5429688v1.4990234h2.2724609v0.4316406h-2.2724609v1.8291016
							h-0.4736328V37.1201172z"/>
						<path class="st0" d="M30.390625,39.7822266v-0.0117188c0-0.8759766,0.6835938-1.6191406,1.6191406-1.6191406
							c0.9287109,0,1.6123047,0.7314453,1.6123047,1.6064453v0.0126953c0,0.875-0.6894531,1.6191406-1.625,1.6191406
							C31.0673828,41.3896484,30.390625,40.6582031,30.390625,39.7822266z M33.1484375,39.7822266v-0.0117188
							c0-0.6660156-0.4970703-1.2119141-1.1513672-1.2119141c-0.6708984,0-1.1328125,0.5458984-1.1328125,1.1992188v0.0126953
							c0,0.6650391,0.4912109,1.2050781,1.1455078,1.2050781C32.6806641,40.9755859,33.1484375,40.4355469,33.1484375,39.7822266z"
							/>
						<path class="st0" d="M34.3076172,38.2167969h0.4619141v0.8095703c0.2275391-0.515625,0.6777344-0.8876953,1.265625-0.8632812
							v0.4980469h-0.0361328c-0.6777344,0-1.2294922,0.4853516-1.2294922,1.4208984v1.2353516h-0.4619141V38.2167969z"/>
						<path class="st0" d="M38.3271484,37.1201172h3.0341797v0.4316406h-2.5605469v1.4326172h2.2910156v0.4316406h-2.2910156
							v1.4697266h2.5908203v0.4316406h-3.0644531V37.1201172z"/>
						<path class="st0" d="M42.1308594,39.5605469v-2.4404297h0.4736328v2.4101562
							c0,0.9052734,0.4804688,1.4150391,1.2841797,1.4150391c0.7734375,0,1.2646484-0.4677734,1.2646484-1.3847656v-2.4404297
							h0.4736328v2.4042969c0,1.2236328-0.7011719,1.859375-1.7509766,1.859375
							C42.8388672,41.3837891,42.1308594,40.7480469,42.1308594,39.5605469z"/>
						<path class="st0" d="M48.2636719,37.1201172h0.4736328v1.8642578h2.4228516v-1.8642578h0.4736328v4.1972656h-0.4736328
							v-1.8886719h-2.4228516v1.8886719h-0.4736328V37.1201172z"/>
						<path class="st0" d="M52.4101562,39.7763672v-0.0117188c0-0.8935547,0.6289062-1.6132812,1.4863281-1.6132812
							c0.9179688,0,1.4453125,0.7314453,1.4453125,1.6367188c0,0.0605469,0,0.0957031-0.0058594,0.1503906h-2.4580078
							c0.0654297,0.6708984,0.5390625,1.0488281,1.0908203,1.0488281c0.4257812,0,0.7255859-0.1738281,0.9775391-0.4375
							l0.2880859,0.2578125c-0.3115234,0.3476562-0.6894531,0.5820312-1.2773438,0.5820312
							C53.1054688,41.3896484,52.4101562,40.7353516,52.4101562,39.7763672z M54.8740234,39.5966797
							c-0.0478516-0.5644531-0.3710938-1.0556641-0.9892578-1.0556641c-0.5390625,0-0.9472656,0.4492188-1.0068359,1.0556641
							H54.8740234z"/>
						<path class="st0" d="M55.7695312,40.4179688V40.40625c0-0.6542969,0.5390625-1.0019531,1.3251953-1.0019531
							c0.3955078,0,0.6777344,0.0537109,0.953125,0.1318359v-0.1074219c0-0.5576172-0.3417969-0.8457031-0.9238281-0.8457031
							c-0.3652344,0-0.6533203,0.0957031-0.9414062,0.2275391l-0.1376953-0.3779297
							c0.3417969-0.1552734,0.6777344-0.2578125,1.1279297-0.2578125c0.4375,0,0.7734375,0.1142578,1.0009766,0.3417969
							c0.2099609,0.2099609,0.3173828,0.5097656,0.3173828,0.90625v1.8945312h-0.4433594v-0.4677734
							c-0.2158203,0.2822266-0.5751953,0.5341797-1.1210938,0.5341797
							C56.3505859,41.3837891,55.7695312,41.0537109,55.7695312,40.4179688z M58.0537109,40.1777344v-0.2998047
							c-0.2275391-0.0654297-0.5332031-0.1318359-0.9111328-0.1318359c-0.5820312,0-0.9052734,0.2519531-0.9052734,0.6416016
							v0.0117188c0,0.390625,0.359375,0.6181641,0.7792969,0.6181641
							C57.5859375,41.0175781,58.0537109,40.6699219,58.0537109,40.1777344z"/>
						<path class="st0" d="M59.375,36.9394531h0.4619141v4.3779297H59.375V36.9394531z"/>
						<path class="st0" d="M60.9296875,40.4960938V38.625h-0.4316406v-0.4082031h0.4316406V37.28125h0.4619141v0.9355469H62.375
							V38.625h-0.9833984v1.8105469c0,0.3779297,0.2099609,0.515625,0.5214844,0.515625
							c0.15625,0,0.2880859-0.0292969,0.4501953-0.1074219v0.3955078c-0.1621094,0.0839844-0.3359375,0.1318359-0.5585938,0.1318359
							C61.3076172,41.3710938,60.9296875,41.1259766,60.9296875,40.4960938z"/>
						<path class="st0" d="M63.046875,36.9394531h0.4619141v1.8173828c0.2041016-0.3359375,0.5273438-0.6054688,1.0615234-0.6054688
							c0.7490234,0,1.1875,0.5039062,1.1875,1.2412109v1.9248047h-0.4619141v-1.8105469
							c0-0.5761719-0.3115234-0.9355469-0.8574219-0.9355469c-0.5341797,0-0.9296875,0.3896484-0.9296875,0.9707031v1.7753906
							H63.046875V36.9394531z"/>
						<path class="st0" d="M66.4013672,39.7822266v-0.0117188c0-0.8759766,0.6835938-1.6191406,1.5888672-1.6191406
							c0.5878906,0,0.953125,0.2460938,1.2412109,0.5517578l-0.3056641,0.3232422
							c-0.2460938-0.2578125-0.5214844-0.4677734-0.9414062-0.4677734c-0.6298828,0-1.109375,0.5341797-1.109375,1.1992188
							v0.0126953c0,0.6708984,0.4912109,1.2050781,1.1386719,1.2050781c0.3964844,0,0.7021484-0.1982422,0.9482422-0.4619141
							l0.2939453,0.2763672c-0.3125,0.3476562-0.6835938,0.5996094-1.265625,0.5996094
							C67.0849609,41.3896484,66.4013672,40.6513672,66.4013672,39.7822266z"/>
						<path class="st0" d="M69.6416016,40.4179688V40.40625c0-0.6542969,0.5390625-1.0019531,1.3251953-1.0019531
							c0.3955078,0,0.6777344,0.0537109,0.953125,0.1318359v-0.1074219c0-0.5576172-0.3417969-0.8457031-0.9238281-0.8457031
							c-0.3652344,0-0.6533203,0.0957031-0.9414062,0.2275391l-0.1376953-0.3779297
							c0.3417969-0.1552734,0.6777344-0.2578125,1.1279297-0.2578125c0.4375,0,0.7734375,0.1142578,1.0009766,0.3417969
							c0.2099609,0.2099609,0.3173828,0.5097656,0.3173828,0.90625v1.8945312h-0.4433594v-0.4677734
							c-0.2158203,0.2822266-0.5751953,0.5341797-1.1210938,0.5341797
							C70.2226562,41.3837891,69.6416016,41.0537109,69.6416016,40.4179688z M71.9257812,40.1777344v-0.2998047
							c-0.2275391-0.0654297-0.5332031-0.1318359-0.9111328-0.1318359c-0.5820312,0-0.9052734,0.2519531-0.9052734,0.6416016
							v0.0117188c0,0.390625,0.359375,0.6181641,0.7792969,0.6181641
							C71.4580078,41.0175781,71.9257812,40.6699219,71.9257812,40.1777344z"/>
						<path class="st0" d="M73.1992188,38.2167969h0.4619141v0.8095703c0.2275391-0.515625,0.6777344-0.8876953,1.265625-0.8632812
							v0.4980469H74.890625c-0.6777344,0-1.2294922,0.4853516-1.2294922,1.4208984v1.2353516h-0.4619141V38.2167969z"/>
						<path class="st0" d="M75.1611328,39.7763672v-0.0117188c0-0.8935547,0.6289062-1.6132812,1.4863281-1.6132812
							c0.9179688,0,1.4453125,0.7314453,1.4453125,1.6367188c0,0.0605469,0,0.0957031-0.0058594,0.1503906h-2.4580078
							c0.0654297,0.6708984,0.5390625,1.0488281,1.0908203,1.0488281c0.4257812,0,0.7255859-0.1738281,0.9775391-0.4375
							l0.2880859,0.2578125c-0.3115234,0.3476562-0.6894531,0.5820312-1.2773438,0.5820312
							C75.8564453,41.3896484,75.1611328,40.7353516,75.1611328,39.7763672z M77.625,39.5966797
							c-0.0478516-0.5644531-0.3710938-1.0556641-0.9892578-1.0556641c-0.5390625,0-0.9472656,0.4492188-1.0068359,1.0556641H77.625
							z"/>
						<path class="st0" d="M80.4951172,37.1201172h1.5712891c0.9472656,0,1.5712891,0.5029297,1.5712891,1.3310547v0.0117188
							c0,0.9052734-0.7558594,1.3730469-1.6494141,1.3730469H80.96875v1.4814453h-0.4736328V37.1201172z M82.0058594,39.4042969
							c0.6962891,0,1.1513672-0.3720703,1.1513672-0.9238281V38.46875c0-0.5996094-0.4492188-0.9111328-1.1269531-0.9111328
							H80.96875v1.8466797H82.0058594z"/>
						<path class="st0" d="M84.2744141,38.2167969h0.4619141v0.8095703c0.2275391-0.515625,0.6777344-0.8876953,1.265625-0.8632812
							v0.4980469h-0.0361328c-0.6777344,0-1.2294922,0.4853516-1.2294922,1.4208984v1.2353516h-0.4619141V38.2167969z"/>
						<path class="st0" d="M86.2373047,39.7822266v-0.0117188c0-0.8759766,0.6835938-1.6191406,1.6191406-1.6191406
							c0.9287109,0,1.6123047,0.7314453,1.6123047,1.6064453v0.0126953c0,0.875-0.6894531,1.6191406-1.625,1.6191406
							C86.9140625,41.3896484,86.2373047,40.6582031,86.2373047,39.7822266z M88.9951172,39.7822266v-0.0117188
							c0-0.6660156-0.4970703-1.2119141-1.1513672-1.2119141c-0.6708984,0-1.1328125,0.5458984-1.1328125,1.1992188v0.0126953
							c0,0.6650391,0.4912109,1.2050781,1.1455078,1.2050781C88.5273438,40.9755859,88.9951172,40.4355469,88.9951172,39.7822266z"
							/>
						<path class="st0" d="M90.3349609,38.625h-0.4257812v-0.4023438h0.4257812V37.953125
							c0-0.3535156,0.0957031-0.6240234,0.2705078-0.7978516C90.7607422,37,90.9882812,36.9160156,91.2705078,36.9160156
							c0.2158203,0,0.3603516,0.0234375,0.5097656,0.078125v0.4013672c-0.1679688-0.0478516-0.2939453-0.078125-0.4492188-0.078125
							c-0.3603516,0-0.5400391,0.2158203-0.5400391,0.6601562v0.2519531h0.9833984V38.625H90.796875v2.6923828h-0.4619141V38.625z"
							/>
						<path class="st0" d="M91.9677734,39.7763672v-0.0117188c0-0.8935547,0.6289062-1.6132812,1.4863281-1.6132812
							c0.9179688,0,1.4453125,0.7314453,1.4453125,1.6367188c0,0.0605469,0,0.0957031-0.0058594,0.1503906h-2.4580078
							c0.0654297,0.6708984,0.5390625,1.0488281,1.0908203,1.0488281c0.4257812,0,0.7255859-0.1738281,0.9775391-0.4375
							l0.2880859,0.2578125c-0.3115234,0.3476562-0.6894531,0.5820312-1.2773438,0.5820312
							C92.6630859,41.3896484,91.9677734,40.7353516,91.9677734,39.7763672z M94.4316406,39.5966797
							c-0.0478516-0.5644531-0.3710938-1.0556641-0.9892578-1.0556641c-0.5390625,0-0.9472656,0.4492188-1.0068359,1.0556641
							H94.4316406z"/>
						<path class="st0" d="M95.3027344,40.921875l0.234375-0.3300781c0.3349609,0.2519531,0.7070312,0.3955078,1.0732422,0.3955078
							c0.3710938,0,0.6416016-0.1914062,0.6416016-0.4912109v-0.0126953c0-0.3115234-0.3662109-0.4316406-0.7734375-0.5449219
							c-0.4863281-0.1386719-1.0253906-0.3066406-1.0253906-0.8759766v-0.0117188
							c0-0.5341797,0.4433594-0.8876953,1.0546875-0.8876953c0.3779297,0,0.7978516,0.1318359,1.1152344,0.3417969
							l-0.2089844,0.3476562c-0.2880859-0.1855469-0.6181641-0.2998047-0.9179688-0.2998047
							c-0.3662109,0-0.5996094,0.1923828-0.5996094,0.4501953v0.0117188c0,0.2939453,0.3837891,0.4082031,0.7978516,0.5341797
							c0.4794922,0.1435547,0.9951172,0.3291016,0.9951172,0.8867188v0.0126953
							c0,0.5869141-0.4853516,0.9287109-1.1035156,0.9287109C96.1425781,41.3769531,95.6503906,41.203125,95.3027344,40.921875z"/>
						<path class="st0" d="M98.0869141,40.921875l0.234375-0.3300781c0.3349609,0.2519531,0.7070312,0.3955078,1.0732422,0.3955078
							c0.3710938,0,0.6416016-0.1914062,0.6416016-0.4912109v-0.0126953c0-0.3115234-0.3662109-0.4316406-0.7734375-0.5449219
							c-0.4863281-0.1386719-1.0253906-0.3066406-1.0253906-0.8759766v-0.0117188
							c0-0.5341797,0.4433594-0.8876953,1.0546875-0.8876953c0.3779297,0,0.7978516,0.1318359,1.1152344,0.3417969
							l-0.2089844,0.3476562c-0.2880859-0.1855469-0.6181641-0.2998047-0.9179688-0.2998047
							c-0.3662109,0-0.5996094,0.1923828-0.5996094,0.4501953v0.0117188c0,0.2939453,0.3837891,0.4082031,0.7978516,0.5341797
							c0.4794922,0.1435547,0.9951172,0.3291016,0.9951172,0.8867188v0.0126953
							c0,0.5869141-0.4853516,0.9287109-1.1035156,0.9287109C98.9267578,41.3769531,98.4345703,41.203125,98.0869141,40.921875z"/>
						<path class="st0" d="M101.2001953,37.0292969h0.5283203v0.5097656h-0.5283203V37.0292969z M101.2304688,38.2167969h0.4619141
							v3.1005859h-0.4619141V38.2167969z"/>
						<path class="st0" d="M102.4306641,39.7822266v-0.0117188c0-0.8759766,0.6835938-1.6191406,1.6191406-1.6191406
							c0.9287109,0,1.6123047,0.7314453,1.6123047,1.6064453v0.0126953c0,0.875-0.6894531,1.6191406-1.625,1.6191406
							C103.1074219,41.3896484,102.4306641,40.6582031,102.4306641,39.7822266z M105.1884766,39.7822266v-0.0117188
							c0-0.6660156-0.4970703-1.2119141-1.1513672-1.2119141c-0.6708984,0-1.1328125,0.5458984-1.1328125,1.1992188v0.0126953
							c0,0.6650391,0.4912109,1.2050781,1.1455078,1.2050781C104.7207031,40.9755859,105.1884766,40.4355469,105.1884766,39.7822266
							z"/>
						<path class="st0" d="M106.3486328,38.2167969h0.4619141v0.5400391
							c0.2041016-0.3359375,0.5273438-0.6054688,1.0615234-0.6054688c0.7490234,0,1.1875,0.5039062,1.1875,1.2412109v1.9248047
							h-0.4619141v-1.8105469c0-0.5761719-0.3115234-0.9355469-0.8574219-0.9355469
							c-0.5341797,0-0.9296875,0.3896484-0.9296875,0.9707031v1.7753906h-0.4619141V38.2167969z"/>
						<path class="st0" d="M109.6611328,40.4179688V40.40625c0-0.6542969,0.5390625-1.0019531,1.3251953-1.0019531
							c0.3955078,0,0.6777344,0.0537109,0.953125,0.1318359v-0.1074219c0-0.5576172-0.3417969-0.8457031-0.9238281-0.8457031
							c-0.3652344,0-0.6533203,0.0957031-0.9414062,0.2275391l-0.1376953-0.3779297
							c0.3417969-0.1552734,0.6777344-0.2578125,1.1279297-0.2578125c0.4375,0,0.7734375,0.1142578,1.0009766,0.3417969
							c0.2099609,0.2099609,0.3173828,0.5097656,0.3173828,0.90625v1.8945312h-0.4433594v-0.4677734
							c-0.2158203,0.2822266-0.5751953,0.5341797-1.1210938,0.5341797
							C110.2421875,41.3837891,109.6611328,41.0537109,109.6611328,40.4179688z M111.9453125,40.1777344v-0.2998047
							c-0.2275391-0.0654297-0.5332031-0.1318359-0.9111328-0.1318359c-0.5820312,0-0.9052734,0.2519531-0.9052734,0.6416016
							v0.0117188c0,0.390625,0.359375,0.6181641,0.7792969,0.6181641
							C111.4775391,41.0175781,111.9453125,40.6699219,111.9453125,40.1777344z"/>
						<path class="st0" d="M113.2666016,36.9394531h0.4619141v4.3779297h-0.4619141V36.9394531z"/>
						<path class="st0" d="M114.4003906,40.921875l0.234375-0.3300781c0.3349609,0.2519531,0.7070312,0.3955078,1.0732422,0.3955078
							c0.3710938,0,0.6416016-0.1914062,0.6416016-0.4912109v-0.0126953c0-0.3115234-0.3662109-0.4316406-0.7734375-0.5449219
							c-0.4863281-0.1386719-1.0253906-0.3066406-1.0253906-0.8759766v-0.0117188
							c0-0.5341797,0.4433594-0.8876953,1.0546875-0.8876953c0.3779297,0,0.7978516,0.1318359,1.1152344,0.3417969
							l-0.2089844,0.3476562c-0.2880859-0.1855469-0.6181641-0.2998047-0.9179688-0.2998047
							c-0.3662109,0-0.5996094,0.1923828-0.5996094,0.4501953v0.0117188c0,0.2939453,0.3837891,0.4082031,0.7978516,0.5341797
							c0.4794922,0.1435547,0.9951172,0.3291016,0.9951172,0.8867188v0.0126953
							c0,0.5869141-0.4853516,0.9287109-1.1035156,0.9287109C115.2402344,41.3769531,114.7480469,41.203125,114.4003906,40.921875z"
							/>
						<path class="st0" d="M118.9667969,39.7822266v-0.0117188c0-0.8759766,0.6835938-1.6191406,1.6191406-1.6191406
							c0.9287109,0,1.6123047,0.7314453,1.6123047,1.6064453v0.0126953c0,0.875-0.6894531,1.6191406-1.625,1.6191406
							C119.6435547,41.3896484,118.9667969,40.6582031,118.9667969,39.7822266z M121.7246094,39.7822266v-0.0117188
							c0-0.6660156-0.4970703-1.2119141-1.1513672-1.2119141c-0.6708984,0-1.1328125,0.5458984-1.1328125,1.1992188v0.0126953
							c0,0.6650391,0.4912109,1.2050781,1.1455078,1.2050781C121.2568359,40.9755859,121.7246094,40.4355469,121.7246094,39.7822266
							z"/>
						<path class="st0" d="M122.890625,38.2167969h0.4619141v0.5400391
							c0.2041016-0.3359375,0.5273438-0.6054688,1.0615234-0.6054688c0.7490234,0,1.1875,0.5039062,1.1875,1.2412109v1.9248047
							h-0.4619141v-1.8105469c0-0.5761719-0.3115234-0.9355469-0.8574219-0.9355469
							c-0.5341797,0-0.9296875,0.3896484-0.9296875,0.9707031v1.7753906h-0.4619141V38.2167969z"/>
						<path class="st0" d="M126.484375,36.9394531h0.4619141v4.3779297h-0.4619141V36.9394531z"/>
						<path class="st0" d="M130.1972656,38.2167969h0.4912109l-1.3007812,3.2021484
							c-0.2646484,0.6416016-0.5644531,0.8759766-1.0322266,0.8759766c-0.2578125,0-0.4492188-0.0537109-0.6591797-0.15625
							l0.15625-0.3652344c0.1494141,0.078125,0.2871094,0.1132812,0.4853516,0.1132812
							c0.2753906,0,0.4492188-0.1435547,0.6357422-0.5810547l-1.4091797-3.0888672h0.5097656l1.1269531,2.5849609
							L130.1972656,38.2167969z"/>
						<path class="st0" d="M130.7080078,40.6875h0.5517578v0.6298828h-0.5517578V40.6875z"/>
						<path class="st0" d="M133.8222656,37.1201172h0.4794922l1.5292969,2.2900391l1.5292969-2.2900391h0.4794922v4.1972656
							h-0.4736328v-3.4003906l-1.5292969,2.2490234h-0.0234375l-1.5292969-2.2431641v3.3945312h-0.4619141V37.1201172z"/>
						<path class="st0" d="M138.5742188,40.4179688V40.40625c0-0.6542969,0.5390625-1.0019531,1.3251953-1.0019531
							c0.3955078,0,0.6777344,0.0537109,0.953125,0.1318359v-0.1074219c0-0.5576172-0.3417969-0.8457031-0.9238281-0.8457031
							c-0.3652344,0-0.6533203,0.0957031-0.9414062,0.2275391l-0.1376953-0.3779297
							c0.3417969-0.1552734,0.6777344-0.2578125,1.1279297-0.2578125c0.4375,0,0.7734375,0.1142578,1.0009766,0.3417969
							c0.2099609,0.2099609,0.3173828,0.5097656,0.3173828,0.90625v1.8945312h-0.4433594v-0.4677734
							c-0.2158203,0.2822266-0.5751953,0.5341797-1.1210938,0.5341797
							C139.1552734,41.3837891,138.5742188,41.0537109,138.5742188,40.4179688z M140.8583984,40.1777344v-0.2998047
							c-0.2275391-0.0654297-0.5332031-0.1318359-0.9111328-0.1318359c-0.5820312,0-0.9052734,0.2519531-0.9052734,0.6416016
							v0.0117188c0,0.390625,0.359375,0.6181641,0.7792969,0.6181641
							C140.390625,41.0175781,140.8583984,40.6699219,140.8583984,40.1777344z"/>
						<path class="st0" d="M144.3330078,38.2167969h0.4912109l-1.3007812,3.2021484
							c-0.2646484,0.6416016-0.5644531,0.8759766-1.0322266,0.8759766c-0.2578125,0-0.4492188-0.0537109-0.6591797-0.15625
							l0.15625-0.3652344c0.1494141,0.078125,0.2871094,0.1132812,0.4853516,0.1132812
							c0.2753906,0,0.4492188-0.1435547,0.6357422-0.5810547l-1.4091797-3.0888672h0.5097656l1.1269531,2.5849609
							L144.3330078,38.2167969z"/>
						<path class="st0" d="M146.8417969,40.9511719l1.5224609-1.3427734
							c0.6425781-0.5761719,0.8759766-0.8994141,0.8759766-1.3193359c0-0.4921875-0.3896484-0.8037109-0.8457031-0.8037109
							c-0.4794922,0-0.7910156,0.2519531-1.1269531,0.7197266l-0.3476562-0.2519531
							c0.3769531-0.5634766,0.7734375-0.8935547,1.5107422-0.8935547c0.7558594,0,1.3017578,0.5039062,1.3017578,1.1875v0.0117188
							c0,0.6123047-0.3242188,0.9892578-1.0615234,1.6318359l-1.1220703,0.9951172h2.2255859v0.4316406h-2.9326172V40.9511719z"/>
						<path class="st0" d="M150.3759766,39.2304688V39.21875c0-1.1757812,0.7011719-2.1708984,1.7802734-2.1708984
							c1.0800781,0,1.7636719,0.9833984,1.7636719,2.1582031V39.21875c0,1.1748047-0.6953125,2.1708984-1.7753906,2.1708984
							C151.0595703,41.3896484,150.3759766,40.40625,150.3759766,39.2304688z M153.4277344,39.2304688V39.21875
							c0-0.9179688-0.5039062-1.7392578-1.2832031-1.7392578c-0.7851562,0-1.2773438,0.8037109-1.2773438,1.7265625V39.21875
							c0,0.9169922,0.5039062,1.7392578,1.2890625,1.7392578C152.9423828,40.9580078,153.4277344,40.1484375,153.4277344,39.2304688
							z"/>
						<path class="st0" d="M154.3779297,40.9511719l1.5224609-1.3427734
							c0.6425781-0.5761719,0.8759766-0.8994141,0.8759766-1.3193359c0-0.4921875-0.3896484-0.8037109-0.8457031-0.8037109
							c-0.4794922,0-0.7910156,0.2519531-1.1269531,0.7197266l-0.3476562-0.2519531
							c0.3769531-0.5634766,0.7734375-0.8935547,1.5107422-0.8935547c0.7558594,0,1.3017578,0.5039062,1.3017578,1.1875v0.0117188
							c0,0.6123047-0.3242188,0.9892578-1.0615234,1.6318359l-1.1220703,0.9951172h2.2255859v0.4316406h-2.9326172V40.9511719z"/>
						<path class="st0" d="M157.828125,40.9511719l1.5224609-1.3427734
							c0.6425781-0.5761719,0.8759766-0.8994141,0.8759766-1.3193359c0-0.4921875-0.3896484-0.8037109-0.8457031-0.8037109
							c-0.4794922,0-0.7910156,0.2519531-1.1269531,0.7197266L157.90625,37.953125
							c0.3769531-0.5634766,0.7734375-0.8935547,1.5107422-0.8935547c0.7558594,0,1.3017578,0.5039062,1.3017578,1.1875v0.0117188
							c0,0.6123047-0.3242188,0.9892578-1.0615234,1.6318359l-1.1220703,0.9951172h2.2255859v0.4316406h-2.9326172V40.9511719z"/>
						<path class="st0" d="M163.2753906,37.1201172h0.4736328v4.1972656h-0.4736328V37.1201172z"/>
						<path class="st0" d="M164.8359375,37.1201172h0.4736328v1.8642578h2.4228516v-1.8642578h0.4736328v4.1972656h-0.4736328
							v-1.8886719h-2.4228516v1.8886719h-0.4736328V37.1201172z"/>
						<path class="st0" d="M173.0712891,41.4433594l-0.5576172-0.4980469
							c-0.3544922,0.2763672-0.8037109,0.4443359-1.3193359,0.4443359c-1.2773438,0-2.1347656-1.0019531-2.1347656-2.1591797
							V39.21875c0-1.1572266,0.8691406-2.1708984,2.1464844-2.1708984s2.1347656,1.0009766,2.1347656,2.1582031V39.21875
							c0,0.5214844-0.1855469,1.0195312-0.4980469,1.4033203l0.5517578,0.4677734L173.0712891,41.4433594z M172.1777344,40.6396484
							l-0.7861328-0.671875l0.3183594-0.3535156l0.7851562,0.7138672c0.2275391-0.2998047,0.3535156-0.6777344,0.3535156-1.0976562
							V39.21875c0-0.9541016-0.6953125-1.7333984-1.6542969-1.7333984c-0.9599609,0-1.6435547,0.7675781-1.6435547,1.7207031
							V39.21875c0,0.953125,0.6953125,1.7324219,1.6552734,1.7324219
							C171.578125,40.9511719,171.9140625,40.8378906,172.1777344,40.6396484z"/>
						<path class="st0" d="M173.9970703,39.2724609h1.6669922v0.4853516h-1.6669922V39.2724609z"/>
						<path class="st0" d="M176.5058594,37.1201172h3.0341797v0.4316406h-2.5605469v1.4326172h2.2910156v0.4316406h-2.2910156
							v1.4697266h2.5908203v0.4316406h-3.0644531V37.1201172z"/>
						<path class="st0" d="M180.3818359,37.1201172h1.5712891c0.9472656,0,1.5712891,0.5029297,1.5712891,1.3310547v0.0117188
							c0,0.9052734-0.7558594,1.3730469-1.6494141,1.3730469h-1.0195312v1.4814453h-0.4736328V37.1201172z M181.8925781,39.4042969
							c0.6962891,0,1.1513672-0.3720703,1.1513672-0.9238281V38.46875c0-0.5996094-0.4492188-0.9111328-1.1269531-0.9111328
							h-1.0615234v1.8466797H181.8925781z"/>
						<path class="st0" d="M184.0595703,39.2304688V39.21875c0-1.1875,0.8867188-2.1708984,2.1220703-2.1708984
							c0.7617188,0,1.2177734,0.2695312,1.6376953,0.6650391l-0.3242188,0.3486328
							c-0.3535156-0.3359375-0.7490234-0.5761719-1.3193359-0.5761719c-0.9296875,0-1.625,0.7558594-1.625,1.7207031V39.21875
							c0,0.9716797,0.7021484,1.7324219,1.625,1.7324219c0.5761719,0,0.9541016-0.2216797,1.3554688-0.6054688l0.3115234,0.3056641
							c-0.4375,0.4443359-0.9169922,0.7382812-1.6787109,0.7382812
							C184.953125,41.3896484,184.0595703,40.4355469,184.0595703,39.2304688z"/>
						<path class="st0" d="M188.2890625,39.2724609h1.6669922v0.4853516h-1.6669922V39.2724609z"/>
						<path class="st0" d="M190.5751953,39.2304688V39.21875c0-1.1757812,0.7011719-2.1708984,1.7802734-2.1708984
							c1.0800781,0,1.7636719,0.9833984,1.7636719,2.1582031V39.21875c0,1.1748047-0.6953125,2.1708984-1.7753906,2.1708984
							C191.2587891,41.3896484,190.5751953,40.40625,190.5751953,39.2304688z M193.6269531,39.2304688V39.21875
							c0-0.9179688-0.5039062-1.7392578-1.2832031-1.7392578c-0.7851562,0-1.2773438,0.8037109-1.2773438,1.7265625V39.21875
							c0,0.9169922,0.5039062,1.7392578,1.2890625,1.7392578C193.1416016,40.9580078,193.6269531,40.1484375,193.6269531,39.2304688
							z"/>
						<path class="st0" d="M194.7158203,39.2304688V39.21875c0-1.1757812,0.7011719-2.1708984,1.7802734-2.1708984
							c1.0800781,0,1.7636719,0.9833984,1.7636719,2.1582031V39.21875c0,1.1748047-0.6953125,2.1708984-1.7753906,2.1708984
							C195.3994141,41.3896484,194.7158203,40.40625,194.7158203,39.2304688z M197.7675781,39.2304688V39.21875
							c0-0.9179688-0.5039062-1.7392578-1.2832031-1.7392578c-0.7851562,0-1.2773438,0.8037109-1.2773438,1.7265625V39.21875
							c0,0.9169922,0.5039062,1.7392578,1.2890625,1.7392578C197.2822266,40.9580078,197.7675781,40.1484375,197.7675781,39.2304688
							z"/>
						<path class="st0" d="M198.8066406,40.7236328l0.3125-0.3417969c0.3652344,0.3535156,0.7675781,0.5761719,1.1933594,0.5761719
							c0.5996094,0,1.0136719-0.3964844,1.0136719-0.9296875V40.015625c0-0.5214844-0.4326172-0.8808594-1.0439453-0.8808594
							c-0.3535156,0-0.6357422,0.1074219-0.8818359,0.2392578l-0.3173828-0.2089844l0.1201172-2.0449219h2.4160156v0.4375
							h-2.0029297l-0.0898438,1.3427734c0.2460938-0.1074219,0.4804688-0.1855469,0.828125-0.1855469
							c0.8154297,0,1.4511719,0.4853516,1.4511719,1.2832031v0.0117188c0,0.8222656-0.6240234,1.3798828-1.4990234,1.3798828
							C199.7070312,41.3896484,199.1845703,41.1015625,198.8066406,40.7236328z"/>
						<path class="st0" d="M202.2392578,40.9511719l1.5224609-1.3427734
							c0.6425781-0.5761719,0.8759766-0.8994141,0.8759766-1.3193359c0-0.4921875-0.3896484-0.8037109-0.8457031-0.8037109
							c-0.4794922,0-0.7910156,0.2519531-1.1269531,0.7197266l-0.3476562-0.2519531
							c0.3769531-0.5634766,0.7734375-0.8935547,1.5107422-0.8935547c0.7558594,0,1.3017578,0.5039062,1.3017578,1.1875v0.0117188
							c0,0.6123047-0.3242188,0.9892578-1.0615234,1.6318359l-1.1220703,0.9951172h2.2255859v0.4316406h-2.9326172V40.9511719z"/>
					</g>
				</g>
			</g>
		</g>
		<g>
			<g>
				<path class="st0" d="M71.7050781,8.3027344h2.4287109c2.1992188,0,3.7177734,1.5087891,3.7177734,3.4775391v0.0205078
					c0,1.96875-1.5185547,3.4980469-3.7177734,3.4980469h-2.4287109V8.3027344z M72.4951172,9.0322266v5.5371094h1.6386719
					c1.7695312,0,2.8984375-1.1992188,2.8984375-2.7490234v-0.0195312c0-1.5488281-1.1289062-2.7685547-2.8984375-2.7685547
					H72.4951172z"/>
				<path class="st0" d="M79.5957031,8.3027344h0.7890625v6.9960938h-0.7890625V8.3027344z"/>
				<path class="st0" d="M82.4345703,8.3027344h5.0273438v0.7294922h-4.2373047V11.53125h3.7880859v0.7197266h-3.7880859v3.0478516
					h-0.7900391V8.3027344z"/>
				<path class="st0" d="M88.9951172,8.3027344h5.0273438v0.7294922h-4.2373047V11.53125h3.7880859v0.7197266h-3.7880859v3.0478516
					h-0.7900391V8.3027344z"/>
				<path class="st0" d="M95.5546875,8.3027344h5.0576172v0.7197266h-4.2675781v2.3886719h3.8173828v0.7197266h-3.8173828v2.4482422
					h4.3173828v0.7197266h-5.1074219V8.3027344z"/>
				<path class="st0" d="M102.2548828,8.3027344h3.0087891c0.859375,0,1.5488281,0.2597656,1.9882812,0.6992188
					c0.3398438,0.3398438,0.5400391,0.8300781,0.5400391,1.3798828v0.0195312c0,1.1591797-0.7998047,1.8388672-1.8984375,2.0390625
					l2.1484375,2.8583984h-0.9697266l-2.0283203-2.71875h-1.9990234v2.71875h-0.7900391V8.3027344z M105.1933594,11.8710938
					c1.0498047,0,1.7988281-0.5400391,1.7988281-1.4394531v-0.0205078c0-0.859375-0.6591797-1.3789062-1.7890625-1.3789062
					h-2.1582031v2.8388672H105.1933594z"/>
				<path class="st0" d="M109.484375,8.3027344h5.0576172v0.7197266h-4.2675781v2.3886719h3.8173828v0.7197266h-3.8173828v2.4482422
					h4.3173828v0.7197266h-5.1074219V8.3027344z"/>
				<path class="st0" d="M116.1845703,8.3027344h0.7402344l4.4072266,5.6064453V8.3027344h0.7695312v6.9960938h-0.6298828
					l-4.5175781-5.7373047v5.7373047h-0.7695312V8.3027344z"/>
				<path class="st0" d="M125.9042969,9.0322266h-2.3583984V8.3027344h5.5068359v0.7294922h-2.359375v6.2666016h-0.7890625
					V9.0322266z"/>
				<path class="st0" d="M139.8710938,15.5087891l-0.9296875-0.8300781
					c-0.5898438,0.4599609-1.3388672,0.7402344-2.1992188,0.7402344c-2.1289062,0-3.5576172-1.6689453-3.5576172-3.5986328
					v-0.0195312c0-1.9287109,1.4492188-3.6181641,3.578125-3.6181641s3.5576172,1.6689453,3.5576172,3.5976562v0.0205078
					c0,0.8691406-0.3095703,1.6992188-0.8291016,2.3388672l0.9189453,0.7792969L139.8710938,15.5087891z M138.3818359,14.1699219
					l-1.3095703-1.1201172l0.5302734-0.5898438l1.3085938,1.1894531c0.3798828-0.4990234,0.5898438-1.1289062,0.5898438-1.8291016
					v-0.0195312c0-1.5888672-1.1591797-2.8886719-2.7587891-2.8886719c-1.5986328,0-2.7382812,1.2792969-2.7382812,2.8681641
					v0.0205078c0,1.5888672,1.1591797,2.8886719,2.7587891,2.8886719
					C137.3818359,14.6894531,137.9414062,14.4990234,138.3818359,14.1699219z"/>
				<path class="st0" d="M141.8847656,12.3701172V8.3027344h0.7890625v4.0175781
					c0,1.5097656,0.7998047,2.3583984,2.1386719,2.3583984c1.2900391,0,2.109375-0.7792969,2.109375-2.3085938V8.3027344h0.7890625
					v4.0078125c0,2.0390625-1.1689453,3.0986328-2.9179688,3.0986328
					C143.0634766,15.4091797,141.8847656,14.3496094,141.8847656,12.3701172z"/>
				<path class="st0" d="M149.5839844,8.3027344h5.0576172v0.7197266h-4.2675781v2.3886719h3.8173828v0.7197266h-3.8173828
					v2.4482422h4.3173828v0.7197266h-5.1074219V8.3027344z"/>
				<path class="st0" d="M155.8242188,14.2792969l0.4902344-0.5791016c0.7294922,0.6591797,1.4287109,0.9892578,2.3984375,0.9892578
					c0.9394531,0,1.5595703-0.5,1.5595703-1.1894531v-0.0205078c0-0.6494141-0.3496094-1.0195312-1.8193359-1.3291016
					c-1.609375-0.3496094-2.3486328-0.8691406-2.3486328-2.0185547v-0.0205078c0-1.0986328,0.9697266-1.9082031,2.2988281-1.9082031
					c1.0195312,0,1.7490234,0.2890625,2.4589844,0.859375l-0.4599609,0.609375
					c-0.6494141-0.5292969-1.2998047-0.7597656-2.0195312-0.7597656c-0.9091797,0-1.4882812,0.5-1.4882812,1.1298828v0.0195312
					c0,0.6601562,0.359375,1.0292969,1.8984375,1.359375c1.5595703,0.3398438,2.2783203,0.9091797,2.2783203,1.9785156v0.0205078
					c0,1.1992188-0.9990234,1.9785156-2.3886719,1.9785156C157.5732422,15.3984375,156.6640625,15.0292969,155.8242188,14.2792969z"
					/>
				<path class="st0" d="M164.3935547,9.0322266h-2.3583984V8.3027344h5.5068359v0.7294922h-2.359375v6.2666016h-0.7890625
					V9.0322266z"/>
				<path class="st0" d="M169.0546875,8.3027344h0.7890625v6.9960938h-0.7890625V8.3027344z"/>
				<path class="st0" d="M171.5839844,11.8203125v-0.0195312c0-1.9287109,1.4492188-3.6181641,3.578125-3.6181641
					s3.5576172,1.6689453,3.5576172,3.5976562v0.0205078c0,1.9287109-1.4492188,3.6181641-3.578125,3.6181641
					S171.5839844,13.75,171.5839844,11.8203125z M177.9003906,11.8203125v-0.0195312
					c0-1.5888672-1.1591797-2.8886719-2.7587891-2.8886719c-1.5986328,0-2.7382812,1.2792969-2.7382812,2.8681641v0.0205078
					c0,1.5888672,1.1591797,2.8886719,2.7587891,2.8886719C176.7607422,14.6894531,177.9003906,13.4101562,177.9003906,11.8203125z"
					/>
				<path class="st0" d="M180.3935547,8.3027344h0.7402344l4.4072266,5.6064453V8.3027344h0.7695312v6.9960938h-0.6298828
					l-4.5175781-5.7373047v5.7373047h-0.7695312V8.3027344z"/>
				<path class="st0" d="M187.8339844,14.2792969l0.4902344-0.5791016c0.7294922,0.6591797,1.4287109,0.9892578,2.3984375,0.9892578
					c0.9394531,0,1.5595703-0.5,1.5595703-1.1894531v-0.0205078c0-0.6494141-0.3496094-1.0195312-1.8193359-1.3291016
					c-1.609375-0.3496094-2.3486328-0.8691406-2.3486328-2.0185547v-0.0205078c0-1.0986328,0.9697266-1.9082031,2.2988281-1.9082031
					c1.0195312,0,1.7490234,0.2890625,2.4589844,0.859375l-0.4599609,0.609375
					c-0.6494141-0.5292969-1.2998047-0.7597656-2.0195312-0.7597656c-0.9091797,0-1.4882812,0.5-1.4882812,1.1298828v0.0195312
					c0,0.6601562,0.359375,1.0292969,1.8984375,1.359375c1.5595703,0.3398438,2.2783203,0.9091797,2.2783203,1.9785156v0.0205078
					c0,1.1992188-0.9990234,1.9785156-2.3886719,1.9785156C189.5830078,15.3984375,188.6738281,15.0292969,187.8339844,14.2792969z"
					/>
				<path class="st0" d="M194.4638672,14.2490234h0.9189453v1.0498047h-0.9189453V14.2490234z"/>
			</g>
		</g>
		<g>
			<g>
				<path class="st1" d="M71.0751953,24.2792969l0.9101562-1.0888672c0.6298828,0.5195312,1.2890625,0.8486328,2.0888672,0.8486328
					c0.6298828,0,1.0087891-0.2490234,1.0087891-0.6591797v-0.0195312c0-0.390625-0.2392578-0.5898438-1.4091797-0.8896484
					c-1.4091797-0.3603516-2.3183594-0.75-2.3183594-2.1386719v-0.0205078c0-1.2695312,1.0195312-2.1083984,2.4482422-2.1083984
					c1.0195312,0,1.8896484,0.3193359,2.5986328,0.8886719l-0.7988281,1.1601562
					c-0.6201172-0.4296875-1.2294922-0.6904297-1.8193359-0.6904297s-0.8994141,0.2705078-0.8994141,0.6103516v0.0195312
					c0,0.4599609,0.2998047,0.6103516,1.5087891,0.9199219c1.4199219,0.3691406,2.21875,0.8789062,2.21875,2.0986328v0.0195312
					c0,1.3896484-1.0595703,2.1689453-2.5683594,2.1689453C72.984375,25.3984375,71.9150391,25.0292969,71.0751953,24.2792969z"/>
				<path class="st1" d="M80.2041016,18.2529297h1.4189453l2.9990234,7.0458984h-1.609375l-0.6396484-1.5693359h-2.9589844
					l-0.6396484,1.5693359h-1.5683594L80.2041016,18.2529297z M81.8232422,22.3701172l-0.9296875-2.2685547l-0.9296875,2.2685547
					H81.8232422z"/>
				<path class="st1" d="M85.7060547,18.3027344h1.6591797l1.8388672,2.9580078l1.8388672-2.9580078h1.6591797v6.9960938h-1.5292969
					v-4.5673828l-1.96875,2.9882812h-0.0400391l-1.9492188-2.9580078v4.5371094h-1.5087891V18.3027344z"/>
				<path class="st1" d="M94.3857422,18.3027344h5.2763672v1.3691406h-3.7470703v1.4189453h3.2978516v1.3691406h-3.2978516
					v1.4697266h3.7978516v1.3691406h-5.3271484V18.3027344z"/>
				<path class="st1" d="M106.4833984,18.2529297h1.4189453l2.9990234,7.0458984h-1.609375l-0.6396484-1.5693359h-2.9589844
					l-0.6396484,1.5693359h-1.5683594L106.4833984,18.2529297z M108.1025391,22.3701172l-0.9296875-2.2685547l-0.9296875,2.2685547
					H108.1025391z"/>
				<path class="st1" d="M111.9853516,18.3027344h1.4189453l3.2783203,4.3076172v-4.3076172h1.5185547v6.9960938h-1.3085938
					l-3.3886719-4.4472656v4.4472656h-1.5185547V18.3027344z"/>
				<path class="st1" d="M119.4052734,24.2792969l0.9101562-1.0888672c0.6298828,0.5195312,1.2890625,0.8486328,2.0888672,0.8486328
					c0.6298828,0,1.0087891-0.2490234,1.0087891-0.6591797v-0.0195312c0-0.390625-0.2392578-0.5898438-1.4091797-0.8896484
					c-1.4091797-0.3603516-2.3183594-0.75-2.3183594-2.1386719v-0.0205078c0-1.2695312,1.0195312-2.1083984,2.4482422-2.1083984
					c1.0195312,0,1.8896484,0.3193359,2.5986328,0.8886719l-0.7988281,1.1601562
					c-0.6201172-0.4296875-1.2294922-0.6904297-1.8193359-0.6904297s-0.8994141,0.2705078-0.8994141,0.6103516v0.0195312
					c0,0.4599609,0.2998047,0.6103516,1.5087891,0.9199219c1.4199219,0.3691406,2.21875,0.8789062,2.21875,2.0986328v0.0195312
					c0,1.3896484-1.0595703,2.1689453-2.5683594,2.1689453C121.3144531,25.3984375,120.2451172,25.0292969,119.4052734,24.2792969z"
					/>
				<path class="st1" d="M125.4951172,18.3027344h1.6494141l1.4492188,4.7373047l1.5683594-4.7578125h1.3193359l1.5693359,4.7578125
					L134.5,18.3027344h1.609375l-2.3886719,7.0458984h-1.3388672l-1.5800781-4.5771484l-1.5791016,4.5771484h-1.3388672
					L125.4951172,18.3027344z"/>
				<path class="st1" d="M137.2548828,18.3027344h5.2763672v1.3691406h-3.7470703v1.4189453h3.2978516v1.3691406h-3.2978516
					v1.4697266h3.7978516v1.3691406h-5.3271484V18.3027344z"/>
				<path class="st1" d="M143.9550781,18.3027344h3.1982422c0.8896484,0,1.5791016,0.25,2.0380859,0.7099609
					c0.390625,0.3896484,0.6005859,0.9394531,0.6005859,1.5986328v0.0205078c0,1.1289062-0.6103516,1.8388672-1.5,2.1679688
					l1.7089844,2.4990234h-1.7988281l-1.4990234-2.2392578h-1.2089844v2.2392578h-1.5390625V18.3027344z M147.0527344,21.7011719
					c0.75,0,1.1796875-0.4003906,1.1796875-0.9902344v-0.0195312c0-0.6601562-0.4599609-0.9990234-1.2089844-0.9990234h-1.5292969
					v2.0087891H147.0527344z"/>
				<path class="st1" d="M150.9658203,23.7001953h1.6181641v1.5986328h-1.6181641V23.7001953z"/>
			</g>
		</g>
		<g>
			<g>
				<path class="st0" d="M72.2402344,0.0722656h0.4736328v4.1972656h-0.4736328V0.0722656z"/>
				<path class="st0" d="M73.9443359,0.0722656h0.4433594l2.6445312,3.3632812V0.0722656h0.4619141v4.1972656h-0.3779297
					L74.40625,0.8271484v3.4423828h-0.4619141V0.0722656z"/>
				<path class="st0" d="M81.5761719,0.5097656h-1.4160156v-0.4375h3.3046875v0.4375h-1.4150391v3.7597656h-0.4736328V0.5097656z"/>
				<path class="st0" d="M84.3300781,0.0722656h1.8046875c0.515625,0,0.9296875,0.1552734,1.1933594,0.4189453
					c0.2041016,0.2041016,0.3242188,0.4980469,0.3242188,0.828125v0.0117188c0,0.6953125-0.4794922,1.1035156-1.1396484,1.2236328
					l1.2890625,1.7148438h-0.5810547l-1.2177734-1.6308594h-1.1992188v1.6308594h-0.4736328V0.0722656z M86.0927734,2.2128906
					c0.6298828,0,1.0800781-0.3242188,1.0800781-0.8632812V1.3369141c0-0.515625-0.3964844-0.8271484-1.0742188-0.8271484
					h-1.2949219v1.703125H86.0927734z"/>
				<path class="st0" d="M88.6679688,0.0722656h3.0341797v0.4316406h-2.5605469v1.4326172h2.2910156v0.4316406h-2.2910156v1.4697266
					h2.5908203v0.4316406h-3.0644531V0.0722656z"/>
				<path class="st0" d="M94.2402344,0.0419922h0.4443359l1.9130859,4.2275391h-0.5097656l-0.4921875-1.109375h-2.2841797
					l-0.4980469,1.109375h-0.4863281L94.2402344,0.0419922z M95.4101562,2.734375L94.4560547,0.59375l-0.9589844,2.140625
					H95.4101562z"/>
				<path class="st0" d="M98.0039062,0.5097656h-1.4160156v-0.4375h3.3046875v0.4375h-1.4150391v3.7597656h-0.4736328V0.5097656z"/>
				<path class="st0" d="M100.7578125,0.0722656h0.4794922l1.5292969,2.2900391l1.5292969-2.2900391h0.4794922v4.1972656h-0.4736328
					V0.8691406l-1.5292969,2.2490234h-0.0234375L101.2197266,0.875v3.3945312h-0.4619141V0.0722656z"/>
				<path class="st0" d="M105.9658203,0.0722656H109v0.4316406h-2.5605469v1.4326172h2.2910156v0.4316406h-2.2910156v1.4697266
					h2.5908203v0.4316406h-3.0644531V0.0722656z"/>
				<path class="st0" d="M109.9853516,0.0722656h0.4433594l2.6445312,3.3632812V0.0722656h0.4619141v4.1972656h-0.3779297
					l-2.7099609-3.4423828v3.4423828h-0.4619141V0.0722656z"/>
				<path class="st0" d="M115.8173828,0.5097656h-1.4160156v-0.4375h3.3046875v0.4375h-1.4150391v3.7597656h-0.4736328V0.5097656z"
					/>
				<path class="st0" d="M120.1865234,2.1826172V2.1708984C120.1865234,1.0136719,121.0556641,0,122.3330078,0
					s2.1347656,1.0009766,2.1347656,2.1591797v0.0117188c0,1.1572266-0.8691406,2.1708984-2.1464844,2.1708984
					S120.1865234,3.3398438,120.1865234,2.1826172z M123.9755859,2.1826172V2.1708984
					c0-0.9541016-0.6953125-1.7333984-1.6542969-1.7333984c-0.9599609,0-1.6435547,0.7675781-1.6435547,1.7216797v0.0117188
					c0,0.953125,0.6953125,1.7324219,1.6552734,1.7324219C123.2919922,3.9033203,123.9755859,3.1357422,123.9755859,2.1826172z"/>
				<path class="st0" d="M125.4716797,0.0722656h3.0166016v0.4375h-2.5429688v1.4990234h2.2724609v0.4316406h-2.2724609v1.8291016
					h-0.4736328V0.0722656z"/>
				<path class="st0" d="M131.0214844,2.1826172V2.1708984c0-1.1875,0.8867188-2.1708984,2.1220703-2.1708984
					c0.7617188,0,1.2177734,0.2695312,1.6376953,0.6650391l-0.3242188,0.3486328
					C134.1035156,0.6777344,133.7080078,0.4375,133.1376953,0.4375c-0.9296875,0-1.625,0.7558594-1.625,1.7216797v0.0117188
					c0,0.9716797,0.7021484,1.7324219,1.625,1.7324219c0.5761719,0,0.9541016-0.2216797,1.3554688-0.6054688l0.3115234,0.3056641
					c-0.4375,0.4443359-0.9169922,0.7382812-1.6787109,0.7382812
					C131.9150391,4.3417969,131.0214844,3.3876953,131.0214844,2.1826172z"/>
				<path class="st0" d="M135.6591797,0.0722656h0.4736328v1.8642578h2.4228516V0.0722656h0.4736328v4.1972656h-0.4736328V2.3808594
					h-2.4228516v1.8886719h-0.4736328V0.0722656z"/>
				<path class="st0" d="M140.2197266,0.0722656h1.8046875c0.515625,0,0.9296875,0.1552734,1.1933594,0.4189453
					c0.2041016,0.2041016,0.3242188,0.4980469,0.3242188,0.828125v0.0117188c0,0.6953125-0.4794922,1.1035156-1.1396484,1.2236328
					l1.2890625,1.7148438h-0.5810547l-1.2177734-1.6308594h-1.1992188v1.6308594h-0.4736328V0.0722656z M141.9824219,2.2128906
					c0.6298828,0,1.0800781-0.3242188,1.0800781-0.8632812V1.3369141c0-0.515625-0.3964844-0.8271484-1.0742188-0.8271484
					h-1.2949219v1.703125H141.9824219z"/>
				<path class="st0" d="M144.3720703,2.1826172V2.1708984C144.3720703,1.0136719,145.2412109,0,146.5185547,0
					s2.1347656,1.0009766,2.1347656,2.1591797v0.0117188c0,1.1572266-0.8691406,2.1708984-2.1464844,2.1708984
					S144.3720703,3.3398438,144.3720703,2.1826172z M148.1611328,2.1826172V2.1708984
					c0-0.9541016-0.6953125-1.7333984-1.6542969-1.7333984c-0.9599609,0-1.6435547,0.7675781-1.6435547,1.7216797v0.0117188
					c0,0.953125,0.6953125,1.7324219,1.6552734,1.7324219C147.4775391,3.9033203,148.1611328,3.1357422,148.1611328,2.1826172z"/>
				<path class="st0" d="M149.6572266,0.0722656h0.4433594l2.6445312,3.3632812V0.0722656h0.4619141v4.1972656h-0.3779297
					l-2.7099609-3.4423828v3.4423828h-0.4619141V0.0722656z"/>
				<path class="st0" d="M154.4394531,0.0722656h0.4736328v4.1972656h-0.4736328V0.0722656z"/>
				<path class="st0" d="M155.9580078,2.1826172V2.1708984c0-1.1875,0.8867188-2.1708984,2.1220703-2.1708984
					c0.7617188,0,1.2177734,0.2695312,1.6376953,0.6650391l-0.3242188,0.3486328
					C159.0400391,0.6777344,158.6445312,0.4375,158.0742188,0.4375c-0.9296875,0-1.625,0.7558594-1.625,1.7216797v0.0117188
					c0,0.9716797,0.7021484,1.7324219,1.625,1.7324219c0.5761719,0,0.9541016-0.2216797,1.3554688-0.6054688l0.3115234,0.3056641
					c-0.4375,0.4443359-0.9169922,0.7382812-1.6787109,0.7382812
					C156.8515625,4.3417969,155.9580078,3.3876953,155.9580078,2.1826172z"/>
				<path class="st0" d="M162.3945312,0.0722656h0.4736328v1.8642578h2.4228516V0.0722656h0.4736328v4.1972656h-0.4736328V2.3808594
					h-2.4228516v1.8886719h-0.4736328V0.0722656z"/>
				<path class="st0" d="M166.9550781,0.0722656h3.0341797v0.4316406h-2.5605469v1.4326172h2.2910156v0.4316406h-2.2910156
					v1.4697266h2.5908203v0.4316406h-3.0644531V0.0722656z"/>
				<path class="st0" d="M170.9746094,0.0722656h1.5712891c0.9472656,0,1.5712891,0.5029297,1.5712891,1.3310547v0.0117188
					c0,0.9052734-0.7558594,1.3730469-1.6494141,1.3730469h-1.0195312v1.4814453h-0.4736328V0.0722656z M172.4853516,2.3564453
					c0.6962891,0,1.1513672-0.3720703,1.1513672-0.9238281V1.4208984c0-0.5996094-0.4492188-0.9111328-1.1269531-0.9111328
					h-1.0615234v1.8466797H172.4853516z"/>
				<path class="st0" d="M176.1152344,0.0419922h0.4443359l1.9130859,4.2275391h-0.5097656l-0.4921875-1.109375h-2.2841797
					l-0.4980469,1.109375h-0.4863281L176.1152344,0.0419922z M177.2851562,2.734375l-0.9541016-2.140625l-0.9589844,2.140625
					H177.2851562z"/>
				<path class="st0" d="M179.8789062,0.5097656h-1.4160156v-0.4375h3.3046875v0.4375h-1.4150391v3.7597656h-0.4736328V0.5097656z"
					/>
				<path class="st0" d="M182.6748047,0.0722656h0.4736328v4.1972656h-0.4736328V0.0722656z"/>
				<path class="st0" d="M185.4707031,0.5097656h-1.4160156v-0.4375h3.3046875v0.4375h-1.4150391v3.7597656h-0.4736328V0.5097656z"
					/>
				<path class="st0" d="M188.2666016,0.0722656h0.4736328v4.1972656h-0.4736328V0.0722656z"/>
				<path class="st0" d="M189.6943359,3.6582031l0.2939453-0.3486328c0.4384766,0.3964844,0.8574219,0.59375,1.4394531,0.59375
					c0.5634766,0,0.9355469-0.2998047,0.9355469-0.7128906V3.1777344c0-0.3896484-0.2099609-0.6113281-1.0917969-0.796875
					c-0.9648438-0.2099609-1.4091797-0.5224609-1.4091797-1.2119141V1.1572266c0-0.6591797,0.5820312-1.1455078,1.3798828-1.1455078
					c0.6113281,0,1.0488281,0.1738281,1.4746094,0.515625l-0.2753906,0.3662109
					C192.0517578,0.5751953,191.6621094,0.4375,191.2294922,0.4375c-0.5449219,0-0.8935547,0.2998047-0.8935547,0.6777344v0.0117188
					c0,0.3964844,0.2167969,0.6181641,1.1396484,0.8154297c0.9355469,0.2041016,1.3671875,0.5458984,1.3671875,1.1875v0.0126953
					c0,0.71875-0.5996094,1.1865234-1.4326172,1.1865234C190.7441406,4.3291016,190.1982422,4.1074219,189.6943359,3.6582031z"/>
				<path class="st0" d="M195.4248047,2.1826172V2.1708984c0-1.1875,0.8867188-2.1708984,2.1220703-2.1708984
					c0.7617188,0,1.2177734,0.2695312,1.6376953,0.6650391l-0.3242188,0.3486328
					C198.5068359,0.6777344,198.1113281,0.4375,197.5410156,0.4375c-0.9296875,0-1.625,0.7558594-1.625,1.7216797v0.0117188
					c0,0.9716797,0.7021484,1.7324219,1.625,1.7324219c0.5761719,0,0.9541016-0.2216797,1.3554688-0.6054688l0.3115234,0.3056641
					c-0.4375,0.4443359-0.9169922,0.7382812-1.6787109,0.7382812
					C196.3183594,4.3417969,195.4248047,3.3876953,195.4248047,2.1826172z"/>
				<path class="st0" d="M199.9541016,1.1689453h0.5517578v0.6298828h-0.5517578V1.1689453z M199.9541016,3.6396484h0.5517578
					v0.6298828h-0.5517578V3.6396484z"/>
			</g>
		</g>
	</g>
</g>
</svg>
