<?xml version="1.0" encoding="utf-8"?>
<!-- Generator: Adobe Illustrator 26.3.0, SVG Export Plug-In . SVG Version: 6.00 Build 0)  -->
<svg version="1.1" id="Layer_1" xmlns="http://www.w3.org/2000/svg" xmlns:xlink="http://www.w3.org/1999/xlink" x="0px" y="0px"
	 viewBox="0 0 234.6191406 44.161335" style="enable-background:new 0 0 234.6191406 44.161335;" xml:space="preserve">
<style type="text/css">
	.st0{fill:#FFFFFF;}
</style>
<g>
	<g>
		<g>
			<g>
				<g>
					<g>
						<path class="st0" d="M0.0664062,32.9865303h3.0341797v0.4316406H0.5400391v1.4326172h2.2910156v0.4316406H0.5400391v1.4697266
							h2.5908203v0.4316406H0.0664062V32.9865303z"/>
						<path class="st0" d="M3.9423828,32.9865303h1.5712891c0.9472656,0,1.5712891,0.5029297,1.5712891,1.3310547v0.0117188
							c0,0.9052734-0.7558594,1.3730469-1.6494141,1.3730469H4.4160156v1.4814453H3.9423828V32.9865303z M5.453125,35.27071
							c0.6962891,0,1.1513672-0.3720703,1.1513672-0.9238281v-0.0117188c0-0.5996094-0.4492188-0.9111328-1.1269531-0.9111328
							H4.4160156V35.27071H5.453125z"/>
						<path class="st0" d="M7.6210938,35.0968819v-0.0117188c0-1.1875,0.8867188-2.1708984,2.1220703-2.1708984
							c0.7617188,0,1.2177734,0.2695312,1.6376953,0.6650391l-0.3242188,0.3486328
							c-0.3535156-0.3359375-0.7490234-0.5761719-1.3193359-0.5761719c-0.9296875,0-1.625,0.7558594-1.625,1.7207031v0.0126953
							c0,0.9716797,0.7021484,1.7324219,1.625,1.7324219c0.5761719,0,0.9541016-0.2216797,1.3554688-0.6054688l0.3115234,0.3056641
							c-0.4375,0.4443359-0.9169922,0.7382812-1.6787109,0.7382812C8.5146484,37.2560616,7.6210938,36.30196,7.6210938,35.0968819z"
							/>
						<path class="st0" d="M12.1142578,32.9865303h0.4736328v3.7597656h2.3623047v0.4375h-2.8359375V32.9865303z"/>
						<path class="st0" d="M15.4980469,35.42696v-2.4404297h0.4736328v2.4101562
							c0,0.9052734,0.4804688,1.4150391,1.2841797,1.4150391c0.7734375,0,1.2646484-0.4677734,1.2646484-1.3847656v-2.4404297
							h0.4736328v2.4042969c0,1.2236328-0.7011719,1.859375-1.7509766,1.859375
							C16.2060547,37.2502022,15.4980469,36.61446,15.4980469,35.42696z"/>
						<path class="st0" d="M19.6982422,36.5724678l0.2939453-0.3476562
							c0.4384766,0.3955078,0.8574219,0.5927734,1.4394531,0.5927734c0.5634766,0,0.9355469-0.2998047,0.9355469-0.7128906
							v-0.0126953c0-0.3896484-0.2099609-0.6113281-1.0917969-0.796875
							c-0.9648438-0.2099609-1.4091797-0.5224609-1.4091797-1.2119141v-0.0117188
							c0-0.6591797,0.5820312-1.1455078,1.3798828-1.1455078c0.6113281,0,1.0488281,0.1738281,1.4746094,0.515625
							l-0.2753906,0.3662109c-0.3896484-0.3183594-0.7792969-0.4560547-1.2119141-0.4560547
							c-0.5449219,0-0.8935547,0.2998047-0.8935547,0.6777344v0.0117188c0,0.3964844,0.2167969,0.6181641,1.1396484,0.8154297
							c0.9355469,0.2041016,1.3671875,0.5458984,1.3671875,1.1875v0.0126953c0,0.71875-0.5996094,1.1865234-1.4326172,1.1865234
							C20.7480469,37.2433662,20.2021484,37.0216866,19.6982422,36.5724678z"/>
						<path class="st0" d="M25.1328125,32.9562569h0.4443359l1.9130859,4.2275391h-0.5097656l-0.4921875-1.109375h-2.2841797
							l-0.4980469,1.109375h-0.4863281L25.1328125,32.9562569z M26.3027344,35.6486397l-0.9541016-2.140625l-0.9589844,2.140625
							H26.3027344z"/>
						<path class="st0" d="M29.7597656,32.89571h0.5283203v0.5097656h-0.5283203V32.89571z M29.7900391,34.08321h0.4619141
							v3.1005859h-0.4619141V34.08321z"/>
						<path class="st0" d="M30.9238281,36.7882881l0.234375-0.3300781c0.3349609,0.2519531,0.7070312,0.3955078,1.0732422,0.3955078
							c0.3710938,0,0.6416016-0.1914062,0.6416016-0.4912109v-0.0126953c0-0.3115234-0.3662109-0.4316406-0.7734375-0.5449219
							c-0.4863281-0.1386719-1.0253906-0.3066406-1.0253906-0.8759766v-0.0117188
							c0-0.5341797,0.4433594-0.8876953,1.0546875-0.8876953c0.3779297,0,0.7978516,0.1318359,1.1152344,0.3417969
							l-0.2089844,0.3476562c-0.2880859-0.1855469-0.6181641-0.2998047-0.9179688-0.2998047
							c-0.3662109,0-0.5996094,0.1923828-0.5996094,0.4501953v0.0117188c0,0.2939453,0.3837891,0.4082031,0.7978516,0.5341797
							c0.4794922,0.1435547,0.9951172,0.3291016,0.9951172,0.8867188v0.0126953
							c0,0.5869141-0.4853516,0.9287109-1.1035156,0.9287109C31.7636719,37.2433662,31.2714844,37.0695381,30.9238281,36.7882881z"
							/>
						<path class="st0" d="M35.6933594,32.89571h0.5283203v0.5097656h-0.5283203V32.89571z M35.7236328,34.08321h0.4619141
							v3.1005859h-0.4619141V34.08321z"/>
						<path class="st0" d="M37.1152344,34.08321h0.4619141v0.5400391c0.2041016-0.3359375,0.5273438-0.6054688,1.0615234-0.6054688
							c0.7490234,0,1.1875,0.5039062,1.1875,1.2412109v1.9248047h-0.4619141v-1.8105469
							c0-0.5761719-0.3115234-0.9355469-0.8574219-0.9355469c-0.5341797,0-0.9296875,0.3896484-0.9296875,0.9707031v1.7753906
							h-0.4619141V34.08321z"/>
						<path class="st0" d="M40.4814453,35.6427803v-0.0117188c0-1.0136719,0.7373047-1.6132812,1.4814453-1.6132812
							c0.5751953,0,0.9472656,0.3115234,1.1865234,0.6591797v-1.8710938h0.4619141v4.3779297h-0.4619141v-0.6240234
							c-0.2509766,0.3720703-0.6171875,0.6904297-1.1865234,0.6904297
							C41.21875,37.2502022,40.4814453,36.6623116,40.4814453,35.6427803z M43.1679688,35.6369209v-0.0126953
							c0-0.7128906-0.5458984-1.1933594-1.1210938-1.1933594c-0.5996094,0-1.0917969,0.4443359-1.0917969,1.1933594v0.0126953
							c0,0.7314453,0.5039062,1.1992188,1.0917969,1.1992188C42.6220703,36.8361397,43.1679688,36.3498116,43.1679688,35.6369209z"
							/>
						<path class="st0" d="M44.5136719,32.89571h0.5283203v0.5097656h-0.5283203V32.89571z M44.5439453,34.08321h0.4619141
							v3.1005859h-0.4619141V34.08321z"/>
						<path class="st0" d="M45.7441406,35.6486397v-0.0117188c0-0.8759766,0.6835938-1.6191406,1.5888672-1.6191406
							c0.5878906,0,0.953125,0.2460938,1.2412109,0.5517578l-0.3056641,0.3232422
							c-0.2460938-0.2578125-0.5214844-0.4677734-0.9414062-0.4677734c-0.6298828,0-1.109375,0.5341797-1.109375,1.1992188
							v0.0126953c0,0.6708984,0.4912109,1.2050781,1.1386719,1.2050781c0.3964844,0,0.7021484-0.1982422,0.9482422-0.4619141
							l0.2939453,0.2763672c-0.3125,0.3476562-0.6845703,0.5996094-1.265625,0.5996094
							C46.4277344,37.2560616,45.7441406,36.5177803,45.7441406,35.6486397z"/>
						<path class="st0" d="M48.9775391,36.2843819v-0.0117188c0-0.6542969,0.5390625-1.0019531,1.3251953-1.0019531
							c0.3955078,0,0.6777344,0.0537109,0.953125,0.1318359v-0.1074219c0-0.5576172-0.3417969-0.8457031-0.9238281-0.8457031
							c-0.3652344,0-0.6533203,0.0957031-0.9414062,0.2275391l-0.1376953-0.3779297
							c0.3417969-0.1552734,0.6777344-0.2578125,1.1279297-0.2578125c0.4375,0,0.7734375,0.1142578,1.0009766,0.3417969
							c0.2099609,0.2099609,0.3173828,0.5097656,0.3173828,0.90625v1.8945312h-0.4433594v-0.4677734
							c-0.2158203,0.2822266-0.5751953,0.5341797-1.1210938,0.5341797
							C49.5585938,37.2502022,48.9775391,36.9201241,48.9775391,36.2843819z M51.2617188,36.0441475v-0.2998047
							c-0.2275391-0.0654297-0.5332031-0.1318359-0.9111328-0.1318359c-0.5820312,0-0.9052734,0.2519531-0.9052734,0.6416016
							v0.0117188c0,0.390625,0.359375,0.6181641,0.7792969,0.6181641
							C50.7939453,36.8839912,51.2617188,36.536335,51.2617188,36.0441475z"/>
						<path class="st0" d="M52.6738281,36.3625069v-1.8710938h-0.4316406V34.08321h0.4316406v-0.9355469h0.4619141V34.08321
							h0.9833984v0.4082031h-0.9833984V36.30196c0,0.3779297,0.2099609,0.515625,0.5214844,0.515625
							c0.15625,0,0.2880859-0.0292969,0.4501953-0.1074219v0.3955078c-0.1621094,0.0839844-0.3359375,0.1318359-0.5585938,0.1318359
							C53.0517578,37.2375069,52.6738281,36.9923897,52.6738281,36.3625069z"/>
						<path class="st0" d="M54.5039062,35.6427803v-0.0117188c0-0.8935547,0.6289062-1.6132812,1.4863281-1.6132812
							c0.9179688,0,1.4453125,0.7314453,1.4453125,1.6367188c0,0.0605469,0,0.0957031-0.0058594,0.1503906h-2.4580078
							c0.0654297,0.6708984,0.5390625,1.0488281,1.0908203,1.0488281c0.4257812,0,0.7255859-0.1738281,0.9775391-0.4375
							l0.2880859,0.2578125c-0.3115234,0.3476562-0.6894531,0.5820312-1.2773438,0.5820312
							C55.1992188,37.2560616,54.5039062,36.6017647,54.5039062,35.6427803z M56.9677734,35.4630928
							c-0.0478516-0.5644531-0.3710938-1.0556641-0.9892578-1.0556641c-0.5390625,0-0.9472656,0.4492188-1.0068359,1.0556641
							H56.9677734z"/>
						<path class="st0" d="M57.9238281,35.6427803v-0.0117188c0-1.0136719,0.7373047-1.6132812,1.4814453-1.6132812
							c0.5751953,0,0.9472656,0.3115234,1.1865234,0.6591797v-1.8710938h0.4619141v4.3779297h-0.4619141v-0.6240234
							c-0.2509766,0.3720703-0.6171875,0.6904297-1.1865234,0.6904297
							C58.6611328,37.2502022,57.9238281,36.6623116,57.9238281,35.6427803z M60.6103516,35.6369209v-0.0126953
							c0-0.7128906-0.5458984-1.1933594-1.1210938-1.1933594c-0.5996094,0-1.0917969,0.4443359-1.0917969,1.1933594v0.0126953
							c0,0.7314453,0.5039062,1.1992188,1.0917969,1.1992188C60.0644531,36.8361397,60.6103516,36.3498116,60.6103516,35.6369209z"
							/>
						<path class="st0" d="M63.7734375,34.4914131h-0.4257812v-0.4023438h0.4257812v-0.2695312
							c0-0.3535156,0.0957031-0.6240234,0.2695312-0.7978516c0.15625-0.1552734,0.3847656-0.2392578,0.6660156-0.2392578
							c0.2158203,0,0.3603516,0.0234375,0.5097656,0.078125v0.4013672c-0.1679688-0.0478516-0.2939453-0.078125-0.4492188-0.078125
							c-0.3603516,0-0.5400391,0.2158203-0.5400391,0.6601562v0.2519531h0.9833984v0.3955078h-0.9775391v2.6923828h-0.4619141
							V34.4914131z"/>
						<path class="st0" d="M65.4052734,35.6486397v-0.0117188c0-0.8759766,0.6835938-1.6191406,1.6191406-1.6191406
							c0.9287109,0,1.6123047,0.7314453,1.6123047,1.6064453v0.0126953c0,0.875-0.6894531,1.6191406-1.625,1.6191406
							C66.0820312,37.2560616,65.4052734,36.5246162,65.4052734,35.6486397z M68.1630859,35.6486397v-0.0117188
							c0-0.6660156-0.4970703-1.2119141-1.1513672-1.2119141c-0.6708984,0-1.1328125,0.5458984-1.1328125,1.1992188v0.0126953
							c0,0.6650391,0.4912109,1.2050781,1.1455078,1.2050781C67.6953125,36.8419991,68.1630859,36.30196,68.1630859,35.6486397z"/>
						<path class="st0" d="M69.3291016,34.08321h0.4619141v0.8095703c0.2275391-0.515625,0.6777344-0.8876953,1.265625-0.8632812
							v0.4980469h-0.0361328c-0.6777344,0-1.2294922,0.4853516-1.2294922,1.4208984v1.2353516h-0.4619141V34.08321z"/>
						<path class="st0" d="M73.4267578,36.3625069v-1.8710938h-0.4316406V34.08321h0.4316406v-0.9355469h0.4619141V34.08321
							h0.9833984v0.4082031h-0.9833984V36.30196c0,0.3779297,0.2099609,0.515625,0.5214844,0.515625
							c0.15625,0,0.2880859-0.0292969,0.4492188-0.1074219v0.3955078c-0.1611328,0.0839844-0.3349609,0.1318359-0.5576172,0.1318359
							C73.8046875,37.2375069,73.4267578,36.9923897,73.4267578,36.3625069z"/>
						<path class="st0" d="M75.5449219,32.8058662h0.4619141v1.8173828
							c0.2041016-0.3359375,0.5273438-0.6054688,1.0615234-0.6054688c0.7490234,0,1.1875,0.5039062,1.1875,1.2412109v1.9248047
							h-0.4619141v-1.8105469c0-0.5761719-0.3115234-0.9355469-0.8574219-0.9355469
							c-0.5341797,0-0.9296875,0.3896484-0.9296875,0.9707031v1.7753906h-0.4619141V32.8058662z"/>
						<path class="st0" d="M78.9052734,35.6427803v-0.0117188c0-0.8935547,0.6289062-1.6132812,1.4863281-1.6132812
							c0.9179688,0,1.4453125,0.7314453,1.4453125,1.6367188c0,0.0605469,0,0.0957031-0.0058594,0.1503906h-2.4580078
							c0.0654297,0.6708984,0.5390625,1.0488281,1.0908203,1.0488281c0.4257812,0,0.7255859-0.1738281,0.9775391-0.4375
							l0.2880859,0.2578125c-0.3115234,0.3476562-0.6894531,0.5820312-1.2773438,0.5820312
							C79.6005859,37.2560616,78.9052734,36.6017647,78.9052734,35.6427803z M81.3691406,35.4630928
							c-0.0478516-0.5644531-0.3710938-1.0556641-0.9892578-1.0556641c-0.5390625,0-0.9472656,0.4492188-1.0068359,1.0556641
							H81.3691406z"/>
						<path class="st0" d="M84.3173828,36.3625069v-1.8710938h-0.4316406V34.08321h0.4316406v-0.9355469h0.4619141V34.08321
							h0.9833984v0.4082031h-0.9833984V36.30196c0,0.3779297,0.2099609,0.515625,0.5214844,0.515625
							c0.15625,0,0.2880859-0.0292969,0.4492188-0.1074219v0.3955078c-0.1611328,0.0839844-0.3349609,0.1318359-0.5576172,0.1318359
							C84.6953125,37.2375069,84.3173828,36.9923897,84.3173828,36.3625069z"/>
						<path class="st0" d="M86.4345703,34.08321h0.4619141v0.8095703c0.2275391-0.515625,0.6777344-0.8876953,1.265625-0.8632812
							v0.4980469h-0.0361328c-0.6777344,0-1.2294922,0.4853516-1.2294922,1.4208984v1.2353516h-0.4619141V34.08321z"/>
						<path class="st0" d="M88.3974609,35.6427803v-0.0117188c0-0.8935547,0.6289062-1.6132812,1.4863281-1.6132812
							c0.9179688,0,1.4453125,0.7314453,1.4453125,1.6367188c0,0.0605469,0,0.0957031-0.0058594,0.1503906h-2.4580078
							c0.0654297,0.6708984,0.5390625,1.0488281,1.0908203,1.0488281c0.4257812,0,0.7255859-0.1738281,0.9775391-0.4375
							l0.2880859,0.2578125c-0.3115234,0.3476562-0.6894531,0.5820312-1.2773438,0.5820312
							C89.0927734,37.2560616,88.3974609,36.6017647,88.3974609,35.6427803z M90.8613281,35.4630928
							c-0.0478516-0.5644531-0.3710938-1.0556641-0.9892578-1.0556641c-0.5390625,0-0.9472656,0.4492188-1.0068359,1.0556641
							H90.8613281z"/>
						<path class="st0" d="M91.7578125,36.2843819v-0.0117188c0-0.6542969,0.5390625-1.0019531,1.3251953-1.0019531
							c0.3955078,0,0.6777344,0.0537109,0.953125,0.1318359v-0.1074219c0-0.5576172-0.3417969-0.8457031-0.9238281-0.8457031
							c-0.3652344,0-0.6533203,0.0957031-0.9414062,0.2275391l-0.1376953-0.3779297
							c0.3417969-0.1552734,0.6777344-0.2578125,1.1279297-0.2578125c0.4375,0,0.7734375,0.1142578,1.0009766,0.3417969
							c0.2099609,0.2099609,0.3173828,0.5097656,0.3173828,0.90625v1.8945312h-0.4433594v-0.4677734
							c-0.2158203,0.2822266-0.5751953,0.5341797-1.1210938,0.5341797
							C92.3388672,37.2502022,91.7578125,36.9201241,91.7578125,36.2843819z M94.0419922,36.0441475v-0.2998047
							c-0.2275391-0.0654297-0.5332031-0.1318359-0.9111328-0.1318359c-0.5820312,0-0.9052734,0.2519531-0.9052734,0.6416016
							v0.0117188c0,0.390625,0.359375,0.6181641,0.7792969,0.6181641
							C93.5742188,36.8839912,94.0419922,36.536335,94.0419922,36.0441475z"/>
						<path class="st0" d="M95.4472656,36.3625069v-1.8710938H95.015625V34.08321h0.4316406v-0.9355469h0.4619141V34.08321
							h0.9833984v0.4082031h-0.9833984V36.30196c0,0.3779297,0.2099609,0.515625,0.5214844,0.515625
							c0.15625,0,0.2880859-0.0292969,0.4501953-0.1074219v0.3955078c-0.1621094,0.0839844-0.3359375,0.1318359-0.5585938,0.1318359
							C95.8251953,37.2375069,95.4472656,36.9923897,95.4472656,36.3625069z"/>
						<path class="st0" d="M97.5644531,34.08321h0.4619141v0.5224609c0.2041016-0.3066406,0.4794922-0.5878906,1.0009766-0.5878906
							c0.5039062,0,0.828125,0.2695312,0.9960938,0.6171875c0.2216797-0.3417969,0.5517578-0.6171875,1.0908203-0.6171875
							c0.7138672,0,1.1513672,0.4794922,1.1513672,1.2470703v1.9189453h-0.4609375v-1.8105469
							c0-0.6005859-0.3007812-0.9355469-0.8037109-0.9355469c-0.4677734,0-0.8574219,0.3476562-0.8574219,0.9589844v1.7871094
							H99.6875v-1.8232422c0-0.5810547-0.3056641-0.9228516-0.7978516-0.9228516
							c-0.4912109,0-0.8632812,0.4072266-0.8632812,0.9775391v1.7685547h-0.4619141V34.08321z"/>
						<path class="st0" d="M102.9169922,35.6427803v-0.0117188c0-0.8935547,0.6289062-1.6132812,1.4863281-1.6132812
							c0.9179688,0,1.4453125,0.7314453,1.4453125,1.6367188c0,0.0605469,0,0.0957031-0.0058594,0.1503906h-2.4580078
							c0.0654297,0.6708984,0.5390625,1.0488281,1.0908203,1.0488281c0.4257812,0,0.7255859-0.1738281,0.9775391-0.4375
							l0.2880859,0.2578125c-0.3115234,0.3476562-0.6894531,0.5820312-1.2773438,0.5820312
							C103.6123047,37.2560616,102.9169922,36.6017647,102.9169922,35.6427803z M105.3808594,35.4630928
							c-0.0478516-0.5644531-0.3710938-1.0556641-0.9892578-1.0556641c-0.5390625,0-0.9472656,0.4492188-1.0068359,1.0556641
							H105.3808594z"/>
						<path class="st0" d="M106.5107422,34.08321h0.4619141v0.5400391c0.2041016-0.3359375,0.5273438-0.6054688,1.0615234-0.6054688
							c0.7490234,0,1.1875,0.5039062,1.1875,1.2412109v1.9248047h-0.4619141v-1.8105469
							c0-0.5761719-0.3115234-0.9355469-0.8574219-0.9355469c-0.5341797,0-0.9296875,0.3896484-0.9296875,0.9707031v1.7753906
							h-0.4619141V34.08321z"/>
						<path class="st0" d="M110.21875,36.3625069v-1.8710938h-0.4316406V34.08321h0.4316406v-0.9355469h0.4619141V34.08321
							h0.9833984v0.4082031h-0.9833984V36.30196c0,0.3779297,0.2099609,0.515625,0.5214844,0.515625
							c0.15625,0,0.2880859-0.0292969,0.4501953-0.1074219v0.3955078c-0.1621094,0.0839844-0.3359375,0.1318359-0.5585938,0.1318359
							C110.5966797,37.2375069,110.21875,36.9923897,110.21875,36.3625069z"/>
						<path class="st0" d="M113.8007812,35.6486397v-0.0117188c0-0.8759766,0.6835938-1.6191406,1.6191406-1.6191406
							c0.9287109,0,1.6123047,0.7314453,1.6123047,1.6064453v0.0126953c0,0.875-0.6894531,1.6191406-1.625,1.6191406
							C114.4775391,37.2560616,113.8007812,36.5246162,113.8007812,35.6486397z M116.5585938,35.6486397v-0.0117188
							c0-0.6660156-0.4970703-1.2119141-1.1513672-1.2119141c-0.6708984,0-1.1328125,0.5458984-1.1328125,1.1992188v0.0126953
							c0,0.6650391,0.4912109,1.2050781,1.1455078,1.2050781C116.0908203,36.8419991,116.5585938,36.30196,116.5585938,35.6486397z"
							/>
						<path class="st0" d="M117.8925781,34.4914131h-0.4257812v-0.4023438h0.4257812v-0.2695312
							c0-0.3535156,0.0957031-0.6240234,0.2695312-0.7978516c0.15625-0.1552734,0.3847656-0.2392578,0.6660156-0.2392578
							c0.2158203,0,0.3603516,0.0234375,0.5097656,0.078125v0.4013672c-0.1679688-0.0478516-0.2939453-0.078125-0.4492188-0.078125
							c-0.3603516,0-0.5400391,0.2158203-0.5400391,0.6601562v0.2519531h0.9833984v0.3955078h-0.9775391v2.6923828h-0.4619141
							V34.4914131z"/>
						<path class="st0" d="M121.2412109,35.6486397v-0.0117188c0-0.8759766,0.6835938-1.6191406,1.5888672-1.6191406
							c0.5878906,0,0.953125,0.2460938,1.2412109,0.5517578l-0.3056641,0.3232422
							c-0.2460938-0.2578125-0.5214844-0.4677734-0.9414062-0.4677734c-0.6298828,0-1.109375,0.5341797-1.109375,1.1992188
							v0.0126953c0,0.6708984,0.4912109,1.2050781,1.1386719,1.2050781c0.3964844,0,0.7021484-0.1982422,0.9482422-0.4619141
							l0.2939453,0.2763672c-0.3125,0.3476562-0.6835938,0.5996094-1.265625,0.5996094
							C121.9248047,37.2560616,121.2412109,36.5177803,121.2412109,35.6486397z"/>
						<path class="st0" d="M124.7138672,32.8058662h0.4619141v1.8173828
							c0.2041016-0.3359375,0.5273438-0.6054688,1.0615234-0.6054688c0.7490234,0,1.1875,0.5039062,1.1875,1.2412109v1.9248047
							h-0.4619141v-1.8105469c0-0.5761719-0.3115234-0.9355469-0.8574219-0.9355469
							c-0.5341797,0-0.9296875,0.3896484-0.9296875,0.9707031v1.7753906h-0.4619141V32.8058662z"/>
						<path class="st0" d="M128.2666016,34.08321h0.4619141v0.8095703c0.2275391-0.515625,0.6777344-0.8876953,1.265625-0.8632812
							v0.4980469h-0.0361328c-0.6777344,0-1.2294922,0.4853516-1.2294922,1.4208984v1.2353516h-0.4619141V34.08321z"/>
						<path class="st0" d="M130.2226562,35.6486397v-0.0117188c0-0.8759766,0.6835938-1.6191406,1.6191406-1.6191406
							c0.9287109,0,1.6123047,0.7314453,1.6123047,1.6064453v0.0126953c0,0.875-0.6894531,1.6191406-1.625,1.6191406
							C130.8994141,37.2560616,130.2226562,36.5246162,130.2226562,35.6486397z M132.9804688,35.6486397v-0.0117188
							c0-0.6660156-0.4970703-1.2119141-1.1513672-1.2119141c-0.6708984,0-1.1328125,0.5458984-1.1328125,1.1992188v0.0126953
							c0,0.6650391,0.4912109,1.2050781,1.1455078,1.2050781C132.5126953,36.8419991,132.9804688,36.30196,132.9804688,35.6486397z"
							/>
						<path class="st0" d="M134.1464844,34.08321h0.4619141v0.5400391c0.2041016-0.3359375,0.5273438-0.6054688,1.0615234-0.6054688
							c0.7490234,0,1.1875,0.5039062,1.1875,1.2412109v1.9248047h-0.4619141v-1.8105469
							c0-0.5761719-0.3115234-0.9355469-0.8574219-0.9355469c-0.5341797,0-0.9296875,0.3896484-0.9296875,0.9707031v1.7753906
							h-0.4619141V34.08321z"/>
						<path class="st0" d="M137.7099609,32.89571h0.5283203v0.5097656h-0.5283203V32.89571z M137.7402344,34.08321h0.4619141
							v3.1005859h-0.4619141V34.08321z"/>
						<path class="st0" d="M138.9404297,35.6486397v-0.0117188c0-0.8759766,0.6835938-1.6191406,1.5888672-1.6191406
							c0.5878906,0,0.953125,0.2460938,1.2412109,0.5517578l-0.3056641,0.3232422
							c-0.2460938-0.2578125-0.5214844-0.4677734-0.9414062-0.4677734c-0.6298828,0-1.109375,0.5341797-1.109375,1.1992188
							v0.0126953c0,0.6708984,0.4912109,1.2050781,1.1386719,1.2050781c0.3964844,0,0.7021484-0.1982422,0.9482422-0.4619141
							l0.2939453,0.2763672c-0.3125,0.3476562-0.6835938,0.5996094-1.265625,0.5996094
							C139.6240234,37.2560616,138.9404297,36.5177803,138.9404297,35.6486397z"/>
						<path class="st0" d="M144.0703125,32.8058662h0.4619141v1.8173828
							c0.2041016-0.3359375,0.5273438-0.6054688,1.0615234-0.6054688c0.7490234,0,1.1875,0.5039062,1.1875,1.2412109v1.9248047
							h-0.4619141v-1.8105469c0-0.5761719-0.3115234-0.9355469-0.8574219-0.9355469
							c-0.5341797,0-0.9296875,0.3896484-0.9296875,0.9707031v1.7753906h-0.4619141V32.8058662z"/>
						<path class="st0" d="M147.4248047,35.6427803v-0.0117188c0-0.8935547,0.6289062-1.6132812,1.4863281-1.6132812
							c0.9179688,0,1.4453125,0.7314453,1.4453125,1.6367188c0,0.0605469,0,0.0957031-0.0058594,0.1503906h-2.4580078
							c0.0654297,0.6708984,0.5390625,1.0488281,1.0908203,1.0488281c0.4257812,0,0.7255859-0.1738281,0.9775391-0.4375
							l0.2880859,0.2578125c-0.3115234,0.3476562-0.6894531,0.5820312-1.2773438,0.5820312
							C148.1201172,37.2560616,147.4248047,36.6017647,147.4248047,35.6427803z M149.8886719,35.4630928
							c-0.0478516-0.5644531-0.3710938-1.0556641-0.9892578-1.0556641c-0.5390625,0-0.9472656,0.4492188-1.0068359,1.0556641
							H149.8886719z"/>
						<path class="st0" d="M151.0244141,34.08321h0.4619141v0.6240234c0.2519531-0.3720703,0.6171875-0.6894531,1.1875-0.6894531
							c0.7431641,0,1.4804688,0.5878906,1.4804688,1.6064453v0.0126953c0,1.0126953-0.7314453,1.6132812-1.4804688,1.6132812
							c-0.5761719,0-0.9472656-0.3125-1.1875-0.6601562v1.5527344h-0.4619141V34.08321z M153.6806641,35.6427803v-0.0117188
							c0-0.7324219-0.5029297-1.2001953-1.0908203-1.2001953c-0.5761719,0-1.1210938,0.4863281-1.1210938,1.1933594v0.0126953
							c0,0.7197266,0.5449219,1.1992188,1.1210938,1.1992188C153.1894531,36.8361397,153.6806641,36.3918037,153.6806641,35.6427803
							z"/>
						<path class="st0" d="M154.6308594,36.2843819v-0.0117188c0-0.6542969,0.5390625-1.0019531,1.3251953-1.0019531
							c0.3955078,0,0.6777344,0.0537109,0.953125,0.1318359v-0.1074219c0-0.5576172-0.3417969-0.8457031-0.9238281-0.8457031
							c-0.3652344,0-0.6533203,0.0957031-0.9414062,0.2275391l-0.1376953-0.3779297
							c0.3417969-0.1552734,0.6777344-0.2578125,1.1279297-0.2578125c0.4375,0,0.7734375,0.1142578,1.0009766,0.3417969
							c0.2099609,0.2099609,0.3173828,0.5097656,0.3173828,0.90625v1.8945312h-0.4433594v-0.4677734
							c-0.2158203,0.2822266-0.5751953,0.5341797-1.1210938,0.5341797
							C155.2119141,37.2502022,154.6308594,36.9201241,154.6308594,36.2843819z M156.9150391,36.0441475v-0.2998047
							c-0.2275391-0.0654297-0.5332031-0.1318359-0.9111328-0.1318359c-0.5820312,0-0.9052734,0.2519531-0.9052734,0.6416016
							v0.0117188c0,0.390625,0.359375,0.6181641,0.7792969,0.6181641
							C156.4472656,36.8839912,156.9150391,36.536335,156.9150391,36.0441475z"/>
						<path class="st0" d="M158.3203125,36.3625069v-1.8710938h-0.4316406V34.08321h0.4316406v-0.9355469h0.4619141V34.08321
							h0.9833984v0.4082031h-0.9833984V36.30196c0,0.3779297,0.2099609,0.515625,0.5214844,0.515625
							c0.15625,0,0.2880859-0.0292969,0.4501953-0.1074219v0.3955078c-0.1621094,0.0839844-0.3359375,0.1318359-0.5585938,0.1318359
							C158.6982422,37.2375069,158.3203125,36.9923897,158.3203125,36.3625069z"/>
						<path class="st0" d="M160.4492188,32.89571h0.5283203v0.5097656h-0.5283203V32.89571z M160.4794922,34.08321h0.4619141
							v3.1005859h-0.4619141V34.08321z"/>
						<path class="st0" d="M162.0341797,36.3625069v-1.8710938h-0.4316406V34.08321h0.4316406v-0.9355469h0.4619141V34.08321
							h0.9833984v0.4082031h-0.9833984V36.30196c0,0.3779297,0.2099609,0.515625,0.5214844,0.515625
							c0.15625,0,0.2880859-0.0292969,0.4492188-0.1074219v0.3955078c-0.1611328,0.0839844-0.3349609,0.1318359-0.5576172,0.1318359
							C162.4121094,37.2375069,162.0341797,36.9923897,162.0341797,36.3625069z"/>
						<path class="st0" d="M164.1630859,32.89571h0.5283203v0.5097656h-0.5283203V32.89571z M164.1933594,34.08321h0.4619141
							v3.1005859h-0.4619141V34.08321z"/>
						<path class="st0" d="M165.328125,36.7882881L165.5625,36.45821c0.3349609,0.2519531,0.7070312,0.3955078,1.0732422,0.3955078
							c0.3710938,0,0.6416016-0.1914062,0.6416016-0.4912109v-0.0126953c0-0.3115234-0.3662109-0.4316406-0.7734375-0.5449219
							c-0.4863281-0.1386719-1.0253906-0.3066406-1.0253906-0.8759766v-0.0117188
							c0-0.5341797,0.4433594-0.8876953,1.0546875-0.8876953c0.3779297,0,0.7978516,0.1318359,1.1152344,0.3417969
							l-0.2089844,0.3476562c-0.2880859-0.1855469-0.6181641-0.2998047-0.9179688-0.2998047
							c-0.3662109,0-0.5996094,0.1923828-0.5996094,0.4501953v0.0117188c0,0.2939453,0.3837891,0.4082031,0.7978516,0.5341797
							c0.4794922,0.1435547,0.9951172,0.3291016,0.9951172,0.8867188v0.0126953
							c0,0.5869141-0.4853516,0.9287109-1.1035156,0.9287109C166.1679688,37.2433662,165.6757812,37.0695381,165.328125,36.7882881z
							"/>
						<path class="st0" d="M169.9785156,35.0968819v-0.0117188c0-1.1875,0.8867188-2.1708984,2.1220703-2.1708984
							c0.7617188,0,1.2177734,0.2695312,1.6376953,0.6650391l-0.3242188,0.3486328
							c-0.3535156-0.3359375-0.7490234-0.5761719-1.3193359-0.5761719c-0.9296875,0-1.625,0.7558594-1.625,1.7207031v0.0126953
							c0,0.9716797,0.7021484,1.7324219,1.625,1.7324219c0.5761719,0,0.9541016-0.2216797,1.3554688-0.6054688l0.3115234,0.3056641
							c-0.4375,0.4443359-0.9169922,0.7382812-1.6787109,0.7382812
							C170.8720703,37.2560616,169.9785156,36.30196,169.9785156,35.0968819z"/>
						<path class="st0" d="M175.7441406,34.08321h0.5097656l1.0429688,2.5732422l1.0498047-2.5732422h0.4980469l-1.3496094,3.125
							h-0.4082031L175.7441406,34.08321z"/>
						<path class="st0" d="M179.4394531,32.89571h0.5283203v0.5097656h-0.5283203V32.89571z M179.4697266,34.08321h0.4619141
							v3.1005859h-0.4619141V34.08321z"/>
						<path class="st0" d="M180.8613281,34.08321h0.4619141v0.8095703c0.2275391-0.515625,0.6777344-0.8876953,1.265625-0.8632812
							v0.4980469h-0.0361328c-0.6777344,0-1.2294922,0.4853516-1.2294922,1.4208984v1.2353516h-0.4619141V34.08321z"/>
						<path class="st0" d="M183.0996094,36.0080147V34.08321h0.4619141v1.8115234
							c0,0.5751953,0.3115234,0.9355469,0.8574219,0.9355469c0.5273438,0,0.9296875-0.3896484,0.9296875-0.9716797V34.08321
							h0.4550781v3.1005859h-0.4550781v-0.5400391c-0.2099609,0.3359375-0.5283203,0.6064453-1.0615234,0.6064453
							C183.5371094,37.2502022,183.0996094,36.7462959,183.0996094,36.0080147z"/>
						<path class="st0" d="M186.4355469,36.7882881l0.234375-0.3300781
							c0.3349609,0.2519531,0.7070312,0.3955078,1.0732422,0.3955078c0.3710938,0,0.6416016-0.1914062,0.6416016-0.4912109
							v-0.0126953c0-0.3115234-0.3662109-0.4316406-0.7734375-0.5449219
							c-0.4863281-0.1386719-1.0253906-0.3066406-1.0253906-0.8759766v-0.0117188
							c0-0.5341797,0.4433594-0.8876953,1.0546875-0.8876953c0.3779297,0,0.7978516,0.1318359,1.1152344,0.3417969
							l-0.2089844,0.3476562c-0.2880859-0.1855469-0.6181641-0.2998047-0.9179688-0.2998047
							c-0.3662109,0-0.5996094,0.1923828-0.5996094,0.4501953v0.0117188c0,0.2939453,0.3837891,0.4082031,0.7978516,0.5341797
							c0.4794922,0.1435547,0.9951172,0.3291016,0.9951172,0.8867188v0.0126953
							c0,0.5869141-0.4853516,0.9287109-1.1035156,0.9287109C187.2753906,37.2433662,186.7832031,37.0695381,186.4355469,36.7882881
							z"/>
						<path class="st0" d="M191.0859375,35.4630928c0-1.1035156,0.5927734-1.9667969,1.6611328-2.5673828l0.1972656,0.3066406
							c-0.9111328,0.5810547-1.390625,1.3007812-1.390625,2.2607422c0,0.9589844,0.4794922,1.6787109,1.390625,2.2607422
							l-0.1972656,0.3056641C191.6787109,37.4298897,191.0859375,36.5666084,191.0859375,35.4630928z"/>
						<path class="st0" d="M193.7314453,32.9865303h0.4736328v1.8642578h2.4228516v-1.8642578h0.4736328v4.1972656h-0.4736328
							v-1.8886719h-2.4228516v1.8886719h-0.4736328V32.9865303z"/>
						<path class="st0" d="M197.9619141,35.0968819v-0.0117188c0-1.1875,0.8867188-2.1708984,2.1220703-2.1708984
							c0.7617188,0,1.2177734,0.2695312,1.6376953,0.6650391l-0.3242188,0.3486328
							c-0.3535156-0.3359375-0.7490234-0.5761719-1.3193359-0.5761719c-0.9296875,0-1.625,0.7558594-1.625,1.7207031v0.0126953
							c0,0.9716797,0.7021484,1.7324219,1.625,1.7324219c0.5761719,0,0.9541016-0.2216797,1.3554688-0.6054688l0.3115234,0.3056641
							c-0.4375,0.4443359-0.9169922,0.7382812-1.6787109,0.7382812
							C198.8554688,37.2560616,197.9619141,36.30196,197.9619141,35.0968819z"/>
						<path class="st0" d="M202.0644531,32.9865303h0.5283203l1.4931641,3.6152344l1.4990234-3.6152344h0.5097656
							l-1.8046875,4.2275391h-0.4199219L202.0644531,32.9865303z"/>
						<path class="st0" d="M206.5175781,37.723835c0.9111328-0.5820312,1.390625-1.3017578,1.390625-2.2607422
							c0-0.9599609-0.4794922-1.6796875-1.390625-2.2607422l0.1982422-0.3066406
							c1.0673828,0.6005859,1.6601562,1.4638672,1.6601562,2.5673828s-0.5927734,1.9667969-1.6601562,2.5664062
							L206.5175781,37.723835z"/>
						<path class="st0" d="M210.8242188,32.89571h0.5283203v0.5097656h-0.5283203V32.89571z M210.8544922,34.08321h0.4619141
							v3.1005859h-0.4619141V34.08321z"/>
						<path class="st0" d="M212.2470703,34.08321h0.4619141v0.5400391c0.2041016-0.3359375,0.5273438-0.6054688,1.0615234-0.6054688
							c0.7490234,0,1.1875,0.5039062,1.1875,1.2412109v1.9248047h-0.4619141v-1.8105469
							c0-0.5761719-0.3115234-0.9355469-0.8574219-0.9355469c-0.5341797,0-0.9296875,0.3896484-0.9296875,0.9707031v1.7753906
							h-0.4619141V34.08321z"/>
						<path class="st0" d="M215.9667969,34.4914131h-0.4257812v-0.4023438h0.4257812v-0.2695312
							c0-0.3535156,0.0957031-0.6240234,0.2695312-0.7978516c0.15625-0.1552734,0.3847656-0.2392578,0.6660156-0.2392578
							c0.2158203,0,0.3603516,0.0234375,0.5097656,0.078125v0.4013672c-0.1679688-0.0478516-0.2939453-0.078125-0.4492188-0.078125
							c-0.3603516,0-0.5400391,0.2158203-0.5400391,0.6601562v0.2519531h0.9833984v0.3955078h-0.9775391v2.6923828h-0.4619141
							V34.4914131z"/>
						<path class="st0" d="M217.5996094,35.6427803v-0.0117188c0-0.8935547,0.6289062-1.6132812,1.4863281-1.6132812
							c0.9179688,0,1.4453125,0.7314453,1.4453125,1.6367188c0,0.0605469,0,0.0957031-0.0058594,0.1503906h-2.4580078
							c0.0654297,0.6708984,0.5390625,1.0488281,1.0908203,1.0488281c0.4257812,0,0.7255859-0.1738281,0.9775391-0.4375
							l0.2880859,0.2578125c-0.3115234,0.3476562-0.6894531,0.5820312-1.2773438,0.5820312
							C218.2949219,37.2560616,217.5996094,36.6017647,217.5996094,35.6427803z M220.0634766,35.4630928
							c-0.0478516-0.5644531-0.3710938-1.0556641-0.9892578-1.0556641c-0.5390625,0-0.9472656,0.4492188-1.0068359,1.0556641
							H220.0634766z"/>
						<path class="st0" d="M221.0009766,35.6486397v-0.0117188c0-0.8759766,0.6835938-1.6191406,1.5888672-1.6191406
							c0.5878906,0,0.953125,0.2460938,1.2412109,0.5517578l-0.3056641,0.3232422
							c-0.2460938-0.2578125-0.5214844-0.4677734-0.9414062-0.4677734c-0.6298828,0-1.109375,0.5341797-1.109375,1.1992188
							v0.0126953c0,0.6708984,0.4912109,1.2050781,1.1386719,1.2050781c0.3964844,0,0.7021484-0.1982422,0.9482422-0.4619141
							l0.2939453,0.2763672c-0.3125,0.3476562-0.6835938,0.5996094-1.265625,0.5996094
							C221.6845703,37.2560616,221.0009766,36.5177803,221.0009766,35.6486397z"/>
						<path class="st0" d="M224.6308594,36.3625069v-1.8710938h-0.4316406V34.08321h0.4316406v-0.9355469h0.4619141V34.08321
							h0.9833984v0.4082031h-0.9833984V36.30196c0,0.3779297,0.2099609,0.515625,0.5214844,0.515625
							c0.15625,0,0.2880859-0.0292969,0.4501953-0.1074219v0.3955078c-0.1621094,0.0839844-0.3359375,0.1318359-0.5585938,0.1318359
							C225.0087891,37.2375069,224.6308594,36.9923897,224.6308594,36.3625069z"/>
						<path class="st0" d="M226.7597656,32.89571h0.5283203v0.5097656h-0.5283203V32.89571z M226.7900391,34.08321h0.4619141
							v3.1005859h-0.4619141V34.08321z"/>
						<path class="st0" d="M227.9912109,35.6486397v-0.0117188c0-0.8759766,0.6835938-1.6191406,1.6191406-1.6191406
							c0.9287109,0,1.6123047,0.7314453,1.6123047,1.6064453v0.0126953c0,0.875-0.6894531,1.6191406-1.625,1.6191406
							C228.6679688,37.2560616,227.9912109,36.5246162,227.9912109,35.6486397z M230.7490234,35.6486397v-0.0117188
							c0-0.6660156-0.4970703-1.2119141-1.1513672-1.2119141c-0.6708984,0-1.1328125,0.5458984-1.1328125,1.1992188v0.0126953
							c0,0.6650391,0.4912109,1.2050781,1.1455078,1.2050781C230.28125,36.8419991,230.7490234,36.30196,230.7490234,35.6486397z"/>
						<path class="st0" d="M231.9082031,34.08321h0.4619141v0.5400391c0.2041016-0.3359375,0.5273438-0.6054688,1.0615234-0.6054688
							c0.7490234,0,1.1875,0.5039062,1.1875,1.2412109v1.9248047h-0.4619141v-1.8105469
							c0-0.5761719-0.3115234-0.9355469-0.8574219-0.9355469c-0.5341797,0-0.9296875,0.3896484-0.9296875,0.9707031v1.7753906
							h-0.4619141V34.08321z"/>
					</g>
				</g>
				<g>
					<g>
						<path class="st0" d="M0,38.89571h0.5283203v0.5097656H0V38.89571z M0.0302734,40.08321h0.4619141v3.1005859H0.0302734
							V40.08321z"/>
						<path class="st0" d="M1.421875,40.08321h0.4619141v0.5400391c0.2041016-0.3359375,0.5273438-0.6054688,1.0615234-0.6054688
							c0.7490234,0,1.1875,0.5039062,1.1875,1.2412109v1.9248047H3.6708984v-1.8105469
							c0-0.5761719-0.3115234-0.9355469-0.8574219-0.9355469c-0.5341797,0-0.9296875,0.3896484-0.9296875,0.9707031v1.7753906
							H1.421875V40.08321z"/>
						<path class="st0" d="M6.3964844,42.2843819v-0.0117188c0-0.6542969,0.5390625-1.0019531,1.3251953-1.0019531
							c0.3955078,0,0.6777344,0.0537109,0.953125,0.1318359v-0.1074219c0-0.5576172-0.3417969-0.8457031-0.9238281-0.8457031
							c-0.3652344,0-0.6533203,0.0957031-0.9414062,0.2275391L6.671875,40.2990303
							c0.3417969-0.1552734,0.6777344-0.2578125,1.1279297-0.2578125c0.4375,0,0.7734375,0.1142578,1.0009766,0.3417969
							c0.2099609,0.2099609,0.3173828,0.5097656,0.3173828,0.90625v1.8945312H8.6748047v-0.4677734
							c-0.2158203,0.2822266-0.5751953,0.5341797-1.1210938,0.5341797
							C6.9775391,43.2502022,6.3964844,42.9201241,6.3964844,42.2843819z M8.6806641,42.0441475v-0.2998047
							c-0.2275391-0.0654297-0.5332031-0.1318359-0.9111328-0.1318359c-0.5820312,0-0.9052734,0.2519531-0.9052734,0.6416016
							v0.0117188c0,0.390625,0.359375,0.6181641,0.7792969,0.6181641
							C8.2128906,42.8839912,8.6806641,42.536335,8.6806641,42.0441475z"/>
						<path class="st0" d="M9.7802734,41.6427803v-0.0117188c0-1.0136719,0.7373047-1.6132812,1.4814453-1.6132812
							c0.5751953,0,0.9472656,0.3115234,1.1865234,0.6591797v-1.8710938h0.4619141v4.3779297h-0.4619141v-0.6240234
							c-0.2509766,0.3720703-0.6171875,0.6904297-1.1865234,0.6904297
							C10.5175781,43.2502022,9.7802734,42.6623116,9.7802734,41.6427803z M12.4667969,41.6369209v-0.0126953
							c0-0.7128906-0.5458984-1.1933594-1.1210938-1.1933594c-0.5996094,0-1.0917969,0.4443359-1.0917969,1.1933594v0.0126953
							c0,0.7314453,0.5039062,1.1992188,1.0917969,1.1992188C11.9208984,42.8361397,12.4667969,42.3498116,12.4667969,41.6369209z"
							/>
						<path class="st0" d="M13.7519531,42.0080147V40.08321h0.4619141v1.8115234
							c0,0.5751953,0.3115234,0.9355469,0.8574219,0.9355469c0.5273438,0,0.9296875-0.3896484,0.9296875-0.9716797V40.08321
							h0.4550781v3.1005859h-0.4550781v-0.5400391c-0.2099609,0.3359375-0.5283203,0.6064453-1.0615234,0.6064453
							C14.1894531,43.2502022,13.7519531,42.7462959,13.7519531,42.0080147z"/>
						<path class="st0" d="M17.3876953,38.8058662h0.4619141v4.3779297h-0.4619141V38.8058662z"/>
						<path class="st0" d="M18.9423828,42.3625069v-1.8710938h-0.4316406V40.08321h0.4316406v-0.9355469h0.4619141V40.08321
							h0.9833984v0.4082031h-0.9833984V42.30196c0,0.3779297,0.2099609,0.515625,0.5214844,0.515625
							c0.15625,0,0.2880859-0.0292969,0.4492188-0.1074219v0.3955078c-0.1611328,0.0839844-0.3349609,0.1318359-0.5576172,0.1318359
							C19.3203125,43.2375069,18.9423828,42.9923897,18.9423828,42.3625069z"/>
						<path class="st0" d="M20.8017578,42.7882881l0.234375-0.3300781c0.3349609,0.2519531,0.7070312,0.3955078,1.0732422,0.3955078
							c0.3710938,0,0.6416016-0.1914062,0.6416016-0.4912109v-0.0126953c0-0.3115234-0.3662109-0.4316406-0.7734375-0.5449219
							c-0.4863281-0.1386719-1.0253906-0.3066406-1.0253906-0.8759766v-0.0117188
							c0-0.5341797,0.4433594-0.8876953,1.0546875-0.8876953c0.3779297,0,0.7978516,0.1318359,1.1152344,0.3417969
							l-0.2089844,0.3476562c-0.2880859-0.1855469-0.6181641-0.2998047-0.9179688-0.2998047
							c-0.3662109,0-0.5996094,0.1923828-0.5996094,0.4501953v0.0117188c0,0.2939453,0.3837891,0.4082031,0.7978516,0.5341797
							c0.4794922,0.1435547,0.9951172,0.3291016,0.9951172,0.8867188v0.0126953
							c0,0.5869141-0.4853516,0.9287109-1.1035156,0.9287109C21.6416016,43.2433662,21.1494141,43.0695381,20.8017578,42.7882881z"
							/>
						<path class="st0" d="M23.84375,42.5539131h0.5517578v0.6298828H23.84375V42.5539131z"/>
						<path class="st0" d="M26.9580078,38.9865303h3.0166016v0.4375h-2.5429688v1.4990234h2.2724609v0.4316406h-2.2724609v1.8291016
							h-0.4736328V38.9865303z"/>
						<path class="st0" d="M30.390625,41.6486397v-0.0117188c0-0.8759766,0.6835938-1.6191406,1.6191406-1.6191406
							c0.9287109,0,1.6123047,0.7314453,1.6123047,1.6064453v0.0126953c0,0.875-0.6894531,1.6191406-1.625,1.6191406
							C31.0673828,43.2560616,30.390625,42.5246162,30.390625,41.6486397z M33.1484375,41.6486397v-0.0117188
							c0-0.6660156-0.4970703-1.2119141-1.1513672-1.2119141c-0.6708984,0-1.1328125,0.5458984-1.1328125,1.1992188v0.0126953
							c0,0.6650391,0.4912109,1.2050781,1.1455078,1.2050781C32.6806641,42.8419991,33.1484375,42.30196,33.1484375,41.6486397z"/>
						<path class="st0" d="M34.3076172,40.08321h0.4619141v0.8095703c0.2275391-0.515625,0.6777344-0.8876953,1.265625-0.8632812
							v0.4980469h-0.0361328c-0.6777344,0-1.2294922,0.4853516-1.2294922,1.4208984v1.2353516h-0.4619141V40.08321z"/>
						<path class="st0" d="M38.3271484,38.9865303h3.0341797v0.4316406h-2.5605469v1.4326172h2.2910156v0.4316406h-2.2910156
							v1.4697266h2.5908203v0.4316406h-3.0644531V38.9865303z"/>
						<path class="st0" d="M42.1308594,41.42696v-2.4404297h0.4736328v2.4101562
							c0,0.9052734,0.4804688,1.4150391,1.2841797,1.4150391c0.7734375,0,1.2646484-0.4677734,1.2646484-1.3847656v-2.4404297
							h0.4736328v2.4042969c0,1.2236328-0.7011719,1.859375-1.7509766,1.859375
							C42.8388672,43.2502022,42.1308594,42.61446,42.1308594,41.42696z"/>
						<path class="st0" d="M48.2636719,38.9865303h0.4736328v1.8642578h2.4228516v-1.8642578h0.4736328v4.1972656h-0.4736328
							v-1.8886719h-2.4228516v1.8886719h-0.4736328V38.9865303z"/>
						<path class="st0" d="M52.4101562,41.6427803v-0.0117188c0-0.8935547,0.6289062-1.6132812,1.4863281-1.6132812
							c0.9179688,0,1.4453125,0.7314453,1.4453125,1.6367188c0,0.0605469,0,0.0957031-0.0058594,0.1503906h-2.4580078
							c0.0654297,0.6708984,0.5390625,1.0488281,1.0908203,1.0488281c0.4257812,0,0.7255859-0.1738281,0.9775391-0.4375
							l0.2880859,0.2578125c-0.3115234,0.3476562-0.6894531,0.5820312-1.2773438,0.5820312
							C53.1054688,43.2560616,52.4101562,42.6017647,52.4101562,41.6427803z M54.8740234,41.4630928
							c-0.0478516-0.5644531-0.3710938-1.0556641-0.9892578-1.0556641c-0.5390625,0-0.9472656,0.4492188-1.0068359,1.0556641
							H54.8740234z"/>
						<path class="st0" d="M55.7695312,42.2843819v-0.0117188c0-0.6542969,0.5390625-1.0019531,1.3251953-1.0019531
							c0.3955078,0,0.6777344,0.0537109,0.953125,0.1318359v-0.1074219c0-0.5576172-0.3417969-0.8457031-0.9238281-0.8457031
							c-0.3652344,0-0.6533203,0.0957031-0.9414062,0.2275391l-0.1376953-0.3779297
							c0.3417969-0.1552734,0.6777344-0.2578125,1.1279297-0.2578125c0.4375,0,0.7734375,0.1142578,1.0009766,0.3417969
							c0.2099609,0.2099609,0.3173828,0.5097656,0.3173828,0.90625v1.8945312h-0.4433594v-0.4677734
							c-0.2158203,0.2822266-0.5751953,0.5341797-1.1210938,0.5341797
							C56.3505859,43.2502022,55.7695312,42.9201241,55.7695312,42.2843819z M58.0537109,42.0441475v-0.2998047
							c-0.2275391-0.0654297-0.5332031-0.1318359-0.9111328-0.1318359c-0.5820312,0-0.9052734,0.2519531-0.9052734,0.6416016
							v0.0117188c0,0.390625,0.359375,0.6181641,0.7792969,0.6181641
							C57.5859375,42.8839912,58.0537109,42.536335,58.0537109,42.0441475z"/>
						<path class="st0" d="M59.375,38.8058662h0.4619141v4.3779297H59.375V38.8058662z"/>
						<path class="st0" d="M60.9296875,42.3625069v-1.8710938h-0.4316406V40.08321h0.4316406v-0.9355469h0.4619141V40.08321H62.375
							v0.4082031h-0.9833984V42.30196c0,0.3779297,0.2099609,0.515625,0.5214844,0.515625
							c0.15625,0,0.2880859-0.0292969,0.4501953-0.1074219v0.3955078c-0.1621094,0.0839844-0.3359375,0.1318359-0.5585938,0.1318359
							C61.3076172,43.2375069,60.9296875,42.9923897,60.9296875,42.3625069z"/>
						<path class="st0" d="M63.046875,38.8058662h0.4619141v1.8173828c0.2041016-0.3359375,0.5273438-0.6054688,1.0615234-0.6054688
							c0.7490234,0,1.1875,0.5039062,1.1875,1.2412109v1.9248047h-0.4619141v-1.8105469
							c0-0.5761719-0.3115234-0.9355469-0.8574219-0.9355469c-0.5341797,0-0.9296875,0.3896484-0.9296875,0.9707031v1.7753906
							H63.046875V38.8058662z"/>
						<path class="st0" d="M66.4013672,41.6486397v-0.0117188c0-0.8759766,0.6835938-1.6191406,1.5888672-1.6191406
							c0.5878906,0,0.953125,0.2460938,1.2412109,0.5517578l-0.3056641,0.3232422
							c-0.2460938-0.2578125-0.5214844-0.4677734-0.9414062-0.4677734c-0.6298828,0-1.109375,0.5341797-1.109375,1.1992188
							v0.0126953c0,0.6708984,0.4912109,1.2050781,1.1386719,1.2050781c0.3964844,0,0.7021484-0.1982422,0.9482422-0.4619141
							l0.2939453,0.2763672c-0.3125,0.3476562-0.6835938,0.5996094-1.265625,0.5996094
							C67.0849609,43.2560616,66.4013672,42.5177803,66.4013672,41.6486397z"/>
						<path class="st0" d="M69.6416016,42.2843819v-0.0117188c0-0.6542969,0.5390625-1.0019531,1.3251953-1.0019531
							c0.3955078,0,0.6777344,0.0537109,0.953125,0.1318359v-0.1074219c0-0.5576172-0.3417969-0.8457031-0.9238281-0.8457031
							c-0.3652344,0-0.6533203,0.0957031-0.9414062,0.2275391l-0.1376953-0.3779297
							c0.3417969-0.1552734,0.6777344-0.2578125,1.1279297-0.2578125c0.4375,0,0.7734375,0.1142578,1.0009766,0.3417969
							c0.2099609,0.2099609,0.3173828,0.5097656,0.3173828,0.90625v1.8945312h-0.4433594v-0.4677734
							c-0.2158203,0.2822266-0.5751953,0.5341797-1.1210938,0.5341797
							C70.2226562,43.2502022,69.6416016,42.9201241,69.6416016,42.2843819z M71.9257812,42.0441475v-0.2998047
							c-0.2275391-0.0654297-0.5332031-0.1318359-0.9111328-0.1318359c-0.5820312,0-0.9052734,0.2519531-0.9052734,0.6416016
							v0.0117188c0,0.390625,0.359375,0.6181641,0.7792969,0.6181641
							C71.4580078,42.8839912,71.9257812,42.536335,71.9257812,42.0441475z"/>
						<path class="st0" d="M73.1992188,40.08321h0.4619141v0.8095703c0.2275391-0.515625,0.6777344-0.8876953,1.265625-0.8632812
							v0.4980469H74.890625c-0.6777344,0-1.2294922,0.4853516-1.2294922,1.4208984v1.2353516h-0.4619141V40.08321z"/>
						<path class="st0" d="M75.1611328,41.6427803v-0.0117188c0-0.8935547,0.6289062-1.6132812,1.4863281-1.6132812
							c0.9179688,0,1.4453125,0.7314453,1.4453125,1.6367188c0,0.0605469,0,0.0957031-0.0058594,0.1503906h-2.4580078
							c0.0654297,0.6708984,0.5390625,1.0488281,1.0908203,1.0488281c0.4257812,0,0.7255859-0.1738281,0.9775391-0.4375
							l0.2880859,0.2578125c-0.3115234,0.3476562-0.6894531,0.5820312-1.2773438,0.5820312
							C75.8564453,43.2560616,75.1611328,42.6017647,75.1611328,41.6427803z M77.625,41.4630928
							c-0.0478516-0.5644531-0.3710938-1.0556641-0.9892578-1.0556641c-0.5390625,0-0.9472656,0.4492188-1.0068359,1.0556641H77.625
							z"/>
						<path class="st0" d="M80.4951172,38.9865303h1.5712891c0.9472656,0,1.5712891,0.5029297,1.5712891,1.3310547v0.0117188
							c0,0.9052734-0.7558594,1.3730469-1.6494141,1.3730469H80.96875v1.4814453h-0.4736328V38.9865303z M82.0058594,41.27071
							c0.6962891,0,1.1513672-0.3720703,1.1513672-0.9238281v-0.0117188c0-0.5996094-0.4492188-0.9111328-1.1269531-0.9111328
							H80.96875V41.27071H82.0058594z"/>
						<path class="st0" d="M84.2744141,40.08321h0.4619141v0.8095703c0.2275391-0.515625,0.6777344-0.8876953,1.265625-0.8632812
							v0.4980469h-0.0361328c-0.6777344,0-1.2294922,0.4853516-1.2294922,1.4208984v1.2353516h-0.4619141V40.08321z"/>
						<path class="st0" d="M86.2373047,41.6486397v-0.0117188c0-0.8759766,0.6835938-1.6191406,1.6191406-1.6191406
							c0.9287109,0,1.6123047,0.7314453,1.6123047,1.6064453v0.0126953c0,0.875-0.6894531,1.6191406-1.625,1.6191406
							C86.9140625,43.2560616,86.2373047,42.5246162,86.2373047,41.6486397z M88.9951172,41.6486397v-0.0117188
							c0-0.6660156-0.4970703-1.2119141-1.1513672-1.2119141c-0.6708984,0-1.1328125,0.5458984-1.1328125,1.1992188v0.0126953
							c0,0.6650391,0.4912109,1.2050781,1.1455078,1.2050781C88.5273438,42.8419991,88.9951172,42.30196,88.9951172,41.6486397z"/>
						<path class="st0" d="M90.3349609,40.4914131h-0.4257812v-0.4023438h0.4257812v-0.2695312
							c0-0.3535156,0.0957031-0.6240234,0.2705078-0.7978516c0.1552734-0.1552734,0.3828125-0.2392578,0.6650391-0.2392578
							c0.2158203,0,0.3603516,0.0234375,0.5097656,0.078125v0.4013672c-0.1679688-0.0478516-0.2939453-0.078125-0.4492188-0.078125
							c-0.3603516,0-0.5400391,0.2158203-0.5400391,0.6601562v0.2519531h0.9833984v0.3955078H90.796875v2.6923828h-0.4619141
							V40.4914131z"/>
						<path class="st0" d="M91.9677734,41.6427803v-0.0117188c0-0.8935547,0.6289062-1.6132812,1.4863281-1.6132812
							c0.9179688,0,1.4453125,0.7314453,1.4453125,1.6367188c0,0.0605469,0,0.0957031-0.0058594,0.1503906h-2.4580078
							c0.0654297,0.6708984,0.5390625,1.0488281,1.0908203,1.0488281c0.4257812,0,0.7255859-0.1738281,0.9775391-0.4375
							l0.2880859,0.2578125c-0.3115234,0.3476562-0.6894531,0.5820312-1.2773438,0.5820312
							C92.6630859,43.2560616,91.9677734,42.6017647,91.9677734,41.6427803z M94.4316406,41.4630928
							c-0.0478516-0.5644531-0.3710938-1.0556641-0.9892578-1.0556641c-0.5390625,0-0.9472656,0.4492188-1.0068359,1.0556641
							H94.4316406z"/>
						<path class="st0" d="M95.3027344,42.7882881l0.234375-0.3300781c0.3349609,0.2519531,0.7070312,0.3955078,1.0732422,0.3955078
							c0.3710938,0,0.6416016-0.1914062,0.6416016-0.4912109v-0.0126953c0-0.3115234-0.3662109-0.4316406-0.7734375-0.5449219
							c-0.4863281-0.1386719-1.0253906-0.3066406-1.0253906-0.8759766v-0.0117188
							c0-0.5341797,0.4433594-0.8876953,1.0546875-0.8876953c0.3779297,0,0.7978516,0.1318359,1.1152344,0.3417969
							l-0.2089844,0.3476562c-0.2880859-0.1855469-0.6181641-0.2998047-0.9179688-0.2998047
							c-0.3662109,0-0.5996094,0.1923828-0.5996094,0.4501953v0.0117188c0,0.2939453,0.3837891,0.4082031,0.7978516,0.5341797
							c0.4794922,0.1435547,0.9951172,0.3291016,0.9951172,0.8867188v0.0126953
							c0,0.5869141-0.4853516,0.9287109-1.1035156,0.9287109C96.1425781,43.2433662,95.6503906,43.0695381,95.3027344,42.7882881z"
							/>
						<path class="st0" d="M98.0869141,42.7882881l0.234375-0.3300781c0.3349609,0.2519531,0.7070312,0.3955078,1.0732422,0.3955078
							c0.3710938,0,0.6416016-0.1914062,0.6416016-0.4912109v-0.0126953c0-0.3115234-0.3662109-0.4316406-0.7734375-0.5449219
							c-0.4863281-0.1386719-1.0253906-0.3066406-1.0253906-0.8759766v-0.0117188
							c0-0.5341797,0.4433594-0.8876953,1.0546875-0.8876953c0.3779297,0,0.7978516,0.1318359,1.1152344,0.3417969
							l-0.2089844,0.3476562c-0.2880859-0.1855469-0.6181641-0.2998047-0.9179688-0.2998047
							c-0.3662109,0-0.5996094,0.1923828-0.5996094,0.4501953v0.0117188c0,0.2939453,0.3837891,0.4082031,0.7978516,0.5341797
							c0.4794922,0.1435547,0.9951172,0.3291016,0.9951172,0.8867188v0.0126953
							c0,0.5869141-0.4853516,0.9287109-1.1035156,0.9287109C98.9267578,43.2433662,98.4345703,43.0695381,98.0869141,42.7882881z"
							/>
						<path class="st0" d="M101.2001953,38.89571h0.5283203v0.5097656h-0.5283203V38.89571z M101.2304688,40.08321h0.4619141
							v3.1005859h-0.4619141V40.08321z"/>
						<path class="st0" d="M102.4306641,41.6486397v-0.0117188c0-0.8759766,0.6835938-1.6191406,1.6191406-1.6191406
							c0.9287109,0,1.6123047,0.7314453,1.6123047,1.6064453v0.0126953c0,0.875-0.6894531,1.6191406-1.625,1.6191406
							C103.1074219,43.2560616,102.4306641,42.5246162,102.4306641,41.6486397z M105.1884766,41.6486397v-0.0117188
							c0-0.6660156-0.4970703-1.2119141-1.1513672-1.2119141c-0.6708984,0-1.1328125,0.5458984-1.1328125,1.1992188v0.0126953
							c0,0.6650391,0.4912109,1.2050781,1.1455078,1.2050781C104.7207031,42.8419991,105.1884766,42.30196,105.1884766,41.6486397z"
							/>
						<path class="st0" d="M106.3486328,40.08321h0.4619141v0.5400391c0.2041016-0.3359375,0.5273438-0.6054688,1.0615234-0.6054688
							c0.7490234,0,1.1875,0.5039062,1.1875,1.2412109v1.9248047h-0.4619141v-1.8105469
							c0-0.5761719-0.3115234-0.9355469-0.8574219-0.9355469c-0.5341797,0-0.9296875,0.3896484-0.9296875,0.9707031v1.7753906
							h-0.4619141V40.08321z"/>
						<path class="st0" d="M109.6611328,42.2843819v-0.0117188c0-0.6542969,0.5390625-1.0019531,1.3251953-1.0019531
							c0.3955078,0,0.6777344,0.0537109,0.953125,0.1318359v-0.1074219c0-0.5576172-0.3417969-0.8457031-0.9238281-0.8457031
							c-0.3652344,0-0.6533203,0.0957031-0.9414062,0.2275391l-0.1376953-0.3779297
							c0.3417969-0.1552734,0.6777344-0.2578125,1.1279297-0.2578125c0.4375,0,0.7734375,0.1142578,1.0009766,0.3417969
							c0.2099609,0.2099609,0.3173828,0.5097656,0.3173828,0.90625v1.8945312h-0.4433594v-0.4677734
							c-0.2158203,0.2822266-0.5751953,0.5341797-1.1210938,0.5341797
							C110.2421875,43.2502022,109.6611328,42.9201241,109.6611328,42.2843819z M111.9453125,42.0441475v-0.2998047
							c-0.2275391-0.0654297-0.5332031-0.1318359-0.9111328-0.1318359c-0.5820312,0-0.9052734,0.2519531-0.9052734,0.6416016
							v0.0117188c0,0.390625,0.359375,0.6181641,0.7792969,0.6181641
							C111.4775391,42.8839912,111.9453125,42.536335,111.9453125,42.0441475z"/>
						<path class="st0" d="M113.2666016,38.8058662h0.4619141v4.3779297h-0.4619141V38.8058662z"/>
						<path class="st0" d="M114.4003906,42.7882881l0.234375-0.3300781
							c0.3349609,0.2519531,0.7070312,0.3955078,1.0732422,0.3955078c0.3710938,0,0.6416016-0.1914062,0.6416016-0.4912109
							v-0.0126953c0-0.3115234-0.3662109-0.4316406-0.7734375-0.5449219
							c-0.4863281-0.1386719-1.0253906-0.3066406-1.0253906-0.8759766v-0.0117188
							c0-0.5341797,0.4433594-0.8876953,1.0546875-0.8876953c0.3779297,0,0.7978516,0.1318359,1.1152344,0.3417969
							l-0.2089844,0.3476562c-0.2880859-0.1855469-0.6181641-0.2998047-0.9179688-0.2998047
							c-0.3662109,0-0.5996094,0.1923828-0.5996094,0.4501953v0.0117188c0,0.2939453,0.3837891,0.4082031,0.7978516,0.5341797
							c0.4794922,0.1435547,0.9951172,0.3291016,0.9951172,0.8867188v0.0126953
							c0,0.5869141-0.4853516,0.9287109-1.1035156,0.9287109C115.2402344,43.2433662,114.7480469,43.0695381,114.4003906,42.7882881
							z"/>
						<path class="st0" d="M118.9667969,41.6486397v-0.0117188c0-0.8759766,0.6835938-1.6191406,1.6191406-1.6191406
							c0.9287109,0,1.6123047,0.7314453,1.6123047,1.6064453v0.0126953c0,0.875-0.6894531,1.6191406-1.625,1.6191406
							C119.6435547,43.2560616,118.9667969,42.5246162,118.9667969,41.6486397z M121.7246094,41.6486397v-0.0117188
							c0-0.6660156-0.4970703-1.2119141-1.1513672-1.2119141c-0.6708984,0-1.1328125,0.5458984-1.1328125,1.1992188v0.0126953
							c0,0.6650391,0.4912109,1.2050781,1.1455078,1.2050781C121.2568359,42.8419991,121.7246094,42.30196,121.7246094,41.6486397z"
							/>
						<path class="st0" d="M122.890625,40.08321h0.4619141v0.5400391c0.2041016-0.3359375,0.5273438-0.6054688,1.0615234-0.6054688
							c0.7490234,0,1.1875,0.5039062,1.1875,1.2412109v1.9248047h-0.4619141v-1.8105469
							c0-0.5761719-0.3115234-0.9355469-0.8574219-0.9355469c-0.5341797,0-0.9296875,0.3896484-0.9296875,0.9707031v1.7753906
							h-0.4619141V40.08321z"/>
						<path class="st0" d="M126.484375,38.8058662h0.4619141v4.3779297h-0.4619141V38.8058662z"/>
						<path class="st0" d="M130.1972656,40.08321h0.4912109l-1.3007812,3.2021484
							c-0.2646484,0.6416016-0.5644531,0.8759766-1.0322266,0.8759766c-0.2578125,0-0.4492188-0.0537109-0.6591797-0.15625
							l0.15625-0.3652344c0.1494141,0.078125,0.2871094,0.1132812,0.4853516,0.1132812
							c0.2753906,0,0.4492188-0.1435547,0.6357422-0.5810547l-1.4091797-3.0888672h0.5097656l1.1269531,2.5849609
							L130.1972656,40.08321z"/>
						<path class="st0" d="M130.7080078,42.5539131h0.5517578v0.6298828h-0.5517578V42.5539131z"/>
						<path class="st0" d="M133.8222656,38.9865303h0.4794922l1.5292969,2.2900391l1.5292969-2.2900391h0.4794922v4.1972656
							h-0.4736328v-3.4003906l-1.5292969,2.2490234h-0.0234375l-1.5292969-2.2431641v3.3945312h-0.4619141V38.9865303z"/>
						<path class="st0" d="M138.5742188,42.2843819v-0.0117188c0-0.6542969,0.5390625-1.0019531,1.3251953-1.0019531
							c0.3955078,0,0.6777344,0.0537109,0.953125,0.1318359v-0.1074219c0-0.5576172-0.3417969-0.8457031-0.9238281-0.8457031
							c-0.3652344,0-0.6533203,0.0957031-0.9414062,0.2275391l-0.1376953-0.3779297
							c0.3417969-0.1552734,0.6777344-0.2578125,1.1279297-0.2578125c0.4375,0,0.7734375,0.1142578,1.0009766,0.3417969
							c0.2099609,0.2099609,0.3173828,0.5097656,0.3173828,0.90625v1.8945312h-0.4433594v-0.4677734
							c-0.2158203,0.2822266-0.5751953,0.5341797-1.1210938,0.5341797
							C139.1552734,43.2502022,138.5742188,42.9201241,138.5742188,42.2843819z M140.8583984,42.0441475v-0.2998047
							c-0.2275391-0.0654297-0.5332031-0.1318359-0.9111328-0.1318359c-0.5820312,0-0.9052734,0.2519531-0.9052734,0.6416016
							v0.0117188c0,0.390625,0.359375,0.6181641,0.7792969,0.6181641
							C140.390625,42.8839912,140.8583984,42.536335,140.8583984,42.0441475z"/>
						<path class="st0" d="M144.3330078,40.08321h0.4912109l-1.3007812,3.2021484
							c-0.2646484,0.6416016-0.5644531,0.8759766-1.0322266,0.8759766c-0.2578125,0-0.4492188-0.0537109-0.6591797-0.15625
							l0.15625-0.3652344c0.1494141,0.078125,0.2871094,0.1132812,0.4853516,0.1132812
							c0.2753906,0,0.4492188-0.1435547,0.6357422-0.5810547l-1.4091797-3.0888672h0.5097656l1.1269531,2.5849609
							L144.3330078,40.08321z"/>
						<path class="st0" d="M146.8417969,42.817585l1.5224609-1.3427734
							c0.6425781-0.5761719,0.8759766-0.8994141,0.8759766-1.3193359c0-0.4921875-0.3896484-0.8037109-0.8457031-0.8037109
							c-0.4794922,0-0.7910156,0.2519531-1.1269531,0.7197266l-0.3476562-0.2519531
							c0.3769531-0.5634766,0.7734375-0.8935547,1.5107422-0.8935547c0.7558594,0,1.3017578,0.5039062,1.3017578,1.1875v0.0117188
							c0,0.6123047-0.3242188,0.9892578-1.0615234,1.6318359l-1.1220703,0.9951172h2.2255859v0.4316406h-2.9326172V42.817585z"/>
						<path class="st0" d="M150.3759766,41.0968819v-0.0117188c0-1.1757812,0.7011719-2.1708984,1.7802734-2.1708984
							c1.0800781,0,1.7636719,0.9833984,1.7636719,2.1582031v0.0126953c0,1.1748047-0.6953125,2.1708984-1.7753906,2.1708984
							C151.0595703,43.2560616,150.3759766,42.2726631,150.3759766,41.0968819z M153.4277344,41.0968819v-0.0117188
							c0-0.9179688-0.5039062-1.7392578-1.2832031-1.7392578c-0.7851562,0-1.2773438,0.8037109-1.2773438,1.7265625v0.0126953
							c0,0.9169922,0.5039062,1.7392578,1.2890625,1.7392578C152.9423828,42.8244209,153.4277344,42.0148506,153.4277344,41.0968819
							z"/>
						<path class="st0" d="M154.3779297,42.817585l1.5224609-1.3427734
							c0.6425781-0.5761719,0.8759766-0.8994141,0.8759766-1.3193359c0-0.4921875-0.3896484-0.8037109-0.8457031-0.8037109
							c-0.4794922,0-0.7910156,0.2519531-1.1269531,0.7197266l-0.3476562-0.2519531
							c0.3769531-0.5634766,0.7734375-0.8935547,1.5107422-0.8935547c0.7558594,0,1.3017578,0.5039062,1.3017578,1.1875v0.0117188
							c0,0.6123047-0.3242188,0.9892578-1.0615234,1.6318359l-1.1220703,0.9951172h2.2255859v0.4316406h-2.9326172V42.817585z"/>
						<path class="st0" d="M157.828125,42.817585l1.5224609-1.3427734c0.6425781-0.5761719,0.8759766-0.8994141,0.8759766-1.3193359
							c0-0.4921875-0.3896484-0.8037109-0.8457031-0.8037109c-0.4794922,0-0.7910156,0.2519531-1.1269531,0.7197266
							l-0.3476562-0.2519531c0.3769531-0.5634766,0.7734375-0.8935547,1.5107422-0.8935547
							c0.7558594,0,1.3017578,0.5039062,1.3017578,1.1875v0.0117188c0,0.6123047-0.3242188,0.9892578-1.0615234,1.6318359
							l-1.1220703,0.9951172h2.2255859v0.4316406h-2.9326172V42.817585z"/>
						<path class="st0" d="M163.2753906,38.9865303h0.4736328v4.1972656h-0.4736328V38.9865303z"/>
						<path class="st0" d="M164.8359375,38.9865303h0.4736328v1.8642578h2.4228516v-1.8642578h0.4736328v4.1972656h-0.4736328
							v-1.8886719h-2.4228516v1.8886719h-0.4736328V38.9865303z"/>
						<path class="st0" d="M173.0712891,43.3097725l-0.5576172-0.4980469
							c-0.3544922,0.2763672-0.8037109,0.4443359-1.3193359,0.4443359c-1.2773438,0-2.1347656-1.0019531-2.1347656-2.1591797
							v-0.0117188c0-1.1572266,0.8691406-2.1708984,2.1464844-2.1708984s2.1347656,1.0009766,2.1347656,2.1582031v0.0126953
							c0,0.5214844-0.1855469,1.0195312-0.4980469,1.4033203l0.5517578,0.4677734L173.0712891,43.3097725z M172.1777344,42.5060616
							l-0.7861328-0.671875l0.3183594-0.3535156l0.7851562,0.7138672c0.2275391-0.2998047,0.3535156-0.6777344,0.3535156-1.0976562
							v-0.0117188c0-0.9541016-0.6953125-1.7333984-1.6542969-1.7333984c-0.9599609,0-1.6435547,0.7675781-1.6435547,1.7207031
							v0.0126953c0,0.953125,0.6953125,1.7324219,1.6552734,1.7324219
							C171.578125,42.817585,171.9140625,42.7043037,172.1777344,42.5060616z"/>
						<path class="st0" d="M173.9970703,41.1388741h1.6669922v0.4853516h-1.6669922V41.1388741z"/>
						<path class="st0" d="M176.5058594,38.9865303h3.0341797v0.4316406h-2.5605469v1.4326172h2.2910156v0.4316406h-2.2910156
							v1.4697266h2.5908203v0.4316406h-3.0644531V38.9865303z"/>
						<path class="st0" d="M180.3818359,38.9865303h1.5712891c0.9472656,0,1.5712891,0.5029297,1.5712891,1.3310547v0.0117188
							c0,0.9052734-0.7558594,1.3730469-1.6494141,1.3730469h-1.0195312v1.4814453h-0.4736328V38.9865303z M181.8925781,41.27071
							c0.6962891,0,1.1513672-0.3720703,1.1513672-0.9238281v-0.0117188c0-0.5996094-0.4492188-0.9111328-1.1269531-0.9111328
							h-1.0615234V41.27071H181.8925781z"/>
						<path class="st0" d="M184.0595703,41.0968819v-0.0117188c0-1.1875,0.8867188-2.1708984,2.1220703-2.1708984
							c0.7617188,0,1.2177734,0.2695312,1.6376953,0.6650391l-0.3242188,0.3486328
							c-0.3535156-0.3359375-0.7490234-0.5761719-1.3193359-0.5761719c-0.9296875,0-1.625,0.7558594-1.625,1.7207031v0.0126953
							c0,0.9716797,0.7021484,1.7324219,1.625,1.7324219c0.5761719,0,0.9541016-0.2216797,1.3554688-0.6054688l0.3115234,0.3056641
							c-0.4375,0.4443359-0.9169922,0.7382812-1.6787109,0.7382812
							C184.953125,43.2560616,184.0595703,42.30196,184.0595703,41.0968819z"/>
						<path class="st0" d="M188.2890625,41.1388741h1.6669922v0.4853516h-1.6669922V41.1388741z"/>
						<path class="st0" d="M190.5751953,41.0968819v-0.0117188c0-1.1757812,0.7011719-2.1708984,1.7802734-2.1708984
							c1.0800781,0,1.7636719,0.9833984,1.7636719,2.1582031v0.0126953c0,1.1748047-0.6953125,2.1708984-1.7753906,2.1708984
							C191.2587891,43.2560616,190.5751953,42.2726631,190.5751953,41.0968819z M193.6269531,41.0968819v-0.0117188
							c0-0.9179688-0.5039062-1.7392578-1.2832031-1.7392578c-0.7851562,0-1.2773438,0.8037109-1.2773438,1.7265625v0.0126953
							c0,0.9169922,0.5039062,1.7392578,1.2890625,1.7392578C193.1416016,42.8244209,193.6269531,42.0148506,193.6269531,41.0968819
							z"/>
						<path class="st0" d="M194.7158203,41.0968819v-0.0117188c0-1.1757812,0.7011719-2.1708984,1.7802734-2.1708984
							c1.0800781,0,1.7636719,0.9833984,1.7636719,2.1582031v0.0126953c0,1.1748047-0.6953125,2.1708984-1.7753906,2.1708984
							C195.3994141,43.2560616,194.7158203,42.2726631,194.7158203,41.0968819z M197.7675781,41.0968819v-0.0117188
							c0-0.9179688-0.5039062-1.7392578-1.2832031-1.7392578c-0.7851562,0-1.2773438,0.8037109-1.2773438,1.7265625v0.0126953
							c0,0.9169922,0.5039062,1.7392578,1.2890625,1.7392578C197.2822266,42.8244209,197.7675781,42.0148506,197.7675781,41.0968819
							z"/>
						<path class="st0" d="M198.8066406,42.5900459l0.3125-0.3417969c0.3652344,0.3535156,0.7675781,0.5761719,1.1933594,0.5761719
							c0.5996094,0,1.0136719-0.3964844,1.0136719-0.9296875v-0.0126953c0-0.5214844-0.4326172-0.8808594-1.0439453-0.8808594
							c-0.3535156,0-0.6357422,0.1074219-0.8818359,0.2392578l-0.3173828-0.2089844l0.1201172-2.0449219h2.4160156v0.4375
							h-2.0029297l-0.0898438,1.3427734c0.2460938-0.1074219,0.4804688-0.1855469,0.828125-0.1855469
							c0.8154297,0,1.4511719,0.4853516,1.4511719,1.2832031v0.0117188c0,0.8222656-0.6240234,1.3798828-1.4990234,1.3798828
							C199.7070312,43.2560616,199.1845703,42.9679756,198.8066406,42.5900459z"/>
						<path class="st0" d="M202.2392578,42.817585l1.5224609-1.3427734
							c0.6425781-0.5761719,0.8759766-0.8994141,0.8759766-1.3193359c0-0.4921875-0.3896484-0.8037109-0.8457031-0.8037109
							c-0.4794922,0-0.7910156,0.2519531-1.1269531,0.7197266l-0.3476562-0.2519531
							c0.3769531-0.5634766,0.7734375-0.8935547,1.5107422-0.8935547c0.7558594,0,1.3017578,0.5039062,1.3017578,1.1875v0.0117188
							c0,0.6123047-0.3242188,0.9892578-1.0615234,1.6318359l-1.1220703,0.9951172h2.2255859v0.4316406h-2.9326172V42.817585z"/>
					</g>
				</g>
			</g>
		</g>
		<g>
			<g>
				<g>
					<path class="st0" d="M177.0861816,6.2504997c-0.5410156,0-0.9810791,0.4420013-0.9810791,0.9860001v0.007
						c0,0.5400009,0.4400635,0.9799995,0.9810791,0.9799995s0.980957-0.4420013,0.980957-0.9920006
						C178.0671387,6.6904984,177.6271973,6.2504997,177.0861816,6.2504997 M177.0861816,8.0734978
						c-0.4630127,0-0.8260498-0.3649979-0.8260498-0.829998v-0.007c0-0.4609985,0.3709717-0.8359985,0.8260498-0.8359985
						c0.4630127,0,0.8249512,0.3649979,0.8249512,0.8359985C177.9111328,7.6984978,177.5411377,8.0734978,177.0861816,8.0734978"/>
				</g>
				<g>
					<path class="st0" d="M177.3395996,7.3579979c0.1320801-0.0440025,0.2200928-0.1480026,0.2200928-0.3080025
						c0-0.2259979-0.1700439-0.329998-0.4019775-0.329998h-0.4680176v0.9959984h0.2429199V7.4019966h0.1530762l0.2149658,0.3139992
						h0.2919922L177.3395996,7.3579979z M177.1416016,7.2039948h-0.2089844V6.928997h0.2089844
						c0.1040039,0,0.1700439,0.0489998,0.1700439,0.1380005C177.3116455,7.1489983,177.251709,7.2039948,177.1416016,7.2039948"/>
				</g>
				<g>
					<path class="st0" d="M115.7982178,21.4779968l0.236084-0.3299999c0.3380127,0.2520008,0.7130127,0.3960018,1.0819092,0.3960018
						c0.375,0,0.6470947-0.1920013,0.6470947-0.4920006v-0.012001c0-0.3120003-0.3690186-0.4319992-0.7800293-0.5459995
						c-0.4899902-0.1380005-1.0340576-0.3059998-1.0340576-0.8759995v-0.012001c0-0.5339985,0.447998-0.8869991,1.0640869-0.8869991
						c0.3809814,0,0.8049316,0.132,1.125,0.3409996l-0.2120361,0.3490009
						c-0.2900391-0.1870003-0.6220703-0.3010006-0.9250488-0.3010006c-0.3679199,0-0.6040039,0.1919994-0.6040039,0.4500008
						v0.0119991c0,0.2940006,0.387085,0.407999,0.8040771,0.5340004c0.4840088,0.1439991,1.0029297,0.3299999,1.0029297,0.8880005
						v0.0119991c0,0.5879993-0.4890137,0.9300003-1.1119385,0.9300003
						C116.6442871,21.9339981,116.149292,21.7599983,115.7982178,21.4779968"/>
				</g>
				<g>
					<path class="st0" d="M121.4017334,20.3381958v-0.0119991c0-0.6660004-0.5019531-1.2119999-1.1610107-1.2119999
						c-0.677002,0-1.1419678,0.5459995-1.1419678,1.2000008v0.0119991c0,0.6660004,0.4959717,1.2059994,1.1540527,1.2059994
						C120.9307861,21.532196,121.4017334,20.992197,121.4017334,20.3381958 M118.6207275,20.3381958v-0.0119991
						c0-0.8759995,0.6890869-1.6200008,1.6320801-1.6200008c0.9379883,0,1.6269531,0.7320004,1.6269531,1.6080017v0.0119991
						c0,0.8759995-0.6949463,1.6200008-1.6390381,1.6200008C119.3037109,21.9461975,118.6207275,21.2141972,118.6207275,20.3381958"
						/>
				</g>
				<g>
					<path class="st0" d="M122.5947266,19.1800957h-0.4289551v-0.4019985h0.4289551v-0.2700005
						c0-0.3540001,0.0970459-0.6240005,0.2719727-0.7980003c0.1569824-0.1560001,0.387085-0.2399998,0.6710205-0.2399998
						c0.2180176,0,0.3630371,0.0240002,0.5140381,0.0779991v0.4020004
						c-0.1689453-0.0480003-0.2960205-0.0769997-0.4530029-0.0769997c-0.3630371,0-0.5450439,0.2150002-0.5450439,0.6590004
						v0.2519989h0.9920654v0.3959999h-0.9859619v2.6940002h-0.4650879V19.1800957z"/>
				</g>
				<g>
					<path class="st0" d="M126.9309082,20.3381958v-0.0119991c0-0.6660004-0.5019531-1.2119999-1.1608887-1.2119999
						c-0.677002,0-1.1420898,0.5459995-1.1420898,1.2000008v0.0119991c0,0.6660004,0.4960938,1.2059994,1.1540527,1.2059994
						C126.4599609,21.532196,126.9309082,20.992197,126.9309082,20.3381958 M124.1499023,20.3381958v-0.0119991
						c0-0.8759995,0.6890869-1.6200008,1.6320801-1.6200008c0.9379883,0,1.6269531,0.7320004,1.6269531,1.6080017v0.0119991
						c0,0.8759995-0.6949463,1.6200008-1.638916,1.6200008C124.8330078,21.9461975,124.1499023,21.2141972,124.1499023,20.3381958"
						/>
				</g>
				<g>
					<path class="st0" d="M127.7296143,21.4779968l0.236084-0.3299999c0.3380127,0.2520008,0.7130127,0.3960018,1.0819092,0.3960018
						c0.375,0,0.6470947-0.1920013,0.6470947-0.4920006v-0.012001c0-0.3120003-0.3690186-0.4319992-0.7800293-0.5459995
						c-0.4899902-0.1380005-1.0340576-0.3059998-1.0340576-0.8759995v-0.012001c0-0.5339985,0.447998-0.8869991,1.0640869-0.8869991
						c0.3809814,0,0.8049316,0.132,1.125,0.3409996l-0.2120361,0.3490009
						c-0.2900391-0.1870003-0.6220703-0.3010006-0.9250488-0.3010006c-0.3679199,0-0.6040039,0.1919994-0.6040039,0.4500008
						v0.0119991c0,0.2940006,0.3859863,0.407999,0.8040771,0.5340004c0.4840088,0.1439991,1.0029297,0.3299999,1.0029297,0.8880005
						v0.0119991c0,0.5879993-0.4890137,0.9300003-1.1119385,0.9300003
						C128.5756836,21.9339981,128.0806885,21.7599983,127.7296143,21.4779968"/>
				</g>
				<g>
					<path class="st0" d="M133.4376221,20.3320961V20.320097c0-0.7320004-0.5079346-1.2000008-1.0999756-1.2000008
						c-0.5810547,0-1.1309814,0.4860001-1.1309814,1.1940002v0.012001c0,0.7199993,0.5499268,1.1999989,1.1309814,1.1999989
						C132.9416504,21.5260963,133.4376221,21.0820961,133.4376221,20.3320961 M131.2246094,21.2800961v0.5940018h-0.4649658
						v-4.3800011h0.4649658v1.9020004c0.2540283-0.3719997,0.6230469-0.6900005,1.1970215-0.6900005
						c0.75,0,1.493042,0.5880013,1.493042,1.6079998v0.012001c0,1.0139999-0.7370605,1.6140003-1.493042,1.6140003
						C131.8416748,21.9400978,131.4666748,21.6270962,131.2246094,21.2800961"/>
				</g>
				<g>
					<path class="st0" d="M134.5262451,20.6980953v-1.9259987h0.4649658v1.8120003
						c0,0.5760002,0.3150635,0.9359989,0.8649902,0.9359989c0.5321045,0,0.9379883-0.3899994,0.9379883-0.9720001v-1.7759991
						h0.4591064v3.1019993h-0.4591064v-0.539999c-0.2119141,0.3359985-0.532959,0.6049995-1.0709229,0.6049995
						C134.9672852,21.9390965,134.5262451,21.4360962,134.5262451,20.6980953"/>
				</g>
				<g>
					<polygon class="st0" points="137.7329102,18.7721958 138.2469482,18.7721958 139.2989502,21.3461971 140.3569336,18.7721958 
						140.8588867,18.7721958 139.4979248,21.8981972 139.0869141,21.8981972 					"/>
				</g>
				<g>
					<path class="st0" d="M141.3566895,18.7727966h0.4649658v3.1019993h-0.4649658V18.7727966z M141.3266602,17.584795h0.5319824
						v0.5100002h-0.5319824V17.584795z"/>
				</g>
				<g>
					<path class="st0" d="M142.6604004,18.7721958h0.4649658v0.8100014c0.2299805-0.5160007,0.68396-0.8880005,1.2769775-0.8640003
						v0.4979992h-0.0369873c-0.6829834,0-1.2399902,0.4860001-1.2399902,1.4220009v1.2360001h-0.4649658V18.7721958z"/>
				</g>
				<g>
					<polygon class="st0" points="147.967041,18.7721958 148.4810791,18.7721958 149.5330811,21.3461971 150.5910645,18.7721958 
						151.0930176,18.7721958 149.7320557,21.8981972 149.3210449,21.8981972 					"/>
				</g>
				<g>
					<path class="st0" d="M153.7255859,20.1519966c-0.0489502-0.5640011-0.375-1.0559998-0.9979248-1.0559998
						c-0.5440674,0-0.9549561,0.4499989-1.0159912,1.0559998H153.7255859z M151.2407227,20.331995v-0.0119991
						c0-0.8939991,0.6348877-1.6140003,1.5-1.6140003c0.9239502,0,1.4559326,0.7329998,1.4559326,1.6380005
						c0,0.0599995,0,0.0960007-0.0050049,0.1499996h-2.4799805c0.0670166,0.6720009,0.5449219,1.0500011,1.1009521,1.0500011
						c0.4290771,0,0.7320557-0.1740017,0.986084-0.4380016l0.289917,0.2580013
						c-0.3149414,0.3479996-0.6959229,0.5819988-1.2879639,0.5819988
						C151.9416504,21.9459953,151.2407227,21.291996,151.2407227,20.331995"/>
				</g>
				<g>
					<rect x="154.8466797" y="17.4947968" class="st0" width="0.4649658" height="4.3789997"/>
				</g>
				<g>
					<path class="st0" d="M158.8234863,20.3321972v-0.012001c0-0.7320004-0.5080566-1.1999989-1.1010742-1.1999989
						c-0.5809326,0-1.1300049,0.4860001-1.1300049,1.1940002v0.0119991c0,0.7199993,0.5490723,1.2000008,1.1300049,1.2000008
						C158.3273926,21.5261974,158.8234863,21.0821972,158.8234863,20.3321972 M156.1444092,18.7721958h0.4650879v0.6240005
						c0.2550049-0.3719997,0.6229248-0.6900005,1.197998-0.6900005c0.75,0,1.4929199,0.5880013,1.4929199,1.6080017v0.0119991
						c0,1.0139999-0.7369385,1.6140003-1.4929199,1.6140003c-0.5810547,0-0.9560547-0.3129997-1.197998-0.6599998v1.5539989
						h-0.4650879V18.7721958z"/>
				</g>
				<g>
					<path class="st0" d="M162.0057373,20.7340965v-0.2999992c-0.2299805-0.066-0.5389404-0.132-0.9189453-0.132
						c-0.5870361,0-0.9130859,0.2520008-0.9130859,0.6420002v0.0119991c0,0.3900013,0.3630371,0.618,0.7860107,0.618
						C161.5336914,21.5740967,162.0057373,21.2260971,162.0057373,20.7340965 M159.7017822,20.9740963v-0.0119991
						c0-0.6539993,0.5439453-1.0020008,1.3359375-1.0020008c0.4000244,0,0.68396,0.0540009,0.9620361,0.132v-0.1079998
						c0-0.5579987-0.3449707-0.8459988-0.9320068-0.8459988c-0.368042,0-0.6590576,0.0959988-0.9489746,0.2279987
						l-0.1390381-0.3779984c0.3449707-0.1550007,0.68396-0.2580013,1.1369629-0.2580013
						c0.44104,0,0.7800293,0.1140003,1.0100098,0.342001c0.2110596,0.2099991,0.3200684,0.5100002,0.3200684,0.9060001v1.8959999
						h-0.4470215v-0.4680004c-0.2180176,0.2819996-0.5810547,0.532999-1.1309814,0.532999
						C160.2886963,21.9390965,159.7017822,21.6100979,159.7017822,20.9740963"/>
				</g>
				<g>
					<path class="st0" d="M163.3212891,21.0518951v-1.8719997h-0.4350586v-0.407999h0.4350586v-0.9360008h0.4649658v0.9360008
						h0.9919434v0.407999h-0.9919434v1.8120003c0,0.3780003,0.2120361,0.5160007,0.526001,0.5160007
						c0.1569824,0,0.2910156-0.0300007,0.4539795-0.1079998v0.3959999c-0.1629639,0.0839996-0.3389893,0.132-0.5620117,0.132
						C163.7022705,21.9278965,163.3212891,21.6818962,163.3212891,21.0518951"/>
				</g>
				<g>
					<path class="st0" d="M167.4405518,20.7340965v-0.2999992c-0.2290039-0.066-0.5379639-0.132-0.9190674-0.132
						c-0.5859375,0-0.9129639,0.2520008-0.9129639,0.6420002v0.0119991c0,0.3900013,0.3630371,0.618,0.7869873,0.618
						C166.9694824,21.5740967,167.4405518,21.2260971,167.4405518,20.7340965 M165.1375732,20.9740963v-0.0119991
						c0-0.6539993,0.5439453-1.0020008,1.3359375-1.0020008c0.3990479,0,0.6829834,0.0540009,0.9610596,0.132v-0.1079998
						c0-0.5579987-0.3439941-0.8459988-0.9310303-0.8459988c-0.3690186,0-0.6590576,0.0959988-0.9489746,0.2279987
						l-0.1390381-0.3779984c0.3439941-0.1550007,0.6829834-0.2580013,1.1369629-0.2580013
						c0.44104,0,0.7790527,0.1140003,1.0090332,0.342001c0.2120361,0.2099991,0.3210449,0.5100002,0.3210449,0.9060001v1.8959999
						h-0.447998v-0.4680004c-0.217041,0.2819996-0.5800781,0.532999-1.1300049,0.532999
						C165.7235107,21.9390965,165.1375732,21.6100979,165.1375732,20.9740963"/>
				</g>
				<g>
					<path class="st0" d="M168.3885498,21.4779968l0.2359619-0.3299999
						c0.3389893,0.2520008,0.7130127,0.3960018,1.0820312,0.3960018c0.375,0,0.6469727-0.1920013,0.6469727-0.4920006v-0.012001
						c0-0.3120003-0.3690186-0.4319992-0.7800293-0.5459995c-0.4899902-0.1380005-1.032959-0.3059998-1.032959-0.8759995v-0.012001
						c0-0.5339985,0.4470215-0.8869991,1.0629883-0.8869991c0.3809814,0,0.8050537,0.132,1.125,0.3409996l-0.2119141,0.3490009
						c-0.2900391-0.1870003-0.6220703-0.3010006-0.9250488-0.3010006c-0.368042,0-0.6040039,0.1919994-0.6040039,0.4500008
						v0.0119991c0,0.2940006,0.3869629,0.407999,0.8039551,0.5340004c0.4840088,0.1439991,1.0040283,0.3299999,1.0040283,0.8880005
						v0.0119991c0,0.5879993-0.4899902,0.9300003-1.1130371,0.9300003
						C169.2344971,21.9339981,168.739502,21.7599983,168.3885498,21.4779968"/>
				</g>
				<g>
					<polygon class="st0" points="171.1114502,18.7721958 171.6254883,18.7721958 172.6774902,21.3461971 173.7354736,18.7721958 
						174.2374268,18.7721958 172.8764648,21.8981972 172.4654541,21.8981972 					"/>
				</g>
				<g>
					<path class="st0" d="M174.7355957,18.7727966h0.4660645v3.1019993h-0.4660645V18.7727966z M174.7056885,17.584795h0.5319824
						v0.5100002h-0.5319824V17.584795z"/>
				</g>
				<g>
					<path class="st0" d="M176.0415039,18.7721958h0.4649658v0.8100014c0.2299805-0.5160007,0.68396-0.8880005,1.2769775-0.8640003
						v0.4979992H177.74646c-0.6829834,0-1.2399902,0.4860001-1.2399902,1.4220009v1.2360001h-0.4649658V18.7721958z"/>
				</g>
				<g>
					<path class="st0" d="M103.8581543,2.822998l-0.1600342-0.2140007l-0.1300049-0.1339989
						c-0.6489258-0.7330017-1.4289551-1.3209991-2.3189697-1.75C100.2460938,0.2439995,99.1751709,0,98.0661621,0
						c-2.8120117,0-5.4150391,1.6379967-6.6340332,4.1739998c-0.8499756,1.7709999-0.9589844,3.7679977-0.3079834,5.6199989
						c0.651001,1.8549995,1.9859619,3.3450012,3.7590332,4.1949997c0.9669189,0.4639988,2,0.7069988,3.0709229,0.7229996
						l15.4379883,0.0030003L103.8581543,2.822998z M95.847168,11.9779968
						c-1.2349854-0.5919991-2.1650391-1.6299973-2.6190186-2.9229965c-0.4539795-1.2910004-0.3780518-2.682003,0.2149658-3.9160004
						c0.848999-1.7670021,2.6640625-2.9090004,4.6230469-2.9090004c0.7729492,0,1.5179443,0.1699982,2.217041,0.5060005
						c0.6350098,0.3049965,1.1889648,0.7269974,1.6459961,1.2529984l0.0699463,0.0730019l0.0970459,0.1279984l6.6489258,8.2939987
						l-10.7579346-0.0019989C97.2421875,12.4709969,96.5211182,12.3019981,95.847168,11.9779968"/>
				</g>
				<g>
					<path class="st0" d="M101.2150879,4.8739967l-0.0650635-0.086998L101.1070557,4.743
						c-0.3619385-0.4220009-0.8010254-0.7590027-1.3070068-1.0020027c-0.5460205-0.2619972-1.1300049-0.3959999-1.7340088-0.3959999
						c-1.532959,0-2.9530029,0.894001-3.6169434,2.276001c-0.4639893,0.9659996-0.5240479,2.0540009-0.1690674,3.0649986
						c0.3549805,1.0110016,1.0830078,1.8230019,2.0490723,2.2870026c0.5279541,0.2519989,1.0919189,0.3849983,1.6749268,0.3939972
						L106.4210205,11.368L101.2150879,4.8739967z"/>
				</g>
				<g>
					<polygon class="st0" points="115.8572998,6.2304955 122.1152344,6.2304955 122.1152344,7.5564957 117.34021,7.5564957 
						117.34021,9.7504959 121.5722656,9.7504959 121.5722656,11.0774956 117.34021,11.0774956 117.34021,13.3444977 
						122.175293,13.3444977 122.175293,14.670496 115.8572998,14.670496 					"/>
				</g>
				<g>
					<path class="st0" d="M124.9417725,6.2302971h3.3280029c1.9769287,0,3.2070312,1.1210022,3.2070312,2.8220024v0.0239983
						c0,1.8930016-1.519043,2.8810005-3.3760986,2.8810005h-1.6759033v2.7129993h-1.4830322V6.2302971z M128.1488037,10.619297
						c1.1209717,0,1.8209229-0.6269989,1.8209229-1.507V9.0882988c0-0.9889984-0.7119141-1.507-1.8209229-1.507h-1.723999v3.0379982
						H128.1488037z"/>
				</g>
				<g>
					<path class="st0" d="M133.4559326,10.4745941v-0.0239983c0-2.3989983,1.7969971-4.3650017,4.3530273-4.3650017
						c1.5550537,0,2.4949951,0.5430031,3.3029785,1.3150024l-0.9520264,1.0970001
						c-0.6749268-0.6270027-1.3989258-1.0489998-2.3640137-1.0489998c-1.6029053,0-2.7849121,1.3260002-2.7849121,2.9780006
						v0.0239983c0,1.6520004,1.1699219,2.9900017,2.7849121,2.9900017c1.0371094,0,1.7010498-0.4099998,2.4240723-1.0850029
						l0.9530029,0.9650002c-0.8809814,0.9160004-1.8449707,1.4939995-3.4250488,1.4939995
						C135.2879639,14.8145943,133.4559326,12.8975945,133.4559326,10.4745941"/>
				</g>
				<g>
					<polygon class="st0" points="143.7336426,6.2304955 145.2166748,6.2304955 145.2166748,13.3204956 149.6536865,13.3204956 
						149.6536865,14.670496 143.7336426,14.670496 					"/>
				</g>
				<g>
					<path class="st0" d="M151.4854736,11.0893974V6.2304001h1.4830322v4.7989998
						c0,1.5669975,0.8079834,2.3989983,2.1339111,2.3989983c1.3140869,0,2.1220703-0.7840004,2.1220703-2.3390007V6.2304001
						h1.4830322v4.7859993c0,2.5209999-1.4230957,3.7869987-3.6290283,3.7869987
						C152.8834229,14.8033981,151.4854736,13.5373993,151.4854736,11.0893974"/>
				</g>
				<g>
					<path class="st0" d="M161.1845703,13.4405975l0.8919678-1.060997c0.8079834,0.6989975,1.6280518,1.0970001,2.6650391,1.0970001
						c0.9160156,0,1.4949951-0.4340019,1.4949951-1.0610008v-0.0240021c0-0.6029968-0.3380127-0.9279976-1.9050293-1.2899971
						c-1.7969971-0.4340019-2.80896-0.9640007-2.80896-2.5200005V8.5575981c0-1.4469986,1.2049561-2.447998,2.8809814-2.447998
						c1.2299805,0,2.2070312,0.3740005,3.0629883,1.0610008l-0.7960205,1.1219978
						c-0.7600098-0.5670013-1.5189209-0.868-2.2910156-0.868c-0.8679199,0-1.3739014,0.4459991-1.3739014,1v0.0240021
						c0,0.6509972,0.3848877,0.9409981,2.0129395,1.3269997c1.7850342,0.4339981,2.7009277,1.072998,2.7009277,2.4710007v0.0249977
						c0,1.5790024-1.2419434,2.5189991-3.0148926,2.5189991C163.4155273,14.7905979,162.1975098,14.3445988,161.1845703,13.4405975"
						/>
				</g>
				<g>
					<path class="st0" d="M172.767334,6.1704979h1.3740234l3.7139893,8.5h-1.5679932l-0.855957-2.0379982h-3.9899902
						l-0.868042,2.0379982h-1.5200195L172.767334,6.1704979z M174.8894043,11.3184967l-1.4591064-3.3759995l-1.4468994,3.3759995
						H174.8894043z"/>
				</g>
				<g>
					<path class="st0" d="M134.979248,25.1073952h0.3530273v0.3980007c0.1550293-0.2329998,0.3659668-0.448,0.763916-0.448
						c0.3850098,0,0.6320801,0.2049999,0.7600098,0.4720001c0.1690674-0.2619991,0.4210205-0.4720001,0.8330078-0.4720001
						c0.5450439,0,0.8790283,0.3660011,0.8790283,0.9519997v1.4650002H138.21521v-1.3829994
						c0-0.4570007-0.2279053-0.7129993-0.612915-0.7129993c-0.3570557,0-0.6500244,0.2649994-0.6500244,0.7319984v1.3640003
						h-0.3530273v-1.3920002c0-0.4440002-0.2330322-0.7039986-0.6080322-0.7039986
						c-0.3759766,0-0.6589355,0.3099995-0.6589355,0.7449989v1.3509998h-0.3530273V25.1073952z"/>
				</g>
				<g>
					<path class="st0" d="M139.1188965,27.8865967l0.1600342-0.2749996c0.2709961,0.1970005,0.572998,0.302,0.9110107,0.302
						c0.5219727,0,0.8609619-0.2880001,0.8609619-0.8430004v-0.2779999
						c-0.2059326,0.2750015-0.4940186,0.4980011-0.9289551,0.4980011c-0.5679932,0-1.1130371-0.4250011-1.1130371-1.1070004
						v-0.0090008c0-0.691,0.5490723-1.1169987,1.1130371-1.1169987c0.4439697,0,0.7320557,0.2189999,0.9239502,0.4749985v-0.4249992
						h0.3530273v1.9549999c0,0.3659992-0.1099854,0.6450005-0.302002,0.8369999
						c-0.2109375,0.2110004-0.5269775,0.3169975-0.9019775,0.3169975
						C139.8009033,28.2165947,139.4349365,28.1065979,139.1188965,27.8865967 M141.0599365,26.1785965v-0.0089989
						c0-0.4850006-0.4210205-0.8010006-0.8699951-0.8010006c-0.447998,0-0.8189697,0.3110008-0.8189697,0.7959995v0.0100002
						c0,0.4759998,0.3800049,0.8050003,0.8189697,0.8050003C140.638916,26.9795971,141.0599365,26.6545982,141.0599365,26.1785965"
						/>
				</g>
				<g>
					<path class="st0" d="M126.6571045,26.7150974h-1.6900635l-0.0909424-0.2660007l1.8129883-2.2029991h0.3199463v2.1659985
						h0.4949951v0.3030014h-0.4949951v0.7589989h-0.3519287V26.7150974z M126.6571045,26.412096v-1.6529999l-1.3460693,1.6529999
						H126.6571045z"/>
				</g>
				<g>
					<path class="st0" d="M127.8480225,25.8814964v-0.0099983c0-0.8970013,0.5350342-1.6570015,1.3599854-1.6570015
						c0.822998,0,1.3460693,0.7510014,1.3460693,1.6490002v0.0080013c0,0.8979988-0.5310059,1.657999-1.3560791,1.657999
						C128.3699951,27.5294971,127.8480225,26.7784977,127.8480225,25.8814964 M130.1781006,25.8814964v-0.0099983
						c0-0.7000008-0.3840332-1.3270016-0.9801025-1.3270016c-0.598999,0-0.9749756,0.6130009-0.9749756,1.3190002v0.0080013
						c0,0.7009983,0.3850098,1.3279991,0.9849854,1.3279991C129.8070068,27.1994972,130.1781006,26.5814972,130.1781006,25.8814964"
						/>
				</g>
				<g>
					<path class="st0" d="M130.9348145,25.8814964v-0.0099983c0-0.8970013,0.5349121-1.6570015,1.3588867-1.6570015
						c0.8240967,0,1.3460693,0.7510014,1.3460693,1.6490002v0.0080013c0,0.8979988-0.5310059,1.657999-1.3549805,1.657999
						C131.4558105,27.5294971,130.9348145,26.7784977,130.9348145,25.8814964 M133.2647705,25.8814964v-0.0099983
						c0-0.7000008-0.3850098-1.3270016-0.9799805-1.3270016c-0.5999756,0-0.9749756,0.6130009-0.9749756,1.3190002v0.0080013
						c0,0.7009983,0.3839111,1.3279991,0.9838867,1.3279991C132.8937988,27.1994972,133.2647705,26.5814972,133.2647705,25.8814964"
						/>
				</g>
				<g>
					<polygon class="st0" points="147.3856201,17.0865955 147.7816162,17.0865955 144.9976807,22.6415958 144.6026611,22.6415958 
											"/>
				</g>
				<g>
					<polygon class="st0" points="145.7662354,24.6278954 145.1652832,24.8148956 145.0782471,24.5228958 145.8571777,24.2548962 
						146.1221924,24.2548962 146.1221924,27.4668961 145.7662354,27.4668961 					"/>
				</g>
				<g>
					<path class="st0" d="M146.809082,25.8809967v-0.0089989c0-0.8929996,0.5340576-1.6499996,1.3540039-1.6499996
						c0.8200684,0,1.3391113,0.7479992,1.3391113,1.6409988v0.0090008c0,0.8929996-0.5280762,1.6490002-1.3480225,1.6490002
						C147.3291016,27.520998,146.809082,26.7739983,146.809082,25.8809967 M149.1291504,25.8809967v-0.0089989
						c0-0.6970005-0.3830566-1.3220005-0.9749756-1.3220005c-0.5970459,0-0.9710693,0.6110001-0.9710693,1.3129997v0.0090008
						c0,0.6970005,0.3830566,1.3209991,0.9799805,1.3209991C148.7601318,27.192997,149.1291504,26.5779972,149.1291504,25.8809967"
						/>
				</g>
				<g>
					<path class="st0" d="M149.9390869,25.8809967v-0.0089989c0-0.8929996,0.5339355-1.6499996,1.3540039-1.6499996
						c0.8199463,0,1.3389893,0.7479992,1.3389893,1.6409988v0.0090008c0,0.8929996-0.5280762,1.6490002-1.3480225,1.6490002
						C150.4591064,27.520998,149.9390869,26.7739983,149.9390869,25.8809967 M152.2590332,25.8809967v-0.0089989
						c0-0.6970005-0.3829346-1.3220005-0.9749756-1.3220005c-0.5970459,0-0.9710693,0.6110001-0.9710693,1.3129997v0.0090008
						c0,0.6970005,0.3830566,1.3209991,0.9801025,1.3209991C151.8900146,27.192997,152.2590332,26.5779972,152.2590332,25.8809967"
						/>
				</g>
				<g>
					<path class="st0" d="M154.0445557,25.1108952h0.3509521v0.3970013
						c0.1550293-0.2329998,0.3640137-0.4470005,0.7609863-0.4470005c0.3830566,0,0.6290283,0.2049999,0.7561035,0.4689999
						c0.1689453-0.2589989,0.4199219-0.4689999,0.8299561-0.4689999c0.5419922,0,0.875,0.3640003,0.875,0.948v1.4580002h-0.3509521
						v-1.3759995c0-0.4560013-0.2280273-0.7110004-0.611084-0.7110004c-0.3549805,0-0.6469727,0.2639999-0.6469727,0.7290001
						v1.3579998h-0.3509521v-1.3850002c0-0.4419994-0.2320557-0.7019997-0.6060791-0.7019997
						c-0.3729248,0-0.6560059,0.3099995-0.6560059,0.743v1.3439999h-0.3509521V25.1108952z"/>
				</g>
				<g>
					<path class="st0" d="M158.2225342,27.8771973l0.1590576-0.2730007
						c0.2689209,0.1950016,0.5699463,0.3000011,0.9069824,0.3000011c0.5200195,0,0.8569336-0.2870007,0.8569336-0.8379993
						v-0.2790012c-0.2049561,0.2740002-0.4919434,0.4969997-0.9249268,0.4969997
						c-0.5650635,0-1.1070557-0.4230003-1.1070557-1.1029987v-0.0080013c0-0.6889992,0.5460205-1.1119995,1.1070557-1.1119995
						c0.4420166,0,0.7290039,0.2180004,0.9199219,0.4740009v-0.4240017h0.3510742v1.9450016
						c0,0.3649998-0.1090088,0.6429996-0.3010254,0.8339996c-0.2089844,0.2099991-0.5240479,0.3149986-0.8969727,0.3149986
						C158.9016113,28.2051964,158.536499,28.0961971,158.2225342,27.8771973 M160.154541,26.1771965v-0.0089989
						c0-0.4829998-0.4189453-0.7970009-0.8659668-0.7970009c-0.4460449,0-0.8150635,0.309-0.8150635,0.7919998v0.0100002
						c0,0.4730015,0.3780518,0.802,0.8150635,0.802C159.7355957,26.9751968,160.154541,26.6511974,160.154541,26.1771965"/>
				</g>
				<g>
					<path class="st0" d="M162.454834,26.8425961v-1.421999h-0.3280029v-0.3099995h0.3280029v-0.710001h0.3510742v0.710001
						h0.7469482v0.3099995h-0.7469482v1.3770008c0,0.2859993,0.1589355,0.3909988,0.3959961,0.3909988
						c0.1188965,0,0.2189941-0.0219994,0.3419189-0.0819988v0.3009987
						c-0.1229248,0.0640011-0.2550049,0.1000004-0.4239502,0.1000004
						C162.7418213,27.507597,162.454834,27.3205967,162.454834,26.8425961"/>
				</g>
				<g>
					<path class="st0" d="M163.9720459,26.7829971v-0.0090008c0-0.4969997,0.4100342-0.7609997,1.006958-0.7609997
						c0.3010254,0,0.5150146,0.0410004,0.7250977,0.1000004v-0.0809994c0-0.4239998-0.2600098-0.6430016-0.7020264-0.6430016
						c-0.2780762,0-0.4970703,0.073-0.7160645,0.1730003l-0.1049805-0.2869987
						c0.2600098-0.118,0.5159912-0.1960011,0.8570557-0.1960011c0.3330078,0,0.5880127,0.0869999,0.7609863,0.2600002
						c0.1599121,0.1590004,0.2419434,0.3869991,0.2419434,0.6879997v1.4400005h-0.3369141v-0.3560009
						c-0.1640625,0.2150002-0.4379883,0.4060001-0.8530273,0.4060001
						C164.4140625,27.5169964,163.9720459,27.2659969,163.9720459,26.7829971 M165.7080078,26.600996v-0.2279987
						c-0.1729736-0.0500011-0.4050293-0.1000004-0.6929932-0.1000004c-0.4420166,0-0.6879883,0.191-0.6879883,0.4880009v0.0079994
						c0,0.296999,0.2740479,0.4699993,0.5930176,0.4699993C165.3520508,27.2389965,165.7080078,26.9749966,165.7080078,26.600996"/>
				</g>
				<g>
					<path class="st0" d="M167.1156006,27.0156975v0.4510002h-0.3509521V24.139698h0.3509521v1.4449997
						c0.1920166-0.2830009,0.4691162-0.5240002,0.9020996-0.5240002c0.5649414,0,1.1259766,0.4459991,1.1259766,1.2209988v0.0100002
						c0,0.769001-0.5560303,1.2250004-1.1259766,1.2250004C167.5806885,27.5166969,167.2976074,27.2796974,167.1156006,27.0156975
						 M168.7836914,26.2956963v-0.0089989c0-0.5559998-0.3830566-0.9120007-0.8300781-0.9120007
						c-0.4370117,0-0.8509521,0.3700008-0.8509521,0.9069996v0.0100002c0,0.5460014,0.4139404,0.9110012,0.8509521,0.9110012
						C168.409668,27.2026978,168.7836914,26.8646965,168.7836914,26.2956963"/>
				</g>
				<g>
					<rect x="169.7996826" y="24.1407967" class="st0" width="0.3509521" height="3.3269997"/>
				</g>
				<g>
					<path class="st0" d="M170.7967529,26.2960968V26.287096c0-0.6789989,0.4780273-1.2259998,1.1300049-1.2259998
						c0.697998,0,1.098999,0.5559998,1.098999,1.2440014c0,0.0459995,0,0.073-0.0050049,0.1139984h-1.868042
						c0.0490723,0.5100002,0.4100342,0.7970009,0.8289795,0.7970009c0.322998,0,0.5510254-0.132,0.743042-0.3320007
						l0.2180176,0.1960011c-0.2369385,0.2639999-0.5240479,0.4419994-0.9699707,0.4419994
						C171.3256836,27.5220966,170.7967529,27.0250969,170.7967529,26.2960968 M172.6697998,26.1590958
						c-0.0360107-0.4289989-0.2821045-0.8019981-0.7520752-0.8019981c-0.4099121,0-0.7199707,0.3409996-0.7650146,0.8019981
						H172.6697998z"/>
				</g>
				<g>
					<path class="st0" d="M173.7401123,26.8425961v-1.421999h-0.3280029v-0.3099995h0.3280029v-0.710001h0.3510742v0.710001
						h0.7469482v0.3099995h-0.7469482v1.3770008c0,0.2859993,0.1589355,0.3909988,0.3959961,0.3909988
						c0.1190186,0,0.2189941-0.0219994,0.3419189-0.0819988v0.3009987
						c-0.1229248,0.0640011-0.2548828,0.1000004-0.4239502,0.1000004
						C174.0270996,27.507597,173.7401123,27.3205967,173.7401123,26.8425961"/>
				</g>
				<g>
					<path class="st0" d="M175.2390137,27.1660957l0.1779785-0.2509995c0.2550049,0.191,0.5369873,0.3010006,0.8149414,0.3010006
						c0.282959,0,0.4880371-0.1459999,0.4880371-0.3740005v-0.0089989c0-0.2370014-0.2780762-0.328001-0.5880127-0.4140015
						c-0.3690186-0.1049995-0.7790527-0.2329998-0.7790527-0.664999v-0.0100002c0-0.4060001,0.3370361-0.6739998,0.802002-0.6739998
						c0.2869873,0,0.6060791,0.1000004,0.8470459,0.2600002l-0.1590576,0.2639999
						c-0.2189941-0.1410007-0.4689941-0.2280006-0.6968994-0.2280006c-0.2780762,0-0.4560547,0.1459999-0.4560547,0.342001
						v0.0089989c0,0.2229996,0.2919922,0.3099995,0.605957,0.4060001c0.3649902,0.1089993,0.7570801,0.25,0.7570801,0.6739998
						v0.0090008c0,0.4470005-0.3699951,0.7059994-0.8389893,0.7059994
						C175.8769531,27.5120964,175.5029297,27.3800964,175.2390137,27.1660957"/>
				</g>
				<g>
					<polygon class="st0" points="144.2921143,23.8611965 144.6171875,23.8611965 142.4931641,28.1011963 142.1671143,28.1011963 
											"/>
				</g>
			</g>
		</g>
		<g>
			<polygon points="179.2264404,6.1301956 182.6694336,12.1131973 182.6704102,12.1131973 186.1314697,6.1321983 
				186.1314697,6.1301956 			"/>
		</g>
	</g>
</g>
</svg>
