<?xml version="1.0" encoding="utf-8"?>
<!-- Generator: Adobe Illustrator 26.3.1, SVG Export Plug-In . SVG Version: 6.00 Build 0)  -->
<svg version="1.1" id="Layer_1" xmlns="http://www.w3.org/2000/svg" xmlns:xlink="http://www.w3.org/1999/xlink" x="0px" y="0px"
	 viewBox="0 0 234.6191406 42.2949219" style="enable-background:new 0 0 234.6191406 42.2949219;" xml:space="preserve">
<style type="text/css">
	.st0{fill:#FFFFFF;}
	.st1{fill:#35C4AF;}
</style>
<g>
	<g>
		<g>
			<g>
				<path class="st0" d="M71.7050781,8.3027344h2.4287109c2.1992188,0,3.7177734,1.5087891,3.7177734,3.4775391v0.0205078
					c0,1.96875-1.5185547,3.4980469-3.7177734,3.4980469h-2.4287109V8.3027344z M72.4951172,9.0322266v5.5371094h1.6386719
					c1.7695312,0,2.8984375-1.1992188,2.8984375-2.7490234v-0.0195312c0-1.5488281-1.1289062-2.7685547-2.8984375-2.7685547
					H72.4951172z"/>
				<path class="st0" d="M79.5957031,8.3027344h0.7890625v6.9960938h-0.7890625V8.3027344z"/>
				<path class="st0" d="M82.4345703,8.3027344h5.0273438v0.7294922h-4.2373047V11.53125h3.7880859v0.7197266h-3.7880859v3.0478516
					h-0.7900391V8.3027344z"/>
				<path class="st0" d="M88.9951172,8.3027344h5.0273438v0.7294922h-4.2373047V11.53125h3.7880859v0.7197266h-3.7880859v3.0478516
					h-0.7900391V8.3027344z"/>
				<path class="st0" d="M95.5546875,8.3027344h5.0576172v0.7197266h-4.2675781v2.3886719h3.8173828v0.7197266h-3.8173828v2.4482422
					h4.3173828v0.7197266h-5.1074219V8.3027344z"/>
				<path class="st0" d="M102.2548828,8.3027344h3.0087891c0.859375,0,1.5488281,0.2597656,1.9882812,0.6992188
					c0.3398438,0.3398438,0.5400391,0.8300781,0.5400391,1.3798828v0.0195312c0,1.1591797-0.7998047,1.8388672-1.8984375,2.0390625
					l2.1484375,2.8583984h-0.9697266l-2.0283203-2.71875h-1.9990234v2.71875h-0.7900391V8.3027344z M105.1933594,11.8710938
					c1.0498047,0,1.7988281-0.5400391,1.7988281-1.4394531v-0.0205078c0-0.859375-0.6591797-1.3789062-1.7890625-1.3789062
					h-2.1582031v2.8388672H105.1933594z"/>
				<path class="st0" d="M109.484375,8.3027344h5.0576172v0.7197266h-4.2675781v2.3886719h3.8173828v0.7197266h-3.8173828v2.4482422
					h4.3173828v0.7197266h-5.1074219V8.3027344z"/>
				<path class="st0" d="M116.1845703,8.3027344h0.7402344l4.4072266,5.6064453V8.3027344h0.7695312v6.9960938h-0.6298828
					l-4.5175781-5.7373047v5.7373047h-0.7695312V8.3027344z"/>
				<path class="st0" d="M125.9042969,9.0322266h-2.3583984V8.3027344h5.5068359v0.7294922h-2.359375v6.2666016h-0.7890625
					V9.0322266z"/>
				<path class="st0" d="M139.8710938,15.5087891l-0.9296875-0.8300781
					c-0.5898438,0.4599609-1.3388672,0.7402344-2.1992188,0.7402344c-2.1289062,0-3.5576172-1.6689453-3.5576172-3.5986328
					v-0.0195312c0-1.9287109,1.4492188-3.6181641,3.578125-3.6181641s3.5576172,1.6689453,3.5576172,3.5976562v0.0205078
					c0,0.8691406-0.3095703,1.6992188-0.8291016,2.3388672l0.9189453,0.7792969L139.8710938,15.5087891z M138.3818359,14.1699219
					l-1.3095703-1.1201172l0.5302734-0.5898438l1.3085938,1.1894531c0.3798828-0.4990234,0.5898438-1.1289062,0.5898438-1.8291016
					v-0.0195312c0-1.5888672-1.1591797-2.8886719-2.7587891-2.8886719c-1.5986328,0-2.7382812,1.2792969-2.7382812,2.8681641
					v0.0205078c0,1.5888672,1.1591797,2.8886719,2.7587891,2.8886719
					C137.3818359,14.6894531,137.9414062,14.4990234,138.3818359,14.1699219z"/>
				<path class="st0" d="M141.8847656,12.3701172V8.3027344h0.7890625v4.0175781
					c0,1.5097656,0.7998047,2.3583984,2.1386719,2.3583984c1.2900391,0,2.109375-0.7792969,2.109375-2.3085938V8.3027344h0.7890625
					v4.0078125c0,2.0390625-1.1689453,3.0986328-2.9179688,3.0986328
					C143.0634766,15.4091797,141.8847656,14.3496094,141.8847656,12.3701172z"/>
				<path class="st0" d="M149.5839844,8.3027344h5.0576172v0.7197266h-4.2675781v2.3886719h3.8173828v0.7197266h-3.8173828
					v2.4482422h4.3173828v0.7197266h-5.1074219V8.3027344z"/>
				<path class="st0" d="M155.8242188,14.2792969l0.4902344-0.5791016c0.7294922,0.6591797,1.4287109,0.9892578,2.3984375,0.9892578
					c0.9394531,0,1.5595703-0.5,1.5595703-1.1894531v-0.0205078c0-0.6494141-0.3496094-1.0195312-1.8193359-1.3291016
					c-1.609375-0.3496094-2.3486328-0.8691406-2.3486328-2.0185547v-0.0205078c0-1.0986328,0.9697266-1.9082031,2.2988281-1.9082031
					c1.0195312,0,1.7490234,0.2890625,2.4589844,0.859375l-0.4599609,0.609375
					c-0.6494141-0.5292969-1.2998047-0.7597656-2.0195312-0.7597656c-0.9091797,0-1.4882812,0.5-1.4882812,1.1298828v0.0195312
					c0,0.6601562,0.359375,1.0292969,1.8984375,1.359375c1.5595703,0.3398438,2.2783203,0.9091797,2.2783203,1.9785156v0.0205078
					c0,1.1992188-0.9990234,1.9785156-2.3886719,1.9785156C157.5732422,15.3984375,156.6640625,15.0292969,155.8242188,14.2792969z"
					/>
				<path class="st0" d="M164.3935547,9.0322266h-2.3583984V8.3027344h5.5068359v0.7294922h-2.359375v6.2666016h-0.7890625
					V9.0322266z"/>
				<path class="st0" d="M169.0546875,8.3027344h0.7890625v6.9960938h-0.7890625V8.3027344z"/>
				<path class="st0" d="M171.5839844,11.8203125v-0.0195312c0-1.9287109,1.4492188-3.6181641,3.578125-3.6181641
					s3.5576172,1.6689453,3.5576172,3.5976562v0.0205078c0,1.9287109-1.4492188,3.6181641-3.578125,3.6181641
					S171.5839844,13.75,171.5839844,11.8203125z M177.9003906,11.8203125v-0.0195312
					c0-1.5888672-1.1591797-2.8886719-2.7587891-2.8886719c-1.5986328,0-2.7382812,1.2792969-2.7382812,2.8681641v0.0205078
					c0,1.5888672,1.1591797,2.8886719,2.7587891,2.8886719C176.7607422,14.6894531,177.9003906,13.4101562,177.9003906,11.8203125z"
					/>
				<path class="st0" d="M180.3935547,8.3027344h0.7402344l4.4072266,5.6064453V8.3027344h0.7695312v6.9960938h-0.6298828
					l-4.5175781-5.7373047v5.7373047h-0.7695312V8.3027344z"/>
				<path class="st0" d="M187.8339844,14.2792969l0.4902344-0.5791016c0.7294922,0.6591797,1.4287109,0.9892578,2.3984375,0.9892578
					c0.9394531,0,1.5595703-0.5,1.5595703-1.1894531v-0.0205078c0-0.6494141-0.3496094-1.0195312-1.8193359-1.3291016
					c-1.609375-0.3496094-2.3486328-0.8691406-2.3486328-2.0185547v-0.0205078c0-1.0986328,0.9697266-1.9082031,2.2988281-1.9082031
					c1.0195312,0,1.7490234,0.2890625,2.4589844,0.859375l-0.4599609,0.609375
					c-0.6494141-0.5292969-1.2998047-0.7597656-2.0195312-0.7597656c-0.9091797,0-1.4882812,0.5-1.4882812,1.1298828v0.0195312
					c0,0.6601562,0.359375,1.0292969,1.8984375,1.359375c1.5595703,0.3398438,2.2783203,0.9091797,2.2783203,1.9785156v0.0205078
					c0,1.1992188-0.9990234,1.9785156-2.3886719,1.9785156C189.5830078,15.3984375,188.6738281,15.0292969,187.8339844,14.2792969z"
					/>
				<path class="st0" d="M194.4638672,14.2490234h0.9189453v1.0498047h-0.9189453V14.2490234z"/>
			</g>
		</g>
		<g>
			<g>
				<path class="st1" d="M71.0751953,24.2792969l0.9101562-1.0888672c0.6298828,0.5195312,1.2890625,0.8486328,2.0888672,0.8486328
					c0.6298828,0,1.0087891-0.2490234,1.0087891-0.6591797v-0.0195312c0-0.390625-0.2392578-0.5898438-1.4091797-0.8896484
					c-1.4091797-0.3603516-2.3183594-0.75-2.3183594-2.1386719v-0.0205078c0-1.2695312,1.0195312-2.1083984,2.4482422-2.1083984
					c1.0195312,0,1.8896484,0.3193359,2.5986328,0.8886719l-0.7988281,1.1601562
					c-0.6201172-0.4296875-1.2294922-0.6904297-1.8193359-0.6904297s-0.8994141,0.2705078-0.8994141,0.6103516v0.0195312
					c0,0.4599609,0.2998047,0.6103516,1.5087891,0.9199219c1.4199219,0.3691406,2.21875,0.8789062,2.21875,2.0986328v0.0195312
					c0,1.3896484-1.0595703,2.1689453-2.5683594,2.1689453C72.984375,25.3984375,71.9150391,25.0292969,71.0751953,24.2792969z"/>
				<path class="st1" d="M80.2041016,18.2529297h1.4189453l2.9990234,7.0458984h-1.609375l-0.6396484-1.5693359h-2.9589844
					l-0.6396484,1.5693359h-1.5683594L80.2041016,18.2529297z M81.8232422,22.3701172l-0.9296875-2.2685547l-0.9296875,2.2685547
					H81.8232422z"/>
				<path class="st1" d="M85.7060547,18.3027344h1.6591797l1.8388672,2.9580078l1.8388672-2.9580078h1.6591797v6.9960938h-1.5292969
					v-4.5673828l-1.96875,2.9882812h-0.0400391l-1.9492188-2.9580078v4.5371094h-1.5087891V18.3027344z"/>
				<path class="st1" d="M94.3857422,18.3027344h5.2763672v1.3691406h-3.7470703v1.4189453h3.2978516v1.3691406h-3.2978516
					v1.4697266h3.7978516v1.3691406h-5.3271484V18.3027344z"/>
				<path class="st1" d="M106.4833984,18.2529297h1.4189453l2.9990234,7.0458984h-1.609375l-0.6396484-1.5693359h-2.9589844
					l-0.6396484,1.5693359h-1.5683594L106.4833984,18.2529297z M108.1025391,22.3701172l-0.9296875-2.2685547l-0.9296875,2.2685547
					H108.1025391z"/>
				<path class="st1" d="M111.9853516,18.3027344h1.4189453l3.2783203,4.3076172v-4.3076172h1.5185547v6.9960938h-1.3085938
					l-3.3886719-4.4472656v4.4472656h-1.5185547V18.3027344z"/>
				<path class="st1" d="M119.4052734,24.2792969l0.9101562-1.0888672c0.6298828,0.5195312,1.2890625,0.8486328,2.0888672,0.8486328
					c0.6298828,0,1.0087891-0.2490234,1.0087891-0.6591797v-0.0195312c0-0.390625-0.2392578-0.5898438-1.4091797-0.8896484
					c-1.4091797-0.3603516-2.3183594-0.75-2.3183594-2.1386719v-0.0205078c0-1.2695312,1.0195312-2.1083984,2.4482422-2.1083984
					c1.0195312,0,1.8896484,0.3193359,2.5986328,0.8886719l-0.7988281,1.1601562
					c-0.6201172-0.4296875-1.2294922-0.6904297-1.8193359-0.6904297s-0.8994141,0.2705078-0.8994141,0.6103516v0.0195312
					c0,0.4599609,0.2998047,0.6103516,1.5087891,0.9199219c1.4199219,0.3691406,2.21875,0.8789062,2.21875,2.0986328v0.0195312
					c0,1.3896484-1.0595703,2.1689453-2.5683594,2.1689453C121.3144531,25.3984375,120.2451172,25.0292969,119.4052734,24.2792969z"
					/>
				<path class="st1" d="M125.4951172,18.3027344h1.6494141l1.4492188,4.7373047l1.5683594-4.7578125h1.3193359l1.5693359,4.7578125
					L134.5,18.3027344h1.609375l-2.3886719,7.0458984h-1.3388672l-1.5800781-4.5771484l-1.5791016,4.5771484h-1.3388672
					L125.4951172,18.3027344z"/>
				<path class="st1" d="M137.2548828,18.3027344h5.2763672v1.3691406h-3.7470703v1.4189453h3.2978516v1.3691406h-3.2978516
					v1.4697266h3.7978516v1.3691406h-5.3271484V18.3027344z"/>
				<path class="st1" d="M143.9550781,18.3027344h3.1982422c0.8896484,0,1.5791016,0.25,2.0380859,0.7099609
					c0.390625,0.3896484,0.6005859,0.9394531,0.6005859,1.5986328v0.0205078c0,1.1289062-0.6103516,1.8388672-1.5,2.1679688
					l1.7089844,2.4990234h-1.7988281l-1.4990234-2.2392578h-1.2089844v2.2392578h-1.5390625V18.3027344z M147.0527344,21.7011719
					c0.75,0,1.1796875-0.4003906,1.1796875-0.9902344v-0.0195312c0-0.6601562-0.4599609-0.9990234-1.2089844-0.9990234h-1.5292969
					v2.0087891H147.0527344z"/>
				<path class="st1" d="M150.9658203,23.7001953h1.6181641v1.5986328h-1.6181641V23.7001953z"/>
			</g>
		</g>
		<g>
			<g>
				<path class="st0" d="M72.2402344,0.0722656h0.4736328v4.1972656h-0.4736328V0.0722656z"/>
				<path class="st0" d="M73.9443359,0.0722656h0.4433594l2.6445312,3.3632812V0.0722656h0.4619141v4.1972656h-0.3779297
					L74.40625,0.8271484v3.4423828h-0.4619141V0.0722656z"/>
				<path class="st0" d="M81.5761719,0.5097656h-1.4160156v-0.4375h3.3046875v0.4375h-1.4150391v3.7597656h-0.4736328V0.5097656z"/>
				<path class="st0" d="M84.3300781,0.0722656h1.8046875c0.515625,0,0.9296875,0.1552734,1.1933594,0.4189453
					c0.2041016,0.2041016,0.3242188,0.4980469,0.3242188,0.828125v0.0117188c0,0.6953125-0.4794922,1.1035156-1.1396484,1.2236328
					l1.2890625,1.7148438h-0.5810547l-1.2177734-1.6308594h-1.1992188v1.6308594h-0.4736328V0.0722656z M86.0927734,2.2128906
					c0.6298828,0,1.0800781-0.3242188,1.0800781-0.8632812V1.3369141c0-0.515625-0.3964844-0.8271484-1.0742188-0.8271484
					h-1.2949219v1.703125H86.0927734z"/>
				<path class="st0" d="M88.6679688,0.0722656h3.0341797v0.4316406h-2.5605469v1.4326172h2.2910156v0.4316406h-2.2910156v1.4697266
					h2.5908203v0.4316406h-3.0644531V0.0722656z"/>
				<path class="st0" d="M94.2402344,0.0419922h0.4443359l1.9130859,4.2275391h-0.5097656l-0.4921875-1.109375h-2.2841797
					l-0.4980469,1.109375h-0.4863281L94.2402344,0.0419922z M95.4101562,2.734375L94.4560547,0.59375l-0.9589844,2.140625
					H95.4101562z"/>
				<path class="st0" d="M98.0039062,0.5097656h-1.4160156v-0.4375h3.3046875v0.4375h-1.4150391v3.7597656h-0.4736328V0.5097656z"/>
				<path class="st0" d="M100.7578125,0.0722656h0.4794922l1.5292969,2.2900391l1.5292969-2.2900391h0.4794922v4.1972656h-0.4736328
					V0.8691406l-1.5292969,2.2490234h-0.0234375L101.2197266,0.875v3.3945312h-0.4619141V0.0722656z"/>
				<path class="st0" d="M105.9658203,0.0722656H109v0.4316406h-2.5605469v1.4326172h2.2910156v0.4316406h-2.2910156v1.4697266
					h2.5908203v0.4316406h-3.0644531V0.0722656z"/>
				<path class="st0" d="M109.9853516,0.0722656h0.4433594l2.6445312,3.3632812V0.0722656h0.4619141v4.1972656h-0.3779297
					l-2.7099609-3.4423828v3.4423828h-0.4619141V0.0722656z"/>
				<path class="st0" d="M115.8173828,0.5097656h-1.4160156v-0.4375h3.3046875v0.4375h-1.4150391v3.7597656h-0.4736328V0.5097656z"
					/>
				<path class="st0" d="M120.1865234,2.1826172V2.1708984C120.1865234,1.0136719,121.0556641,0,122.3330078,0
					s2.1347656,1.0009766,2.1347656,2.1591797v0.0117188c0,1.1572266-0.8691406,2.1708984-2.1464844,2.1708984
					S120.1865234,3.3398438,120.1865234,2.1826172z M123.9755859,2.1826172V2.1708984
					c0-0.9541016-0.6953125-1.7333984-1.6542969-1.7333984c-0.9599609,0-1.6435547,0.7675781-1.6435547,1.7216797v0.0117188
					c0,0.953125,0.6953125,1.7324219,1.6552734,1.7324219C123.2919922,3.9033203,123.9755859,3.1357422,123.9755859,2.1826172z"/>
				<path class="st0" d="M125.4716797,0.0722656h3.0166016v0.4375h-2.5429688v1.4990234h2.2724609v0.4316406h-2.2724609v1.8291016
					h-0.4736328V0.0722656z"/>
				<path class="st0" d="M131.0214844,2.1826172V2.1708984c0-1.1875,0.8867188-2.1708984,2.1220703-2.1708984
					c0.7617188,0,1.2177734,0.2695312,1.6376953,0.6650391l-0.3242188,0.3486328
					C134.1035156,0.6777344,133.7080078,0.4375,133.1376953,0.4375c-0.9296875,0-1.625,0.7558594-1.625,1.7216797v0.0117188
					c0,0.9716797,0.7021484,1.7324219,1.625,1.7324219c0.5761719,0,0.9541016-0.2216797,1.3554688-0.6054688l0.3115234,0.3056641
					c-0.4375,0.4443359-0.9169922,0.7382812-1.6787109,0.7382812
					C131.9150391,4.3417969,131.0214844,3.3876953,131.0214844,2.1826172z"/>
				<path class="st0" d="M135.6591797,0.0722656h0.4736328v1.8642578h2.4228516V0.0722656h0.4736328v4.1972656h-0.4736328V2.3808594
					h-2.4228516v1.8886719h-0.4736328V0.0722656z"/>
				<path class="st0" d="M140.2197266,0.0722656h1.8046875c0.515625,0,0.9296875,0.1552734,1.1933594,0.4189453
					c0.2041016,0.2041016,0.3242188,0.4980469,0.3242188,0.828125v0.0117188c0,0.6953125-0.4794922,1.1035156-1.1396484,1.2236328
					l1.2890625,1.7148438h-0.5810547l-1.2177734-1.6308594h-1.1992188v1.6308594h-0.4736328V0.0722656z M141.9824219,2.2128906
					c0.6298828,0,1.0800781-0.3242188,1.0800781-0.8632812V1.3369141c0-0.515625-0.3964844-0.8271484-1.0742188-0.8271484
					h-1.2949219v1.703125H141.9824219z"/>
				<path class="st0" d="M144.3720703,2.1826172V2.1708984C144.3720703,1.0136719,145.2412109,0,146.5185547,0
					s2.1347656,1.0009766,2.1347656,2.1591797v0.0117188c0,1.1572266-0.8691406,2.1708984-2.1464844,2.1708984
					S144.3720703,3.3398438,144.3720703,2.1826172z M148.1611328,2.1826172V2.1708984
					c0-0.9541016-0.6953125-1.7333984-1.6542969-1.7333984c-0.9599609,0-1.6435547,0.7675781-1.6435547,1.7216797v0.0117188
					c0,0.953125,0.6953125,1.7324219,1.6552734,1.7324219C147.4775391,3.9033203,148.1611328,3.1357422,148.1611328,2.1826172z"/>
				<path class="st0" d="M149.6572266,0.0722656h0.4433594l2.6445312,3.3632812V0.0722656h0.4619141v4.1972656h-0.3779297
					l-2.7099609-3.4423828v3.4423828h-0.4619141V0.0722656z"/>
				<path class="st0" d="M154.4394531,0.0722656h0.4736328v4.1972656h-0.4736328V0.0722656z"/>
				<path class="st0" d="M155.9580078,2.1826172V2.1708984c0-1.1875,0.8867188-2.1708984,2.1220703-2.1708984
					c0.7617188,0,1.2177734,0.2695312,1.6376953,0.6650391l-0.3242188,0.3486328
					C159.0400391,0.6777344,158.6445312,0.4375,158.0742188,0.4375c-0.9296875,0-1.625,0.7558594-1.625,1.7216797v0.0117188
					c0,0.9716797,0.7021484,1.7324219,1.625,1.7324219c0.5761719,0,0.9541016-0.2216797,1.3554688-0.6054688l0.3115234,0.3056641
					c-0.4375,0.4443359-0.9169922,0.7382812-1.6787109,0.7382812
					C156.8515625,4.3417969,155.9580078,3.3876953,155.9580078,2.1826172z"/>
				<path class="st0" d="M162.3945312,0.0722656h0.4736328v1.8642578h2.4228516V0.0722656h0.4736328v4.1972656h-0.4736328V2.3808594
					h-2.4228516v1.8886719h-0.4736328V0.0722656z"/>
				<path class="st0" d="M166.9550781,0.0722656h3.0341797v0.4316406h-2.5605469v1.4326172h2.2910156v0.4316406h-2.2910156
					v1.4697266h2.5908203v0.4316406h-3.0644531V0.0722656z"/>
				<path class="st0" d="M170.9746094,0.0722656h1.5712891c0.9472656,0,1.5712891,0.5029297,1.5712891,1.3310547v0.0117188
					c0,0.9052734-0.7558594,1.3730469-1.6494141,1.3730469h-1.0195312v1.4814453h-0.4736328V0.0722656z M172.4853516,2.3564453
					c0.6962891,0,1.1513672-0.3720703,1.1513672-0.9238281V1.4208984c0-0.5996094-0.4492188-0.9111328-1.1269531-0.9111328
					h-1.0615234v1.8466797H172.4853516z"/>
				<path class="st0" d="M176.1152344,0.0419922h0.4443359l1.9130859,4.2275391h-0.5097656l-0.4921875-1.109375h-2.2841797
					l-0.4980469,1.109375h-0.4863281L176.1152344,0.0419922z M177.2851562,2.734375l-0.9541016-2.140625l-0.9589844,2.140625
					H177.2851562z"/>
				<path class="st0" d="M179.8789062,0.5097656h-1.4160156v-0.4375h3.3046875v0.4375h-1.4150391v3.7597656h-0.4736328V0.5097656z"
					/>
				<path class="st0" d="M182.6748047,0.0722656h0.4736328v4.1972656h-0.4736328V0.0722656z"/>
				<path class="st0" d="M185.4707031,0.5097656h-1.4160156v-0.4375h3.3046875v0.4375h-1.4150391v3.7597656h-0.4736328V0.5097656z"
					/>
				<path class="st0" d="M188.2666016,0.0722656h0.4736328v4.1972656h-0.4736328V0.0722656z"/>
				<path class="st0" d="M189.6943359,3.6582031l0.2939453-0.3486328c0.4384766,0.3964844,0.8574219,0.59375,1.4394531,0.59375
					c0.5634766,0,0.9355469-0.2998047,0.9355469-0.7128906V3.1777344c0-0.3896484-0.2099609-0.6113281-1.0917969-0.796875
					c-0.9648438-0.2099609-1.4091797-0.5224609-1.4091797-1.2119141V1.1572266c0-0.6591797,0.5820312-1.1455078,1.3798828-1.1455078
					c0.6113281,0,1.0488281,0.1738281,1.4746094,0.515625l-0.2753906,0.3662109
					C192.0517578,0.5751953,191.6621094,0.4375,191.2294922,0.4375c-0.5449219,0-0.8935547,0.2998047-0.8935547,0.6777344v0.0117188
					c0,0.3964844,0.2167969,0.6181641,1.1396484,0.8154297c0.9355469,0.2041016,1.3671875,0.5458984,1.3671875,1.1875v0.0126953
					c0,0.71875-0.5996094,1.1865234-1.4326172,1.1865234C190.7441406,4.3291016,190.1982422,4.1074219,189.6943359,3.6582031z"/>
				<path class="st0" d="M195.4248047,2.1826172V2.1708984c0-1.1875,0.8867188-2.1708984,2.1220703-2.1708984
					c0.7617188,0,1.2177734,0.2695312,1.6376953,0.6650391l-0.3242188,0.3486328
					C198.5068359,0.6777344,198.1113281,0.4375,197.5410156,0.4375c-0.9296875,0-1.625,0.7558594-1.625,1.7216797v0.0117188
					c0,0.9716797,0.7021484,1.7324219,1.625,1.7324219c0.5761719,0,0.9541016-0.2216797,1.3554688-0.6054688l0.3115234,0.3056641
					c-0.4375,0.4443359-0.9169922,0.7382812-1.6787109,0.7382812
					C196.3183594,4.3417969,195.4248047,3.3876953,195.4248047,2.1826172z"/>
				<path class="st0" d="M199.9541016,1.1689453h0.5517578v0.6298828h-0.5517578V1.1689453z M199.9541016,3.6396484h0.5517578
					v0.6298828h-0.5517578V3.6396484z"/>
			</g>
		</g>
	</g>
</g>
</svg>
