<?xml version="1.0" encoding="utf-8"?>
<!-- Generator: Adobe Illustrator 26.3.0, SVG Export Plug-In . SVG Version: 6.00 Build 0)  -->
<svg version="1.1" id="Layer_1" xmlns="http://www.w3.org/2000/svg" xmlns:xlink="http://www.w3.org/1999/xlink" x="0px" y="0px"
	 viewBox="0 0 234.6191406 43.9950371" style="enable-background:new 0 0 234.6191406 43.9950371;" xml:space="preserve">
<style type="text/css">
	.st0{fill:#FFFFFF;}
	.st1{fill:#35C4AF;}
</style>
<g>
	<g>
		<g>
			<g>
				<g>
					<g>
						<path class="st0" d="M0.0664062,32.8202324h3.0341797v0.4316406H0.5400391v1.4326172h2.2910156v0.4316406H0.5400391v1.4697266
							h2.5908203v0.4316406H0.0664062V32.8202324z"/>
						<path class="st0" d="M3.9423828,32.8202324h1.5712891c0.9472656,0,1.5712891,0.5029297,1.5712891,1.3310547v0.0117188
							c0,0.9052734-0.7558594,1.3730469-1.6494141,1.3730469H4.4160156v1.4814453H3.9423828V32.8202324z M5.453125,35.1044121
							c0.6962891,0,1.1513672-0.3720703,1.1513672-0.9238281v-0.0117188c0-0.5996094-0.4492188-0.9111328-1.1269531-0.9111328
							H4.4160156v1.8466797H5.453125z"/>
						<path class="st0" d="M7.6210938,34.930584v-0.0117188c0-1.1875,0.8867188-2.1708984,2.1220703-2.1708984
							c0.7617188,0,1.2177734,0.2695312,1.6376953,0.6650391l-0.3242188,0.3486328
							c-0.3535156-0.3359375-0.7490234-0.5761719-1.3193359-0.5761719c-0.9296875,0-1.625,0.7558594-1.625,1.7207031v0.0126953
							c0,0.9716797,0.7021484,1.7324219,1.625,1.7324219c0.5761719,0,0.9541016-0.2216797,1.3554688-0.6054688l0.3115234,0.3056641
							c-0.4375,0.4443359-0.9169922,0.7382812-1.6787109,0.7382812C8.5146484,37.0897636,7.6210938,36.1356621,7.6210938,34.930584z
							"/>
						<path class="st0" d="M12.1142578,32.8202324h0.4736328v3.7597656h2.3623047v0.4375h-2.8359375V32.8202324z"/>
						<path class="st0" d="M15.4980469,35.2606621v-2.4404297h0.4736328v2.4101562
							c0,0.9052734,0.4804688,1.4150391,1.2841797,1.4150391c0.7734375,0,1.2646484-0.4677734,1.2646484-1.3847656v-2.4404297
							h0.4736328v2.4042969c0,1.2236328-0.7011719,1.859375-1.7509766,1.859375
							C16.2060547,37.0839043,15.4980469,36.4481621,15.4980469,35.2606621z"/>
						<path class="st0" d="M19.6982422,36.4061699l0.2939453-0.3476562
							c0.4384766,0.3955078,0.8574219,0.5927734,1.4394531,0.5927734c0.5634766,0,0.9355469-0.2998047,0.9355469-0.7128906
							v-0.0126953c0-0.3896484-0.2099609-0.6113281-1.0917969-0.796875
							c-0.9648438-0.2099609-1.4091797-0.5224609-1.4091797-1.2119141v-0.0117188
							c0-0.6591797,0.5820312-1.1455078,1.3798828-1.1455078c0.6113281,0,1.0488281,0.1738281,1.4746094,0.515625
							l-0.2753906,0.3662109c-0.3896484-0.3183594-0.7792969-0.4560547-1.2119141-0.4560547
							c-0.5449219,0-0.8935547,0.2998047-0.8935547,0.6777344v0.0117188c0,0.3964844,0.2167969,0.6181641,1.1396484,0.8154297
							c0.9355469,0.2041016,1.3671875,0.5458984,1.3671875,1.1875v0.0126953c0,0.71875-0.5996094,1.1865234-1.4326172,1.1865234
							C20.7480469,37.0770683,20.2021484,36.8553886,19.6982422,36.4061699z"/>
						<path class="st0" d="M25.1328125,32.789959h0.4443359l1.9130859,4.2275391h-0.5097656l-0.4921875-1.109375h-2.2841797
							l-0.4980469,1.109375h-0.4863281L25.1328125,32.789959z M26.3027344,35.4823418l-0.9541016-2.140625l-0.9589844,2.140625
							H26.3027344z"/>
						<path class="st0" d="M29.7597656,32.7294121h0.5283203v0.5097656h-0.5283203V32.7294121z M29.7900391,33.9169121h0.4619141
							v3.1005859h-0.4619141V33.9169121z"/>
						<path class="st0" d="M30.9238281,36.6219902l0.234375-0.3300781c0.3349609,0.2519531,0.7070312,0.3955078,1.0732422,0.3955078
							c0.3710938,0,0.6416016-0.1914062,0.6416016-0.4912109v-0.0126953c0-0.3115234-0.3662109-0.4316406-0.7734375-0.5449219
							c-0.4863281-0.1386719-1.0253906-0.3066406-1.0253906-0.8759766v-0.0117188
							c0-0.5341797,0.4433594-0.8876953,1.0546875-0.8876953c0.3779297,0,0.7978516,0.1318359,1.1152344,0.3417969
							l-0.2089844,0.3476562c-0.2880859-0.1855469-0.6181641-0.2998047-0.9179688-0.2998047
							c-0.3662109,0-0.5996094,0.1923828-0.5996094,0.4501953v0.0117188c0,0.2939453,0.3837891,0.4082031,0.7978516,0.5341797
							c0.4794922,0.1435547,0.9951172,0.3291016,0.9951172,0.8867188v0.0126953
							c0,0.5869141-0.4853516,0.9287109-1.1035156,0.9287109C31.7636719,37.0770683,31.2714844,36.9032402,30.9238281,36.6219902z"
							/>
						<path class="st0" d="M35.6933594,32.7294121h0.5283203v0.5097656h-0.5283203V32.7294121z M35.7236328,33.9169121h0.4619141
							v3.1005859h-0.4619141V33.9169121z"/>
						<path class="st0" d="M37.1152344,33.9169121h0.4619141v0.5400391
							c0.2041016-0.3359375,0.5273438-0.6054688,1.0615234-0.6054688c0.7490234,0,1.1875,0.5039062,1.1875,1.2412109v1.9248047
							h-0.4619141v-1.8105469c0-0.5761719-0.3115234-0.9355469-0.8574219-0.9355469
							c-0.5341797,0-0.9296875,0.3896484-0.9296875,0.9707031v1.7753906h-0.4619141V33.9169121z"/>
						<path class="st0" d="M40.4814453,35.4764824v-0.0117188c0-1.0136719,0.7373047-1.6132812,1.4814453-1.6132812
							c0.5751953,0,0.9472656,0.3115234,1.1865234,0.6591797v-1.8710938h0.4619141v4.3779297h-0.4619141v-0.6240234
							c-0.2509766,0.3720703-0.6171875,0.6904297-1.1865234,0.6904297
							C41.21875,37.0839043,40.4814453,36.4960136,40.4814453,35.4764824z M43.1679688,35.470623v-0.0126953
							c0-0.7128906-0.5458984-1.1933594-1.1210938-1.1933594c-0.5996094,0-1.0917969,0.4443359-1.0917969,1.1933594v0.0126953
							c0,0.7314453,0.5039062,1.1992188,1.0917969,1.1992188C42.6220703,36.6698418,43.1679688,36.1835136,43.1679688,35.470623z"/>
						<path class="st0" d="M44.5136719,32.7294121h0.5283203v0.5097656h-0.5283203V32.7294121z M44.5439453,33.9169121h0.4619141
							v3.1005859h-0.4619141V33.9169121z"/>
						<path class="st0" d="M45.7441406,35.4823418V35.470623c0-0.8759766,0.6835938-1.6191406,1.5888672-1.6191406
							c0.5878906,0,0.953125,0.2460938,1.2412109,0.5517578l-0.3056641,0.3232422
							c-0.2460938-0.2578125-0.5214844-0.4677734-0.9414062-0.4677734c-0.6298828,0-1.109375,0.5341797-1.109375,1.1992188
							v0.0126953c0,0.6708984,0.4912109,1.2050781,1.1386719,1.2050781c0.3964844,0,0.7021484-0.1982422,0.9482422-0.4619141
							l0.2939453,0.2763672c-0.3125,0.3476562-0.6845703,0.5996094-1.265625,0.5996094
							C46.4277344,37.0897636,45.7441406,36.3514824,45.7441406,35.4823418z"/>
						<path class="st0" d="M48.9775391,36.118084v-0.0117188c0-0.6542969,0.5390625-1.0019531,1.3251953-1.0019531
							c0.3955078,0,0.6777344,0.0537109,0.953125,0.1318359v-0.1074219c0-0.5576172-0.3417969-0.8457031-0.9238281-0.8457031
							c-0.3652344,0-0.6533203,0.0957031-0.9414062,0.2275391l-0.1376953-0.3779297
							c0.3417969-0.1552734,0.6777344-0.2578125,1.1279297-0.2578125c0.4375,0,0.7734375,0.1142578,1.0009766,0.3417969
							c0.2099609,0.2099609,0.3173828,0.5097656,0.3173828,0.90625v1.8945312h-0.4433594v-0.4677734
							c-0.2158203,0.2822266-0.5751953,0.5341797-1.1210938,0.5341797
							C49.5585938,37.0839043,48.9775391,36.7538261,48.9775391,36.118084z M51.2617188,35.8778496v-0.2998047
							c-0.2275391-0.0654297-0.5332031-0.1318359-0.9111328-0.1318359c-0.5820312,0-0.9052734,0.2519531-0.9052734,0.6416016
							v0.0117188c0,0.390625,0.359375,0.6181641,0.7792969,0.6181641
							C50.7939453,36.7176933,51.2617188,36.3700371,51.2617188,35.8778496z"/>
						<path class="st0" d="M52.6738281,36.196209v-1.8710938h-0.4316406v-0.4082031h0.4316406v-0.9355469h0.4619141v0.9355469
							h0.9833984v0.4082031h-0.9833984v1.8105469c0,0.3779297,0.2099609,0.515625,0.5214844,0.515625
							c0.15625,0,0.2880859-0.0292969,0.4501953-0.1074219v0.3955078c-0.1621094,0.0839844-0.3359375,0.1318359-0.5585938,0.1318359
							C53.0517578,37.071209,52.6738281,36.8260918,52.6738281,36.196209z"/>
						<path class="st0" d="M54.5039062,35.4764824v-0.0117188c0-0.8935547,0.6289062-1.6132812,1.4863281-1.6132812
							c0.9179688,0,1.4453125,0.7314453,1.4453125,1.6367188c0,0.0605469,0,0.0957031-0.0058594,0.1503906h-2.4580078
							c0.0654297,0.6708984,0.5390625,1.0488281,1.0908203,1.0488281c0.4257812,0,0.7255859-0.1738281,0.9775391-0.4375
							l0.2880859,0.2578125c-0.3115234,0.3476562-0.6894531,0.5820312-1.2773438,0.5820312
							C55.1992188,37.0897636,54.5039062,36.4354668,54.5039062,35.4764824z M56.9677734,35.2967949
							c-0.0478516-0.5644531-0.3710938-1.0556641-0.9892578-1.0556641c-0.5390625,0-0.9472656,0.4492188-1.0068359,1.0556641
							H56.9677734z"/>
						<path class="st0" d="M57.9238281,35.4764824v-0.0117188c0-1.0136719,0.7373047-1.6132812,1.4814453-1.6132812
							c0.5751953,0,0.9472656,0.3115234,1.1865234,0.6591797v-1.8710938h0.4619141v4.3779297h-0.4619141v-0.6240234
							c-0.2509766,0.3720703-0.6171875,0.6904297-1.1865234,0.6904297
							C58.6611328,37.0839043,57.9238281,36.4960136,57.9238281,35.4764824z M60.6103516,35.470623v-0.0126953
							c0-0.7128906-0.5458984-1.1933594-1.1210938-1.1933594c-0.5996094,0-1.0917969,0.4443359-1.0917969,1.1933594v0.0126953
							c0,0.7314453,0.5039062,1.1992188,1.0917969,1.1992188C60.0644531,36.6698418,60.6103516,36.1835136,60.6103516,35.470623z"/>
						<path class="st0" d="M63.7734375,34.3251152h-0.4257812v-0.4023438h0.4257812v-0.2695312
							c0-0.3535156,0.0957031-0.6240234,0.2695312-0.7978516c0.15625-0.1552734,0.3847656-0.2392578,0.6660156-0.2392578
							c0.2158203,0,0.3603516,0.0234375,0.5097656,0.078125v0.4013672c-0.1679688-0.0478516-0.2939453-0.078125-0.4492188-0.078125
							c-0.3603516,0-0.5400391,0.2158203-0.5400391,0.6601562v0.2519531h0.9833984v0.3955078h-0.9775391v2.6923828h-0.4619141
							V34.3251152z"/>
						<path class="st0" d="M65.4052734,35.4823418V35.470623c0-0.8759766,0.6835938-1.6191406,1.6191406-1.6191406
							c0.9287109,0,1.6123047,0.7314453,1.6123047,1.6064453v0.0126953c0,0.875-0.6894531,1.6191406-1.625,1.6191406
							C66.0820312,37.0897636,65.4052734,36.3583183,65.4052734,35.4823418z M68.1630859,35.4823418V35.470623
							c0-0.6660156-0.4970703-1.2119141-1.1513672-1.2119141c-0.6708984,0-1.1328125,0.5458984-1.1328125,1.1992188v0.0126953
							c0,0.6650391,0.4912109,1.2050781,1.1455078,1.2050781C67.6953125,36.6757011,68.1630859,36.1356621,68.1630859,35.4823418z"
							/>
						<path class="st0" d="M69.3291016,33.9169121h0.4619141v0.8095703c0.2275391-0.515625,0.6777344-0.8876953,1.265625-0.8632812
							v0.4980469h-0.0361328c-0.6777344,0-1.2294922,0.4853516-1.2294922,1.4208984v1.2353516h-0.4619141V33.9169121z"/>
						<path class="st0" d="M73.4267578,36.196209v-1.8710938h-0.4316406v-0.4082031h0.4316406v-0.9355469h0.4619141v0.9355469
							h0.9833984v0.4082031h-0.9833984v1.8105469c0,0.3779297,0.2099609,0.515625,0.5214844,0.515625
							c0.15625,0,0.2880859-0.0292969,0.4492188-0.1074219v0.3955078c-0.1611328,0.0839844-0.3349609,0.1318359-0.5576172,0.1318359
							C73.8046875,37.071209,73.4267578,36.8260918,73.4267578,36.196209z"/>
						<path class="st0" d="M75.5449219,32.6395683h0.4619141v1.8173828
							c0.2041016-0.3359375,0.5273438-0.6054688,1.0615234-0.6054688c0.7490234,0,1.1875,0.5039062,1.1875,1.2412109v1.9248047
							h-0.4619141v-1.8105469c0-0.5761719-0.3115234-0.9355469-0.8574219-0.9355469
							c-0.5341797,0-0.9296875,0.3896484-0.9296875,0.9707031v1.7753906h-0.4619141V32.6395683z"/>
						<path class="st0" d="M78.9052734,35.4764824v-0.0117188c0-0.8935547,0.6289062-1.6132812,1.4863281-1.6132812
							c0.9179688,0,1.4453125,0.7314453,1.4453125,1.6367188c0,0.0605469,0,0.0957031-0.0058594,0.1503906h-2.4580078
							c0.0654297,0.6708984,0.5390625,1.0488281,1.0908203,1.0488281c0.4257812,0,0.7255859-0.1738281,0.9775391-0.4375
							l0.2880859,0.2578125c-0.3115234,0.3476562-0.6894531,0.5820312-1.2773438,0.5820312
							C79.6005859,37.0897636,78.9052734,36.4354668,78.9052734,35.4764824z M81.3691406,35.2967949
							c-0.0478516-0.5644531-0.3710938-1.0556641-0.9892578-1.0556641c-0.5390625,0-0.9472656,0.4492188-1.0068359,1.0556641
							H81.3691406z"/>
						<path class="st0" d="M84.3173828,36.196209v-1.8710938h-0.4316406v-0.4082031h0.4316406v-0.9355469h0.4619141v0.9355469
							h0.9833984v0.4082031h-0.9833984v1.8105469c0,0.3779297,0.2099609,0.515625,0.5214844,0.515625
							c0.15625,0,0.2880859-0.0292969,0.4492188-0.1074219v0.3955078c-0.1611328,0.0839844-0.3349609,0.1318359-0.5576172,0.1318359
							C84.6953125,37.071209,84.3173828,36.8260918,84.3173828,36.196209z"/>
						<path class="st0" d="M86.4345703,33.9169121h0.4619141v0.8095703c0.2275391-0.515625,0.6777344-0.8876953,1.265625-0.8632812
							v0.4980469h-0.0361328c-0.6777344,0-1.2294922,0.4853516-1.2294922,1.4208984v1.2353516h-0.4619141V33.9169121z"/>
						<path class="st0" d="M88.3974609,35.4764824v-0.0117188c0-0.8935547,0.6289062-1.6132812,1.4863281-1.6132812
							c0.9179688,0,1.4453125,0.7314453,1.4453125,1.6367188c0,0.0605469,0,0.0957031-0.0058594,0.1503906h-2.4580078
							c0.0654297,0.6708984,0.5390625,1.0488281,1.0908203,1.0488281c0.4257812,0,0.7255859-0.1738281,0.9775391-0.4375
							l0.2880859,0.2578125c-0.3115234,0.3476562-0.6894531,0.5820312-1.2773438,0.5820312
							C89.0927734,37.0897636,88.3974609,36.4354668,88.3974609,35.4764824z M90.8613281,35.2967949
							c-0.0478516-0.5644531-0.3710938-1.0556641-0.9892578-1.0556641c-0.5390625,0-0.9472656,0.4492188-1.0068359,1.0556641
							H90.8613281z"/>
						<path class="st0" d="M91.7578125,36.118084v-0.0117188c0-0.6542969,0.5390625-1.0019531,1.3251953-1.0019531
							c0.3955078,0,0.6777344,0.0537109,0.953125,0.1318359v-0.1074219c0-0.5576172-0.3417969-0.8457031-0.9238281-0.8457031
							c-0.3652344,0-0.6533203,0.0957031-0.9414062,0.2275391l-0.1376953-0.3779297
							c0.3417969-0.1552734,0.6777344-0.2578125,1.1279297-0.2578125c0.4375,0,0.7734375,0.1142578,1.0009766,0.3417969
							c0.2099609,0.2099609,0.3173828,0.5097656,0.3173828,0.90625v1.8945312h-0.4433594v-0.4677734
							c-0.2158203,0.2822266-0.5751953,0.5341797-1.1210938,0.5341797
							C92.3388672,37.0839043,91.7578125,36.7538261,91.7578125,36.118084z M94.0419922,35.8778496v-0.2998047
							c-0.2275391-0.0654297-0.5332031-0.1318359-0.9111328-0.1318359c-0.5820312,0-0.9052734,0.2519531-0.9052734,0.6416016
							v0.0117188c0,0.390625,0.359375,0.6181641,0.7792969,0.6181641
							C93.5742188,36.7176933,94.0419922,36.3700371,94.0419922,35.8778496z"/>
						<path class="st0" d="M95.4472656,36.196209v-1.8710938H95.015625v-0.4082031h0.4316406v-0.9355469h0.4619141v0.9355469
							h0.9833984v0.4082031h-0.9833984v1.8105469c0,0.3779297,0.2099609,0.515625,0.5214844,0.515625
							c0.15625,0,0.2880859-0.0292969,0.4501953-0.1074219v0.3955078c-0.1621094,0.0839844-0.3359375,0.1318359-0.5585938,0.1318359
							C95.8251953,37.071209,95.4472656,36.8260918,95.4472656,36.196209z"/>
						<path class="st0" d="M97.5644531,33.9169121h0.4619141v0.5224609
							c0.2041016-0.3066406,0.4794922-0.5878906,1.0009766-0.5878906c0.5039062,0,0.828125,0.2695312,0.9960938,0.6171875
							c0.2216797-0.3417969,0.5517578-0.6171875,1.0908203-0.6171875c0.7138672,0,1.1513672,0.4794922,1.1513672,1.2470703
							v1.9189453h-0.4609375v-1.8105469c0-0.6005859-0.3007812-0.9355469-0.8037109-0.9355469
							c-0.4677734,0-0.8574219,0.3476562-0.8574219,0.9589844v1.7871094H99.6875v-1.8232422
							c0-0.5810547-0.3056641-0.9228516-0.7978516-0.9228516c-0.4912109,0-0.8632812,0.4072266-0.8632812,0.9775391v1.7685547
							h-0.4619141V33.9169121z"/>
						<path class="st0" d="M102.9169922,35.4764824v-0.0117188c0-0.8935547,0.6289062-1.6132812,1.4863281-1.6132812
							c0.9179688,0,1.4453125,0.7314453,1.4453125,1.6367188c0,0.0605469,0,0.0957031-0.0058594,0.1503906h-2.4580078
							c0.0654297,0.6708984,0.5390625,1.0488281,1.0908203,1.0488281c0.4257812,0,0.7255859-0.1738281,0.9775391-0.4375
							l0.2880859,0.2578125c-0.3115234,0.3476562-0.6894531,0.5820312-1.2773438,0.5820312
							C103.6123047,37.0897636,102.9169922,36.4354668,102.9169922,35.4764824z M105.3808594,35.2967949
							c-0.0478516-0.5644531-0.3710938-1.0556641-0.9892578-1.0556641c-0.5390625,0-0.9472656,0.4492188-1.0068359,1.0556641
							H105.3808594z"/>
						<path class="st0" d="M106.5107422,33.9169121h0.4619141v0.5400391
							c0.2041016-0.3359375,0.5273438-0.6054688,1.0615234-0.6054688c0.7490234,0,1.1875,0.5039062,1.1875,1.2412109v1.9248047
							h-0.4619141v-1.8105469c0-0.5761719-0.3115234-0.9355469-0.8574219-0.9355469
							c-0.5341797,0-0.9296875,0.3896484-0.9296875,0.9707031v1.7753906h-0.4619141V33.9169121z"/>
						<path class="st0" d="M110.21875,36.196209v-1.8710938h-0.4316406v-0.4082031h0.4316406v-0.9355469h0.4619141v0.9355469
							h0.9833984v0.4082031h-0.9833984v1.8105469c0,0.3779297,0.2099609,0.515625,0.5214844,0.515625
							c0.15625,0,0.2880859-0.0292969,0.4501953-0.1074219v0.3955078c-0.1621094,0.0839844-0.3359375,0.1318359-0.5585938,0.1318359
							C110.5966797,37.071209,110.21875,36.8260918,110.21875,36.196209z"/>
						<path class="st0" d="M113.8007812,35.4823418V35.470623c0-0.8759766,0.6835938-1.6191406,1.6191406-1.6191406
							c0.9287109,0,1.6123047,0.7314453,1.6123047,1.6064453v0.0126953c0,0.875-0.6894531,1.6191406-1.625,1.6191406
							C114.4775391,37.0897636,113.8007812,36.3583183,113.8007812,35.4823418z M116.5585938,35.4823418V35.470623
							c0-0.6660156-0.4970703-1.2119141-1.1513672-1.2119141c-0.6708984,0-1.1328125,0.5458984-1.1328125,1.1992188v0.0126953
							c0,0.6650391,0.4912109,1.2050781,1.1455078,1.2050781C116.0908203,36.6757011,116.5585938,36.1356621,116.5585938,35.4823418
							z"/>
						<path class="st0" d="M117.8925781,34.3251152h-0.4257812v-0.4023438h0.4257812v-0.2695312
							c0-0.3535156,0.0957031-0.6240234,0.2695312-0.7978516c0.15625-0.1552734,0.3847656-0.2392578,0.6660156-0.2392578
							c0.2158203,0,0.3603516,0.0234375,0.5097656,0.078125v0.4013672c-0.1679688-0.0478516-0.2939453-0.078125-0.4492188-0.078125
							c-0.3603516,0-0.5400391,0.2158203-0.5400391,0.6601562v0.2519531h0.9833984v0.3955078h-0.9775391v2.6923828h-0.4619141
							V34.3251152z"/>
						<path class="st0" d="M121.2412109,35.4823418V35.470623c0-0.8759766,0.6835938-1.6191406,1.5888672-1.6191406
							c0.5878906,0,0.953125,0.2460938,1.2412109,0.5517578l-0.3056641,0.3232422
							c-0.2460938-0.2578125-0.5214844-0.4677734-0.9414062-0.4677734c-0.6298828,0-1.109375,0.5341797-1.109375,1.1992188
							v0.0126953c0,0.6708984,0.4912109,1.2050781,1.1386719,1.2050781c0.3964844,0,0.7021484-0.1982422,0.9482422-0.4619141
							l0.2939453,0.2763672c-0.3125,0.3476562-0.6835938,0.5996094-1.265625,0.5996094
							C121.9248047,37.0897636,121.2412109,36.3514824,121.2412109,35.4823418z"/>
						<path class="st0" d="M124.7138672,32.6395683h0.4619141v1.8173828
							c0.2041016-0.3359375,0.5273438-0.6054688,1.0615234-0.6054688c0.7490234,0,1.1875,0.5039062,1.1875,1.2412109v1.9248047
							h-0.4619141v-1.8105469c0-0.5761719-0.3115234-0.9355469-0.8574219-0.9355469
							c-0.5341797,0-0.9296875,0.3896484-0.9296875,0.9707031v1.7753906h-0.4619141V32.6395683z"/>
						<path class="st0" d="M128.2666016,33.9169121h0.4619141v0.8095703c0.2275391-0.515625,0.6777344-0.8876953,1.265625-0.8632812
							v0.4980469h-0.0361328c-0.6777344,0-1.2294922,0.4853516-1.2294922,1.4208984v1.2353516h-0.4619141V33.9169121z"/>
						<path class="st0" d="M130.2226562,35.4823418V35.470623c0-0.8759766,0.6835938-1.6191406,1.6191406-1.6191406
							c0.9287109,0,1.6123047,0.7314453,1.6123047,1.6064453v0.0126953c0,0.875-0.6894531,1.6191406-1.625,1.6191406
							C130.8994141,37.0897636,130.2226562,36.3583183,130.2226562,35.4823418z M132.9804688,35.4823418V35.470623
							c0-0.6660156-0.4970703-1.2119141-1.1513672-1.2119141c-0.6708984,0-1.1328125,0.5458984-1.1328125,1.1992188v0.0126953
							c0,0.6650391,0.4912109,1.2050781,1.1455078,1.2050781C132.5126953,36.6757011,132.9804688,36.1356621,132.9804688,35.4823418
							z"/>
						<path class="st0" d="M134.1464844,33.9169121h0.4619141v0.5400391
							c0.2041016-0.3359375,0.5273438-0.6054688,1.0615234-0.6054688c0.7490234,0,1.1875,0.5039062,1.1875,1.2412109v1.9248047
							h-0.4619141v-1.8105469c0-0.5761719-0.3115234-0.9355469-0.8574219-0.9355469
							c-0.5341797,0-0.9296875,0.3896484-0.9296875,0.9707031v1.7753906h-0.4619141V33.9169121z"/>
						<path class="st0" d="M137.7099609,32.7294121h0.5283203v0.5097656h-0.5283203V32.7294121z M137.7402344,33.9169121h0.4619141
							v3.1005859h-0.4619141V33.9169121z"/>
						<path class="st0" d="M138.9404297,35.4823418V35.470623c0-0.8759766,0.6835938-1.6191406,1.5888672-1.6191406
							c0.5878906,0,0.953125,0.2460938,1.2412109,0.5517578l-0.3056641,0.3232422
							c-0.2460938-0.2578125-0.5214844-0.4677734-0.9414062-0.4677734c-0.6298828,0-1.109375,0.5341797-1.109375,1.1992188
							v0.0126953c0,0.6708984,0.4912109,1.2050781,1.1386719,1.2050781c0.3964844,0,0.7021484-0.1982422,0.9482422-0.4619141
							l0.2939453,0.2763672c-0.3125,0.3476562-0.6835938,0.5996094-1.265625,0.5996094
							C139.6240234,37.0897636,138.9404297,36.3514824,138.9404297,35.4823418z"/>
						<path class="st0" d="M144.0703125,32.6395683h0.4619141v1.8173828
							c0.2041016-0.3359375,0.5273438-0.6054688,1.0615234-0.6054688c0.7490234,0,1.1875,0.5039062,1.1875,1.2412109v1.9248047
							h-0.4619141v-1.8105469c0-0.5761719-0.3115234-0.9355469-0.8574219-0.9355469
							c-0.5341797,0-0.9296875,0.3896484-0.9296875,0.9707031v1.7753906h-0.4619141V32.6395683z"/>
						<path class="st0" d="M147.4248047,35.4764824v-0.0117188c0-0.8935547,0.6289062-1.6132812,1.4863281-1.6132812
							c0.9179688,0,1.4453125,0.7314453,1.4453125,1.6367188c0,0.0605469,0,0.0957031-0.0058594,0.1503906h-2.4580078
							c0.0654297,0.6708984,0.5390625,1.0488281,1.0908203,1.0488281c0.4257812,0,0.7255859-0.1738281,0.9775391-0.4375
							l0.2880859,0.2578125c-0.3115234,0.3476562-0.6894531,0.5820312-1.2773438,0.5820312
							C148.1201172,37.0897636,147.4248047,36.4354668,147.4248047,35.4764824z M149.8886719,35.2967949
							c-0.0478516-0.5644531-0.3710938-1.0556641-0.9892578-1.0556641c-0.5390625,0-0.9472656,0.4492188-1.0068359,1.0556641
							H149.8886719z"/>
						<path class="st0" d="M151.0244141,33.9169121h0.4619141v0.6240234c0.2519531-0.3720703,0.6171875-0.6894531,1.1875-0.6894531
							c0.7431641,0,1.4804688,0.5878906,1.4804688,1.6064453v0.0126953c0,1.0126953-0.7314453,1.6132812-1.4804688,1.6132812
							c-0.5761719,0-0.9472656-0.3125-1.1875-0.6601562v1.5527344h-0.4619141V33.9169121z M153.6806641,35.4764824v-0.0117188
							c0-0.7324219-0.5029297-1.2001953-1.0908203-1.2001953c-0.5761719,0-1.1210938,0.4863281-1.1210938,1.1933594v0.0126953
							c0,0.7197266,0.5449219,1.1992188,1.1210938,1.1992188C153.1894531,36.6698418,153.6806641,36.2255058,153.6806641,35.4764824
							z"/>
						<path class="st0" d="M154.6308594,36.118084v-0.0117188c0-0.6542969,0.5390625-1.0019531,1.3251953-1.0019531
							c0.3955078,0,0.6777344,0.0537109,0.953125,0.1318359v-0.1074219c0-0.5576172-0.3417969-0.8457031-0.9238281-0.8457031
							c-0.3652344,0-0.6533203,0.0957031-0.9414062,0.2275391l-0.1376953-0.3779297
							c0.3417969-0.1552734,0.6777344-0.2578125,1.1279297-0.2578125c0.4375,0,0.7734375,0.1142578,1.0009766,0.3417969
							c0.2099609,0.2099609,0.3173828,0.5097656,0.3173828,0.90625v1.8945312h-0.4433594v-0.4677734
							c-0.2158203,0.2822266-0.5751953,0.5341797-1.1210938,0.5341797
							C155.2119141,37.0839043,154.6308594,36.7538261,154.6308594,36.118084z M156.9150391,35.8778496v-0.2998047
							c-0.2275391-0.0654297-0.5332031-0.1318359-0.9111328-0.1318359c-0.5820312,0-0.9052734,0.2519531-0.9052734,0.6416016
							v0.0117188c0,0.390625,0.359375,0.6181641,0.7792969,0.6181641
							C156.4472656,36.7176933,156.9150391,36.3700371,156.9150391,35.8778496z"/>
						<path class="st0" d="M158.3203125,36.196209v-1.8710938h-0.4316406v-0.4082031h0.4316406v-0.9355469h0.4619141v0.9355469
							h0.9833984v0.4082031h-0.9833984v1.8105469c0,0.3779297,0.2099609,0.515625,0.5214844,0.515625
							c0.15625,0,0.2880859-0.0292969,0.4501953-0.1074219v0.3955078c-0.1621094,0.0839844-0.3359375,0.1318359-0.5585938,0.1318359
							C158.6982422,37.071209,158.3203125,36.8260918,158.3203125,36.196209z"/>
						<path class="st0" d="M160.4492188,32.7294121h0.5283203v0.5097656h-0.5283203V32.7294121z M160.4794922,33.9169121h0.4619141
							v3.1005859h-0.4619141V33.9169121z"/>
						<path class="st0" d="M162.0341797,36.196209v-1.8710938h-0.4316406v-0.4082031h0.4316406v-0.9355469h0.4619141v0.9355469
							h0.9833984v0.4082031h-0.9833984v1.8105469c0,0.3779297,0.2099609,0.515625,0.5214844,0.515625
							c0.15625,0,0.2880859-0.0292969,0.4492188-0.1074219v0.3955078c-0.1611328,0.0839844-0.3349609,0.1318359-0.5576172,0.1318359
							C162.4121094,37.071209,162.0341797,36.8260918,162.0341797,36.196209z"/>
						<path class="st0" d="M164.1630859,32.7294121h0.5283203v0.5097656h-0.5283203V32.7294121z M164.1933594,33.9169121h0.4619141
							v3.1005859h-0.4619141V33.9169121z"/>
						<path class="st0" d="M165.328125,36.6219902l0.234375-0.3300781c0.3349609,0.2519531,0.7070312,0.3955078,1.0732422,0.3955078
							c0.3710938,0,0.6416016-0.1914062,0.6416016-0.4912109v-0.0126953c0-0.3115234-0.3662109-0.4316406-0.7734375-0.5449219
							c-0.4863281-0.1386719-1.0253906-0.3066406-1.0253906-0.8759766v-0.0117188
							c0-0.5341797,0.4433594-0.8876953,1.0546875-0.8876953c0.3779297,0,0.7978516,0.1318359,1.1152344,0.3417969
							l-0.2089844,0.3476562c-0.2880859-0.1855469-0.6181641-0.2998047-0.9179688-0.2998047
							c-0.3662109,0-0.5996094,0.1923828-0.5996094,0.4501953v0.0117188c0,0.2939453,0.3837891,0.4082031,0.7978516,0.5341797
							c0.4794922,0.1435547,0.9951172,0.3291016,0.9951172,0.8867188v0.0126953
							c0,0.5869141-0.4853516,0.9287109-1.1035156,0.9287109C166.1679688,37.0770683,165.6757812,36.9032402,165.328125,36.6219902z
							"/>
						<path class="st0" d="M169.9785156,34.930584v-0.0117188c0-1.1875,0.8867188-2.1708984,2.1220703-2.1708984
							c0.7617188,0,1.2177734,0.2695312,1.6376953,0.6650391l-0.3242188,0.3486328
							c-0.3535156-0.3359375-0.7490234-0.5761719-1.3193359-0.5761719c-0.9296875,0-1.625,0.7558594-1.625,1.7207031v0.0126953
							c0,0.9716797,0.7021484,1.7324219,1.625,1.7324219c0.5761719,0,0.9541016-0.2216797,1.3554688-0.6054688l0.3115234,0.3056641
							c-0.4375,0.4443359-0.9169922,0.7382812-1.6787109,0.7382812
							C170.8720703,37.0897636,169.9785156,36.1356621,169.9785156,34.930584z"/>
						<path class="st0" d="M175.7441406,33.9169121h0.5097656l1.0429688,2.5732422l1.0498047-2.5732422h0.4980469l-1.3496094,3.125
							h-0.4082031L175.7441406,33.9169121z"/>
						<path class="st0" d="M179.4394531,32.7294121h0.5283203v0.5097656h-0.5283203V32.7294121z M179.4697266,33.9169121h0.4619141
							v3.1005859h-0.4619141V33.9169121z"/>
						<path class="st0" d="M180.8613281,33.9169121h0.4619141v0.8095703c0.2275391-0.515625,0.6777344-0.8876953,1.265625-0.8632812
							v0.4980469h-0.0361328c-0.6777344,0-1.2294922,0.4853516-1.2294922,1.4208984v1.2353516h-0.4619141V33.9169121z"/>
						<path class="st0" d="M183.0996094,35.8417168v-1.9248047h0.4619141v1.8115234
							c0,0.5751953,0.3115234,0.9355469,0.8574219,0.9355469c0.5273438,0,0.9296875-0.3896484,0.9296875-0.9716797v-1.7753906
							h0.4550781v3.1005859h-0.4550781V36.477459c-0.2099609,0.3359375-0.5283203,0.6064453-1.0615234,0.6064453
							C183.5371094,37.0839043,183.0996094,36.579998,183.0996094,35.8417168z"/>
						<path class="st0" d="M186.4355469,36.6219902l0.234375-0.3300781
							c0.3349609,0.2519531,0.7070312,0.3955078,1.0732422,0.3955078c0.3710938,0,0.6416016-0.1914062,0.6416016-0.4912109
							v-0.0126953c0-0.3115234-0.3662109-0.4316406-0.7734375-0.5449219
							c-0.4863281-0.1386719-1.0253906-0.3066406-1.0253906-0.8759766v-0.0117188
							c0-0.5341797,0.4433594-0.8876953,1.0546875-0.8876953c0.3779297,0,0.7978516,0.1318359,1.1152344,0.3417969
							l-0.2089844,0.3476562c-0.2880859-0.1855469-0.6181641-0.2998047-0.9179688-0.2998047
							c-0.3662109,0-0.5996094,0.1923828-0.5996094,0.4501953v0.0117188c0,0.2939453,0.3837891,0.4082031,0.7978516,0.5341797
							c0.4794922,0.1435547,0.9951172,0.3291016,0.9951172,0.8867188v0.0126953
							c0,0.5869141-0.4853516,0.9287109-1.1035156,0.9287109C187.2753906,37.0770683,186.7832031,36.9032402,186.4355469,36.6219902
							z"/>
						<path class="st0" d="M191.0859375,35.2967949c0-1.1035156,0.5927734-1.9667969,1.6611328-2.5673828l0.1972656,0.3066406
							c-0.9111328,0.5810547-1.390625,1.3007812-1.390625,2.2607422c0,0.9589844,0.4794922,1.6787109,1.390625,2.2607422
							l-0.1972656,0.3056641C191.6787109,37.2635918,191.0859375,36.4003105,191.0859375,35.2967949z"/>
						<path class="st0" d="M193.7314453,32.8202324h0.4736328v1.8642578h2.4228516v-1.8642578h0.4736328v4.1972656h-0.4736328
							v-1.8886719h-2.4228516v1.8886719h-0.4736328V32.8202324z"/>
						<path class="st0" d="M197.9619141,34.930584v-0.0117188c0-1.1875,0.8867188-2.1708984,2.1220703-2.1708984
							c0.7617188,0,1.2177734,0.2695312,1.6376953,0.6650391l-0.3242188,0.3486328
							c-0.3535156-0.3359375-0.7490234-0.5761719-1.3193359-0.5761719c-0.9296875,0-1.625,0.7558594-1.625,1.7207031v0.0126953
							c0,0.9716797,0.7021484,1.7324219,1.625,1.7324219c0.5761719,0,0.9541016-0.2216797,1.3554688-0.6054688l0.3115234,0.3056641
							c-0.4375,0.4443359-0.9169922,0.7382812-1.6787109,0.7382812
							C198.8554688,37.0897636,197.9619141,36.1356621,197.9619141,34.930584z"/>
						<path class="st0" d="M202.0644531,32.8202324h0.5283203l1.4931641,3.6152344l1.4990234-3.6152344h0.5097656
							l-1.8046875,4.2275391h-0.4199219L202.0644531,32.8202324z"/>
						<path class="st0" d="M206.5175781,37.5575371c0.9111328-0.5820312,1.390625-1.3017578,1.390625-2.2607422
							c0-0.9599609-0.4794922-1.6796875-1.390625-2.2607422l0.1982422-0.3066406
							c1.0673828,0.6005859,1.6601562,1.4638672,1.6601562,2.5673828s-0.5927734,1.9667969-1.6601562,2.5664062
							L206.5175781,37.5575371z"/>
						<path class="st0" d="M210.8242188,32.7294121h0.5283203v0.5097656h-0.5283203V32.7294121z M210.8544922,33.9169121h0.4619141
							v3.1005859h-0.4619141V33.9169121z"/>
						<path class="st0" d="M212.2470703,33.9169121h0.4619141v0.5400391
							c0.2041016-0.3359375,0.5273438-0.6054688,1.0615234-0.6054688c0.7490234,0,1.1875,0.5039062,1.1875,1.2412109v1.9248047
							h-0.4619141v-1.8105469c0-0.5761719-0.3115234-0.9355469-0.8574219-0.9355469
							c-0.5341797,0-0.9296875,0.3896484-0.9296875,0.9707031v1.7753906h-0.4619141V33.9169121z"/>
						<path class="st0" d="M215.9667969,34.3251152h-0.4257812v-0.4023438h0.4257812v-0.2695312
							c0-0.3535156,0.0957031-0.6240234,0.2695312-0.7978516c0.15625-0.1552734,0.3847656-0.2392578,0.6660156-0.2392578
							c0.2158203,0,0.3603516,0.0234375,0.5097656,0.078125v0.4013672c-0.1679688-0.0478516-0.2939453-0.078125-0.4492188-0.078125
							c-0.3603516,0-0.5400391,0.2158203-0.5400391,0.6601562v0.2519531h0.9833984v0.3955078h-0.9775391v2.6923828h-0.4619141
							V34.3251152z"/>
						<path class="st0" d="M217.5996094,35.4764824v-0.0117188c0-0.8935547,0.6289062-1.6132812,1.4863281-1.6132812
							c0.9179688,0,1.4453125,0.7314453,1.4453125,1.6367188c0,0.0605469,0,0.0957031-0.0058594,0.1503906h-2.4580078
							c0.0654297,0.6708984,0.5390625,1.0488281,1.0908203,1.0488281c0.4257812,0,0.7255859-0.1738281,0.9775391-0.4375
							l0.2880859,0.2578125c-0.3115234,0.3476562-0.6894531,0.5820312-1.2773438,0.5820312
							C218.2949219,37.0897636,217.5996094,36.4354668,217.5996094,35.4764824z M220.0634766,35.2967949
							c-0.0478516-0.5644531-0.3710938-1.0556641-0.9892578-1.0556641c-0.5390625,0-0.9472656,0.4492188-1.0068359,1.0556641
							H220.0634766z"/>
						<path class="st0" d="M221.0009766,35.4823418V35.470623c0-0.8759766,0.6835938-1.6191406,1.5888672-1.6191406
							c0.5878906,0,0.953125,0.2460938,1.2412109,0.5517578l-0.3056641,0.3232422
							c-0.2460938-0.2578125-0.5214844-0.4677734-0.9414062-0.4677734c-0.6298828,0-1.109375,0.5341797-1.109375,1.1992188
							v0.0126953c0,0.6708984,0.4912109,1.2050781,1.1386719,1.2050781c0.3964844,0,0.7021484-0.1982422,0.9482422-0.4619141
							l0.2939453,0.2763672c-0.3125,0.3476562-0.6835938,0.5996094-1.265625,0.5996094
							C221.6845703,37.0897636,221.0009766,36.3514824,221.0009766,35.4823418z"/>
						<path class="st0" d="M224.6308594,36.196209v-1.8710938h-0.4316406v-0.4082031h0.4316406v-0.9355469h0.4619141v0.9355469
							h0.9833984v0.4082031h-0.9833984v1.8105469c0,0.3779297,0.2099609,0.515625,0.5214844,0.515625
							c0.15625,0,0.2880859-0.0292969,0.4501953-0.1074219v0.3955078c-0.1621094,0.0839844-0.3359375,0.1318359-0.5585938,0.1318359
							C225.0087891,37.071209,224.6308594,36.8260918,224.6308594,36.196209z"/>
						<path class="st0" d="M226.7597656,32.7294121h0.5283203v0.5097656h-0.5283203V32.7294121z M226.7900391,33.9169121h0.4619141
							v3.1005859h-0.4619141V33.9169121z"/>
						<path class="st0" d="M227.9912109,35.4823418V35.470623c0-0.8759766,0.6835938-1.6191406,1.6191406-1.6191406
							c0.9287109,0,1.6123047,0.7314453,1.6123047,1.6064453v0.0126953c0,0.875-0.6894531,1.6191406-1.625,1.6191406
							C228.6679688,37.0897636,227.9912109,36.3583183,227.9912109,35.4823418z M230.7490234,35.4823418V35.470623
							c0-0.6660156-0.4970703-1.2119141-1.1513672-1.2119141c-0.6708984,0-1.1328125,0.5458984-1.1328125,1.1992188v0.0126953
							c0,0.6650391,0.4912109,1.2050781,1.1455078,1.2050781C230.28125,36.6757011,230.7490234,36.1356621,230.7490234,35.4823418z"
							/>
						<path class="st0" d="M231.9082031,33.9169121h0.4619141v0.5400391
							c0.2041016-0.3359375,0.5273438-0.6054688,1.0615234-0.6054688c0.7490234,0,1.1875,0.5039062,1.1875,1.2412109v1.9248047
							h-0.4619141v-1.8105469c0-0.5761719-0.3115234-0.9355469-0.8574219-0.9355469
							c-0.5341797,0-0.9296875,0.3896484-0.9296875,0.9707031v1.7753906h-0.4619141V33.9169121z"/>
					</g>
				</g>
				<g>
					<g>
						<path class="st0" d="M0,38.7294121h0.5283203v0.5097656H0V38.7294121z M0.0302734,39.9169121h0.4619141v3.1005859H0.0302734
							V39.9169121z"/>
						<path class="st0" d="M1.421875,39.9169121h0.4619141v0.5400391c0.2041016-0.3359375,0.5273438-0.6054688,1.0615234-0.6054688
							c0.7490234,0,1.1875,0.5039062,1.1875,1.2412109v1.9248047H3.6708984v-1.8105469
							c0-0.5761719-0.3115234-0.9355469-0.8574219-0.9355469c-0.5341797,0-0.9296875,0.3896484-0.9296875,0.9707031v1.7753906
							H1.421875V39.9169121z"/>
						<path class="st0" d="M6.3964844,42.118084v-0.0117188c0-0.6542969,0.5390625-1.0019531,1.3251953-1.0019531
							c0.3955078,0,0.6777344,0.0537109,0.953125,0.1318359v-0.1074219c0-0.5576172-0.3417969-0.8457031-0.9238281-0.8457031
							c-0.3652344,0-0.6533203,0.0957031-0.9414062,0.2275391L6.671875,40.1327324
							c0.3417969-0.1552734,0.6777344-0.2578125,1.1279297-0.2578125c0.4375,0,0.7734375,0.1142578,1.0009766,0.3417969
							c0.2099609,0.2099609,0.3173828,0.5097656,0.3173828,0.90625v1.8945312H8.6748047v-0.4677734
							c-0.2158203,0.2822266-0.5751953,0.5341797-1.1210938,0.5341797
							C6.9775391,43.0839043,6.3964844,42.7538261,6.3964844,42.118084z M8.6806641,41.8778496v-0.2998047
							C8.453125,41.5126152,8.1474609,41.446209,7.7695312,41.446209c-0.5820312,0-0.9052734,0.2519531-0.9052734,0.6416016
							v0.0117188c0,0.390625,0.359375,0.6181641,0.7792969,0.6181641
							C8.2128906,42.7176933,8.6806641,42.3700371,8.6806641,41.8778496z"/>
						<path class="st0" d="M9.7802734,41.4764824v-0.0117188c0-1.0136719,0.7373047-1.6132812,1.4814453-1.6132812
							c0.5751953,0,0.9472656,0.3115234,1.1865234,0.6591797v-1.8710938h0.4619141v4.3779297h-0.4619141v-0.6240234
							c-0.2509766,0.3720703-0.6171875,0.6904297-1.1865234,0.6904297
							C10.5175781,43.0839043,9.7802734,42.4960136,9.7802734,41.4764824z M12.4667969,41.470623v-0.0126953
							c0-0.7128906-0.5458984-1.1933594-1.1210938-1.1933594c-0.5996094,0-1.0917969,0.4443359-1.0917969,1.1933594v0.0126953
							c0,0.7314453,0.5039062,1.1992188,1.0917969,1.1992188C11.9208984,42.6698418,12.4667969,42.1835136,12.4667969,41.470623z"/>
						<path class="st0" d="M13.7519531,41.8417168v-1.9248047h0.4619141v1.8115234
							c0,0.5751953,0.3115234,0.9355469,0.8574219,0.9355469c0.5273438,0,0.9296875-0.3896484,0.9296875-0.9716797v-1.7753906
							h0.4550781v3.1005859h-0.4550781V42.477459c-0.2099609,0.3359375-0.5283203,0.6064453-1.0615234,0.6064453
							C14.1894531,43.0839043,13.7519531,42.579998,13.7519531,41.8417168z"/>
						<path class="st0" d="M17.3876953,38.6395683h0.4619141v4.3779297h-0.4619141V38.6395683z"/>
						<path class="st0" d="M18.9423828,42.196209v-1.8710938h-0.4316406v-0.4082031h0.4316406v-0.9355469h0.4619141v0.9355469
							h0.9833984v0.4082031h-0.9833984v1.8105469c0,0.3779297,0.2099609,0.515625,0.5214844,0.515625
							c0.15625,0,0.2880859-0.0292969,0.4492188-0.1074219v0.3955078c-0.1611328,0.0839844-0.3349609,0.1318359-0.5576172,0.1318359
							C19.3203125,43.071209,18.9423828,42.8260918,18.9423828,42.196209z"/>
						<path class="st0" d="M20.8017578,42.6219902l0.234375-0.3300781c0.3349609,0.2519531,0.7070312,0.3955078,1.0732422,0.3955078
							c0.3710938,0,0.6416016-0.1914062,0.6416016-0.4912109v-0.0126953c0-0.3115234-0.3662109-0.4316406-0.7734375-0.5449219
							c-0.4863281-0.1386719-1.0253906-0.3066406-1.0253906-0.8759766v-0.0117188
							c0-0.5341797,0.4433594-0.8876953,1.0546875-0.8876953c0.3779297,0,0.7978516,0.1318359,1.1152344,0.3417969
							l-0.2089844,0.3476562c-0.2880859-0.1855469-0.6181641-0.2998047-0.9179688-0.2998047
							c-0.3662109,0-0.5996094,0.1923828-0.5996094,0.4501953v0.0117188c0,0.2939453,0.3837891,0.4082031,0.7978516,0.5341797
							c0.4794922,0.1435547,0.9951172,0.3291016,0.9951172,0.8867188v0.0126953
							c0,0.5869141-0.4853516,0.9287109-1.1035156,0.9287109C21.6416016,43.0770683,21.1494141,42.9032402,20.8017578,42.6219902z"
							/>
						<path class="st0" d="M23.84375,42.3876152h0.5517578v0.6298828H23.84375V42.3876152z"/>
						<path class="st0" d="M26.9580078,38.8202324h3.0166016v0.4375h-2.5429688v1.4990234h2.2724609v0.4316406h-2.2724609v1.8291016
							h-0.4736328V38.8202324z"/>
						<path class="st0" d="M30.390625,41.4823418V41.470623c0-0.8759766,0.6835938-1.6191406,1.6191406-1.6191406
							c0.9287109,0,1.6123047,0.7314453,1.6123047,1.6064453v0.0126953c0,0.875-0.6894531,1.6191406-1.625,1.6191406
							C31.0673828,43.0897636,30.390625,42.3583183,30.390625,41.4823418z M33.1484375,41.4823418V41.470623
							c0-0.6660156-0.4970703-1.2119141-1.1513672-1.2119141c-0.6708984,0-1.1328125,0.5458984-1.1328125,1.1992188v0.0126953
							c0,0.6650391,0.4912109,1.2050781,1.1455078,1.2050781C32.6806641,42.6757011,33.1484375,42.1356621,33.1484375,41.4823418z"
							/>
						<path class="st0" d="M34.3076172,39.9169121h0.4619141v0.8095703c0.2275391-0.515625,0.6777344-0.8876953,1.265625-0.8632812
							v0.4980469h-0.0361328c-0.6777344,0-1.2294922,0.4853516-1.2294922,1.4208984v1.2353516h-0.4619141V39.9169121z"/>
						<path class="st0" d="M38.3271484,38.8202324h3.0341797v0.4316406h-2.5605469v1.4326172h2.2910156v0.4316406h-2.2910156
							v1.4697266h2.5908203v0.4316406h-3.0644531V38.8202324z"/>
						<path class="st0" d="M42.1308594,41.2606621v-2.4404297h0.4736328v2.4101562
							c0,0.9052734,0.4804688,1.4150391,1.2841797,1.4150391c0.7734375,0,1.2646484-0.4677734,1.2646484-1.3847656v-2.4404297
							h0.4736328v2.4042969c0,1.2236328-0.7011719,1.859375-1.7509766,1.859375
							C42.8388672,43.0839043,42.1308594,42.4481621,42.1308594,41.2606621z"/>
						<path class="st0" d="M48.2636719,38.8202324h0.4736328v1.8642578h2.4228516v-1.8642578h0.4736328v4.1972656h-0.4736328
							v-1.8886719h-2.4228516v1.8886719h-0.4736328V38.8202324z"/>
						<path class="st0" d="M52.4101562,41.4764824v-0.0117188c0-0.8935547,0.6289062-1.6132812,1.4863281-1.6132812
							c0.9179688,0,1.4453125,0.7314453,1.4453125,1.6367188c0,0.0605469,0,0.0957031-0.0058594,0.1503906h-2.4580078
							c0.0654297,0.6708984,0.5390625,1.0488281,1.0908203,1.0488281c0.4257812,0,0.7255859-0.1738281,0.9775391-0.4375
							l0.2880859,0.2578125c-0.3115234,0.3476562-0.6894531,0.5820312-1.2773438,0.5820312
							C53.1054688,43.0897636,52.4101562,42.4354668,52.4101562,41.4764824z M54.8740234,41.2967949
							c-0.0478516-0.5644531-0.3710938-1.0556641-0.9892578-1.0556641c-0.5390625,0-0.9472656,0.4492188-1.0068359,1.0556641
							H54.8740234z"/>
						<path class="st0" d="M55.7695312,42.118084v-0.0117188c0-0.6542969,0.5390625-1.0019531,1.3251953-1.0019531
							c0.3955078,0,0.6777344,0.0537109,0.953125,0.1318359v-0.1074219c0-0.5576172-0.3417969-0.8457031-0.9238281-0.8457031
							c-0.3652344,0-0.6533203,0.0957031-0.9414062,0.2275391l-0.1376953-0.3779297
							c0.3417969-0.1552734,0.6777344-0.2578125,1.1279297-0.2578125c0.4375,0,0.7734375,0.1142578,1.0009766,0.3417969
							c0.2099609,0.2099609,0.3173828,0.5097656,0.3173828,0.90625v1.8945312h-0.4433594v-0.4677734
							c-0.2158203,0.2822266-0.5751953,0.5341797-1.1210938,0.5341797
							C56.3505859,43.0839043,55.7695312,42.7538261,55.7695312,42.118084z M58.0537109,41.8778496v-0.2998047
							c-0.2275391-0.0654297-0.5332031-0.1318359-0.9111328-0.1318359c-0.5820312,0-0.9052734,0.2519531-0.9052734,0.6416016
							v0.0117188c0,0.390625,0.359375,0.6181641,0.7792969,0.6181641
							C57.5859375,42.7176933,58.0537109,42.3700371,58.0537109,41.8778496z"/>
						<path class="st0" d="M59.375,38.6395683h0.4619141v4.3779297H59.375V38.6395683z"/>
						<path class="st0" d="M60.9296875,42.196209v-1.8710938h-0.4316406v-0.4082031h0.4316406v-0.9355469h0.4619141v0.9355469
							H62.375v0.4082031h-0.9833984v1.8105469c0,0.3779297,0.2099609,0.515625,0.5214844,0.515625
							c0.15625,0,0.2880859-0.0292969,0.4501953-0.1074219v0.3955078c-0.1621094,0.0839844-0.3359375,0.1318359-0.5585938,0.1318359
							C61.3076172,43.071209,60.9296875,42.8260918,60.9296875,42.196209z"/>
						<path class="st0" d="M63.046875,38.6395683h0.4619141v1.8173828c0.2041016-0.3359375,0.5273438-0.6054688,1.0615234-0.6054688
							c0.7490234,0,1.1875,0.5039062,1.1875,1.2412109v1.9248047h-0.4619141v-1.8105469
							c0-0.5761719-0.3115234-0.9355469-0.8574219-0.9355469c-0.5341797,0-0.9296875,0.3896484-0.9296875,0.9707031v1.7753906
							H63.046875V38.6395683z"/>
						<path class="st0" d="M66.4013672,41.4823418V41.470623c0-0.8759766,0.6835938-1.6191406,1.5888672-1.6191406
							c0.5878906,0,0.953125,0.2460938,1.2412109,0.5517578l-0.3056641,0.3232422
							c-0.2460938-0.2578125-0.5214844-0.4677734-0.9414062-0.4677734c-0.6298828,0-1.109375,0.5341797-1.109375,1.1992188
							v0.0126953c0,0.6708984,0.4912109,1.2050781,1.1386719,1.2050781c0.3964844,0,0.7021484-0.1982422,0.9482422-0.4619141
							l0.2939453,0.2763672c-0.3125,0.3476562-0.6835938,0.5996094-1.265625,0.5996094
							C67.0849609,43.0897636,66.4013672,42.3514824,66.4013672,41.4823418z"/>
						<path class="st0" d="M69.6416016,42.118084v-0.0117188c0-0.6542969,0.5390625-1.0019531,1.3251953-1.0019531
							c0.3955078,0,0.6777344,0.0537109,0.953125,0.1318359v-0.1074219c0-0.5576172-0.3417969-0.8457031-0.9238281-0.8457031
							c-0.3652344,0-0.6533203,0.0957031-0.9414062,0.2275391l-0.1376953-0.3779297
							c0.3417969-0.1552734,0.6777344-0.2578125,1.1279297-0.2578125c0.4375,0,0.7734375,0.1142578,1.0009766,0.3417969
							c0.2099609,0.2099609,0.3173828,0.5097656,0.3173828,0.90625v1.8945312h-0.4433594v-0.4677734
							c-0.2158203,0.2822266-0.5751953,0.5341797-1.1210938,0.5341797
							C70.2226562,43.0839043,69.6416016,42.7538261,69.6416016,42.118084z M71.9257812,41.8778496v-0.2998047
							c-0.2275391-0.0654297-0.5332031-0.1318359-0.9111328-0.1318359c-0.5820312,0-0.9052734,0.2519531-0.9052734,0.6416016
							v0.0117188c0,0.390625,0.359375,0.6181641,0.7792969,0.6181641
							C71.4580078,42.7176933,71.9257812,42.3700371,71.9257812,41.8778496z"/>
						<path class="st0" d="M73.1992188,39.9169121h0.4619141v0.8095703c0.2275391-0.515625,0.6777344-0.8876953,1.265625-0.8632812
							v0.4980469H74.890625c-0.6777344,0-1.2294922,0.4853516-1.2294922,1.4208984v1.2353516h-0.4619141V39.9169121z"/>
						<path class="st0" d="M75.1611328,41.4764824v-0.0117188c0-0.8935547,0.6289062-1.6132812,1.4863281-1.6132812
							c0.9179688,0,1.4453125,0.7314453,1.4453125,1.6367188c0,0.0605469,0,0.0957031-0.0058594,0.1503906h-2.4580078
							c0.0654297,0.6708984,0.5390625,1.0488281,1.0908203,1.0488281c0.4257812,0,0.7255859-0.1738281,0.9775391-0.4375
							l0.2880859,0.2578125c-0.3115234,0.3476562-0.6894531,0.5820312-1.2773438,0.5820312
							C75.8564453,43.0897636,75.1611328,42.4354668,75.1611328,41.4764824z M77.625,41.2967949
							c-0.0478516-0.5644531-0.3710938-1.0556641-0.9892578-1.0556641c-0.5390625,0-0.9472656,0.4492188-1.0068359,1.0556641H77.625
							z"/>
						<path class="st0" d="M80.4951172,38.8202324h1.5712891c0.9472656,0,1.5712891,0.5029297,1.5712891,1.3310547v0.0117188
							c0,0.9052734-0.7558594,1.3730469-1.6494141,1.3730469H80.96875v1.4814453h-0.4736328V38.8202324z M82.0058594,41.1044121
							c0.6962891,0,1.1513672-0.3720703,1.1513672-0.9238281v-0.0117188c0-0.5996094-0.4492188-0.9111328-1.1269531-0.9111328
							H80.96875v1.8466797H82.0058594z"/>
						<path class="st0" d="M84.2744141,39.9169121h0.4619141v0.8095703c0.2275391-0.515625,0.6777344-0.8876953,1.265625-0.8632812
							v0.4980469h-0.0361328c-0.6777344,0-1.2294922,0.4853516-1.2294922,1.4208984v1.2353516h-0.4619141V39.9169121z"/>
						<path class="st0" d="M86.2373047,41.4823418V41.470623c0-0.8759766,0.6835938-1.6191406,1.6191406-1.6191406
							c0.9287109,0,1.6123047,0.7314453,1.6123047,1.6064453v0.0126953c0,0.875-0.6894531,1.6191406-1.625,1.6191406
							C86.9140625,43.0897636,86.2373047,42.3583183,86.2373047,41.4823418z M88.9951172,41.4823418V41.470623
							c0-0.6660156-0.4970703-1.2119141-1.1513672-1.2119141c-0.6708984,0-1.1328125,0.5458984-1.1328125,1.1992188v0.0126953
							c0,0.6650391,0.4912109,1.2050781,1.1455078,1.2050781C88.5273438,42.6757011,88.9951172,42.1356621,88.9951172,41.4823418z"
							/>
						<path class="st0" d="M90.3349609,40.3251152h-0.4257812v-0.4023438h0.4257812v-0.2695312
							c0-0.3535156,0.0957031-0.6240234,0.2705078-0.7978516c0.1552734-0.1552734,0.3828125-0.2392578,0.6650391-0.2392578
							c0.2158203,0,0.3603516,0.0234375,0.5097656,0.078125v0.4013672c-0.1679688-0.0478516-0.2939453-0.078125-0.4492188-0.078125
							c-0.3603516,0-0.5400391,0.2158203-0.5400391,0.6601562v0.2519531h0.9833984v0.3955078H90.796875v2.6923828h-0.4619141
							V40.3251152z"/>
						<path class="st0" d="M91.9677734,41.4764824v-0.0117188c0-0.8935547,0.6289062-1.6132812,1.4863281-1.6132812
							c0.9179688,0,1.4453125,0.7314453,1.4453125,1.6367188c0,0.0605469,0,0.0957031-0.0058594,0.1503906h-2.4580078
							c0.0654297,0.6708984,0.5390625,1.0488281,1.0908203,1.0488281c0.4257812,0,0.7255859-0.1738281,0.9775391-0.4375
							l0.2880859,0.2578125c-0.3115234,0.3476562-0.6894531,0.5820312-1.2773438,0.5820312
							C92.6630859,43.0897636,91.9677734,42.4354668,91.9677734,41.4764824z M94.4316406,41.2967949
							c-0.0478516-0.5644531-0.3710938-1.0556641-0.9892578-1.0556641c-0.5390625,0-0.9472656,0.4492188-1.0068359,1.0556641
							H94.4316406z"/>
						<path class="st0" d="M95.3027344,42.6219902l0.234375-0.3300781c0.3349609,0.2519531,0.7070312,0.3955078,1.0732422,0.3955078
							c0.3710938,0,0.6416016-0.1914062,0.6416016-0.4912109v-0.0126953c0-0.3115234-0.3662109-0.4316406-0.7734375-0.5449219
							c-0.4863281-0.1386719-1.0253906-0.3066406-1.0253906-0.8759766v-0.0117188
							c0-0.5341797,0.4433594-0.8876953,1.0546875-0.8876953c0.3779297,0,0.7978516,0.1318359,1.1152344,0.3417969
							l-0.2089844,0.3476562c-0.2880859-0.1855469-0.6181641-0.2998047-0.9179688-0.2998047
							c-0.3662109,0-0.5996094,0.1923828-0.5996094,0.4501953v0.0117188c0,0.2939453,0.3837891,0.4082031,0.7978516,0.5341797
							c0.4794922,0.1435547,0.9951172,0.3291016,0.9951172,0.8867188v0.0126953
							c0,0.5869141-0.4853516,0.9287109-1.1035156,0.9287109C96.1425781,43.0770683,95.6503906,42.9032402,95.3027344,42.6219902z"
							/>
						<path class="st0" d="M98.0869141,42.6219902l0.234375-0.3300781c0.3349609,0.2519531,0.7070312,0.3955078,1.0732422,0.3955078
							c0.3710938,0,0.6416016-0.1914062,0.6416016-0.4912109v-0.0126953c0-0.3115234-0.3662109-0.4316406-0.7734375-0.5449219
							c-0.4863281-0.1386719-1.0253906-0.3066406-1.0253906-0.8759766v-0.0117188
							c0-0.5341797,0.4433594-0.8876953,1.0546875-0.8876953c0.3779297,0,0.7978516,0.1318359,1.1152344,0.3417969
							l-0.2089844,0.3476562c-0.2880859-0.1855469-0.6181641-0.2998047-0.9179688-0.2998047
							c-0.3662109,0-0.5996094,0.1923828-0.5996094,0.4501953v0.0117188c0,0.2939453,0.3837891,0.4082031,0.7978516,0.5341797
							c0.4794922,0.1435547,0.9951172,0.3291016,0.9951172,0.8867188v0.0126953
							c0,0.5869141-0.4853516,0.9287109-1.1035156,0.9287109C98.9267578,43.0770683,98.4345703,42.9032402,98.0869141,42.6219902z"
							/>
						<path class="st0" d="M101.2001953,38.7294121h0.5283203v0.5097656h-0.5283203V38.7294121z M101.2304688,39.9169121h0.4619141
							v3.1005859h-0.4619141V39.9169121z"/>
						<path class="st0" d="M102.4306641,41.4823418V41.470623c0-0.8759766,0.6835938-1.6191406,1.6191406-1.6191406
							c0.9287109,0,1.6123047,0.7314453,1.6123047,1.6064453v0.0126953c0,0.875-0.6894531,1.6191406-1.625,1.6191406
							C103.1074219,43.0897636,102.4306641,42.3583183,102.4306641,41.4823418z M105.1884766,41.4823418V41.470623
							c0-0.6660156-0.4970703-1.2119141-1.1513672-1.2119141c-0.6708984,0-1.1328125,0.5458984-1.1328125,1.1992188v0.0126953
							c0,0.6650391,0.4912109,1.2050781,1.1455078,1.2050781C104.7207031,42.6757011,105.1884766,42.1356621,105.1884766,41.4823418
							z"/>
						<path class="st0" d="M106.3486328,39.9169121h0.4619141v0.5400391
							c0.2041016-0.3359375,0.5273438-0.6054688,1.0615234-0.6054688c0.7490234,0,1.1875,0.5039062,1.1875,1.2412109v1.9248047
							h-0.4619141v-1.8105469c0-0.5761719-0.3115234-0.9355469-0.8574219-0.9355469
							c-0.5341797,0-0.9296875,0.3896484-0.9296875,0.9707031v1.7753906h-0.4619141V39.9169121z"/>
						<path class="st0" d="M109.6611328,42.118084v-0.0117188c0-0.6542969,0.5390625-1.0019531,1.3251953-1.0019531
							c0.3955078,0,0.6777344,0.0537109,0.953125,0.1318359v-0.1074219c0-0.5576172-0.3417969-0.8457031-0.9238281-0.8457031
							c-0.3652344,0-0.6533203,0.0957031-0.9414062,0.2275391l-0.1376953-0.3779297
							c0.3417969-0.1552734,0.6777344-0.2578125,1.1279297-0.2578125c0.4375,0,0.7734375,0.1142578,1.0009766,0.3417969
							c0.2099609,0.2099609,0.3173828,0.5097656,0.3173828,0.90625v1.8945312h-0.4433594v-0.4677734
							c-0.2158203,0.2822266-0.5751953,0.5341797-1.1210938,0.5341797
							C110.2421875,43.0839043,109.6611328,42.7538261,109.6611328,42.118084z M111.9453125,41.8778496v-0.2998047
							c-0.2275391-0.0654297-0.5332031-0.1318359-0.9111328-0.1318359c-0.5820312,0-0.9052734,0.2519531-0.9052734,0.6416016
							v0.0117188c0,0.390625,0.359375,0.6181641,0.7792969,0.6181641
							C111.4775391,42.7176933,111.9453125,42.3700371,111.9453125,41.8778496z"/>
						<path class="st0" d="M113.2666016,38.6395683h0.4619141v4.3779297h-0.4619141V38.6395683z"/>
						<path class="st0" d="M114.4003906,42.6219902l0.234375-0.3300781
							c0.3349609,0.2519531,0.7070312,0.3955078,1.0732422,0.3955078c0.3710938,0,0.6416016-0.1914062,0.6416016-0.4912109
							v-0.0126953c0-0.3115234-0.3662109-0.4316406-0.7734375-0.5449219
							c-0.4863281-0.1386719-1.0253906-0.3066406-1.0253906-0.8759766v-0.0117188
							c0-0.5341797,0.4433594-0.8876953,1.0546875-0.8876953c0.3779297,0,0.7978516,0.1318359,1.1152344,0.3417969
							l-0.2089844,0.3476562c-0.2880859-0.1855469-0.6181641-0.2998047-0.9179688-0.2998047
							c-0.3662109,0-0.5996094,0.1923828-0.5996094,0.4501953v0.0117188c0,0.2939453,0.3837891,0.4082031,0.7978516,0.5341797
							c0.4794922,0.1435547,0.9951172,0.3291016,0.9951172,0.8867188v0.0126953
							c0,0.5869141-0.4853516,0.9287109-1.1035156,0.9287109C115.2402344,43.0770683,114.7480469,42.9032402,114.4003906,42.6219902
							z"/>
						<path class="st0" d="M118.9667969,41.4823418V41.470623c0-0.8759766,0.6835938-1.6191406,1.6191406-1.6191406
							c0.9287109,0,1.6123047,0.7314453,1.6123047,1.6064453v0.0126953c0,0.875-0.6894531,1.6191406-1.625,1.6191406
							C119.6435547,43.0897636,118.9667969,42.3583183,118.9667969,41.4823418z M121.7246094,41.4823418V41.470623
							c0-0.6660156-0.4970703-1.2119141-1.1513672-1.2119141c-0.6708984,0-1.1328125,0.5458984-1.1328125,1.1992188v0.0126953
							c0,0.6650391,0.4912109,1.2050781,1.1455078,1.2050781C121.2568359,42.6757011,121.7246094,42.1356621,121.7246094,41.4823418
							z"/>
						<path class="st0" d="M122.890625,39.9169121h0.4619141v0.5400391
							c0.2041016-0.3359375,0.5273438-0.6054688,1.0615234-0.6054688c0.7490234,0,1.1875,0.5039062,1.1875,1.2412109v1.9248047
							h-0.4619141v-1.8105469c0-0.5761719-0.3115234-0.9355469-0.8574219-0.9355469
							c-0.5341797,0-0.9296875,0.3896484-0.9296875,0.9707031v1.7753906h-0.4619141V39.9169121z"/>
						<path class="st0" d="M126.484375,38.6395683h0.4619141v4.3779297h-0.4619141V38.6395683z"/>
						<path class="st0" d="M130.1972656,39.9169121h0.4912109l-1.3007812,3.2021484
							c-0.2646484,0.6416016-0.5644531,0.8759766-1.0322266,0.8759766c-0.2578125,0-0.4492188-0.0537109-0.6591797-0.15625
							l0.15625-0.3652344c0.1494141,0.078125,0.2871094,0.1132812,0.4853516,0.1132812
							c0.2753906,0,0.4492188-0.1435547,0.6357422-0.5810547l-1.4091797-3.0888672h0.5097656l1.1269531,2.5849609
							L130.1972656,39.9169121z"/>
						<path class="st0" d="M130.7080078,42.3876152h0.5517578v0.6298828h-0.5517578V42.3876152z"/>
						<path class="st0" d="M133.8222656,38.8202324h0.4794922l1.5292969,2.2900391l1.5292969-2.2900391h0.4794922v4.1972656
							h-0.4736328v-3.4003906l-1.5292969,2.2490234h-0.0234375l-1.5292969-2.2431641v3.3945312h-0.4619141V38.8202324z"/>
						<path class="st0" d="M138.5742188,42.118084v-0.0117188c0-0.6542969,0.5390625-1.0019531,1.3251953-1.0019531
							c0.3955078,0,0.6777344,0.0537109,0.953125,0.1318359v-0.1074219c0-0.5576172-0.3417969-0.8457031-0.9238281-0.8457031
							c-0.3652344,0-0.6533203,0.0957031-0.9414062,0.2275391l-0.1376953-0.3779297
							c0.3417969-0.1552734,0.6777344-0.2578125,1.1279297-0.2578125c0.4375,0,0.7734375,0.1142578,1.0009766,0.3417969
							c0.2099609,0.2099609,0.3173828,0.5097656,0.3173828,0.90625v1.8945312h-0.4433594v-0.4677734
							c-0.2158203,0.2822266-0.5751953,0.5341797-1.1210938,0.5341797
							C139.1552734,43.0839043,138.5742188,42.7538261,138.5742188,42.118084z M140.8583984,41.8778496v-0.2998047
							c-0.2275391-0.0654297-0.5332031-0.1318359-0.9111328-0.1318359c-0.5820312,0-0.9052734,0.2519531-0.9052734,0.6416016
							v0.0117188c0,0.390625,0.359375,0.6181641,0.7792969,0.6181641
							C140.390625,42.7176933,140.8583984,42.3700371,140.8583984,41.8778496z"/>
						<path class="st0" d="M144.3330078,39.9169121h0.4912109l-1.3007812,3.2021484
							c-0.2646484,0.6416016-0.5644531,0.8759766-1.0322266,0.8759766c-0.2578125,0-0.4492188-0.0537109-0.6591797-0.15625
							l0.15625-0.3652344c0.1494141,0.078125,0.2871094,0.1132812,0.4853516,0.1132812
							c0.2753906,0,0.4492188-0.1435547,0.6357422-0.5810547l-1.4091797-3.0888672h0.5097656l1.1269531,2.5849609
							L144.3330078,39.9169121z"/>
						<path class="st0" d="M146.8417969,42.6512871l1.5224609-1.3427734
							c0.6425781-0.5761719,0.8759766-0.8994141,0.8759766-1.3193359c0-0.4921875-0.3896484-0.8037109-0.8457031-0.8037109
							c-0.4794922,0-0.7910156,0.2519531-1.1269531,0.7197266l-0.3476562-0.2519531
							c0.3769531-0.5634766,0.7734375-0.8935547,1.5107422-0.8935547c0.7558594,0,1.3017578,0.5039062,1.3017578,1.1875v0.0117188
							c0,0.6123047-0.3242188,0.9892578-1.0615234,1.6318359l-1.1220703,0.9951172h2.2255859v0.4316406h-2.9326172V42.6512871z"/>
						<path class="st0" d="M150.3759766,40.930584v-0.0117188c0-1.1757812,0.7011719-2.1708984,1.7802734-2.1708984
							c1.0800781,0,1.7636719,0.9833984,1.7636719,2.1582031v0.0126953c0,1.1748047-0.6953125,2.1708984-1.7753906,2.1708984
							C151.0595703,43.0897636,150.3759766,42.1063652,150.3759766,40.930584z M153.4277344,40.930584v-0.0117188
							c0-0.9179688-0.5039062-1.7392578-1.2832031-1.7392578c-0.7851562,0-1.2773438,0.8037109-1.2773438,1.7265625v0.0126953
							c0,0.9169922,0.5039062,1.7392578,1.2890625,1.7392578C152.9423828,42.658123,153.4277344,41.8485527,153.4277344,40.930584z"
							/>
						<path class="st0" d="M154.3779297,42.6512871l1.5224609-1.3427734
							c0.6425781-0.5761719,0.8759766-0.8994141,0.8759766-1.3193359c0-0.4921875-0.3896484-0.8037109-0.8457031-0.8037109
							c-0.4794922,0-0.7910156,0.2519531-1.1269531,0.7197266l-0.3476562-0.2519531
							c0.3769531-0.5634766,0.7734375-0.8935547,1.5107422-0.8935547c0.7558594,0,1.3017578,0.5039062,1.3017578,1.1875v0.0117188
							c0,0.6123047-0.3242188,0.9892578-1.0615234,1.6318359l-1.1220703,0.9951172h2.2255859v0.4316406h-2.9326172V42.6512871z"/>
						<path class="st0" d="M157.828125,42.6512871l1.5224609-1.3427734
							c0.6425781-0.5761719,0.8759766-0.8994141,0.8759766-1.3193359c0-0.4921875-0.3896484-0.8037109-0.8457031-0.8037109
							c-0.4794922,0-0.7910156,0.2519531-1.1269531,0.7197266l-0.3476562-0.2519531
							c0.3769531-0.5634766,0.7734375-0.8935547,1.5107422-0.8935547c0.7558594,0,1.3017578,0.5039062,1.3017578,1.1875v0.0117188
							c0,0.6123047-0.3242188,0.9892578-1.0615234,1.6318359l-1.1220703,0.9951172h2.2255859v0.4316406h-2.9326172V42.6512871z"/>
						<path class="st0" d="M163.2753906,38.8202324h0.4736328v4.1972656h-0.4736328V38.8202324z"/>
						<path class="st0" d="M164.8359375,38.8202324h0.4736328v1.8642578h2.4228516v-1.8642578h0.4736328v4.1972656h-0.4736328
							v-1.8886719h-2.4228516v1.8886719h-0.4736328V38.8202324z"/>
						<path class="st0" d="M173.0712891,43.1434746l-0.5576172-0.4980469
							c-0.3544922,0.2763672-0.8037109,0.4443359-1.3193359,0.4443359c-1.2773438,0-2.1347656-1.0019531-2.1347656-2.1591797
							v-0.0117188c0-1.1572266,0.8691406-2.1708984,2.1464844-2.1708984s2.1347656,1.0009766,2.1347656,2.1582031v0.0126953
							c0,0.5214844-0.1855469,1.0195312-0.4980469,1.4033203l0.5517578,0.4677734L173.0712891,43.1434746z M172.1777344,42.3397636
							l-0.7861328-0.671875l0.3183594-0.3535156l0.7851562,0.7138672c0.2275391-0.2998047,0.3535156-0.6777344,0.3535156-1.0976562
							v-0.0117188c0-0.9541016-0.6953125-1.7333984-1.6542969-1.7333984c-0.9599609,0-1.6435547,0.7675781-1.6435547,1.7207031
							v0.0126953c0,0.953125,0.6953125,1.7324219,1.6552734,1.7324219
							C171.578125,42.6512871,171.9140625,42.5380058,172.1777344,42.3397636z"/>
						<path class="st0" d="M173.9970703,40.9725761h1.6669922v0.4853516h-1.6669922V40.9725761z"/>
						<path class="st0" d="M176.5058594,38.8202324h3.0341797v0.4316406h-2.5605469v1.4326172h2.2910156v0.4316406h-2.2910156
							v1.4697266h2.5908203v0.4316406h-3.0644531V38.8202324z"/>
						<path class="st0" d="M180.3818359,38.8202324h1.5712891c0.9472656,0,1.5712891,0.5029297,1.5712891,1.3310547v0.0117188
							c0,0.9052734-0.7558594,1.3730469-1.6494141,1.3730469h-1.0195312v1.4814453h-0.4736328V38.8202324z M181.8925781,41.1044121
							c0.6962891,0,1.1513672-0.3720703,1.1513672-0.9238281v-0.0117188c0-0.5996094-0.4492188-0.9111328-1.1269531-0.9111328
							h-1.0615234v1.8466797H181.8925781z"/>
						<path class="st0" d="M184.0595703,40.930584v-0.0117188c0-1.1875,0.8867188-2.1708984,2.1220703-2.1708984
							c0.7617188,0,1.2177734,0.2695312,1.6376953,0.6650391l-0.3242188,0.3486328
							c-0.3535156-0.3359375-0.7490234-0.5761719-1.3193359-0.5761719c-0.9296875,0-1.625,0.7558594-1.625,1.7207031v0.0126953
							c0,0.9716797,0.7021484,1.7324219,1.625,1.7324219c0.5761719,0,0.9541016-0.2216797,1.3554688-0.6054688l0.3115234,0.3056641
							c-0.4375,0.4443359-0.9169922,0.7382812-1.6787109,0.7382812
							C184.953125,43.0897636,184.0595703,42.1356621,184.0595703,40.930584z"/>
						<path class="st0" d="M188.2890625,40.9725761h1.6669922v0.4853516h-1.6669922V40.9725761z"/>
						<path class="st0" d="M190.5751953,40.930584v-0.0117188c0-1.1757812,0.7011719-2.1708984,1.7802734-2.1708984
							c1.0800781,0,1.7636719,0.9833984,1.7636719,2.1582031v0.0126953c0,1.1748047-0.6953125,2.1708984-1.7753906,2.1708984
							C191.2587891,43.0897636,190.5751953,42.1063652,190.5751953,40.930584z M193.6269531,40.930584v-0.0117188
							c0-0.9179688-0.5039062-1.7392578-1.2832031-1.7392578c-0.7851562,0-1.2773438,0.8037109-1.2773438,1.7265625v0.0126953
							c0,0.9169922,0.5039062,1.7392578,1.2890625,1.7392578C193.1416016,42.658123,193.6269531,41.8485527,193.6269531,40.930584z"
							/>
						<path class="st0" d="M194.7158203,40.930584v-0.0117188c0-1.1757812,0.7011719-2.1708984,1.7802734-2.1708984
							c1.0800781,0,1.7636719,0.9833984,1.7636719,2.1582031v0.0126953c0,1.1748047-0.6953125,2.1708984-1.7753906,2.1708984
							C195.3994141,43.0897636,194.7158203,42.1063652,194.7158203,40.930584z M197.7675781,40.930584v-0.0117188
							c0-0.9179688-0.5039062-1.7392578-1.2832031-1.7392578c-0.7851562,0-1.2773438,0.8037109-1.2773438,1.7265625v0.0126953
							c0,0.9169922,0.5039062,1.7392578,1.2890625,1.7392578C197.2822266,42.658123,197.7675781,41.8485527,197.7675781,40.930584z"
							/>
						<path class="st0" d="M198.8066406,42.423748l0.3125-0.3417969c0.3652344,0.3535156,0.7675781,0.5761719,1.1933594,0.5761719
							c0.5996094,0,1.0136719-0.3964844,1.0136719-0.9296875v-0.0126953c0-0.5214844-0.4326172-0.8808594-1.0439453-0.8808594
							c-0.3535156,0-0.6357422,0.1074219-0.8818359,0.2392578l-0.3173828-0.2089844l0.1201172-2.0449219h2.4160156v0.4375
							h-2.0029297l-0.0898438,1.3427734c0.2460938-0.1074219,0.4804688-0.1855469,0.828125-0.1855469
							c0.8154297,0,1.4511719,0.4853516,1.4511719,1.2832031v0.0117188c0,0.8222656-0.6240234,1.3798828-1.4990234,1.3798828
							C199.7070312,43.0897636,199.1845703,42.8016777,198.8066406,42.423748z"/>
						<path class="st0" d="M202.2392578,42.6512871l1.5224609-1.3427734
							c0.6425781-0.5761719,0.8759766-0.8994141,0.8759766-1.3193359c0-0.4921875-0.3896484-0.8037109-0.8457031-0.8037109
							c-0.4794922,0-0.7910156,0.2519531-1.1269531,0.7197266l-0.3476562-0.2519531
							c0.3769531-0.5634766,0.7734375-0.8935547,1.5107422-0.8935547c0.7558594,0,1.3017578,0.5039062,1.3017578,1.1875v0.0117188
							c0,0.6123047-0.3242188,0.9892578-1.0615234,1.6318359l-1.1220703,0.9951172h2.2255859v0.4316406h-2.9326172V42.6512871z"/>
					</g>
				</g>
			</g>
		</g>
		<g>
			<g>
				<path class="st0" d="M53.3154297,6.0214043h0.859375l1.9990234,5.8271484l1.9189453-5.8476562h0.6494141l1.9189453,5.8476562
					l1.9990234-5.8271484h0.8291016l-2.4980469,7.0458984h-0.6699219l-1.9189453-5.6767578l-1.9287109,5.6767578h-0.6601562
					L53.3154297,6.0214043z"/>
				<path class="st0" d="M64.9951172,6.0214043h0.7890625v6.9960938h-0.7890625V6.0214043z"/>
				<path class="st0" d="M67.8339844,6.0214043h0.7900391v6.2666016h3.9375v0.7294922h-4.7275391V6.0214043z"/>
				<path class="st0" d="M73.984375,6.0214043h0.7900391v6.2666016h3.9375v0.7294922H73.984375V6.0214043z"/>
				<path class="st0" d="M83.1337891,6.0214043h0.7900391v3.1083984h4.0371094V6.0214043h0.7900391v6.9960938h-0.7900391V9.8690605
					h-4.0371094v3.1484375h-0.7900391V6.0214043z"/>
				<path class="st0" d="M90.734375,6.0214043h5.0576172v0.7197266h-4.2675781v2.3886719h3.8173828v0.7197266h-3.8173828v2.4482422
					h4.3173828v0.7197266H90.734375V6.0214043z"/>
				<path class="st0" d="M100.4335938,6.0214043h2.9785156c0.7998047,0,1.4296875,0.2294922,1.8291016,0.6191406
					c0.2900391,0.3007812,0.4492188,0.6699219,0.4492188,1.1201172v0.0195312c0,0.9101562-0.5595703,1.3798828-1.109375,1.6191406
					c0.8300781,0.25,1.5,0.7294922,1.5,1.6894531v0.0195312c0,1.1992188-1.0097656,1.9091797-2.5390625,1.9091797h-3.1083984
					V6.0214043z M104.8916016,7.8700371c0-0.6894531-0.5498047-1.1386719-1.5498047-1.1386719h-2.1289062v2.4082031h2.0693359
					c0.9492188,0,1.609375-0.4296875,1.609375-1.2490234V7.8700371z M103.421875,9.8387871h-2.2089844v2.46875H103.5625
					c1.0585938,0,1.71875-0.4697266,1.71875-1.2490234v-0.0195312C105.28125,10.2792168,104.6416016,9.8387871,103.421875,9.8387871
					z"/>
				<path class="st0" d="M107.6533203,6.0214043h5.0576172v0.7197266h-4.2675781v2.3886719h3.8173828v0.7197266h-3.8173828
					v2.4482422h4.3173828v0.7197266h-5.1074219V6.0214043z"/>
				<path class="st0" d="M117.3535156,6.0214043h2.9785156c0.7998047,0,1.4296875,0.2294922,1.8291016,0.6191406
					c0.2900391,0.3007812,0.4492188,0.6699219,0.4492188,1.1201172v0.0195312c0,0.9101562-0.5595703,1.3798828-1.109375,1.6191406
					c0.8300781,0.25,1.5,0.7294922,1.5,1.6894531v0.0195312c0,1.1992188-1.0097656,1.9091797-2.5390625,1.9091797h-3.1083984
					V6.0214043z M121.8115234,7.8700371c0-0.6894531-0.5498047-1.1386719-1.5498047-1.1386719h-2.1289062v2.4082031h2.0693359
					c0.9492188,0,1.609375-0.4296875,1.609375-1.2490234V7.8700371z M120.3417969,9.8387871h-2.2089844v2.46875h2.3496094
					c1.0585938,0,1.71875-0.4697266,1.71875-1.2490234v-0.0195312
					C122.2011719,10.2792168,121.5615234,9.8387871,120.3417969,9.8387871z"/>
				<path class="st0" d="M127.0517578,5.9715996h0.7392578l3.1884766,7.0458984h-0.8496094l-0.8193359-1.8486328h-3.8076172
					l-0.8300781,1.8486328h-0.8095703L127.0517578,5.9715996z M129.0009766,10.4589043l-1.5898438-3.5683594L125.8125,10.4589043
					H129.0009766z"/>
				<path class="st0" d="M131.6435547,9.5389824V9.5194511c0-1.9785156,1.4794922-3.6181641,3.5380859-3.6181641
					c1.2695312,0,2.0283203,0.4501953,2.7285156,1.109375l-0.5400391,0.5800781
					c-0.5898438-0.5595703-1.2490234-0.9599609-2.1982422-0.9599609c-1.5498047,0-2.7089844,1.2597656-2.7089844,2.8691406
					v0.0195312c0,1.6191406,1.1699219,2.8886719,2.7089844,2.8886719c0.9589844,0,1.5888672-0.3701172,2.2587891-1.0097656
					l0.5195312,0.5097656c-0.7294922,0.7392578-1.5292969,1.2294922-2.7988281,1.2294922
					C133.1328125,13.1376152,131.6435547,11.548748,131.6435547,9.5389824z"/>
				<path class="st0" d="M139.3730469,6.0214043h0.7900391v4.1777344l4.0175781-4.1777344h1.0292969l-3.0078125,3.0585938
					l3.1279297,3.9375h-0.9892578l-2.6884766-3.3876953l-1.4892578,1.5087891v1.8789062h-0.7900391V6.0214043z"/>
				<path class="st0" d="M149.5625,6.0214043h5.0273438v0.7294922h-4.2373047v2.4990234h3.7880859v0.7197266h-3.7880859v3.0478516
					H149.5625V6.0214043z"/>
				<path class="st0" d="M155.6728516,9.5389824V9.5194511c0-1.9287109,1.4492188-3.6181641,3.578125-3.6181641
					s3.5576172,1.6689453,3.5576172,3.5986328v0.0195312c0,1.9287109-1.4492188,3.6181641-3.578125,3.6181641
					S155.6728516,11.4686699,155.6728516,9.5389824z M161.9892578,9.5389824V9.5194511
					c0-1.5888672-1.1591797-2.8886719-2.7587891-2.8886719c-1.5986328,0-2.7382812,1.2792969-2.7382812,2.8691406v0.0195312
					c0,1.5888672,1.1591797,2.8886719,2.7587891,2.8886719C160.8496094,12.408123,161.9892578,11.1288261,161.9892578,9.5389824z"/>
				<path class="st0" d="M164.4824219,6.0214043h3.0087891c0.859375,0,1.5488281,0.2597656,1.9882812,0.6992188
					c0.3398438,0.3398438,0.5400391,0.8300781,0.5400391,1.3798828v0.0195312c0,1.1591797-0.7998047,1.8388672-1.8984375,2.0390625
					l2.1484375,2.8583984h-0.9697266l-2.0283203-2.71875h-1.9990234v2.71875h-0.7900391V6.0214043z M167.4208984,9.5897636
					c1.0498047,0,1.7988281-0.5400391,1.7988281-1.4394531V8.1298027c0-0.859375-0.6591797-1.3789062-1.7890625-1.3789062
					h-2.1582031v2.8388672H167.4208984z"/>
				<path class="st0" d="M174.7128906,6.0214043h0.7900391v3.1083984h4.0371094V6.0214043h0.7900391v6.9960938h-0.7900391V9.8690605
					h-4.0371094v3.1484375h-0.7900391V6.0214043z"/>
				<path class="st0" d="M182.3828125,6.0214043h0.7890625v6.9960938h-0.7890625V6.0214043z"/>
				<path class="st0" d="M184.7626953,11.9979668l0.4902344-0.5800781c0.7294922,0.6601562,1.4287109,0.9902344,2.3984375,0.9902344
					c0.9394531,0,1.5595703-0.5,1.5595703-1.1894531v-0.0205078c0-0.6494141-0.3496094-1.0195312-1.8193359-1.3291016
					c-1.609375-0.3496094-2.3486328-0.8691406-2.3486328-2.0185547V7.829998c0-1.0986328,0.9697266-1.9082031,2.2988281-1.9082031
					c1.0195312,0,1.7490234,0.2890625,2.4589844,0.859375l-0.4599609,0.609375
					c-0.6494141-0.5292969-1.2998047-0.7597656-2.0195312-0.7597656c-0.9091797,0-1.4892578,0.5-1.4892578,1.1298828v0.0195312
					c0,0.6601562,0.3603516,1.0292969,1.8994141,1.359375c1.5595703,0.3398438,2.2783203,0.9091797,2.2783203,1.9785156v0.0205078
					c0,1.1992188-0.9990234,1.9785156-2.3886719,1.9785156C186.5117188,13.1171074,185.6025391,12.7479668,184.7626953,11.9979668z"
					/>
			</g>
		</g>
		<g>
			<g>
				<path class="st0" d="M46.875,16.0214043h5.3271484v1.3994141h-3.7880859v1.4892578h3.3378906v1.3984375h-3.3378906v2.7089844
					H46.875V16.0214043z"/>
				<path class="st0" d="M53.1240234,19.5389824v-0.0195312c0-1.9892578,1.5693359-3.6181641,3.7285156-3.6181641
					c2.1582031,0,3.7080078,1.609375,3.7080078,3.5986328v0.0195312c0,1.9892578-1.5693359,3.6181641-3.7285156,3.6181641
					C54.6738281,23.1376152,53.1240234,21.5282402,53.1240234,19.5389824z M58.9511719,19.5389824v-0.0195312
					c0-1.1992188-0.8798828-2.1992188-2.1191406-2.1992188s-2.0986328,0.9794922-2.0986328,2.1796875v0.0195312
					c0,1.1992188,0.8798828,2.1992188,2.1191406,2.1992188S58.9511719,20.7391777,58.9511719,19.5389824z"/>
				<path class="st0" d="M61.9345703,16.0214043h1.5390625v5.5966797h3.4882812v1.3994141h-5.0273438V16.0214043z"/>
				<path class="st0" d="M68.125,16.0214043h1.5390625v5.5966797h3.4882812v1.3994141H68.125V16.0214043z"/>
				<path class="st0" d="M73.6142578,19.5389824v-0.0195312c0-1.9892578,1.5693359-3.6181641,3.7285156-3.6181641
					c2.1582031,0,3.7080078,1.609375,3.7080078,3.5986328v0.0195312c0,1.9892578-1.5693359,3.6181641-3.7285156,3.6181641
					C75.1640625,23.1376152,73.6142578,21.5282402,73.6142578,19.5389824z M79.4414062,19.5389824v-0.0195312
					c0-1.1992188-0.8798828-2.1992188-2.1191406-2.1992188s-2.0986328,0.9794922-2.0986328,2.1796875v0.0195312
					c0,1.1992188,0.8798828,2.1992188,2.1191406,2.1992188S79.4414062,20.7391777,79.4414062,19.5389824z"/>
				<path class="st0" d="M81.4941406,16.0214043h1.6494141l1.4492188,4.7373047l1.5683594-4.7578125h1.3193359l1.5693359,4.7578125
					l1.4492188-4.7373047h1.609375l-2.3886719,7.0458984h-1.3388672l-1.5800781-4.5771484l-1.5791016,4.5771484h-1.3388672
					L81.4941406,16.0214043z"/>
				<path class="st0" d="M92.5644531,19.189373h3.078125v1.4589844h-3.078125V19.189373z"/>
				<path class="st0" d="M96.8740234,20.0194511v-3.9980469h1.5390625v3.9580078
					c0,1.1386719,0.5703125,1.7285156,1.5097656,1.7285156s1.5087891-0.5693359,1.5087891-1.6787109v-4.0078125h1.5390625v3.9482422
					c0,2.1181641-1.1894531,3.1582031-3.0683594,3.1582031S96.8740234,22.0780449,96.8740234,20.0194511z"/>
				<path class="st0" d="M104.5439453,16.0214043h2.8583984c1.6689453,0,2.6787109,0.9892578,2.6787109,2.4189453v0.0195312
					c0,1.6191406-1.2597656,2.4589844-2.8291016,2.4589844h-1.1689453v2.0986328h-1.5390625V16.0214043z M107.3017578,19.5497246
					c0.7695312,0,1.2197266-0.4599609,1.2197266-1.0595703v-0.0205078c0-0.6894531-0.4794922-1.0585938-1.2490234-1.0585938
					h-1.1894531v2.1386719H107.3017578z"/>
				<path class="st0" d="M116.6230469,15.9715996h1.4189453l2.9990234,7.0458984h-1.609375l-0.6396484-1.5693359h-2.9589844
					l-0.6396484,1.5693359H113.625L116.6230469,15.9715996z M118.2421875,20.0887871L117.3125,17.8202324l-0.9296875,2.2685547
					H118.2421875z"/>
				<path class="st0" d="M122.1240234,16.0214043h2.8583984c1.6689453,0,2.6787109,0.9892578,2.6787109,2.4189453v0.0195312
					c0,1.6191406-1.2597656,2.4589844-2.8291016,2.4589844h-1.1689453v2.0986328h-1.5390625V16.0214043z M124.8818359,19.5497246
					c0.7695312,0,1.2197266-0.4599609,1.2197266-1.0595703v-0.0205078c0-0.6894531-0.4794922-1.0585938-1.2490234-1.0585938
					h-1.1894531v2.1386719H124.8818359z"/>
				<path class="st0" d="M128.8037109,16.0214043h2.8583984c1.6689453,0,2.6787109,0.9892578,2.6787109,2.4189453v0.0195312
					c0,1.6191406-1.2597656,2.4589844-2.8291016,2.4589844h-1.1689453v2.0986328h-1.5390625V16.0214043z M131.5615234,19.5497246
					c0.7695312,0,1.2197266-0.4599609,1.2197266-1.0595703v-0.0205078c0-0.6894531-0.4794922-1.0585938-1.2490234-1.0585938
					h-1.1894531v2.1386719H131.5615234z"/>
				<path class="st0" d="M135.1738281,19.5389824v-0.0195312c0-1.9892578,1.5693359-3.6181641,3.7285156-3.6181641
					c2.1582031,0,3.7080078,1.609375,3.7080078,3.5986328v0.0195312c0,1.9892578-1.5693359,3.6181641-3.7285156,3.6181641
					C136.7236328,23.1376152,135.1738281,21.5282402,135.1738281,19.5389824z M141.0009766,19.5389824v-0.0195312
					c0-1.1992188-0.8798828-2.1992188-2.1191406-2.1992188s-2.0986328,0.9794922-2.0986328,2.1796875v0.0195312
					c0,1.1992188,0.8798828,2.1992188,2.1191406,2.1992188S141.0009766,20.7391777,141.0009766,19.5389824z"/>
				<path class="st0" d="M144.0537109,16.0214043h1.5390625v6.9960938h-1.5390625V16.0214043z"/>
				<path class="st0" d="M147.34375,16.0214043h1.4189453l3.2783203,4.3076172v-4.3076172h1.5185547v6.9960938h-1.3085938
					l-3.3886719-4.4472656v4.4472656H147.34375V16.0214043z"/>
				<path class="st0" d="M156.8730469,17.4403496h-2.1289062v-1.4189453h5.796875v1.4189453h-2.1289062v5.5771484h-1.5390625
					V17.4403496z"/>
				<path class="st0" d="M161.7236328,16.0214043h1.6591797l1.8388672,2.9580078l1.8388672-2.9580078h1.6591797v6.9960938
					h-1.5292969v-4.5673828l-1.96875,2.9882812h-0.0400391l-1.9492188-2.9580078v4.5371094h-1.5087891V16.0214043z"/>
				<path class="st0" d="M170.4042969,16.0214043h5.2763672v1.3691406h-3.7470703v1.4189453h3.2978516v1.3691406h-3.2978516
					v1.4697266h3.7978516v1.3691406h-5.3271484V16.0214043z"/>
				<path class="st0" d="M177.1035156,16.0214043h1.4189453l3.2783203,4.3076172v-4.3076172h1.5185547v6.9960938h-1.3085938
					l-3.3886719-4.4472656v4.4472656h-1.5185547V16.0214043z"/>
				<path class="st0" d="M186.6328125,17.4403496h-2.1289062v-1.4189453h5.796875v1.4189453h-2.1289062v5.5771484h-1.5390625
					V17.4403496z"/>
			</g>
		</g>
		<g>
			<g>
				<g>
					<path class="st1" d="M202.5629883,16.0369987l0.197998-0.198c5.2409668-0.1189995,8.256958-3.3349972,8.256958-7.145998
						V8.6140022c0-3.2550011-2.539978-6.788002-6.5889893-6.788002c-3.1760254,0-5.5969849,1.5480003-7.6610107,4.0880013
						l-1.4299927-1.1900024C197.6009521,1.9049988,200.2999268,0,204.5079346,0
						c5.2399902,0,8.6140137,4.2869987,8.6140137,8.5340004v0.0800018c0,4.9219971-3.8110352,8.3359966-8.414978,8.8919983
						l-0.2420044,5.5569992h-1.7059937L202.5629883,16.0369987z"/>
				</g>
				<g>
					<path class="st1" d="M204.828125,25.831398c0,0.6650009-0.5389404,1.2040005-1.2039795,1.2040005
						c-0.664978,0-1.2039795-0.5389996-1.2039795-1.2040005c0-0.664999,0.5390015-1.2039986,1.2039795-1.2039986
						C204.2891846,24.6273994,204.828125,25.166399,204.828125,25.831398"/>
				</g>
			</g>
		</g>
	</g>
</g>
</svg>
