<?xml version="1.0" encoding="utf-8"?>
<!-- Generator: Adobe Illustrator 26.3.0, SVG Export Plug-In . SVG Version: 6.00 Build 0)  -->
<svg version="1.1" id="Layer_1" xmlns="http://www.w3.org/2000/svg" xmlns:xlink="http://www.w3.org/1999/xlink" x="0px" y="0px"
	 viewBox="0 0 234.6181641 43.9950371" style="enable-background:new 0 0 234.6181641 43.9950371;" xml:space="preserve">
<style type="text/css">
	.st0{fill:#FFFFFF;}
	.st1{fill:#35C4AF;}
</style>
<g>
	<g>
		<path class="st0" d="M0.065918,32.8202324h3.0341797v0.4316406H0.5395508v1.4326172h2.2910156v0.4316406H0.5395508v1.4697266
			h2.5908203v0.4316406H0.065918V32.8202324z"/>
		<path class="st0" d="M3.9418945,32.8202324h1.5712891c0.9472656,0,1.5708008,0.5029297,1.5708008,1.3310547v0.0117188
			c0,0.9052734-0.7553711,1.3730469-1.6489258,1.3730469H4.4155273v1.4814453H3.9418945V32.8202324z M5.453125,35.1044121
			c0.6953125,0,1.1513672-0.3720703,1.1513672-0.9238281v-0.0117188c0-0.5996094-0.449707-0.9111328-1.1274414-0.9111328H4.4155273
			v1.8466797H5.453125z"/>
		<path class="st0" d="M7.6196289,34.930584v-0.0117188c0-1.1875,0.8876953-2.1708984,2.1230469-2.1708984
			c0.7612305,0,1.2172852,0.2695312,1.6367188,0.6650391l-0.3237305,0.3486328
			c-0.3535156-0.3359375-0.7495117-0.5761719-1.3193359-0.5761719c-0.9291992,0-1.625,0.7558594-1.625,1.7207031v0.0126953
			c0,0.9716797,0.7016602,1.7324219,1.625,1.7324219c0.5756836,0,0.9536133-0.2216797,1.3554688-0.6054688l0.3120117,0.3056641
			c-0.4379883,0.4443359-0.9174805,0.7382812-1.6791992,0.7382812C8.5131836,37.0897636,7.6196289,36.1356621,7.6196289,34.930584z"
			/>
		<path class="st0" d="M12.1137695,32.8202324h0.4736328v3.7597656h2.362793v0.4375h-2.8364258V32.8202324z"/>
		<path class="st0" d="M15.4980469,35.2606621v-2.4404297h0.4736328v2.4101562c0,0.9052734,0.4794922,1.4150391,1.2832031,1.4150391
			c0.7734375,0,1.2651367-0.4677734,1.2651367-1.3847656v-2.4404297h0.4741211v2.4042969
			c0,1.2236328-0.7016602,1.859375-1.7509766,1.859375C16.2055664,37.0839043,15.4980469,36.4481621,15.4980469,35.2606621z"/>
		<path class="st0" d="M19.6977539,36.4061699l0.2939453-0.3476562c0.4375,0.3955078,0.8574219,0.5927734,1.4389648,0.5927734
			c0.5639648,0,0.9355469-0.2998047,0.9355469-0.7128906v-0.0126953c0-0.3896484-0.2099609-0.6113281-1.0913086-0.796875
			c-0.965332-0.2099609-1.4091797-0.5224609-1.4091797-1.2119141v-0.0117188c0-0.6591797,0.581543-1.1455078,1.3789062-1.1455078
			c0.6118164,0,1.0498047,0.1738281,1.4755859,0.515625l-0.2758789,0.3662109
			c-0.3901367-0.3183594-0.7797852-0.4560547-1.2114258-0.4560547c-0.5458984,0-0.8935547,0.2998047-0.8935547,0.6777344v0.0117188
			c0,0.3964844,0.2158203,0.6181641,1.1391602,0.8154297c0.9355469,0.2041016,1.3676758,0.5458984,1.3676758,1.1875v0.0126953
			c0,0.71875-0.6000977,1.1865234-1.4335938,1.1865234C20.7470703,37.0770683,20.2016602,36.8553886,19.6977539,36.4061699z"/>
		<path class="st0" d="M25.1328125,32.789959h0.4438477l1.9125977,4.2275391h-0.5097656l-0.4916992-1.109375h-2.284668
			l-0.4975586,1.109375h-0.4858398L25.1328125,32.789959z M26.3022461,35.4823418l-0.9536133-2.140625l-0.9594727,2.140625
			H26.3022461z"/>
		<path class="st0" d="M29.7597656,32.7294121h0.527832v0.5097656h-0.527832V32.7294121z M29.7895508,33.9169121h0.4619141
			v3.1005859h-0.4619141V33.9169121z"/>
		<path class="st0" d="M30.9233398,36.6219902l0.2338867-0.3300781c0.3359375,0.2519531,0.7075195,0.3955078,1.0732422,0.3955078
			c0.3720703,0,0.6420898-0.1914062,0.6420898-0.4912109v-0.0126953c0-0.3115234-0.3662109-0.4316406-0.7739258-0.5449219
			c-0.4858398-0.1386719-1.0253906-0.3066406-1.0253906-0.8759766v-0.0117188c0-0.5341797,0.4438477-0.8876953,1.0556641-0.8876953
			c0.3774414,0,0.7973633,0.1318359,1.1152344,0.3417969l-0.2099609,0.3476562
			c-0.2875977-0.1855469-0.6176758-0.2998047-0.9174805-0.2998047c-0.3657227,0-0.5996094,0.1923828-0.5996094,0.4501953v0.0117188
			c0,0.2939453,0.3837891,0.4082031,0.7973633,0.5341797c0.4799805,0.1435547,0.9956055,0.3291016,0.9956055,0.8867188v0.0126953
			c0,0.5869141-0.4858398,0.9287109-1.1035156,0.9287109C31.7626953,37.0770683,31.2709961,36.9032402,30.9233398,36.6219902z"/>
		<path class="st0" d="M35.6933594,32.7294121h0.527832v0.5097656h-0.527832V32.7294121z M35.7231445,33.9169121h0.4619141
			v3.1005859h-0.4619141V33.9169121z"/>
		<path class="st0" d="M37.1152344,33.9169121h0.4619141v0.5400391c0.2036133-0.3359375,0.527832-0.6054688,1.0615234-0.6054688
			c0.7495117,0,1.1870117,0.5039062,1.1870117,1.2412109v1.9248047h-0.4614258v-1.8105469
			c0-0.5761719-0.3120117-0.9355469-0.8579102-0.9355469c-0.5336914,0-0.9291992,0.3896484-0.9291992,0.9707031v1.7753906
			h-0.4619141V33.9169121z"/>
		<path class="st0" d="M40.4814453,35.4764824v-0.0117188c0-1.0136719,0.7373047-1.6132812,1.480957-1.6132812
			c0.5756836,0,0.9477539,0.3115234,1.1875,0.6591797v-1.8710938h0.4619141v4.3779297h-0.4619141v-0.6240234
			c-0.2519531,0.3720703-0.6176758,0.6904297-1.1875,0.6904297C41.21875,37.0839043,40.4814453,36.4960136,40.4814453,35.4764824z
			 M43.1679688,35.470623v-0.0126953c0-0.7128906-0.5458984-1.1933594-1.121582-1.1933594
			c-0.5996094,0-1.0913086,0.4443359-1.0913086,1.1933594v0.0126953c0,0.7314453,0.5039062,1.1992188,1.0913086,1.1992188
			C42.6220703,36.6698418,43.1679688,36.1835136,43.1679688,35.470623z"/>
		<path class="st0" d="M44.5131836,32.7294121h0.5273438v0.5097656h-0.5273438V32.7294121z M44.5429688,33.9169121h0.4619141
			v3.1005859h-0.4619141V33.9169121z"/>
		<path class="st0" d="M45.7431641,35.4823418V35.470623c0-0.8759766,0.6835938-1.6191406,1.5893555-1.6191406
			c0.5874023,0,0.953125,0.2460938,1.2412109,0.5517578l-0.3056641,0.3232422
			c-0.2460938-0.2578125-0.5219727-0.4677734-0.9418945-0.4677734c-0.6293945,0-1.109375,0.5341797-1.109375,1.1992188v0.0126953
			c0,0.6708984,0.4916992,1.2050781,1.1396484,1.2050781c0.3955078,0,0.7016602-0.1982422,0.9472656-0.4619141l0.2939453,0.2763672
			c-0.3120117,0.3476562-0.6835938,0.5996094-1.2651367,0.5996094
			C46.4267578,37.0897636,45.7431641,36.3514824,45.7431641,35.4823418z"/>
		<path class="st0" d="M48.9770508,36.118084v-0.0117188c0-0.6542969,0.5400391-1.0019531,1.3251953-1.0019531
			c0.3959961,0,0.6777344,0.0537109,0.9536133,0.1318359v-0.1074219c0-0.5576172-0.3417969-0.8457031-0.9233398-0.8457031
			c-0.3657227,0-0.6538086,0.0957031-0.9414062,0.2275391l-0.1381836-0.3779297
			c0.3417969-0.1552734,0.6777344-0.2578125,1.1274414-0.2578125c0.4379883,0,0.7734375,0.1142578,1.0014648,0.3417969
			c0.2099609,0.2099609,0.3178711,0.5097656,0.3178711,0.90625v1.8945312h-0.4438477v-0.4677734
			c-0.2158203,0.2822266-0.5756836,0.5341797-1.121582,0.5341797C49.559082,37.0839043,48.9770508,36.7538261,48.9770508,36.118084z
			 M51.2617188,35.8778496v-0.2998047c-0.2275391-0.0654297-0.5336914-0.1318359-0.9111328-0.1318359
			c-0.5820312,0-0.9057617,0.2519531-0.9057617,0.6416016v0.0117188c0,0.390625,0.3598633,0.6181641,0.7797852,0.6181641
			C50.7939453,36.7176933,51.2617188,36.3700371,51.2617188,35.8778496z"/>
		<path class="st0" d="M52.6728516,36.196209v-1.8710938h-0.4316406v-0.4082031h0.4316406v-0.9355469h0.4614258v0.9355469h0.9838867
			v0.4082031h-0.9838867v1.8105469c0,0.3779297,0.2099609,0.515625,0.5219727,0.515625
			c0.1557617,0,0.2875977-0.0292969,0.449707-0.1074219v0.3955078c-0.1621094,0.0839844-0.3359375,0.1318359-0.5576172,0.1318359
			C53.050293,37.071209,52.6728516,36.8260918,52.6728516,36.196209z"/>
		<path class="st0" d="M54.5029297,35.4764824v-0.0117188c0-0.8935547,0.6298828-1.6132812,1.4873047-1.6132812
			c0.9174805,0,1.4453125,0.7314453,1.4453125,1.6367188c0,0.0605469,0,0.0957031-0.0063477,0.1503906h-2.4584961
			c0.065918,0.6708984,0.5395508,1.0488281,1.0913086,1.0488281c0.4257812,0,0.7255859-0.1738281,0.9775391-0.4375
			l0.2880859,0.2578125c-0.3120117,0.3476562-0.6899414,0.5820312-1.2773438,0.5820312
			C55.1987305,37.0897636,54.5029297,36.4354668,54.5029297,35.4764824z M56.9677734,35.2967949
			c-0.0478516-0.5644531-0.3720703-1.0556641-0.9897461-1.0556641c-0.5395508,0-0.9472656,0.4492188-1.0073242,1.0556641H56.9677734
			z"/>
		<path class="st0" d="M57.9233398,35.4764824v-0.0117188c0-1.0136719,0.7373047-1.6132812,1.480957-1.6132812
			c0.5756836,0,0.9477539,0.3115234,1.1875,0.6591797v-1.8710938h0.4619141v4.3779297h-0.4619141v-0.6240234
			c-0.2519531,0.3720703-0.6176758,0.6904297-1.1875,0.6904297C58.6606445,37.0839043,57.9233398,36.4960136,57.9233398,35.4764824z
			 M60.6098633,35.470623v-0.0126953c0-0.7128906-0.5458984-1.1933594-1.121582-1.1933594
			c-0.5996094,0-1.0913086,0.4443359-1.0913086,1.1933594v0.0126953c0,0.7314453,0.5039062,1.1992188,1.0913086,1.1992188
			C60.0639648,36.6698418,60.6098633,36.1835136,60.6098633,35.470623z"/>
		<path class="st0" d="M63.7724609,34.3251152h-0.4257812v-0.4023438h0.4257812v-0.2695312
			c0-0.3535156,0.0961914-0.6240234,0.2700195-0.7978516c0.1557617-0.1552734,0.3837891-0.2392578,0.6655273-0.2392578
			c0.2158203,0,0.3598633,0.0234375,0.5097656,0.078125v0.4013672c-0.1679688-0.0478516-0.2939453-0.078125-0.449707-0.078125
			c-0.3598633,0-0.5395508,0.2158203-0.5395508,0.6601562v0.2519531h0.9833984v0.3955078H64.234375v2.6923828h-0.4619141V34.3251152
			z"/>
		<path class="st0" d="M65.4047852,35.4823418V35.470623c0-0.8759766,0.6835938-1.6191406,1.6191406-1.6191406
			c0.9296875,0,1.6132812,0.7314453,1.6132812,1.6064453v0.0126953c0,0.875-0.6899414,1.6191406-1.625,1.6191406
			C66.0825195,37.0897636,65.4047852,36.3583183,65.4047852,35.4823418z M68.1635742,35.4823418V35.470623
			c0-0.6660156-0.4980469-1.2119141-1.1513672-1.2119141c-0.671875,0-1.1337891,0.5458984-1.1337891,1.1992188v0.0126953
			c0,0.6650391,0.4916992,1.2050781,1.1455078,1.2050781C67.6958008,36.6757011,68.1635742,36.1356621,68.1635742,35.4823418z"/>
		<path class="st0" d="M69.3286133,33.9169121h0.4619141v0.8095703c0.2280273-0.515625,0.6777344-0.8876953,1.2651367-0.8632812
			v0.4980469h-0.0356445c-0.6777344,0-1.2294922,0.4853516-1.2294922,1.4208984v1.2353516h-0.4619141V33.9169121z"/>
		<path class="st0" d="M73.4267578,36.196209v-1.8710938h-0.4316406v-0.4082031h0.4316406v-0.9355469h0.4614258v0.9355469h0.9838867
			v0.4082031h-0.9838867v1.8105469c0,0.3779297,0.2099609,0.515625,0.5219727,0.515625
			c0.1557617,0,0.2875977-0.0292969,0.449707-0.1074219v0.3955078c-0.1621094,0.0839844-0.3359375,0.1318359-0.5576172,0.1318359
			C73.8041992,37.071209,73.4267578,36.8260918,73.4267578,36.196209z"/>
		<path class="st0" d="M75.5444336,32.6395683h0.4619141v1.8173828c0.2036133-0.3359375,0.527832-0.6054688,1.0615234-0.6054688
			c0.7495117,0,1.1870117,0.5039062,1.1870117,1.2412109v1.9248047H77.793457v-1.8105469
			c0-0.5761719-0.3120117-0.9355469-0.8579102-0.9355469c-0.5336914,0-0.9291992,0.3896484-0.9291992,0.9707031v1.7753906
			h-0.4619141V32.6395683z"/>
		<path class="st0" d="M78.9042969,35.4764824v-0.0117188c0-0.8935547,0.6298828-1.6132812,1.4873047-1.6132812
			c0.9174805,0,1.4453125,0.7314453,1.4453125,1.6367188c0,0.0605469,0,0.0957031-0.0063477,0.1503906h-2.4584961
			c0.065918,0.6708984,0.5395508,1.0488281,1.0913086,1.0488281c0.4257812,0,0.7255859-0.1738281,0.9775391-0.4375
			l0.2880859,0.2578125c-0.3120117,0.3476562-0.6899414,0.5820312-1.2773438,0.5820312
			C79.6000977,37.0897636,78.9042969,36.4354668,78.9042969,35.4764824z M81.3691406,35.2967949
			c-0.0478516-0.5644531-0.3720703-1.0556641-0.9897461-1.0556641c-0.5395508,0-0.9472656,0.4492188-1.0073242,1.0556641H81.3691406
			z"/>
		<path class="st0" d="M84.3164062,36.196209v-1.8710938h-0.4316406v-0.4082031h0.4316406v-0.9355469h0.4614258v0.9355469h0.9838867
			v0.4082031H84.777832v1.8105469c0,0.3779297,0.2099609,0.515625,0.5219727,0.515625
			c0.1557617,0,0.2875977-0.0292969,0.449707-0.1074219v0.3955078c-0.1621094,0.0839844-0.3359375,0.1318359-0.5576172,0.1318359
			C84.6938477,37.071209,84.3164062,36.8260918,84.3164062,36.196209z"/>
		<path class="st0" d="M86.434082,33.9169121h0.4619141v0.8095703c0.2280273-0.515625,0.6777344-0.8876953,1.2651367-0.8632812
			v0.4980469h-0.0356445c-0.6777344,0-1.2294922,0.4853516-1.2294922,1.4208984v1.2353516H86.434082V33.9169121z"/>
		<path class="st0" d="M88.3964844,35.4764824v-0.0117188c0-0.8935547,0.6298828-1.6132812,1.4873047-1.6132812
			c0.9174805,0,1.4453125,0.7314453,1.4453125,1.6367188c0,0.0605469,0,0.0957031-0.0063477,0.1503906h-2.4584961
			c0.065918,0.6708984,0.5395508,1.0488281,1.0913086,1.0488281c0.4257812,0,0.7255859-0.1738281,0.9775391-0.4375
			l0.2880859,0.2578125c-0.3120117,0.3476562-0.6899414,0.5820312-1.2773438,0.5820312
			C89.0922852,37.0897636,88.3964844,36.4354668,88.3964844,35.4764824z M90.8613281,35.2967949
			c-0.0478516-0.5644531-0.3720703-1.0556641-0.9897461-1.0556641c-0.5395508,0-0.9472656,0.4492188-1.0073242,1.0556641H90.8613281
			z"/>
		<path class="st0" d="M91.7563477,36.118084v-0.0117188c0-0.6542969,0.5400391-1.0019531,1.3251953-1.0019531
			c0.3959961,0,0.6777344,0.0537109,0.9536133,0.1318359v-0.1074219c0-0.5576172-0.3417969-0.8457031-0.9233398-0.8457031
			c-0.3657227,0-0.6538086,0.0957031-0.9414062,0.2275391l-0.1381836-0.3779297
			c0.3417969-0.1552734,0.6777344-0.2578125,1.1274414-0.2578125c0.4379883,0,0.7734375,0.1142578,1.0014648,0.3417969
			c0.2099609,0.2099609,0.3178711,0.5097656,0.3178711,0.90625v1.8945312h-0.4438477v-0.4677734
			c-0.2158203,0.2822266-0.5756836,0.5341797-1.121582,0.5341797C92.3383789,37.0839043,91.7563477,36.7538261,91.7563477,36.118084
			z M94.0410156,35.8778496v-0.2998047c-0.2275391-0.0654297-0.5336914-0.1318359-0.9111328-0.1318359
			c-0.5820312,0-0.9057617,0.2519531-0.9057617,0.6416016v0.0117188c0,0.390625,0.3598633,0.6181641,0.7797852,0.6181641
			C93.5732422,36.7176933,94.0410156,36.3700371,94.0410156,35.8778496z"/>
		<path class="st0" d="M95.4462891,36.196209v-1.8710938h-0.4316406v-0.4082031h0.4316406v-0.9355469h0.4614258v0.9355469h0.9838867
			v0.4082031h-0.9838867v1.8105469c0,0.3779297,0.2099609,0.515625,0.5219727,0.515625
			c0.1557617,0,0.2875977-0.0292969,0.449707-0.1074219v0.3955078c-0.1621094,0.0839844-0.3359375,0.1318359-0.5576172,0.1318359
			C95.8237305,37.071209,95.4462891,36.8260918,95.4462891,36.196209z"/>
		<path class="st0" d="M97.5639648,33.9169121h0.4619141v0.5224609c0.2036133-0.3066406,0.4794922-0.5878906,1.0014648-0.5878906
			c0.503418,0,0.8276367,0.2695312,0.9956055,0.6171875c0.2216797-0.3417969,0.5512695-0.6171875,1.0913086-0.6171875
			c0.7133789,0,1.1513672,0.4794922,1.1513672,1.2470703v1.9189453h-0.4619141v-1.8105469
			c0-0.6005859-0.2998047-0.9355469-0.8037109-0.9355469c-0.4677734,0-0.8574219,0.3476562-0.8574219,0.9589844v1.7871094
			h-0.4555664v-1.8232422c0-0.5810547-0.3061523-0.9228516-0.7978516-0.9228516s-0.8632812,0.4072266-0.8632812,0.9775391v1.7685547
			h-0.4619141V33.9169121z"/>
		<path class="st0" d="M102.9160156,35.4764824v-0.0117188c0-0.8935547,0.6298828-1.6132812,1.4873047-1.6132812
			c0.9174805,0,1.4453125,0.7314453,1.4453125,1.6367188c0,0.0605469,0,0.0957031-0.0063477,0.1503906h-2.4584961
			c0.065918,0.6708984,0.5395508,1.0488281,1.0913086,1.0488281c0.4257812,0,0.7255859-0.1738281,0.9775391-0.4375
			l0.2880859,0.2578125c-0.3120117,0.3476562-0.6899414,0.5820312-1.2773438,0.5820312
			C103.6118164,37.0897636,102.9160156,36.4354668,102.9160156,35.4764824z M105.3808594,35.2967949
			c-0.0478516-0.5644531-0.3720703-1.0556641-0.9897461-1.0556641c-0.5395508,0-0.9472656,0.4492188-1.0073242,1.0556641
			H105.3808594z"/>
		<path class="st0" d="M106.5102539,33.9169121h0.4619141v0.5400391c0.2036133-0.3359375,0.527832-0.6054688,1.0615234-0.6054688
			c0.7495117,0,1.1870117,0.5039062,1.1870117,1.2412109v1.9248047h-0.4614258v-1.8105469
			c0-0.5761719-0.3120117-0.9355469-0.8579102-0.9355469c-0.5336914,0-0.9291992,0.3896484-0.9291992,0.9707031v1.7753906
			h-0.4619141V33.9169121z"/>
		<path class="st0" d="M110.2182617,36.196209v-1.8710938h-0.4316406v-0.4082031h0.4316406v-0.9355469h0.4614258v0.9355469
			h0.9838867v0.4082031h-0.9838867v1.8105469c0,0.3779297,0.2099609,0.515625,0.5219727,0.515625
			c0.1557617,0,0.2875977-0.0292969,0.449707-0.1074219v0.3955078c-0.1621094,0.0839844-0.3359375,0.1318359-0.5576172,0.1318359
			C110.5961914,37.071209,110.2182617,36.8260918,110.2182617,36.196209z"/>
		<path class="st0" d="M113.800293,35.4823418V35.470623c0-0.8759766,0.6835938-1.6191406,1.6191406-1.6191406
			c0.9296875,0,1.6132812,0.7314453,1.6132812,1.6064453v0.0126953c0,0.875-0.6899414,1.6191406-1.625,1.6191406
			C114.4780273,37.0897636,113.800293,36.3583183,113.800293,35.4823418z M116.559082,35.4823418V35.470623
			c0-0.6660156-0.4980469-1.2119141-1.1513672-1.2119141c-0.671875,0-1.1337891,0.5458984-1.1337891,1.1992188v0.0126953
			c0,0.6650391,0.4916992,1.2050781,1.1455078,1.2050781C116.0913086,36.6757011,116.559082,36.1356621,116.559082,35.4823418z"/>
		<path class="st0" d="M117.8916016,34.3251152h-0.4257812v-0.4023438h0.4257812v-0.2695312
			c0-0.3535156,0.0961914-0.6240234,0.2700195-0.7978516c0.1557617-0.1552734,0.3837891-0.2392578,0.6655273-0.2392578
			c0.2158203,0,0.3598633,0.0234375,0.5097656,0.078125v0.4013672c-0.1679688-0.0478516-0.2939453-0.078125-0.449707-0.078125
			c-0.3598633,0-0.5395508,0.2158203-0.5395508,0.6601562v0.2519531h0.9833984v0.3955078h-0.9775391v2.6923828h-0.4619141
			V34.3251152z"/>
		<path class="st0" d="M121.2397461,35.4823418V35.470623c0-0.8759766,0.6835938-1.6191406,1.5893555-1.6191406
			c0.5874023,0,0.953125,0.2460938,1.2412109,0.5517578l-0.3056641,0.3232422
			c-0.2460938-0.2578125-0.5219727-0.4677734-0.9418945-0.4677734c-0.6293945,0-1.109375,0.5341797-1.109375,1.1992188v0.0126953
			c0,0.6708984,0.4916992,1.2050781,1.1396484,1.2050781c0.3955078,0,0.7016602-0.1982422,0.9472656-0.4619141l0.2939453,0.2763672
			c-0.3120117,0.3476562-0.6835938,0.5996094-1.2651367,0.5996094
			C121.9233398,37.0897636,121.2397461,36.3514824,121.2397461,35.4823418z"/>
		<path class="st0" d="M124.7138672,32.6395683h0.4619141v1.8173828c0.2036133-0.3359375,0.527832-0.6054688,1.0615234-0.6054688
			c0.7495117,0,1.1870117,0.5039062,1.1870117,1.2412109v1.9248047h-0.4614258v-1.8105469
			c0-0.5761719-0.3120117-0.9355469-0.8579102-0.9355469c-0.5336914,0-0.9291992,0.3896484-0.9291992,0.9707031v1.7753906
			h-0.4619141V32.6395683z"/>
		<path class="st0" d="M128.265625,33.9169121h0.4619141v0.8095703c0.2280273-0.515625,0.6777344-0.8876953,1.2651367-0.8632812
			v0.4980469h-0.0361328c-0.6772461,0-1.2290039,0.4853516-1.2290039,1.4208984v1.2353516h-0.4619141V33.9169121z"/>
		<path class="st0" d="M130.2216797,35.4823418V35.470623c0-0.8759766,0.6835938-1.6191406,1.6191406-1.6191406
			c0.9296875,0,1.6132812,0.7314453,1.6132812,1.6064453v0.0126953c0,0.875-0.6899414,1.6191406-1.625,1.6191406
			C130.8994141,37.0897636,130.2216797,36.3583183,130.2216797,35.4823418z M132.9804688,35.4823418V35.470623
			c0-0.6660156-0.4980469-1.2119141-1.1513672-1.2119141c-0.671875,0-1.1337891,0.5458984-1.1337891,1.1992188v0.0126953
			c0,0.6650391,0.4916992,1.2050781,1.1455078,1.2050781C132.5126953,36.6757011,132.9804688,36.1356621,132.9804688,35.4823418z"/>
		<path class="st0" d="M134.1459961,33.9169121h0.4619141v0.5400391c0.2036133-0.3359375,0.527832-0.6054688,1.0615234-0.6054688
			c0.7495117,0,1.1870117,0.5039062,1.1870117,1.2412109v1.9248047h-0.4614258v-1.8105469
			c0-0.5761719-0.3120117-0.9355469-0.8579102-0.9355469c-0.5336914,0-0.9291992,0.3896484-0.9291992,0.9707031v1.7753906
			h-0.4619141V33.9169121z"/>
		<path class="st0" d="M137.7099609,32.7294121h0.527832v0.5097656h-0.527832V32.7294121z M137.7397461,33.9169121h0.4619141
			v3.1005859h-0.4619141V33.9169121z"/>
		<path class="st0" d="M138.9399414,35.4823418V35.470623c0-0.8759766,0.6835938-1.6191406,1.5893555-1.6191406
			c0.5874023,0,0.953125,0.2460938,1.2412109,0.5517578l-0.3056641,0.3232422
			c-0.2460938-0.2578125-0.5219727-0.4677734-0.9418945-0.4677734c-0.6293945,0-1.109375,0.5341797-1.109375,1.1992188v0.0126953
			c0,0.6708984,0.4916992,1.2050781,1.1396484,1.2050781c0.3955078,0,0.7016602-0.1982422,0.9472656-0.4619141l0.2939453,0.2763672
			c-0.3120117,0.3476562-0.6835938,0.5996094-1.2651367,0.5996094
			C139.6235352,37.0897636,138.9399414,36.3514824,138.9399414,35.4823418z"/>
		<path class="st0" d="M144.0698242,32.6395683h0.4619141v1.8173828c0.2036133-0.3359375,0.527832-0.6054688,1.0615234-0.6054688
			c0.7495117,0,1.1870117,0.5039062,1.1870117,1.2412109v1.9248047h-0.4614258v-1.8105469
			c0-0.5761719-0.3120117-0.9355469-0.8579102-0.9355469c-0.5336914,0-0.9291992,0.3896484-0.9291992,0.9707031v1.7753906
			h-0.4619141V32.6395683z"/>
		<path class="st0" d="M147.4238281,35.4764824v-0.0117188c0-0.8935547,0.6298828-1.6132812,1.4873047-1.6132812
			c0.9174805,0,1.4453125,0.7314453,1.4453125,1.6367188c0,0.0605469,0,0.0957031-0.0063477,0.1503906h-2.4584961
			c0.065918,0.6708984,0.5395508,1.0488281,1.0913086,1.0488281c0.4257812,0,0.7255859-0.1738281,0.9775391-0.4375
			l0.2880859,0.2578125c-0.3120117,0.3476562-0.6899414,0.5820312-1.2773438,0.5820312
			C148.1196289,37.0897636,147.4238281,36.4354668,147.4238281,35.4764824z M149.8886719,35.2967949
			c-0.0478516-0.5644531-0.3720703-1.0556641-0.9897461-1.0556641c-0.5395508,0-0.9472656,0.4492188-1.0073242,1.0556641
			H149.8886719z"/>
		<path class="st0" d="M151.0234375,33.9169121h0.4619141v0.6240234c0.2519531-0.3720703,0.6176758-0.6894531,1.1875-0.6894531
			c0.7431641,0,1.480957,0.5878906,1.480957,1.6064453v0.0126953c0,1.0126953-0.7314453,1.6132812-1.480957,1.6132812
			c-0.5756836,0-0.9477539-0.3125-1.1875-0.6601562v1.5527344h-0.4619141V33.9169121z M153.6801758,35.4764824v-0.0117188
			c0-0.7324219-0.5039062-1.2001953-1.0913086-1.2001953c-0.5756836,0-1.121582,0.4863281-1.121582,1.1933594v0.0126953
			c0,0.7197266,0.5458984,1.1992188,1.121582,1.1992188C153.1884766,36.6698418,153.6801758,36.2255058,153.6801758,35.4764824z"/>
		<path class="st0" d="M154.6293945,36.118084v-0.0117188c0-0.6542969,0.5400391-1.0019531,1.3251953-1.0019531
			c0.3959961,0,0.6777344,0.0537109,0.9536133,0.1318359v-0.1074219c0-0.5576172-0.3417969-0.8457031-0.9233398-0.8457031
			c-0.3657227,0-0.6538086,0.0957031-0.9414062,0.2275391l-0.1381836-0.3779297
			c0.3417969-0.1552734,0.6777344-0.2578125,1.1274414-0.2578125c0.4379883,0,0.7734375,0.1142578,1.0014648,0.3417969
			c0.2099609,0.2099609,0.3178711,0.5097656,0.3178711,0.90625v1.8945312h-0.4438477v-0.4677734
			c-0.2158203,0.2822266-0.5756836,0.5341797-1.121582,0.5341797
			C155.2114258,37.0839043,154.6293945,36.7538261,154.6293945,36.118084z M156.9140625,35.8778496v-0.2998047
			c-0.2275391-0.0654297-0.5336914-0.1318359-0.9111328-0.1318359c-0.5820312,0-0.9057617,0.2519531-0.9057617,0.6416016v0.0117188
			c0,0.390625,0.3598633,0.6181641,0.7797852,0.6181641C156.4462891,36.7176933,156.9140625,36.3700371,156.9140625,35.8778496z"/>
		<path class="st0" d="M158.3193359,36.196209v-1.8710938h-0.4316406v-0.4082031h0.4316406v-0.9355469h0.4614258v0.9355469
			h0.9838867v0.4082031h-0.9838867v1.8105469c0,0.3779297,0.2099609,0.515625,0.5219727,0.515625
			c0.1557617,0,0.2875977-0.0292969,0.449707-0.1074219v0.3955078c-0.1621094,0.0839844-0.3359375,0.1318359-0.5576172,0.1318359
			C158.6967773,37.071209,158.3193359,36.8260918,158.3193359,36.196209z"/>
		<path class="st0" d="M160.449707,32.7294121h0.5273438v0.5097656h-0.5273438V32.7294121z M160.4794922,33.9169121h0.4619141
			v3.1005859h-0.4619141V33.9169121z"/>
		<path class="st0" d="M162.0332031,36.196209v-1.8710938h-0.4316406v-0.4082031h0.4316406v-0.9355469h0.4614258v0.9355469
			h0.9838867v0.4082031h-0.9838867v1.8105469c0,0.3779297,0.2099609,0.515625,0.5219727,0.515625
			c0.1557617,0,0.2875977-0.0292969,0.449707-0.1074219v0.3955078c-0.1621094,0.0839844-0.3359375,0.1318359-0.5576172,0.1318359
			C162.4106445,37.071209,162.0332031,36.8260918,162.0332031,36.196209z"/>
		<path class="st0" d="M164.1635742,32.7294121h0.5273438v0.5097656h-0.5273438V32.7294121z M164.1933594,33.9169121h0.4619141
			v3.1005859h-0.4619141V33.9169121z"/>
		<path class="st0" d="M165.3271484,36.6219902l0.2338867-0.3300781c0.3359375,0.2519531,0.7075195,0.3955078,1.0732422,0.3955078
			c0.3720703,0,0.6416016-0.1914062,0.6416016-0.4912109v-0.0126953c0-0.3115234-0.3657227-0.4316406-0.7734375-0.5449219
			c-0.4858398-0.1386719-1.0253906-0.3066406-1.0253906-0.8759766v-0.0117188c0-0.5341797,0.4438477-0.8876953,1.0556641-0.8876953
			c0.3774414,0,0.7973633,0.1318359,1.1152344,0.3417969l-0.2099609,0.3476562
			c-0.2875977-0.1855469-0.6176758-0.2998047-0.9174805-0.2998047c-0.3657227,0-0.5996094,0.1923828-0.5996094,0.4501953v0.0117188
			c0,0.2939453,0.3837891,0.4082031,0.7973633,0.5341797c0.4799805,0.1435547,0.9956055,0.3291016,0.9956055,0.8867188v0.0126953
			c0,0.5869141-0.4858398,0.9287109-1.1035156,0.9287109C166.1665039,37.0770683,165.6748047,36.9032402,165.3271484,36.6219902z"/>
		<path class="st0" d="M169.9770508,34.930584v-0.0117188c0-1.1875,0.8876953-2.1708984,2.1230469-2.1708984
			c0.7612305,0,1.2172852,0.2695312,1.6367188,0.6650391l-0.3237305,0.3486328
			c-0.3535156-0.3359375-0.7495117-0.5761719-1.3193359-0.5761719c-0.9291992,0-1.625,0.7558594-1.625,1.7207031v0.0126953
			c0,0.9716797,0.7016602,1.7324219,1.625,1.7324219c0.5756836,0,0.9536133-0.2216797,1.3554688-0.6054688l0.3120117,0.3056641
			c-0.4379883,0.4443359-0.9174805,0.7382812-1.6791992,0.7382812
			C170.8706055,37.0897636,169.9770508,36.1356621,169.9770508,34.930584z"/>
		<path class="st0" d="M175.7431641,33.9169121h0.5097656l1.043457,2.5732422l1.0493164-2.5732422h0.4975586l-1.3491211,3.125
			h-0.4077148L175.7431641,33.9169121z"/>
		<path class="st0" d="M179.4389648,32.7294121h0.5273438v0.5097656h-0.5273438V32.7294121z M179.46875,33.9169121h0.4619141
			v3.1005859H179.46875V33.9169121z"/>
		<path class="st0" d="M180.8608398,33.9169121h0.4619141v0.8095703c0.2280273-0.515625,0.6777344-0.8876953,1.2651367-0.8632812
			v0.4980469h-0.0356445c-0.6777344,0-1.2294922,0.4853516-1.2294922,1.4208984v1.2353516h-0.4619141V33.9169121z"/>
		<path class="st0" d="M183.0986328,35.8417168v-1.9248047h0.4619141v1.8115234
			c0,0.5751953,0.3115234,0.9355469,0.8574219,0.9355469c0.527832,0,0.9291992-0.3896484,0.9291992-0.9716797v-1.7753906h0.4560547
			v3.1005859h-0.4560547V36.477459c-0.2094727,0.3359375-0.5273438,0.6064453-1.0610352,0.6064453
			C183.5361328,37.0839043,183.0986328,36.579998,183.0986328,35.8417168z"/>
		<path class="st0" d="M186.4350586,36.6219902l0.2338867-0.3300781c0.3359375,0.2519531,0.7075195,0.3955078,1.0732422,0.3955078
			c0.3720703,0,0.6420898-0.1914062,0.6420898-0.4912109v-0.0126953c0-0.3115234-0.3662109-0.4316406-0.7739258-0.5449219
			c-0.4858398-0.1386719-1.0253906-0.3066406-1.0253906-0.8759766v-0.0117188c0-0.5341797,0.4438477-0.8876953,1.0556641-0.8876953
			c0.3774414,0,0.7973633,0.1318359,1.1152344,0.3417969l-0.2099609,0.3476562
			c-0.2875977-0.1855469-0.6176758-0.2998047-0.9174805-0.2998047c-0.3657227,0-0.5996094,0.1923828-0.5996094,0.4501953v0.0117188
			c0,0.2939453,0.3837891,0.4082031,0.7973633,0.5341797c0.4799805,0.1435547,0.9956055,0.3291016,0.9956055,0.8867188v0.0126953
			c0,0.5869141-0.4858398,0.9287109-1.1035156,0.9287109C187.2744141,37.0770683,186.7827148,36.9032402,186.4350586,36.6219902z"/>
		<path class="st0" d="M191.0844727,35.2967949c0-1.1035156,0.59375-1.9667969,1.6611328-2.5673828l0.1977539,0.3066406
			c-0.9111328,0.5810547-1.3911133,1.3007812-1.3911133,2.2607422c0,0.9589844,0.4799805,1.6787109,1.3911133,2.2607422
			l-0.1977539,0.3056641C191.6782227,37.2635918,191.0844727,36.4003105,191.0844727,35.2967949z"/>
		<path class="st0" d="M193.7304688,32.8202324h0.4736328v1.8642578h2.4228516v-1.8642578h0.4736328v4.1972656h-0.4736328
			v-1.8886719h-2.4228516v1.8886719h-0.4736328V32.8202324z"/>
		<path class="st0" d="M197.9604492,34.930584v-0.0117188c0-1.1875,0.8876953-2.1708984,2.1230469-2.1708984
			c0.7612305,0,1.2172852,0.2695312,1.6367188,0.6650391l-0.3237305,0.3486328
			c-0.3535156-0.3359375-0.7495117-0.5761719-1.3193359-0.5761719c-0.9291992,0-1.625,0.7558594-1.625,1.7207031v0.0126953
			c0,0.9716797,0.7016602,1.7324219,1.625,1.7324219c0.5756836,0,0.9536133-0.2216797,1.3554688-0.6054688l0.3120117,0.3056641
			c-0.4379883,0.4443359-0.9174805,0.7382812-1.6791992,0.7382812
			C198.8540039,37.0897636,197.9604492,36.1356621,197.9604492,34.930584z"/>
		<path class="st0" d="M202.0644531,32.8202324h0.527832l1.4931641,3.6152344l1.4990234-3.6152344h0.5097656l-1.8051758,4.2275391
			h-0.4194336L202.0644531,32.8202324z"/>
		<path class="st0" d="M206.5166016,37.5575371c0.9116211-0.5820312,1.3911133-1.3017578,1.3911133-2.2607422
			c0-0.9599609-0.4794922-1.6796875-1.3911133-2.2607422l0.1977539-0.3066406
			c1.0673828,0.6005859,1.6611328,1.4638672,1.6611328,2.5673828s-0.59375,1.9667969-1.6611328,2.5664062L206.5166016,37.5575371z"
			/>
		<path class="st0" d="M210.8242188,32.7294121h0.527832v0.5097656h-0.527832V32.7294121z M210.8540039,33.9169121h0.4619141
			v3.1005859h-0.4619141V33.9169121z"/>
		<path class="st0" d="M212.2460938,33.9169121h0.4619141v0.5400391c0.2036133-0.3359375,0.527832-0.6054688,1.0615234-0.6054688
			c0.7495117,0,1.1870117,0.5039062,1.1870117,1.2412109v1.9248047h-0.4614258v-1.8105469
			c0-0.5761719-0.3120117-0.9355469-0.8579102-0.9355469c-0.5336914,0-0.9291992,0.3896484-0.9291992,0.9707031v1.7753906
			h-0.4619141V33.9169121z"/>
		<path class="st0" d="M215.9658203,34.3251152h-0.4257812v-0.4023438h0.4257812v-0.2695312
			c0-0.3535156,0.0961914-0.6240234,0.2700195-0.7978516c0.1557617-0.1552734,0.3837891-0.2392578,0.6655273-0.2392578
			c0.2158203,0,0.3598633,0.0234375,0.5097656,0.078125v0.4013672c-0.1679688-0.0478516-0.2939453-0.078125-0.449707-0.078125
			c-0.3598633,0-0.5395508,0.2158203-0.5395508,0.6601562v0.2519531h0.9833984v0.3955078h-0.9775391v2.6923828h-0.4619141
			V34.3251152z"/>
		<path class="st0" d="M217.5981445,35.4764824v-0.0117188c0-0.8935547,0.6298828-1.6132812,1.4873047-1.6132812
			c0.9174805,0,1.4453125,0.7314453,1.4453125,1.6367188c0,0.0605469,0,0.0957031-0.0063477,0.1503906h-2.4584961
			c0.065918,0.6708984,0.5395508,1.0488281,1.0913086,1.0488281c0.4257812,0,0.7255859-0.1738281,0.9775391-0.4375
			l0.2880859,0.2578125c-0.3120117,0.3476562-0.6899414,0.5820312-1.2773438,0.5820312
			C218.2939453,37.0897636,217.5981445,36.4354668,217.5981445,35.4764824z M220.0629883,35.2967949
			c-0.0478516-0.5644531-0.3720703-1.0556641-0.9897461-1.0556641c-0.5395508,0-0.9472656,0.4492188-1.0073242,1.0556641
			H220.0629883z"/>
		<path class="st0" d="M221,35.4823418V35.470623c0-0.8759766,0.6835938-1.6191406,1.5893555-1.6191406
			c0.5874023,0,0.953125,0.2460938,1.2412109,0.5517578l-0.3056641,0.3232422
			c-0.2460938-0.2578125-0.5219727-0.4677734-0.9418945-0.4677734c-0.6293945,0-1.109375,0.5341797-1.109375,1.1992188v0.0126953
			c0,0.6708984,0.4916992,1.2050781,1.1396484,1.2050781c0.3955078,0,0.7016602-0.1982422,0.9472656-0.4619141l0.2939453,0.2763672
			c-0.3120117,0.3476562-0.6835938,0.5996094-1.2651367,0.5996094C221.6835938,37.0897636,221,36.3514824,221,35.4823418z"/>
		<path class="st0" d="M224.6303711,36.196209v-1.8710938h-0.4316406v-0.4082031h0.4316406v-0.9355469h0.4614258v0.9355469
			h0.9838867v0.4082031h-0.9838867v1.8105469c0,0.3779297,0.2099609,0.515625,0.5219727,0.515625
			c0.1557617,0,0.2875977-0.0292969,0.449707-0.1074219v0.3955078c-0.1621094,0.0839844-0.3359375,0.1318359-0.5576172,0.1318359
			C225.0083008,37.071209,224.6303711,36.8260918,224.6303711,36.196209z"/>
		<path class="st0" d="M226.7602539,32.7294121h0.5273438v0.5097656h-0.5273438V32.7294121z M226.7900391,33.9169121h0.4619141
			v3.1005859h-0.4619141V33.9169121z"/>
		<path class="st0" d="M227.9902344,35.4823418V35.470623c0-0.8759766,0.6835938-1.6191406,1.6191406-1.6191406
			c0.9296875,0,1.6132812,0.7314453,1.6132812,1.6064453v0.0126953c0,0.875-0.6899414,1.6191406-1.625,1.6191406
			C228.6679688,37.0897636,227.9902344,36.3583183,227.9902344,35.4823418z M230.7490234,35.4823418V35.470623
			c0-0.6660156-0.4980469-1.2119141-1.1513672-1.2119141c-0.671875,0-1.1337891,0.5458984-1.1337891,1.1992188v0.0126953
			c0,0.6650391,0.4916992,1.2050781,1.1455078,1.2050781C230.28125,36.6757011,230.7490234,36.1356621,230.7490234,35.4823418z"/>
		<path class="st0" d="M231.9077148,33.9169121h0.4619141v0.5400391c0.2036133-0.3359375,0.527832-0.6054688,1.0615234-0.6054688
			c0.7495117,0,1.1870117,0.5039062,1.1870117,1.2412109v1.9248047h-0.4614258v-1.8105469
			c0-0.5761719-0.3120117-0.9355469-0.8579102-0.9355469c-0.5336914,0-0.9291992,0.3896484-0.9291992,0.9707031v1.7753906
			h-0.4619141V33.9169121z"/>
	</g>
</g>
<g>
	<g>
		<path class="st0" d="M0,38.7294121h0.527832v0.5097656H0V38.7294121z M0.0297852,39.9169121h0.4619141v3.1005859H0.0297852
			V39.9169121z"/>
		<path class="st0" d="M1.421875,39.9169121h0.4619141v0.5400391c0.2036133-0.3359375,0.527832-0.6054688,1.0615234-0.6054688
			c0.7495117,0,1.1870117,0.5039062,1.1870117,1.2412109v1.9248047H3.6708984v-1.8105469
			c0-0.5761719-0.3120117-0.9355469-0.8579102-0.9355469c-0.5336914,0-0.9291992,0.3896484-0.9291992,0.9707031v1.7753906H1.421875
			V39.9169121z"/>
		<path class="st0" d="M6.3955078,42.118084v-0.0117188c0-0.6542969,0.5400391-1.0019531,1.3251953-1.0019531
			c0.3959961,0,0.6777344,0.0537109,0.9536133,0.1318359v-0.1074219c0-0.5576172-0.3417969-0.8457031-0.9233398-0.8457031
			c-0.3657227,0-0.6538086,0.0957031-0.9414062,0.2275391l-0.1381836-0.3779297
			c0.3417969-0.1552734,0.6777344-0.2578125,1.1274414-0.2578125c0.4379883,0,0.7734375,0.1142578,1.0014648,0.3417969
			c0.2099609,0.2099609,0.3178711,0.5097656,0.3178711,0.90625v1.8945312H8.6743164v-0.4677734
			c-0.2158203,0.2822266-0.5756836,0.5341797-1.1210938,0.5341797C6.9770508,43.0839043,6.3955078,42.7538261,6.3955078,42.118084z
			 M8.6801758,41.8778496v-0.2998047C8.4526367,41.5126152,8.1464844,41.446209,7.769043,41.446209
			c-0.5820312,0-0.9057617,0.2519531-0.9057617,0.6416016v0.0117188c0,0.390625,0.3598633,0.6181641,0.7797852,0.6181641
			C8.2124023,42.7176933,8.6801758,42.3700371,8.6801758,41.8778496z"/>
		<path class="st0" d="M9.7797852,41.4764824v-0.0117188c0-1.0136719,0.7373047-1.6132812,1.480957-1.6132812
			c0.5756836,0,0.9477539,0.3115234,1.1875,0.6591797v-1.8710938h0.4619141v4.3779297h-0.4619141v-0.6240234
			c-0.2519531,0.3720703-0.6176758,0.6904297-1.1875,0.6904297C10.5170898,43.0839043,9.7797852,42.4960136,9.7797852,41.4764824z
			 M12.4663086,41.470623v-0.0126953c0-0.7128906-0.5458984-1.1933594-1.121582-1.1933594
			c-0.5996094,0-1.0913086,0.4443359-1.0913086,1.1933594v0.0126953c0,0.7314453,0.5039062,1.1992188,1.0913086,1.1992188
			C11.9204102,42.6698418,12.4663086,42.1835136,12.4663086,41.470623z"/>
		<path class="st0" d="M13.7514648,41.8417168v-1.9248047h0.4619141v1.8115234c0,0.5751953,0.3115234,0.9355469,0.8574219,0.9355469
			C15.5986328,42.6639824,16,42.274334,16,41.6923027v-1.7753906h0.4560547v3.1005859H16V42.477459
			c-0.2094727,0.3359375-0.5273438,0.6064453-1.0610352,0.6064453
			C14.1889648,43.0839043,13.7514648,42.579998,13.7514648,41.8417168z"/>
		<path class="st0" d="M17.3876953,38.6395683h0.4619141v4.3779297h-0.4619141V38.6395683z"/>
		<path class="st0" d="M18.9414062,42.196209v-1.8710938h-0.4316406v-0.4082031h0.4316406v-0.9355469h0.4614258v0.9355469h0.9838867
			v0.4082031H19.402832v1.8105469c0,0.3779297,0.2099609,0.515625,0.5219727,0.515625
			c0.1557617,0,0.2875977-0.0292969,0.449707-0.1074219v0.3955078c-0.1621094,0.0839844-0.3359375,0.1318359-0.5576172,0.1318359
			C19.3188477,43.071209,18.9414062,42.8260918,18.9414062,42.196209z"/>
		<path class="st0" d="M20.8017578,42.6219902l0.2338867-0.3300781c0.3359375,0.2519531,0.7075195,0.3955078,1.0732422,0.3955078
			c0.3720703,0,0.6416016-0.1914062,0.6416016-0.4912109v-0.0126953c0-0.3115234-0.3657227-0.4316406-0.7734375-0.5449219
			c-0.4858398-0.1386719-1.0253906-0.3066406-1.0253906-0.8759766v-0.0117188c0-0.5341797,0.4438477-0.8876953,1.0556641-0.8876953
			c0.3774414,0,0.7973633,0.1318359,1.1152344,0.3417969l-0.2099609,0.3476562
			c-0.2875977-0.1855469-0.6176758-0.2998047-0.9174805-0.2998047c-0.3657227,0-0.5996094,0.1923828-0.5996094,0.4501953v0.0117188
			c0,0.2939453,0.3837891,0.4082031,0.7973633,0.5341797c0.4799805,0.1435547,0.9956055,0.3291016,0.9956055,0.8867188v0.0126953
			c0,0.5869141-0.4858398,0.9287109-1.1035156,0.9287109C21.6411133,43.0770683,21.1494141,42.9032402,20.8017578,42.6219902z"/>
		<path class="st0" d="M23.8432617,42.3876152h0.5517578v0.6298828h-0.5517578V42.3876152z"/>
		<path class="st0" d="M26.9570312,38.8202324h3.0161133v0.4375h-2.5424805v1.4990234h2.2729492v0.4316406h-2.2729492v1.8291016
			h-0.4736328V38.8202324z"/>
		<path class="st0" d="M30.3891602,41.4823418V41.470623c0-0.8759766,0.6835938-1.6191406,1.6191406-1.6191406
			c0.9296875,0,1.6132812,0.7314453,1.6132812,1.6064453v0.0126953c0,0.875-0.6899414,1.6191406-1.625,1.6191406
			C31.0668945,43.0897636,30.3891602,42.3583183,30.3891602,41.4823418z M33.1479492,41.4823418V41.470623
			c0-0.6660156-0.4980469-1.2119141-1.1513672-1.2119141c-0.671875,0-1.1337891,0.5458984-1.1337891,1.1992188v0.0126953
			c0,0.6650391,0.4916992,1.2050781,1.1455078,1.2050781C32.6801758,42.6757011,33.1479492,42.1356621,33.1479492,41.4823418z"/>
		<path class="st0" d="M34.3071289,39.9169121h0.4619141v0.8095703c0.2280273-0.515625,0.6777344-0.8876953,1.2651367-0.8632812
			v0.4980469h-0.0356445c-0.6777344,0-1.2294922,0.4853516-1.2294922,1.4208984v1.2353516h-0.4619141V39.9169121z"/>
		<path class="st0" d="M38.3271484,38.8202324h3.0341797v0.4316406h-2.5605469v1.4326172h2.2905273v0.4316406h-2.2905273v1.4697266
			h2.5908203v0.4316406h-3.0644531V38.8202324z"/>
		<path class="st0" d="M42.1313477,41.2606621v-2.4404297h0.4736328v2.4101562c0,0.9052734,0.4794922,1.4150391,1.2832031,1.4150391
			c0.7734375,0,1.265625-0.4677734,1.265625-1.3847656v-2.4404297h0.4736328v2.4042969
			c0,1.2236328-0.7016602,1.859375-1.7509766,1.859375C42.8388672,43.0839043,42.1313477,42.4481621,42.1313477,41.2606621z"/>
		<path class="st0" d="M48.2626953,38.8202324h0.4736328v1.8642578h2.4228516v-1.8642578h0.4736328v4.1972656h-0.4736328v-1.8886719
			h-2.4228516v1.8886719h-0.4736328V38.8202324z"/>
		<path class="st0" d="M52.4086914,41.4764824v-0.0117188c0-0.8935547,0.6298828-1.6132812,1.4873047-1.6132812
			c0.9174805,0,1.4453125,0.7314453,1.4453125,1.6367188c0,0.0605469,0,0.0957031-0.0063477,0.1503906h-2.4584961
			c0.065918,0.6708984,0.5395508,1.0488281,1.0913086,1.0488281c0.4257812,0,0.7255859-0.1738281,0.9775391-0.4375
			l0.2880859,0.2578125c-0.3120117,0.3476562-0.6899414,0.5820312-1.2773438,0.5820312
			C53.1044922,43.0897636,52.4086914,42.4354668,52.4086914,41.4764824z M54.8735352,41.2967949
			c-0.0478516-0.5644531-0.3720703-1.0556641-0.9897461-1.0556641c-0.5395508,0-0.9472656,0.4492188-1.0073242,1.0556641H54.8735352
			z"/>
		<path class="st0" d="M55.769043,42.118084v-0.0117188c0-0.6542969,0.5400391-1.0019531,1.3251953-1.0019531
			c0.3959961,0,0.6777344,0.0537109,0.9536133,0.1318359v-0.1074219c0-0.5576172-0.3417969-0.8457031-0.9233398-0.8457031
			c-0.3657227,0-0.6538086,0.0957031-0.9414062,0.2275391l-0.1381836-0.3779297
			c0.3417969-0.1552734,0.6777344-0.2578125,1.1274414-0.2578125c0.4379883,0,0.7734375,0.1142578,1.0014648,0.3417969
			c0.2099609,0.2099609,0.3178711,0.5097656,0.3178711,0.90625v1.8945312h-0.4438477v-0.4677734
			c-0.2158203,0.2822266-0.5756836,0.5341797-1.121582,0.5341797C56.3510742,43.0839043,55.769043,42.7538261,55.769043,42.118084z
			 M58.0537109,41.8778496v-0.2998047c-0.2275391-0.0654297-0.5336914-0.1318359-0.9111328-0.1318359
			c-0.5820312,0-0.9057617,0.2519531-0.9057617,0.6416016v0.0117188c0,0.390625,0.3598633,0.6181641,0.7797852,0.6181641
			C57.5859375,42.7176933,58.0537109,42.3700371,58.0537109,41.8778496z"/>
		<path class="st0" d="M59.3745117,38.6395683h0.4619141v4.3779297h-0.4619141V38.6395683z"/>
		<path class="st0" d="M60.9287109,42.196209v-1.8710938h-0.4316406v-0.4082031h0.4316406v-0.9355469h0.4614258v0.9355469h0.9838867
			v0.4082031h-0.9838867v1.8105469c0,0.3779297,0.2099609,0.515625,0.5219727,0.515625
			c0.1557617,0,0.2875977-0.0292969,0.449707-0.1074219v0.3955078c-0.1621094,0.0839844-0.3359375,0.1318359-0.5576172,0.1318359
			C61.3061523,43.071209,60.9287109,42.8260918,60.9287109,42.196209z"/>
		<path class="st0" d="M63.0463867,38.6395683h0.4619141v1.8173828c0.2036133-0.3359375,0.527832-0.6054688,1.0615234-0.6054688
			c0.7495117,0,1.1870117,0.5039062,1.1870117,1.2412109v1.9248047h-0.4614258v-1.8105469
			c0-0.5761719-0.3120117-0.9355469-0.8579102-0.9355469c-0.5336914,0-0.9291992,0.3896484-0.9291992,0.9707031v1.7753906
			h-0.4619141V38.6395683z"/>
		<path class="st0" d="M66.4008789,41.4823418V41.470623c0-0.8759766,0.6835938-1.6191406,1.5893555-1.6191406
			c0.5874023,0,0.953125,0.2460938,1.2412109,0.5517578l-0.3056641,0.3232422
			c-0.2460938-0.2578125-0.5219727-0.4677734-0.9418945-0.4677734c-0.6293945,0-1.109375,0.5341797-1.109375,1.1992188v0.0126953
			c0,0.6708984,0.4916992,1.2050781,1.1396484,1.2050781c0.3955078,0,0.7016602-0.1982422,0.9472656-0.4619141l0.2939453,0.2763672
			c-0.3120117,0.3476562-0.6835938,0.5996094-1.2651367,0.5996094
			C67.0844727,43.0897636,66.4008789,42.3514824,66.4008789,41.4823418z"/>
		<path class="st0" d="M69.640625,42.118084v-0.0117188c0-0.6542969,0.5400391-1.0019531,1.3251953-1.0019531
			c0.3959961,0,0.6777344,0.0537109,0.9536133,0.1318359v-0.1074219c0-0.5576172-0.3417969-0.8457031-0.9233398-0.8457031
			c-0.3657227,0-0.6538086,0.0957031-0.9414062,0.2275391l-0.1381836-0.3779297
			c0.3417969-0.1552734,0.6777344-0.2578125,1.1274414-0.2578125c0.4379883,0,0.7734375,0.1142578,1.0014648,0.3417969
			c0.2099609,0.2099609,0.3178711,0.5097656,0.3178711,0.90625v1.8945312h-0.4438477v-0.4677734
			c-0.2158203,0.2822266-0.5756836,0.5341797-1.1210938,0.5341797C70.222168,43.0839043,69.640625,42.7538261,69.640625,42.118084z
			 M71.925293,41.8778496v-0.2998047c-0.2275391-0.0654297-0.5336914-0.1318359-0.9111328-0.1318359
			c-0.5820312,0-0.9057617,0.2519531-0.9057617,0.6416016v0.0117188c0,0.390625,0.3598633,0.6181641,0.7797852,0.6181641
			C71.4575195,42.7176933,71.925293,42.3700371,71.925293,41.8778496z"/>
		<path class="st0" d="M73.1987305,39.9169121h0.4619141v0.8095703c0.2280273-0.515625,0.6777344-0.8876953,1.2651367-0.8632812
			v0.4980469h-0.0356445c-0.6777344,0-1.2294922,0.4853516-1.2294922,1.4208984v1.2353516h-0.4619141V39.9169121z"/>
		<path class="st0" d="M75.1606445,41.4764824v-0.0117188c0-0.8935547,0.6298828-1.6132812,1.4873047-1.6132812
			c0.9174805,0,1.4453125,0.7314453,1.4453125,1.6367188c0,0.0605469,0,0.0957031-0.0063477,0.1503906H75.628418
			c0.065918,0.6708984,0.5395508,1.0488281,1.0913086,1.0488281c0.4257812,0,0.7255859-0.1738281,0.9775391-0.4375
			l0.2880859,0.2578125c-0.3120117,0.3476562-0.6899414,0.5820312-1.2773438,0.5820312
			C75.8564453,43.0897636,75.1606445,42.4354668,75.1606445,41.4764824z M77.6254883,41.2967949
			c-0.0478516-0.5644531-0.3720703-1.0556641-0.9897461-1.0556641c-0.5395508,0-0.9472656,0.4492188-1.0073242,1.0556641H77.6254883
			z"/>
		<path class="st0" d="M80.4946289,38.8202324h1.5712891c0.9472656,0,1.5708008,0.5029297,1.5708008,1.3310547v0.0117188
			c0,0.9052734-0.7553711,1.3730469-1.6489258,1.3730469h-1.0195312v1.4814453h-0.4736328V38.8202324z M82.0058594,41.1044121
			c0.6953125,0,1.1513672-0.3720703,1.1513672-0.9238281v-0.0117188c0-0.5996094-0.449707-0.9111328-1.1274414-0.9111328h-1.0615234
			v1.8466797H82.0058594z"/>
		<path class="st0" d="M84.2744141,39.9169121h0.4619141v0.8095703c0.2280273-0.515625,0.6777344-0.8876953,1.2651367-0.8632812
			v0.4980469H85.965332c-0.6772461,0-1.2290039,0.4853516-1.2290039,1.4208984v1.2353516h-0.4619141V39.9169121z"/>
		<path class="st0" d="M86.2363281,41.4823418V41.470623c0-0.8759766,0.6835938-1.6191406,1.6191406-1.6191406
			c0.9296875,0,1.6132812,0.7314453,1.6132812,1.6064453v0.0126953c0,0.875-0.6899414,1.6191406-1.625,1.6191406
			C86.9140625,43.0897636,86.2363281,42.3583183,86.2363281,41.4823418z M88.9951172,41.4823418V41.470623
			c0-0.6660156-0.4980469-1.2119141-1.1513672-1.2119141c-0.671875,0-1.1337891,0.5458984-1.1337891,1.1992188v0.0126953
			c0,0.6650391,0.4916992,1.2050781,1.1455078,1.2050781C88.5273438,42.6757011,88.9951172,42.1356621,88.9951172,41.4823418z"/>
		<path class="st0" d="M90.3339844,40.3251152h-0.4257812v-0.4023438h0.4257812v-0.2695312
			c0-0.3535156,0.0961914-0.6240234,0.2700195-0.7978516c0.1557617-0.1552734,0.3837891-0.2392578,0.6655273-0.2392578
			c0.2158203,0,0.3598633,0.0234375,0.5097656,0.078125v0.4013672c-0.1679688-0.0478516-0.2939453-0.078125-0.449707-0.078125
			c-0.3598633,0-0.5395508,0.2158203-0.5395508,0.6601562v0.2519531h0.9833984v0.3955078h-0.9775391v2.6923828h-0.4619141
			V40.3251152z"/>
		<path class="st0" d="M91.9663086,41.4764824v-0.0117188c0-0.8935547,0.6298828-1.6132812,1.4873047-1.6132812
			c0.9174805,0,1.4453125,0.7314453,1.4453125,1.6367188c0,0.0605469,0,0.0957031-0.0063477,0.1503906H92.434082
			c0.065918,0.6708984,0.5395508,1.0488281,1.0913086,1.0488281c0.4257812,0,0.7255859-0.1738281,0.9775391-0.4375
			l0.2880859,0.2578125c-0.3120117,0.3476562-0.6899414,0.5820312-1.2773438,0.5820312
			C92.6621094,43.0897636,91.9663086,42.4354668,91.9663086,41.4764824z M94.4311523,41.2967949
			c-0.0478516-0.5644531-0.3720703-1.0556641-0.9897461-1.0556641c-0.5395508,0-0.9472656,0.4492188-1.0073242,1.0556641H94.4311523
			z"/>
		<path class="st0" d="M95.3022461,42.6219902l0.2338867-0.3300781c0.3359375,0.2519531,0.7075195,0.3955078,1.0732422,0.3955078
			c0.3720703,0,0.6420898-0.1914062,0.6420898-0.4912109v-0.0126953c0-0.3115234-0.3662109-0.4316406-0.7739258-0.5449219
			c-0.4858398-0.1386719-1.0253906-0.3066406-1.0253906-0.8759766v-0.0117188c0-0.5341797,0.4438477-0.8876953,1.0556641-0.8876953
			c0.3774414,0,0.7973633,0.1318359,1.1152344,0.3417969l-0.2099609,0.3476562
			c-0.2875977-0.1855469-0.6176758-0.2998047-0.9174805-0.2998047c-0.3657227,0-0.5996094,0.1923828-0.5996094,0.4501953v0.0117188
			c0,0.2939453,0.3837891,0.4082031,0.7973633,0.5341797c0.4799805,0.1435547,0.9956055,0.3291016,0.9956055,0.8867188v0.0126953
			c0,0.5869141-0.4858398,0.9287109-1.1035156,0.9287109C96.1416016,43.0770683,95.6499023,42.9032402,95.3022461,42.6219902z"/>
		<path class="st0" d="M98.0864258,42.6219902l0.2338867-0.3300781c0.3359375,0.2519531,0.7075195,0.3955078,1.0732422,0.3955078
			c0.3720703,0,0.6420898-0.1914062,0.6420898-0.4912109v-0.0126953c0-0.3115234-0.3662109-0.4316406-0.7739258-0.5449219
			c-0.4858398-0.1386719-1.0253906-0.3066406-1.0253906-0.8759766v-0.0117188c0-0.5341797,0.4438477-0.8876953,1.0556641-0.8876953
			c0.3774414,0,0.7973633,0.1318359,1.1152344,0.3417969l-0.2099609,0.3476562
			c-0.2875977-0.1855469-0.6176758-0.2998047-0.9174805-0.2998047c-0.3657227,0-0.5996094,0.1923828-0.5996094,0.4501953v0.0117188
			c0,0.2939453,0.3837891,0.4082031,0.7973633,0.5341797c0.4799805,0.1435547,0.9956055,0.3291016,0.9956055,0.8867188v0.0126953
			c0,0.5869141-0.4858398,0.9287109-1.1035156,0.9287109C98.9257812,43.0770683,98.434082,42.9032402,98.0864258,42.6219902z"/>
		<path class="st0" d="M101.2001953,38.7294121h0.527832v0.5097656h-0.527832V38.7294121z M101.2299805,39.9169121h0.4619141
			v3.1005859h-0.4619141V39.9169121z"/>
		<path class="st0" d="M102.4301758,41.4823418V41.470623c0-0.8759766,0.6835938-1.6191406,1.6191406-1.6191406
			c0.9296875,0,1.6132812,0.7314453,1.6132812,1.6064453v0.0126953c0,0.875-0.6899414,1.6191406-1.625,1.6191406
			C103.1079102,43.0897636,102.4301758,42.3583183,102.4301758,41.4823418z M105.1889648,41.4823418V41.470623
			c0-0.6660156-0.4980469-1.2119141-1.1513672-1.2119141c-0.671875,0-1.1337891,0.5458984-1.1337891,1.1992188v0.0126953
			c0,0.6650391,0.4916992,1.2050781,1.1455078,1.2050781C104.7211914,42.6757011,105.1889648,42.1356621,105.1889648,41.4823418z"/>
		<path class="st0" d="M106.3481445,39.9169121h0.4619141v0.5400391c0.2036133-0.3359375,0.527832-0.6054688,1.0615234-0.6054688
			c0.7495117,0,1.1870117,0.5039062,1.1870117,1.2412109v1.9248047h-0.4614258v-1.8105469
			c0-0.5761719-0.3120117-0.9355469-0.8579102-0.9355469c-0.5336914,0-0.9291992,0.3896484-0.9291992,0.9707031v1.7753906
			h-0.4619141V39.9169121z"/>
		<path class="st0" d="M109.6601562,42.118084v-0.0117188c0-0.6542969,0.5400391-1.0019531,1.3251953-1.0019531
			c0.3959961,0,0.6777344,0.0537109,0.9536133,0.1318359v-0.1074219c0-0.5576172-0.3417969-0.8457031-0.9233398-0.8457031
			c-0.3657227,0-0.6538086,0.0957031-0.9414062,0.2275391l-0.1381836-0.3779297
			c0.3417969-0.1552734,0.6777344-0.2578125,1.1274414-0.2578125c0.4379883,0,0.7734375,0.1142578,1.0014648,0.3417969
			c0.2099609,0.2099609,0.3178711,0.5097656,0.3178711,0.90625v1.8945312h-0.4438477v-0.4677734
			c-0.2158203,0.2822266-0.5756836,0.5341797-1.1210938,0.5341797
			C110.2416992,43.0839043,109.6601562,42.7538261,109.6601562,42.118084z M111.9448242,41.8778496v-0.2998047
			c-0.2275391-0.0654297-0.5336914-0.1318359-0.9111328-0.1318359c-0.5820312,0-0.9057617,0.2519531-0.9057617,0.6416016v0.0117188
			c0,0.390625,0.3598633,0.6181641,0.7797852,0.6181641C111.4770508,42.7176933,111.9448242,42.3700371,111.9448242,41.8778496z"/>
		<path class="st0" d="M113.2661133,38.6395683h0.4619141v4.3779297h-0.4619141V38.6395683z"/>
		<path class="st0" d="M114.3999023,42.6219902l0.2338867-0.3300781c0.3359375,0.2519531,0.7075195,0.3955078,1.0732422,0.3955078
			c0.3720703,0,0.6420898-0.1914062,0.6420898-0.4912109v-0.0126953c0-0.3115234-0.3662109-0.4316406-0.7739258-0.5449219
			c-0.4858398-0.1386719-1.0253906-0.3066406-1.0253906-0.8759766v-0.0117188c0-0.5341797,0.4438477-0.8876953,1.0556641-0.8876953
			c0.3774414,0,0.7973633,0.1318359,1.1152344,0.3417969l-0.2099609,0.3476562
			c-0.2875977-0.1855469-0.6176758-0.2998047-0.9174805-0.2998047c-0.3657227,0-0.5996094,0.1923828-0.5996094,0.4501953v0.0117188
			c0,0.2939453,0.3837891,0.4082031,0.7973633,0.5341797c0.4799805,0.1435547,0.9956055,0.3291016,0.9956055,0.8867188v0.0126953
			c0,0.5869141-0.4858398,0.9287109-1.1035156,0.9287109C115.2392578,43.0770683,114.7475586,42.9032402,114.3999023,42.6219902z"/>
		<path class="st0" d="M118.9658203,41.4823418V41.470623c0-0.8759766,0.6835938-1.6191406,1.6191406-1.6191406
			c0.9296875,0,1.6132812,0.7314453,1.6132812,1.6064453v0.0126953c0,0.875-0.6899414,1.6191406-1.625,1.6191406
			C119.6435547,43.0897636,118.9658203,42.3583183,118.9658203,41.4823418z M121.7246094,41.4823418V41.470623
			c0-0.6660156-0.4980469-1.2119141-1.1513672-1.2119141c-0.671875,0-1.1337891,0.5458984-1.1337891,1.1992188v0.0126953
			c0,0.6650391,0.4916992,1.2050781,1.1455078,1.2050781C121.2568359,42.6757011,121.7246094,42.1356621,121.7246094,41.4823418z"/>
		<path class="st0" d="M122.8896484,39.9169121h0.4619141v0.5400391c0.2036133-0.3359375,0.527832-0.6054688,1.0615234-0.6054688
			c0.7495117,0,1.1870117,0.5039062,1.1870117,1.2412109v1.9248047h-0.4614258v-1.8105469
			c0-0.5761719-0.3120117-0.9355469-0.8579102-0.9355469c-0.5336914,0-0.9291992,0.3896484-0.9291992,0.9707031v1.7753906
			h-0.4619141V39.9169121z"/>
		<path class="st0" d="M126.4838867,38.6395683h0.4619141v4.3779297h-0.4619141V38.6395683z"/>
		<path class="st0" d="M130.1962891,39.9169121h0.4916992l-1.3012695,3.2021484
			c-0.2636719,0.6416016-0.5634766,0.8759766-1.03125,0.8759766c-0.2578125,0-0.449707-0.0537109-0.659668-0.15625
			l0.1557617-0.3652344c0.1499023,0.078125,0.2880859,0.1132812,0.4858398,0.1132812
			c0.2758789,0,0.449707-0.1435547,0.6357422-0.5810547l-1.4091797-3.0888672h0.5092773l1.1274414,2.5849609L130.1962891,39.9169121
			z"/>
		<path class="st0" d="M130.7075195,42.3876152h0.5517578v0.6298828h-0.5517578V42.3876152z"/>
		<path class="st0" d="M133.8212891,38.8202324h0.4794922l1.5292969,2.2900391l1.5292969-2.2900391h0.4794922v4.1972656h-0.4736328
			v-3.4003906l-1.5292969,2.2490234h-0.0239258l-1.5292969-2.2431641v3.3945312h-0.4614258V38.8202324z"/>
		<path class="st0" d="M138.5732422,42.118084v-0.0117188c0-0.6542969,0.5400391-1.0019531,1.3251953-1.0019531
			c0.3959961,0,0.6777344,0.0537109,0.9536133,0.1318359v-0.1074219c0-0.5576172-0.3417969-0.8457031-0.9233398-0.8457031
			c-0.3657227,0-0.6538086,0.0957031-0.9414062,0.2275391l-0.1381836-0.3779297
			c0.3417969-0.1552734,0.6777344-0.2578125,1.1274414-0.2578125c0.4379883,0,0.7734375,0.1142578,1.0014648,0.3417969
			c0.2099609,0.2099609,0.3178711,0.5097656,0.3178711,0.90625v1.8945312h-0.4438477v-0.4677734
			c-0.2158203,0.2822266-0.5756836,0.5341797-1.1210938,0.5341797
			C139.1547852,43.0839043,138.5732422,42.7538261,138.5732422,42.118084z M140.8579102,41.8778496v-0.2998047
			c-0.2275391-0.0654297-0.5336914-0.1318359-0.9111328-0.1318359c-0.5820312,0-0.9057617,0.2519531-0.9057617,0.6416016v0.0117188
			c0,0.390625,0.3598633,0.6181641,0.7797852,0.6181641C140.3901367,42.7176933,140.8579102,42.3700371,140.8579102,41.8778496z"/>
		<path class="st0" d="M144.3320312,39.9169121h0.4916992l-1.3012695,3.2021484
			c-0.2636719,0.6416016-0.5634766,0.8759766-1.03125,0.8759766c-0.2578125,0-0.449707-0.0537109-0.659668-0.15625
			l0.1557617-0.3652344c0.1499023,0.078125,0.2880859,0.1132812,0.4858398,0.1132812
			c0.2758789,0,0.449707-0.1435547,0.6357422-0.5810547l-1.4091797-3.0888672h0.5092773l1.1274414,2.5849609L144.3320312,39.9169121
			z"/>
		<path class="st0" d="M146.8413086,42.6512871l1.5234375-1.3427734c0.6416016-0.5761719,0.8754883-0.8994141,0.8754883-1.3193359
			c0-0.4921875-0.3896484-0.8037109-0.8457031-0.8037109c-0.4794922,0-0.7915039,0.2519531-1.1274414,0.7197266
			l-0.3476562-0.2519531c0.3779297-0.5634766,0.7734375-0.8935547,1.5112305-0.8935547
			c0.7553711,0,1.3012695,0.5039062,1.3012695,1.1875v0.0117188c0,0.6123047-0.3237305,0.9892578-1.0615234,1.6318359
			l-1.1210938,0.9951172h2.2246094v0.4316406h-2.9326172V42.6512871z"/>
		<path class="st0" d="M150.375,40.930584v-0.0117188c0-1.1757812,0.7016602-2.1708984,1.78125-2.1708984
			s1.7631836,0.9833984,1.7631836,2.1582031v0.0126953c0,1.1748047-0.6958008,2.1708984-1.7753906,2.1708984
			C151.059082,43.0897636,150.375,42.1063652,150.375,40.930584z M153.4277344,40.930584v-0.0117188
			c0-0.9179688-0.5039062-1.7392578-1.2836914-1.7392578c-0.7851562,0-1.2773438,0.8037109-1.2773438,1.7265625v0.0126953
			c0,0.9169922,0.5039062,1.7392578,1.2895508,1.7392578S153.4277344,41.8485527,153.4277344,40.930584z"/>
		<path class="st0" d="M154.3774414,42.6512871l1.5229492-1.3427734c0.6416016-0.5761719,0.8754883-0.8994141,0.8754883-1.3193359
			c0-0.4921875-0.3896484-0.8037109-0.8457031-0.8037109c-0.4794922,0-0.7915039,0.2519531-1.1274414,0.7197266
			l-0.3476562-0.2519531c0.3779297-0.5634766,0.7734375-0.8935547,1.5112305-0.8935547
			c0.7553711,0,1.3012695,0.5039062,1.3012695,1.1875v0.0117188c0,0.6123047-0.3237305,0.9892578-1.0615234,1.6318359
			l-1.1210938,0.9951172h2.2246094v0.4316406h-2.9321289V42.6512871z"/>
		<path class="st0" d="M157.8276367,42.6512871l1.5229492-1.3427734c0.6416016-0.5761719,0.8754883-0.8994141,0.8754883-1.3193359
			c0-0.4921875-0.3896484-0.8037109-0.8457031-0.8037109c-0.4794922,0-0.7915039,0.2519531-1.1274414,0.7197266
			l-0.3476562-0.2519531c0.3779297-0.5634766,0.7734375-0.8935547,1.5112305-0.8935547
			c0.7553711,0,1.3012695,0.5039062,1.3012695,1.1875v0.0117188c0,0.6123047-0.3237305,0.9892578-1.0615234,1.6318359
			l-1.1210938,0.9951172h2.2246094v0.4316406h-2.9321289V42.6512871z"/>
		<path class="st0" d="M163.2753906,38.8202324h0.4736328v4.1972656h-0.4736328V38.8202324z"/>
		<path class="st0" d="M164.8349609,38.8202324h0.4736328v1.8642578h2.4228516v-1.8642578h0.4736328v4.1972656h-0.4736328
			v-1.8886719h-2.4228516v1.8886719h-0.4736328V38.8202324z"/>
		<path class="st0" d="M173.0708008,43.1434746l-0.5576172-0.4980469c-0.3535156,0.2763672-0.8037109,0.4443359-1.3193359,0.4443359
			c-1.2773438,0-2.1347656-1.0019531-2.1347656-2.1591797v-0.0117188c0-1.1572266,0.8696289-2.1708984,2.1469727-2.1708984
			s2.1347656,1.0009766,2.1347656,2.1582031v0.0126953c0,0.5214844-0.1860352,1.0195312-0.4975586,1.4033203l0.5512695,0.4677734
			L173.0708008,43.1434746z M172.1772461,42.3397636l-0.7851562-0.671875l0.3173828-0.3535156l0.7856445,0.7138672
			c0.2280273-0.2998047,0.3540039-0.6777344,0.3540039-1.0976562v-0.0117188c0-0.9541016-0.6958008-1.7333984-1.6552734-1.7333984
			s-1.6430664,0.7675781-1.6430664,1.7207031v0.0126953c0,0.953125,0.6958008,1.7324219,1.6552734,1.7324219
			C171.5776367,42.6512871,171.9135742,42.5380058,172.1772461,42.3397636z"/>
		<path class="st0" d="M173.9970703,40.9725761h1.6669922v0.4853516h-1.6669922V40.9725761z"/>
		<path class="st0" d="M176.5048828,38.8202324h3.0341797v0.4316406h-2.5605469v1.4326172h2.2905273v0.4316406h-2.2905273v1.4697266
			h2.5908203v0.4316406h-3.0644531V38.8202324z"/>
		<path class="st0" d="M180.3808594,38.8202324h1.5712891c0.9472656,0,1.5708008,0.5029297,1.5708008,1.3310547v0.0117188
			c0,0.9052734-0.7553711,1.3730469-1.6489258,1.3730469h-1.0195312v1.4814453h-0.4736328V38.8202324z M181.8920898,41.1044121
			c0.6953125,0,1.1513672-0.3720703,1.1513672-0.9238281v-0.0117188c0-0.5996094-0.449707-0.9111328-1.1274414-0.9111328h-1.0615234
			v1.8466797H181.8920898z"/>
		<path class="st0" d="M184.059082,40.930584v-0.0117188c0-1.1875,0.8876953-2.1708984,2.1230469-2.1708984
			c0.7612305,0,1.2172852,0.2695312,1.6367188,0.6650391l-0.3237305,0.3486328
			c-0.3535156-0.3359375-0.7495117-0.5761719-1.3193359-0.5761719c-0.9291992,0-1.625,0.7558594-1.625,1.7207031v0.0126953
			c0,0.9716797,0.7016602,1.7324219,1.625,1.7324219c0.5756836,0,0.9536133-0.2216797,1.3554688-0.6054688l0.3120117,0.3056641
			c-0.4379883,0.4443359-0.9174805,0.7382812-1.6791992,0.7382812
			C184.9526367,43.0897636,184.059082,42.1356621,184.059082,40.930584z"/>
		<path class="st0" d="M188.2885742,40.9725761h1.6669922v0.4853516h-1.6669922V40.9725761z"/>
		<path class="st0" d="M190.574707,40.930584v-0.0117188c0-1.1757812,0.7016602-2.1708984,1.78125-2.1708984
			s1.7631836,0.9833984,1.7631836,2.1582031v0.0126953c0,1.1748047-0.6958008,2.1708984-1.7753906,2.1708984
			C191.2583008,43.0897636,190.574707,42.1063652,190.574707,40.930584z M193.6274414,40.930584v-0.0117188
			c0-0.9179688-0.5039062-1.7392578-1.2836914-1.7392578c-0.7851562,0-1.2768555,0.8037109-1.2768555,1.7265625v0.0126953
			c0,0.9169922,0.503418,1.7392578,1.2890625,1.7392578S193.6274414,41.8485527,193.6274414,40.930584z"/>
		<path class="st0" d="M194.7143555,40.930584v-0.0117188c0-1.1757812,0.7016602-2.1708984,1.78125-2.1708984
			s1.7631836,0.9833984,1.7631836,2.1582031v0.0126953c0,1.1748047-0.6958008,2.1708984-1.7753906,2.1708984
			C195.3979492,43.0897636,194.7143555,42.1063652,194.7143555,40.930584z M197.7670898,40.930584v-0.0117188
			c0-0.9179688-0.5039062-1.7392578-1.2836914-1.7392578c-0.7851562,0-1.2768555,0.8037109-1.2768555,1.7265625v0.0126953
			c0,0.9169922,0.503418,1.7392578,1.2890625,1.7392578S197.7670898,41.8485527,197.7670898,40.930584z"/>
		<path class="st0" d="M198.8066406,42.423748l0.3120117-0.3417969c0.3657227,0.3535156,0.7675781,0.5761719,1.1933594,0.5761719
			c0.5996094,0,1.0131836-0.3964844,1.0131836-0.9296875v-0.0126953c0-0.5214844-0.4316406-0.8808594-1.043457-0.8808594
			c-0.3535156,0-0.6357422,0.1074219-0.8813477,0.2392578l-0.3178711-0.2089844l0.1196289-2.0449219h2.4169922v0.4375h-2.0029297
			l-0.0898438,1.3427734c0.2456055-0.1074219,0.4794922-0.1855469,0.8271484-0.1855469
			c0.815918,0,1.4516602,0.4853516,1.4516602,1.2832031v0.0117188c0,0.8222656-0.6240234,1.3798828-1.4995117,1.3798828
			C199.7060547,43.0897636,199.1845703,42.8016777,198.8066406,42.423748z"/>
		<path class="st0" d="M202.2387695,42.6512871l1.5234375-1.3427734c0.6416016-0.5761719,0.8754883-0.8994141,0.8754883-1.3193359
			c0-0.4921875-0.3896484-0.8037109-0.8457031-0.8037109c-0.4794922,0-0.7915039,0.2519531-1.1274414,0.7197266
			l-0.3476562-0.2519531c0.3779297-0.5634766,0.7734375-0.8935547,1.5112305-0.8935547
			c0.7553711,0,1.3012695,0.5039062,1.3012695,1.1875v0.0117188c0,0.6123047-0.3237305,0.9892578-1.0615234,1.6318359
			l-1.1210938,0.9951172h2.2246094v0.4316406h-2.9326172V42.6512871z"/>
	</g>
</g>
<g>
	<path class="st0" d="M64.9233398,6.0214043h2.4287109c2.1987305,0,3.7182617,1.5087891,3.7182617,3.4785156v0.0195312
		c0,1.96875-1.5195312,3.4980469-3.7182617,3.4980469h-2.4287109V6.0214043z M65.7128906,6.7508965v5.5371094h1.6391602
		c1.769043,0,2.8984375-1.1992188,2.8984375-2.7490234V9.5194511c0-1.5488281-1.1293945-2.7685547-2.8984375-2.7685547H65.7128906z"
		/>
	<path class="st0" d="M72.4335938,9.5389824V9.5194511c0-1.9287109,1.4492188-3.6181641,3.578125-3.6181641
		s3.5581055,1.6689453,3.5581055,3.5986328v0.0195312c0,1.9287109-1.4492188,3.6181641-3.578125,3.6181641
		S72.4335938,11.4686699,72.4335938,9.5389824z M78.75,9.5389824V9.5194511c0-1.5888672-1.1591797-2.8886719-2.7583008-2.8886719
		s-2.7387695,1.2792969-2.7387695,2.8691406v0.0195312c0,1.5888672,1.159668,2.8886719,2.7587891,2.8886719
		S78.75,11.1288261,78.75,9.5389824z"/>
	<path class="st0" d="M81.2431641,6.0214043h5.0576172v0.7197266h-4.2680664v2.3886719h3.8183594v0.7197266h-3.8183594v2.4482422
		h4.3178711v0.7197266h-5.1074219V6.0214043z"/>
	<path class="st0" d="M87.4838867,11.9979668l0.4897461-0.5800781c0.7294922,0.6601562,1.4291992,0.9902344,2.3984375,0.9902344
		c0.9394531,0,1.559082-0.5,1.559082-1.1894531v-0.0205078c0-0.6494141-0.3496094-1.0195312-1.8188477-1.3291016
		c-1.6088867-0.3496094-2.3486328-0.8691406-2.3486328-2.0185547V7.829998c0-1.0986328,0.9692383-1.9082031,2.2988281-1.9082031
		c1.0195312,0,1.7490234,0.2890625,2.4584961,0.859375l-0.4594727,0.609375
		c-0.6499023-0.5292969-1.2993164-0.7597656-2.019043-0.7597656c-0.909668,0-1.4892578,0.5-1.4892578,1.1298828v0.0195312
		c0,0.6601562,0.3598633,1.0292969,1.8989258,1.359375c1.559082,0.3398438,2.2788086,0.9091797,2.2788086,1.9785156v0.0205078
		c0,1.1992188-0.9995117,1.9785156-2.3886719,1.9785156C89.2329102,13.1171074,88.3232422,12.7479668,87.4838867,11.9979668z"/>
	<path class="st0" d="M96.8837891,11.9979668l0.4897461-0.5800781c0.7294922,0.6601562,1.4291992,0.9902344,2.3984375,0.9902344
		c0.9394531,0,1.559082-0.5,1.559082-1.1894531v-0.0205078c0-0.6494141-0.3496094-1.0195312-1.8188477-1.3291016
		c-1.6088867-0.3496094-2.3486328-0.8691406-2.3486328-2.0185547V7.829998c0-1.0986328,0.9692383-1.9082031,2.2988281-1.9082031
		c1.0195312,0,1.7490234,0.2890625,2.4584961,0.859375l-0.4594727,0.609375
		c-0.6499023-0.5292969-1.2993164-0.7597656-2.019043-0.7597656c-0.909668,0-1.4892578,0.5-1.4892578,1.1298828v0.0195312
		c0,0.6601562,0.3598633,1.0292969,1.8989258,1.359375c1.559082,0.3398438,2.2788086,0.9091797,2.2788086,1.9785156v0.0205078
		c0,1.1992188-0.9995117,1.9785156-2.3886719,1.9785156C98.6328125,13.1171074,97.7231445,12.7479668,96.8837891,11.9979668z"/>
	<path class="st0" d="M103.7431641,6.0214043h0.7895508v3.1083984h4.0380859V6.0214043h0.7895508v6.9960938h-0.7895508V9.8690605
		h-4.0380859v3.1484375h-0.7895508V6.0214043z"/>
	<path class="st0" d="M111.3432617,6.0214043h5.0576172v0.7197266h-4.2680664v2.3886719h3.8178711v0.7197266h-3.8178711v2.4482422
		h4.3178711v0.7197266h-5.1074219V6.0214043z"/>
	<path class="st0" d="M121.0429688,6.0214043h0.7895508v4.1777344l4.0180664-4.1777344h1.0292969L123.871582,9.079998L127,13.017498
		h-0.9897461l-2.6884766-3.3876953l-1.4892578,1.5087891v1.8789062h-0.7895508V6.0214043z"/>
	<path class="st0" d="M128.2329102,6.0214043h0.7397461l4.4077148,5.6064453V6.0214043h0.7695312v6.9960938h-0.6298828
		l-4.5175781-5.7373047v5.7373047h-0.7695312V6.0214043z"/>
	<path class="st0" d="M135.8232422,9.5389824V9.5194511c0-1.9287109,1.4492188-3.6181641,3.578125-3.6181641
		s3.5581055,1.6689453,3.5581055,3.5986328v0.0195312c0,1.9287109-1.4492188,3.6181641-3.578125,3.6181641
		S135.8232422,11.4686699,135.8232422,9.5389824z M142.1396484,9.5389824V9.5194511
		c0-1.5888672-1.1591797-2.8886719-2.7583008-2.8886719s-2.7387695,1.2792969-2.7387695,2.8691406v0.0195312
		c0,1.5888672,1.159668,2.8886719,2.7587891,2.8886719S142.1396484,11.1288261,142.1396484,9.5389824z"/>
	<path class="st0" d="M143.7329102,6.0214043h0.859375l1.9990234,5.8271484l1.9189453-5.8476562h0.6499023l1.9189453,5.8476562
		l1.9985352-5.8271484h0.8295898l-2.4985352,7.0458984h-0.6694336l-1.9189453-5.6767578l-1.9291992,5.6767578h-0.659668
		L143.7329102,6.0214043z"/>
	<path class="st0" d="M157.8027344,6.0214043h0.859375l1.9990234,5.8271484l1.9189453-5.8476562h0.6499023l1.9189453,5.8476562
		l1.9985352-5.8271484h0.8295898l-2.4985352,7.0458984h-0.6694336l-1.9189453-5.6767578l-1.9291992,5.6767578h-0.659668
		L157.8027344,6.0214043z"/>
	<path class="st0" d="M169.4125977,6.0214043h0.7895508v3.1083984h4.0380859V6.0214043h0.7895508v6.9960938h-0.7895508V9.8690605
		h-4.0380859v3.1484375h-0.7895508V6.0214043z"/>
	<path class="st0" d="M177.012207,6.0214043h5.0576172v0.7197266h-4.2680664v2.3886719h3.8178711v0.7197266h-3.8178711v2.4482422
		h4.3178711v0.7197266h-5.1074219V6.0214043z"/>
	<path class="st0" d="M183.7124023,6.0214043h0.7397461l4.4077148,5.6064453V6.0214043h0.7695312v6.9960938h-0.6298828
		l-4.5175781-5.7373047v5.7373047h-0.7695312V6.0214043z"/>
</g>
<g>
	<path class="st0" d="M59.8632812,16.0214043h1.5395508v2.7685547h2.8383789v-2.7685547h1.5390625v6.9960938h-1.5390625v-2.8085938
		H61.402832v2.8085938h-1.5395508V16.0214043z"/>
	<path class="st0" d="M67.4633789,16.0214043h5.2773438v1.3691406h-3.7480469v1.4189453h3.2983398v1.3691406h-3.2983398v1.4697266
		h3.7978516v1.3691406h-5.3271484V16.0214043z"/>
	<path class="st0" d="M74.1630859,16.0214043h3.1982422c0.8896484,0,1.5791016,0.25,2.0390625,0.7099609
		C79.7900391,17.1210136,80,17.6708183,80,18.329998v0.0205078c0,1.1289062-0.609375,1.8388672-1.4990234,2.1679688
		l1.7089844,2.4990234h-1.7988281l-1.4995117-2.2382812h-1.2089844v2.2382812h-1.5395508V16.0214043z M77.2617188,19.4198418
		c0.7495117,0,1.1791992-0.4003906,1.1791992-0.9902344v-0.0195312c0-0.6601562-0.4599609-0.9990234-1.2094727-0.9990234h-1.5288086
		v2.0087891H77.2617188z"/>
	<path class="st0" d="M84.3930664,16.0214043H85.8125l3.2783203,4.3076172v-4.3076172h1.519043v6.9960938h-1.309082
		l-3.3881836-4.4472656v4.4472656h-1.5195312V16.0214043z"/>
	<path class="st0" d="M92.2929688,16.0214043h5.2773438v1.3691406h-3.7480469v1.4189453h3.2983398v1.3691406h-3.2983398v1.4697266
		h3.7978516v1.3691406h-5.3271484V16.0214043z"/>
	<path class="st0" d="M105.0600586,16.0214043l-2.3388672,3.4179688l2.4389648,3.578125h-1.7993164l-1.5688477-2.3984375
		l-1.5791016,2.3984375h-1.7490234l2.4384766-3.5576172l-2.3388672-3.4384766h1.7993164l1.4589844,2.2685547l1.4892578-2.2685547
		H105.0600586z"/>
	<path class="st0" d="M107.9423828,17.4403496h-2.1289062v-1.4189453h5.796875v1.4189453h-2.1289062v5.5771484h-1.5390625
		V17.4403496z"/>
	<path class="st0" d="M115.7924805,16.0214043h1.6591797l1.8388672,2.9580078l1.8393555-2.9580078h1.6586914v6.9960938h-1.5288086
		v-4.5673828l-1.9692383,2.9882812h-0.0395508l-1.9492188-2.9580078v4.5371094h-1.5092773V16.0214043z"/>
	<path class="st0" d="M124.4726562,16.0214043H129.75v1.3691406h-3.7480469v1.4189453h3.2983398v1.3691406h-3.2983398v1.4697266
		h3.7978516v1.3691406h-5.3271484V16.0214043z"/>
	<path class="st0" d="M133.5717773,15.9715996h1.4189453l2.9985352,7.0458984h-1.6088867l-0.6396484-1.5693359h-2.9584961
		l-0.6396484,1.5693359h-1.5693359L133.5717773,15.9715996z M135.190918,20.0887871l-0.9296875-2.2685547l-0.9291992,2.2685547
		H135.190918z"/>
	<path class="st0" d="M139.0727539,16.0214043h1.5395508v5.5966797h3.487793v1.3994141h-5.0273438V16.0214043z"/>
</g>
<g>
	<path class="st0" d="M147.8735352,16.0214043h0.859375l1.9990234,5.8271484l1.9189453-5.8476562h0.6499023l1.9189453,5.8476562
		l1.9985352-5.8271484h0.8295898l-2.4985352,7.0458984h-0.6694336l-1.9189453-5.6767578l-1.9291992,5.6767578h-0.659668
		L147.8735352,16.0214043z"/>
	<path class="st0" d="M159.5532227,16.0214043h0.7895508v6.9960938h-0.7895508V16.0214043z"/>
	<path class="st0" d="M162.3925781,16.0214043h0.7895508v6.2666016h3.9379883v0.7294922h-4.7275391V16.0214043z"/>
	<path class="st0" d="M168.5424805,16.0214043h0.7895508v6.2666016h3.9379883v0.7294922h-4.7275391V16.0214043z"/>
	<path class="st0" d="M177.6923828,16.0214043h2.9785156c0.7998047,0,1.4291992,0.2294922,1.8291016,0.6191406
		c0.2895508,0.3007812,0.449707,0.6699219,0.449707,1.1201172v0.0195312c0,0.9101562-0.5595703,1.3798828-1.109375,1.6191406
		c0.8295898,0.25,1.4990234,0.7294922,1.4990234,1.6894531v0.0195312c0,1.1992188-1.0092773,1.9091797-2.5385742,1.9091797
		h-3.1083984V16.0214043z M182.1499023,17.8700371c0-0.6894531-0.5493164-1.1386719-1.5488281-1.1386719h-2.1289062v2.4082031
		h2.0688477c0.949707,0,1.6088867-0.4296875,1.6088867-1.2490234V17.8700371z M180.6811523,19.8387871h-2.2089844v2.46875h2.3486328
		c1.0595703,0,1.7192383-0.4697266,1.7192383-1.2490234v-0.0195312
		C182.5400391,20.2792168,181.9003906,19.8387871,180.6811523,19.8387871z"/>
	<path class="st0" d="M184.9121094,16.0214043h5.0576172v0.7197266h-4.2680664v2.3886719h3.8183594v0.7197266h-3.8183594v2.4482422
		h4.3178711v0.7197266h-5.1074219V16.0214043z"/>
</g>
<g>
	<g>
		<path class="st1" d="M202.5624695,16.0369987l0.197998-0.198c5.2409973-0.1189995,8.2569885-3.3349972,8.2569885-7.145998
			V8.6140022c0-3.2550011-2.5399933-6.788002-6.5889893-6.788002c-3.1760101,0-5.5970001,1.5480003-7.6610107,4.0880013
			l-1.4299927-1.1900024C197.6004639,1.9049988,200.299469,0,204.5074615,0c5.2400055,0,8.6139984,4.2869987,8.6139984,8.5340004
			v0.0800018c0,4.9219971-3.8110046,8.3359966-8.4149933,8.8919983l-0.2420044,5.5569992h-1.7059937L202.5624695,16.0369987z"/>
	</g>
	<g>
		<path class="st1" d="M204.8276672,25.831398c0,0.6650009-0.5390015,1.2040005-1.20401,1.2040005
			c-0.6649933,0-1.2039948-0.5389996-1.2039948-1.2040005c0-0.664999,0.5390015-1.2039986,1.2039948-1.2039986
			C204.2886658,24.6273994,204.8276672,25.166399,204.8276672,25.831398"/>
	</g>
</g>
</svg>
