<?xml version="1.0" encoding="utf-8"?>
<!-- Generator: Adobe Illustrator 26.3.1, SVG Export Plug-In . SVG Version: 6.00 Build 0)  -->
<svg version="1.1" id="Layer_1" xmlns="http://www.w3.org/2000/svg" xmlns:xlink="http://www.w3.org/1999/xlink" x="0px" y="0px"
	 viewBox="0 0 234.6191406 43.9950371" style="enable-background:new 0 0 234.6191406 43.9950371;" xml:space="preserve">
<style type="text/css">
	.st0{fill:#FFFFFF;}
</style>
<g>
	<g>
		<g>
			<g>
				<path class="st0" d="M53.3154297,6.0214043h0.859375l1.9990234,5.8271484l1.9189453-5.8476562h0.6494141l1.9189453,5.8476562
					l1.9990234-5.8271484h0.8291016l-2.4980469,7.0458984h-0.6699219l-1.9189453-5.6767578l-1.9287109,5.6767578h-0.6601562
					L53.3154297,6.0214043z"/>
				<path class="st0" d="M64.9951172,6.0214043h0.7890625v6.9960938h-0.7890625V6.0214043z"/>
				<path class="st0" d="M67.8339844,6.0214043h0.7900391v6.2666016h3.9375v0.7294922h-4.7275391V6.0214043z"/>
				<path class="st0" d="M73.984375,6.0214043h0.7900391v6.2666016h3.9375v0.7294922H73.984375V6.0214043z"/>
				<path class="st0" d="M83.1337891,6.0214043h0.7900391v3.1083984h4.0371094V6.0214043h0.7900391v6.9960938h-0.7900391V9.8690605
					h-4.0371094v3.1484375h-0.7900391V6.0214043z"/>
				<path class="st0" d="M90.734375,6.0214043h5.0576172v0.7197266h-4.2675781v2.3886719h3.8173828v0.7197266h-3.8173828v2.4482422
					h4.3173828v0.7197266H90.734375V6.0214043z"/>
				<path class="st0" d="M100.4335938,6.0214043h2.9785156c0.7998047,0,1.4296875,0.2294922,1.8291016,0.6191406
					c0.2900391,0.3007812,0.4492188,0.6699219,0.4492188,1.1201172v0.0195312c0,0.9101562-0.5595703,1.3798828-1.109375,1.6191406
					c0.8300781,0.25,1.5,0.7294922,1.5,1.6894531v0.0195312c0,1.1992188-1.0097656,1.9091797-2.5390625,1.9091797h-3.1083984
					V6.0214043z M104.8916016,7.8700371c0-0.6894531-0.5498047-1.1386719-1.5498047-1.1386719h-2.1289062v2.4082031h2.0693359
					c0.9492188,0,1.609375-0.4296875,1.609375-1.2490234V7.8700371z M103.421875,9.8387871h-2.2089844v2.46875H103.5625
					c1.0585938,0,1.71875-0.4697266,1.71875-1.2490234v-0.0195312C105.28125,10.2792168,104.6416016,9.8387871,103.421875,9.8387871
					z"/>
				<path class="st0" d="M107.6533203,6.0214043h5.0576172v0.7197266h-4.2675781v2.3886719h3.8173828v0.7197266h-3.8173828
					v2.4482422h4.3173828v0.7197266h-5.1074219V6.0214043z"/>
				<path class="st0" d="M117.3535156,6.0214043h2.9785156c0.7998047,0,1.4296875,0.2294922,1.8291016,0.6191406
					c0.2900391,0.3007812,0.4492188,0.6699219,0.4492188,1.1201172v0.0195312c0,0.9101562-0.5595703,1.3798828-1.109375,1.6191406
					c0.8300781,0.25,1.5,0.7294922,1.5,1.6894531v0.0195312c0,1.1992188-1.0097656,1.9091797-2.5390625,1.9091797h-3.1083984
					V6.0214043z M121.8115234,7.8700371c0-0.6894531-0.5498047-1.1386719-1.5498047-1.1386719h-2.1289062v2.4082031h2.0693359
					c0.9492188,0,1.609375-0.4296875,1.609375-1.2490234V7.8700371z M120.3417969,9.8387871h-2.2089844v2.46875h2.3496094
					c1.0585938,0,1.71875-0.4697266,1.71875-1.2490234v-0.0195312
					C122.2011719,10.2792168,121.5615234,9.8387871,120.3417969,9.8387871z"/>
				<path class="st0" d="M127.0517578,5.9715996h0.7392578l3.1884766,7.0458984h-0.8496094l-0.8193359-1.8486328h-3.8076172
					l-0.8300781,1.8486328h-0.8095703L127.0517578,5.9715996z M129.0009766,10.4589043l-1.5898438-3.5683594L125.8125,10.4589043
					H129.0009766z"/>
				<path class="st0" d="M131.6435547,9.5389824V9.5194511c0-1.9785156,1.4794922-3.6181641,3.5380859-3.6181641
					c1.2695312,0,2.0283203,0.4501953,2.7285156,1.109375l-0.5400391,0.5800781
					c-0.5898438-0.5595703-1.2490234-0.9599609-2.1982422-0.9599609c-1.5498047,0-2.7089844,1.2597656-2.7089844,2.8691406
					v0.0195312c0,1.6191406,1.1699219,2.8886719,2.7089844,2.8886719c0.9589844,0,1.5888672-0.3701172,2.2587891-1.0097656
					l0.5195312,0.5097656c-0.7294922,0.7392578-1.5292969,1.2294922-2.7988281,1.2294922
					C133.1328125,13.1376152,131.6435547,11.548748,131.6435547,9.5389824z"/>
				<path class="st0" d="M139.3730469,6.0214043h0.7900391v4.1777344l4.0175781-4.1777344h1.0292969l-3.0078125,3.0585938
					l3.1279297,3.9375h-0.9892578l-2.6884766-3.3876953l-1.4892578,1.5087891v1.8789062h-0.7900391V6.0214043z"/>
				<path class="st0" d="M149.5625,6.0214043h5.0273438v0.7294922h-4.2373047v2.4990234h3.7880859v0.7197266h-3.7880859v3.0478516
					H149.5625V6.0214043z"/>
				<path class="st0" d="M155.6728516,9.5389824V9.5194511c0-1.9287109,1.4492188-3.6181641,3.578125-3.6181641
					s3.5576172,1.6689453,3.5576172,3.5986328v0.0195312c0,1.9287109-1.4492188,3.6181641-3.578125,3.6181641
					S155.6728516,11.4686699,155.6728516,9.5389824z M161.9892578,9.5389824V9.5194511
					c0-1.5888672-1.1591797-2.8886719-2.7587891-2.8886719c-1.5986328,0-2.7382812,1.2792969-2.7382812,2.8691406v0.0195312
					c0,1.5888672,1.1591797,2.8886719,2.7587891,2.8886719C160.8496094,12.408123,161.9892578,11.1288261,161.9892578,9.5389824z"/>
				<path class="st0" d="M164.4824219,6.0214043h3.0087891c0.859375,0,1.5488281,0.2597656,1.9882812,0.6992188
					c0.3398438,0.3398438,0.5400391,0.8300781,0.5400391,1.3798828v0.0195312c0,1.1591797-0.7998047,1.8388672-1.8984375,2.0390625
					l2.1484375,2.8583984h-0.9697266l-2.0283203-2.71875h-1.9990234v2.71875h-0.7900391V6.0214043z M167.4208984,9.5897636
					c1.0498047,0,1.7988281-0.5400391,1.7988281-1.4394531V8.1298027c0-0.859375-0.6591797-1.3789062-1.7890625-1.3789062
					h-2.1582031v2.8388672H167.4208984z"/>
				<path class="st0" d="M174.7128906,6.0214043h0.7900391v3.1083984h4.0371094V6.0214043h0.7900391v6.9960938h-0.7900391V9.8690605
					h-4.0371094v3.1484375h-0.7900391V6.0214043z"/>
				<path class="st0" d="M182.3828125,6.0214043h0.7890625v6.9960938h-0.7890625V6.0214043z"/>
				<path class="st0" d="M184.7626953,11.9979668l0.4902344-0.5800781c0.7294922,0.6601562,1.4287109,0.9902344,2.3984375,0.9902344
					c0.9394531,0,1.5595703-0.5,1.5595703-1.1894531v-0.0205078c0-0.6494141-0.3496094-1.0195312-1.8193359-1.3291016
					c-1.609375-0.3496094-2.3486328-0.8691406-2.3486328-2.0185547V7.829998c0-1.0986328,0.9697266-1.9082031,2.2988281-1.9082031
					c1.0195312,0,1.7490234,0.2890625,2.4589844,0.859375l-0.4599609,0.609375
					c-0.6494141-0.5292969-1.2998047-0.7597656-2.0195312-0.7597656c-0.9091797,0-1.4892578,0.5-1.4892578,1.1298828v0.0195312
					c0,0.6601562,0.3603516,1.0292969,1.8994141,1.359375c1.5595703,0.3398438,2.2783203,0.9091797,2.2783203,1.9785156v0.0205078
					c0,1.1992188-0.9990234,1.9785156-2.3886719,1.9785156C186.5117188,13.1171074,185.6025391,12.7479668,184.7626953,11.9979668z"
					/>
			</g>
		</g>
		<g>
			<g>
				<path class="st0" d="M46.875,16.0214043h5.3271484v1.3994141h-3.7880859v1.4892578h3.3378906v1.3984375h-3.3378906v2.7089844
					H46.875V16.0214043z"/>
				<path class="st0" d="M53.1240234,19.5389824v-0.0195312c0-1.9892578,1.5693359-3.6181641,3.7285156-3.6181641
					c2.1582031,0,3.7080078,1.609375,3.7080078,3.5986328v0.0195312c0,1.9892578-1.5693359,3.6181641-3.7285156,3.6181641
					C54.6738281,23.1376152,53.1240234,21.5282402,53.1240234,19.5389824z M58.9511719,19.5389824v-0.0195312
					c0-1.1992188-0.8798828-2.1992188-2.1191406-2.1992188s-2.0986328,0.9794922-2.0986328,2.1796875v0.0195312
					c0,1.1992188,0.8798828,2.1992188,2.1191406,2.1992188S58.9511719,20.7391777,58.9511719,19.5389824z"/>
				<path class="st0" d="M61.9345703,16.0214043h1.5390625v5.5966797h3.4882812v1.3994141h-5.0273438V16.0214043z"/>
				<path class="st0" d="M68.125,16.0214043h1.5390625v5.5966797h3.4882812v1.3994141H68.125V16.0214043z"/>
				<path class="st0" d="M73.6142578,19.5389824v-0.0195312c0-1.9892578,1.5693359-3.6181641,3.7285156-3.6181641
					c2.1582031,0,3.7080078,1.609375,3.7080078,3.5986328v0.0195312c0,1.9892578-1.5693359,3.6181641-3.7285156,3.6181641
					C75.1640625,23.1376152,73.6142578,21.5282402,73.6142578,19.5389824z M79.4414062,19.5389824v-0.0195312
					c0-1.1992188-0.8798828-2.1992188-2.1191406-2.1992188s-2.0986328,0.9794922-2.0986328,2.1796875v0.0195312
					c0,1.1992188,0.8798828,2.1992188,2.1191406,2.1992188S79.4414062,20.7391777,79.4414062,19.5389824z"/>
				<path class="st0" d="M81.4941406,16.0214043h1.6494141l1.4492188,4.7373047l1.5683594-4.7578125h1.3193359l1.5693359,4.7578125
					l1.4492188-4.7373047h1.609375l-2.3886719,7.0458984h-1.3388672l-1.5800781-4.5771484l-1.5791016,4.5771484h-1.3388672
					L81.4941406,16.0214043z"/>
				<path class="st0" d="M92.5644531,19.189373h3.078125v1.4589844h-3.078125V19.189373z"/>
				<path class="st0" d="M96.8740234,20.0194511v-3.9980469h1.5390625v3.9580078
					c0,1.1386719,0.5703125,1.7285156,1.5097656,1.7285156s1.5087891-0.5693359,1.5087891-1.6787109v-4.0078125h1.5390625v3.9482422
					c0,2.1181641-1.1894531,3.1582031-3.0683594,3.1582031S96.8740234,22.0780449,96.8740234,20.0194511z"/>
				<path class="st0" d="M104.5439453,16.0214043h2.8583984c1.6689453,0,2.6787109,0.9892578,2.6787109,2.4189453v0.0195312
					c0,1.6191406-1.2597656,2.4589844-2.8291016,2.4589844h-1.1689453v2.0986328h-1.5390625V16.0214043z M107.3017578,19.5497246
					c0.7695312,0,1.2197266-0.4599609,1.2197266-1.0595703v-0.0205078c0-0.6894531-0.4794922-1.0585938-1.2490234-1.0585938
					h-1.1894531v2.1386719H107.3017578z"/>
				<path class="st0" d="M116.6230469,15.9715996h1.4189453l2.9990234,7.0458984h-1.609375l-0.6396484-1.5693359h-2.9589844
					l-0.6396484,1.5693359H113.625L116.6230469,15.9715996z M118.2421875,20.0887871L117.3125,17.8202324l-0.9296875,2.2685547
					H118.2421875z"/>
				<path class="st0" d="M122.1240234,16.0214043h2.8583984c1.6689453,0,2.6787109,0.9892578,2.6787109,2.4189453v0.0195312
					c0,1.6191406-1.2597656,2.4589844-2.8291016,2.4589844h-1.1689453v2.0986328h-1.5390625V16.0214043z M124.8818359,19.5497246
					c0.7695312,0,1.2197266-0.4599609,1.2197266-1.0595703v-0.0205078c0-0.6894531-0.4794922-1.0585938-1.2490234-1.0585938
					h-1.1894531v2.1386719H124.8818359z"/>
				<path class="st0" d="M128.8037109,16.0214043h2.8583984c1.6689453,0,2.6787109,0.9892578,2.6787109,2.4189453v0.0195312
					c0,1.6191406-1.2597656,2.4589844-2.8291016,2.4589844h-1.1689453v2.0986328h-1.5390625V16.0214043z M131.5615234,19.5497246
					c0.7695312,0,1.2197266-0.4599609,1.2197266-1.0595703v-0.0205078c0-0.6894531-0.4794922-1.0585938-1.2490234-1.0585938
					h-1.1894531v2.1386719H131.5615234z"/>
				<path class="st0" d="M135.1738281,19.5389824v-0.0195312c0-1.9892578,1.5693359-3.6181641,3.7285156-3.6181641
					c2.1582031,0,3.7080078,1.609375,3.7080078,3.5986328v0.0195312c0,1.9892578-1.5693359,3.6181641-3.7285156,3.6181641
					C136.7236328,23.1376152,135.1738281,21.5282402,135.1738281,19.5389824z M141.0009766,19.5389824v-0.0195312
					c0-1.1992188-0.8798828-2.1992188-2.1191406-2.1992188s-2.0986328,0.9794922-2.0986328,2.1796875v0.0195312
					c0,1.1992188,0.8798828,2.1992188,2.1191406,2.1992188S141.0009766,20.7391777,141.0009766,19.5389824z"/>
				<path class="st0" d="M144.0537109,16.0214043h1.5390625v6.9960938h-1.5390625V16.0214043z"/>
				<path class="st0" d="M147.34375,16.0214043h1.4189453l3.2783203,4.3076172v-4.3076172h1.5185547v6.9960938h-1.3085938
					l-3.3886719-4.4472656v4.4472656H147.34375V16.0214043z"/>
				<path class="st0" d="M156.8730469,17.4403496h-2.1289062v-1.4189453h5.796875v1.4189453h-2.1289062v5.5771484h-1.5390625
					V17.4403496z"/>
				<path class="st0" d="M161.7236328,16.0214043h1.6591797l1.8388672,2.9580078l1.8388672-2.9580078h1.6591797v6.9960938
					h-1.5292969v-4.5673828l-1.96875,2.9882812h-0.0400391l-1.9492188-2.9580078v4.5371094h-1.5087891V16.0214043z"/>
				<path class="st0" d="M170.4042969,16.0214043h5.2763672v1.3691406h-3.7470703v1.4189453h3.2978516v1.3691406h-3.2978516
					v1.4697266h3.7978516v1.3691406h-5.3271484V16.0214043z"/>
				<path class="st0" d="M177.1035156,16.0214043h1.4189453l3.2783203,4.3076172v-4.3076172h1.5185547v6.9960938h-1.3085938
					l-3.3886719-4.4472656v4.4472656h-1.5185547V16.0214043z"/>
				<path class="st0" d="M186.6328125,17.4403496h-2.1289062v-1.4189453h5.796875v1.4189453h-2.1289062v5.5771484h-1.5390625
					V17.4403496z"/>
			</g>
		</g>
	</g>
</g>
</svg>
