<?xml version="1.0" encoding="UTF-8"?><svg id="a" xmlns="http://www.w3.org/2000/svg" viewBox="0 0 73.75 4.4"><defs><style>.b{fill:#fff;}</style></defs><path class="b" d="M0,3.59l.34-.29c.26,.39,.52,.6,.96,.6,.47,0,.82-.34,.82-1.01V.07h.48V2.88c0,.49-.14,.86-.38,1.1-.23,.23-.55,.35-.92,.35-.63,0-1.03-.31-1.29-.74Z"/><path class="b" d="M3.46,3.09V1.17h.46v1.81c0,.58,.31,.94,.86,.94s.93-.39,.93-.97V1.17h.46v3.1h-.46v-.54c-.21,.34-.53,.61-1.06,.61-.75,0-1.19-.5-1.19-1.24Z"/><path class="b" d="M7.06,1.17h.46v.54c.2-.34,.53-.61,1.06-.61,.75,0,1.19,.5,1.19,1.24v1.92h-.46v-1.81c0-.58-.31-.94-.86-.94s-.93,.39-.93,.97v1.78h-.46V1.17Z"/><path class="b" d="M10.42,2.73h0c0-.91,.63-1.62,1.49-1.62,.92,0,1.45,.73,1.45,1.64,0,.06,0,.1,0,.15h-2.46c.07,.67,.54,1.05,1.09,1.05,.43,0,.73-.17,.98-.44l.29,.26c-.31,.35-.69,.58-1.28,.58-.85,0-1.55-.65-1.55-1.61Zm2.46-.18c-.05-.56-.37-1.06-.99-1.06-.54,0-.95,.45-1.01,1.06h2Z"/><path class="b" d="M15.44,3.9l1.52-1.34c.64-.58,.88-.9,.88-1.32,0-.49-.39-.8-.85-.8-.48,0-.79,.25-1.13,.72l-.35-.25c.38-.56,.77-.89,1.51-.89s1.3,.5,1.3,1.19h0c0,.62-.32,1-1.06,1.64l-1.12,1h2.22v.43h-2.93v-.37Z"/><path class="b" d="M18.98,2.18h0c0-1.19,.7-2.18,1.78-2.18s1.76,.98,1.76,2.16h0c0,1.19-.7,2.18-1.78,2.18s-1.77-.98-1.77-2.16Zm3.05,0h0c0-.93-.5-1.75-1.28-1.75s-1.28,.8-1.28,1.73h0c0,.93,.5,1.75,1.29,1.75s1.27-.81,1.27-1.73Z"/><path class="b" d="M22.98,3.9l1.52-1.34c.64-.58,.88-.9,.88-1.32,0-.49-.39-.8-.85-.8-.48,0-.79,.25-1.13,.72l-.35-.25c.38-.56,.77-.89,1.51-.89s1.3,.5,1.3,1.19h0c0,.62-.32,1-1.06,1.64l-1.12,1h2.22v.43h-2.93v-.37Z"/><path class="b" d="M26.43,3.9l1.52-1.34c.64-.58,.88-.9,.88-1.32,0-.49-.39-.8-.85-.8-.48,0-.79,.25-1.13,.72l-.35-.25c.38-.56,.77-.89,1.51-.89s1.3,.5,1.3,1.19h0c0,.62-.32,1-1.06,1.64l-1.12,1h2.22v.43h-2.93v-.37Z"/><path class="b" d="M31.88,.07h.47V4.27h-.47V.07Z"/><path class="b" d="M33.44,.07h.47V1.94h2.42V.07h.47V4.27h-.47v-1.89h-2.42v1.89h-.47V.07Z"/><path class="b" d="M41.67,4.4l-.56-.5c-.35,.28-.8,.44-1.32,.44-1.28,0-2.13-1-2.13-2.16h0c0-1.17,.87-2.18,2.15-2.18s2.13,1,2.13,2.16h0c0,.53-.19,1.03-.5,1.42l.55,.47-.32,.35Zm-.89-.8l-.79-.67,.32-.35,.79,.71c.23-.3,.35-.68,.35-1.1h0c0-.97-.7-1.75-1.66-1.75s-1.64,.77-1.64,1.72h0c0,.97,.7,1.75,1.66,1.75,.37,0,.71-.11,.97-.31Z"/><path class="b" d="M42.6,2.22h1.67v.49h-1.67v-.49Z"/><path class="b" d="M45.11,.07h3.03v.43h-2.56V1.94h2.29v.43h-2.29v1.47h2.59v.43h-3.06V.07Z"/><path class="b" d="M48.98,.07h1.57c.95,0,1.57,.5,1.57,1.33h0c0,.92-.76,1.38-1.65,1.38h-1.02v1.48h-.47V.07Zm1.51,2.28c.7,0,1.15-.37,1.15-.92h0c0-.61-.45-.92-1.13-.92h-1.06v1.85h1.04Z"/><path class="b" d="M52.66,2.18h0c0-1.2,.89-2.18,2.12-2.18,.76,0,1.22,.27,1.64,.67l-.32,.35c-.35-.34-.75-.58-1.32-.58-.93,0-1.62,.76-1.62,1.72h0c0,.98,.7,1.75,1.62,1.75,.58,0,.95-.22,1.36-.61l.31,.31c-.44,.44-.92,.74-1.68,.74-1.21,0-2.11-.95-2.11-2.16Z"/><path class="b" d="M56.87,2.22h1.67v.49h-1.67v-.49Z"/><path class="b" d="M59.15,2.18h0c0-1.19,.7-2.18,1.78-2.18s1.76,.98,1.76,2.16h0c0,1.19-.7,2.18-1.78,2.18s-1.77-.98-1.77-2.16Zm3.05,0h0c0-.93-.5-1.75-1.28-1.75s-1.28,.8-1.28,1.73h0c0,.93,.5,1.75,1.29,1.75s1.27-.81,1.27-1.73Z"/><path class="b" d="M63.29,2.18h0c0-1.19,.7-2.18,1.78-2.18s1.76,.98,1.76,2.16h0c0,1.19-.7,2.18-1.78,2.18s-1.77-.98-1.77-2.16Zm3.05,0h0c0-.93-.5-1.75-1.28-1.75s-1.28,.8-1.28,1.73h0c0,.93,.5,1.75,1.29,1.75s1.27-.81,1.27-1.73Z"/><path class="b" d="M67.39,3.68l.31-.34c.37,.35,.77,.58,1.19,.58,.6,0,1.01-.4,1.01-.93h0c0-.53-.43-.89-1.04-.89-.35,0-.64,.11-.88,.24l-.32-.21,.12-2.04h2.42v.44h-2l-.09,1.34c.25-.11,.48-.19,.83-.19,.82,0,1.45,.48,1.45,1.28h0c0,.83-.62,1.39-1.5,1.39-.6,0-1.12-.29-1.5-.67Z"/><path class="b" d="M70.82,3.9l1.52-1.34c.64-.58,.88-.9,.88-1.32,0-.49-.39-.8-.85-.8-.48,0-.79,.25-1.13,.72l-.35-.25c.38-.56,.77-.89,1.51-.89s1.3,.5,1.3,1.19h0c0,.62-.32,1-1.06,1.64l-1.12,1h2.22v.43h-2.93v-.37Z"/></svg>