<?xml version="1.0" encoding="utf-8"?>
<!-- Generator: Adobe Illustrator 26.3.0, SVG Export Plug-In . SVG Version: 6.00 Build 0)  -->
<svg version="1.1" id="Layer_1" xmlns="http://www.w3.org/2000/svg" xmlns:xlink="http://www.w3.org/1999/xlink" x="0px" y="0px"
	 viewBox="0 0 68.0269623 20.2299995" style="enable-background:new 0 0 68.0269623 20.2299995;" xml:space="preserve">
<style type="text/css">
	.st0{fill:#FFFFFF;}
</style>
<g>
	<g>
		<g>
			<path class="st0" d="M62.0973969,4.4815998c-0.3880005,0-0.7030029,0.3169994-0.7030029,0.7070007v0.0049992
				c0,0.387001,0.3150024,0.7030029,0.7030029,0.7030029c0.38797,0,0.7029724-0.3180008,0.7029724-0.7120018
				C62.8003693,4.7966003,62.4853668,4.4815998,62.0973969,4.4815998 M62.0973969,5.7886009
				c-0.3320007,0-0.5920105-0.262001-0.5920105-0.5950012V5.1886005c0-0.3299999,0.2659912-0.5990009,0.5920105-0.5990009
				c0.3319702,0,0.59198,0.2609997,0.59198,0.5990009C62.6893768,5.5195999,62.4233856,5.7886009,62.0973969,5.7886009"/>
		</g>
		<g>
			<path class="st0" d="M62.2792816,5.2761002c0.0939941-0.0320015,0.1579895-0.1069984,0.1579895-0.2219982
				c0-0.1610012-0.1220093-0.2360001-0.2879944-0.2360001h-0.3359985v0.7139988h0.1739807V5.3071022h0.1100159l0.1539917,0.2249985
				h0.2099915L62.2792816,5.2761002z M62.1372833,5.1651001h-0.1500244V4.9681015h0.1500244
				c0.0739746,0,0.1219788,0.0349998,0.1219788,0.098999C62.2592621,5.1261005,62.2162628,5.1651001,62.1372833,5.1651001"/>
		</g>
		<g>
			<path class="st0" d="M18.1564789,15.3989983l0.1689758-0.2369995c0.2430115,0.1809998,0.5120239,0.2840004,0.776001,0.2840004
				c0.2690125,0,0.4640198-0.1369972,0.4640198-0.3520012v-0.0089989c0-0.2229996-0.2650146-0.3099976-0.559021-0.3909988
				c-0.3509827-0.098999-0.7420044-0.2200012-0.7420044-0.6280022v-0.0089989c0-0.3829994,0.3210144-0.6359978,0.7630005-0.6359978
				c0.2730103,0,0.5770264,0.093998,0.8070068,0.2439995l-0.1520081,0.25
				c-0.2079773-0.1329994-0.446991-0.2150002-0.6629944-0.2150002c-0.2649841,0-0.4339905,0.1380005-0.4339905,0.322998v0.0080032
				c0,0.2109985,0.2779846,0.2929993,0.5769958,0.3829994c0.3470154,0.1030006,0.7189941,0.2369995,0.7189941,0.6369972v0.0080032
				c0,0.4219971-0.3509827,0.6669998-0.7969971,0.6669998C18.7634735,15.7260017,18.4074554,15.6010017,18.1564789,15.3989983"/>
		</g>
		<g>
			<path class="st0" d="M22.1741791,14.5817986v-0.0089989c0-0.4770012-0.3600159-0.868-0.8320007-0.868
				c-0.4859924,0-0.8190002,0.3909988-0.8190002,0.8600006v0.0079994c0,0.4780006,0.355011,0.8650017,0.8269958,0.8650017
				C21.8361664,15.4378014,22.1741791,15.0508003,22.1741791,14.5817986 M20.180191,14.5817986v-0.0089989
				c0-0.6279984,0.493988-1.1609993,1.1699829-1.1609993c0.6719971,0,1.1669922,0.5250015,1.1669922,1.1529999v0.0079994
				c0,0.6280022-0.4989929,1.1619987-1.1749878,1.1619987C20.6701813,15.7347984,20.180191,15.2098007,20.180191,14.5817986"/>
		</g>
		<g>
			<path class="st0" d="M23.0294037,13.7514992h-0.3080139V13.463501h0.3080139v-0.1940002
				c0-0.2530022,0.0689697-0.4470024,0.1949768-0.5720024c0.1130066-0.1119995,0.2780151-0.1719971,0.4810181-0.1719971
				c0.1559753,0,0.2599792,0.0169983,0.367981,0.0559998v0.2879982c-0.1210022-0.0340004-0.2120056-0.0550003-0.3240051-0.0550003
				c-0.2609863,0-0.3909912,0.1539993-0.3909912,0.4729996v0.1800003h0.7109985v0.2840004h-0.7059937v1.9309998h-0.3339844
				V13.7514992z"/>
		</g>
		<g>
			<path class="st0" d="M26.138382,14.5817986v-0.0089989c0-0.4770012-0.3600159-0.868-0.8320007-0.868
				c-0.4859924,0-0.8190002,0.3909988-0.8190002,0.8600006v0.0079994c0,0.4780006,0.355011,0.8650017,0.8269958,0.8650017
				C25.8003693,15.4378014,26.138382,15.0508003,26.138382,14.5817986 M24.1443939,14.5817986v-0.0089989
				c0-0.6279984,0.493988-1.1609993,1.1699829-1.1609993c0.6719971,0,1.1669922,0.5250015,1.1669922,1.1529999v0.0079994
				c0,0.6280022-0.4989929,1.1619987-1.1749878,1.1619987C24.6343842,15.7347984,24.1443939,15.2098007,24.1443939,14.5817986"/>
		</g>
		<g>
			<path class="st0" d="M26.7108917,15.3989983l0.1689758-0.2369995c0.2430115,0.1809998,0.5120239,0.2840004,0.776001,0.2840004
				c0.2690125,0,0.4640198-0.1369972,0.4640198-0.3520012v-0.0089989c0-0.2229996-0.2650146-0.3099976-0.559021-0.3909988
				c-0.3509827-0.098999-0.7420044-0.2200012-0.7420044-0.6280022v-0.0089989c0-0.3829994,0.3210144-0.6359978,0.7630005-0.6359978
				c0.2730103,0,0.5770264,0.093998,0.8070068,0.2439995l-0.1520081,0.25
				c-0.2079773-0.1329994-0.446991-0.2150002-0.6629944-0.2150002c-0.2649841,0-0.4339905,0.1380005-0.4339905,0.322998v0.0080032
				c0,0.2109985,0.2779846,0.2929993,0.5769958,0.3829994c0.3470154,0.1030006,0.7189941,0.2369995,0.7189941,0.6369972v0.0080032
				c0,0.4219971-0.3509827,0.6669998-0.7969971,0.6669998C27.3178864,15.7260017,26.9618683,15.6010017,26.7108917,15.3989983"/>
		</g>
		<g>
			<path class="st0" d="M30.8035736,14.577198v-0.0079956c0-0.5250015-0.3639832-0.8610001-0.7890015-0.8610001
				c-0.4169922,0-0.8109741,0.348999-0.8109741,0.855999v0.0089989c0,0.5159988,0.3939819,0.8600006,0.8109741,0.8600006
				C30.4475861,15.4332008,30.8035736,15.1152,30.8035736,14.577198 M29.2165985,15.2571983v0.4260025h-0.3340149v-3.1399994
				h0.3340149v1.362999c0.1819763-0.2659988,0.446991-0.4939995,0.8579712-0.4939995
				c0.5380249,0,1.0710144,0.4210014,1.0710144,1.1520004v0.0089989c0,0.7270012-0.5289917,1.1569977-1.0710144,1.1569977
				C29.6585846,15.7301979,29.3895721,15.5061989,29.2165985,15.2571983"/>
		</g>
		<g>
			<path class="st0" d="M31.583786,14.839901v-1.3810005h0.3339844v1.2999992c0,0.4120026,0.2250061,0.670002,0.6199951,0.670002
				c0.381012,0,0.6719971-0.2790031,0.6719971-0.696003v-1.2739983h0.32901v2.223999h-0.32901v-0.3869972
				c-0.1519775,0.2409973-0.3819885,0.4339981-0.7680054,0.4339981C31.899765,15.7299004,31.583786,15.3689003,31.583786,14.839901"
				/>
		</g>
		<g>
			<polygon class="st0" points="33.8828888,13.4590988 34.2518768,13.4590988 35.0058746,15.3041 35.7638702,13.4590988 
				36.1238861,13.4590988 35.14888,15.7000999 34.8538666,15.7000999 			"/>
		</g>
		<g>
			<path class="st0" d="M36.4810028,13.4589996h0.3340149v2.223999h-0.3340149V13.4589996z M36.4589996,12.6079979h0.381012
				v0.3660011h-0.381012V12.6079979z"/>
		</g>
		<g>
			<path class="st0" d="M37.4154816,13.4590988h0.3339844v0.5810013c0.1650085-0.3699989,0.4899902-0.637001,0.9150085-0.6189995
				v0.3569984h-0.026001c-0.4900208,0-0.8890076,0.3480034-0.8890076,1.019001v0.8860016h-0.3339844V13.4590988z"/>
		</g>
		<g>
			<polygon class="st0" points="41.2201996,13.4590988 41.5891876,13.4590988 42.3421783,15.3041 43.101181,13.4590988 
				43.4611969,13.4590988 42.4861908,15.7000999 42.1911774,15.7000999 			"/>
		</g>
		<g>
			<path class="st0" d="M45.3492889,14.4483986c-0.0350037-0.4049988-0.2690125-0.757-0.7160034-0.757
				c-0.3899841,0-0.6849976,0.3230019-0.7279968,0.757H45.3492889z M43.5673065,14.5774002v-0.0089989
				c0-0.6410027,0.4549866-1.1570015,1.0749817-1.1570015c0.6629944,0,1.0450134,0.5249977,1.0450134,1.1749992
				c0,0.0429993,0,0.0690002-0.0050049,0.1070023h-1.7770081c0.0480042,0.4819984,0.3900146,0.7529984,0.7890015,0.7529984
				c0.3080139,0,0.5249939-0.125,0.7070007-0.3139992l0.2080078,0.1849976
				c-0.2260132,0.2490005-0.4989929,0.4169998-0.9240112,0.4169998
				C44.0702972,15.7343979,43.5673065,15.2653999,43.5673065,14.5774002"/>
		</g>
		<g>
			<rect x="46.1519928" y="12.5429993" class="st0" width="0.3340149" height="3.1399994"/>
		</g>
		<g>
			<path class="st0" d="M49.0040741,14.5770988v-0.0079994c0-0.5249977-0.3649902-0.8610001-0.7900085-0.8610001
				c-0.4159851,0-0.8099976,0.3490028-0.8099976,0.855999v0.0090027c0,0.5159988,0.3940125,0.8600006,0.8099976,0.8600006
				C48.648056,15.4331017,49.0040741,15.1151009,49.0040741,14.5770988 M47.0830841,13.4590988h0.3339844v0.4470024
				c0.1820068-0.2659988,0.4460144-0.4940033,0.8580017-0.4940033c0.5379944,0,1.0709839,0.4210014,1.0709839,1.1520004v0.0090027
				c0,0.7269974-0.5289917,1.1569977-1.0709839,1.1569977c-0.4160156,0-0.6849976-0.223999-0.8580017-0.4729996v1.1140022
				h-0.3339844V13.4590988z"/>
		</g>
		<g>
			<path class="st0" d="M51.2855682,14.8656998v-0.2150002c-0.164978-0.0469971-0.3859863-0.0950012-0.6589966-0.0950012
				c-0.42099,0-0.6549988,0.1809998-0.6549988,0.4610023v0.0079994c0,0.2799988,0.2600098,0.4430008,0.5639954,0.4430008
				C50.946579,15.467701,51.2855682,15.2187004,51.2855682,14.8656998 M49.6335907,15.0377007V15.028698
				c0-0.468998,0.3899841-0.7179985,0.9579773-0.7179985c0.2860107,0,0.4900208,0.0390015,0.6889954,0.0950012v-0.0779991
				c0-0.4000015-0.2469788-0.6060028-0.6669922-0.6060028c-0.2649841,0-0.4729919,0.0690002-0.6809998,0.163002
				l-0.1000061-0.2709999c0.2480164-0.1110001,0.4900208-0.1850014,0.8160095-0.1850014
				c0.3160095,0,0.5589905,0.0820007,0.7229919,0.2460022c0.1520081,0.1499977,0.230011,0.3649979,0.230011,0.6489983v1.3590012
				h-0.3210144v-0.3350029c-0.1559753,0.2020035-0.4159851,0.3820038-0.8099976,0.3820038
				C50.0545807,15.729702,49.6335907,15.4937019,49.6335907,15.0377007"/>
		</g>
		<g>
			<path class="st0" d="M52.2285004,15.0934982v-1.3419991h-0.3120117v-0.2929993h0.3120117v-0.6710014h0.3339844v0.6710014
				h0.7109985v0.2929993h-0.7109985v1.2989998c0,0.2709999,0.151001,0.3699989,0.3770142,0.3699989
				c0.1119995,0,0.2079773-0.0219994,0.3249817-0.0779991v0.2849998c-0.1170044,0.0600014-0.242981,0.0940018-0.4029846,0.0940018
				C52.5014801,15.7215004,52.2285004,15.5454979,52.2285004,15.0934982"/>
		</g>
		<g>
			<path class="st0" d="M55.181778,14.8656998v-0.2150002c-0.1639709-0.0469971-0.3849792-0.0950012-0.6589966-0.0950012
				c-0.4199829,0-0.6539917,0.1809998-0.6539917,0.4610023v0.0079994c0,0.2799988,0.2600098,0.4430008,0.5639954,0.4430008
				C54.8437958,15.467701,55.181778,15.2187004,55.181778,14.8656998 M53.5308075,15.0377007V15.028698
				c0-0.468998,0.3899841-0.7179985,0.9579773-0.7179985c0.2860107,0,0.4900208,0.0390015,0.6889954,0.0950012v-0.0779991
				c0-0.4000015-0.2469788-0.6060028-0.6679993-0.6060028c-0.2639771,0-0.4719849,0.0690002-0.6799927,0.163002
				l-0.1000061-0.2709999c0.2470093-0.1110001,0.4900208-0.1850014,0.8150024-0.1850014
				c0.3160095,0,0.559021,0.0820007,0.723999,0.2460022c0.1520081,0.1499977,0.230011,0.3649979,0.230011,0.6489983v1.3590012
				h-0.3210144v-0.3350029c-0.1559753,0.2020035-0.4159851,0.3820038-0.8099976,0.3820038
				C53.9507904,15.729702,53.5308075,15.4937019,53.5308075,15.0377007"/>
		</g>
		<g>
			<path class="st0" d="M55.8616791,15.3989983l0.1689758-0.2369995c0.2430115,0.1809998,0.5120239,0.2840004,0.776001,0.2840004
				c0.2690125,0,0.4640198-0.1369972,0.4640198-0.3520012v-0.0089989c0-0.2229996-0.2650146-0.3099976-0.559021-0.3909988
				c-0.3509827-0.098999-0.7409973-0.2200012-0.7409973-0.6280022v-0.0089989c0-0.3829994,0.3200073-0.6359978,0.7619934-0.6359978
				c0.2730103,0,0.5770264,0.093998,0.8070068,0.2439995l-0.1520081,0.25
				c-0.2079773-0.1329994-0.446991-0.2150002-0.6629944-0.2150002c-0.2649841,0-0.4339905,0.1380005-0.4339905,0.322998v0.0080032
				c0,0.2109985,0.2779846,0.2929993,0.5769958,0.3829994c0.3470154,0.1030006,0.7189941,0.2369995,0.7189941,0.6369972v0.0080032
				c0,0.4219971-0.3509827,0.6669998-0.7969971,0.6669998C56.4686737,15.7260017,56.1126556,15.6010017,55.8616791,15.3989983"/>
		</g>
		<g>
			<polygon class="st0" points="57.8138885,13.4590988 58.1828766,13.4590988 58.9368744,15.3041 59.69487,13.4590988 
				60.0548859,13.4590988 59.0798798,15.7000999 58.7848663,15.7000999 			"/>
		</g>
		<g>
			<path class="st0" d="M60.4120026,13.4589996h0.3340149v2.223999h-0.3340149V13.4589996z M60.3910065,12.6079979h0.381012
				v0.3660011h-0.381012V12.6079979z"/>
		</g>
		<g>
			<path class="st0" d="M61.3484039,13.4590988h0.3339844v0.5810013c0.1650085-0.3699989,0.4899902-0.637001,0.9150085-0.6189995
				v0.3569984h-0.026001c-0.4900208,0-0.8890076,0.3480034-0.8890076,1.019001v0.8860016h-0.3339844V13.4590988z"/>
		</g>
		<g>
			<path class="st0" d="M9.5964813,2.0238991L9.4814911,1.8708992L9.3884735,1.7749004
				c-0.4659882-0.526001-1.0249939-0.948-1.6629944-1.2550011C7.006485,0.1749001,6.2384796-0.0001011,5.4434814-0.0001011
				c-2.0159912,0-3.8829956,1.1740017-4.7559967,2.9930019C0.0774841,4.2628994-0.0005188,5.6938972,0.4654846,7.0219002
				C0.9334869,8.351902,1.8904877,9.419899,3.1614838,10.0298996c0.6930084,0.3320007,1.4340057,0.507,2.2019958,0.5180016
				l11.0679932,0.0029984L9.5964813,2.0238991z M3.8524933,8.5878983c-0.8850098-0.4239998-1.552002-1.1689987-1.878006-2.0959969
				C1.6494904,5.5668983,1.704483,4.5688992,2.128479,3.6839008c0.6090088-1.2660007,1.9100037-2.085001,3.3150024-2.085001
				c0.5540009,0,1.0890045,0.1219997,1.5890045,0.3630009c0.4559937,0.2189999,0.8529968,0.5209999,1.1809998,0.8979988
				l0.0500031,0.052L8.332489,3.0049l4.766983,5.9460011L5.3874817,8.9488983
				C4.8524933,8.9408989,4.3354797,8.8199005,3.8524933,8.5878983"/>
		</g>
		<g>
			<path class="st0" d="M7.7009888,3.4946003L7.6539764,3.4326019L7.6229858,3.4006004
				c-0.2590027-0.302-0.5740051-0.5439987-0.9360046-0.7179985C6.2949829,2.4946003,5.8769836,2.3986015,5.4429779,2.3986015
				c-1.098999,0-2.1169891,0.6399994-2.5930023,1.6310005c-0.3320007,0.6929989-0.375,1.4729996-0.1209869,2.1980019
				C2.9839783,6.9526024,3.5049744,7.5345993,4.1979828,7.8666c0.3789978,0.1819992,0.7830048,0.2770004,1.201004,0.2830009
				l6.0349884,0.0009995L7.7009888,3.4946003z"/>
		</g>
		<g>
			<polygon class="st0" points="18.1988068,4.4671993 22.6858063,4.4671993 22.6858063,5.4182014 19.261795,5.4182014 
				19.261795,6.9911995 22.2957916,6.9911995 22.2957916,7.9421997 19.261795,7.9421997 19.261795,9.5671997 22.7288055,9.5671997 
				22.7288055,10.5181999 18.1988068,10.5181999 			"/>
		</g>
		<g>
			<path class="st0" d="M24.7123871,4.4667015h2.3859863c1.4170227,0,2.2990112,0.8040009,2.2990112,2.0229988v0.0170021
				c0,1.3579979-1.0889893,2.0669975-2.42099,2.0669975h-1.2010193v1.9449997h-1.0629883V4.4667015z M27.0113983,7.6137009
				c0.8039856,0,1.3049927-0.4500008,1.3049927-1.0809975V6.5157013c0-0.7089996-0.5100098-1.079998-1.3049927-1.079998h-1.2360229
				v2.1779976H27.0113983z"/>
		</g>
		<g>
			<path class="st0" d="M30.816391,7.5099983V7.493c0-1.7200012,1.2879944-3.1299992,3.1209717-3.1299992
				c1.1150208,0,1.7890015,0.3889999,2.3680115,0.9429989l-0.6829834,0.7859993
				c-0.4840088-0.4489975-1.0020142-0.7519989-1.6940002-0.7519989c-1.1500244,0-1.9970093,0.9510002-1.9970093,2.1349983V7.493
				c0,1.1839981,0.8389893,2.144001,1.9970093,2.144001c0.742981,0,1.2189941-0.2940025,1.7379761-0.7790031l0.6830139,0.6920013
				c-0.632019,0.6570015-1.322998,1.0719986-2.4559937,1.0719986C32.1303864,10.6219978,30.816391,9.2469978,30.816391,7.5099983"/>
		</g>
		<g>
			<polygon class="st0" points="38.1851044,4.4671993 39.2480927,4.4671993 39.2480927,9.5501976 42.4290924,9.5501976 
				42.4290924,10.5181999 38.1851044,10.5181999 			"/>
		</g>
		<g>
			<path class="st0" d="M43.7427826,7.9508018V4.4668007h1.0629883v3.4410019c0,1.1239967,0.57901,1.7199974,1.5299988,1.7199974
				c0.9429932,0,1.5220032-0.5620003,1.5220032-1.6769981V4.4668007h1.0629883v3.4319992
				c0,1.8069992-1.019989,2.7150002-2.6019897,2.7150002C44.7457733,10.6138,43.7427826,9.7057991,43.7427826,7.9508018"/>
		</g>
		<g>
			<path class="st0" d="M50.696701,9.6365013l0.6399841-0.7610016c0.57901,0.5009995,1.1669922,0.7869987,1.9100037,0.7869987
				c0.6569824,0,1.071991-0.3110008,1.071991-0.7609978V8.8844986c0-0.4319992-0.2420044-0.6659966-1.3659973-0.9249992
				c-1.2879944-0.3110008-2.0140076-0.6910019-2.0140076-1.8069992V6.1355019c0-1.038002,0.8650208-1.7550011,2.0660095-1.7550011
				c0.8819885,0,1.5820007,0.2679996,2.1960144,0.7609997l-0.5710144,0.8039989
				c-0.5450134-0.4059982-1.0889893-0.6220016-1.6419983-0.6220016c-0.6229858,0-0.9859924,0.3190002-0.9859924,0.7170029v0.0169983
				c0,0.4670029,0.2769775,0.6740036,1.4440002,0.951004c1.2789917,0.310997,1.9360046,0.7689972,1.9360046,1.7719955v0.0180016
				c0,1.132-0.8900146,1.8059998-2.1610107,1.8059998C52.2957001,10.6044998,51.4226837,10.2845001,50.696701,9.6365013"/>
		</g>
		<g>
			<path class="st0" d="M59.0014801,4.4241009h0.9850159l2.6629944,6.0939999h-1.1239929l-0.6140137-1.4609985h-2.8609924
				l-0.6229858,1.4609985h-1.0890198L59.0014801,4.4241009z M60.5225067,8.1151009l-1.0460205-2.4199982l-1.0369873,2.4199982
				H60.5225067z"/>
		</g>
		<g>
			<path class="st0" d="M31.9085846,18.0010986h0.2529907v0.2859993c0.1109924-0.1679993,0.2619934-0.3219986,0.5480042-0.3219986
				c0.276001,0,0.4530029,0.1469994,0.5449829,0.3380013c0.1210022-0.1870003,0.302002-0.3380013,0.5970154-0.3380013
				c0.3909912,0,0.6300049,0.2630005,0.6300049,0.6829987v1.0500031h-0.2530212v-0.9910011
				c0-0.3279991-0.1629944-0.512001-0.4389954-0.512001c-0.2559814,0-0.4660034,0.1900024-0.4660034,0.5250015v0.9780006h-0.2529907
				v-0.9980011c0-0.3180008-0.1679993-0.5050011-0.4360046-0.5050011c-0.269989,0-0.4729919,0.2229996-0.4729919,0.5349998
				v0.9680023h-0.2529907V18.0010986z"/>
		</g>
		<g>
			<path class="st0" d="M34.8760529,19.9941978l0.1150208-0.197998c0.1940002,0.1419983,0.4109802,0.2169991,0.6529846,0.2169991
				c0.3740234,0,0.6170044-0.2059975,0.6170044-0.6040001V19.209198c-0.1470032,0.1970024-0.3540039,0.3570023-0.6659851,0.3570023
				c-0.4070129,0-0.7980042-0.3050003-0.7980042-0.7940025V18.766201c0-0.4960022,0.3939819-0.8010025,0.7980042-0.8010025
				c0.3190002,0,0.526001,0.1570015,0.6629944,0.3409996v-0.3049965h0.2529907v1.4019966
				c0,0.262001-0.07901,0.4630013-0.2170105,0.6000023c-0.1509705,0.1509972-0.3769836,0.2269974-0.6459961,0.2269974
				C35.3650665,20.2301979,35.1030731,20.1511993,34.8760529,19.9941978 M36.2680817,18.7691994v-0.007
				c0-0.3470001-0.302002-0.5740013-0.6240234-0.5740013c-0.3209839,0-0.5870056,0.2229996-0.5870056,0.571003v0.007
				c0,0.3409996,0.2720032,0.5779991,0.5870056,0.5779991C35.9660797,19.3442001,36.2680817,19.110199,36.2680817,18.7691994"/>
		</g>
		<g>
			<path class="st0" d="M25.9418793,19.1535988h-1.2110291l-0.065979-0.1909981l1.2999878-1.5790024h0.230011v1.5530014h0.3540039
				v0.2169991H26.19487v0.545002h-0.2529907V19.1535988z M25.9418793,18.9365997v-1.1850014l-0.9650269,1.1850014H25.9418793z"/>
		</g>
		<g>
			<path class="st0" d="M26.7962799,18.5560989v-0.007c0-0.6429977,0.3829956-1.1879997,0.973999-1.1879997
				s0.9649963,0.538002,0.9649963,1.1819992v0.0060005c0,0.644001-0.3800049,1.1879997-0.9710083,1.1879997
				C27.1702728,19.7370987,26.7962799,19.1991005,26.7962799,18.5560989 M28.4662933,18.5560989v-0.007
				c0-0.5019989-0.2750244-0.9510002-0.7020264-0.9510002c-0.4299927,0-0.6989746,0.4389992-0.6989746,0.9449997v0.0060005
				c0,0.5019989,0.2749939,0.9519997,0.7049866,0.9519997S28.4662933,19.0581017,28.4662933,18.5560989"/>
		</g>
		<g>
			<path class="st0" d="M29.0082855,18.5560989v-0.007c0-0.6429977,0.3840027-1.1879997,0.9750061-1.1879997
				s0.9649963,0.538002,0.9649963,1.1819992v0.0060005c0,0.644001-0.381012,1.1879997-0.9710083,1.1879997
				C29.3822784,19.7370987,29.0082855,19.1991005,29.0082855,18.5560989 M30.679306,18.5560989v-0.007
				c0-0.5019989-0.276001-0.9510002-0.7020264-0.9510002c-0.4309998,0-0.6989746,0.4389992-0.6989746,0.9449997v0.0060005
				c0,0.5019989,0.2749939,0.9519997,0.7049866,0.9519997S30.679306,19.0581017,30.679306,18.5560989"/>
		</g>
		<g>
			<polygon class="st0" points="40.8033905,12.2504997 41.0873871,12.2504997 39.0913849,16.232502 38.8073883,16.232502 			"/>
		</g>
		<g>
			<polygon class="st0" points="39.6423798,17.657299 39.2113495,17.7913017 39.1493683,17.5822983 39.7073517,17.3893013 
				39.8973541,17.3893013 39.8973541,19.6922989 39.6423798,19.6922989 			"/>
		</g>
		<g>
			<path class="st0" d="M40.3903656,18.5557976v-0.0069962c0-0.6400032,0.382019-1.182003,0.9700012-1.182003
				c0.5880127,0,0.9609985,0.5359993,0.9609985,1.1760025v0.0060005c0,0.6409988-0.3789978,1.1829987-0.96698,1.1829987
				C40.763382,19.7318001,40.3903656,19.1958008,40.3903656,18.5557976 M42.0533905,18.5557976v-0.0069962
				c0-0.4990005-0.2740173-0.9470024-0.6990051-0.9470024c-0.428009,0-0.6960144,0.4379997-0.6960144,0.9410019v0.0060005
				c0,0.5,0.2740173,0.947998,0.7019958,0.947998C41.7883759,19.4967995,42.0533905,19.0557976,42.0533905,18.5557976"/>
		</g>
		<g>
			<path class="st0" d="M42.6344757,18.5557976v-0.0069962c0-0.6400032,0.382019-1.182003,0.9700012-1.182003
				c0.5880127,0,0.9609985,0.5359993,0.9609985,1.1760025v0.0060005c0,0.6409988-0.3789978,1.1829987-0.96698,1.1829987
				C43.006485,19.7318001,42.6344757,19.1958008,42.6344757,18.5557976 M44.2975006,18.5557976v-0.0069962
				c0-0.4990005-0.2740173-0.9470024-0.6990051-0.9470024c-0.428009,0-0.6960144,0.4379997-0.6960144,0.9410019v0.0060005
				c0,0.5,0.2740173,0.947998,0.7019958,0.947998C44.032486,19.4967995,44.2975006,19.0557976,44.2975006,18.5557976"/>
		</g>
		<g>
			<path class="st0" d="M45.5774994,18.0036011h0.2509766v0.2840004c0.1119995-0.1660004,0.2619934-0.3199997,0.5460205-0.3199997
				c0.2749939,0,0.4509888,0.1469994,0.5419922,0.336998c0.1210022-0.1870003,0.3009949-0.336998,0.5950012-0.336998
				c0.3890076,0,0.6279907,0.2609978,0.6279907,0.6799965v1.045002h-0.2519836v-0.9860001
				c0-0.3269997-0.1640015-0.5100021-0.4380188-0.5100021c-0.2550049,0-0.4639893,0.189003-0.4639893,0.5220032v0.973999h-0.2510071
				v-0.993c0-0.3170013-0.1669922-0.5030022-0.4349976-0.5030022s-0.4710083,0.2220001-0.4710083,0.5330009v0.9630013h-0.2509766
				V18.0036011z"/>
		</g>
		<g>
			<path class="st0" d="M48.5731964,19.9870987l0.1139832-0.1959991c0.1930237,0.1399994,0.40802,0.2150002,0.6500244,0.2150002
				c0.3729858,0,0.6139832-0.2060013,0.6139832-0.6010017v-0.1989975c-0.1470032,0.1959991-0.3519897,0.355999-0.6629944,0.355999
				c-0.4049988,0-0.7940063-0.3040009-0.7940063-0.7910004v-0.0060005c0-0.4939995,0.3919983-0.7970009,0.7940063-0.7970009
				c0.3169861,0,0.5230103,0.156002,0.6600037,0.3390007v-0.3029976h0.2519836v1.3949966
				c0,0.2610016-0.0789795,0.4600029-0.2160034,0.5970001c-0.1499939,0.151001-0.3759766,0.2260017-0.6429749,0.2260017
				C49.0591888,20.2220993,48.7982025,20.1431007,48.5731964,19.9870987 M49.9582062,18.7681007v-0.007
				c0-0.3460007-0.3010254-0.571003-0.6210022-0.571003c-0.3200073,0-0.585022,0.2220001-0.585022,0.5680008v0.007
				c0,0.3390007,0.2720032,0.5750008,0.585022,0.5750008C49.6571808,19.3400993,49.9582062,19.1081009,49.9582062,18.7681007"/>
		</g>
		<g>
			<path class="st0" d="M51.6074066,19.2452011v-1.019001h-0.2350159v-0.2229996h0.2350159v-0.5090027h0.2509766v0.5090027
				h0.5360107v0.2229996h-0.5360107v0.9860001c0,0.2060013,0.1150208,0.2809982,0.2850037,0.2809982
				c0.0849915,0,0.1570129-0.0159988,0.2449951-0.0589981v0.2159996c-0.0879822,0.0460014-0.1829834,0.0719986-0.3039856,0.0719986
				C51.8134003,19.7221985,51.6074066,19.5881996,51.6074066,19.2452011"/>
		</g>
		<g>
			<path class="st0" d="M52.6947784,19.2029991v-0.007c0-0.355999,0.2940063-0.5449982,0.7220154-0.5449982
				c0.2160034,0,0.368988,0.0289993,0.519989,0.0709991v-0.0580025c0-0.303997-0.1860046-0.4609985-0.5029907-0.4609985
				c-0.2000122,0-0.3569946,0.052002-0.5130005,0.1240005l-0.0759888-0.2060013
				c0.1869812-0.0849991,0.3699951-0.1399994,0.6149902-0.1399994c0.2380066,0,0.42099,0.0620003,0.5449829,0.1860008
				c0.1150208,0.1139984,0.1740112,0.2779999,0.1740112,0.493v1.0330009h-0.2420044v-0.2550011
				c-0.117981,0.1539993-0.3139954,0.2910004-0.6109924,0.2910004
				C53.011795,19.7290001,52.6947784,19.5489998,52.6947784,19.2029991 M53.9398041,19.0719986v-0.1629982
				c-0.1240234-0.0359993-0.2910156-0.0719986-0.4970093-0.0719986c-0.3170166,0-0.4930115,0.1369972-0.4930115,0.348999v0.007
				c0,0.211998,0.1960144,0.3359985,0.4250183,0.3359985C53.6847992,19.5289993,53.9398041,19.3400002,53.9398041,19.0719986"/>
		</g>
		<g>
			<path class="st0" d="M54.9488678,19.3690987V19.6931h-0.2510071v-2.3849983h0.2510071v1.034996
				c0.1369934-0.2019997,0.3370056-0.375,0.6470032-0.375c0.4049988,0,0.8070068,0.3200035,0.8070068,0.875v0.0070038
				c0,0.5519981-0.3980103,0.8789978-0.8070068,0.8789978C55.2818756,19.7290993,55.0798798,19.5591011,54.9488678,19.3690987
				 M56.1448822,18.8530998v-0.007c0-0.3979988-0.2740173-0.6529999-0.5950012-0.6529999
				c-0.3130188,0-0.6110229,0.2649994-0.6110229,0.6499977v0.0070038c0,0.3919983,0.2980042,0.6529999,0.6110229,0.6529999
				C55.8768768,19.5031013,56.1448822,19.2611008,56.1448822,18.8530998"/>
		</g>
		<g>
			<rect x="56.8730011" y="17.3079987" class="st0" width="0.2510071" height="2.3849983"/>
		</g>
		<g>
			<path class="st0" d="M57.588089,18.8530998v-0.0060005c0-0.4869995,0.3430176-0.8789978,0.8099976-0.8789978
				c0.5,0,0.7879944,0.3979988,0.7879944,0.8909988c0,0.0330009,0,0.0529976-0.0039978,0.0820007h-1.3389893
				c0.0360107,0.3659973,0.2940063,0.5719986,0.5939941,0.5719986c0.2319946,0,0.3959961-0.0950012,0.5329895-0.237999
				l0.1570129,0.1399994c-0.1700134,0.1889992-0.3760071,0.3170013-0.6959839,0.3170013
				C57.9670868,19.7321014,57.588089,19.3760986,57.588089,18.8530998 M58.9311066,18.7551003
				c-0.026001-0.3069992-0.2030029-0.5750008-0.5390015-0.5750008c-0.2940063,0-0.5160217,0.2449989-0.5490112,0.5750008H58.9311066
				z"/>
		</g>
		<g>
			<path class="st0" d="M59.6985016,19.2452011v-1.019001h-0.2350159v-0.2229996h0.2350159v-0.5090027h0.2509766v0.5090027
				h0.5360107v0.2229996h-0.5360107v0.9860001c0,0.2060013,0.1150208,0.2809982,0.2850037,0.2809982
				c0.0849915,0,0.1570129-0.0159988,0.2449951-0.0589981v0.2159996c-0.0879822,0.0460014-0.1829834,0.0719986-0.3039856,0.0719986
				C59.9044952,19.7221985,59.6985016,19.5881996,59.6985016,19.2452011"/>
		</g>
		<g>
			<path class="st0" d="M60.7730865,19.4771004l0.1269836-0.1800003c0.1830139,0.137001,0.3859863,0.2159996,0.5849915,0.2159996
				c0.2030029,0,0.3500061-0.1049995,0.3500061-0.2680016v-0.007c0-0.1699982-0.1990051-0.2349968-0.4219971-0.2969971
				c-0.2640076-0.0750008-0.5589905-0.1669998-0.5589905-0.4770012v-0.0060005c0-0.2910004,0.242981-0.4840012,0.5749817-0.4840012
				c0.2070007,0,0.4349976,0.0720024,0.6080017,0.1870003l-0.1139832,0.189003
				c-0.1570129-0.1010017-0.3359985-0.163002-0.5-0.163002c-0.1990051,0-0.3260193,0.1040001-0.3260193,0.2449989v0.0060005
				c0,0.1599998,0.2090149,0.2220001,0.434021,0.2910004c0.2609863,0.0779991,0.5419922,0.1800003,0.5419922,0.4830017v0.007
				c0,0.3199997-0.2640076,0.5060005-0.6010132,0.5060005C61.2300568,19.7251015,60.9620819,19.6310997,60.7730865,19.4771004"/>
		</g>
		<g>
			<polygon class="st0" points="38.585495,17.1077003 38.8184662,17.1077003 37.2954865,20.1477013 37.0624847,20.1477013 			"/>
		</g>
	</g>
</g>
<g>
	<polygon points="63.2839813,3.7369003 65.6489716,7.8469009 65.6499786,7.8469009 68.0269623,3.7379017 68.0269623,3.7369003 	"/>
</g>
</svg>
