<?xml version="1.0" encoding="UTF-8"?><svg id="a" xmlns="http://www.w3.org/2000/svg" viewBox="0 0 237.39 12.56"><defs><style>.b{fill:#fff;}</style></defs><g><path class="b" d="M.59,.9H3.63v.43H1.07v1.43H3.36v.43H1.07v1.47H3.66v.43H.59V.9Z"/><path class="b" d="M4.47,.9h1.57c.95,0,1.57,.5,1.57,1.33h0c0,.92-.76,1.38-1.65,1.38h-1.02v1.48h-.47V.9Zm1.51,2.28c.7,0,1.15-.37,1.15-.92h0c0-.61-.45-.92-1.13-.92h-1.06v1.85h1.04Z"/><path class="b" d="M8.15,3.01h0c0-1.2,.89-2.18,2.12-2.18,.76,0,1.22,.27,1.64,.67l-.32,.35c-.35-.34-.75-.58-1.32-.58-.93,0-1.62,.76-1.62,1.72h0c0,.98,.7,1.75,1.62,1.75,.58,0,.95-.22,1.36-.61l.31,.31c-.44,.44-.92,.74-1.68,.74-1.21,0-2.1-.95-2.1-2.16Z"/><path class="b" d="M12.62,.9h.47v3.76h2.36v.44h-2.84V.9Z"/><path class="b" d="M16.03,3.34V.9h.47V3.31c0,.91,.49,1.42,1.28,1.42s1.27-.47,1.27-1.38V.9h.47V3.31c0,1.22-.7,1.86-1.75,1.86s-1.75-.64-1.75-1.82Z"/><path class="b" d="M20.23,4.49l.29-.35c.44,.4,.86,.59,1.44,.59s.94-.3,.94-.71h0c0-.4-.21-.62-1.09-.81-.97-.21-1.41-.52-1.41-1.21h0c0-.67,.58-1.16,1.38-1.16,.61,0,1.05,.17,1.48,.52l-.28,.37c-.39-.32-.78-.46-1.21-.46-.55,0-.89,.3-.89,.68h0c0,.41,.22,.63,1.14,.83,.94,.2,1.37,.55,1.37,1.19h0c0,.73-.6,1.2-1.43,1.2-.67,0-1.21-.22-1.71-.67Z"/><path class="b" d="M25.66,.87h.44l1.91,4.23h-.51l-.49-1.11h-2.28l-.5,1.11h-.49l1.91-4.23Zm1.17,2.69l-.95-2.13-.96,2.13h1.91Z"/><path class="b" d="M30.29,.81h.53v.51h-.53V.81Zm.03,1.19h.46v3.1h-.46V2Z"/><path class="b" d="M31.45,4.7l.23-.33c.34,.25,.71,.4,1.07,.4s.64-.19,.64-.49h0c0-.32-.37-.44-.77-.56-.49-.14-1.03-.31-1.03-.88h0c0-.55,.44-.9,1.06-.9,.38,0,.8,.13,1.12,.34l-.21,.35c-.29-.19-.62-.3-.92-.3-.37,0-.6,.19-.6,.45h0c0,.31,.38,.42,.8,.55,.48,.14,1,.33,1,.89h0c0,.6-.49,.94-1.1,.94-.44,0-.94-.17-1.28-.46Z"/><path class="b" d="M36.22,.81h.53v.51h-.53V.81Zm.03,1.19h.46v3.1h-.46V2Z"/><path class="b" d="M37.64,2h.46v.54c.2-.34,.53-.61,1.06-.61,.75,0,1.19,.5,1.19,1.24v1.92h-.46v-1.81c0-.58-.31-.94-.86-.94s-.93,.39-.93,.97v1.78h-.46V2Z"/><path class="b" d="M41.01,3.56h0c0-1.03,.74-1.62,1.48-1.62,.58,0,.95,.31,1.19,.66V.72h.46V5.1h-.46v-.62c-.25,.37-.62,.69-1.19,.69-.74,0-1.48-.59-1.48-1.61Zm2.69,0h0c0-.73-.55-1.21-1.12-1.21s-1.09,.44-1.09,1.19h0c0,.74,.51,1.21,1.09,1.21s1.12-.49,1.12-1.2Z"/><path class="b" d="M45.04,.81h.53v.51h-.53V.81Zm.03,1.19h.46v3.1h-.46V2Z"/><path class="b" d="M46.27,3.56h0c0-.89,.68-1.63,1.59-1.63,.59,0,.95,.25,1.24,.55l-.31,.32c-.25-.26-.52-.47-.94-.47-.63,0-1.11,.53-1.11,1.2h0c0,.68,.49,1.22,1.14,1.22,.4,0,.7-.2,.95-.46l.29,.28c-.31,.35-.68,.6-1.27,.6-.91,0-1.59-.74-1.59-1.61Z"/><path class="b" d="M49.5,4.2h0c0-.67,.54-1.01,1.33-1.01,.4,0,.68,.05,.95,.13v-.11c0-.56-.34-.85-.92-.85-.37,0-.65,.1-.94,.23l-.14-.38c.34-.16,.68-.26,1.13-.26s.77,.11,1,.34c.21,.21,.32,.51,.32,.91v1.89h-.44v-.47c-.22,.28-.58,.53-1.12,.53-.58,0-1.16-.33-1.16-.97Zm2.28-.24v-.3c-.23-.07-.53-.13-.91-.13-.58,0-.91,.25-.91,.64h0c0,.4,.36,.63,.78,.63,.57,0,1.04-.35,1.04-.84Z"/><path class="b" d="M53.2,4.28v-1.87h-.43v-.41h.43v-.94h.46v.94h.98v.41h-.98v1.81c0,.38,.21,.52,.52,.52,.16,0,.29-.03,.45-.11v.4c-.16,.08-.34,.13-.56,.13-.5,0-.88-.25-.88-.88Z"/><path class="b" d="M55.03,3.56h0c0-.91,.63-1.62,1.49-1.62,.92,0,1.45,.73,1.45,1.64,0,.06,0,.1,0,.15h-2.46c.07,.67,.54,1.05,1.09,1.05,.43,0,.73-.17,.98-.44l.29,.26c-.31,.35-.69,.58-1.28,.58-.85,0-1.55-.65-1.55-1.61Zm2.46-.18c-.05-.56-.37-1.06-.99-1.06-.54,0-.95,.45-1.01,1.06h2Z"/><path class="b" d="M58.45,3.56h0c0-1.03,.74-1.62,1.48-1.62,.58,0,.95,.31,1.19,.66V.72h.46V5.1h-.46v-.62c-.25,.37-.62,.69-1.19,.69-.74,0-1.48-.59-1.48-1.61Zm2.69,0h0c0-.73-.55-1.21-1.12-1.21s-1.09,.44-1.09,1.19h0c0,.74,.51,1.21,1.09,1.21s1.12-.49,1.12-1.2Z"/><path class="b" d="M64.3,2.41h-.43v-.4h.43v-.27c0-.35,.1-.62,.27-.8,.16-.16,.38-.24,.67-.24,.22,0,.36,.02,.51,.08v.4c-.17-.05-.29-.08-.45-.08-.36,0-.54,.22-.54,.66v.25h.98v.4h-.98v2.69h-.46V2.41Z"/><path class="b" d="M65.93,3.56h0c0-.89,.68-1.63,1.62-1.63s1.61,.73,1.61,1.61h0c0,.89-.69,1.63-1.62,1.63s-1.61-.73-1.61-1.61Zm2.76,0h0c0-.68-.5-1.22-1.15-1.22s-1.13,.55-1.13,1.2h0c0,.68,.49,1.22,1.15,1.22s1.14-.54,1.14-1.19Z"/><path class="b" d="M69.86,2h.46v.81c.23-.52,.68-.89,1.27-.86v.5h-.04c-.68,0-1.23,.49-1.23,1.42v1.24h-.46V2Z"/><path class="b" d="M73.95,4.28v-1.87h-.43v-.41h.43v-.94h.46v.94h.98v.41h-.98v1.81c0,.38,.21,.52,.52,.52,.16,0,.29-.03,.45-.11v.4c-.16,.08-.34,.13-.56,.13-.5,0-.88-.25-.88-.88Z"/><path class="b" d="M76.07,.72h.46v1.82c.2-.34,.53-.61,1.06-.61,.75,0,1.19,.5,1.19,1.24v1.92h-.46v-1.81c0-.58-.31-.94-.86-.94s-.93,.39-.93,.97v1.78h-.46V.72Z"/><path class="b" d="M79.43,3.56h0c0-.91,.63-1.62,1.49-1.62,.92,0,1.45,.73,1.45,1.64,0,.06,0,.1,0,.15h-2.46c.07,.67,.54,1.05,1.09,1.05,.43,0,.73-.17,.98-.44l.29,.26c-.31,.35-.69,.58-1.28,.58-.85,0-1.55-.65-1.55-1.61Zm2.46-.18c-.05-.56-.37-1.06-.99-1.06-.54,0-.95,.45-1.01,1.06h2Z"/><path class="b" d="M84.84,4.28v-1.87h-.43v-.41h.43v-.94h.46v.94h.98v.41h-.98v1.81c0,.38,.21,.52,.52,.52,.16,0,.29-.03,.45-.11v.4c-.16,.08-.34,.13-.56,.13-.5,0-.88-.25-.88-.88Z"/><path class="b" d="M86.96,2h.46v.81c.23-.52,.68-.89,1.27-.86v.5h-.04c-.68,0-1.23,.49-1.23,1.42v1.24h-.46V2Z"/><path class="b" d="M88.92,3.56h0c0-.91,.63-1.62,1.49-1.62,.92,0,1.45,.73,1.45,1.64,0,.06,0,.1,0,.15h-2.46c.07,.67,.54,1.05,1.09,1.05,.43,0,.73-.17,.98-.44l.29,.26c-.31,.35-.69,.58-1.28,.58-.85,0-1.55-.65-1.55-1.61Zm2.46-.18c-.05-.56-.37-1.06-.99-1.06-.54,0-.95,.45-1.01,1.06h2Z"/><path class="b" d="M92.28,4.2h0c0-.67,.54-1.01,1.33-1.01,.4,0,.68,.05,.95,.13v-.11c0-.56-.34-.85-.92-.85-.37,0-.65,.1-.94,.23l-.14-.38c.34-.16,.68-.26,1.13-.26s.77,.11,1,.34c.21,.21,.32,.51,.32,.91v1.89h-.44v-.47c-.22,.28-.58,.53-1.12,.53-.58,0-1.16-.33-1.16-.97Zm2.28-.24v-.3c-.23-.07-.53-.13-.91-.13-.58,0-.91,.25-.91,.64h0c0,.4,.36,.63,.78,.63,.57,0,1.04-.35,1.04-.84Z"/><path class="b" d="M95.97,4.28v-1.87h-.43v-.41h.43v-.94h.46v.94h.98v.41h-.98v1.81c0,.38,.21,.52,.52,.52,.16,0,.29-.03,.45-.11v.4c-.16,.08-.34,.13-.56,.13-.5,0-.88-.25-.88-.88Z"/><path class="b" d="M98.09,2h.46v.52c.2-.31,.48-.59,1-.59s.83,.27,1,.62c.22-.34,.55-.62,1.09-.62,.71,0,1.15,.48,1.15,1.25v1.92h-.46v-1.81c0-.6-.3-.94-.8-.94-.47,0-.85,.35-.85,.96v1.79h-.46v-1.82c0-.58-.31-.92-.8-.92s-.86,.41-.86,.98v1.77h-.46V2Z"/><path class="b" d="M103.46,3.56h0c0-.91,.63-1.62,1.49-1.62,.92,0,1.45,.73,1.45,1.64,0,.06,0,.1,0,.15h-2.46c.07,.67,.54,1.05,1.09,1.05,.43,0,.73-.17,.98-.44l.29,.26c-.31,.35-.69,.58-1.28,.58-.85,0-1.55-.65-1.55-1.61Zm2.46-.18c-.05-.56-.37-1.06-.99-1.06-.54,0-.95,.45-1.01,1.06h2Z"/><path class="b" d="M107.06,2h.46v.54c.2-.34,.53-.61,1.06-.61,.75,0,1.19,.5,1.19,1.24v1.92h-.46v-1.81c0-.58-.31-.94-.86-.94s-.93,.39-.93,.97v1.78h-.46V2Z"/><path class="b" d="M110.76,4.28v-1.87h-.43v-.41h.43v-.94h.46v.94h.98v.41h-.98v1.81c0,.38,.21,.52,.52,.52,.16,0,.29-.03,.45-.11v.4c-.16,.08-.34,.13-.56,.13-.5,0-.88-.25-.88-.88Z"/><path class="b" d="M114.35,3.56h0c0-.89,.68-1.63,1.62-1.63s1.61,.73,1.61,1.61h0c0,.89-.69,1.63-1.62,1.63s-1.61-.73-1.61-1.61Zm2.76,0h0c0-.68-.5-1.22-1.15-1.22s-1.13,.55-1.13,1.2h0c0,.68,.49,1.22,1.15,1.22s1.14-.54,1.14-1.19Z"/><path class="b" d="M118.44,2.41h-.43v-.4h.43v-.27c0-.35,.1-.62,.27-.8,.16-.16,.38-.24,.67-.24,.22,0,.36,.02,.51,.08v.4c-.17-.05-.29-.08-.45-.08-.36,0-.54,.22-.54,.66v.25h.98v.4h-.98v2.69h-.46V2.41Z"/><path class="b" d="M121.79,3.56h0c0-.89,.68-1.63,1.59-1.63,.59,0,.95,.25,1.24,.55l-.31,.32c-.25-.26-.52-.47-.94-.47-.63,0-1.11,.53-1.11,1.2h0c0,.68,.49,1.22,1.14,1.22,.4,0,.7-.2,.95-.46l.29,.28c-.31,.35-.68,.6-1.26,.6-.91,0-1.59-.74-1.59-1.61Z"/><path class="b" d="M125.26,.72h.46v1.82c.2-.34,.53-.61,1.06-.61,.75,0,1.19,.5,1.19,1.24v1.92h-.46v-1.81c0-.58-.31-.94-.86-.94s-.93,.39-.93,.97v1.78h-.46V.72Z"/><path class="b" d="M128.81,2h.46v.81c.23-.52,.68-.89,1.26-.86v.5h-.04c-.68,0-1.23,.49-1.23,1.42v1.24h-.46V2Z"/><path class="b" d="M130.77,3.56h0c0-.89,.68-1.63,1.62-1.63s1.61,.73,1.61,1.61h0c0,.89-.69,1.63-1.62,1.63s-1.61-.73-1.61-1.61Zm2.76,0h0c0-.68-.5-1.22-1.15-1.22s-1.13,.55-1.13,1.2h0c0,.68,.49,1.22,1.15,1.22s1.14-.54,1.14-1.19Z"/><path class="b" d="M134.69,2h.46v.54c.2-.34,.53-.61,1.06-.61,.75,0,1.19,.5,1.19,1.24v1.92h-.46v-1.81c0-.58-.31-.94-.86-.94s-.93,.39-.93,.97v1.78h-.46V2Z"/><path class="b" d="M138.26,.81h.53v.51h-.53V.81Zm.03,1.19h.46v3.1h-.46V2Z"/><path class="b" d="M139.49,3.56h0c0-.89,.68-1.63,1.59-1.63,.59,0,.95,.25,1.24,.55l-.31,.32c-.25-.26-.52-.47-.94-.47-.63,0-1.11,.53-1.11,1.2h0c0,.68,.49,1.22,1.14,1.22,.4,0,.7-.2,.95-.46l.29,.28c-.31,.35-.68,.6-1.27,.6-.91,0-1.59-.74-1.59-1.61Z"/><path class="b" d="M144.62,.72h.46v1.82c.2-.34,.53-.61,1.06-.61,.75,0,1.19,.5,1.19,1.24v1.92h-.46v-1.81c0-.58-.31-.94-.86-.94s-.93,.39-.93,.97v1.78h-.46V.72Z"/><path class="b" d="M147.97,3.56h0c0-.91,.63-1.62,1.49-1.62,.92,0,1.45,.73,1.45,1.64,0,.06,0,.1,0,.15h-2.46c.07,.67,.54,1.05,1.09,1.05,.43,0,.73-.17,.98-.44l.29,.26c-.31,.35-.69,.58-1.28,.58-.85,0-1.55-.65-1.55-1.61Zm2.46-.18c-.05-.56-.37-1.06-.99-1.06-.54,0-.95,.45-1.01,1.06h2Z"/><path class="b" d="M151.57,2h.46v.62c.25-.37,.62-.69,1.19-.69,.74,0,1.48,.59,1.48,1.61h0c0,1.03-.73,1.63-1.48,1.63-.58,0-.95-.31-1.19-.66v1.55h-.46V2Zm2.66,1.56h0c0-.74-.5-1.21-1.09-1.21s-1.12,.49-1.12,1.19h0c0,.73,.55,1.21,1.12,1.21s1.09-.44,1.09-1.19Z"/><path class="b" d="M155.18,4.2h0c0-.67,.54-1.01,1.33-1.01,.4,0,.68,.05,.95,.13v-.11c0-.56-.34-.85-.92-.85-.37,0-.65,.1-.94,.23l-.14-.38c.34-.16,.68-.26,1.13-.26s.77,.11,1,.34c.21,.21,.32,.51,.32,.91v1.89h-.44v-.47c-.22,.28-.58,.53-1.12,.53-.58,0-1.16-.33-1.16-.97Zm2.28-.24v-.3c-.23-.07-.53-.13-.91-.13-.58,0-.91,.25-.91,.64h0c0,.4,.36,.63,.78,.63,.57,0,1.04-.35,1.04-.84Z"/><path class="b" d="M158.87,4.28v-1.87h-.43v-.41h.43v-.94h.46v.94h.98v.41h-.98v1.81c0,.38,.21,.52,.52,.52,.16,0,.29-.03,.45-.11v.4c-.16,.08-.34,.13-.56,.13-.5,0-.88-.25-.88-.88Z"/><path class="b" d="M161,.81h.53v.51h-.53V.81Zm.03,1.19h.46v3.1h-.46V2Z"/><path class="b" d="M162.58,4.28v-1.87h-.43v-.41h.43v-.94h.46v.94h.98v.41h-.98v1.81c0,.38,.21,.52,.52,.52,.16,0,.29-.03,.45-.11v.4c-.16,.08-.33,.13-.56,.13-.5,0-.88-.25-.88-.88Z"/><path class="b" d="M164.71,.81h.53v.51h-.53V.81Zm.03,1.19h.46v3.1h-.46V2Z"/><path class="b" d="M165.87,4.7l.23-.33c.33,.25,.71,.4,1.07,.4s.64-.19,.64-.49h0c0-.32-.37-.44-.77-.56-.49-.14-1.03-.31-1.03-.88h0c0-.55,.44-.9,1.05-.9,.38,0,.8,.13,1.12,.34l-.21,.35c-.29-.19-.62-.3-.92-.3-.37,0-.6,.19-.6,.45h0c0,.31,.38,.42,.8,.55,.48,.14,1,.33,1,.89h0c0,.6-.49,.94-1.1,.94-.44,0-.94-.17-1.28-.46Z"/><path class="b" d="M170.52,3.01h0c0-1.2,.89-2.18,2.12-2.18,.76,0,1.22,.27,1.64,.67l-.32,.35c-.35-.34-.75-.58-1.32-.58-.93,0-1.62,.76-1.62,1.72h0c0,.98,.7,1.75,1.62,1.75,.58,0,.95-.22,1.36-.61l.31,.31c-.44,.44-.92,.74-1.68,.74-1.21,0-2.1-.95-2.1-2.16Z"/><path class="b" d="M176.27,2h.51l1.04,2.57,1.05-2.57h.5l-1.35,3.12h-.41l-1.34-3.12Z"/><path class="b" d="M179.96,.81h.53v.51h-.53V.81Zm.03,1.19h.46v3.1h-.46V2Z"/><path class="b" d="M181.38,2h.46v.81c.23-.52,.68-.89,1.27-.86v.5h-.04c-.68,0-1.23,.49-1.23,1.42v1.24h-.46V2Z"/><path class="b" d="M183.62,3.92V2h.46v1.81c0,.58,.31,.94,.86,.94s.93-.39,.93-.97V2h.46v3.1h-.46v-.54c-.21,.34-.53,.61-1.06,.61-.75,0-1.19-.5-1.19-1.24Z"/><path class="b" d="M186.96,4.7l.23-.33c.33,.25,.71,.4,1.07,.4s.64-.19,.64-.49h0c0-.32-.37-.44-.77-.56-.49-.14-1.03-.31-1.03-.88h0c0-.55,.44-.9,1.05-.9,.38,0,.8,.13,1.12,.34l-.21,.35c-.29-.19-.62-.3-.92-.3-.37,0-.6,.19-.6,.45h0c0,.31,.38,.42,.8,.55,.48,.14,1,.33,1,.89h0c0,.6-.49,.94-1.1,.94-.44,0-.94-.17-1.28-.46Z"/><path class="b" d="M191.61,3.38c0-1.1,.59-1.97,1.66-2.57l.2,.31c-.91,.58-1.39,1.3-1.39,2.26s.48,1.68,1.39,2.26l-.2,.31c-1.07-.6-1.66-1.46-1.66-2.57Z"/><path class="b" d="M194.25,.9h.47v1.86h2.42V.9h.47V5.1h-.47v-1.89h-2.42v1.89h-.47V.9Z"/><path class="b" d="M198.48,3.01h0c0-1.2,.89-2.18,2.12-2.18,.76,0,1.22,.27,1.64,.67l-.32,.35c-.35-.34-.75-.58-1.32-.58-.93,0-1.62,.76-1.62,1.72h0c0,.98,.7,1.75,1.62,1.75,.58,0,.95-.22,1.36-.61l.31,.31c-.44,.44-.92,.74-1.68,.74-1.21,0-2.1-.95-2.1-2.16Z"/><path class="b" d="M202.56,.9h.53l1.49,3.62,1.5-3.62h.51l-1.8,4.23h-.42l-1.81-4.23Z"/><path class="b" d="M207.02,5.64c.91-.58,1.39-1.3,1.39-2.26s-.48-1.68-1.39-2.26l.2-.31c1.07,.6,1.66,1.46,1.66,2.57s-.59,1.97-1.66,2.57l-.2-.31Z"/><path class="b" d="M211.32,.81h.53v.51h-.53V.81Zm.03,1.19h.46v3.1h-.46V2Z"/><path class="b" d="M212.74,2h.46v.54c.2-.34,.53-.61,1.06-.61,.75,0,1.19,.5,1.19,1.24v1.92h-.46v-1.81c0-.58-.31-.94-.86-.94s-.93,.39-.93,.97v1.78h-.46V2Z"/><path class="b" d="M216.46,2.41h-.43v-.4h.43v-.27c0-.35,.1-.62,.27-.8,.16-.16,.38-.24,.67-.24,.22,0,.36,.02,.51,.08v.4c-.17-.05-.29-.08-.45-.08-.36,0-.54,.22-.54,.66v.25h.98v.4h-.98v2.69h-.46V2.41Z"/><path class="b" d="M218.1,3.56h0c0-.91,.63-1.62,1.49-1.62,.92,0,1.45,.73,1.45,1.64,0,.06,0,.1,0,.15h-2.46c.07,.67,.54,1.05,1.09,1.05,.43,0,.73-.17,.98-.44l.29,.26c-.31,.35-.69,.58-1.28,.58-.85,0-1.55-.65-1.55-1.61Zm2.46-.18c-.05-.56-.37-1.06-.99-1.06-.54,0-.95,.45-1.01,1.06h2Z"/><path class="b" d="M221.5,3.56h0c0-.89,.68-1.63,1.59-1.63,.59,0,.95,.25,1.24,.55l-.31,.32c-.25-.26-.52-.47-.94-.47-.63,0-1.11,.53-1.11,1.2h0c0,.68,.49,1.22,1.14,1.22,.4,0,.7-.2,.95-.46l.29,.28c-.31,.35-.68,.6-1.27,.6-.91,0-1.59-.74-1.59-1.61Z"/><path class="b" d="M225.13,4.28v-1.87h-.43v-.41h.43v-.94h.46v.94h.98v.41h-.98v1.81c0,.38,.21,.52,.52,.52,.16,0,.29-.03,.45-.11v.4c-.16,.08-.33,.13-.56,.13-.5,0-.88-.25-.88-.88Z"/><path class="b" d="M227.26,.81h.53v.51h-.53V.81Zm.03,1.19h.46v3.1h-.46V2Z"/><path class="b" d="M228.49,3.56h0c0-.89,.68-1.63,1.62-1.63s1.61,.73,1.61,1.61h0c0,.89-.69,1.63-1.62,1.63s-1.61-.73-1.61-1.61Zm2.76,0h0c0-.68-.5-1.22-1.15-1.22s-1.13,.55-1.13,1.2h0c0,.68,.49,1.22,1.15,1.22s1.14-.54,1.14-1.19Z"/><path class="b" d="M232.41,2h.46v.54c.2-.34,.53-.61,1.06-.61,.75,0,1.19,.5,1.19,1.24v1.92h-.46v-1.81c0-.58-.31-.94-.86-.94s-.93,.39-.93,.97v1.78h-.46V2Z"/></g><g><path class="b" d="M.53,6.81h.53v.51H.53v-.51Zm.03,1.19h.46v3.1h-.46v-3.1Z"/><path class="b" d="M1.95,8h.46v.54c.2-.34,.53-.61,1.06-.61,.75,0,1.19,.5,1.19,1.24v1.92h-.46v-1.81c0-.58-.31-.94-.86-.94s-.93,.39-.93,.97v1.78h-.46v-3.1Z"/><path class="b" d="M6.92,10.2h0c0-.67,.54-1.01,1.33-1.01,.4,0,.68,.05,.95,.13v-.11c0-.56-.34-.85-.92-.85-.37,0-.65,.1-.94,.23l-.14-.38c.34-.16,.68-.26,1.13-.26s.77,.11,1,.34c.21,.21,.32,.51,.32,.91v1.89h-.44v-.47c-.22,.28-.58,.53-1.12,.53-.58,0-1.16-.33-1.16-.97Zm2.28-.24v-.3c-.23-.07-.53-.13-.91-.13-.58,0-.91,.25-.91,.64h0c0,.4,.36,.63,.78,.63,.57,0,1.04-.35,1.04-.84Z"/><path class="b" d="M10.31,9.56h0c0-1.03,.74-1.62,1.48-1.62,.58,0,.95,.31,1.19,.66v-1.87h.46v4.38h-.46v-.62c-.25,.37-.62,.69-1.19,.69-.74,0-1.48-.59-1.48-1.61Zm2.69,0h0c0-.73-.55-1.21-1.12-1.21s-1.09,.44-1.09,1.19h0c0,.74,.51,1.21,1.09,1.21s1.12-.49,1.12-1.2Z"/><path class="b" d="M14.28,9.92v-1.92h.46v1.81c0,.58,.31,.94,.86,.94s.93-.39,.93-.97v-1.78h.46v3.1h-.46v-.54c-.21,.34-.53,.61-1.06,.61-.75,0-1.19-.5-1.19-1.24Z"/><path class="b" d="M17.92,6.72h.46v4.38h-.46V6.72Z"/><path class="b" d="M19.47,10.28v-1.87h-.43v-.41h.43v-.94h.46v.94h.98v.41h-.98v1.81c0,.38,.21,.52,.52,.52,.16,0,.29-.03,.45-.11v.4c-.16,.08-.34,.13-.56,.13-.5,0-.88-.25-.88-.88Z"/><path class="b" d="M21.33,10.7l.23-.33c.34,.25,.71,.4,1.07,.4s.64-.19,.64-.49h0c0-.32-.37-.44-.77-.56-.49-.14-1.03-.31-1.03-.88h0c0-.55,.44-.9,1.06-.9,.38,0,.8,.13,1.12,.34l-.21,.35c-.29-.19-.62-.3-.92-.3-.37,0-.6,.19-.6,.45h0c0,.31,.38,.42,.8,.55,.48,.14,1,.33,1,.89h0c0,.6-.49,.94-1.1,.94-.44,0-.94-.17-1.28-.46Z"/><path class="b" d="M24.38,10.47h.55v.63h-.55v-.63Z"/><path class="b" d="M27.49,6.9h3.02v.44h-2.54v1.5h2.27v.43h-2.27v1.83h-.47V6.9Z"/><path class="b" d="M30.92,9.56h0c0-.89,.68-1.63,1.62-1.63s1.61,.73,1.61,1.61h0c0,.89-.69,1.63-1.62,1.63s-1.61-.73-1.61-1.61Zm2.76,0h0c0-.68-.5-1.22-1.15-1.22s-1.13,.55-1.13,1.2h0c0,.68,.49,1.22,1.15,1.22s1.14-.54,1.14-1.19Z"/><path class="b" d="M34.84,8h.46v.81c.23-.52,.68-.89,1.27-.86v.5h-.04c-.68,0-1.23,.49-1.23,1.42v1.24h-.46v-3.1Z"/><path class="b" d="M38.86,6.9h3.03v.43h-2.56v1.43h2.29v.43h-2.29v1.47h2.59v.43h-3.06V6.9Z"/><path class="b" d="M42.67,9.34v-2.44h.47v2.41c0,.91,.49,1.42,1.28,1.42s1.27-.47,1.27-1.38v-2.44h.47v2.4c0,1.22-.7,1.86-1.75,1.86s-1.75-.64-1.75-1.82Z"/><path class="b" d="M48.8,6.9h.47v1.86h2.42v-1.86h.47v4.2h-.47v-1.89h-2.42v1.89h-.47V6.9Z"/><path class="b" d="M52.94,9.56h0c0-.91,.63-1.62,1.49-1.62,.92,0,1.45,.73,1.45,1.64,0,.06,0,.1,0,.15h-2.46c.07,.67,.54,1.05,1.09,1.05,.43,0,.73-.17,.98-.44l.29,.26c-.31,.35-.69,.58-1.28,.58-.85,0-1.55-.65-1.55-1.61Zm2.46-.18c-.05-.56-.37-1.06-.99-1.06-.54,0-.95,.45-1.01,1.06h2Z"/><path class="b" d="M56.3,10.2h0c0-.67,.54-1.01,1.33-1.01,.4,0,.68,.05,.95,.13v-.11c0-.56-.34-.85-.92-.85-.37,0-.65,.1-.94,.23l-.14-.38c.34-.16,.68-.26,1.13-.26s.77,.11,1,.34c.21,.21,.32,.51,.32,.91v1.89h-.44v-.47c-.22,.28-.58,.53-1.12,.53-.58,0-1.16-.33-1.16-.97Zm2.28-.24v-.3c-.23-.07-.53-.13-.91-.13-.58,0-.91,.25-.91,.64h0c0,.4,.36,.63,.78,.63,.57,0,1.04-.35,1.04-.84Z"/><path class="b" d="M59.91,6.72h.46v4.38h-.46V6.72Z"/><path class="b" d="M61.46,10.28v-1.87h-.43v-.41h.43v-.94h.46v.94h.98v.41h-.98v1.81c0,.38,.21,.52,.52,.52,.16,0,.29-.03,.45-.11v.4c-.16,.08-.34,.13-.56,.13-.5,0-.88-.25-.88-.88Z"/><path class="b" d="M63.58,6.72h.46v1.82c.2-.34,.53-.61,1.06-.61,.75,0,1.19,.5,1.19,1.24v1.92h-.46v-1.81c0-.58-.31-.94-.86-.94s-.93,.39-.93,.97v1.78h-.46V6.72Z"/><path class="b" d="M66.93,9.56h0c0-.89,.68-1.63,1.59-1.63,.59,0,.95,.25,1.24,.55l-.31,.32c-.25-.26-.52-.47-.94-.47-.63,0-1.11,.53-1.11,1.2h0c0,.68,.49,1.22,1.14,1.22,.4,0,.7-.2,.95-.46l.29,.28c-.31,.35-.68,.6-1.27,.6-.91,0-1.59-.74-1.59-1.61Z"/><path class="b" d="M70.17,10.2h0c0-.67,.54-1.01,1.33-1.01,.4,0,.68,.05,.95,.13v-.11c0-.56-.34-.85-.92-.85-.37,0-.65,.1-.94,.23l-.14-.38c.34-.16,.68-.26,1.13-.26s.77,.11,1,.34c.21,.21,.32,.51,.32,.91v1.89h-.44v-.47c-.22,.28-.58,.53-1.12,.53-.58,0-1.16-.33-1.16-.97Zm2.28-.24v-.3c-.23-.07-.53-.13-.91-.13-.58,0-.91,.25-.91,.64h0c0,.4,.36,.63,.78,.63,.57,0,1.04-.35,1.04-.84Z"/><path class="b" d="M73.73,8h.46v.81c.23-.52,.68-.89,1.27-.86v.5h-.04c-.68,0-1.23,.49-1.23,1.42v1.24h-.46v-3.1Z"/><path class="b" d="M75.69,9.56h0c0-.91,.63-1.62,1.49-1.62,.92,0,1.45,.73,1.45,1.64,0,.06,0,.1,0,.15h-2.46c.07,.67,.54,1.05,1.09,1.05,.43,0,.73-.17,.98-.44l.29,.26c-.31,.35-.69,.58-1.28,.58-.85,0-1.55-.65-1.55-1.61Zm2.46-.18c-.05-.56-.37-1.06-.99-1.06-.54,0-.95,.45-1.01,1.06h2Z"/><path class="b" d="M81.03,6.9h1.57c.95,0,1.57,.5,1.57,1.33h0c0,.92-.76,1.38-1.65,1.38h-1.02v1.48h-.47V6.9Zm1.51,2.28c.7,0,1.15-.37,1.15-.92h0c0-.61-.45-.92-1.13-.92h-1.06v1.85h1.04Z"/><path class="b" d="M84.81,8h.46v.81c.23-.52,.68-.89,1.27-.86v.5h-.04c-.68,0-1.23,.49-1.23,1.42v1.24h-.46v-3.1Z"/><path class="b" d="M86.77,9.56h0c0-.89,.68-1.63,1.62-1.63s1.61,.73,1.61,1.61h0c0,.89-.69,1.63-1.62,1.63s-1.61-.73-1.61-1.61Zm2.76,0h0c0-.68-.5-1.22-1.15-1.22s-1.13,.55-1.13,1.2h0c0,.68,.49,1.22,1.15,1.22s1.14-.54,1.14-1.19Z"/><path class="b" d="M90.87,8.41h-.43v-.4h.43v-.27c0-.35,.1-.62,.27-.8,.16-.16,.38-.24,.67-.24,.22,0,.36,.02,.51,.08v.4c-.17-.05-.29-.08-.45-.08-.36,0-.54,.22-.54,.66v.25h.98v.4h-.98v2.69h-.46v-2.69Z"/><path class="b" d="M92.5,9.56h0c0-.91,.63-1.62,1.49-1.62,.92,0,1.45,.73,1.45,1.64,0,.06,0,.1,0,.15h-2.46c.07,.67,.54,1.05,1.09,1.05,.43,0,.73-.17,.98-.44l.29,.26c-.31,.35-.69,.58-1.28,.58-.85,0-1.55-.65-1.55-1.61Zm2.46-.18c-.05-.56-.37-1.06-.99-1.06-.54,0-.95,.45-1.01,1.06h2Z"/><path class="b" d="M95.84,10.7l.23-.33c.34,.25,.71,.4,1.07,.4s.64-.19,.64-.49h0c0-.32-.37-.44-.77-.56-.49-.14-1.03-.31-1.03-.88h0c0-.55,.44-.9,1.06-.9,.38,0,.8,.13,1.12,.34l-.21,.35c-.29-.19-.62-.3-.92-.3-.37,0-.6,.19-.6,.45h0c0,.31,.38,.42,.8,.55,.48,.14,1,.33,1,.89h0c0,.6-.49,.94-1.1,.94-.44,0-.94-.17-1.28-.46Z"/><path class="b" d="M98.62,10.7l.23-.33c.34,.25,.71,.4,1.07,.4s.64-.19,.64-.49h0c0-.32-.37-.44-.77-.56-.49-.14-1.03-.31-1.03-.88h0c0-.55,.44-.9,1.06-.9,.38,0,.8,.13,1.12,.34l-.21,.35c-.29-.19-.62-.3-.92-.3-.37,0-.6,.19-.6,.45h0c0,.31,.38,.42,.8,.55,.48,.14,1,.33,1,.89h0c0,.6-.49,.94-1.1,.94-.44,0-.94-.17-1.28-.46Z"/><path class="b" d="M101.73,6.81h.53v.51h-.53v-.51Zm.03,1.19h.46v3.1h-.46v-3.1Z"/><path class="b" d="M102.96,9.56h0c0-.89,.68-1.63,1.62-1.63s1.61,.73,1.61,1.61h0c0,.89-.69,1.63-1.62,1.63s-1.61-.73-1.61-1.61Zm2.76,0h0c0-.68-.5-1.22-1.15-1.22s-1.13,.55-1.13,1.2h0c0,.68,.49,1.22,1.15,1.22s1.14-.54,1.14-1.19Z"/><path class="b" d="M106.88,8h.46v.54c.2-.34,.53-.61,1.06-.61,.75,0,1.19,.5,1.19,1.24v1.92h-.46v-1.81c0-.58-.31-.94-.86-.94s-.93,.39-.93,.97v1.78h-.46v-3.1Z"/><path class="b" d="M110.19,10.2h0c0-.67,.54-1.01,1.33-1.01,.4,0,.68,.05,.95,.13v-.11c0-.56-.34-.85-.92-.85-.37,0-.65,.1-.94,.23l-.14-.38c.34-.16,.68-.26,1.13-.26s.77,.11,1,.34c.21,.21,.32,.51,.32,.91v1.89h-.44v-.47c-.22,.28-.58,.53-1.12,.53-.58,0-1.16-.33-1.16-.97Zm2.28-.24v-.3c-.23-.07-.53-.13-.91-.13-.58,0-.91,.25-.91,.64h0c0,.4,.36,.63,.78,.63,.57,0,1.04-.35,1.04-.84Z"/><path class="b" d="M113.8,6.72h.46v4.38h-.46V6.72Z"/><path class="b" d="M114.93,10.7l.23-.33c.34,.25,.71,.4,1.07,.4s.64-.19,.64-.49h0c0-.32-.37-.44-.77-.56-.49-.14-1.03-.31-1.03-.88h0c0-.55,.44-.9,1.06-.9,.38,0,.8,.13,1.12,.34l-.21,.35c-.29-.19-.62-.3-.92-.3-.37,0-.6,.19-.6,.45h0c0,.31,.38,.42,.8,.55,.48,.14,1,.33,1,.89h0c0,.6-.49,.94-1.1,.94-.44,0-.94-.17-1.28-.46Z"/><path class="b" d="M119.5,9.56h0c0-.89,.68-1.63,1.62-1.63s1.61,.73,1.61,1.61h0c0,.89-.69,1.63-1.62,1.63s-1.61-.73-1.61-1.61Zm2.76,0h0c0-.68-.5-1.22-1.15-1.22s-1.13,.55-1.13,1.2h0c0,.68,.49,1.22,1.15,1.22s1.14-.54,1.14-1.19Z"/><path class="b" d="M123.42,8h.46v.54c.2-.34,.53-.61,1.06-.61,.75,0,1.19,.5,1.19,1.24v1.92h-.46v-1.81c0-.58-.31-.94-.86-.94s-.93,.39-.93,.97v1.78h-.46v-3.1Z"/><path class="b" d="M127.02,6.72h.46v4.38h-.46V6.72Z"/><path class="b" d="M130.73,8h.49l-1.3,3.2c-.26,.64-.56,.88-1.03,.88-.26,0-.45-.05-.66-.16l.16-.37c.15,.08,.29,.11,.49,.11,.28,0,.45-.14,.64-.58l-1.41-3.09h.51l1.13,2.58,1-2.58Z"/><path class="b" d="M131.25,10.47h.55v.63h-.55v-.63Z"/><path class="b" d="M135.91,6.87h.44l1.91,4.23h-.51l-.49-1.11h-2.29l-.5,1.11h-.49l1.91-4.23Zm1.17,2.69l-.95-2.13-.96,2.13h1.91Z"/><path class="b" d="M138.7,9.56h0c0-1.03,.74-1.62,1.48-1.62,.58,0,.95,.31,1.19,.66v-1.87h.46v4.38h-.46v-.62c-.25,.37-.62,.69-1.19,.69-.74,0-1.48-.59-1.48-1.61Zm2.69,0h0c0-.73-.55-1.21-1.12-1.21s-1.09,.44-1.09,1.19h0c0,.74,.51,1.21,1.09,1.21s1.12-.49,1.12-1.2Z"/><path class="b" d="M142.41,8h.51l1.04,2.57,1.05-2.57h.5l-1.35,3.12h-.41l-1.34-3.12Z"/><path class="b" d="M145.91,9.56h0c0-.91,.63-1.62,1.49-1.62,.92,0,1.45,.73,1.45,1.64,0,.06,0,.1,0,.15h-2.46c.07,.67,.54,1.05,1.09,1.05,.43,0,.73-.17,.98-.44l.29,.26c-.31,.35-.69,.58-1.28,.58-.85,0-1.55-.65-1.55-1.61Zm2.46-.18c-.05-.56-.37-1.06-.99-1.06-.54,0-.95,.45-1.01,1.06h2Z"/><path class="b" d="M149.51,8h.46v.81c.23-.52,.68-.89,1.26-.86v.5h-.04c-.68,0-1.23,.49-1.23,1.42v1.24h-.46v-3.1Z"/><path class="b" d="M151.53,10.7l.23-.33c.34,.25,.71,.4,1.07,.4s.64-.19,.64-.49h0c0-.32-.37-.44-.77-.56-.49-.14-1.03-.31-1.03-.88h0c0-.55,.44-.9,1.06-.9,.38,0,.8,.13,1.12,.34l-.21,.35c-.29-.19-.62-.3-.92-.3-.37,0-.6,.19-.6,.45h0c0,.31,.38,.42,.8,.55,.48,.14,1,.33,1,.89h0c0,.6-.49,.94-1.1,.94-.44,0-.94-.17-1.28-.46Z"/><path class="b" d="M154.44,9.56h0c0-.91,.63-1.62,1.49-1.62,.92,0,1.45,.73,1.45,1.64,0,.06,0,.1,0,.15h-2.46c.07,.67,.54,1.05,1.09,1.05,.43,0,.73-.17,.98-.44l.29,.26c-.31,.35-.69,.58-1.28,.58-.85,0-1.55-.65-1.55-1.61Zm2.46-.18c-.05-.56-.37-1.06-.99-1.06-.54,0-.95,.45-1.01,1.06h2Z"/><path class="b" d="M159.51,9.56h0c0-.91,.63-1.62,1.49-1.62,.92,0,1.45,.73,1.45,1.64,0,.06,0,.1,0,.15h-2.46c.07,.67,.54,1.05,1.09,1.05,.43,0,.73-.17,.98-.44l.29,.26c-.31,.35-.69,.58-1.28,.58-.85,0-1.55-.65-1.55-1.61Zm2.46-.18c-.05-.56-.37-1.06-.99-1.06-.54,0-.95,.45-1.01,1.06h2Z"/><path class="b" d="M162.8,8h.51l1.04,2.57,1.05-2.57h.5l-1.35,3.12h-.41l-1.34-3.12Z"/><path class="b" d="M166.29,9.56h0c0-.91,.63-1.62,1.49-1.62,.92,0,1.45,.73,1.45,1.64,0,.06,0,.1,0,.15h-2.46c.07,.67,.54,1.05,1.09,1.05,.43,0,.73-.17,.98-.44l.29,.26c-.31,.35-.69,.58-1.28,.58-.85,0-1.55-.65-1.55-1.61Zm2.46-.18c-.05-.56-.37-1.06-.99-1.06-.54,0-.95,.45-1.01,1.06h2Z"/><path class="b" d="M169.89,8h.46v.54c.2-.34,.53-.61,1.06-.61,.75,0,1.19,.5,1.19,1.24v1.92h-.46v-1.81c0-.58-.31-.94-.86-.94s-.93,.39-.93,.97v1.78h-.46v-3.1Z"/><path class="b" d="M173.61,10.28v-1.87h-.43v-.41h.43v-.94h.46v.94h.98v.41h-.98v1.81c0,.38,.21,.52,.52,.52,.16,0,.29-.03,.45-.11v.4c-.16,.08-.33,.13-.56,.13-.5,0-.88-.25-.88-.88Z"/><path class="b" d="M175.47,10.7l.23-.33c.33,.25,.71,.4,1.07,.4s.64-.19,.64-.49h0c0-.32-.37-.44-.77-.56-.49-.14-1.03-.31-1.03-.88h0c0-.55,.44-.9,1.05-.9,.38,0,.8,.13,1.12,.34l-.21,.35c-.29-.19-.62-.3-.92-.3-.37,0-.6,.19-.6,.45h0c0,.31,.38,.42,.8,.55,.48,.14,1,.33,1,.89h0c0,.6-.49,.94-1.1,.94-.44,0-.94-.17-1.28-.46Z"/><path class="b" d="M179.97,10.7l.23-.33c.33,.25,.71,.4,1.07,.4s.64-.19,.64-.49h0c0-.32-.37-.44-.77-.56-.49-.14-1.03-.31-1.03-.88h0c0-.55,.44-.9,1.05-.9,.38,0,.8,.13,1.12,.34l-.21,.35c-.29-.19-.62-.3-.92-.3-.37,0-.6,.19-.6,.45h0c0,.31,.38,.42,.8,.55,.48,.14,1,.33,1,.89h0c0,.6-.49,.94-1.1,.94-.44,0-.94-.17-1.28-.46Z"/><path class="b" d="M183.07,6.72h.46v1.82c.2-.34,.53-.61,1.06-.61,.75,0,1.19,.5,1.19,1.24v1.92h-.46v-1.81c0-.58-.31-.94-.86-.94s-.93,.39-.93,.97v1.78h-.46V6.72Z"/><path class="b" d="M186.43,9.56h0c0-.89,.68-1.63,1.62-1.63s1.61,.73,1.61,1.61h0c0,.89-.69,1.63-1.62,1.63s-1.61-.73-1.61-1.61Zm2.76,0h0c0-.68-.5-1.22-1.15-1.22s-1.13,.55-1.13,1.2h0c0,.68,.49,1.22,1.15,1.22s1.14-.54,1.14-1.19Z"/><path class="b" d="M190.31,9.92v-1.92h.46v1.81c0,.58,.31,.94,.86,.94s.93-.39,.93-.97v-1.78h.46v3.1h-.46v-.54c-.21,.34-.53,.61-1.06,.61-.75,0-1.19-.5-1.19-1.24Z"/><path class="b" d="M193.95,6.72h.46v4.38h-.46V6.72Z"/><path class="b" d="M195.16,9.56h0c0-1.03,.74-1.62,1.48-1.62,.58,0,.95,.31,1.19,.66v-1.87h.46v4.38h-.46v-.62c-.25,.37-.62,.69-1.19,.69-.74,0-1.48-.59-1.48-1.61Zm2.69,0h0c0-.73-.55-1.21-1.12-1.21s-1.09,.44-1.09,1.19h0c0,.74,.51,1.21,1.09,1.21s1.12-.49,1.12-1.2Z"/><path class="b" d="M201.3,10.51v.59h-.46V6.72h.46v1.9c.25-.37,.62-.69,1.19-.69,.74,0,1.48,.59,1.48,1.61h0c0,1.03-.73,1.63-1.48,1.63-.58,0-.95-.31-1.19-.66Zm2.19-.95h0c0-.74-.5-1.21-1.09-1.21s-1.12,.49-1.12,1.19h0c0,.73,.55,1.21,1.12,1.21s1.09-.44,1.09-1.19Z"/><path class="b" d="M204.48,9.56h0c0-.91,.63-1.62,1.49-1.62,.92,0,1.45,.73,1.45,1.64,0,.06,0,.1,0,.15h-2.46c.07,.67,.54,1.05,1.09,1.05,.43,0,.73-.17,.98-.44l.29,.26c-.31,.35-.69,.58-1.28,.58-.85,0-1.55-.65-1.55-1.61Zm2.46-.18c-.05-.56-.37-1.06-.99-1.06-.54,0-.95,.45-1.01,1.06h2Z"/><path class="b" d="M209.74,8h.46v.81c.23-.52,.68-.89,1.27-.86v.5h-.04c-.68,0-1.23,.49-1.23,1.42v1.24h-.46v-3.1Z"/><path class="b" d="M211.83,9.56h0c0-.91,.63-1.62,1.49-1.62,.92,0,1.45,.73,1.45,1.64,0,.06,0,.1,0,.15h-2.46c.07,.67,.54,1.05,1.09,1.05,.43,0,.73-.17,.98-.44l.29,.26c-.31,.35-.69,.58-1.28,.58-.85,0-1.55-.65-1.55-1.61Zm2.46-.18c-.05-.56-.37-1.06-.99-1.06-.54,0-.95,.45-1.01,1.06h2Z"/><path class="b" d="M215.43,8h.46v.62c.25-.37,.62-.69,1.19-.69,.74,0,1.48,.59,1.48,1.61h0c0,1.03-.73,1.63-1.48,1.63-.58,0-.95-.31-1.19-.66v1.55h-.46V8Zm2.66,1.56h0c0-.74-.5-1.21-1.09-1.21s-1.12,.49-1.12,1.19h0c0,.73,.55,1.21,1.12,1.21s1.09-.44,1.09-1.19Z"/><path class="b" d="M219.08,9.56h0c0-.89,.68-1.63,1.62-1.63s1.61,.73,1.61,1.61h0c0,.89-.69,1.63-1.62,1.63s-1.61-.73-1.61-1.61Zm2.76,0h0c0-.68-.5-1.22-1.15-1.22s-1.13,.55-1.13,1.2h0c0,.68,.49,1.22,1.15,1.22s1.14-.54,1.14-1.19Z"/><path class="b" d="M223,8h.46v.81c.23-.52,.68-.89,1.27-.86v.5h-.04c-.68,0-1.23,.49-1.23,1.42v1.24h-.46v-3.1Z"/><path class="b" d="M225.45,10.28v-1.87h-.43v-.41h.43v-.94h.46v.94h.98v.41h-.98v1.81c0,.38,.21,.52,.52,.52,.16,0,.29-.03,.45-.11v.4c-.16,.08-.33,.13-.56,.13-.5,0-.88-.25-.88-.88Z"/><path class="b" d="M227.38,9.56h0c0-.91,.63-1.62,1.49-1.62,.92,0,1.45,.73,1.45,1.64,0,.06,0,.1,0,.15h-2.46c.07,.67,.54,1.05,1.09,1.05,.43,0,.73-.17,.98-.44l.29,.26c-.31,.35-.69,.58-1.28,.58-.85,0-1.55-.65-1.55-1.61Zm2.46-.18c-.05-.56-.37-1.06-.99-1.06-.54,0-.95,.45-1.01,1.06h2Z"/><path class="b" d="M230.8,9.56h0c0-1.03,.74-1.62,1.48-1.62,.58,0,.95,.31,1.19,.66v-1.87h.46v4.38h-.46v-.62c-.25,.37-.62,.69-1.19,.69-.74,0-1.48-.59-1.48-1.61Zm2.69,0h0c0-.73-.55-1.21-1.12-1.21s-1.09,.44-1.09,1.19h0c0,.74,.51,1.21,1.09,1.21s1.12-.49,1.12-1.2Z"/><path class="b" d="M234.76,10.47h.55v.63h-.55v-.63Z"/></g></svg>